M48
;DRILL file {KiCad 4.0.6} date 08/19/17 01:45:54
;FORMAT={-:-/ absolute / inch / decimal}
FMAT,2
INCH,TZ
T1C0.013
T2C0.025
T3C0.039
T4C0.040
%
G90
G05
M72
T1
X2.3299Y-1.6587
X2.4736Y-3.3756
X2.5465Y-2.3299
X2.6185Y-2.3461
X2.6327Y-2.2051
X2.6925Y-2.3496
X2.7153Y-2.2401
X2.7772Y-2.2618
X2.9138Y-2.0819
X3.2543Y-2.5209
X3.278Y-1.9472
X3.302Y-3.0276
X3.313Y-2.4232
X3.3295Y-1.8858
X3.3787Y-2.4882
X3.3929Y-3.0244
X3.4492Y-2.4622
X3.8079Y-3.4055
X3.8677Y-1.4228
T2
X2.2823Y-2.5028
X2.4102Y-2.8976
X2.9335Y-2.0205
X3.0146Y-2.322
X3.2362Y-2.1654
X3.2669Y-1.7421
X3.474Y-2.0646
T3
X2.1488Y-1.8362
X2.1488Y-1.9362
X2.1488Y-2.0362
X2.2705Y-2.7035
X2.2705Y-2.8035
X2.3705Y-2.7035
X2.3705Y-2.8035
X2.4705Y-2.7035
X2.4705Y-2.8035
X2.6543Y-2.5669
X2.7543Y-2.5669
X2.8543Y-2.5669
X3.7272Y-2.0157
X3.7272Y-2.1157
X3.7272Y-2.2157
X3.7272Y-2.3157
X3.7272Y-2.4157
X3.8272Y-2.0157
X3.8272Y-2.1157
X3.8272Y-2.2157
X3.8272Y-2.3157
X3.8272Y-2.4157
T4
X2.1803Y-1.4217
X2.1803Y-1.5217
X2.2803Y-1.4217
X2.2803Y-1.5217
X2.3803Y-1.4217
X2.3803Y-1.5217
X2.4803Y-1.4217
X2.4803Y-1.5217
X2.5803Y-1.4217
X2.5803Y-1.5217
X2.6803Y-1.4217
X2.6803Y-1.5217
X2.7492Y-2.7244
X2.7492Y-3.3244
X2.7803Y-1.4217
X2.7803Y-1.5217
X2.8492Y-2.7244
X2.8492Y-3.3244
X2.8803Y-1.4217
X2.8803Y-1.5217
X2.9492Y-2.7244
X2.9492Y-3.3244
X2.9803Y-1.4217
X2.9803Y-1.5217
X3.0492Y-2.7244
X3.0492Y-3.3244
X3.0803Y-1.4217
X3.0803Y-1.5217
X3.1492Y-2.7244
X3.1492Y-3.3244
X3.1803Y-1.4217
X3.1803Y-1.5217
X3.2492Y-2.7244
X3.2492Y-3.3244
X3.2803Y-1.4217
X3.2803Y-1.5217
X3.3492Y-2.7244
X3.3492Y-3.3244
X3.3803Y-1.4217
X3.3803Y-1.5217
X3.4492Y-2.7244
X3.4492Y-3.3244
X3.4803Y-1.4217
X3.4803Y-1.5217
X3.5492Y-2.7244
X3.5492Y-3.3244
X3.5803Y-1.4217
X3.5803Y-1.5217
X3.6492Y-2.7244
X3.6492Y-3.3244
X3.6803Y-1.4217
X3.6803Y-1.5217
X3.7492Y-2.7244
X3.7492Y-3.3244
X3.7803Y-1.4217
X3.7803Y-1.5217
X3.8492Y-2.7244
X3.8492Y-3.3244
T0
M30
