G04 #@! TF.FileFunction,Soldermask,Bot*
%FSLAX46Y46*%
G04 Gerber Fmt 4.6, Leading zero omitted, Abs format (unit mm)*
G04 Created by KiCad (PCBNEW 4.0.6) date Saturday, October 28, 2017 'PMt' 05:19:06 PM*
%MOMM*%
%LPD*%
G01*
G04 APERTURE LIST*
%ADD10C,0.100000*%
%ADD11R,2.100000X2.100000*%
%ADD12O,2.100000X2.100000*%
%ADD13R,1.924000X1.924000*%
%ADD14C,1.924000*%
%ADD15C,2.178000*%
%ADD16R,2.178000X2.178000*%
G04 APERTURE END LIST*
D10*
D11*
X94670000Y-51200000D03*
D12*
X97210000Y-51200000D03*
X94670000Y-53740000D03*
X97210000Y-53740000D03*
X94670000Y-56280000D03*
X97210000Y-56280000D03*
X94670000Y-58820000D03*
X97210000Y-58820000D03*
X94670000Y-61360000D03*
X97210000Y-61360000D03*
D13*
X55380000Y-38650000D03*
D14*
X55380000Y-36110000D03*
X57920000Y-38650000D03*
X57920000Y-36110000D03*
X60460000Y-38650000D03*
X60460000Y-36110000D03*
X63000000Y-38650000D03*
X63000000Y-36110000D03*
X65540000Y-38650000D03*
X65540000Y-36110000D03*
X68080000Y-38650000D03*
X68080000Y-36110000D03*
X70620000Y-38650000D03*
X70620000Y-36110000D03*
X73160000Y-38650000D03*
X73160000Y-36110000D03*
X75700000Y-38650000D03*
X75700000Y-36110000D03*
X78240000Y-38650000D03*
X78240000Y-36110000D03*
X80780000Y-38650000D03*
X80780000Y-36110000D03*
X83320000Y-38650000D03*
X83320000Y-36110000D03*
X85860000Y-38650000D03*
X85860000Y-36110000D03*
X88400000Y-38650000D03*
X88400000Y-36110000D03*
X90940000Y-38650000D03*
X90940000Y-36110000D03*
X93480000Y-38650000D03*
X93480000Y-36110000D03*
X96020000Y-38650000D03*
X96020000Y-36110000D03*
D15*
X69830000Y-69200000D03*
D16*
X69830000Y-84440000D03*
D15*
X72370000Y-69200000D03*
X72370000Y-84440000D03*
X74910000Y-69200000D03*
X74910000Y-84440000D03*
X77450000Y-69200000D03*
X77450000Y-84440000D03*
X79990000Y-69200000D03*
X79990000Y-84440000D03*
X82530000Y-69200000D03*
X82530000Y-84440000D03*
X85070000Y-69200000D03*
X85070000Y-84440000D03*
X87610000Y-69200000D03*
X87610000Y-84440000D03*
X90150000Y-69200000D03*
X90150000Y-84440000D03*
X92690000Y-69200000D03*
X92690000Y-84440000D03*
X95230000Y-69200000D03*
X95230000Y-84440000D03*
X97770000Y-69200000D03*
X97770000Y-84440000D03*
D11*
X54580000Y-46640000D03*
D12*
X54580000Y-49180000D03*
X54580000Y-51720000D03*
D11*
X67420000Y-65200000D03*
D12*
X69960000Y-65200000D03*
X72500000Y-65200000D03*
D11*
X57670000Y-71210000D03*
D12*
X57670000Y-68670000D03*
X60210000Y-71210000D03*
X60210000Y-68670000D03*
X62750000Y-71210000D03*
X62750000Y-68670000D03*
M02*
