G04 #@! TF.FileFunction,Copper,L2,Bot,Signal*
%FSLAX46Y46*%
G04 Gerber Fmt 4.6, Leading zero omitted, Abs format (unit mm)*
G04 Created by KiCad (PCBNEW 4.0.6) date Saturday, October 28, 2017 'PMt' 05:19:06 PM*
%MOMM*%
%LPD*%
G01*
G04 APERTURE LIST*
%ADD10C,0.100000*%
%ADD11R,1.700000X1.700000*%
%ADD12O,1.700000X1.700000*%
%ADD13R,1.524000X1.524000*%
%ADD14C,1.524000*%
%ADD15C,1.778000*%
%ADD16R,1.778000X1.778000*%
%ADD17C,0.812800*%
%ADD18C,1.016000*%
%ADD19C,1.016000*%
%ADD20C,0.177800*%
%ADD21C,0.254000*%
G04 APERTURE END LIST*
D10*
D11*
X94670000Y-51200000D03*
D12*
X97210000Y-51200000D03*
X94670000Y-53740000D03*
X97210000Y-53740000D03*
X94670000Y-56280000D03*
X97210000Y-56280000D03*
X94670000Y-58820000D03*
X97210000Y-58820000D03*
X94670000Y-61360000D03*
X97210000Y-61360000D03*
D13*
X55380000Y-38650000D03*
D14*
X55380000Y-36110000D03*
X57920000Y-38650000D03*
X57920000Y-36110000D03*
X60460000Y-38650000D03*
X60460000Y-36110000D03*
X63000000Y-38650000D03*
X63000000Y-36110000D03*
X65540000Y-38650000D03*
X65540000Y-36110000D03*
X68080000Y-38650000D03*
X68080000Y-36110000D03*
X70620000Y-38650000D03*
X70620000Y-36110000D03*
X73160000Y-38650000D03*
X73160000Y-36110000D03*
X75700000Y-38650000D03*
X75700000Y-36110000D03*
X78240000Y-38650000D03*
X78240000Y-36110000D03*
X80780000Y-38650000D03*
X80780000Y-36110000D03*
X83320000Y-38650000D03*
X83320000Y-36110000D03*
X85860000Y-38650000D03*
X85860000Y-36110000D03*
X88400000Y-38650000D03*
X88400000Y-36110000D03*
X90940000Y-38650000D03*
X90940000Y-36110000D03*
X93480000Y-38650000D03*
X93480000Y-36110000D03*
X96020000Y-38650000D03*
X96020000Y-36110000D03*
D15*
X69830000Y-69200000D03*
D16*
X69830000Y-84440000D03*
D15*
X72370000Y-69200000D03*
X72370000Y-84440000D03*
X74910000Y-69200000D03*
X74910000Y-84440000D03*
X77450000Y-69200000D03*
X77450000Y-84440000D03*
X79990000Y-69200000D03*
X79990000Y-84440000D03*
X82530000Y-69200000D03*
X82530000Y-84440000D03*
X85070000Y-69200000D03*
X85070000Y-84440000D03*
X87610000Y-69200000D03*
X87610000Y-84440000D03*
X90150000Y-69200000D03*
X90150000Y-84440000D03*
X92690000Y-69200000D03*
X92690000Y-84440000D03*
X95230000Y-69200000D03*
X95230000Y-84440000D03*
X97770000Y-69200000D03*
X97770000Y-84440000D03*
D11*
X54580000Y-46640000D03*
D12*
X54580000Y-49180000D03*
X54580000Y-51720000D03*
D11*
X67420000Y-65200000D03*
D12*
X69960000Y-65200000D03*
X72500000Y-65200000D03*
D17*
X83870000Y-76900000D03*
X86180000Y-76820000D03*
X84570000Y-47900000D03*
X74010000Y-52880000D03*
X98240000Y-36140000D03*
X62830000Y-85740000D03*
X96720000Y-86500000D03*
D11*
X57670000Y-71210000D03*
D12*
X57670000Y-68670000D03*
X60210000Y-71210000D03*
X60210000Y-68670000D03*
X62750000Y-71210000D03*
X62750000Y-68670000D03*
D18*
X74510000Y-51320000D03*
X61220000Y-73600000D03*
X88240000Y-52440000D03*
X57970000Y-63570000D03*
X82980000Y-44250000D03*
X82200000Y-55000000D03*
X76570000Y-58980000D03*
D17*
X84150000Y-61550000D03*
X83260002Y-49460000D03*
X87610000Y-62540000D03*
X85820000Y-63200000D03*
X82660000Y-64030000D03*
X59180000Y-42130000D03*
X68390000Y-59680000D03*
X70540000Y-57450000D03*
X66510000Y-59590000D03*
X68969666Y-56899443D03*
X66870000Y-56010000D03*
X64680000Y-59180000D03*
D19*
X74002001Y-50812001D02*
X74510000Y-51320000D01*
X72370000Y-49180000D02*
X74002001Y-50812001D01*
X54580000Y-49180000D02*
X72370000Y-49180000D01*
D20*
X84150000Y-62124736D02*
X84150000Y-61550000D01*
X84150000Y-67580000D02*
X84150000Y-62124736D01*
X82530000Y-69200000D02*
X84150000Y-67580000D01*
X94670000Y-53740000D02*
X90390000Y-49460000D01*
X90390000Y-49460000D02*
X83834738Y-49460000D01*
X83834738Y-49460000D02*
X83260002Y-49460000D01*
X87610000Y-69200000D02*
X87610000Y-62540000D01*
X85070000Y-69200000D02*
X85070000Y-69150000D01*
X85070000Y-69150000D02*
X85790000Y-68430000D01*
X85790000Y-63230000D02*
X85820000Y-63200000D01*
X85790000Y-68430000D02*
X85790000Y-63230000D01*
X82253601Y-64436399D02*
X82660000Y-64030000D01*
X79990000Y-66700000D02*
X82253601Y-64436399D01*
X79990000Y-69200000D02*
X79990000Y-66700000D01*
X59180000Y-42130000D02*
X59180000Y-38150000D01*
X59180000Y-38150000D02*
X58410000Y-37380000D01*
X58410000Y-37380000D02*
X56650000Y-37380000D01*
X56650000Y-37380000D02*
X56141999Y-36871999D01*
X56141999Y-36871999D02*
X55380000Y-36110000D01*
X68390000Y-59600000D02*
X68390000Y-59680000D01*
X70540000Y-57450000D02*
X68390000Y-59600000D01*
X66510000Y-59359109D02*
X66510000Y-59590000D01*
X68969666Y-56899443D02*
X66510000Y-59359109D01*
X66463601Y-56416399D02*
X66870000Y-56010000D01*
X64680000Y-58200000D02*
X66463601Y-56416399D01*
X64680000Y-59180000D02*
X64680000Y-58200000D01*
D21*
G36*
X85059392Y-35129787D02*
X85860000Y-35930395D01*
X86660608Y-35129787D01*
X86613629Y-34966000D01*
X98641118Y-34966000D01*
X99374000Y-35698881D01*
X99374000Y-86661119D01*
X98641118Y-87394000D01*
X52758881Y-87394000D01*
X52026000Y-86661118D01*
X52026000Y-83551000D01*
X68552536Y-83551000D01*
X68552536Y-85329000D01*
X68579103Y-85470190D01*
X68662546Y-85599865D01*
X68789866Y-85686859D01*
X68941000Y-85717464D01*
X70719000Y-85717464D01*
X70860190Y-85690897D01*
X70989865Y-85607454D01*
X71076859Y-85480134D01*
X71107464Y-85329000D01*
X71107464Y-84710107D01*
X71292718Y-85158458D01*
X71649663Y-85516026D01*
X72116273Y-85709779D01*
X72621510Y-85710220D01*
X73088458Y-85517282D01*
X73093552Y-85512196D01*
X74017409Y-85512196D01*
X74102467Y-85767539D01*
X74671965Y-85975516D01*
X75277700Y-85949723D01*
X75717533Y-85767539D01*
X75802591Y-85512196D01*
X76557409Y-85512196D01*
X76642467Y-85767539D01*
X77211965Y-85975516D01*
X77817700Y-85949723D01*
X78257533Y-85767539D01*
X78342591Y-85512196D01*
X77450000Y-84619605D01*
X76557409Y-85512196D01*
X75802591Y-85512196D01*
X74910000Y-84619605D01*
X74017409Y-85512196D01*
X73093552Y-85512196D01*
X73446026Y-85160337D01*
X73496247Y-85039392D01*
X73582461Y-85247533D01*
X73837804Y-85332591D01*
X74730395Y-84440000D01*
X75089605Y-84440000D01*
X75982196Y-85332591D01*
X76180000Y-85266700D01*
X76377804Y-85332591D01*
X77270395Y-84440000D01*
X77629605Y-84440000D01*
X78522196Y-85332591D01*
X78777539Y-85247533D01*
X78858229Y-85026583D01*
X78912718Y-85158458D01*
X79269663Y-85516026D01*
X79736273Y-85709779D01*
X80241510Y-85710220D01*
X80708458Y-85517282D01*
X81066026Y-85160337D01*
X81259779Y-84693727D01*
X81259781Y-84691512D01*
X81452718Y-85158458D01*
X81809663Y-85516026D01*
X82276273Y-85709779D01*
X82781510Y-85710220D01*
X83248458Y-85517282D01*
X83606026Y-85160337D01*
X83799779Y-84693727D01*
X83799781Y-84691512D01*
X83992718Y-85158458D01*
X84349663Y-85516026D01*
X84816273Y-85709779D01*
X85321510Y-85710220D01*
X85788458Y-85517282D01*
X86146026Y-85160337D01*
X86339779Y-84693727D01*
X86339781Y-84691512D01*
X86532718Y-85158458D01*
X86889663Y-85516026D01*
X87356273Y-85709779D01*
X87861510Y-85710220D01*
X88328458Y-85517282D01*
X88686026Y-85160337D01*
X88879779Y-84693727D01*
X88879781Y-84691512D01*
X89072718Y-85158458D01*
X89429663Y-85516026D01*
X89896273Y-85709779D01*
X90401510Y-85710220D01*
X90868458Y-85517282D01*
X91226026Y-85160337D01*
X91419779Y-84693727D01*
X91419781Y-84691512D01*
X91612718Y-85158458D01*
X91969663Y-85516026D01*
X92436273Y-85709779D01*
X92941510Y-85710220D01*
X93408458Y-85517282D01*
X93766026Y-85160337D01*
X93959779Y-84693727D01*
X93959781Y-84691512D01*
X94152718Y-85158458D01*
X94509663Y-85516026D01*
X94976273Y-85709779D01*
X95481510Y-85710220D01*
X95948458Y-85517282D01*
X96306026Y-85160337D01*
X96499779Y-84693727D01*
X96499781Y-84691512D01*
X96692718Y-85158458D01*
X97049663Y-85516026D01*
X97516273Y-85709779D01*
X98021510Y-85710220D01*
X98488458Y-85517282D01*
X98846026Y-85160337D01*
X99039779Y-84693727D01*
X99040220Y-84188490D01*
X98847282Y-83721542D01*
X98490337Y-83363974D01*
X98023727Y-83170221D01*
X97518490Y-83169780D01*
X97051542Y-83362718D01*
X96693974Y-83719663D01*
X96500221Y-84186273D01*
X96500219Y-84188488D01*
X96307282Y-83721542D01*
X95950337Y-83363974D01*
X95483727Y-83170221D01*
X94978490Y-83169780D01*
X94511542Y-83362718D01*
X94153974Y-83719663D01*
X93960221Y-84186273D01*
X93960219Y-84188488D01*
X93767282Y-83721542D01*
X93410337Y-83363974D01*
X92943727Y-83170221D01*
X92438490Y-83169780D01*
X91971542Y-83362718D01*
X91613974Y-83719663D01*
X91420221Y-84186273D01*
X91420219Y-84188488D01*
X91227282Y-83721542D01*
X90870337Y-83363974D01*
X90403727Y-83170221D01*
X89898490Y-83169780D01*
X89431542Y-83362718D01*
X89073974Y-83719663D01*
X88880221Y-84186273D01*
X88880219Y-84188488D01*
X88687282Y-83721542D01*
X88330337Y-83363974D01*
X87863727Y-83170221D01*
X87358490Y-83169780D01*
X86891542Y-83362718D01*
X86533974Y-83719663D01*
X86340221Y-84186273D01*
X86340219Y-84188488D01*
X86147282Y-83721542D01*
X85790337Y-83363974D01*
X85323727Y-83170221D01*
X84818490Y-83169780D01*
X84351542Y-83362718D01*
X83993974Y-83719663D01*
X83800221Y-84186273D01*
X83800219Y-84188488D01*
X83607282Y-83721542D01*
X83250337Y-83363974D01*
X82783727Y-83170221D01*
X82278490Y-83169780D01*
X81811542Y-83362718D01*
X81453974Y-83719663D01*
X81260221Y-84186273D01*
X81260219Y-84188488D01*
X81067282Y-83721542D01*
X80710337Y-83363974D01*
X80243727Y-83170221D01*
X79738490Y-83169780D01*
X79271542Y-83362718D01*
X78913974Y-83719663D01*
X78863753Y-83840608D01*
X78777539Y-83632467D01*
X78522196Y-83547409D01*
X77629605Y-84440000D01*
X77270395Y-84440000D01*
X76377804Y-83547409D01*
X76180000Y-83613300D01*
X75982196Y-83547409D01*
X75089605Y-84440000D01*
X74730395Y-84440000D01*
X73837804Y-83547409D01*
X73582461Y-83632467D01*
X73501771Y-83853417D01*
X73447282Y-83721542D01*
X73094161Y-83367804D01*
X74017409Y-83367804D01*
X74910000Y-84260395D01*
X75802591Y-83367804D01*
X76557409Y-83367804D01*
X77450000Y-84260395D01*
X78342591Y-83367804D01*
X78257533Y-83112461D01*
X77688035Y-82904484D01*
X77082300Y-82930277D01*
X76642467Y-83112461D01*
X76557409Y-83367804D01*
X75802591Y-83367804D01*
X75717533Y-83112461D01*
X75148035Y-82904484D01*
X74542300Y-82930277D01*
X74102467Y-83112461D01*
X74017409Y-83367804D01*
X73094161Y-83367804D01*
X73090337Y-83363974D01*
X72623727Y-83170221D01*
X72118490Y-83169780D01*
X71651542Y-83362718D01*
X71293974Y-83719663D01*
X71107464Y-84168830D01*
X71107464Y-83551000D01*
X71080897Y-83409810D01*
X70997454Y-83280135D01*
X70870134Y-83193141D01*
X70719000Y-83162536D01*
X68941000Y-83162536D01*
X68799810Y-83189103D01*
X68670135Y-83272546D01*
X68583141Y-83399866D01*
X68552536Y-83551000D01*
X52026000Y-83551000D01*
X52026000Y-70360000D01*
X56431536Y-70360000D01*
X56431536Y-72060000D01*
X56458103Y-72201190D01*
X56541546Y-72330865D01*
X56668866Y-72417859D01*
X56820000Y-72448464D01*
X58520000Y-72448464D01*
X58661190Y-72421897D01*
X58790865Y-72338454D01*
X58877859Y-72211134D01*
X58908464Y-72060000D01*
X58908464Y-71185883D01*
X58979000Y-71185883D01*
X58979000Y-71234117D01*
X59072704Y-71705200D01*
X59339552Y-72104565D01*
X59738917Y-72371413D01*
X60210000Y-72465117D01*
X60681083Y-72371413D01*
X61080448Y-72104565D01*
X61347296Y-71705200D01*
X61355083Y-71666053D01*
X61554817Y-72091358D01*
X61983076Y-72481645D01*
X62393110Y-72651476D01*
X62623000Y-72530155D01*
X62623000Y-71337000D01*
X62877000Y-71337000D01*
X62877000Y-72530155D01*
X63106890Y-72651476D01*
X63516924Y-72481645D01*
X63945183Y-72091358D01*
X64191486Y-71566892D01*
X64070819Y-71337000D01*
X62877000Y-71337000D01*
X62623000Y-71337000D01*
X62603000Y-71337000D01*
X62603000Y-71083000D01*
X62623000Y-71083000D01*
X62623000Y-71063000D01*
X62877000Y-71063000D01*
X62877000Y-71083000D01*
X64070819Y-71083000D01*
X64191486Y-70853108D01*
X63945183Y-70328642D01*
X63516924Y-69938355D01*
X63235488Y-69821788D01*
X63620448Y-69564565D01*
X63695989Y-69451510D01*
X68559780Y-69451510D01*
X68752718Y-69918458D01*
X69109663Y-70276026D01*
X69576273Y-70469779D01*
X70081510Y-70470220D01*
X70548458Y-70277282D01*
X70553552Y-70272196D01*
X71477409Y-70272196D01*
X71562467Y-70527539D01*
X72131965Y-70735516D01*
X72737700Y-70709723D01*
X73177533Y-70527539D01*
X73262591Y-70272196D01*
X72370000Y-69379605D01*
X71477409Y-70272196D01*
X70553552Y-70272196D01*
X70906026Y-69920337D01*
X70956247Y-69799392D01*
X71042461Y-70007533D01*
X71297804Y-70092591D01*
X72190395Y-69200000D01*
X72549605Y-69200000D01*
X73442196Y-70092591D01*
X73697539Y-70007533D01*
X73778229Y-69786583D01*
X73832718Y-69918458D01*
X74189663Y-70276026D01*
X74656273Y-70469779D01*
X75161510Y-70470220D01*
X75628458Y-70277282D01*
X75986026Y-69920337D01*
X76179779Y-69453727D01*
X76179781Y-69451512D01*
X76372718Y-69918458D01*
X76729663Y-70276026D01*
X77196273Y-70469779D01*
X77701510Y-70470220D01*
X78168458Y-70277282D01*
X78526026Y-69920337D01*
X78719779Y-69453727D01*
X78719781Y-69451512D01*
X78912718Y-69918458D01*
X79269663Y-70276026D01*
X79736273Y-70469779D01*
X80241510Y-70470220D01*
X80708458Y-70277282D01*
X81066026Y-69920337D01*
X81259779Y-69453727D01*
X81259781Y-69451512D01*
X81452718Y-69918458D01*
X81809663Y-70276026D01*
X82276273Y-70469779D01*
X82781510Y-70470220D01*
X83248458Y-70277282D01*
X83606026Y-69920337D01*
X83799779Y-69453727D01*
X83799781Y-69451512D01*
X83992718Y-69918458D01*
X84349663Y-70276026D01*
X84816273Y-70469779D01*
X85321510Y-70470220D01*
X85788458Y-70277282D01*
X86146026Y-69920337D01*
X86339779Y-69453727D01*
X86339781Y-69451512D01*
X86532718Y-69918458D01*
X86889663Y-70276026D01*
X87356273Y-70469779D01*
X87861510Y-70470220D01*
X88328458Y-70277282D01*
X88686026Y-69920337D01*
X88879779Y-69453727D01*
X88879781Y-69451512D01*
X89072718Y-69918458D01*
X89429663Y-70276026D01*
X89896273Y-70469779D01*
X90401510Y-70470220D01*
X90868458Y-70277282D01*
X91226026Y-69920337D01*
X91419779Y-69453727D01*
X91419781Y-69451512D01*
X91612718Y-69918458D01*
X91969663Y-70276026D01*
X92436273Y-70469779D01*
X92941510Y-70470220D01*
X93408458Y-70277282D01*
X93766026Y-69920337D01*
X93959779Y-69453727D01*
X93959781Y-69451512D01*
X94152718Y-69918458D01*
X94509663Y-70276026D01*
X94976273Y-70469779D01*
X95481510Y-70470220D01*
X95948458Y-70277282D01*
X96306026Y-69920337D01*
X96499779Y-69453727D01*
X96499781Y-69451512D01*
X96692718Y-69918458D01*
X97049663Y-70276026D01*
X97516273Y-70469779D01*
X98021510Y-70470220D01*
X98488458Y-70277282D01*
X98846026Y-69920337D01*
X99039779Y-69453727D01*
X99040220Y-68948490D01*
X98847282Y-68481542D01*
X98490337Y-68123974D01*
X98023727Y-67930221D01*
X97518490Y-67929780D01*
X97051542Y-68122718D01*
X96693974Y-68479663D01*
X96500221Y-68946273D01*
X96500219Y-68948488D01*
X96307282Y-68481542D01*
X95950337Y-68123974D01*
X95483727Y-67930221D01*
X94978490Y-67929780D01*
X94511542Y-68122718D01*
X94153974Y-68479663D01*
X93960221Y-68946273D01*
X93960219Y-68948488D01*
X93767282Y-68481542D01*
X93410337Y-68123974D01*
X92943727Y-67930221D01*
X92438490Y-67929780D01*
X91971542Y-68122718D01*
X91613974Y-68479663D01*
X91420221Y-68946273D01*
X91420219Y-68948488D01*
X91227282Y-68481542D01*
X90870337Y-68123974D01*
X90403727Y-67930221D01*
X89898490Y-67929780D01*
X89431542Y-68122718D01*
X89073974Y-68479663D01*
X88880221Y-68946273D01*
X88880219Y-68948488D01*
X88687282Y-68481542D01*
X88330337Y-68123974D01*
X88079900Y-68019984D01*
X88079900Y-63183501D01*
X88277136Y-62986609D01*
X88397263Y-62697311D01*
X88397536Y-62384064D01*
X88277914Y-62094556D01*
X88056609Y-61872864D01*
X87767311Y-61752737D01*
X87454064Y-61752464D01*
X87164556Y-61872086D01*
X86942864Y-62093391D01*
X86822737Y-62382689D01*
X86822464Y-62695936D01*
X86942086Y-62985444D01*
X87140100Y-63183804D01*
X87140100Y-68020016D01*
X86891542Y-68122718D01*
X86533974Y-68479663D01*
X86340221Y-68946273D01*
X86340219Y-68948488D01*
X86209397Y-68631873D01*
X86224131Y-68609823D01*
X86259900Y-68430000D01*
X86259900Y-63870205D01*
X86265444Y-63867914D01*
X86487136Y-63646609D01*
X86607263Y-63357311D01*
X86607536Y-63044064D01*
X86487914Y-62754556D01*
X86266609Y-62532864D01*
X85977311Y-62412737D01*
X85664064Y-62412464D01*
X85374556Y-62532086D01*
X85152864Y-62753391D01*
X85032737Y-63042689D01*
X85032464Y-63355936D01*
X85152086Y-63645444D01*
X85320100Y-63813752D01*
X85320100Y-67930218D01*
X84818490Y-67929780D01*
X84351542Y-68122718D01*
X83993974Y-68479663D01*
X83800221Y-68946273D01*
X83800219Y-68948488D01*
X83696667Y-68697871D01*
X84482269Y-67912269D01*
X84584131Y-67759823D01*
X84619900Y-67580000D01*
X84619900Y-62193501D01*
X84817136Y-61996609D01*
X84937263Y-61707311D01*
X84937536Y-61394064D01*
X84923462Y-61360000D01*
X93414883Y-61360000D01*
X93508587Y-61831083D01*
X93775435Y-62230448D01*
X94174800Y-62497296D01*
X94645883Y-62591000D01*
X94694117Y-62591000D01*
X95165200Y-62497296D01*
X95564565Y-62230448D01*
X95821788Y-61845488D01*
X95938355Y-62126924D01*
X96328642Y-62555183D01*
X96853108Y-62801486D01*
X97083000Y-62680819D01*
X97083000Y-61487000D01*
X97337000Y-61487000D01*
X97337000Y-62680819D01*
X97566892Y-62801486D01*
X98091358Y-62555183D01*
X98481645Y-62126924D01*
X98651476Y-61716890D01*
X98530155Y-61487000D01*
X97337000Y-61487000D01*
X97083000Y-61487000D01*
X97063000Y-61487000D01*
X97063000Y-61233000D01*
X97083000Y-61233000D01*
X97083000Y-61213000D01*
X97337000Y-61213000D01*
X97337000Y-61233000D01*
X98530155Y-61233000D01*
X98651476Y-61003110D01*
X98481645Y-60593076D01*
X98091358Y-60164817D01*
X97666053Y-59965083D01*
X97705200Y-59957296D01*
X98104565Y-59690448D01*
X98371413Y-59291083D01*
X98465117Y-58820000D01*
X98371413Y-58348917D01*
X98104565Y-57949552D01*
X97705200Y-57682704D01*
X97234117Y-57589000D01*
X97185883Y-57589000D01*
X96714800Y-57682704D01*
X96315435Y-57949552D01*
X96048587Y-58348917D01*
X95954883Y-58820000D01*
X96048587Y-59291083D01*
X96315435Y-59690448D01*
X96714800Y-59957296D01*
X96753947Y-59965083D01*
X96328642Y-60164817D01*
X95938355Y-60593076D01*
X95821788Y-60874512D01*
X95564565Y-60489552D01*
X95165200Y-60222704D01*
X94694117Y-60129000D01*
X94645883Y-60129000D01*
X94174800Y-60222704D01*
X93775435Y-60489552D01*
X93508587Y-60888917D01*
X93414883Y-61360000D01*
X84923462Y-61360000D01*
X84817914Y-61104556D01*
X84596609Y-60882864D01*
X84307311Y-60762737D01*
X83994064Y-60762464D01*
X83704556Y-60882086D01*
X83482864Y-61103391D01*
X83362737Y-61392689D01*
X83362464Y-61705936D01*
X83482086Y-61995444D01*
X83680100Y-62193804D01*
X83680100Y-67385362D01*
X83032105Y-68033357D01*
X82783727Y-67930221D01*
X82278490Y-67929780D01*
X81811542Y-68122718D01*
X81453974Y-68479663D01*
X81260221Y-68946273D01*
X81260219Y-68948488D01*
X81067282Y-68481542D01*
X80710337Y-68123974D01*
X80459900Y-68019984D01*
X80459900Y-66894638D01*
X82537246Y-64817293D01*
X82815936Y-64817536D01*
X83105444Y-64697914D01*
X83327136Y-64476609D01*
X83447263Y-64187311D01*
X83447536Y-63874064D01*
X83327914Y-63584556D01*
X83106609Y-63362864D01*
X82817311Y-63242737D01*
X82504064Y-63242464D01*
X82214556Y-63362086D01*
X81992864Y-63583391D01*
X81872737Y-63872689D01*
X81872493Y-64152968D01*
X79657731Y-66367731D01*
X79555869Y-66520177D01*
X79520100Y-66700000D01*
X79520100Y-68020016D01*
X79271542Y-68122718D01*
X78913974Y-68479663D01*
X78720221Y-68946273D01*
X78720219Y-68948488D01*
X78527282Y-68481542D01*
X78170337Y-68123974D01*
X77703727Y-67930221D01*
X77198490Y-67929780D01*
X76731542Y-68122718D01*
X76373974Y-68479663D01*
X76180221Y-68946273D01*
X76180219Y-68948488D01*
X75987282Y-68481542D01*
X75630337Y-68123974D01*
X75163727Y-67930221D01*
X74658490Y-67929780D01*
X74191542Y-68122718D01*
X73833974Y-68479663D01*
X73783753Y-68600608D01*
X73697539Y-68392467D01*
X73442196Y-68307409D01*
X72549605Y-69200000D01*
X72190395Y-69200000D01*
X71297804Y-68307409D01*
X71042461Y-68392467D01*
X70961771Y-68613417D01*
X70907282Y-68481542D01*
X70554161Y-68127804D01*
X71477409Y-68127804D01*
X72370000Y-69020395D01*
X73262591Y-68127804D01*
X73177533Y-67872461D01*
X72608035Y-67664484D01*
X72002300Y-67690277D01*
X71562467Y-67872461D01*
X71477409Y-68127804D01*
X70554161Y-68127804D01*
X70550337Y-68123974D01*
X70083727Y-67930221D01*
X69578490Y-67929780D01*
X69111542Y-68122718D01*
X68753974Y-68479663D01*
X68560221Y-68946273D01*
X68559780Y-69451510D01*
X63695989Y-69451510D01*
X63887296Y-69165200D01*
X63981000Y-68694117D01*
X63981000Y-68645883D01*
X63887296Y-68174800D01*
X63620448Y-67775435D01*
X63221083Y-67508587D01*
X62750000Y-67414883D01*
X62278917Y-67508587D01*
X61879552Y-67775435D01*
X61612704Y-68174800D01*
X61519000Y-68645883D01*
X61519000Y-68694117D01*
X61612704Y-69165200D01*
X61879552Y-69564565D01*
X62264512Y-69821788D01*
X61983076Y-69938355D01*
X61554817Y-70328642D01*
X61355083Y-70753947D01*
X61347296Y-70714800D01*
X61080448Y-70315435D01*
X60681083Y-70048587D01*
X60210000Y-69954883D01*
X59738917Y-70048587D01*
X59339552Y-70315435D01*
X59072704Y-70714800D01*
X58979000Y-71185883D01*
X58908464Y-71185883D01*
X58908464Y-70360000D01*
X58881897Y-70218810D01*
X58798454Y-70089135D01*
X58671134Y-70002141D01*
X58520000Y-69971536D01*
X56820000Y-69971536D01*
X56678810Y-69998103D01*
X56549135Y-70081546D01*
X56462141Y-70208866D01*
X56431536Y-70360000D01*
X52026000Y-70360000D01*
X52026000Y-68645883D01*
X56439000Y-68645883D01*
X56439000Y-68694117D01*
X56532704Y-69165200D01*
X56799552Y-69564565D01*
X57198917Y-69831413D01*
X57670000Y-69925117D01*
X58141083Y-69831413D01*
X58540448Y-69564565D01*
X58807296Y-69165200D01*
X58901000Y-68694117D01*
X58901000Y-68645883D01*
X58979000Y-68645883D01*
X58979000Y-68694117D01*
X59072704Y-69165200D01*
X59339552Y-69564565D01*
X59738917Y-69831413D01*
X60210000Y-69925117D01*
X60681083Y-69831413D01*
X61080448Y-69564565D01*
X61347296Y-69165200D01*
X61441000Y-68694117D01*
X61441000Y-68645883D01*
X61347296Y-68174800D01*
X61080448Y-67775435D01*
X60681083Y-67508587D01*
X60210000Y-67414883D01*
X59738917Y-67508587D01*
X59339552Y-67775435D01*
X59072704Y-68174800D01*
X58979000Y-68645883D01*
X58901000Y-68645883D01*
X58807296Y-68174800D01*
X58540448Y-67775435D01*
X58141083Y-67508587D01*
X57670000Y-67414883D01*
X57198917Y-67508587D01*
X56799552Y-67775435D01*
X56532704Y-68174800D01*
X56439000Y-68645883D01*
X52026000Y-68645883D01*
X52026000Y-65485750D01*
X65935000Y-65485750D01*
X65935000Y-66176309D01*
X66031673Y-66409698D01*
X66210301Y-66588327D01*
X66443690Y-66685000D01*
X67134250Y-66685000D01*
X67293000Y-66526250D01*
X67293000Y-65327000D01*
X66093750Y-65327000D01*
X65935000Y-65485750D01*
X52026000Y-65485750D01*
X52026000Y-64223691D01*
X65935000Y-64223691D01*
X65935000Y-64914250D01*
X66093750Y-65073000D01*
X67293000Y-65073000D01*
X67293000Y-63873750D01*
X67547000Y-63873750D01*
X67547000Y-65073000D01*
X67567000Y-65073000D01*
X67567000Y-65327000D01*
X67547000Y-65327000D01*
X67547000Y-66526250D01*
X67705750Y-66685000D01*
X68396310Y-66685000D01*
X68629699Y-66588327D01*
X68808327Y-66409698D01*
X68905000Y-66176309D01*
X68905000Y-65818364D01*
X69089552Y-66094565D01*
X69488917Y-66361413D01*
X69960000Y-66455117D01*
X70431083Y-66361413D01*
X70830448Y-66094565D01*
X71097296Y-65695200D01*
X71191000Y-65224117D01*
X71191000Y-65175883D01*
X71269000Y-65175883D01*
X71269000Y-65224117D01*
X71362704Y-65695200D01*
X71629552Y-66094565D01*
X72028917Y-66361413D01*
X72500000Y-66455117D01*
X72971083Y-66361413D01*
X73370448Y-66094565D01*
X73637296Y-65695200D01*
X73731000Y-65224117D01*
X73731000Y-65175883D01*
X73637296Y-64704800D01*
X73370448Y-64305435D01*
X72971083Y-64038587D01*
X72500000Y-63944883D01*
X72028917Y-64038587D01*
X71629552Y-64305435D01*
X71362704Y-64704800D01*
X71269000Y-65175883D01*
X71191000Y-65175883D01*
X71097296Y-64704800D01*
X70830448Y-64305435D01*
X70431083Y-64038587D01*
X69960000Y-63944883D01*
X69488917Y-64038587D01*
X69089552Y-64305435D01*
X68905000Y-64581636D01*
X68905000Y-64223691D01*
X68808327Y-63990302D01*
X68629699Y-63811673D01*
X68396310Y-63715000D01*
X67705750Y-63715000D01*
X67547000Y-63873750D01*
X67293000Y-63873750D01*
X67134250Y-63715000D01*
X66443690Y-63715000D01*
X66210301Y-63811673D01*
X66031673Y-63990302D01*
X65935000Y-64223691D01*
X52026000Y-64223691D01*
X52026000Y-59335936D01*
X63892464Y-59335936D01*
X64012086Y-59625444D01*
X64233391Y-59847136D01*
X64522689Y-59967263D01*
X64835936Y-59967536D01*
X65125444Y-59847914D01*
X65227600Y-59745936D01*
X65722464Y-59745936D01*
X65842086Y-60035444D01*
X66063391Y-60257136D01*
X66352689Y-60377263D01*
X66665936Y-60377536D01*
X66955444Y-60257914D01*
X67177136Y-60036609D01*
X67260462Y-59835936D01*
X67602464Y-59835936D01*
X67722086Y-60125444D01*
X67943391Y-60347136D01*
X68232689Y-60467263D01*
X68545936Y-60467536D01*
X68835444Y-60347914D01*
X69057136Y-60126609D01*
X69177263Y-59837311D01*
X69177536Y-59524064D01*
X69163776Y-59490762D01*
X69834538Y-58820000D01*
X93414883Y-58820000D01*
X93508587Y-59291083D01*
X93775435Y-59690448D01*
X94174800Y-59957296D01*
X94645883Y-60051000D01*
X94694117Y-60051000D01*
X95165200Y-59957296D01*
X95564565Y-59690448D01*
X95831413Y-59291083D01*
X95925117Y-58820000D01*
X95831413Y-58348917D01*
X95564565Y-57949552D01*
X95165200Y-57682704D01*
X94694117Y-57589000D01*
X94645883Y-57589000D01*
X94174800Y-57682704D01*
X93775435Y-57949552D01*
X93508587Y-58348917D01*
X93414883Y-58820000D01*
X69834538Y-58820000D01*
X70417246Y-58237293D01*
X70695936Y-58237536D01*
X70985444Y-58117914D01*
X71207136Y-57896609D01*
X71327263Y-57607311D01*
X71327536Y-57294064D01*
X71207914Y-57004556D01*
X70986609Y-56782864D01*
X70697311Y-56662737D01*
X70384064Y-56662464D01*
X70094556Y-56782086D01*
X69872864Y-57003391D01*
X69752737Y-57292689D01*
X69752493Y-57572968D01*
X68432825Y-58892637D01*
X68234064Y-58892464D01*
X67944556Y-59012086D01*
X67722864Y-59233391D01*
X67602737Y-59522689D01*
X67602464Y-59835936D01*
X67260462Y-59835936D01*
X67297263Y-59747311D01*
X67297536Y-59434064D01*
X67239658Y-59293989D01*
X68846911Y-57686736D01*
X69125602Y-57686979D01*
X69415110Y-57567357D01*
X69636802Y-57346052D01*
X69756929Y-57056754D01*
X69757202Y-56743507D01*
X69637580Y-56453999D01*
X69463885Y-56280000D01*
X93414883Y-56280000D01*
X93508587Y-56751083D01*
X93775435Y-57150448D01*
X94174800Y-57417296D01*
X94645883Y-57511000D01*
X94694117Y-57511000D01*
X95165200Y-57417296D01*
X95564565Y-57150448D01*
X95831413Y-56751083D01*
X95925117Y-56280000D01*
X95954883Y-56280000D01*
X96048587Y-56751083D01*
X96315435Y-57150448D01*
X96714800Y-57417296D01*
X97185883Y-57511000D01*
X97234117Y-57511000D01*
X97705200Y-57417296D01*
X98104565Y-57150448D01*
X98371413Y-56751083D01*
X98465117Y-56280000D01*
X98371413Y-55808917D01*
X98104565Y-55409552D01*
X97705200Y-55142704D01*
X97234117Y-55049000D01*
X97185883Y-55049000D01*
X96714800Y-55142704D01*
X96315435Y-55409552D01*
X96048587Y-55808917D01*
X95954883Y-56280000D01*
X95925117Y-56280000D01*
X95831413Y-55808917D01*
X95564565Y-55409552D01*
X95165200Y-55142704D01*
X94694117Y-55049000D01*
X94645883Y-55049000D01*
X94174800Y-55142704D01*
X93775435Y-55409552D01*
X93508587Y-55808917D01*
X93414883Y-56280000D01*
X69463885Y-56280000D01*
X69416275Y-56232307D01*
X69126977Y-56112180D01*
X68813730Y-56111907D01*
X68524222Y-56231529D01*
X68302530Y-56452834D01*
X68182403Y-56742132D01*
X68182159Y-57022412D01*
X66402065Y-58802506D01*
X66354064Y-58802464D01*
X66064556Y-58922086D01*
X65842864Y-59143391D01*
X65722737Y-59432689D01*
X65722464Y-59745936D01*
X65227600Y-59745936D01*
X65347136Y-59626609D01*
X65467263Y-59337311D01*
X65467536Y-59024064D01*
X65347914Y-58734556D01*
X65149900Y-58536196D01*
X65149900Y-58394638D01*
X66747246Y-56797293D01*
X67025936Y-56797536D01*
X67315444Y-56677914D01*
X67537136Y-56456609D01*
X67657263Y-56167311D01*
X67657536Y-55854064D01*
X67537914Y-55564556D01*
X67316609Y-55342864D01*
X67027311Y-55222737D01*
X66714064Y-55222464D01*
X66424556Y-55342086D01*
X66202864Y-55563391D01*
X66082737Y-55852689D01*
X66082493Y-56132968D01*
X64347731Y-57867731D01*
X64245869Y-58020177D01*
X64210100Y-58200000D01*
X64210100Y-58536499D01*
X64012864Y-58733391D01*
X63892737Y-59022689D01*
X63892464Y-59335936D01*
X52026000Y-59335936D01*
X52026000Y-51720000D01*
X53324883Y-51720000D01*
X53418587Y-52191083D01*
X53685435Y-52590448D01*
X54084800Y-52857296D01*
X54555883Y-52951000D01*
X54604117Y-52951000D01*
X55075200Y-52857296D01*
X55474565Y-52590448D01*
X55741413Y-52191083D01*
X55835117Y-51720000D01*
X55741413Y-51248917D01*
X55474565Y-50849552D01*
X55075200Y-50582704D01*
X54604117Y-50489000D01*
X54555883Y-50489000D01*
X54084800Y-50582704D01*
X53685435Y-50849552D01*
X53418587Y-51248917D01*
X53324883Y-51720000D01*
X52026000Y-51720000D01*
X52026000Y-46925750D01*
X53095000Y-46925750D01*
X53095000Y-47616310D01*
X53191673Y-47849699D01*
X53370302Y-48028327D01*
X53603691Y-48125000D01*
X53961636Y-48125000D01*
X53685435Y-48309552D01*
X53418587Y-48708917D01*
X53324883Y-49180000D01*
X53418587Y-49651083D01*
X53685435Y-50050448D01*
X54084800Y-50317296D01*
X54555883Y-50411000D01*
X54604117Y-50411000D01*
X55075200Y-50317296D01*
X55446800Y-50069000D01*
X72001764Y-50069000D01*
X73881119Y-51948355D01*
X74005764Y-52073218D01*
X74332391Y-52208846D01*
X74686057Y-52209154D01*
X75012920Y-52074097D01*
X75263218Y-51824236D01*
X75398846Y-51497609D01*
X75399154Y-51143943D01*
X75264097Y-50817080D01*
X75014236Y-50566782D01*
X75013863Y-50566627D01*
X74063172Y-49615936D01*
X82472466Y-49615936D01*
X82592088Y-49905444D01*
X82813393Y-50127136D01*
X83102691Y-50247263D01*
X83415938Y-50247536D01*
X83705446Y-50127914D01*
X83903806Y-49929900D01*
X90195362Y-49929900D01*
X93518918Y-53253456D01*
X93508587Y-53268917D01*
X93414883Y-53740000D01*
X93508587Y-54211083D01*
X93775435Y-54610448D01*
X94174800Y-54877296D01*
X94645883Y-54971000D01*
X94694117Y-54971000D01*
X95165200Y-54877296D01*
X95564565Y-54610448D01*
X95831413Y-54211083D01*
X95925117Y-53740000D01*
X95831413Y-53268917D01*
X95564565Y-52869552D01*
X95165200Y-52602704D01*
X94694117Y-52509000D01*
X94645883Y-52509000D01*
X94193519Y-52598981D01*
X94033003Y-52438464D01*
X95520000Y-52438464D01*
X95661190Y-52411897D01*
X95790865Y-52328454D01*
X95877859Y-52201134D01*
X95908464Y-52050000D01*
X95908464Y-51894756D01*
X95938355Y-51966924D01*
X96328642Y-52395183D01*
X96753947Y-52594917D01*
X96714800Y-52602704D01*
X96315435Y-52869552D01*
X96048587Y-53268917D01*
X95954883Y-53740000D01*
X96048587Y-54211083D01*
X96315435Y-54610448D01*
X96714800Y-54877296D01*
X97185883Y-54971000D01*
X97234117Y-54971000D01*
X97705200Y-54877296D01*
X98104565Y-54610448D01*
X98371413Y-54211083D01*
X98465117Y-53740000D01*
X98371413Y-53268917D01*
X98104565Y-52869552D01*
X97705200Y-52602704D01*
X97666053Y-52594917D01*
X98091358Y-52395183D01*
X98481645Y-51966924D01*
X98651476Y-51556890D01*
X98530155Y-51327000D01*
X97337000Y-51327000D01*
X97337000Y-51347000D01*
X97083000Y-51347000D01*
X97083000Y-51327000D01*
X97063000Y-51327000D01*
X97063000Y-51073000D01*
X97083000Y-51073000D01*
X97083000Y-49879181D01*
X97337000Y-49879181D01*
X97337000Y-51073000D01*
X98530155Y-51073000D01*
X98651476Y-50843110D01*
X98481645Y-50433076D01*
X98091358Y-50004817D01*
X97566892Y-49758514D01*
X97337000Y-49879181D01*
X97083000Y-49879181D01*
X96853108Y-49758514D01*
X96328642Y-50004817D01*
X95938355Y-50433076D01*
X95908464Y-50505244D01*
X95908464Y-50350000D01*
X95881897Y-50208810D01*
X95798454Y-50079135D01*
X95671134Y-49992141D01*
X95520000Y-49961536D01*
X93820000Y-49961536D01*
X93678810Y-49988103D01*
X93549135Y-50071546D01*
X93462141Y-50198866D01*
X93431536Y-50350000D01*
X93431536Y-51836997D01*
X90722269Y-49127731D01*
X90569823Y-49025869D01*
X90390000Y-48990100D01*
X83903503Y-48990100D01*
X83706611Y-48792864D01*
X83417313Y-48672737D01*
X83104066Y-48672464D01*
X82814558Y-48792086D01*
X82592866Y-49013391D01*
X82472739Y-49302689D01*
X82472466Y-49615936D01*
X74063172Y-49615936D01*
X72998618Y-48551382D01*
X72710206Y-48358671D01*
X72370000Y-48291000D01*
X55446800Y-48291000D01*
X55198364Y-48125000D01*
X55556309Y-48125000D01*
X55789698Y-48028327D01*
X55968327Y-47849699D01*
X56065000Y-47616310D01*
X56065000Y-46925750D01*
X55906250Y-46767000D01*
X54707000Y-46767000D01*
X54707000Y-46787000D01*
X54453000Y-46787000D01*
X54453000Y-46767000D01*
X53253750Y-46767000D01*
X53095000Y-46925750D01*
X52026000Y-46925750D01*
X52026000Y-45663690D01*
X53095000Y-45663690D01*
X53095000Y-46354250D01*
X53253750Y-46513000D01*
X54453000Y-46513000D01*
X54453000Y-45313750D01*
X54707000Y-45313750D01*
X54707000Y-46513000D01*
X55906250Y-46513000D01*
X56065000Y-46354250D01*
X56065000Y-45663690D01*
X55968327Y-45430301D01*
X55789698Y-45251673D01*
X55556309Y-45155000D01*
X54865750Y-45155000D01*
X54707000Y-45313750D01*
X54453000Y-45313750D01*
X54294250Y-45155000D01*
X53603691Y-45155000D01*
X53370302Y-45251673D01*
X53191673Y-45430301D01*
X53095000Y-45663690D01*
X52026000Y-45663690D01*
X52026000Y-38935750D01*
X53983000Y-38935750D01*
X53983000Y-39538310D01*
X54079673Y-39771699D01*
X54258302Y-39950327D01*
X54491691Y-40047000D01*
X55094250Y-40047000D01*
X55253000Y-39888250D01*
X55253000Y-38777000D01*
X54141750Y-38777000D01*
X53983000Y-38935750D01*
X52026000Y-38935750D01*
X52026000Y-37761690D01*
X53983000Y-37761690D01*
X53983000Y-38364250D01*
X54141750Y-38523000D01*
X55253000Y-38523000D01*
X55253000Y-38503000D01*
X55507000Y-38503000D01*
X55507000Y-38523000D01*
X55527000Y-38523000D01*
X55527000Y-38777000D01*
X55507000Y-38777000D01*
X55507000Y-39888250D01*
X55665750Y-40047000D01*
X56268309Y-40047000D01*
X56501698Y-39950327D01*
X56680327Y-39771699D01*
X56777000Y-39538310D01*
X56777000Y-39403916D01*
X56939787Y-39450608D01*
X57740395Y-38650000D01*
X57726253Y-38635858D01*
X57905858Y-38456253D01*
X57920000Y-38470395D01*
X57934143Y-38456253D01*
X58113748Y-38635858D01*
X58099605Y-38650000D01*
X58113748Y-38664143D01*
X57934143Y-38843748D01*
X57920000Y-38829605D01*
X57119392Y-39630213D01*
X57188857Y-39872397D01*
X57712302Y-40059144D01*
X58267368Y-40031362D01*
X58651143Y-39872397D01*
X58710100Y-39666848D01*
X58710100Y-41486499D01*
X58512864Y-41683391D01*
X58392737Y-41972689D01*
X58392464Y-42285936D01*
X58512086Y-42575444D01*
X58733391Y-42797136D01*
X59022689Y-42917263D01*
X59335936Y-42917536D01*
X59625444Y-42797914D01*
X59847136Y-42576609D01*
X59967263Y-42287311D01*
X59967536Y-41974064D01*
X59847914Y-41684556D01*
X59649900Y-41486196D01*
X59649900Y-39639708D01*
X59659393Y-39630215D01*
X59728857Y-39872397D01*
X60252302Y-40059144D01*
X60807368Y-40031362D01*
X61191143Y-39872397D01*
X61260608Y-39630213D01*
X62199392Y-39630213D01*
X62268857Y-39872397D01*
X62792302Y-40059144D01*
X63347368Y-40031362D01*
X63731143Y-39872397D01*
X63800608Y-39630213D01*
X64739392Y-39630213D01*
X64808857Y-39872397D01*
X65332302Y-40059144D01*
X65887368Y-40031362D01*
X66271143Y-39872397D01*
X66340608Y-39630213D01*
X67279392Y-39630213D01*
X67348857Y-39872397D01*
X67872302Y-40059144D01*
X68427368Y-40031362D01*
X68811143Y-39872397D01*
X68880608Y-39630213D01*
X69819392Y-39630213D01*
X69888857Y-39872397D01*
X70412302Y-40059144D01*
X70967368Y-40031362D01*
X71351143Y-39872397D01*
X71420608Y-39630213D01*
X72359392Y-39630213D01*
X72428857Y-39872397D01*
X72952302Y-40059144D01*
X73507368Y-40031362D01*
X73891143Y-39872397D01*
X73960608Y-39630213D01*
X74899392Y-39630213D01*
X74968857Y-39872397D01*
X75492302Y-40059144D01*
X76047368Y-40031362D01*
X76431143Y-39872397D01*
X76500608Y-39630213D01*
X75700000Y-38829605D01*
X74899392Y-39630213D01*
X73960608Y-39630213D01*
X73160000Y-38829605D01*
X72359392Y-39630213D01*
X71420608Y-39630213D01*
X70620000Y-38829605D01*
X69819392Y-39630213D01*
X68880608Y-39630213D01*
X68080000Y-38829605D01*
X67279392Y-39630213D01*
X66340608Y-39630213D01*
X65540000Y-38829605D01*
X64739392Y-39630213D01*
X63800608Y-39630213D01*
X63000000Y-38829605D01*
X62199392Y-39630213D01*
X61260608Y-39630213D01*
X60460000Y-38829605D01*
X60445858Y-38843748D01*
X60266253Y-38664143D01*
X60280395Y-38650000D01*
X60639605Y-38650000D01*
X61440213Y-39450608D01*
X61682397Y-39381143D01*
X61726453Y-39257656D01*
X61777603Y-39381143D01*
X62019787Y-39450608D01*
X62820395Y-38650000D01*
X63179605Y-38650000D01*
X63980213Y-39450608D01*
X64222397Y-39381143D01*
X64266453Y-39257656D01*
X64317603Y-39381143D01*
X64559787Y-39450608D01*
X65360395Y-38650000D01*
X65719605Y-38650000D01*
X66520213Y-39450608D01*
X66762397Y-39381143D01*
X66806453Y-39257656D01*
X66857603Y-39381143D01*
X67099787Y-39450608D01*
X67900395Y-38650000D01*
X68259605Y-38650000D01*
X69060213Y-39450608D01*
X69302397Y-39381143D01*
X69346453Y-39257656D01*
X69397603Y-39381143D01*
X69639787Y-39450608D01*
X70440395Y-38650000D01*
X70799605Y-38650000D01*
X71600213Y-39450608D01*
X71842397Y-39381143D01*
X71886453Y-39257656D01*
X71937603Y-39381143D01*
X72179787Y-39450608D01*
X72980395Y-38650000D01*
X73339605Y-38650000D01*
X74140213Y-39450608D01*
X74382397Y-39381143D01*
X74426453Y-39257656D01*
X74477603Y-39381143D01*
X74719787Y-39450608D01*
X75520395Y-38650000D01*
X75879605Y-38650000D01*
X76680213Y-39450608D01*
X76922397Y-39381143D01*
X77099852Y-38883742D01*
X77270446Y-39296612D01*
X77591697Y-39618423D01*
X78011646Y-39792801D01*
X78466359Y-39793198D01*
X78886612Y-39619554D01*
X79208423Y-39298303D01*
X79382801Y-38878354D01*
X79382802Y-38876359D01*
X79636802Y-38876359D01*
X79810446Y-39296612D01*
X80131697Y-39618423D01*
X80551646Y-39792801D01*
X81006359Y-39793198D01*
X81426612Y-39619554D01*
X81748423Y-39298303D01*
X81922801Y-38878354D01*
X81922802Y-38876359D01*
X82176802Y-38876359D01*
X82350446Y-39296612D01*
X82671697Y-39618423D01*
X83091646Y-39792801D01*
X83546359Y-39793198D01*
X83966612Y-39619554D01*
X84288423Y-39298303D01*
X84462801Y-38878354D01*
X84462802Y-38876359D01*
X84716802Y-38876359D01*
X84890446Y-39296612D01*
X85211697Y-39618423D01*
X85631646Y-39792801D01*
X86086359Y-39793198D01*
X86506612Y-39619554D01*
X86828423Y-39298303D01*
X87002801Y-38878354D01*
X87002802Y-38876359D01*
X87256802Y-38876359D01*
X87430446Y-39296612D01*
X87751697Y-39618423D01*
X88171646Y-39792801D01*
X88626359Y-39793198D01*
X89046612Y-39619554D01*
X89368423Y-39298303D01*
X89542801Y-38878354D01*
X89542802Y-38876359D01*
X89796802Y-38876359D01*
X89970446Y-39296612D01*
X90291697Y-39618423D01*
X90711646Y-39792801D01*
X91166359Y-39793198D01*
X91586612Y-39619554D01*
X91908423Y-39298303D01*
X92082801Y-38878354D01*
X92082802Y-38876359D01*
X92336802Y-38876359D01*
X92510446Y-39296612D01*
X92831697Y-39618423D01*
X93251646Y-39792801D01*
X93706359Y-39793198D01*
X94126612Y-39619554D01*
X94448423Y-39298303D01*
X94622801Y-38878354D01*
X94622802Y-38876359D01*
X94876802Y-38876359D01*
X95050446Y-39296612D01*
X95371697Y-39618423D01*
X95791646Y-39792801D01*
X96246359Y-39793198D01*
X96666612Y-39619554D01*
X96988423Y-39298303D01*
X97162801Y-38878354D01*
X97163198Y-38423641D01*
X96989554Y-38003388D01*
X96668303Y-37681577D01*
X96248354Y-37507199D01*
X95793641Y-37506802D01*
X95373388Y-37680446D01*
X95051577Y-38001697D01*
X94877199Y-38421646D01*
X94876802Y-38876359D01*
X94622802Y-38876359D01*
X94623198Y-38423641D01*
X94449554Y-38003388D01*
X94128303Y-37681577D01*
X93708354Y-37507199D01*
X93253641Y-37506802D01*
X92833388Y-37680446D01*
X92511577Y-38001697D01*
X92337199Y-38421646D01*
X92336802Y-38876359D01*
X92082802Y-38876359D01*
X92083198Y-38423641D01*
X91909554Y-38003388D01*
X91588303Y-37681577D01*
X91168354Y-37507199D01*
X90713641Y-37506802D01*
X90293388Y-37680446D01*
X89971577Y-38001697D01*
X89797199Y-38421646D01*
X89796802Y-38876359D01*
X89542802Y-38876359D01*
X89543198Y-38423641D01*
X89369554Y-38003388D01*
X89048303Y-37681577D01*
X88628354Y-37507199D01*
X88173641Y-37506802D01*
X87753388Y-37680446D01*
X87431577Y-38001697D01*
X87257199Y-38421646D01*
X87256802Y-38876359D01*
X87002802Y-38876359D01*
X87003198Y-38423641D01*
X86829554Y-38003388D01*
X86508303Y-37681577D01*
X86088354Y-37507199D01*
X85894340Y-37507030D01*
X86207368Y-37491362D01*
X86591143Y-37332397D01*
X86660608Y-37090213D01*
X85860000Y-36289605D01*
X85059392Y-37090213D01*
X85128857Y-37332397D01*
X85626258Y-37509852D01*
X85213388Y-37680446D01*
X84891577Y-38001697D01*
X84717199Y-38421646D01*
X84716802Y-38876359D01*
X84462802Y-38876359D01*
X84463198Y-38423641D01*
X84289554Y-38003388D01*
X83968303Y-37681577D01*
X83548354Y-37507199D01*
X83093641Y-37506802D01*
X82673388Y-37680446D01*
X82351577Y-38001697D01*
X82177199Y-38421646D01*
X82176802Y-38876359D01*
X81922802Y-38876359D01*
X81923198Y-38423641D01*
X81749554Y-38003388D01*
X81428303Y-37681577D01*
X81008354Y-37507199D01*
X80553641Y-37506802D01*
X80133388Y-37680446D01*
X79811577Y-38001697D01*
X79637199Y-38421646D01*
X79636802Y-38876359D01*
X79382802Y-38876359D01*
X79383198Y-38423641D01*
X79209554Y-38003388D01*
X78888303Y-37681577D01*
X78468354Y-37507199D01*
X78013641Y-37506802D01*
X77593388Y-37680446D01*
X77271577Y-38001697D01*
X77097199Y-38421646D01*
X77097030Y-38615660D01*
X77081362Y-38302632D01*
X76922397Y-37918857D01*
X76680213Y-37849392D01*
X75879605Y-38650000D01*
X75520395Y-38650000D01*
X74719787Y-37849392D01*
X74477603Y-37918857D01*
X74433547Y-38042344D01*
X74382397Y-37918857D01*
X74140213Y-37849392D01*
X73339605Y-38650000D01*
X72980395Y-38650000D01*
X72179787Y-37849392D01*
X71937603Y-37918857D01*
X71893547Y-38042344D01*
X71842397Y-37918857D01*
X71600213Y-37849392D01*
X70799605Y-38650000D01*
X70440395Y-38650000D01*
X69639787Y-37849392D01*
X69397603Y-37918857D01*
X69353547Y-38042344D01*
X69302397Y-37918857D01*
X69060213Y-37849392D01*
X68259605Y-38650000D01*
X67900395Y-38650000D01*
X67099787Y-37849392D01*
X66857603Y-37918857D01*
X66813547Y-38042344D01*
X66762397Y-37918857D01*
X66520213Y-37849392D01*
X65719605Y-38650000D01*
X65360395Y-38650000D01*
X64559787Y-37849392D01*
X64317603Y-37918857D01*
X64273547Y-38042344D01*
X64222397Y-37918857D01*
X63980213Y-37849392D01*
X63179605Y-38650000D01*
X62820395Y-38650000D01*
X62019787Y-37849392D01*
X61777603Y-37918857D01*
X61733547Y-38042344D01*
X61682397Y-37918857D01*
X61440213Y-37849392D01*
X60639605Y-38650000D01*
X60280395Y-38650000D01*
X59617498Y-37987103D01*
X59614131Y-37970177D01*
X59533764Y-37849900D01*
X59512269Y-37817730D01*
X58742269Y-37047731D01*
X58656140Y-36990181D01*
X58888423Y-36758303D01*
X59062801Y-36338354D01*
X59062802Y-36336359D01*
X59316802Y-36336359D01*
X59490446Y-36756612D01*
X59811697Y-37078423D01*
X60231646Y-37252801D01*
X60425660Y-37252970D01*
X60112632Y-37268638D01*
X59728857Y-37427603D01*
X59659392Y-37669787D01*
X60460000Y-38470395D01*
X61260608Y-37669787D01*
X61191143Y-37427603D01*
X60693742Y-37250148D01*
X61106612Y-37079554D01*
X61428423Y-36758303D01*
X61602801Y-36338354D01*
X61602802Y-36336359D01*
X61856802Y-36336359D01*
X62030446Y-36756612D01*
X62351697Y-37078423D01*
X62771646Y-37252801D01*
X62965660Y-37252970D01*
X62652632Y-37268638D01*
X62268857Y-37427603D01*
X62199392Y-37669787D01*
X63000000Y-38470395D01*
X63800608Y-37669787D01*
X63731143Y-37427603D01*
X63233742Y-37250148D01*
X63646612Y-37079554D01*
X63968423Y-36758303D01*
X64142801Y-36338354D01*
X64142802Y-36336359D01*
X64396802Y-36336359D01*
X64570446Y-36756612D01*
X64891697Y-37078423D01*
X65311646Y-37252801D01*
X65505660Y-37252970D01*
X65192632Y-37268638D01*
X64808857Y-37427603D01*
X64739392Y-37669787D01*
X65540000Y-38470395D01*
X66340608Y-37669787D01*
X66271143Y-37427603D01*
X65773742Y-37250148D01*
X66186612Y-37079554D01*
X66508423Y-36758303D01*
X66682801Y-36338354D01*
X66682802Y-36336359D01*
X66936802Y-36336359D01*
X67110446Y-36756612D01*
X67431697Y-37078423D01*
X67851646Y-37252801D01*
X68045660Y-37252970D01*
X67732632Y-37268638D01*
X67348857Y-37427603D01*
X67279392Y-37669787D01*
X68080000Y-38470395D01*
X68880608Y-37669787D01*
X68811143Y-37427603D01*
X68313742Y-37250148D01*
X68726612Y-37079554D01*
X69048423Y-36758303D01*
X69222801Y-36338354D01*
X69222802Y-36336359D01*
X69476802Y-36336359D01*
X69650446Y-36756612D01*
X69971697Y-37078423D01*
X70391646Y-37252801D01*
X70585660Y-37252970D01*
X70272632Y-37268638D01*
X69888857Y-37427603D01*
X69819392Y-37669787D01*
X70620000Y-38470395D01*
X71420608Y-37669787D01*
X71351143Y-37427603D01*
X70853742Y-37250148D01*
X71266612Y-37079554D01*
X71588423Y-36758303D01*
X71762801Y-36338354D01*
X71762802Y-36336359D01*
X72016802Y-36336359D01*
X72190446Y-36756612D01*
X72511697Y-37078423D01*
X72931646Y-37252801D01*
X73125660Y-37252970D01*
X72812632Y-37268638D01*
X72428857Y-37427603D01*
X72359392Y-37669787D01*
X73160000Y-38470395D01*
X73960608Y-37669787D01*
X73891143Y-37427603D01*
X73393742Y-37250148D01*
X73806612Y-37079554D01*
X74128423Y-36758303D01*
X74302801Y-36338354D01*
X74302802Y-36336359D01*
X74556802Y-36336359D01*
X74730446Y-36756612D01*
X75051697Y-37078423D01*
X75471646Y-37252801D01*
X75665660Y-37252970D01*
X75352632Y-37268638D01*
X74968857Y-37427603D01*
X74899392Y-37669787D01*
X75700000Y-38470395D01*
X76500608Y-37669787D01*
X76431143Y-37427603D01*
X75933742Y-37250148D01*
X76346612Y-37079554D01*
X76668423Y-36758303D01*
X76842801Y-36338354D01*
X76842802Y-36336359D01*
X77096802Y-36336359D01*
X77270446Y-36756612D01*
X77591697Y-37078423D01*
X78011646Y-37252801D01*
X78466359Y-37253198D01*
X78886612Y-37079554D01*
X79208423Y-36758303D01*
X79382801Y-36338354D01*
X79382802Y-36336359D01*
X79636802Y-36336359D01*
X79810446Y-36756612D01*
X80131697Y-37078423D01*
X80551646Y-37252801D01*
X81006359Y-37253198D01*
X81426612Y-37079554D01*
X81748423Y-36758303D01*
X81922801Y-36338354D01*
X81922802Y-36336359D01*
X82176802Y-36336359D01*
X82350446Y-36756612D01*
X82671697Y-37078423D01*
X83091646Y-37252801D01*
X83546359Y-37253198D01*
X83966612Y-37079554D01*
X84288423Y-36758303D01*
X84462801Y-36338354D01*
X84462970Y-36144340D01*
X84478638Y-36457368D01*
X84637603Y-36841143D01*
X84879787Y-36910608D01*
X85680395Y-36110000D01*
X86039605Y-36110000D01*
X86840213Y-36910608D01*
X87082397Y-36841143D01*
X87259852Y-36343742D01*
X87430446Y-36756612D01*
X87751697Y-37078423D01*
X88171646Y-37252801D01*
X88626359Y-37253198D01*
X89046612Y-37079554D01*
X89368423Y-36758303D01*
X89542801Y-36338354D01*
X89542802Y-36336359D01*
X89796802Y-36336359D01*
X89970446Y-36756612D01*
X90291697Y-37078423D01*
X90711646Y-37252801D01*
X91166359Y-37253198D01*
X91586612Y-37079554D01*
X91908423Y-36758303D01*
X92082801Y-36338354D01*
X92082802Y-36336359D01*
X92336802Y-36336359D01*
X92510446Y-36756612D01*
X92831697Y-37078423D01*
X93251646Y-37252801D01*
X93706359Y-37253198D01*
X94126612Y-37079554D01*
X94448423Y-36758303D01*
X94622801Y-36338354D01*
X94622802Y-36336359D01*
X94876802Y-36336359D01*
X95050446Y-36756612D01*
X95371697Y-37078423D01*
X95791646Y-37252801D01*
X96246359Y-37253198D01*
X96666612Y-37079554D01*
X96988423Y-36758303D01*
X97162801Y-36338354D01*
X97163198Y-35883641D01*
X96989554Y-35463388D01*
X96668303Y-35141577D01*
X96248354Y-34967199D01*
X95793641Y-34966802D01*
X95373388Y-35140446D01*
X95051577Y-35461697D01*
X94877199Y-35881646D01*
X94876802Y-36336359D01*
X94622802Y-36336359D01*
X94623198Y-35883641D01*
X94449554Y-35463388D01*
X94128303Y-35141577D01*
X93708354Y-34967199D01*
X93253641Y-34966802D01*
X92833388Y-35140446D01*
X92511577Y-35461697D01*
X92337199Y-35881646D01*
X92336802Y-36336359D01*
X92082802Y-36336359D01*
X92083198Y-35883641D01*
X91909554Y-35463388D01*
X91588303Y-35141577D01*
X91168354Y-34967199D01*
X90713641Y-34966802D01*
X90293388Y-35140446D01*
X89971577Y-35461697D01*
X89797199Y-35881646D01*
X89796802Y-36336359D01*
X89542802Y-36336359D01*
X89543198Y-35883641D01*
X89369554Y-35463388D01*
X89048303Y-35141577D01*
X88628354Y-34967199D01*
X88173641Y-34966802D01*
X87753388Y-35140446D01*
X87431577Y-35461697D01*
X87257199Y-35881646D01*
X87257030Y-36075660D01*
X87241362Y-35762632D01*
X87082397Y-35378857D01*
X86840213Y-35309392D01*
X86039605Y-36110000D01*
X85680395Y-36110000D01*
X84879787Y-35309392D01*
X84637603Y-35378857D01*
X84460148Y-35876258D01*
X84289554Y-35463388D01*
X83968303Y-35141577D01*
X83548354Y-34967199D01*
X83093641Y-34966802D01*
X82673388Y-35140446D01*
X82351577Y-35461697D01*
X82177199Y-35881646D01*
X82176802Y-36336359D01*
X81922802Y-36336359D01*
X81923198Y-35883641D01*
X81749554Y-35463388D01*
X81428303Y-35141577D01*
X81008354Y-34967199D01*
X80553641Y-34966802D01*
X80133388Y-35140446D01*
X79811577Y-35461697D01*
X79637199Y-35881646D01*
X79636802Y-36336359D01*
X79382802Y-36336359D01*
X79383198Y-35883641D01*
X79209554Y-35463388D01*
X78888303Y-35141577D01*
X78468354Y-34967199D01*
X78013641Y-34966802D01*
X77593388Y-35140446D01*
X77271577Y-35461697D01*
X77097199Y-35881646D01*
X77096802Y-36336359D01*
X76842802Y-36336359D01*
X76843198Y-35883641D01*
X76669554Y-35463388D01*
X76348303Y-35141577D01*
X75928354Y-34967199D01*
X75473641Y-34966802D01*
X75053388Y-35140446D01*
X74731577Y-35461697D01*
X74557199Y-35881646D01*
X74556802Y-36336359D01*
X74302802Y-36336359D01*
X74303198Y-35883641D01*
X74129554Y-35463388D01*
X73808303Y-35141577D01*
X73388354Y-34967199D01*
X72933641Y-34966802D01*
X72513388Y-35140446D01*
X72191577Y-35461697D01*
X72017199Y-35881646D01*
X72016802Y-36336359D01*
X71762802Y-36336359D01*
X71763198Y-35883641D01*
X71589554Y-35463388D01*
X71268303Y-35141577D01*
X70848354Y-34967199D01*
X70393641Y-34966802D01*
X69973388Y-35140446D01*
X69651577Y-35461697D01*
X69477199Y-35881646D01*
X69476802Y-36336359D01*
X69222802Y-36336359D01*
X69223198Y-35883641D01*
X69049554Y-35463388D01*
X68728303Y-35141577D01*
X68308354Y-34967199D01*
X67853641Y-34966802D01*
X67433388Y-35140446D01*
X67111577Y-35461697D01*
X66937199Y-35881646D01*
X66936802Y-36336359D01*
X66682802Y-36336359D01*
X66683198Y-35883641D01*
X66509554Y-35463388D01*
X66188303Y-35141577D01*
X65768354Y-34967199D01*
X65313641Y-34966802D01*
X64893388Y-35140446D01*
X64571577Y-35461697D01*
X64397199Y-35881646D01*
X64396802Y-36336359D01*
X64142802Y-36336359D01*
X64143198Y-35883641D01*
X63969554Y-35463388D01*
X63648303Y-35141577D01*
X63228354Y-34967199D01*
X62773641Y-34966802D01*
X62353388Y-35140446D01*
X62031577Y-35461697D01*
X61857199Y-35881646D01*
X61856802Y-36336359D01*
X61602802Y-36336359D01*
X61603198Y-35883641D01*
X61429554Y-35463388D01*
X61108303Y-35141577D01*
X60688354Y-34967199D01*
X60233641Y-34966802D01*
X59813388Y-35140446D01*
X59491577Y-35461697D01*
X59317199Y-35881646D01*
X59316802Y-36336359D01*
X59062802Y-36336359D01*
X59063198Y-35883641D01*
X58889554Y-35463388D01*
X58568303Y-35141577D01*
X58148354Y-34967199D01*
X57693641Y-34966802D01*
X57273388Y-35140446D01*
X56951577Y-35461697D01*
X56777199Y-35881646D01*
X56776802Y-36336359D01*
X56950446Y-36756612D01*
X57103667Y-36910100D01*
X56844639Y-36910100D01*
X56474270Y-36539732D01*
X56474268Y-36539729D01*
X56449477Y-36514938D01*
X56522801Y-36338354D01*
X56523198Y-35883641D01*
X56349554Y-35463388D01*
X56028303Y-35141577D01*
X55608354Y-34967199D01*
X55153641Y-34966802D01*
X54733388Y-35140446D01*
X54411577Y-35461697D01*
X54237199Y-35881646D01*
X54236802Y-36336359D01*
X54410446Y-36756612D01*
X54731697Y-37078423D01*
X55151646Y-37252801D01*
X55379575Y-37253000D01*
X55252998Y-37253000D01*
X55252998Y-37411748D01*
X55094250Y-37253000D01*
X54491691Y-37253000D01*
X54258302Y-37349673D01*
X54079673Y-37528301D01*
X53983000Y-37761690D01*
X52026000Y-37761690D01*
X52026000Y-35698882D01*
X52758881Y-34966000D01*
X85106371Y-34966000D01*
X85059392Y-35129787D01*
X85059392Y-35129787D01*
G37*
X85059392Y-35129787D02*
X85860000Y-35930395D01*
X86660608Y-35129787D01*
X86613629Y-34966000D01*
X98641118Y-34966000D01*
X99374000Y-35698881D01*
X99374000Y-86661119D01*
X98641118Y-87394000D01*
X52758881Y-87394000D01*
X52026000Y-86661118D01*
X52026000Y-83551000D01*
X68552536Y-83551000D01*
X68552536Y-85329000D01*
X68579103Y-85470190D01*
X68662546Y-85599865D01*
X68789866Y-85686859D01*
X68941000Y-85717464D01*
X70719000Y-85717464D01*
X70860190Y-85690897D01*
X70989865Y-85607454D01*
X71076859Y-85480134D01*
X71107464Y-85329000D01*
X71107464Y-84710107D01*
X71292718Y-85158458D01*
X71649663Y-85516026D01*
X72116273Y-85709779D01*
X72621510Y-85710220D01*
X73088458Y-85517282D01*
X73093552Y-85512196D01*
X74017409Y-85512196D01*
X74102467Y-85767539D01*
X74671965Y-85975516D01*
X75277700Y-85949723D01*
X75717533Y-85767539D01*
X75802591Y-85512196D01*
X76557409Y-85512196D01*
X76642467Y-85767539D01*
X77211965Y-85975516D01*
X77817700Y-85949723D01*
X78257533Y-85767539D01*
X78342591Y-85512196D01*
X77450000Y-84619605D01*
X76557409Y-85512196D01*
X75802591Y-85512196D01*
X74910000Y-84619605D01*
X74017409Y-85512196D01*
X73093552Y-85512196D01*
X73446026Y-85160337D01*
X73496247Y-85039392D01*
X73582461Y-85247533D01*
X73837804Y-85332591D01*
X74730395Y-84440000D01*
X75089605Y-84440000D01*
X75982196Y-85332591D01*
X76180000Y-85266700D01*
X76377804Y-85332591D01*
X77270395Y-84440000D01*
X77629605Y-84440000D01*
X78522196Y-85332591D01*
X78777539Y-85247533D01*
X78858229Y-85026583D01*
X78912718Y-85158458D01*
X79269663Y-85516026D01*
X79736273Y-85709779D01*
X80241510Y-85710220D01*
X80708458Y-85517282D01*
X81066026Y-85160337D01*
X81259779Y-84693727D01*
X81259781Y-84691512D01*
X81452718Y-85158458D01*
X81809663Y-85516026D01*
X82276273Y-85709779D01*
X82781510Y-85710220D01*
X83248458Y-85517282D01*
X83606026Y-85160337D01*
X83799779Y-84693727D01*
X83799781Y-84691512D01*
X83992718Y-85158458D01*
X84349663Y-85516026D01*
X84816273Y-85709779D01*
X85321510Y-85710220D01*
X85788458Y-85517282D01*
X86146026Y-85160337D01*
X86339779Y-84693727D01*
X86339781Y-84691512D01*
X86532718Y-85158458D01*
X86889663Y-85516026D01*
X87356273Y-85709779D01*
X87861510Y-85710220D01*
X88328458Y-85517282D01*
X88686026Y-85160337D01*
X88879779Y-84693727D01*
X88879781Y-84691512D01*
X89072718Y-85158458D01*
X89429663Y-85516026D01*
X89896273Y-85709779D01*
X90401510Y-85710220D01*
X90868458Y-85517282D01*
X91226026Y-85160337D01*
X91419779Y-84693727D01*
X91419781Y-84691512D01*
X91612718Y-85158458D01*
X91969663Y-85516026D01*
X92436273Y-85709779D01*
X92941510Y-85710220D01*
X93408458Y-85517282D01*
X93766026Y-85160337D01*
X93959779Y-84693727D01*
X93959781Y-84691512D01*
X94152718Y-85158458D01*
X94509663Y-85516026D01*
X94976273Y-85709779D01*
X95481510Y-85710220D01*
X95948458Y-85517282D01*
X96306026Y-85160337D01*
X96499779Y-84693727D01*
X96499781Y-84691512D01*
X96692718Y-85158458D01*
X97049663Y-85516026D01*
X97516273Y-85709779D01*
X98021510Y-85710220D01*
X98488458Y-85517282D01*
X98846026Y-85160337D01*
X99039779Y-84693727D01*
X99040220Y-84188490D01*
X98847282Y-83721542D01*
X98490337Y-83363974D01*
X98023727Y-83170221D01*
X97518490Y-83169780D01*
X97051542Y-83362718D01*
X96693974Y-83719663D01*
X96500221Y-84186273D01*
X96500219Y-84188488D01*
X96307282Y-83721542D01*
X95950337Y-83363974D01*
X95483727Y-83170221D01*
X94978490Y-83169780D01*
X94511542Y-83362718D01*
X94153974Y-83719663D01*
X93960221Y-84186273D01*
X93960219Y-84188488D01*
X93767282Y-83721542D01*
X93410337Y-83363974D01*
X92943727Y-83170221D01*
X92438490Y-83169780D01*
X91971542Y-83362718D01*
X91613974Y-83719663D01*
X91420221Y-84186273D01*
X91420219Y-84188488D01*
X91227282Y-83721542D01*
X90870337Y-83363974D01*
X90403727Y-83170221D01*
X89898490Y-83169780D01*
X89431542Y-83362718D01*
X89073974Y-83719663D01*
X88880221Y-84186273D01*
X88880219Y-84188488D01*
X88687282Y-83721542D01*
X88330337Y-83363974D01*
X87863727Y-83170221D01*
X87358490Y-83169780D01*
X86891542Y-83362718D01*
X86533974Y-83719663D01*
X86340221Y-84186273D01*
X86340219Y-84188488D01*
X86147282Y-83721542D01*
X85790337Y-83363974D01*
X85323727Y-83170221D01*
X84818490Y-83169780D01*
X84351542Y-83362718D01*
X83993974Y-83719663D01*
X83800221Y-84186273D01*
X83800219Y-84188488D01*
X83607282Y-83721542D01*
X83250337Y-83363974D01*
X82783727Y-83170221D01*
X82278490Y-83169780D01*
X81811542Y-83362718D01*
X81453974Y-83719663D01*
X81260221Y-84186273D01*
X81260219Y-84188488D01*
X81067282Y-83721542D01*
X80710337Y-83363974D01*
X80243727Y-83170221D01*
X79738490Y-83169780D01*
X79271542Y-83362718D01*
X78913974Y-83719663D01*
X78863753Y-83840608D01*
X78777539Y-83632467D01*
X78522196Y-83547409D01*
X77629605Y-84440000D01*
X77270395Y-84440000D01*
X76377804Y-83547409D01*
X76180000Y-83613300D01*
X75982196Y-83547409D01*
X75089605Y-84440000D01*
X74730395Y-84440000D01*
X73837804Y-83547409D01*
X73582461Y-83632467D01*
X73501771Y-83853417D01*
X73447282Y-83721542D01*
X73094161Y-83367804D01*
X74017409Y-83367804D01*
X74910000Y-84260395D01*
X75802591Y-83367804D01*
X76557409Y-83367804D01*
X77450000Y-84260395D01*
X78342591Y-83367804D01*
X78257533Y-83112461D01*
X77688035Y-82904484D01*
X77082300Y-82930277D01*
X76642467Y-83112461D01*
X76557409Y-83367804D01*
X75802591Y-83367804D01*
X75717533Y-83112461D01*
X75148035Y-82904484D01*
X74542300Y-82930277D01*
X74102467Y-83112461D01*
X74017409Y-83367804D01*
X73094161Y-83367804D01*
X73090337Y-83363974D01*
X72623727Y-83170221D01*
X72118490Y-83169780D01*
X71651542Y-83362718D01*
X71293974Y-83719663D01*
X71107464Y-84168830D01*
X71107464Y-83551000D01*
X71080897Y-83409810D01*
X70997454Y-83280135D01*
X70870134Y-83193141D01*
X70719000Y-83162536D01*
X68941000Y-83162536D01*
X68799810Y-83189103D01*
X68670135Y-83272546D01*
X68583141Y-83399866D01*
X68552536Y-83551000D01*
X52026000Y-83551000D01*
X52026000Y-70360000D01*
X56431536Y-70360000D01*
X56431536Y-72060000D01*
X56458103Y-72201190D01*
X56541546Y-72330865D01*
X56668866Y-72417859D01*
X56820000Y-72448464D01*
X58520000Y-72448464D01*
X58661190Y-72421897D01*
X58790865Y-72338454D01*
X58877859Y-72211134D01*
X58908464Y-72060000D01*
X58908464Y-71185883D01*
X58979000Y-71185883D01*
X58979000Y-71234117D01*
X59072704Y-71705200D01*
X59339552Y-72104565D01*
X59738917Y-72371413D01*
X60210000Y-72465117D01*
X60681083Y-72371413D01*
X61080448Y-72104565D01*
X61347296Y-71705200D01*
X61355083Y-71666053D01*
X61554817Y-72091358D01*
X61983076Y-72481645D01*
X62393110Y-72651476D01*
X62623000Y-72530155D01*
X62623000Y-71337000D01*
X62877000Y-71337000D01*
X62877000Y-72530155D01*
X63106890Y-72651476D01*
X63516924Y-72481645D01*
X63945183Y-72091358D01*
X64191486Y-71566892D01*
X64070819Y-71337000D01*
X62877000Y-71337000D01*
X62623000Y-71337000D01*
X62603000Y-71337000D01*
X62603000Y-71083000D01*
X62623000Y-71083000D01*
X62623000Y-71063000D01*
X62877000Y-71063000D01*
X62877000Y-71083000D01*
X64070819Y-71083000D01*
X64191486Y-70853108D01*
X63945183Y-70328642D01*
X63516924Y-69938355D01*
X63235488Y-69821788D01*
X63620448Y-69564565D01*
X63695989Y-69451510D01*
X68559780Y-69451510D01*
X68752718Y-69918458D01*
X69109663Y-70276026D01*
X69576273Y-70469779D01*
X70081510Y-70470220D01*
X70548458Y-70277282D01*
X70553552Y-70272196D01*
X71477409Y-70272196D01*
X71562467Y-70527539D01*
X72131965Y-70735516D01*
X72737700Y-70709723D01*
X73177533Y-70527539D01*
X73262591Y-70272196D01*
X72370000Y-69379605D01*
X71477409Y-70272196D01*
X70553552Y-70272196D01*
X70906026Y-69920337D01*
X70956247Y-69799392D01*
X71042461Y-70007533D01*
X71297804Y-70092591D01*
X72190395Y-69200000D01*
X72549605Y-69200000D01*
X73442196Y-70092591D01*
X73697539Y-70007533D01*
X73778229Y-69786583D01*
X73832718Y-69918458D01*
X74189663Y-70276026D01*
X74656273Y-70469779D01*
X75161510Y-70470220D01*
X75628458Y-70277282D01*
X75986026Y-69920337D01*
X76179779Y-69453727D01*
X76179781Y-69451512D01*
X76372718Y-69918458D01*
X76729663Y-70276026D01*
X77196273Y-70469779D01*
X77701510Y-70470220D01*
X78168458Y-70277282D01*
X78526026Y-69920337D01*
X78719779Y-69453727D01*
X78719781Y-69451512D01*
X78912718Y-69918458D01*
X79269663Y-70276026D01*
X79736273Y-70469779D01*
X80241510Y-70470220D01*
X80708458Y-70277282D01*
X81066026Y-69920337D01*
X81259779Y-69453727D01*
X81259781Y-69451512D01*
X81452718Y-69918458D01*
X81809663Y-70276026D01*
X82276273Y-70469779D01*
X82781510Y-70470220D01*
X83248458Y-70277282D01*
X83606026Y-69920337D01*
X83799779Y-69453727D01*
X83799781Y-69451512D01*
X83992718Y-69918458D01*
X84349663Y-70276026D01*
X84816273Y-70469779D01*
X85321510Y-70470220D01*
X85788458Y-70277282D01*
X86146026Y-69920337D01*
X86339779Y-69453727D01*
X86339781Y-69451512D01*
X86532718Y-69918458D01*
X86889663Y-70276026D01*
X87356273Y-70469779D01*
X87861510Y-70470220D01*
X88328458Y-70277282D01*
X88686026Y-69920337D01*
X88879779Y-69453727D01*
X88879781Y-69451512D01*
X89072718Y-69918458D01*
X89429663Y-70276026D01*
X89896273Y-70469779D01*
X90401510Y-70470220D01*
X90868458Y-70277282D01*
X91226026Y-69920337D01*
X91419779Y-69453727D01*
X91419781Y-69451512D01*
X91612718Y-69918458D01*
X91969663Y-70276026D01*
X92436273Y-70469779D01*
X92941510Y-70470220D01*
X93408458Y-70277282D01*
X93766026Y-69920337D01*
X93959779Y-69453727D01*
X93959781Y-69451512D01*
X94152718Y-69918458D01*
X94509663Y-70276026D01*
X94976273Y-70469779D01*
X95481510Y-70470220D01*
X95948458Y-70277282D01*
X96306026Y-69920337D01*
X96499779Y-69453727D01*
X96499781Y-69451512D01*
X96692718Y-69918458D01*
X97049663Y-70276026D01*
X97516273Y-70469779D01*
X98021510Y-70470220D01*
X98488458Y-70277282D01*
X98846026Y-69920337D01*
X99039779Y-69453727D01*
X99040220Y-68948490D01*
X98847282Y-68481542D01*
X98490337Y-68123974D01*
X98023727Y-67930221D01*
X97518490Y-67929780D01*
X97051542Y-68122718D01*
X96693974Y-68479663D01*
X96500221Y-68946273D01*
X96500219Y-68948488D01*
X96307282Y-68481542D01*
X95950337Y-68123974D01*
X95483727Y-67930221D01*
X94978490Y-67929780D01*
X94511542Y-68122718D01*
X94153974Y-68479663D01*
X93960221Y-68946273D01*
X93960219Y-68948488D01*
X93767282Y-68481542D01*
X93410337Y-68123974D01*
X92943727Y-67930221D01*
X92438490Y-67929780D01*
X91971542Y-68122718D01*
X91613974Y-68479663D01*
X91420221Y-68946273D01*
X91420219Y-68948488D01*
X91227282Y-68481542D01*
X90870337Y-68123974D01*
X90403727Y-67930221D01*
X89898490Y-67929780D01*
X89431542Y-68122718D01*
X89073974Y-68479663D01*
X88880221Y-68946273D01*
X88880219Y-68948488D01*
X88687282Y-68481542D01*
X88330337Y-68123974D01*
X88079900Y-68019984D01*
X88079900Y-63183501D01*
X88277136Y-62986609D01*
X88397263Y-62697311D01*
X88397536Y-62384064D01*
X88277914Y-62094556D01*
X88056609Y-61872864D01*
X87767311Y-61752737D01*
X87454064Y-61752464D01*
X87164556Y-61872086D01*
X86942864Y-62093391D01*
X86822737Y-62382689D01*
X86822464Y-62695936D01*
X86942086Y-62985444D01*
X87140100Y-63183804D01*
X87140100Y-68020016D01*
X86891542Y-68122718D01*
X86533974Y-68479663D01*
X86340221Y-68946273D01*
X86340219Y-68948488D01*
X86209397Y-68631873D01*
X86224131Y-68609823D01*
X86259900Y-68430000D01*
X86259900Y-63870205D01*
X86265444Y-63867914D01*
X86487136Y-63646609D01*
X86607263Y-63357311D01*
X86607536Y-63044064D01*
X86487914Y-62754556D01*
X86266609Y-62532864D01*
X85977311Y-62412737D01*
X85664064Y-62412464D01*
X85374556Y-62532086D01*
X85152864Y-62753391D01*
X85032737Y-63042689D01*
X85032464Y-63355936D01*
X85152086Y-63645444D01*
X85320100Y-63813752D01*
X85320100Y-67930218D01*
X84818490Y-67929780D01*
X84351542Y-68122718D01*
X83993974Y-68479663D01*
X83800221Y-68946273D01*
X83800219Y-68948488D01*
X83696667Y-68697871D01*
X84482269Y-67912269D01*
X84584131Y-67759823D01*
X84619900Y-67580000D01*
X84619900Y-62193501D01*
X84817136Y-61996609D01*
X84937263Y-61707311D01*
X84937536Y-61394064D01*
X84923462Y-61360000D01*
X93414883Y-61360000D01*
X93508587Y-61831083D01*
X93775435Y-62230448D01*
X94174800Y-62497296D01*
X94645883Y-62591000D01*
X94694117Y-62591000D01*
X95165200Y-62497296D01*
X95564565Y-62230448D01*
X95821788Y-61845488D01*
X95938355Y-62126924D01*
X96328642Y-62555183D01*
X96853108Y-62801486D01*
X97083000Y-62680819D01*
X97083000Y-61487000D01*
X97337000Y-61487000D01*
X97337000Y-62680819D01*
X97566892Y-62801486D01*
X98091358Y-62555183D01*
X98481645Y-62126924D01*
X98651476Y-61716890D01*
X98530155Y-61487000D01*
X97337000Y-61487000D01*
X97083000Y-61487000D01*
X97063000Y-61487000D01*
X97063000Y-61233000D01*
X97083000Y-61233000D01*
X97083000Y-61213000D01*
X97337000Y-61213000D01*
X97337000Y-61233000D01*
X98530155Y-61233000D01*
X98651476Y-61003110D01*
X98481645Y-60593076D01*
X98091358Y-60164817D01*
X97666053Y-59965083D01*
X97705200Y-59957296D01*
X98104565Y-59690448D01*
X98371413Y-59291083D01*
X98465117Y-58820000D01*
X98371413Y-58348917D01*
X98104565Y-57949552D01*
X97705200Y-57682704D01*
X97234117Y-57589000D01*
X97185883Y-57589000D01*
X96714800Y-57682704D01*
X96315435Y-57949552D01*
X96048587Y-58348917D01*
X95954883Y-58820000D01*
X96048587Y-59291083D01*
X96315435Y-59690448D01*
X96714800Y-59957296D01*
X96753947Y-59965083D01*
X96328642Y-60164817D01*
X95938355Y-60593076D01*
X95821788Y-60874512D01*
X95564565Y-60489552D01*
X95165200Y-60222704D01*
X94694117Y-60129000D01*
X94645883Y-60129000D01*
X94174800Y-60222704D01*
X93775435Y-60489552D01*
X93508587Y-60888917D01*
X93414883Y-61360000D01*
X84923462Y-61360000D01*
X84817914Y-61104556D01*
X84596609Y-60882864D01*
X84307311Y-60762737D01*
X83994064Y-60762464D01*
X83704556Y-60882086D01*
X83482864Y-61103391D01*
X83362737Y-61392689D01*
X83362464Y-61705936D01*
X83482086Y-61995444D01*
X83680100Y-62193804D01*
X83680100Y-67385362D01*
X83032105Y-68033357D01*
X82783727Y-67930221D01*
X82278490Y-67929780D01*
X81811542Y-68122718D01*
X81453974Y-68479663D01*
X81260221Y-68946273D01*
X81260219Y-68948488D01*
X81067282Y-68481542D01*
X80710337Y-68123974D01*
X80459900Y-68019984D01*
X80459900Y-66894638D01*
X82537246Y-64817293D01*
X82815936Y-64817536D01*
X83105444Y-64697914D01*
X83327136Y-64476609D01*
X83447263Y-64187311D01*
X83447536Y-63874064D01*
X83327914Y-63584556D01*
X83106609Y-63362864D01*
X82817311Y-63242737D01*
X82504064Y-63242464D01*
X82214556Y-63362086D01*
X81992864Y-63583391D01*
X81872737Y-63872689D01*
X81872493Y-64152968D01*
X79657731Y-66367731D01*
X79555869Y-66520177D01*
X79520100Y-66700000D01*
X79520100Y-68020016D01*
X79271542Y-68122718D01*
X78913974Y-68479663D01*
X78720221Y-68946273D01*
X78720219Y-68948488D01*
X78527282Y-68481542D01*
X78170337Y-68123974D01*
X77703727Y-67930221D01*
X77198490Y-67929780D01*
X76731542Y-68122718D01*
X76373974Y-68479663D01*
X76180221Y-68946273D01*
X76180219Y-68948488D01*
X75987282Y-68481542D01*
X75630337Y-68123974D01*
X75163727Y-67930221D01*
X74658490Y-67929780D01*
X74191542Y-68122718D01*
X73833974Y-68479663D01*
X73783753Y-68600608D01*
X73697539Y-68392467D01*
X73442196Y-68307409D01*
X72549605Y-69200000D01*
X72190395Y-69200000D01*
X71297804Y-68307409D01*
X71042461Y-68392467D01*
X70961771Y-68613417D01*
X70907282Y-68481542D01*
X70554161Y-68127804D01*
X71477409Y-68127804D01*
X72370000Y-69020395D01*
X73262591Y-68127804D01*
X73177533Y-67872461D01*
X72608035Y-67664484D01*
X72002300Y-67690277D01*
X71562467Y-67872461D01*
X71477409Y-68127804D01*
X70554161Y-68127804D01*
X70550337Y-68123974D01*
X70083727Y-67930221D01*
X69578490Y-67929780D01*
X69111542Y-68122718D01*
X68753974Y-68479663D01*
X68560221Y-68946273D01*
X68559780Y-69451510D01*
X63695989Y-69451510D01*
X63887296Y-69165200D01*
X63981000Y-68694117D01*
X63981000Y-68645883D01*
X63887296Y-68174800D01*
X63620448Y-67775435D01*
X63221083Y-67508587D01*
X62750000Y-67414883D01*
X62278917Y-67508587D01*
X61879552Y-67775435D01*
X61612704Y-68174800D01*
X61519000Y-68645883D01*
X61519000Y-68694117D01*
X61612704Y-69165200D01*
X61879552Y-69564565D01*
X62264512Y-69821788D01*
X61983076Y-69938355D01*
X61554817Y-70328642D01*
X61355083Y-70753947D01*
X61347296Y-70714800D01*
X61080448Y-70315435D01*
X60681083Y-70048587D01*
X60210000Y-69954883D01*
X59738917Y-70048587D01*
X59339552Y-70315435D01*
X59072704Y-70714800D01*
X58979000Y-71185883D01*
X58908464Y-71185883D01*
X58908464Y-70360000D01*
X58881897Y-70218810D01*
X58798454Y-70089135D01*
X58671134Y-70002141D01*
X58520000Y-69971536D01*
X56820000Y-69971536D01*
X56678810Y-69998103D01*
X56549135Y-70081546D01*
X56462141Y-70208866D01*
X56431536Y-70360000D01*
X52026000Y-70360000D01*
X52026000Y-68645883D01*
X56439000Y-68645883D01*
X56439000Y-68694117D01*
X56532704Y-69165200D01*
X56799552Y-69564565D01*
X57198917Y-69831413D01*
X57670000Y-69925117D01*
X58141083Y-69831413D01*
X58540448Y-69564565D01*
X58807296Y-69165200D01*
X58901000Y-68694117D01*
X58901000Y-68645883D01*
X58979000Y-68645883D01*
X58979000Y-68694117D01*
X59072704Y-69165200D01*
X59339552Y-69564565D01*
X59738917Y-69831413D01*
X60210000Y-69925117D01*
X60681083Y-69831413D01*
X61080448Y-69564565D01*
X61347296Y-69165200D01*
X61441000Y-68694117D01*
X61441000Y-68645883D01*
X61347296Y-68174800D01*
X61080448Y-67775435D01*
X60681083Y-67508587D01*
X60210000Y-67414883D01*
X59738917Y-67508587D01*
X59339552Y-67775435D01*
X59072704Y-68174800D01*
X58979000Y-68645883D01*
X58901000Y-68645883D01*
X58807296Y-68174800D01*
X58540448Y-67775435D01*
X58141083Y-67508587D01*
X57670000Y-67414883D01*
X57198917Y-67508587D01*
X56799552Y-67775435D01*
X56532704Y-68174800D01*
X56439000Y-68645883D01*
X52026000Y-68645883D01*
X52026000Y-65485750D01*
X65935000Y-65485750D01*
X65935000Y-66176309D01*
X66031673Y-66409698D01*
X66210301Y-66588327D01*
X66443690Y-66685000D01*
X67134250Y-66685000D01*
X67293000Y-66526250D01*
X67293000Y-65327000D01*
X66093750Y-65327000D01*
X65935000Y-65485750D01*
X52026000Y-65485750D01*
X52026000Y-64223691D01*
X65935000Y-64223691D01*
X65935000Y-64914250D01*
X66093750Y-65073000D01*
X67293000Y-65073000D01*
X67293000Y-63873750D01*
X67547000Y-63873750D01*
X67547000Y-65073000D01*
X67567000Y-65073000D01*
X67567000Y-65327000D01*
X67547000Y-65327000D01*
X67547000Y-66526250D01*
X67705750Y-66685000D01*
X68396310Y-66685000D01*
X68629699Y-66588327D01*
X68808327Y-66409698D01*
X68905000Y-66176309D01*
X68905000Y-65818364D01*
X69089552Y-66094565D01*
X69488917Y-66361413D01*
X69960000Y-66455117D01*
X70431083Y-66361413D01*
X70830448Y-66094565D01*
X71097296Y-65695200D01*
X71191000Y-65224117D01*
X71191000Y-65175883D01*
X71269000Y-65175883D01*
X71269000Y-65224117D01*
X71362704Y-65695200D01*
X71629552Y-66094565D01*
X72028917Y-66361413D01*
X72500000Y-66455117D01*
X72971083Y-66361413D01*
X73370448Y-66094565D01*
X73637296Y-65695200D01*
X73731000Y-65224117D01*
X73731000Y-65175883D01*
X73637296Y-64704800D01*
X73370448Y-64305435D01*
X72971083Y-64038587D01*
X72500000Y-63944883D01*
X72028917Y-64038587D01*
X71629552Y-64305435D01*
X71362704Y-64704800D01*
X71269000Y-65175883D01*
X71191000Y-65175883D01*
X71097296Y-64704800D01*
X70830448Y-64305435D01*
X70431083Y-64038587D01*
X69960000Y-63944883D01*
X69488917Y-64038587D01*
X69089552Y-64305435D01*
X68905000Y-64581636D01*
X68905000Y-64223691D01*
X68808327Y-63990302D01*
X68629699Y-63811673D01*
X68396310Y-63715000D01*
X67705750Y-63715000D01*
X67547000Y-63873750D01*
X67293000Y-63873750D01*
X67134250Y-63715000D01*
X66443690Y-63715000D01*
X66210301Y-63811673D01*
X66031673Y-63990302D01*
X65935000Y-64223691D01*
X52026000Y-64223691D01*
X52026000Y-59335936D01*
X63892464Y-59335936D01*
X64012086Y-59625444D01*
X64233391Y-59847136D01*
X64522689Y-59967263D01*
X64835936Y-59967536D01*
X65125444Y-59847914D01*
X65227600Y-59745936D01*
X65722464Y-59745936D01*
X65842086Y-60035444D01*
X66063391Y-60257136D01*
X66352689Y-60377263D01*
X66665936Y-60377536D01*
X66955444Y-60257914D01*
X67177136Y-60036609D01*
X67260462Y-59835936D01*
X67602464Y-59835936D01*
X67722086Y-60125444D01*
X67943391Y-60347136D01*
X68232689Y-60467263D01*
X68545936Y-60467536D01*
X68835444Y-60347914D01*
X69057136Y-60126609D01*
X69177263Y-59837311D01*
X69177536Y-59524064D01*
X69163776Y-59490762D01*
X69834538Y-58820000D01*
X93414883Y-58820000D01*
X93508587Y-59291083D01*
X93775435Y-59690448D01*
X94174800Y-59957296D01*
X94645883Y-60051000D01*
X94694117Y-60051000D01*
X95165200Y-59957296D01*
X95564565Y-59690448D01*
X95831413Y-59291083D01*
X95925117Y-58820000D01*
X95831413Y-58348917D01*
X95564565Y-57949552D01*
X95165200Y-57682704D01*
X94694117Y-57589000D01*
X94645883Y-57589000D01*
X94174800Y-57682704D01*
X93775435Y-57949552D01*
X93508587Y-58348917D01*
X93414883Y-58820000D01*
X69834538Y-58820000D01*
X70417246Y-58237293D01*
X70695936Y-58237536D01*
X70985444Y-58117914D01*
X71207136Y-57896609D01*
X71327263Y-57607311D01*
X71327536Y-57294064D01*
X71207914Y-57004556D01*
X70986609Y-56782864D01*
X70697311Y-56662737D01*
X70384064Y-56662464D01*
X70094556Y-56782086D01*
X69872864Y-57003391D01*
X69752737Y-57292689D01*
X69752493Y-57572968D01*
X68432825Y-58892637D01*
X68234064Y-58892464D01*
X67944556Y-59012086D01*
X67722864Y-59233391D01*
X67602737Y-59522689D01*
X67602464Y-59835936D01*
X67260462Y-59835936D01*
X67297263Y-59747311D01*
X67297536Y-59434064D01*
X67239658Y-59293989D01*
X68846911Y-57686736D01*
X69125602Y-57686979D01*
X69415110Y-57567357D01*
X69636802Y-57346052D01*
X69756929Y-57056754D01*
X69757202Y-56743507D01*
X69637580Y-56453999D01*
X69463885Y-56280000D01*
X93414883Y-56280000D01*
X93508587Y-56751083D01*
X93775435Y-57150448D01*
X94174800Y-57417296D01*
X94645883Y-57511000D01*
X94694117Y-57511000D01*
X95165200Y-57417296D01*
X95564565Y-57150448D01*
X95831413Y-56751083D01*
X95925117Y-56280000D01*
X95954883Y-56280000D01*
X96048587Y-56751083D01*
X96315435Y-57150448D01*
X96714800Y-57417296D01*
X97185883Y-57511000D01*
X97234117Y-57511000D01*
X97705200Y-57417296D01*
X98104565Y-57150448D01*
X98371413Y-56751083D01*
X98465117Y-56280000D01*
X98371413Y-55808917D01*
X98104565Y-55409552D01*
X97705200Y-55142704D01*
X97234117Y-55049000D01*
X97185883Y-55049000D01*
X96714800Y-55142704D01*
X96315435Y-55409552D01*
X96048587Y-55808917D01*
X95954883Y-56280000D01*
X95925117Y-56280000D01*
X95831413Y-55808917D01*
X95564565Y-55409552D01*
X95165200Y-55142704D01*
X94694117Y-55049000D01*
X94645883Y-55049000D01*
X94174800Y-55142704D01*
X93775435Y-55409552D01*
X93508587Y-55808917D01*
X93414883Y-56280000D01*
X69463885Y-56280000D01*
X69416275Y-56232307D01*
X69126977Y-56112180D01*
X68813730Y-56111907D01*
X68524222Y-56231529D01*
X68302530Y-56452834D01*
X68182403Y-56742132D01*
X68182159Y-57022412D01*
X66402065Y-58802506D01*
X66354064Y-58802464D01*
X66064556Y-58922086D01*
X65842864Y-59143391D01*
X65722737Y-59432689D01*
X65722464Y-59745936D01*
X65227600Y-59745936D01*
X65347136Y-59626609D01*
X65467263Y-59337311D01*
X65467536Y-59024064D01*
X65347914Y-58734556D01*
X65149900Y-58536196D01*
X65149900Y-58394638D01*
X66747246Y-56797293D01*
X67025936Y-56797536D01*
X67315444Y-56677914D01*
X67537136Y-56456609D01*
X67657263Y-56167311D01*
X67657536Y-55854064D01*
X67537914Y-55564556D01*
X67316609Y-55342864D01*
X67027311Y-55222737D01*
X66714064Y-55222464D01*
X66424556Y-55342086D01*
X66202864Y-55563391D01*
X66082737Y-55852689D01*
X66082493Y-56132968D01*
X64347731Y-57867731D01*
X64245869Y-58020177D01*
X64210100Y-58200000D01*
X64210100Y-58536499D01*
X64012864Y-58733391D01*
X63892737Y-59022689D01*
X63892464Y-59335936D01*
X52026000Y-59335936D01*
X52026000Y-51720000D01*
X53324883Y-51720000D01*
X53418587Y-52191083D01*
X53685435Y-52590448D01*
X54084800Y-52857296D01*
X54555883Y-52951000D01*
X54604117Y-52951000D01*
X55075200Y-52857296D01*
X55474565Y-52590448D01*
X55741413Y-52191083D01*
X55835117Y-51720000D01*
X55741413Y-51248917D01*
X55474565Y-50849552D01*
X55075200Y-50582704D01*
X54604117Y-50489000D01*
X54555883Y-50489000D01*
X54084800Y-50582704D01*
X53685435Y-50849552D01*
X53418587Y-51248917D01*
X53324883Y-51720000D01*
X52026000Y-51720000D01*
X52026000Y-46925750D01*
X53095000Y-46925750D01*
X53095000Y-47616310D01*
X53191673Y-47849699D01*
X53370302Y-48028327D01*
X53603691Y-48125000D01*
X53961636Y-48125000D01*
X53685435Y-48309552D01*
X53418587Y-48708917D01*
X53324883Y-49180000D01*
X53418587Y-49651083D01*
X53685435Y-50050448D01*
X54084800Y-50317296D01*
X54555883Y-50411000D01*
X54604117Y-50411000D01*
X55075200Y-50317296D01*
X55446800Y-50069000D01*
X72001764Y-50069000D01*
X73881119Y-51948355D01*
X74005764Y-52073218D01*
X74332391Y-52208846D01*
X74686057Y-52209154D01*
X75012920Y-52074097D01*
X75263218Y-51824236D01*
X75398846Y-51497609D01*
X75399154Y-51143943D01*
X75264097Y-50817080D01*
X75014236Y-50566782D01*
X75013863Y-50566627D01*
X74063172Y-49615936D01*
X82472466Y-49615936D01*
X82592088Y-49905444D01*
X82813393Y-50127136D01*
X83102691Y-50247263D01*
X83415938Y-50247536D01*
X83705446Y-50127914D01*
X83903806Y-49929900D01*
X90195362Y-49929900D01*
X93518918Y-53253456D01*
X93508587Y-53268917D01*
X93414883Y-53740000D01*
X93508587Y-54211083D01*
X93775435Y-54610448D01*
X94174800Y-54877296D01*
X94645883Y-54971000D01*
X94694117Y-54971000D01*
X95165200Y-54877296D01*
X95564565Y-54610448D01*
X95831413Y-54211083D01*
X95925117Y-53740000D01*
X95831413Y-53268917D01*
X95564565Y-52869552D01*
X95165200Y-52602704D01*
X94694117Y-52509000D01*
X94645883Y-52509000D01*
X94193519Y-52598981D01*
X94033003Y-52438464D01*
X95520000Y-52438464D01*
X95661190Y-52411897D01*
X95790865Y-52328454D01*
X95877859Y-52201134D01*
X95908464Y-52050000D01*
X95908464Y-51894756D01*
X95938355Y-51966924D01*
X96328642Y-52395183D01*
X96753947Y-52594917D01*
X96714800Y-52602704D01*
X96315435Y-52869552D01*
X96048587Y-53268917D01*
X95954883Y-53740000D01*
X96048587Y-54211083D01*
X96315435Y-54610448D01*
X96714800Y-54877296D01*
X97185883Y-54971000D01*
X97234117Y-54971000D01*
X97705200Y-54877296D01*
X98104565Y-54610448D01*
X98371413Y-54211083D01*
X98465117Y-53740000D01*
X98371413Y-53268917D01*
X98104565Y-52869552D01*
X97705200Y-52602704D01*
X97666053Y-52594917D01*
X98091358Y-52395183D01*
X98481645Y-51966924D01*
X98651476Y-51556890D01*
X98530155Y-51327000D01*
X97337000Y-51327000D01*
X97337000Y-51347000D01*
X97083000Y-51347000D01*
X97083000Y-51327000D01*
X97063000Y-51327000D01*
X97063000Y-51073000D01*
X97083000Y-51073000D01*
X97083000Y-49879181D01*
X97337000Y-49879181D01*
X97337000Y-51073000D01*
X98530155Y-51073000D01*
X98651476Y-50843110D01*
X98481645Y-50433076D01*
X98091358Y-50004817D01*
X97566892Y-49758514D01*
X97337000Y-49879181D01*
X97083000Y-49879181D01*
X96853108Y-49758514D01*
X96328642Y-50004817D01*
X95938355Y-50433076D01*
X95908464Y-50505244D01*
X95908464Y-50350000D01*
X95881897Y-50208810D01*
X95798454Y-50079135D01*
X95671134Y-49992141D01*
X95520000Y-49961536D01*
X93820000Y-49961536D01*
X93678810Y-49988103D01*
X93549135Y-50071546D01*
X93462141Y-50198866D01*
X93431536Y-50350000D01*
X93431536Y-51836997D01*
X90722269Y-49127731D01*
X90569823Y-49025869D01*
X90390000Y-48990100D01*
X83903503Y-48990100D01*
X83706611Y-48792864D01*
X83417313Y-48672737D01*
X83104066Y-48672464D01*
X82814558Y-48792086D01*
X82592866Y-49013391D01*
X82472739Y-49302689D01*
X82472466Y-49615936D01*
X74063172Y-49615936D01*
X72998618Y-48551382D01*
X72710206Y-48358671D01*
X72370000Y-48291000D01*
X55446800Y-48291000D01*
X55198364Y-48125000D01*
X55556309Y-48125000D01*
X55789698Y-48028327D01*
X55968327Y-47849699D01*
X56065000Y-47616310D01*
X56065000Y-46925750D01*
X55906250Y-46767000D01*
X54707000Y-46767000D01*
X54707000Y-46787000D01*
X54453000Y-46787000D01*
X54453000Y-46767000D01*
X53253750Y-46767000D01*
X53095000Y-46925750D01*
X52026000Y-46925750D01*
X52026000Y-45663690D01*
X53095000Y-45663690D01*
X53095000Y-46354250D01*
X53253750Y-46513000D01*
X54453000Y-46513000D01*
X54453000Y-45313750D01*
X54707000Y-45313750D01*
X54707000Y-46513000D01*
X55906250Y-46513000D01*
X56065000Y-46354250D01*
X56065000Y-45663690D01*
X55968327Y-45430301D01*
X55789698Y-45251673D01*
X55556309Y-45155000D01*
X54865750Y-45155000D01*
X54707000Y-45313750D01*
X54453000Y-45313750D01*
X54294250Y-45155000D01*
X53603691Y-45155000D01*
X53370302Y-45251673D01*
X53191673Y-45430301D01*
X53095000Y-45663690D01*
X52026000Y-45663690D01*
X52026000Y-38935750D01*
X53983000Y-38935750D01*
X53983000Y-39538310D01*
X54079673Y-39771699D01*
X54258302Y-39950327D01*
X54491691Y-40047000D01*
X55094250Y-40047000D01*
X55253000Y-39888250D01*
X55253000Y-38777000D01*
X54141750Y-38777000D01*
X53983000Y-38935750D01*
X52026000Y-38935750D01*
X52026000Y-37761690D01*
X53983000Y-37761690D01*
X53983000Y-38364250D01*
X54141750Y-38523000D01*
X55253000Y-38523000D01*
X55253000Y-38503000D01*
X55507000Y-38503000D01*
X55507000Y-38523000D01*
X55527000Y-38523000D01*
X55527000Y-38777000D01*
X55507000Y-38777000D01*
X55507000Y-39888250D01*
X55665750Y-40047000D01*
X56268309Y-40047000D01*
X56501698Y-39950327D01*
X56680327Y-39771699D01*
X56777000Y-39538310D01*
X56777000Y-39403916D01*
X56939787Y-39450608D01*
X57740395Y-38650000D01*
X57726253Y-38635858D01*
X57905858Y-38456253D01*
X57920000Y-38470395D01*
X57934143Y-38456253D01*
X58113748Y-38635858D01*
X58099605Y-38650000D01*
X58113748Y-38664143D01*
X57934143Y-38843748D01*
X57920000Y-38829605D01*
X57119392Y-39630213D01*
X57188857Y-39872397D01*
X57712302Y-40059144D01*
X58267368Y-40031362D01*
X58651143Y-39872397D01*
X58710100Y-39666848D01*
X58710100Y-41486499D01*
X58512864Y-41683391D01*
X58392737Y-41972689D01*
X58392464Y-42285936D01*
X58512086Y-42575444D01*
X58733391Y-42797136D01*
X59022689Y-42917263D01*
X59335936Y-42917536D01*
X59625444Y-42797914D01*
X59847136Y-42576609D01*
X59967263Y-42287311D01*
X59967536Y-41974064D01*
X59847914Y-41684556D01*
X59649900Y-41486196D01*
X59649900Y-39639708D01*
X59659393Y-39630215D01*
X59728857Y-39872397D01*
X60252302Y-40059144D01*
X60807368Y-40031362D01*
X61191143Y-39872397D01*
X61260608Y-39630213D01*
X62199392Y-39630213D01*
X62268857Y-39872397D01*
X62792302Y-40059144D01*
X63347368Y-40031362D01*
X63731143Y-39872397D01*
X63800608Y-39630213D01*
X64739392Y-39630213D01*
X64808857Y-39872397D01*
X65332302Y-40059144D01*
X65887368Y-40031362D01*
X66271143Y-39872397D01*
X66340608Y-39630213D01*
X67279392Y-39630213D01*
X67348857Y-39872397D01*
X67872302Y-40059144D01*
X68427368Y-40031362D01*
X68811143Y-39872397D01*
X68880608Y-39630213D01*
X69819392Y-39630213D01*
X69888857Y-39872397D01*
X70412302Y-40059144D01*
X70967368Y-40031362D01*
X71351143Y-39872397D01*
X71420608Y-39630213D01*
X72359392Y-39630213D01*
X72428857Y-39872397D01*
X72952302Y-40059144D01*
X73507368Y-40031362D01*
X73891143Y-39872397D01*
X73960608Y-39630213D01*
X74899392Y-39630213D01*
X74968857Y-39872397D01*
X75492302Y-40059144D01*
X76047368Y-40031362D01*
X76431143Y-39872397D01*
X76500608Y-39630213D01*
X75700000Y-38829605D01*
X74899392Y-39630213D01*
X73960608Y-39630213D01*
X73160000Y-38829605D01*
X72359392Y-39630213D01*
X71420608Y-39630213D01*
X70620000Y-38829605D01*
X69819392Y-39630213D01*
X68880608Y-39630213D01*
X68080000Y-38829605D01*
X67279392Y-39630213D01*
X66340608Y-39630213D01*
X65540000Y-38829605D01*
X64739392Y-39630213D01*
X63800608Y-39630213D01*
X63000000Y-38829605D01*
X62199392Y-39630213D01*
X61260608Y-39630213D01*
X60460000Y-38829605D01*
X60445858Y-38843748D01*
X60266253Y-38664143D01*
X60280395Y-38650000D01*
X60639605Y-38650000D01*
X61440213Y-39450608D01*
X61682397Y-39381143D01*
X61726453Y-39257656D01*
X61777603Y-39381143D01*
X62019787Y-39450608D01*
X62820395Y-38650000D01*
X63179605Y-38650000D01*
X63980213Y-39450608D01*
X64222397Y-39381143D01*
X64266453Y-39257656D01*
X64317603Y-39381143D01*
X64559787Y-39450608D01*
X65360395Y-38650000D01*
X65719605Y-38650000D01*
X66520213Y-39450608D01*
X66762397Y-39381143D01*
X66806453Y-39257656D01*
X66857603Y-39381143D01*
X67099787Y-39450608D01*
X67900395Y-38650000D01*
X68259605Y-38650000D01*
X69060213Y-39450608D01*
X69302397Y-39381143D01*
X69346453Y-39257656D01*
X69397603Y-39381143D01*
X69639787Y-39450608D01*
X70440395Y-38650000D01*
X70799605Y-38650000D01*
X71600213Y-39450608D01*
X71842397Y-39381143D01*
X71886453Y-39257656D01*
X71937603Y-39381143D01*
X72179787Y-39450608D01*
X72980395Y-38650000D01*
X73339605Y-38650000D01*
X74140213Y-39450608D01*
X74382397Y-39381143D01*
X74426453Y-39257656D01*
X74477603Y-39381143D01*
X74719787Y-39450608D01*
X75520395Y-38650000D01*
X75879605Y-38650000D01*
X76680213Y-39450608D01*
X76922397Y-39381143D01*
X77099852Y-38883742D01*
X77270446Y-39296612D01*
X77591697Y-39618423D01*
X78011646Y-39792801D01*
X78466359Y-39793198D01*
X78886612Y-39619554D01*
X79208423Y-39298303D01*
X79382801Y-38878354D01*
X79382802Y-38876359D01*
X79636802Y-38876359D01*
X79810446Y-39296612D01*
X80131697Y-39618423D01*
X80551646Y-39792801D01*
X81006359Y-39793198D01*
X81426612Y-39619554D01*
X81748423Y-39298303D01*
X81922801Y-38878354D01*
X81922802Y-38876359D01*
X82176802Y-38876359D01*
X82350446Y-39296612D01*
X82671697Y-39618423D01*
X83091646Y-39792801D01*
X83546359Y-39793198D01*
X83966612Y-39619554D01*
X84288423Y-39298303D01*
X84462801Y-38878354D01*
X84462802Y-38876359D01*
X84716802Y-38876359D01*
X84890446Y-39296612D01*
X85211697Y-39618423D01*
X85631646Y-39792801D01*
X86086359Y-39793198D01*
X86506612Y-39619554D01*
X86828423Y-39298303D01*
X87002801Y-38878354D01*
X87002802Y-38876359D01*
X87256802Y-38876359D01*
X87430446Y-39296612D01*
X87751697Y-39618423D01*
X88171646Y-39792801D01*
X88626359Y-39793198D01*
X89046612Y-39619554D01*
X89368423Y-39298303D01*
X89542801Y-38878354D01*
X89542802Y-38876359D01*
X89796802Y-38876359D01*
X89970446Y-39296612D01*
X90291697Y-39618423D01*
X90711646Y-39792801D01*
X91166359Y-39793198D01*
X91586612Y-39619554D01*
X91908423Y-39298303D01*
X92082801Y-38878354D01*
X92082802Y-38876359D01*
X92336802Y-38876359D01*
X92510446Y-39296612D01*
X92831697Y-39618423D01*
X93251646Y-39792801D01*
X93706359Y-39793198D01*
X94126612Y-39619554D01*
X94448423Y-39298303D01*
X94622801Y-38878354D01*
X94622802Y-38876359D01*
X94876802Y-38876359D01*
X95050446Y-39296612D01*
X95371697Y-39618423D01*
X95791646Y-39792801D01*
X96246359Y-39793198D01*
X96666612Y-39619554D01*
X96988423Y-39298303D01*
X97162801Y-38878354D01*
X97163198Y-38423641D01*
X96989554Y-38003388D01*
X96668303Y-37681577D01*
X96248354Y-37507199D01*
X95793641Y-37506802D01*
X95373388Y-37680446D01*
X95051577Y-38001697D01*
X94877199Y-38421646D01*
X94876802Y-38876359D01*
X94622802Y-38876359D01*
X94623198Y-38423641D01*
X94449554Y-38003388D01*
X94128303Y-37681577D01*
X93708354Y-37507199D01*
X93253641Y-37506802D01*
X92833388Y-37680446D01*
X92511577Y-38001697D01*
X92337199Y-38421646D01*
X92336802Y-38876359D01*
X92082802Y-38876359D01*
X92083198Y-38423641D01*
X91909554Y-38003388D01*
X91588303Y-37681577D01*
X91168354Y-37507199D01*
X90713641Y-37506802D01*
X90293388Y-37680446D01*
X89971577Y-38001697D01*
X89797199Y-38421646D01*
X89796802Y-38876359D01*
X89542802Y-38876359D01*
X89543198Y-38423641D01*
X89369554Y-38003388D01*
X89048303Y-37681577D01*
X88628354Y-37507199D01*
X88173641Y-37506802D01*
X87753388Y-37680446D01*
X87431577Y-38001697D01*
X87257199Y-38421646D01*
X87256802Y-38876359D01*
X87002802Y-38876359D01*
X87003198Y-38423641D01*
X86829554Y-38003388D01*
X86508303Y-37681577D01*
X86088354Y-37507199D01*
X85894340Y-37507030D01*
X86207368Y-37491362D01*
X86591143Y-37332397D01*
X86660608Y-37090213D01*
X85860000Y-36289605D01*
X85059392Y-37090213D01*
X85128857Y-37332397D01*
X85626258Y-37509852D01*
X85213388Y-37680446D01*
X84891577Y-38001697D01*
X84717199Y-38421646D01*
X84716802Y-38876359D01*
X84462802Y-38876359D01*
X84463198Y-38423641D01*
X84289554Y-38003388D01*
X83968303Y-37681577D01*
X83548354Y-37507199D01*
X83093641Y-37506802D01*
X82673388Y-37680446D01*
X82351577Y-38001697D01*
X82177199Y-38421646D01*
X82176802Y-38876359D01*
X81922802Y-38876359D01*
X81923198Y-38423641D01*
X81749554Y-38003388D01*
X81428303Y-37681577D01*
X81008354Y-37507199D01*
X80553641Y-37506802D01*
X80133388Y-37680446D01*
X79811577Y-38001697D01*
X79637199Y-38421646D01*
X79636802Y-38876359D01*
X79382802Y-38876359D01*
X79383198Y-38423641D01*
X79209554Y-38003388D01*
X78888303Y-37681577D01*
X78468354Y-37507199D01*
X78013641Y-37506802D01*
X77593388Y-37680446D01*
X77271577Y-38001697D01*
X77097199Y-38421646D01*
X77097030Y-38615660D01*
X77081362Y-38302632D01*
X76922397Y-37918857D01*
X76680213Y-37849392D01*
X75879605Y-38650000D01*
X75520395Y-38650000D01*
X74719787Y-37849392D01*
X74477603Y-37918857D01*
X74433547Y-38042344D01*
X74382397Y-37918857D01*
X74140213Y-37849392D01*
X73339605Y-38650000D01*
X72980395Y-38650000D01*
X72179787Y-37849392D01*
X71937603Y-37918857D01*
X71893547Y-38042344D01*
X71842397Y-37918857D01*
X71600213Y-37849392D01*
X70799605Y-38650000D01*
X70440395Y-38650000D01*
X69639787Y-37849392D01*
X69397603Y-37918857D01*
X69353547Y-38042344D01*
X69302397Y-37918857D01*
X69060213Y-37849392D01*
X68259605Y-38650000D01*
X67900395Y-38650000D01*
X67099787Y-37849392D01*
X66857603Y-37918857D01*
X66813547Y-38042344D01*
X66762397Y-37918857D01*
X66520213Y-37849392D01*
X65719605Y-38650000D01*
X65360395Y-38650000D01*
X64559787Y-37849392D01*
X64317603Y-37918857D01*
X64273547Y-38042344D01*
X64222397Y-37918857D01*
X63980213Y-37849392D01*
X63179605Y-38650000D01*
X62820395Y-38650000D01*
X62019787Y-37849392D01*
X61777603Y-37918857D01*
X61733547Y-38042344D01*
X61682397Y-37918857D01*
X61440213Y-37849392D01*
X60639605Y-38650000D01*
X60280395Y-38650000D01*
X59617498Y-37987103D01*
X59614131Y-37970177D01*
X59533764Y-37849900D01*
X59512269Y-37817730D01*
X58742269Y-37047731D01*
X58656140Y-36990181D01*
X58888423Y-36758303D01*
X59062801Y-36338354D01*
X59062802Y-36336359D01*
X59316802Y-36336359D01*
X59490446Y-36756612D01*
X59811697Y-37078423D01*
X60231646Y-37252801D01*
X60425660Y-37252970D01*
X60112632Y-37268638D01*
X59728857Y-37427603D01*
X59659392Y-37669787D01*
X60460000Y-38470395D01*
X61260608Y-37669787D01*
X61191143Y-37427603D01*
X60693742Y-37250148D01*
X61106612Y-37079554D01*
X61428423Y-36758303D01*
X61602801Y-36338354D01*
X61602802Y-36336359D01*
X61856802Y-36336359D01*
X62030446Y-36756612D01*
X62351697Y-37078423D01*
X62771646Y-37252801D01*
X62965660Y-37252970D01*
X62652632Y-37268638D01*
X62268857Y-37427603D01*
X62199392Y-37669787D01*
X63000000Y-38470395D01*
X63800608Y-37669787D01*
X63731143Y-37427603D01*
X63233742Y-37250148D01*
X63646612Y-37079554D01*
X63968423Y-36758303D01*
X64142801Y-36338354D01*
X64142802Y-36336359D01*
X64396802Y-36336359D01*
X64570446Y-36756612D01*
X64891697Y-37078423D01*
X65311646Y-37252801D01*
X65505660Y-37252970D01*
X65192632Y-37268638D01*
X64808857Y-37427603D01*
X64739392Y-37669787D01*
X65540000Y-38470395D01*
X66340608Y-37669787D01*
X66271143Y-37427603D01*
X65773742Y-37250148D01*
X66186612Y-37079554D01*
X66508423Y-36758303D01*
X66682801Y-36338354D01*
X66682802Y-36336359D01*
X66936802Y-36336359D01*
X67110446Y-36756612D01*
X67431697Y-37078423D01*
X67851646Y-37252801D01*
X68045660Y-37252970D01*
X67732632Y-37268638D01*
X67348857Y-37427603D01*
X67279392Y-37669787D01*
X68080000Y-38470395D01*
X68880608Y-37669787D01*
X68811143Y-37427603D01*
X68313742Y-37250148D01*
X68726612Y-37079554D01*
X69048423Y-36758303D01*
X69222801Y-36338354D01*
X69222802Y-36336359D01*
X69476802Y-36336359D01*
X69650446Y-36756612D01*
X69971697Y-37078423D01*
X70391646Y-37252801D01*
X70585660Y-37252970D01*
X70272632Y-37268638D01*
X69888857Y-37427603D01*
X69819392Y-37669787D01*
X70620000Y-38470395D01*
X71420608Y-37669787D01*
X71351143Y-37427603D01*
X70853742Y-37250148D01*
X71266612Y-37079554D01*
X71588423Y-36758303D01*
X71762801Y-36338354D01*
X71762802Y-36336359D01*
X72016802Y-36336359D01*
X72190446Y-36756612D01*
X72511697Y-37078423D01*
X72931646Y-37252801D01*
X73125660Y-37252970D01*
X72812632Y-37268638D01*
X72428857Y-37427603D01*
X72359392Y-37669787D01*
X73160000Y-38470395D01*
X73960608Y-37669787D01*
X73891143Y-37427603D01*
X73393742Y-37250148D01*
X73806612Y-37079554D01*
X74128423Y-36758303D01*
X74302801Y-36338354D01*
X74302802Y-36336359D01*
X74556802Y-36336359D01*
X74730446Y-36756612D01*
X75051697Y-37078423D01*
X75471646Y-37252801D01*
X75665660Y-37252970D01*
X75352632Y-37268638D01*
X74968857Y-37427603D01*
X74899392Y-37669787D01*
X75700000Y-38470395D01*
X76500608Y-37669787D01*
X76431143Y-37427603D01*
X75933742Y-37250148D01*
X76346612Y-37079554D01*
X76668423Y-36758303D01*
X76842801Y-36338354D01*
X76842802Y-36336359D01*
X77096802Y-36336359D01*
X77270446Y-36756612D01*
X77591697Y-37078423D01*
X78011646Y-37252801D01*
X78466359Y-37253198D01*
X78886612Y-37079554D01*
X79208423Y-36758303D01*
X79382801Y-36338354D01*
X79382802Y-36336359D01*
X79636802Y-36336359D01*
X79810446Y-36756612D01*
X80131697Y-37078423D01*
X80551646Y-37252801D01*
X81006359Y-37253198D01*
X81426612Y-37079554D01*
X81748423Y-36758303D01*
X81922801Y-36338354D01*
X81922802Y-36336359D01*
X82176802Y-36336359D01*
X82350446Y-36756612D01*
X82671697Y-37078423D01*
X83091646Y-37252801D01*
X83546359Y-37253198D01*
X83966612Y-37079554D01*
X84288423Y-36758303D01*
X84462801Y-36338354D01*
X84462970Y-36144340D01*
X84478638Y-36457368D01*
X84637603Y-36841143D01*
X84879787Y-36910608D01*
X85680395Y-36110000D01*
X86039605Y-36110000D01*
X86840213Y-36910608D01*
X87082397Y-36841143D01*
X87259852Y-36343742D01*
X87430446Y-36756612D01*
X87751697Y-37078423D01*
X88171646Y-37252801D01*
X88626359Y-37253198D01*
X89046612Y-37079554D01*
X89368423Y-36758303D01*
X89542801Y-36338354D01*
X89542802Y-36336359D01*
X89796802Y-36336359D01*
X89970446Y-36756612D01*
X90291697Y-37078423D01*
X90711646Y-37252801D01*
X91166359Y-37253198D01*
X91586612Y-37079554D01*
X91908423Y-36758303D01*
X92082801Y-36338354D01*
X92082802Y-36336359D01*
X92336802Y-36336359D01*
X92510446Y-36756612D01*
X92831697Y-37078423D01*
X93251646Y-37252801D01*
X93706359Y-37253198D01*
X94126612Y-37079554D01*
X94448423Y-36758303D01*
X94622801Y-36338354D01*
X94622802Y-36336359D01*
X94876802Y-36336359D01*
X95050446Y-36756612D01*
X95371697Y-37078423D01*
X95791646Y-37252801D01*
X96246359Y-37253198D01*
X96666612Y-37079554D01*
X96988423Y-36758303D01*
X97162801Y-36338354D01*
X97163198Y-35883641D01*
X96989554Y-35463388D01*
X96668303Y-35141577D01*
X96248354Y-34967199D01*
X95793641Y-34966802D01*
X95373388Y-35140446D01*
X95051577Y-35461697D01*
X94877199Y-35881646D01*
X94876802Y-36336359D01*
X94622802Y-36336359D01*
X94623198Y-35883641D01*
X94449554Y-35463388D01*
X94128303Y-35141577D01*
X93708354Y-34967199D01*
X93253641Y-34966802D01*
X92833388Y-35140446D01*
X92511577Y-35461697D01*
X92337199Y-35881646D01*
X92336802Y-36336359D01*
X92082802Y-36336359D01*
X92083198Y-35883641D01*
X91909554Y-35463388D01*
X91588303Y-35141577D01*
X91168354Y-34967199D01*
X90713641Y-34966802D01*
X90293388Y-35140446D01*
X89971577Y-35461697D01*
X89797199Y-35881646D01*
X89796802Y-36336359D01*
X89542802Y-36336359D01*
X89543198Y-35883641D01*
X89369554Y-35463388D01*
X89048303Y-35141577D01*
X88628354Y-34967199D01*
X88173641Y-34966802D01*
X87753388Y-35140446D01*
X87431577Y-35461697D01*
X87257199Y-35881646D01*
X87257030Y-36075660D01*
X87241362Y-35762632D01*
X87082397Y-35378857D01*
X86840213Y-35309392D01*
X86039605Y-36110000D01*
X85680395Y-36110000D01*
X84879787Y-35309392D01*
X84637603Y-35378857D01*
X84460148Y-35876258D01*
X84289554Y-35463388D01*
X83968303Y-35141577D01*
X83548354Y-34967199D01*
X83093641Y-34966802D01*
X82673388Y-35140446D01*
X82351577Y-35461697D01*
X82177199Y-35881646D01*
X82176802Y-36336359D01*
X81922802Y-36336359D01*
X81923198Y-35883641D01*
X81749554Y-35463388D01*
X81428303Y-35141577D01*
X81008354Y-34967199D01*
X80553641Y-34966802D01*
X80133388Y-35140446D01*
X79811577Y-35461697D01*
X79637199Y-35881646D01*
X79636802Y-36336359D01*
X79382802Y-36336359D01*
X79383198Y-35883641D01*
X79209554Y-35463388D01*
X78888303Y-35141577D01*
X78468354Y-34967199D01*
X78013641Y-34966802D01*
X77593388Y-35140446D01*
X77271577Y-35461697D01*
X77097199Y-35881646D01*
X77096802Y-36336359D01*
X76842802Y-36336359D01*
X76843198Y-35883641D01*
X76669554Y-35463388D01*
X76348303Y-35141577D01*
X75928354Y-34967199D01*
X75473641Y-34966802D01*
X75053388Y-35140446D01*
X74731577Y-35461697D01*
X74557199Y-35881646D01*
X74556802Y-36336359D01*
X74302802Y-36336359D01*
X74303198Y-35883641D01*
X74129554Y-35463388D01*
X73808303Y-35141577D01*
X73388354Y-34967199D01*
X72933641Y-34966802D01*
X72513388Y-35140446D01*
X72191577Y-35461697D01*
X72017199Y-35881646D01*
X72016802Y-36336359D01*
X71762802Y-36336359D01*
X71763198Y-35883641D01*
X71589554Y-35463388D01*
X71268303Y-35141577D01*
X70848354Y-34967199D01*
X70393641Y-34966802D01*
X69973388Y-35140446D01*
X69651577Y-35461697D01*
X69477199Y-35881646D01*
X69476802Y-36336359D01*
X69222802Y-36336359D01*
X69223198Y-35883641D01*
X69049554Y-35463388D01*
X68728303Y-35141577D01*
X68308354Y-34967199D01*
X67853641Y-34966802D01*
X67433388Y-35140446D01*
X67111577Y-35461697D01*
X66937199Y-35881646D01*
X66936802Y-36336359D01*
X66682802Y-36336359D01*
X66683198Y-35883641D01*
X66509554Y-35463388D01*
X66188303Y-35141577D01*
X65768354Y-34967199D01*
X65313641Y-34966802D01*
X64893388Y-35140446D01*
X64571577Y-35461697D01*
X64397199Y-35881646D01*
X64396802Y-36336359D01*
X64142802Y-36336359D01*
X64143198Y-35883641D01*
X63969554Y-35463388D01*
X63648303Y-35141577D01*
X63228354Y-34967199D01*
X62773641Y-34966802D01*
X62353388Y-35140446D01*
X62031577Y-35461697D01*
X61857199Y-35881646D01*
X61856802Y-36336359D01*
X61602802Y-36336359D01*
X61603198Y-35883641D01*
X61429554Y-35463388D01*
X61108303Y-35141577D01*
X60688354Y-34967199D01*
X60233641Y-34966802D01*
X59813388Y-35140446D01*
X59491577Y-35461697D01*
X59317199Y-35881646D01*
X59316802Y-36336359D01*
X59062802Y-36336359D01*
X59063198Y-35883641D01*
X58889554Y-35463388D01*
X58568303Y-35141577D01*
X58148354Y-34967199D01*
X57693641Y-34966802D01*
X57273388Y-35140446D01*
X56951577Y-35461697D01*
X56777199Y-35881646D01*
X56776802Y-36336359D01*
X56950446Y-36756612D01*
X57103667Y-36910100D01*
X56844639Y-36910100D01*
X56474270Y-36539732D01*
X56474268Y-36539729D01*
X56449477Y-36514938D01*
X56522801Y-36338354D01*
X56523198Y-35883641D01*
X56349554Y-35463388D01*
X56028303Y-35141577D01*
X55608354Y-34967199D01*
X55153641Y-34966802D01*
X54733388Y-35140446D01*
X54411577Y-35461697D01*
X54237199Y-35881646D01*
X54236802Y-36336359D01*
X54410446Y-36756612D01*
X54731697Y-37078423D01*
X55151646Y-37252801D01*
X55379575Y-37253000D01*
X55252998Y-37253000D01*
X55252998Y-37411748D01*
X55094250Y-37253000D01*
X54491691Y-37253000D01*
X54258302Y-37349673D01*
X54079673Y-37528301D01*
X53983000Y-37761690D01*
X52026000Y-37761690D01*
X52026000Y-35698882D01*
X52758881Y-34966000D01*
X85106371Y-34966000D01*
X85059392Y-35129787D01*
M02*
