G04 #@! TF.FileFunction,Copper,L1,Top,Signal*
%FSLAX46Y46*%
G04 Gerber Fmt 4.6, Leading zero omitted, Abs format (unit mm)*
G04 Created by KiCad (PCBNEW 4.0.6) date Saturday, October 28, 2017 'PMt' 05:19:06 PM*
%MOMM*%
%LPD*%
G01*
G04 APERTURE LIST*
%ADD10C,0.100000*%
%ADD11R,0.700000X1.750000*%
%ADD12R,1.450000X1.000000*%
%ADD13R,1.000000X1.550000*%
%ADD14R,1.300000X1.500000*%
%ADD15R,1.500000X1.500000*%
%ADD16R,0.800000X1.500000*%
%ADD17R,0.800000X1.400000*%
%ADD18R,1.250000X1.500000*%
%ADD19R,1.500000X1.250000*%
%ADD20R,1.700000X1.700000*%
%ADD21O,1.700000X1.700000*%
%ADD22R,0.500000X2.000000*%
%ADD23R,2.000000X0.500000*%
%ADD24R,1.000000X1.500000*%
%ADD25R,1.000000X1.800000*%
%ADD26R,2.200000X1.840000*%
%ADD27R,1.524000X1.524000*%
%ADD28C,1.524000*%
%ADD29C,1.778000*%
%ADD30R,1.778000X1.778000*%
%ADD31C,0.812800*%
%ADD32C,1.016000*%
%ADD33C,0.508000*%
%ADD34C,0.254000*%
%ADD35C,1.016000*%
%ADD36C,0.177800*%
G04 APERTURE END LIST*
D10*
D11*
X63400000Y-75405000D03*
X62300000Y-75405000D03*
X61200000Y-75405000D03*
X60100000Y-75405000D03*
X59000000Y-75405000D03*
X57900000Y-75405000D03*
X56800000Y-75405000D03*
X55700000Y-75405000D03*
D12*
X64525000Y-84630000D03*
D13*
X53300000Y-86205000D03*
D14*
X64600000Y-75530000D03*
D15*
X53250000Y-75530000D03*
D16*
X64850000Y-83130000D03*
D17*
X52900000Y-83780000D03*
D18*
X87510000Y-54350000D03*
X87510000Y-56850000D03*
D19*
X80170000Y-45970000D03*
X82670000Y-45970000D03*
D20*
X94670000Y-51200000D03*
D21*
X97210000Y-51200000D03*
X94670000Y-53740000D03*
X97210000Y-53740000D03*
X94670000Y-56280000D03*
X97210000Y-56280000D03*
X94670000Y-58820000D03*
X97210000Y-58820000D03*
X94670000Y-61360000D03*
X97210000Y-61360000D03*
D22*
X74160000Y-61020000D03*
X74960000Y-61020000D03*
X75760000Y-61020000D03*
X76560000Y-61020000D03*
X77360000Y-61020000D03*
X78160000Y-61020000D03*
X78960000Y-61020000D03*
X79760000Y-61020000D03*
X80560000Y-61020000D03*
X81360000Y-61020000D03*
X82160000Y-61020000D03*
D23*
X84160000Y-59020000D03*
X84160000Y-58220000D03*
X84160000Y-57420000D03*
X84160000Y-56620000D03*
X84160000Y-55820000D03*
X84160000Y-55020000D03*
X84160000Y-54220000D03*
X84160000Y-53420000D03*
X84160000Y-52620000D03*
X84160000Y-51820000D03*
X84160000Y-51020000D03*
D22*
X82160000Y-49020000D03*
X81360000Y-49020000D03*
X80560000Y-49020000D03*
X79760000Y-49020000D03*
X78960000Y-49020000D03*
X78160000Y-49020000D03*
X77360000Y-49020000D03*
X76560000Y-49020000D03*
X75760000Y-49020000D03*
X74960000Y-49020000D03*
X74160000Y-49020000D03*
D23*
X72160000Y-51020000D03*
X72160000Y-51820000D03*
X72160000Y-52620000D03*
X72160000Y-53420000D03*
X72160000Y-54220000D03*
X72160000Y-55020000D03*
X72160000Y-55820000D03*
X72160000Y-56620000D03*
X72160000Y-57420000D03*
X72160000Y-58220000D03*
X72160000Y-59020000D03*
D18*
X59320000Y-57980000D03*
X59320000Y-60480000D03*
D19*
X53510000Y-64130000D03*
X56010000Y-64130000D03*
D10*
G36*
X56390000Y-60318500D02*
X55790000Y-61168500D01*
X54790000Y-61168500D01*
X54190000Y-60318500D01*
X56390000Y-60318500D01*
X56390000Y-60318500D01*
G37*
D24*
X56790000Y-56596500D03*
D25*
X55290000Y-56743000D03*
D24*
X53790000Y-56596500D03*
D26*
X55290000Y-59410000D03*
D10*
G36*
X54190000Y-58500300D02*
X54890000Y-57500300D01*
X55690000Y-57500300D01*
X56390000Y-58500300D01*
X54190000Y-58500300D01*
X54190000Y-58500300D01*
G37*
D27*
X55380000Y-38650000D03*
D28*
X55380000Y-36110000D03*
X57920000Y-38650000D03*
X57920000Y-36110000D03*
X60460000Y-38650000D03*
X60460000Y-36110000D03*
X63000000Y-38650000D03*
X63000000Y-36110000D03*
X65540000Y-38650000D03*
X65540000Y-36110000D03*
X68080000Y-38650000D03*
X68080000Y-36110000D03*
X70620000Y-38650000D03*
X70620000Y-36110000D03*
X73160000Y-38650000D03*
X73160000Y-36110000D03*
X75700000Y-38650000D03*
X75700000Y-36110000D03*
X78240000Y-38650000D03*
X78240000Y-36110000D03*
X80780000Y-38650000D03*
X80780000Y-36110000D03*
X83320000Y-38650000D03*
X83320000Y-36110000D03*
X85860000Y-38650000D03*
X85860000Y-36110000D03*
X88400000Y-38650000D03*
X88400000Y-36110000D03*
X90940000Y-38650000D03*
X90940000Y-36110000D03*
X93480000Y-38650000D03*
X93480000Y-36110000D03*
X96020000Y-38650000D03*
X96020000Y-36110000D03*
D29*
X69830000Y-69200000D03*
D30*
X69830000Y-84440000D03*
D29*
X72370000Y-69200000D03*
X72370000Y-84440000D03*
X74910000Y-69200000D03*
X74910000Y-84440000D03*
X77450000Y-69200000D03*
X77450000Y-84440000D03*
X79990000Y-69200000D03*
X79990000Y-84440000D03*
X82530000Y-69200000D03*
X82530000Y-84440000D03*
X85070000Y-69200000D03*
X85070000Y-84440000D03*
X87610000Y-69200000D03*
X87610000Y-84440000D03*
X90150000Y-69200000D03*
X90150000Y-84440000D03*
X92690000Y-69200000D03*
X92690000Y-84440000D03*
X95230000Y-69200000D03*
X95230000Y-84440000D03*
X97770000Y-69200000D03*
X97770000Y-84440000D03*
D20*
X54580000Y-46640000D03*
D21*
X54580000Y-49180000D03*
X54580000Y-51720000D03*
D20*
X67420000Y-65200000D03*
D21*
X69960000Y-65200000D03*
X72500000Y-65200000D03*
D31*
X83870000Y-76900000D03*
X86180000Y-76820000D03*
X84570000Y-47900000D03*
X74010000Y-52880000D03*
X98240000Y-36140000D03*
X62830000Y-85740000D03*
X96720000Y-86500000D03*
D20*
X57670000Y-71210000D03*
D21*
X57670000Y-68670000D03*
X60210000Y-71210000D03*
X60210000Y-68670000D03*
X62750000Y-71210000D03*
X62750000Y-68670000D03*
D32*
X74510000Y-51320000D03*
X61220000Y-73600000D03*
X88240000Y-52440000D03*
X57970000Y-63570000D03*
X82980000Y-44250000D03*
X82200000Y-55000000D03*
X76570000Y-58980000D03*
D31*
X84150000Y-61550000D03*
X83260002Y-49460000D03*
X87610000Y-62540000D03*
X85820000Y-63200000D03*
X82660000Y-64030000D03*
X59180000Y-42130000D03*
X68390000Y-59680000D03*
X70540000Y-57450000D03*
X66510000Y-59590000D03*
X68969666Y-56899443D03*
X66870000Y-56010000D03*
X64680000Y-59180000D03*
D33*
X60210000Y-71210000D02*
X60210000Y-72412081D01*
X60210000Y-72412081D02*
X59000000Y-73622081D01*
X59000000Y-73622081D02*
X59000000Y-74022000D01*
X59000000Y-74022000D02*
X59000000Y-75405000D01*
X54580000Y-49180000D02*
X54450000Y-49180000D01*
X54450000Y-49180000D02*
X53000000Y-50630000D01*
X53000000Y-50630000D02*
X53000000Y-54890000D01*
X53000000Y-54890000D02*
X53790000Y-55680000D01*
X53790000Y-55680000D02*
X53790000Y-56596500D01*
D34*
X97210000Y-53740000D02*
X96055199Y-52585199D01*
X93921358Y-49700000D02*
X91630000Y-51991358D01*
X91630000Y-58730000D02*
X89980000Y-60380000D01*
X96055199Y-52585199D02*
X96055199Y-49955199D01*
X96055199Y-49955199D02*
X95800000Y-49700000D01*
X82690000Y-57240000D02*
X82690000Y-56620000D01*
X95800000Y-49700000D02*
X93921358Y-49700000D01*
X89980000Y-60380000D02*
X83490000Y-60380000D01*
X83490000Y-60380000D02*
X82690000Y-59580000D01*
X91630000Y-51991358D02*
X91630000Y-58730000D01*
X82690000Y-59580000D02*
X82690000Y-57240000D01*
D33*
X84160000Y-56620000D02*
X87280000Y-56620000D01*
X87280000Y-56620000D02*
X87510000Y-56850000D01*
X81750000Y-56620000D02*
X82690000Y-56620000D01*
X82690000Y-56620000D02*
X84160000Y-56620000D01*
D35*
X79800000Y-51320000D02*
X80600000Y-52120000D01*
X80600000Y-52120000D02*
X80600000Y-55230000D01*
X80600000Y-55230000D02*
X81730000Y-56360000D01*
X74510000Y-51320000D02*
X79800000Y-51320000D01*
D33*
X79760000Y-49020000D02*
X79760000Y-51380000D01*
X81730000Y-56600000D02*
X81750000Y-56620000D01*
X72160000Y-51820000D02*
X74010000Y-51820000D01*
X74010000Y-51820000D02*
X74510000Y-51320000D01*
D36*
X80170000Y-45970000D02*
X80170000Y-46772800D01*
X80170000Y-46772800D02*
X79760000Y-47182800D01*
X79760000Y-47182800D02*
X79760000Y-47842200D01*
X79760000Y-47842200D02*
X79760000Y-49020000D01*
D33*
X53510000Y-64130000D02*
X53350000Y-64290000D01*
X53350000Y-64290000D02*
X53350000Y-72240000D01*
X53350000Y-72240000D02*
X54690000Y-73580000D01*
X54690000Y-73580000D02*
X54690000Y-76690000D01*
X54690000Y-76690000D02*
X55030000Y-77030000D01*
X55030000Y-77030000D02*
X58520000Y-77030000D01*
X58520000Y-77030000D02*
X59000000Y-76550000D01*
X59000000Y-76550000D02*
X59000000Y-75405000D01*
X53790000Y-56596500D02*
X53790000Y-57810000D01*
X53350000Y-58250000D02*
X53350000Y-63970000D01*
X53790000Y-57810000D02*
X53350000Y-58250000D01*
X53350000Y-63970000D02*
X53510000Y-64130000D01*
D36*
X62750000Y-71210000D02*
X62750000Y-72410000D01*
X62750000Y-72410000D02*
X61560000Y-73600000D01*
X61560000Y-73600000D02*
X61220000Y-73600000D01*
X61200000Y-73620000D02*
X61220000Y-73600000D01*
X61200000Y-75405000D02*
X61200000Y-73620000D01*
X87510000Y-54350000D02*
X87510000Y-53170000D01*
X87510000Y-53170000D02*
X88240000Y-52440000D01*
X56010000Y-64130000D02*
X57410000Y-64130000D01*
X57410000Y-64130000D02*
X57970000Y-63570000D01*
X82670000Y-45970000D02*
X82670000Y-44560000D01*
X82670000Y-44560000D02*
X82980000Y-44250000D01*
X72370000Y-69200000D02*
X72370000Y-74150000D01*
X70620000Y-38650000D02*
X70620000Y-43190000D01*
X68080000Y-38650000D02*
X68080000Y-43020000D01*
X65540000Y-38650000D02*
X65540000Y-42760000D01*
X63000000Y-38650000D02*
X63000000Y-42860000D01*
D33*
X56790000Y-56596500D02*
X57936500Y-56596500D01*
X57936500Y-56596500D02*
X59320000Y-57980000D01*
X84160000Y-55020000D02*
X86840000Y-55020000D01*
X86840000Y-55020000D02*
X87510000Y-54350000D01*
D34*
X84160000Y-55020000D02*
X82220000Y-55020000D01*
X82220000Y-55020000D02*
X82200000Y-55000000D01*
X76560000Y-61020000D02*
X76560000Y-58990000D01*
X76560000Y-58990000D02*
X76570000Y-58980000D01*
D33*
X82150000Y-51837242D02*
X82150000Y-54518000D01*
X82150000Y-54518000D02*
X82652000Y-55020000D01*
X82652000Y-55020000D02*
X84160000Y-55020000D01*
X80560000Y-49020000D02*
X80560000Y-50247242D01*
X80560000Y-50247242D02*
X82150000Y-51837242D01*
D36*
X80560000Y-49020000D02*
X80560000Y-47842200D01*
X80560000Y-47842200D02*
X82432200Y-45970000D01*
X82432200Y-45970000D02*
X82670000Y-45970000D01*
X57920000Y-39727630D02*
X57920000Y-42010000D01*
X57920000Y-38650000D02*
X57920000Y-39727630D01*
X94670000Y-51200000D02*
X93642200Y-51200000D01*
X93642200Y-51200000D02*
X92120000Y-52722200D01*
X92120000Y-52722200D02*
X92120000Y-58920000D01*
X92120000Y-58920000D02*
X89490000Y-61550000D01*
X84724736Y-61550000D02*
X84150000Y-61550000D01*
X89490000Y-61550000D02*
X84724736Y-61550000D01*
X83743601Y-61143601D02*
X84150000Y-61550000D01*
X82160000Y-61020000D02*
X83620000Y-61020000D01*
X83620000Y-61020000D02*
X83743601Y-61143601D01*
X87610000Y-62540000D02*
X89590000Y-62540000D01*
X89590000Y-62540000D02*
X92830000Y-59300000D01*
X92830000Y-59300000D02*
X92830000Y-55580000D01*
X92830000Y-55580000D02*
X93820001Y-54589999D01*
X93820001Y-54589999D02*
X94670000Y-53740000D01*
X83260002Y-50034736D02*
X83260002Y-49460000D01*
X83008037Y-50286701D02*
X83260002Y-50034736D01*
X81360000Y-50197800D02*
X81448901Y-50286701D01*
X81360000Y-49020000D02*
X81360000Y-50197800D01*
X81448901Y-50286701D02*
X83008037Y-50286701D01*
X87830000Y-68362765D02*
X87830000Y-69620000D01*
X81360000Y-61020000D02*
X81360000Y-62070000D01*
X81360000Y-62070000D02*
X82490000Y-63200000D01*
X82490000Y-63200000D02*
X85245264Y-63200000D01*
X85245264Y-63200000D02*
X85820000Y-63200000D01*
X94670000Y-56280000D02*
X93370000Y-57580000D01*
X93370000Y-57580000D02*
X93370000Y-59870000D01*
X93370000Y-59870000D02*
X89850000Y-63390000D01*
X89850000Y-63390000D02*
X86010000Y-63390000D01*
X86010000Y-63390000D02*
X85820000Y-63200000D01*
X80560000Y-62197800D02*
X82392200Y-64030000D01*
X80560000Y-61020000D02*
X80560000Y-62197800D01*
X82392200Y-64030000D02*
X82660000Y-64030000D01*
X83234736Y-64030000D02*
X82660000Y-64030000D01*
X92000000Y-64030000D02*
X83234736Y-64030000D01*
X94670000Y-61360000D02*
X92000000Y-64030000D01*
D33*
X55290000Y-59410000D02*
X55290000Y-60743500D01*
X55290000Y-58000300D02*
X55290000Y-59410000D01*
X55290000Y-56743000D02*
X55290000Y-58000300D01*
X55290000Y-59410000D02*
X56890000Y-59410000D01*
X56890000Y-59410000D02*
X57960000Y-60480000D01*
X57960000Y-60480000D02*
X59320000Y-60480000D01*
X54580000Y-51720000D02*
X54580000Y-52922081D01*
X55290000Y-55335000D02*
X55290000Y-56743000D01*
X54580000Y-52922081D02*
X55290000Y-53632081D01*
X55290000Y-53632081D02*
X55290000Y-55335000D01*
X54580000Y-51720000D02*
X54580000Y-51790000D01*
D36*
X59180000Y-42130000D02*
X59180000Y-47490000D01*
X59180000Y-47490000D02*
X66710000Y-55020000D01*
X66710000Y-55020000D02*
X72160000Y-55020000D01*
X72160000Y-58220000D02*
X66440000Y-58220000D01*
X66440000Y-58220000D02*
X56730000Y-48510000D01*
X56730000Y-48510000D02*
X56730000Y-37300000D01*
X56730000Y-37300000D02*
X57158001Y-36871999D01*
X57158001Y-36871999D02*
X57920000Y-36110000D01*
X72160000Y-54220000D02*
X68680000Y-54220000D01*
X61488701Y-47028701D02*
X61488701Y-37138701D01*
X68680000Y-54220000D02*
X61488701Y-47028701D01*
X61488701Y-37138701D02*
X61221999Y-36871999D01*
X61221999Y-36871999D02*
X60460000Y-36110000D01*
X63000000Y-36110000D02*
X64260000Y-37370000D01*
X64260000Y-37370000D02*
X64260000Y-47750000D01*
X69930000Y-53420000D02*
X72160000Y-53420000D01*
X64260000Y-47750000D02*
X69930000Y-53420000D01*
X72160000Y-52620000D02*
X70982200Y-52620000D01*
X66301999Y-36871999D02*
X65540000Y-36110000D01*
X70982200Y-52620000D02*
X66770000Y-48407800D01*
X66770000Y-48407800D02*
X66770000Y-37340000D01*
X66770000Y-37340000D02*
X66301999Y-36871999D01*
X68080000Y-36110000D02*
X69300000Y-37330000D01*
X69300000Y-37330000D02*
X69300000Y-47732200D01*
X69300000Y-47732200D02*
X72160000Y-50592200D01*
X72160000Y-50592200D02*
X72160000Y-51020000D01*
X74160000Y-49020000D02*
X73732200Y-49020000D01*
X73732200Y-49020000D02*
X71890000Y-47177800D01*
X71890000Y-47177800D02*
X71890000Y-37380000D01*
X71890000Y-37380000D02*
X71381999Y-36871999D01*
X71381999Y-36871999D02*
X70620000Y-36110000D01*
X75700000Y-36110000D02*
X76920000Y-37330000D01*
X76920000Y-37330000D02*
X76920000Y-39690000D01*
X76920000Y-39690000D02*
X74960000Y-41650000D01*
X74960000Y-41650000D02*
X74960000Y-47842200D01*
X74960000Y-47842200D02*
X74960000Y-49020000D01*
X75760000Y-49020000D02*
X75760000Y-42670000D01*
X75760000Y-42670000D02*
X78240000Y-40190000D01*
X78240000Y-40190000D02*
X78240000Y-39727630D01*
X78240000Y-39727630D02*
X78240000Y-38650000D01*
X78240000Y-36110000D02*
X79410000Y-37280000D01*
X79410000Y-37280000D02*
X79410000Y-40330000D01*
X79410000Y-40330000D02*
X76560000Y-43180000D01*
X76560000Y-43180000D02*
X76560000Y-47842200D01*
X76560000Y-47842200D02*
X76560000Y-49020000D01*
X80780000Y-38650000D02*
X80780000Y-40440000D01*
X80780000Y-40440000D02*
X77360000Y-43860000D01*
X77360000Y-43860000D02*
X77360000Y-47842200D01*
X77360000Y-47842200D02*
X77360000Y-49020000D01*
X80780000Y-36110000D02*
X81940000Y-37270000D01*
X81940000Y-40700000D02*
X78160000Y-44480000D01*
X81940000Y-37270000D02*
X81940000Y-40700000D01*
X78160000Y-47842200D02*
X78160000Y-49020000D01*
X78160000Y-44480000D02*
X78160000Y-47842200D01*
X83320000Y-38650000D02*
X83350000Y-38680000D01*
X83350000Y-38680000D02*
X83350000Y-40640000D01*
X83350000Y-40640000D02*
X78960000Y-45030000D01*
X78960000Y-47842200D02*
X78960000Y-49020000D01*
X78960000Y-45030000D02*
X78960000Y-47842200D01*
X83320000Y-36110000D02*
X84550000Y-37340000D01*
X84550000Y-37340000D02*
X84550000Y-46560000D01*
X84550000Y-46560000D02*
X82160000Y-48950000D01*
X82160000Y-48950000D02*
X82160000Y-49020000D01*
X84160000Y-51020000D02*
X84160000Y-49340000D01*
X84160000Y-49340000D02*
X85860000Y-47640000D01*
X85860000Y-47640000D02*
X85860000Y-39727630D01*
X85860000Y-39727630D02*
X85860000Y-38650000D01*
X85700000Y-51390000D02*
X85270000Y-51820000D01*
X88400000Y-38650000D02*
X88400000Y-46620000D01*
X85700000Y-51390000D02*
X85700000Y-49320000D01*
X85700000Y-49320000D02*
X88400000Y-46620000D01*
X85270000Y-51820000D02*
X84160000Y-51820000D01*
X84160000Y-52620000D02*
X85337800Y-52620000D01*
X85337800Y-52620000D02*
X86187800Y-51770000D01*
X86187800Y-51770000D02*
X86187800Y-49932200D01*
X86187800Y-49932200D02*
X89650000Y-46470000D01*
X89650000Y-46470000D02*
X89650000Y-37360000D01*
X89650000Y-37360000D02*
X89161999Y-36871999D01*
X89161999Y-36871999D02*
X88400000Y-36110000D01*
X86937800Y-51820000D02*
X85337800Y-53420000D01*
X90930000Y-38660000D02*
X90930000Y-46270000D01*
X86937800Y-51820000D02*
X86937800Y-50262200D01*
X86937800Y-50262200D02*
X90930000Y-46270000D01*
X90940000Y-38650000D02*
X90930000Y-38660000D01*
X85337800Y-53420000D02*
X84160000Y-53420000D01*
X85182029Y-54220000D02*
X87770000Y-51632029D01*
X92150000Y-46150000D02*
X92150000Y-37320000D01*
X87770000Y-51632029D02*
X87770000Y-50530000D01*
X87770000Y-50530000D02*
X92150000Y-46150000D01*
X92150000Y-37320000D02*
X91701999Y-36871999D01*
X84160000Y-54220000D02*
X85182029Y-54220000D01*
X91701999Y-36871999D02*
X90940000Y-36110000D01*
X84160000Y-55820000D02*
X85800000Y-55820000D01*
X85800000Y-55820000D02*
X86040000Y-55580000D01*
X86040000Y-55580000D02*
X88660000Y-55580000D01*
X88660000Y-55580000D02*
X89040000Y-55200000D01*
X89040000Y-55200000D02*
X89040000Y-51410000D01*
X89040000Y-51410000D02*
X93480000Y-46970000D01*
X93480000Y-46970000D02*
X93480000Y-38650000D01*
X84160000Y-57420000D02*
X85550000Y-57420000D01*
X85550000Y-57420000D02*
X86450000Y-58320000D01*
X86450000Y-58320000D02*
X88950000Y-58320000D01*
X88950000Y-58320000D02*
X89780000Y-57490000D01*
X89780000Y-51560000D02*
X94680000Y-46660000D01*
X89780000Y-57490000D02*
X89780000Y-51560000D01*
X94680000Y-46660000D02*
X94680000Y-37310000D01*
X94680000Y-37310000D02*
X94241999Y-36871999D01*
X94241999Y-36871999D02*
X93480000Y-36110000D01*
X84160000Y-58220000D02*
X85337800Y-58220000D01*
X85337800Y-58220000D02*
X86177800Y-59060000D01*
X86177800Y-59060000D02*
X89490000Y-59060000D01*
X89490000Y-59060000D02*
X90500000Y-58050000D01*
X90500000Y-58050000D02*
X90500000Y-51680000D01*
X90500000Y-51680000D02*
X96020000Y-46160000D01*
X96020000Y-46160000D02*
X96020000Y-39727630D01*
X96020000Y-39727630D02*
X96020000Y-38650000D01*
X84160000Y-59020000D02*
X85337800Y-59020000D01*
X85337800Y-59020000D02*
X86037800Y-59720000D01*
X86037800Y-59720000D02*
X89970000Y-59720000D01*
X91170000Y-51894567D02*
X97290000Y-45774567D01*
X89970000Y-59720000D02*
X91170000Y-58520000D01*
X91170000Y-58520000D02*
X91170000Y-51894567D01*
X97290000Y-45774567D02*
X97290000Y-37380000D01*
X97290000Y-37380000D02*
X96781999Y-36871999D01*
X96781999Y-36871999D02*
X96020000Y-36110000D01*
X62750000Y-68670000D02*
X64150000Y-70070000D01*
X64150000Y-70070000D02*
X64150000Y-72502200D01*
X64150000Y-72502200D02*
X62300000Y-74352200D01*
X62300000Y-74352200D02*
X62300000Y-75405000D01*
X72160000Y-59020000D02*
X71020000Y-59020000D01*
X71020000Y-59020000D02*
X62790000Y-67250000D01*
X62790000Y-67250000D02*
X62790000Y-68630000D01*
X62790000Y-68630000D02*
X62750000Y-68670000D01*
X60210000Y-68670000D02*
X61450000Y-69910000D01*
X61450000Y-69910000D02*
X61450000Y-72000000D01*
X61450000Y-72000000D02*
X60100000Y-73350000D01*
X60100000Y-73350000D02*
X60100000Y-75405000D01*
X68390000Y-59680000D02*
X60210000Y-67860000D01*
X60210000Y-67860000D02*
X60210000Y-68670000D01*
X70570000Y-57420000D02*
X70540000Y-57450000D01*
X72160000Y-57420000D02*
X70570000Y-57420000D01*
X57670000Y-68670000D02*
X58970000Y-69970000D01*
X58970000Y-69970000D02*
X58970000Y-72390000D01*
X58970000Y-72390000D02*
X57900000Y-73460000D01*
X57900000Y-73460000D02*
X57900000Y-75405000D01*
X66510000Y-59590000D02*
X57670000Y-68430000D01*
X57670000Y-68430000D02*
X57670000Y-68670000D01*
X72160000Y-56620000D02*
X69249109Y-56620000D01*
X69249109Y-56620000D02*
X68969666Y-56899443D01*
X57670000Y-71210000D02*
X57670000Y-72237800D01*
X57670000Y-72237800D02*
X56800000Y-73107800D01*
X56800000Y-73107800D02*
X56800000Y-74352200D01*
X56800000Y-74352200D02*
X56800000Y-75405000D01*
X57770000Y-66090000D02*
X55840000Y-68020000D01*
X55840000Y-68020000D02*
X55840000Y-70407800D01*
X55840000Y-70407800D02*
X56642200Y-71210000D01*
X56642200Y-71210000D02*
X57670000Y-71210000D01*
X57770000Y-66090000D02*
X64273601Y-59586399D01*
X64273601Y-59586399D02*
X64680000Y-59180000D01*
X67060000Y-55820000D02*
X66870000Y-56010000D01*
X72160000Y-55820000D02*
X67060000Y-55820000D01*
X78960000Y-61020000D02*
X78960000Y-62680000D01*
X78960000Y-62680000D02*
X82310000Y-66030000D01*
X82310000Y-66030000D02*
X92060000Y-66030000D01*
X92060000Y-66030000D02*
X95230000Y-69200000D01*
X77360000Y-61020000D02*
X77360000Y-63300000D01*
X77360000Y-63300000D02*
X81590000Y-67530000D01*
X81590000Y-67530000D02*
X88480000Y-67530000D01*
X88480000Y-67530000D02*
X90150000Y-69200000D01*
X92690000Y-69200000D02*
X90250000Y-66760000D01*
X90250000Y-66760000D02*
X81980000Y-66760000D01*
X81980000Y-66760000D02*
X78160000Y-62940000D01*
X78160000Y-62940000D02*
X78160000Y-61020000D01*
X69960000Y-65200000D02*
X71090000Y-66330000D01*
X71090000Y-66330000D02*
X71090000Y-82113200D01*
X71090000Y-82113200D02*
X69830000Y-83373200D01*
X69830000Y-83373200D02*
X69830000Y-84440000D01*
X72370000Y-84440000D02*
X73600000Y-83210000D01*
X73600000Y-83210000D02*
X73600000Y-66300000D01*
X73600000Y-66300000D02*
X73349999Y-66049999D01*
X73349999Y-66049999D02*
X72500000Y-65200000D01*
X74160000Y-61020000D02*
X74160000Y-63230000D01*
X76190000Y-65260000D02*
X76190000Y-70480000D01*
X74160000Y-63230000D02*
X76190000Y-65260000D01*
X76190000Y-70480000D02*
X89261001Y-83551001D01*
X89261001Y-83551001D02*
X90150000Y-84440000D01*
X74960000Y-61020000D02*
X74960000Y-63030000D01*
X74960000Y-63030000D02*
X78700000Y-66770000D01*
X78700000Y-66770000D02*
X78700000Y-70540000D01*
X78700000Y-70540000D02*
X86300000Y-78140000D01*
X86300000Y-78140000D02*
X88930000Y-78140000D01*
X88930000Y-78140000D02*
X94341001Y-83551001D01*
X94341001Y-83551001D02*
X95230000Y-84440000D01*
X97770000Y-69200000D02*
X93920000Y-65350000D01*
X93920000Y-65350000D02*
X82680000Y-65350000D01*
X79760000Y-62197800D02*
X79760000Y-61020000D01*
X82680000Y-65350000D02*
X79760000Y-62430000D01*
X79760000Y-62430000D02*
X79760000Y-62197800D01*
X97770000Y-84440000D02*
X89740000Y-76410000D01*
X89740000Y-76410000D02*
X87060000Y-76410000D01*
X87060000Y-76410000D02*
X81240000Y-70590000D01*
X81240000Y-68290000D02*
X75760000Y-62810000D01*
X81240000Y-70590000D02*
X81240000Y-68290000D01*
X75760000Y-62810000D02*
X75760000Y-61020000D01*
D34*
G36*
X85059392Y-35129787D02*
X85860000Y-35930395D01*
X86660608Y-35129787D01*
X86613629Y-34966000D01*
X98641118Y-34966000D01*
X99374000Y-35698881D01*
X99374000Y-86661119D01*
X98641118Y-87394000D01*
X52758881Y-87394000D01*
X52716420Y-87351539D01*
X52800000Y-87368464D01*
X53800000Y-87368464D01*
X53941190Y-87341897D01*
X54070865Y-87258454D01*
X54157859Y-87131134D01*
X54188464Y-86980000D01*
X54188464Y-85430000D01*
X54161897Y-85288810D01*
X54078454Y-85159135D01*
X53951134Y-85072141D01*
X53800000Y-85041536D01*
X52800000Y-85041536D01*
X52658810Y-85068103D01*
X52529135Y-85151546D01*
X52442141Y-85278866D01*
X52411536Y-85430000D01*
X52411536Y-86980000D01*
X52426985Y-87062104D01*
X52026000Y-86661118D01*
X52026000Y-83080000D01*
X52111536Y-83080000D01*
X52111536Y-84480000D01*
X52138103Y-84621190D01*
X52221546Y-84750865D01*
X52348866Y-84837859D01*
X52500000Y-84868464D01*
X53300000Y-84868464D01*
X53441190Y-84841897D01*
X53570865Y-84758454D01*
X53657859Y-84631134D01*
X53688464Y-84480000D01*
X53688464Y-83080000D01*
X53661897Y-82938810D01*
X53578454Y-82809135D01*
X53451134Y-82722141D01*
X53300000Y-82691536D01*
X52500000Y-82691536D01*
X52358810Y-82718103D01*
X52229135Y-82801546D01*
X52142141Y-82928866D01*
X52111536Y-83080000D01*
X52026000Y-83080000D01*
X52026000Y-79500000D01*
X54373000Y-79500000D01*
X54373000Y-82500000D01*
X54381685Y-82546159D01*
X54408965Y-82588553D01*
X54450590Y-82616994D01*
X54500000Y-82627000D01*
X56947394Y-82627000D01*
X57373000Y-83052606D01*
X57373000Y-86500000D01*
X57381685Y-86546159D01*
X57408965Y-86588553D01*
X57450590Y-86616994D01*
X57500000Y-86627000D01*
X60000000Y-86627000D01*
X60046159Y-86618315D01*
X60088553Y-86591035D01*
X60116994Y-86549410D01*
X60127000Y-86500000D01*
X60127000Y-83052606D01*
X60552606Y-82627000D01*
X64000000Y-82627000D01*
X64046159Y-82618315D01*
X64061536Y-82608420D01*
X64061536Y-83741536D01*
X63800000Y-83741536D01*
X63658810Y-83768103D01*
X63529135Y-83851546D01*
X63442141Y-83978866D01*
X63411536Y-84130000D01*
X63411536Y-85130000D01*
X63438103Y-85271190D01*
X63521546Y-85400865D01*
X63648866Y-85487859D01*
X63800000Y-85518464D01*
X65250000Y-85518464D01*
X65391190Y-85491897D01*
X65520865Y-85408454D01*
X65607859Y-85281134D01*
X65638464Y-85130000D01*
X65638464Y-84130000D01*
X65614080Y-84000412D01*
X65638464Y-83880000D01*
X65638464Y-82380000D01*
X65611897Y-82238810D01*
X65528454Y-82109135D01*
X65401134Y-82022141D01*
X65250000Y-81991536D01*
X65127000Y-81991536D01*
X65127000Y-79500000D01*
X65118315Y-79453841D01*
X65091035Y-79411447D01*
X65049410Y-79383006D01*
X65000000Y-79373000D01*
X54500000Y-79373000D01*
X54453841Y-79381685D01*
X54411447Y-79408965D01*
X54383006Y-79450590D01*
X54373000Y-79500000D01*
X52026000Y-79500000D01*
X52026000Y-74780000D01*
X52111536Y-74780000D01*
X52111536Y-76280000D01*
X52138103Y-76421190D01*
X52221546Y-76550865D01*
X52348866Y-76637859D01*
X52500000Y-76668464D01*
X54000000Y-76668464D01*
X54055000Y-76658115D01*
X54055000Y-76690000D01*
X54103336Y-76933004D01*
X54240987Y-77139013D01*
X54580987Y-77479013D01*
X54786996Y-77616664D01*
X55030000Y-77665001D01*
X55030005Y-77665000D01*
X58520000Y-77665000D01*
X58763004Y-77616664D01*
X58969013Y-77479013D01*
X59449010Y-76999015D01*
X59449013Y-76999013D01*
X59586664Y-76793004D01*
X59607153Y-76690000D01*
X59616802Y-76641491D01*
X59750000Y-76668464D01*
X60340438Y-76668464D01*
X60490302Y-76818327D01*
X60723691Y-76915000D01*
X60914250Y-76915000D01*
X61073000Y-76756250D01*
X61073000Y-75532000D01*
X61053000Y-75532000D01*
X61053000Y-75278000D01*
X61073000Y-75278000D01*
X61073000Y-74053750D01*
X60914250Y-73895000D01*
X60723691Y-73895000D01*
X60569900Y-73958702D01*
X60569900Y-73544638D01*
X61782269Y-72332270D01*
X61796234Y-72311370D01*
X61983076Y-72481645D01*
X62393110Y-72651476D01*
X62623000Y-72530155D01*
X62623000Y-71337000D01*
X62603000Y-71337000D01*
X62603000Y-71083000D01*
X62623000Y-71083000D01*
X62623000Y-71063000D01*
X62877000Y-71063000D01*
X62877000Y-71083000D01*
X62897000Y-71083000D01*
X62897000Y-71337000D01*
X62877000Y-71337000D01*
X62877000Y-72530155D01*
X63106890Y-72651476D01*
X63498304Y-72489357D01*
X61967731Y-74019931D01*
X61955805Y-74037780D01*
X61909698Y-73991673D01*
X61676309Y-73895000D01*
X61485750Y-73895000D01*
X61327000Y-74053750D01*
X61327000Y-75278000D01*
X61347000Y-75278000D01*
X61347000Y-75532000D01*
X61327000Y-75532000D01*
X61327000Y-76756250D01*
X61485750Y-76915000D01*
X61676309Y-76915000D01*
X61909698Y-76818327D01*
X62059562Y-76668464D01*
X62650000Y-76668464D01*
X62791190Y-76641897D01*
X62849686Y-76604256D01*
X62898866Y-76637859D01*
X63050000Y-76668464D01*
X63750000Y-76668464D01*
X63853670Y-76648957D01*
X63950000Y-76668464D01*
X65250000Y-76668464D01*
X65391190Y-76641897D01*
X65520865Y-76558454D01*
X65607859Y-76431134D01*
X65638464Y-76280000D01*
X65638464Y-74780000D01*
X65611897Y-74638810D01*
X65528454Y-74509135D01*
X65401134Y-74422141D01*
X65250000Y-74391536D01*
X64112410Y-74391536D01*
X64111897Y-74388810D01*
X64028454Y-74259135D01*
X63901134Y-74172141D01*
X63750000Y-74141536D01*
X63175202Y-74141536D01*
X64482269Y-72834470D01*
X64584131Y-72682023D01*
X64590207Y-72651476D01*
X64619900Y-72502200D01*
X64619900Y-70070000D01*
X64584131Y-69890177D01*
X64482269Y-69737731D01*
X63891019Y-69146481D01*
X63981000Y-68694117D01*
X63981000Y-68645883D01*
X63887296Y-68174800D01*
X63620448Y-67775435D01*
X63259900Y-67534524D01*
X63259900Y-67444638D01*
X65218788Y-65485750D01*
X65935000Y-65485750D01*
X65935000Y-66176309D01*
X66031673Y-66409698D01*
X66210301Y-66588327D01*
X66443690Y-66685000D01*
X67134250Y-66685000D01*
X67293000Y-66526250D01*
X67293000Y-65327000D01*
X66093750Y-65327000D01*
X65935000Y-65485750D01*
X65218788Y-65485750D01*
X65935000Y-64769538D01*
X65935000Y-64914250D01*
X66093750Y-65073000D01*
X67293000Y-65073000D01*
X67293000Y-63873750D01*
X67134250Y-63715000D01*
X66989538Y-63715000D01*
X71065260Y-59639279D01*
X71160000Y-59658464D01*
X73160000Y-59658464D01*
X73301190Y-59631897D01*
X73430865Y-59548454D01*
X73517859Y-59421134D01*
X73548464Y-59270000D01*
X73548464Y-58770000D01*
X73521897Y-58628810D01*
X73517395Y-58621813D01*
X73517859Y-58621134D01*
X73548464Y-58470000D01*
X73548464Y-57970000D01*
X73521897Y-57828810D01*
X73517395Y-57821813D01*
X73517859Y-57821134D01*
X73548464Y-57670000D01*
X73548464Y-57170000D01*
X73521897Y-57028810D01*
X73517395Y-57021813D01*
X73517859Y-57021134D01*
X73548464Y-56870000D01*
X73548464Y-56370000D01*
X73521897Y-56228810D01*
X73517395Y-56221813D01*
X73517859Y-56221134D01*
X73548464Y-56070000D01*
X73548464Y-55570000D01*
X73521897Y-55428810D01*
X73517395Y-55421813D01*
X73517859Y-55421134D01*
X73548464Y-55270000D01*
X73548464Y-54770000D01*
X73521897Y-54628810D01*
X73517395Y-54621813D01*
X73517859Y-54621134D01*
X73548464Y-54470000D01*
X73548464Y-53970000D01*
X73521897Y-53828810D01*
X73517395Y-53821813D01*
X73517859Y-53821134D01*
X73548464Y-53670000D01*
X73548464Y-53170000D01*
X73521897Y-53028810D01*
X73517395Y-53021813D01*
X73517859Y-53021134D01*
X73548464Y-52870000D01*
X73548464Y-52455000D01*
X74010000Y-52455000D01*
X74253004Y-52406664D01*
X74459013Y-52269013D01*
X74519017Y-52209009D01*
X74686057Y-52209154D01*
X74686430Y-52209000D01*
X79431764Y-52209000D01*
X79711000Y-52488236D01*
X79711000Y-55230000D01*
X79778671Y-55570206D01*
X79937779Y-55808327D01*
X79971382Y-55858618D01*
X81101382Y-56988618D01*
X81389794Y-57181329D01*
X81502685Y-57203784D01*
X81506995Y-57206664D01*
X81750000Y-57255000D01*
X82182000Y-57255000D01*
X82182000Y-59580000D01*
X82192251Y-59631536D01*
X81910000Y-59631536D01*
X81768810Y-59658103D01*
X81761813Y-59662605D01*
X81761134Y-59662141D01*
X81610000Y-59631536D01*
X81110000Y-59631536D01*
X80968810Y-59658103D01*
X80961813Y-59662605D01*
X80961134Y-59662141D01*
X80810000Y-59631536D01*
X80310000Y-59631536D01*
X80168810Y-59658103D01*
X80161813Y-59662605D01*
X80161134Y-59662141D01*
X80010000Y-59631536D01*
X79510000Y-59631536D01*
X79368810Y-59658103D01*
X79361813Y-59662605D01*
X79361134Y-59662141D01*
X79210000Y-59631536D01*
X78710000Y-59631536D01*
X78568810Y-59658103D01*
X78561813Y-59662605D01*
X78561134Y-59662141D01*
X78410000Y-59631536D01*
X77910000Y-59631536D01*
X77768810Y-59658103D01*
X77761813Y-59662605D01*
X77761134Y-59662141D01*
X77610000Y-59631536D01*
X77319561Y-59631536D01*
X77169699Y-59481673D01*
X76936310Y-59385000D01*
X76843750Y-59385000D01*
X76685000Y-59543750D01*
X76685000Y-60893000D01*
X76707000Y-60893000D01*
X76707000Y-61147000D01*
X76685000Y-61147000D01*
X76685000Y-62496250D01*
X76843750Y-62655000D01*
X76890100Y-62655000D01*
X76890100Y-63275562D01*
X76269538Y-62655000D01*
X76276250Y-62655000D01*
X76435000Y-62496250D01*
X76435000Y-61147000D01*
X76413000Y-61147000D01*
X76413000Y-60893000D01*
X76435000Y-60893000D01*
X76435000Y-59543750D01*
X76276250Y-59385000D01*
X76183690Y-59385000D01*
X75950301Y-59481673D01*
X75800439Y-59631536D01*
X75510000Y-59631536D01*
X75368810Y-59658103D01*
X75361813Y-59662605D01*
X75361134Y-59662141D01*
X75210000Y-59631536D01*
X74710000Y-59631536D01*
X74568810Y-59658103D01*
X74561813Y-59662605D01*
X74561134Y-59662141D01*
X74410000Y-59631536D01*
X73910000Y-59631536D01*
X73768810Y-59658103D01*
X73639135Y-59741546D01*
X73552141Y-59868866D01*
X73521536Y-60020000D01*
X73521536Y-62020000D01*
X73548103Y-62161190D01*
X73631546Y-62290865D01*
X73690100Y-62330873D01*
X73690100Y-63230000D01*
X73721926Y-63390000D01*
X73725869Y-63409823D01*
X73827731Y-63562269D01*
X75720100Y-65454639D01*
X75720100Y-68213894D01*
X75630337Y-68123974D01*
X75163727Y-67930221D01*
X74658490Y-67929780D01*
X74191542Y-68122718D01*
X74069900Y-68244148D01*
X74069900Y-66300000D01*
X74034131Y-66120177D01*
X73932270Y-65967731D01*
X73682270Y-65717732D01*
X73682268Y-65717729D01*
X73641020Y-65676481D01*
X73731000Y-65224117D01*
X73731000Y-65175883D01*
X73637296Y-64704800D01*
X73370448Y-64305435D01*
X72971083Y-64038587D01*
X72500000Y-63944883D01*
X72028917Y-64038587D01*
X71629552Y-64305435D01*
X71362704Y-64704800D01*
X71269000Y-65175883D01*
X71269000Y-65224117D01*
X71362704Y-65695200D01*
X71629552Y-66094565D01*
X72028917Y-66361413D01*
X72500000Y-66455117D01*
X72971083Y-66361413D01*
X72986544Y-66351083D01*
X73017729Y-66382268D01*
X73017732Y-66382270D01*
X73130100Y-66494638D01*
X73130100Y-67855139D01*
X72608035Y-67664484D01*
X72002300Y-67690277D01*
X71562467Y-67872461D01*
X71559900Y-67880167D01*
X71559900Y-66330000D01*
X71524131Y-66150177D01*
X71422269Y-65997730D01*
X71101019Y-65676481D01*
X71191000Y-65224117D01*
X71191000Y-65175883D01*
X71097296Y-64704800D01*
X70830448Y-64305435D01*
X70431083Y-64038587D01*
X69960000Y-63944883D01*
X69488917Y-64038587D01*
X69089552Y-64305435D01*
X68905000Y-64581636D01*
X68905000Y-64223691D01*
X68808327Y-63990302D01*
X68629699Y-63811673D01*
X68396310Y-63715000D01*
X67705750Y-63715000D01*
X67547000Y-63873750D01*
X67547000Y-65073000D01*
X67567000Y-65073000D01*
X67567000Y-65327000D01*
X67547000Y-65327000D01*
X67547000Y-66526250D01*
X67705750Y-66685000D01*
X68396310Y-66685000D01*
X68629699Y-66588327D01*
X68808327Y-66409698D01*
X68905000Y-66176309D01*
X68905000Y-65818364D01*
X69089552Y-66094565D01*
X69488917Y-66361413D01*
X69960000Y-66455117D01*
X70431083Y-66361413D01*
X70446544Y-66351082D01*
X70620100Y-66524639D01*
X70620100Y-68193859D01*
X70550337Y-68123974D01*
X70083727Y-67930221D01*
X69578490Y-67929780D01*
X69111542Y-68122718D01*
X68753974Y-68479663D01*
X68560221Y-68946273D01*
X68559780Y-69451510D01*
X68752718Y-69918458D01*
X69109663Y-70276026D01*
X69576273Y-70469779D01*
X70081510Y-70470220D01*
X70548458Y-70277282D01*
X70620100Y-70205765D01*
X70620100Y-81918561D01*
X69497731Y-83040931D01*
X69416476Y-83162536D01*
X68941000Y-83162536D01*
X68799810Y-83189103D01*
X68670135Y-83272546D01*
X68583141Y-83399866D01*
X68552536Y-83551000D01*
X68552536Y-85329000D01*
X68579103Y-85470190D01*
X68662546Y-85599865D01*
X68789866Y-85686859D01*
X68941000Y-85717464D01*
X70719000Y-85717464D01*
X70860190Y-85690897D01*
X70989865Y-85607454D01*
X71076859Y-85480134D01*
X71107464Y-85329000D01*
X71107464Y-84710107D01*
X71292718Y-85158458D01*
X71649663Y-85516026D01*
X72116273Y-85709779D01*
X72621510Y-85710220D01*
X73088458Y-85517282D01*
X73093552Y-85512196D01*
X74017409Y-85512196D01*
X74102467Y-85767539D01*
X74671965Y-85975516D01*
X75277700Y-85949723D01*
X75717533Y-85767539D01*
X75802591Y-85512196D01*
X76557409Y-85512196D01*
X76642467Y-85767539D01*
X77211965Y-85975516D01*
X77817700Y-85949723D01*
X78257533Y-85767539D01*
X78342591Y-85512196D01*
X77450000Y-84619605D01*
X76557409Y-85512196D01*
X75802591Y-85512196D01*
X74910000Y-84619605D01*
X74017409Y-85512196D01*
X73093552Y-85512196D01*
X73446026Y-85160337D01*
X73496247Y-85039392D01*
X73582461Y-85247533D01*
X73837804Y-85332591D01*
X74730395Y-84440000D01*
X75089605Y-84440000D01*
X75982196Y-85332591D01*
X76180000Y-85266700D01*
X76377804Y-85332591D01*
X77270395Y-84440000D01*
X76377804Y-83547409D01*
X76180000Y-83613300D01*
X75982196Y-83547409D01*
X75089605Y-84440000D01*
X74730395Y-84440000D01*
X74716253Y-84425858D01*
X74895858Y-84246253D01*
X74910000Y-84260395D01*
X75802591Y-83367804D01*
X76557409Y-83367804D01*
X77450000Y-84260395D01*
X78342591Y-83367804D01*
X78257533Y-83112461D01*
X77688035Y-82904484D01*
X77082300Y-82930277D01*
X76642467Y-83112461D01*
X76557409Y-83367804D01*
X75802591Y-83367804D01*
X75717533Y-83112461D01*
X75148035Y-82904484D01*
X74542300Y-82930277D01*
X74102467Y-83112461D01*
X74069788Y-83210563D01*
X74069900Y-83210000D01*
X74069900Y-70156054D01*
X74189663Y-70276026D01*
X74656273Y-70469779D01*
X75161510Y-70470220D01*
X75628458Y-70277282D01*
X75720100Y-70185800D01*
X75720100Y-70480000D01*
X75748611Y-70623336D01*
X75755869Y-70659823D01*
X75857731Y-70812269D01*
X88928732Y-83883271D01*
X88928735Y-83883273D01*
X88983357Y-83937895D01*
X88880221Y-84186273D01*
X88880219Y-84188488D01*
X88687282Y-83721542D01*
X88330337Y-83363974D01*
X87863727Y-83170221D01*
X87358490Y-83169780D01*
X86891542Y-83362718D01*
X86533974Y-83719663D01*
X86340221Y-84186273D01*
X86340219Y-84188488D01*
X86147282Y-83721542D01*
X85790337Y-83363974D01*
X85323727Y-83170221D01*
X84818490Y-83169780D01*
X84351542Y-83362718D01*
X83993974Y-83719663D01*
X83800221Y-84186273D01*
X83800219Y-84188488D01*
X83607282Y-83721542D01*
X83250337Y-83363974D01*
X82783727Y-83170221D01*
X82278490Y-83169780D01*
X81811542Y-83362718D01*
X81453974Y-83719663D01*
X81260221Y-84186273D01*
X81260219Y-84188488D01*
X81067282Y-83721542D01*
X80710337Y-83363974D01*
X80243727Y-83170221D01*
X79738490Y-83169780D01*
X79271542Y-83362718D01*
X78913974Y-83719663D01*
X78863753Y-83840608D01*
X78777539Y-83632467D01*
X78522196Y-83547409D01*
X77629605Y-84440000D01*
X78522196Y-85332591D01*
X78777539Y-85247533D01*
X78858229Y-85026583D01*
X78912718Y-85158458D01*
X79269663Y-85516026D01*
X79736273Y-85709779D01*
X80241510Y-85710220D01*
X80708458Y-85517282D01*
X81066026Y-85160337D01*
X81259779Y-84693727D01*
X81259781Y-84691512D01*
X81452718Y-85158458D01*
X81809663Y-85516026D01*
X82276273Y-85709779D01*
X82781510Y-85710220D01*
X83248458Y-85517282D01*
X83606026Y-85160337D01*
X83799779Y-84693727D01*
X83799781Y-84691512D01*
X83992718Y-85158458D01*
X84349663Y-85516026D01*
X84816273Y-85709779D01*
X85321510Y-85710220D01*
X85788458Y-85517282D01*
X86146026Y-85160337D01*
X86339779Y-84693727D01*
X86339781Y-84691512D01*
X86532718Y-85158458D01*
X86889663Y-85516026D01*
X87356273Y-85709779D01*
X87861510Y-85710220D01*
X88328458Y-85517282D01*
X88686026Y-85160337D01*
X88879779Y-84693727D01*
X88879781Y-84691512D01*
X89072718Y-85158458D01*
X89429663Y-85516026D01*
X89896273Y-85709779D01*
X90401510Y-85710220D01*
X90868458Y-85517282D01*
X91226026Y-85160337D01*
X91419779Y-84693727D01*
X91419781Y-84691512D01*
X91612718Y-85158458D01*
X91969663Y-85516026D01*
X92436273Y-85709779D01*
X92941510Y-85710220D01*
X93408458Y-85517282D01*
X93766026Y-85160337D01*
X93959779Y-84693727D01*
X93959781Y-84691512D01*
X94152718Y-85158458D01*
X94509663Y-85516026D01*
X94976273Y-85709779D01*
X95481510Y-85710220D01*
X95948458Y-85517282D01*
X96306026Y-85160337D01*
X96499779Y-84693727D01*
X96499781Y-84691512D01*
X96692718Y-85158458D01*
X97049663Y-85516026D01*
X97516273Y-85709779D01*
X98021510Y-85710220D01*
X98488458Y-85517282D01*
X98846026Y-85160337D01*
X99039779Y-84693727D01*
X99040220Y-84188490D01*
X98847282Y-83721542D01*
X98490337Y-83363974D01*
X98023727Y-83170221D01*
X97518490Y-83169780D01*
X97267872Y-83273333D01*
X90072269Y-76077731D01*
X89919823Y-75975869D01*
X89740000Y-75940100D01*
X87254639Y-75940100D01*
X81709900Y-70395362D01*
X81709900Y-70176089D01*
X81809663Y-70276026D01*
X82276273Y-70469779D01*
X82781510Y-70470220D01*
X83248458Y-70277282D01*
X83606026Y-69920337D01*
X83799779Y-69453727D01*
X83799781Y-69451512D01*
X83992718Y-69918458D01*
X84349663Y-70276026D01*
X84816273Y-70469779D01*
X85321510Y-70470220D01*
X85788458Y-70277282D01*
X86146026Y-69920337D01*
X86339779Y-69453727D01*
X86339781Y-69451512D01*
X86532718Y-69918458D01*
X86889663Y-70276026D01*
X87356273Y-70469779D01*
X87861510Y-70470220D01*
X88328458Y-70277282D01*
X88686026Y-69920337D01*
X88879779Y-69453727D01*
X88879781Y-69451512D01*
X89072718Y-69918458D01*
X89429663Y-70276026D01*
X89896273Y-70469779D01*
X90401510Y-70470220D01*
X90868458Y-70277282D01*
X91226026Y-69920337D01*
X91419779Y-69453727D01*
X91419781Y-69451512D01*
X91612718Y-69918458D01*
X91969663Y-70276026D01*
X92436273Y-70469779D01*
X92941510Y-70470220D01*
X93408458Y-70277282D01*
X93766026Y-69920337D01*
X93959779Y-69453727D01*
X93959781Y-69451512D01*
X94152718Y-69918458D01*
X94509663Y-70276026D01*
X94976273Y-70469779D01*
X95481510Y-70470220D01*
X95948458Y-70277282D01*
X96306026Y-69920337D01*
X96499779Y-69453727D01*
X96499781Y-69451512D01*
X96692718Y-69918458D01*
X97049663Y-70276026D01*
X97516273Y-70469779D01*
X98021510Y-70470220D01*
X98488458Y-70277282D01*
X98846026Y-69920337D01*
X99039779Y-69453727D01*
X99040220Y-68948490D01*
X98847282Y-68481542D01*
X98490337Y-68123974D01*
X98023727Y-67930221D01*
X97518490Y-67929780D01*
X97267872Y-68033333D01*
X94252269Y-65017731D01*
X94099823Y-64915869D01*
X94091684Y-64914250D01*
X93920000Y-64880100D01*
X82874639Y-64880100D01*
X82812072Y-64817533D01*
X82815936Y-64817536D01*
X83105444Y-64697914D01*
X83303804Y-64499900D01*
X92000000Y-64499900D01*
X92179823Y-64464131D01*
X92332269Y-64362269D01*
X94193519Y-62501019D01*
X94645883Y-62591000D01*
X94694117Y-62591000D01*
X95165200Y-62497296D01*
X95564565Y-62230448D01*
X95821788Y-61845488D01*
X95938355Y-62126924D01*
X96328642Y-62555183D01*
X96853108Y-62801486D01*
X97083000Y-62680819D01*
X97083000Y-61487000D01*
X97337000Y-61487000D01*
X97337000Y-62680819D01*
X97566892Y-62801486D01*
X98091358Y-62555183D01*
X98481645Y-62126924D01*
X98651476Y-61716890D01*
X98530155Y-61487000D01*
X97337000Y-61487000D01*
X97083000Y-61487000D01*
X97063000Y-61487000D01*
X97063000Y-61233000D01*
X97083000Y-61233000D01*
X97083000Y-61213000D01*
X97337000Y-61213000D01*
X97337000Y-61233000D01*
X98530155Y-61233000D01*
X98651476Y-61003110D01*
X98481645Y-60593076D01*
X98091358Y-60164817D01*
X97666053Y-59965083D01*
X97705200Y-59957296D01*
X98104565Y-59690448D01*
X98371413Y-59291083D01*
X98465117Y-58820000D01*
X98371413Y-58348917D01*
X98104565Y-57949552D01*
X97705200Y-57682704D01*
X97234117Y-57589000D01*
X97185883Y-57589000D01*
X96714800Y-57682704D01*
X96315435Y-57949552D01*
X96048587Y-58348917D01*
X95954883Y-58820000D01*
X96048587Y-59291083D01*
X96315435Y-59690448D01*
X96714800Y-59957296D01*
X96753947Y-59965083D01*
X96328642Y-60164817D01*
X95938355Y-60593076D01*
X95821788Y-60874512D01*
X95564565Y-60489552D01*
X95165200Y-60222704D01*
X94694117Y-60129000D01*
X94645883Y-60129000D01*
X94174800Y-60222704D01*
X93775435Y-60489552D01*
X93508587Y-60888917D01*
X93414883Y-61360000D01*
X93508587Y-61831083D01*
X93518918Y-61846544D01*
X91805362Y-63560100D01*
X90344438Y-63560100D01*
X93702270Y-60202269D01*
X93804131Y-60049823D01*
X93839900Y-59870000D01*
X93839900Y-59733522D01*
X94174800Y-59957296D01*
X94645883Y-60051000D01*
X94694117Y-60051000D01*
X95165200Y-59957296D01*
X95564565Y-59690448D01*
X95831413Y-59291083D01*
X95925117Y-58820000D01*
X95831413Y-58348917D01*
X95564565Y-57949552D01*
X95165200Y-57682704D01*
X94694117Y-57589000D01*
X94645883Y-57589000D01*
X94174800Y-57682704D01*
X93839900Y-57906478D01*
X93839900Y-57774638D01*
X94193519Y-57421019D01*
X94645883Y-57511000D01*
X94694117Y-57511000D01*
X95165200Y-57417296D01*
X95564565Y-57150448D01*
X95831413Y-56751083D01*
X95925117Y-56280000D01*
X95954883Y-56280000D01*
X96048587Y-56751083D01*
X96315435Y-57150448D01*
X96714800Y-57417296D01*
X97185883Y-57511000D01*
X97234117Y-57511000D01*
X97705200Y-57417296D01*
X98104565Y-57150448D01*
X98371413Y-56751083D01*
X98465117Y-56280000D01*
X98371413Y-55808917D01*
X98104565Y-55409552D01*
X97705200Y-55142704D01*
X97234117Y-55049000D01*
X97185883Y-55049000D01*
X96714800Y-55142704D01*
X96315435Y-55409552D01*
X96048587Y-55808917D01*
X95954883Y-56280000D01*
X95925117Y-56280000D01*
X95831413Y-55808917D01*
X95564565Y-55409552D01*
X95165200Y-55142704D01*
X94694117Y-55049000D01*
X94645883Y-55049000D01*
X94174800Y-55142704D01*
X93775435Y-55409552D01*
X93508587Y-55808917D01*
X93414883Y-56280000D01*
X93508587Y-56751083D01*
X93518918Y-56766544D01*
X93299900Y-56985562D01*
X93299900Y-55774638D01*
X94152271Y-54922268D01*
X94152273Y-54922265D01*
X94193519Y-54881019D01*
X94645883Y-54971000D01*
X94694117Y-54971000D01*
X95165200Y-54877296D01*
X95564565Y-54610448D01*
X95831413Y-54211083D01*
X95925117Y-53740000D01*
X95831413Y-53268917D01*
X95564565Y-52869552D01*
X95165200Y-52602704D01*
X94694117Y-52509000D01*
X94645883Y-52509000D01*
X94174800Y-52602704D01*
X93775435Y-52869552D01*
X93508587Y-53268917D01*
X93414883Y-53740000D01*
X93508587Y-54211083D01*
X93518918Y-54226544D01*
X93487735Y-54257727D01*
X93487732Y-54257729D01*
X92589900Y-55155562D01*
X92589900Y-52916838D01*
X93435527Y-52071211D01*
X93458103Y-52191190D01*
X93541546Y-52320865D01*
X93668866Y-52407859D01*
X93820000Y-52438464D01*
X95520000Y-52438464D01*
X95547199Y-52433346D01*
X95547199Y-52585199D01*
X95585868Y-52779602D01*
X95695989Y-52944409D01*
X96043927Y-53292347D01*
X95954883Y-53740000D01*
X96048587Y-54211083D01*
X96315435Y-54610448D01*
X96714800Y-54877296D01*
X97185883Y-54971000D01*
X97234117Y-54971000D01*
X97705200Y-54877296D01*
X98104565Y-54610448D01*
X98371413Y-54211083D01*
X98465117Y-53740000D01*
X98371413Y-53268917D01*
X98104565Y-52869552D01*
X97705200Y-52602704D01*
X97666053Y-52594917D01*
X98091358Y-52395183D01*
X98481645Y-51966924D01*
X98651476Y-51556890D01*
X98530155Y-51327000D01*
X97337000Y-51327000D01*
X97337000Y-51347000D01*
X97083000Y-51347000D01*
X97083000Y-51327000D01*
X97063000Y-51327000D01*
X97063000Y-51073000D01*
X97083000Y-51073000D01*
X97083000Y-49879181D01*
X97337000Y-49879181D01*
X97337000Y-51073000D01*
X98530155Y-51073000D01*
X98651476Y-50843110D01*
X98481645Y-50433076D01*
X98091358Y-50004817D01*
X97566892Y-49758514D01*
X97337000Y-49879181D01*
X97083000Y-49879181D01*
X96853108Y-49758514D01*
X96552186Y-49899835D01*
X96524530Y-49760796D01*
X96414409Y-49595989D01*
X96159210Y-49340790D01*
X95994403Y-49230669D01*
X95800000Y-49192000D01*
X94537105Y-49192000D01*
X97622269Y-46106836D01*
X97724131Y-45954390D01*
X97727445Y-45937731D01*
X97759900Y-45774567D01*
X97759900Y-37380000D01*
X97724131Y-37200177D01*
X97683054Y-37138701D01*
X97622270Y-37047731D01*
X97114270Y-36539732D01*
X97114268Y-36539729D01*
X97089477Y-36514938D01*
X97162801Y-36338354D01*
X97163198Y-35883641D01*
X96989554Y-35463388D01*
X96668303Y-35141577D01*
X96248354Y-34967199D01*
X95793641Y-34966802D01*
X95373388Y-35140446D01*
X95051577Y-35461697D01*
X94877199Y-35881646D01*
X94876802Y-36336359D01*
X95050446Y-36756612D01*
X95371697Y-37078423D01*
X95791646Y-37252801D01*
X96246359Y-37253198D01*
X96424891Y-37179430D01*
X96449729Y-37204268D01*
X96449732Y-37204270D01*
X96820100Y-37574639D01*
X96820100Y-37833639D01*
X96668303Y-37681577D01*
X96248354Y-37507199D01*
X95793641Y-37506802D01*
X95373388Y-37680446D01*
X95149900Y-37903545D01*
X95149900Y-37310000D01*
X95114131Y-37130177D01*
X95107449Y-37120177D01*
X95012270Y-36977731D01*
X94574270Y-36539732D01*
X94574268Y-36539729D01*
X94549477Y-36514938D01*
X94622801Y-36338354D01*
X94623198Y-35883641D01*
X94449554Y-35463388D01*
X94128303Y-35141577D01*
X93708354Y-34967199D01*
X93253641Y-34966802D01*
X92833388Y-35140446D01*
X92511577Y-35461697D01*
X92337199Y-35881646D01*
X92336802Y-36336359D01*
X92510446Y-36756612D01*
X92831697Y-37078423D01*
X93251646Y-37252801D01*
X93706359Y-37253198D01*
X93884891Y-37179430D01*
X93909729Y-37204268D01*
X93909732Y-37204270D01*
X94210100Y-37504639D01*
X94210100Y-37763517D01*
X94128303Y-37681577D01*
X93708354Y-37507199D01*
X93253641Y-37506802D01*
X92833388Y-37680446D01*
X92619900Y-37893562D01*
X92619900Y-37320000D01*
X92584131Y-37140177D01*
X92522360Y-37047731D01*
X92482269Y-36987730D01*
X92034270Y-36539732D01*
X92034268Y-36539729D01*
X92009477Y-36514938D01*
X92082801Y-36338354D01*
X92083198Y-35883641D01*
X91909554Y-35463388D01*
X91588303Y-35141577D01*
X91168354Y-34967199D01*
X90713641Y-34966802D01*
X90293388Y-35140446D01*
X89971577Y-35461697D01*
X89797199Y-35881646D01*
X89796802Y-36336359D01*
X89970446Y-36756612D01*
X90291697Y-37078423D01*
X90711646Y-37252801D01*
X91166359Y-37253198D01*
X91344891Y-37179430D01*
X91369729Y-37204268D01*
X91369732Y-37204270D01*
X91680100Y-37514639D01*
X91680100Y-37773534D01*
X91588303Y-37681577D01*
X91168354Y-37507199D01*
X90713641Y-37506802D01*
X90293388Y-37680446D01*
X90119900Y-37853632D01*
X90119900Y-37360000D01*
X90084131Y-37180177D01*
X90070767Y-37160177D01*
X89982270Y-37027731D01*
X89494270Y-36539732D01*
X89494268Y-36539729D01*
X89469477Y-36514938D01*
X89542801Y-36338354D01*
X89543198Y-35883641D01*
X89369554Y-35463388D01*
X89048303Y-35141577D01*
X88628354Y-34967199D01*
X88173641Y-34966802D01*
X87753388Y-35140446D01*
X87431577Y-35461697D01*
X87257199Y-35881646D01*
X87257030Y-36075660D01*
X87241362Y-35762632D01*
X87082397Y-35378857D01*
X86840213Y-35309392D01*
X86039605Y-36110000D01*
X86840213Y-36910608D01*
X87082397Y-36841143D01*
X87259852Y-36343742D01*
X87430446Y-36756612D01*
X87751697Y-37078423D01*
X88171646Y-37252801D01*
X88626359Y-37253198D01*
X88804891Y-37179430D01*
X88829729Y-37204268D01*
X88829732Y-37204270D01*
X89180100Y-37554639D01*
X89180100Y-37813604D01*
X89048303Y-37681577D01*
X88628354Y-37507199D01*
X88173641Y-37506802D01*
X87753388Y-37680446D01*
X87431577Y-38001697D01*
X87257199Y-38421646D01*
X87256802Y-38876359D01*
X87430446Y-39296612D01*
X87751697Y-39618423D01*
X87930100Y-39692502D01*
X87930100Y-46425361D01*
X85367731Y-48987731D01*
X85265869Y-49140177D01*
X85230100Y-49320000D01*
X85230100Y-50395731D01*
X85160000Y-50381536D01*
X84629900Y-50381536D01*
X84629900Y-49534638D01*
X86192269Y-47972270D01*
X86294131Y-47819823D01*
X86329900Y-47640000D01*
X86329900Y-39692569D01*
X86506612Y-39619554D01*
X86828423Y-39298303D01*
X87002801Y-38878354D01*
X87003198Y-38423641D01*
X86829554Y-38003388D01*
X86508303Y-37681577D01*
X86088354Y-37507199D01*
X85894340Y-37507030D01*
X86207368Y-37491362D01*
X86591143Y-37332397D01*
X86660608Y-37090213D01*
X85860000Y-36289605D01*
X85845858Y-36303748D01*
X85666253Y-36124143D01*
X85680395Y-36110000D01*
X84879787Y-35309392D01*
X84637603Y-35378857D01*
X84460148Y-35876258D01*
X84289554Y-35463388D01*
X83968303Y-35141577D01*
X83548354Y-34967199D01*
X83093641Y-34966802D01*
X82673388Y-35140446D01*
X82351577Y-35461697D01*
X82177199Y-35881646D01*
X82176802Y-36336359D01*
X82350446Y-36756612D01*
X82671697Y-37078423D01*
X83091646Y-37252801D01*
X83546359Y-37253198D01*
X83724892Y-37179430D01*
X84080100Y-37534639D01*
X84080100Y-37793569D01*
X83968303Y-37681577D01*
X83548354Y-37507199D01*
X83093641Y-37506802D01*
X82673388Y-37680446D01*
X82409900Y-37943475D01*
X82409900Y-37270000D01*
X82374131Y-37090177D01*
X82348503Y-37051822D01*
X82272270Y-36937731D01*
X81849477Y-36514938D01*
X81922801Y-36338354D01*
X81923198Y-35883641D01*
X81749554Y-35463388D01*
X81428303Y-35141577D01*
X81008354Y-34967199D01*
X80553641Y-34966802D01*
X80133388Y-35140446D01*
X79811577Y-35461697D01*
X79637199Y-35881646D01*
X79636802Y-36336359D01*
X79810446Y-36756612D01*
X80131697Y-37078423D01*
X80551646Y-37252801D01*
X81006359Y-37253198D01*
X81184892Y-37179430D01*
X81470100Y-37464639D01*
X81470100Y-37723447D01*
X81428303Y-37681577D01*
X81008354Y-37507199D01*
X80553641Y-37506802D01*
X80133388Y-37680446D01*
X79879900Y-37933493D01*
X79879900Y-37280000D01*
X79844131Y-37100177D01*
X79811821Y-37051822D01*
X79742270Y-36947731D01*
X79309477Y-36514938D01*
X79382801Y-36338354D01*
X79383198Y-35883641D01*
X79209554Y-35463388D01*
X78888303Y-35141577D01*
X78468354Y-34967199D01*
X78013641Y-34966802D01*
X77593388Y-35140446D01*
X77271577Y-35461697D01*
X77097199Y-35881646D01*
X77096802Y-36336359D01*
X77270446Y-36756612D01*
X77591697Y-37078423D01*
X78011646Y-37252801D01*
X78466359Y-37253198D01*
X78644892Y-37179430D01*
X78940100Y-37474639D01*
X78940100Y-37733464D01*
X78888303Y-37681577D01*
X78468354Y-37507199D01*
X78013641Y-37506802D01*
X77593388Y-37680446D01*
X77389900Y-37883580D01*
X77389900Y-37330000D01*
X77354131Y-37150177D01*
X77340767Y-37130177D01*
X77252270Y-36997731D01*
X76769477Y-36514938D01*
X76842801Y-36338354D01*
X76843198Y-35883641D01*
X76669554Y-35463388D01*
X76348303Y-35141577D01*
X75928354Y-34967199D01*
X75473641Y-34966802D01*
X75053388Y-35140446D01*
X74731577Y-35461697D01*
X74557199Y-35881646D01*
X74556802Y-36336359D01*
X74730446Y-36756612D01*
X75051697Y-37078423D01*
X75471646Y-37252801D01*
X75665660Y-37252970D01*
X75352632Y-37268638D01*
X74968857Y-37427603D01*
X74899392Y-37669787D01*
X75700000Y-38470395D01*
X75714143Y-38456253D01*
X75893748Y-38635858D01*
X75879605Y-38650000D01*
X75893748Y-38664143D01*
X75714143Y-38843748D01*
X75700000Y-38829605D01*
X74899392Y-39630213D01*
X74968857Y-39872397D01*
X75492302Y-40059144D01*
X75907078Y-40038384D01*
X74627731Y-41317731D01*
X74525869Y-41470177D01*
X74490100Y-41650000D01*
X74490100Y-47647756D01*
X74410000Y-47631536D01*
X73910000Y-47631536D01*
X73768810Y-47658103D01*
X73639135Y-47741546D01*
X73552141Y-47868866D01*
X73521536Y-48020000D01*
X73521536Y-48144797D01*
X72359900Y-46983162D01*
X72359900Y-39631984D01*
X72428857Y-39872397D01*
X72952302Y-40059144D01*
X73507368Y-40031362D01*
X73891143Y-39872397D01*
X73960608Y-39630213D01*
X73160000Y-38829605D01*
X73145858Y-38843748D01*
X72966253Y-38664143D01*
X72980395Y-38650000D01*
X73339605Y-38650000D01*
X74140213Y-39450608D01*
X74382397Y-39381143D01*
X74426453Y-39257656D01*
X74477603Y-39381143D01*
X74719787Y-39450608D01*
X75520395Y-38650000D01*
X74719787Y-37849392D01*
X74477603Y-37918857D01*
X74433547Y-38042344D01*
X74382397Y-37918857D01*
X74140213Y-37849392D01*
X73339605Y-38650000D01*
X72980395Y-38650000D01*
X72966253Y-38635858D01*
X73145858Y-38456253D01*
X73160000Y-38470395D01*
X73960608Y-37669787D01*
X73891143Y-37427603D01*
X73393742Y-37250148D01*
X73806612Y-37079554D01*
X74128423Y-36758303D01*
X74302801Y-36338354D01*
X74303198Y-35883641D01*
X74129554Y-35463388D01*
X73808303Y-35141577D01*
X73388354Y-34967199D01*
X72933641Y-34966802D01*
X72513388Y-35140446D01*
X72191577Y-35461697D01*
X72017199Y-35881646D01*
X72016802Y-36336359D01*
X72190446Y-36756612D01*
X72511697Y-37078423D01*
X72931646Y-37252801D01*
X73125660Y-37252970D01*
X72812632Y-37268638D01*
X72428857Y-37427603D01*
X72359900Y-37668016D01*
X72359900Y-37380000D01*
X72324131Y-37200177D01*
X72283054Y-37138701D01*
X72222270Y-37047731D01*
X71714270Y-36539732D01*
X71714268Y-36539729D01*
X71689477Y-36514938D01*
X71762801Y-36338354D01*
X71763198Y-35883641D01*
X71589554Y-35463388D01*
X71268303Y-35141577D01*
X70848354Y-34967199D01*
X70393641Y-34966802D01*
X69973388Y-35140446D01*
X69651577Y-35461697D01*
X69477199Y-35881646D01*
X69476802Y-36336359D01*
X69650446Y-36756612D01*
X69971697Y-37078423D01*
X70391646Y-37252801D01*
X70585660Y-37252970D01*
X70272632Y-37268638D01*
X69888857Y-37427603D01*
X69819393Y-37669785D01*
X69769900Y-37620292D01*
X69769900Y-37330000D01*
X69734131Y-37150177D01*
X69720767Y-37130177D01*
X69632270Y-36997731D01*
X69149477Y-36514938D01*
X69222801Y-36338354D01*
X69223198Y-35883641D01*
X69049554Y-35463388D01*
X68728303Y-35141577D01*
X68308354Y-34967199D01*
X67853641Y-34966802D01*
X67433388Y-35140446D01*
X67111577Y-35461697D01*
X66937199Y-35881646D01*
X66936802Y-36336359D01*
X67110446Y-36756612D01*
X67431697Y-37078423D01*
X67851646Y-37252801D01*
X68045660Y-37252970D01*
X67732632Y-37268638D01*
X67348857Y-37427603D01*
X67279393Y-37669785D01*
X67239900Y-37630292D01*
X67239900Y-37340000D01*
X67204131Y-37160177D01*
X67189781Y-37138701D01*
X67102269Y-37007730D01*
X66634270Y-36539732D01*
X66634268Y-36539729D01*
X66609477Y-36514938D01*
X66682801Y-36338354D01*
X66683198Y-35883641D01*
X66509554Y-35463388D01*
X66188303Y-35141577D01*
X65768354Y-34967199D01*
X65313641Y-34966802D01*
X64893388Y-35140446D01*
X64571577Y-35461697D01*
X64397199Y-35881646D01*
X64396802Y-36336359D01*
X64570446Y-36756612D01*
X64891697Y-37078423D01*
X65311646Y-37252801D01*
X65505660Y-37252970D01*
X65192632Y-37268638D01*
X64808857Y-37427603D01*
X64739393Y-37669785D01*
X64729900Y-37660292D01*
X64729900Y-37370000D01*
X64694131Y-37190177D01*
X64687449Y-37180177D01*
X64592269Y-37037730D01*
X64069477Y-36514938D01*
X64142801Y-36338354D01*
X64143198Y-35883641D01*
X63969554Y-35463388D01*
X63648303Y-35141577D01*
X63228354Y-34967199D01*
X62773641Y-34966802D01*
X62353388Y-35140446D01*
X62031577Y-35461697D01*
X61857199Y-35881646D01*
X61856802Y-36336359D01*
X62030446Y-36756612D01*
X62351697Y-37078423D01*
X62771646Y-37252801D01*
X62965660Y-37252970D01*
X62652632Y-37268638D01*
X62268857Y-37427603D01*
X62199392Y-37669787D01*
X63000000Y-38470395D01*
X63014143Y-38456253D01*
X63193748Y-38635858D01*
X63179605Y-38650000D01*
X63193748Y-38664143D01*
X63014143Y-38843748D01*
X63000000Y-38829605D01*
X62199392Y-39630213D01*
X62268857Y-39872397D01*
X62792302Y-40059144D01*
X63347368Y-40031362D01*
X63731143Y-39872397D01*
X63790100Y-39666848D01*
X63790100Y-47750000D01*
X63813744Y-47868866D01*
X63825869Y-47929823D01*
X63927731Y-48082269D01*
X69595561Y-53750100D01*
X68874639Y-53750100D01*
X61958601Y-46834063D01*
X61958601Y-39433058D01*
X62019787Y-39450608D01*
X62820395Y-38650000D01*
X62019787Y-37849392D01*
X61958601Y-37866942D01*
X61958601Y-37138701D01*
X61922832Y-36958878D01*
X61890579Y-36910608D01*
X61820971Y-36806432D01*
X61554270Y-36539732D01*
X61554268Y-36539729D01*
X61529477Y-36514938D01*
X61602801Y-36338354D01*
X61603198Y-35883641D01*
X61429554Y-35463388D01*
X61108303Y-35141577D01*
X60688354Y-34967199D01*
X60233641Y-34966802D01*
X59813388Y-35140446D01*
X59491577Y-35461697D01*
X59317199Y-35881646D01*
X59316802Y-36336359D01*
X59490446Y-36756612D01*
X59811697Y-37078423D01*
X60231646Y-37252801D01*
X60425660Y-37252970D01*
X60112632Y-37268638D01*
X59728857Y-37427603D01*
X59659392Y-37669787D01*
X60460000Y-38470395D01*
X60474143Y-38456253D01*
X60653748Y-38635858D01*
X60639605Y-38650000D01*
X60653748Y-38664143D01*
X60474143Y-38843748D01*
X60460000Y-38829605D01*
X59659392Y-39630213D01*
X59728857Y-39872397D01*
X60252302Y-40059144D01*
X60807368Y-40031362D01*
X61018801Y-39943783D01*
X61018801Y-47028701D01*
X61042894Y-47149823D01*
X61054570Y-47208524D01*
X61156432Y-47360970D01*
X68345561Y-54550100D01*
X66904639Y-54550100D01*
X59649900Y-47295362D01*
X59649900Y-42773501D01*
X59847136Y-42576609D01*
X59967263Y-42287311D01*
X59967536Y-41974064D01*
X59847914Y-41684556D01*
X59626609Y-41462864D01*
X59337311Y-41342737D01*
X59024064Y-41342464D01*
X58734556Y-41462086D01*
X58512864Y-41683391D01*
X58392737Y-41972689D01*
X58392464Y-42285936D01*
X58512086Y-42575444D01*
X58710100Y-42773804D01*
X58710100Y-47490000D01*
X58742463Y-47652699D01*
X58745869Y-47669823D01*
X58847731Y-47822269D01*
X66377730Y-55352269D01*
X66399670Y-55366929D01*
X66202864Y-55563391D01*
X66082737Y-55852689D01*
X66082464Y-56165936D01*
X66202086Y-56455444D01*
X66423391Y-56677136D01*
X66712689Y-56797263D01*
X67025936Y-56797536D01*
X67315444Y-56677914D01*
X67537136Y-56456609D01*
X67606360Y-56289900D01*
X68465749Y-56289900D01*
X68302530Y-56452834D01*
X68182403Y-56742132D01*
X68182130Y-57055379D01*
X68301752Y-57344887D01*
X68523057Y-57566579D01*
X68812355Y-57686706D01*
X69125602Y-57686979D01*
X69415110Y-57567357D01*
X69636802Y-57346052D01*
X69743166Y-57089900D01*
X69836942Y-57089900D01*
X69752737Y-57292689D01*
X69752464Y-57605936D01*
X69812031Y-57750100D01*
X66634639Y-57750100D01*
X57199900Y-48315362D01*
X57199900Y-39876337D01*
X57712302Y-40059144D01*
X58267368Y-40031362D01*
X58651143Y-39872397D01*
X58720608Y-39630213D01*
X57920000Y-38829605D01*
X57905858Y-38843748D01*
X57726253Y-38664143D01*
X57740395Y-38650000D01*
X58099605Y-38650000D01*
X58900213Y-39450608D01*
X59142397Y-39381143D01*
X59186453Y-39257656D01*
X59237603Y-39381143D01*
X59479787Y-39450608D01*
X60280395Y-38650000D01*
X59479787Y-37849392D01*
X59237603Y-37918857D01*
X59193547Y-38042344D01*
X59142397Y-37918857D01*
X58900213Y-37849392D01*
X58099605Y-38650000D01*
X57740395Y-38650000D01*
X57726253Y-38635858D01*
X57905858Y-38456253D01*
X57920000Y-38470395D01*
X58720608Y-37669787D01*
X58651143Y-37427603D01*
X58153742Y-37250148D01*
X58566612Y-37079554D01*
X58888423Y-36758303D01*
X59062801Y-36338354D01*
X59063198Y-35883641D01*
X58889554Y-35463388D01*
X58568303Y-35141577D01*
X58148354Y-34967199D01*
X57693641Y-34966802D01*
X57273388Y-35140446D01*
X56951577Y-35461697D01*
X56777199Y-35881646D01*
X56776802Y-36336359D01*
X56850570Y-36514892D01*
X56825735Y-36539727D01*
X56825732Y-36539729D01*
X56397731Y-36967731D01*
X56295869Y-37120177D01*
X56269362Y-37253436D01*
X56268309Y-37253000D01*
X55665750Y-37253000D01*
X55507002Y-37411748D01*
X55507002Y-37253111D01*
X55606359Y-37253198D01*
X56026612Y-37079554D01*
X56348423Y-36758303D01*
X56522801Y-36338354D01*
X56523198Y-35883641D01*
X56349554Y-35463388D01*
X56028303Y-35141577D01*
X55608354Y-34967199D01*
X55153641Y-34966802D01*
X54733388Y-35140446D01*
X54411577Y-35461697D01*
X54237199Y-35881646D01*
X54236802Y-36336359D01*
X54410446Y-36756612D01*
X54731697Y-37078423D01*
X55151646Y-37252801D01*
X55379575Y-37253000D01*
X55252998Y-37253000D01*
X55252998Y-37411748D01*
X55094250Y-37253000D01*
X54491691Y-37253000D01*
X54258302Y-37349673D01*
X54079673Y-37528301D01*
X53983000Y-37761690D01*
X53983000Y-38364250D01*
X54141750Y-38523000D01*
X55253000Y-38523000D01*
X55253000Y-38503000D01*
X55507000Y-38503000D01*
X55507000Y-38523000D01*
X55527000Y-38523000D01*
X55527000Y-38777000D01*
X55507000Y-38777000D01*
X55507000Y-39888250D01*
X55665750Y-40047000D01*
X56260100Y-40047000D01*
X56260100Y-48510000D01*
X56276677Y-48593336D01*
X56295869Y-48689823D01*
X56397731Y-48842269D01*
X66107731Y-58552270D01*
X66260177Y-58654131D01*
X66440000Y-58689900D01*
X70685561Y-58689900D01*
X62457731Y-66917731D01*
X62355869Y-67070177D01*
X62320100Y-67250000D01*
X62320100Y-67500395D01*
X62278917Y-67508587D01*
X61879552Y-67775435D01*
X61612704Y-68174800D01*
X61519000Y-68645883D01*
X61519000Y-68694117D01*
X61612704Y-69165200D01*
X61879552Y-69564565D01*
X62264512Y-69821788D01*
X61983076Y-69938355D01*
X61919900Y-69995929D01*
X61919900Y-69910000D01*
X61884131Y-69730177D01*
X61843855Y-69669900D01*
X61782270Y-69577731D01*
X61351019Y-69146481D01*
X61441000Y-68694117D01*
X61441000Y-68645883D01*
X61347296Y-68174800D01*
X61080448Y-67775435D01*
X61007707Y-67726831D01*
X68267246Y-60467293D01*
X68545936Y-60467536D01*
X68835444Y-60347914D01*
X69057136Y-60126609D01*
X69177263Y-59837311D01*
X69177536Y-59524064D01*
X69057914Y-59234556D01*
X68836609Y-59012864D01*
X68547311Y-58892737D01*
X68234064Y-58892464D01*
X67944556Y-59012086D01*
X67722864Y-59233391D01*
X67602737Y-59522689D01*
X67602493Y-59802968D01*
X59936096Y-67469366D01*
X59738917Y-67508587D01*
X59339552Y-67775435D01*
X59072704Y-68174800D01*
X58979000Y-68645883D01*
X58979000Y-68694117D01*
X59072704Y-69165200D01*
X59339552Y-69564565D01*
X59738917Y-69831413D01*
X60210000Y-69925117D01*
X60681083Y-69831413D01*
X60696544Y-69821082D01*
X60980100Y-70104639D01*
X60980100Y-70248384D01*
X60681083Y-70048587D01*
X60210000Y-69954883D01*
X59738917Y-70048587D01*
X59439900Y-70248384D01*
X59439900Y-69970000D01*
X59404131Y-69790177D01*
X59389663Y-69768524D01*
X59302270Y-69637731D01*
X58811019Y-69146481D01*
X58901000Y-68694117D01*
X58901000Y-68645883D01*
X58807296Y-68174800D01*
X58720154Y-68044384D01*
X66387246Y-60377293D01*
X66665936Y-60377536D01*
X66955444Y-60257914D01*
X67177136Y-60036609D01*
X67297263Y-59747311D01*
X67297536Y-59434064D01*
X67177914Y-59144556D01*
X66956609Y-58922864D01*
X66667311Y-58802737D01*
X66354064Y-58802464D01*
X66064556Y-58922086D01*
X65842864Y-59143391D01*
X65722737Y-59432689D01*
X65722493Y-59712968D01*
X57962414Y-67473048D01*
X57670000Y-67414883D01*
X57198917Y-67508587D01*
X56799552Y-67775435D01*
X56532704Y-68174800D01*
X56439000Y-68645883D01*
X56439000Y-68694117D01*
X56532704Y-69165200D01*
X56799552Y-69564565D01*
X57198917Y-69831413D01*
X57670000Y-69925117D01*
X58141083Y-69831413D01*
X58156544Y-69821082D01*
X58306997Y-69971536D01*
X56820000Y-69971536D01*
X56678810Y-69998103D01*
X56549135Y-70081546D01*
X56462141Y-70208866D01*
X56435780Y-70339042D01*
X56309900Y-70213162D01*
X56309900Y-68214638D01*
X58102269Y-66422270D01*
X58102271Y-66422267D01*
X64557246Y-59967293D01*
X64835936Y-59967536D01*
X65125444Y-59847914D01*
X65347136Y-59626609D01*
X65467263Y-59337311D01*
X65467536Y-59024064D01*
X65347914Y-58734556D01*
X65126609Y-58512864D01*
X64837311Y-58392737D01*
X64524064Y-58392464D01*
X64234556Y-58512086D01*
X64012864Y-58733391D01*
X63892737Y-59022689D01*
X63892493Y-59302968D01*
X57437733Y-65757729D01*
X57437730Y-65757731D01*
X55507731Y-67687731D01*
X55405869Y-67840177D01*
X55370100Y-68020000D01*
X55370100Y-70407800D01*
X55393918Y-70527539D01*
X55405869Y-70587623D01*
X55507731Y-70740069D01*
X56309930Y-71542269D01*
X56431536Y-71623524D01*
X56431536Y-72060000D01*
X56458103Y-72201190D01*
X56541546Y-72330865D01*
X56668866Y-72417859D01*
X56799042Y-72444220D01*
X56467731Y-72775531D01*
X56365869Y-72927977D01*
X56330100Y-73107800D01*
X56330100Y-74164097D01*
X56308810Y-74168103D01*
X56250314Y-74205744D01*
X56201134Y-74172141D01*
X56050000Y-74141536D01*
X55350000Y-74141536D01*
X55325000Y-74146240D01*
X55325000Y-73580000D01*
X55276664Y-73336996D01*
X55139013Y-73130987D01*
X53985000Y-71976974D01*
X53985000Y-65143464D01*
X54260000Y-65143464D01*
X54401190Y-65116897D01*
X54530865Y-65033454D01*
X54617859Y-64906134D01*
X54625000Y-64870870D01*
X54625000Y-64881310D01*
X54721673Y-65114699D01*
X54900302Y-65293327D01*
X55133691Y-65390000D01*
X55724250Y-65390000D01*
X55883000Y-65231250D01*
X55883000Y-64257000D01*
X56137000Y-64257000D01*
X56137000Y-65231250D01*
X56295750Y-65390000D01*
X56886309Y-65390000D01*
X57119698Y-65293327D01*
X57298327Y-65114699D01*
X57395000Y-64881310D01*
X57395000Y-64415750D01*
X57236250Y-64257000D01*
X56137000Y-64257000D01*
X55883000Y-64257000D01*
X55863000Y-64257000D01*
X55863000Y-64003000D01*
X55883000Y-64003000D01*
X55883000Y-63028750D01*
X56137000Y-63028750D01*
X56137000Y-64003000D01*
X57236250Y-64003000D01*
X57395000Y-63844250D01*
X57395000Y-63378690D01*
X57298327Y-63145301D01*
X57119698Y-62966673D01*
X56886309Y-62870000D01*
X56295750Y-62870000D01*
X56137000Y-63028750D01*
X55883000Y-63028750D01*
X55724250Y-62870000D01*
X55133691Y-62870000D01*
X54900302Y-62966673D01*
X54721673Y-63145301D01*
X54625000Y-63378690D01*
X54625000Y-63380301D01*
X54621897Y-63363810D01*
X54538454Y-63234135D01*
X54411134Y-63147141D01*
X54260000Y-63116536D01*
X53985000Y-63116536D01*
X53985000Y-60701702D01*
X54472637Y-61392521D01*
X54638866Y-61526359D01*
X54790000Y-61556964D01*
X55790000Y-61556964D01*
X55995202Y-61498343D01*
X56107363Y-61392521D01*
X56660786Y-60608505D01*
X56660865Y-60608454D01*
X56662163Y-60606555D01*
X56707363Y-60542521D01*
X56708737Y-60538391D01*
X56747859Y-60481134D01*
X56778464Y-60330000D01*
X56778464Y-60196490D01*
X57510985Y-60929010D01*
X57510987Y-60929013D01*
X57658729Y-61027731D01*
X57716996Y-61066664D01*
X57960000Y-61115001D01*
X57960005Y-61115000D01*
X58306536Y-61115000D01*
X58306536Y-61230000D01*
X58333103Y-61371190D01*
X58416546Y-61500865D01*
X58543866Y-61587859D01*
X58695000Y-61618464D01*
X59945000Y-61618464D01*
X60086190Y-61591897D01*
X60215865Y-61508454D01*
X60302859Y-61381134D01*
X60333464Y-61230000D01*
X60333464Y-59730000D01*
X60306897Y-59588810D01*
X60223454Y-59459135D01*
X60096134Y-59372141D01*
X60060870Y-59365000D01*
X60071310Y-59365000D01*
X60304699Y-59268327D01*
X60483327Y-59089698D01*
X60580000Y-58856309D01*
X60580000Y-58265750D01*
X60421250Y-58107000D01*
X59447000Y-58107000D01*
X59447000Y-58127000D01*
X59193000Y-58127000D01*
X59193000Y-58107000D01*
X58218750Y-58107000D01*
X58060000Y-58265750D01*
X58060000Y-58856309D01*
X58156673Y-59089698D01*
X58335301Y-59268327D01*
X58568690Y-59365000D01*
X58570301Y-59365000D01*
X58553810Y-59368103D01*
X58424135Y-59451546D01*
X58337141Y-59578866D01*
X58306536Y-59730000D01*
X58306536Y-59845000D01*
X58223025Y-59845000D01*
X57339013Y-58960987D01*
X57133004Y-58823336D01*
X56890000Y-58775000D01*
X56778464Y-58775000D01*
X56778464Y-58490000D01*
X56770143Y-58445779D01*
X56769839Y-58418896D01*
X56761471Y-58399692D01*
X56751897Y-58348810D01*
X56712880Y-58288176D01*
X56708242Y-58277531D01*
X56680854Y-58238405D01*
X56668454Y-58219135D01*
X56666366Y-58217709D01*
X56501020Y-57981500D01*
X56504250Y-57981500D01*
X56663000Y-57822750D01*
X56663000Y-56723500D01*
X56917000Y-56723500D01*
X56917000Y-57822750D01*
X57075750Y-57981500D01*
X57416309Y-57981500D01*
X57649698Y-57884827D01*
X57828327Y-57706199D01*
X57925000Y-57472810D01*
X57925000Y-57103691D01*
X58060000Y-57103691D01*
X58060000Y-57694250D01*
X58218750Y-57853000D01*
X59193000Y-57853000D01*
X59193000Y-56753750D01*
X59447000Y-56753750D01*
X59447000Y-57853000D01*
X60421250Y-57853000D01*
X60580000Y-57694250D01*
X60580000Y-57103691D01*
X60483327Y-56870302D01*
X60304699Y-56691673D01*
X60071310Y-56595000D01*
X59605750Y-56595000D01*
X59447000Y-56753750D01*
X59193000Y-56753750D01*
X59034250Y-56595000D01*
X58568690Y-56595000D01*
X58335301Y-56691673D01*
X58156673Y-56870302D01*
X58060000Y-57103691D01*
X57925000Y-57103691D01*
X57925000Y-56882250D01*
X57766250Y-56723500D01*
X56917000Y-56723500D01*
X56663000Y-56723500D01*
X56643000Y-56723500D01*
X56643000Y-56469500D01*
X56663000Y-56469500D01*
X56663000Y-55370250D01*
X56917000Y-55370250D01*
X56917000Y-56469500D01*
X57766250Y-56469500D01*
X57925000Y-56310750D01*
X57925000Y-55720190D01*
X57828327Y-55486801D01*
X57649698Y-55308173D01*
X57416309Y-55211500D01*
X57075750Y-55211500D01*
X56917000Y-55370250D01*
X56663000Y-55370250D01*
X56504250Y-55211500D01*
X56163691Y-55211500D01*
X55930302Y-55308173D01*
X55925000Y-55313475D01*
X55925000Y-53632086D01*
X55925001Y-53632081D01*
X55876664Y-53389077D01*
X55739013Y-53183068D01*
X55277841Y-52721896D01*
X55474565Y-52590448D01*
X55741413Y-52191083D01*
X55835117Y-51720000D01*
X55741413Y-51248917D01*
X55474565Y-50849552D01*
X55075200Y-50582704D01*
X54604117Y-50489000D01*
X54555883Y-50489000D01*
X54084800Y-50582704D01*
X53685435Y-50849552D01*
X53635000Y-50925033D01*
X53635000Y-50893026D01*
X54189837Y-50338189D01*
X54555883Y-50411000D01*
X54604117Y-50411000D01*
X55075200Y-50317296D01*
X55474565Y-50050448D01*
X55741413Y-49651083D01*
X55835117Y-49180000D01*
X55741413Y-48708917D01*
X55474565Y-48309552D01*
X55198364Y-48125000D01*
X55556309Y-48125000D01*
X55789698Y-48028327D01*
X55968327Y-47849699D01*
X56065000Y-47616310D01*
X56065000Y-46925750D01*
X55906250Y-46767000D01*
X54707000Y-46767000D01*
X54707000Y-46787000D01*
X54453000Y-46787000D01*
X54453000Y-46767000D01*
X53253750Y-46767000D01*
X53095000Y-46925750D01*
X53095000Y-47616310D01*
X53191673Y-47849699D01*
X53370302Y-48028327D01*
X53603691Y-48125000D01*
X53961636Y-48125000D01*
X53685435Y-48309552D01*
X53418587Y-48708917D01*
X53324883Y-49180000D01*
X53362560Y-49369414D01*
X52550987Y-50180987D01*
X52413336Y-50386996D01*
X52365000Y-50630000D01*
X52365000Y-54890000D01*
X52413336Y-55133004D01*
X52550987Y-55339013D01*
X52927964Y-55715990D01*
X52901536Y-55846500D01*
X52901536Y-57346500D01*
X52928103Y-57487690D01*
X53011546Y-57617365D01*
X53054951Y-57647023D01*
X52900987Y-57800987D01*
X52763336Y-58006996D01*
X52715000Y-58250000D01*
X52715000Y-63125003D01*
X52618810Y-63143103D01*
X52489135Y-63226546D01*
X52402141Y-63353866D01*
X52371536Y-63505000D01*
X52371536Y-64755000D01*
X52398103Y-64896190D01*
X52481546Y-65025865D01*
X52608866Y-65112859D01*
X52715000Y-65134351D01*
X52715000Y-72240000D01*
X52763336Y-72483004D01*
X52900987Y-72689013D01*
X54055000Y-73843026D01*
X54055000Y-74402674D01*
X54000000Y-74391536D01*
X52500000Y-74391536D01*
X52358810Y-74418103D01*
X52229135Y-74501546D01*
X52142141Y-74628866D01*
X52111536Y-74780000D01*
X52026000Y-74780000D01*
X52026000Y-45663690D01*
X53095000Y-45663690D01*
X53095000Y-46354250D01*
X53253750Y-46513000D01*
X54453000Y-46513000D01*
X54453000Y-45313750D01*
X54707000Y-45313750D01*
X54707000Y-46513000D01*
X55906250Y-46513000D01*
X56065000Y-46354250D01*
X56065000Y-45663690D01*
X55968327Y-45430301D01*
X55789698Y-45251673D01*
X55556309Y-45155000D01*
X54865750Y-45155000D01*
X54707000Y-45313750D01*
X54453000Y-45313750D01*
X54294250Y-45155000D01*
X53603691Y-45155000D01*
X53370302Y-45251673D01*
X53191673Y-45430301D01*
X53095000Y-45663690D01*
X52026000Y-45663690D01*
X52026000Y-38935750D01*
X53983000Y-38935750D01*
X53983000Y-39538310D01*
X54079673Y-39771699D01*
X54258302Y-39950327D01*
X54491691Y-40047000D01*
X55094250Y-40047000D01*
X55253000Y-39888250D01*
X55253000Y-38777000D01*
X54141750Y-38777000D01*
X53983000Y-38935750D01*
X52026000Y-38935750D01*
X52026000Y-35698882D01*
X52758881Y-34966000D01*
X85106371Y-34966000D01*
X85059392Y-35129787D01*
X85059392Y-35129787D01*
G37*
X85059392Y-35129787D02*
X85860000Y-35930395D01*
X86660608Y-35129787D01*
X86613629Y-34966000D01*
X98641118Y-34966000D01*
X99374000Y-35698881D01*
X99374000Y-86661119D01*
X98641118Y-87394000D01*
X52758881Y-87394000D01*
X52716420Y-87351539D01*
X52800000Y-87368464D01*
X53800000Y-87368464D01*
X53941190Y-87341897D01*
X54070865Y-87258454D01*
X54157859Y-87131134D01*
X54188464Y-86980000D01*
X54188464Y-85430000D01*
X54161897Y-85288810D01*
X54078454Y-85159135D01*
X53951134Y-85072141D01*
X53800000Y-85041536D01*
X52800000Y-85041536D01*
X52658810Y-85068103D01*
X52529135Y-85151546D01*
X52442141Y-85278866D01*
X52411536Y-85430000D01*
X52411536Y-86980000D01*
X52426985Y-87062104D01*
X52026000Y-86661118D01*
X52026000Y-83080000D01*
X52111536Y-83080000D01*
X52111536Y-84480000D01*
X52138103Y-84621190D01*
X52221546Y-84750865D01*
X52348866Y-84837859D01*
X52500000Y-84868464D01*
X53300000Y-84868464D01*
X53441190Y-84841897D01*
X53570865Y-84758454D01*
X53657859Y-84631134D01*
X53688464Y-84480000D01*
X53688464Y-83080000D01*
X53661897Y-82938810D01*
X53578454Y-82809135D01*
X53451134Y-82722141D01*
X53300000Y-82691536D01*
X52500000Y-82691536D01*
X52358810Y-82718103D01*
X52229135Y-82801546D01*
X52142141Y-82928866D01*
X52111536Y-83080000D01*
X52026000Y-83080000D01*
X52026000Y-79500000D01*
X54373000Y-79500000D01*
X54373000Y-82500000D01*
X54381685Y-82546159D01*
X54408965Y-82588553D01*
X54450590Y-82616994D01*
X54500000Y-82627000D01*
X56947394Y-82627000D01*
X57373000Y-83052606D01*
X57373000Y-86500000D01*
X57381685Y-86546159D01*
X57408965Y-86588553D01*
X57450590Y-86616994D01*
X57500000Y-86627000D01*
X60000000Y-86627000D01*
X60046159Y-86618315D01*
X60088553Y-86591035D01*
X60116994Y-86549410D01*
X60127000Y-86500000D01*
X60127000Y-83052606D01*
X60552606Y-82627000D01*
X64000000Y-82627000D01*
X64046159Y-82618315D01*
X64061536Y-82608420D01*
X64061536Y-83741536D01*
X63800000Y-83741536D01*
X63658810Y-83768103D01*
X63529135Y-83851546D01*
X63442141Y-83978866D01*
X63411536Y-84130000D01*
X63411536Y-85130000D01*
X63438103Y-85271190D01*
X63521546Y-85400865D01*
X63648866Y-85487859D01*
X63800000Y-85518464D01*
X65250000Y-85518464D01*
X65391190Y-85491897D01*
X65520865Y-85408454D01*
X65607859Y-85281134D01*
X65638464Y-85130000D01*
X65638464Y-84130000D01*
X65614080Y-84000412D01*
X65638464Y-83880000D01*
X65638464Y-82380000D01*
X65611897Y-82238810D01*
X65528454Y-82109135D01*
X65401134Y-82022141D01*
X65250000Y-81991536D01*
X65127000Y-81991536D01*
X65127000Y-79500000D01*
X65118315Y-79453841D01*
X65091035Y-79411447D01*
X65049410Y-79383006D01*
X65000000Y-79373000D01*
X54500000Y-79373000D01*
X54453841Y-79381685D01*
X54411447Y-79408965D01*
X54383006Y-79450590D01*
X54373000Y-79500000D01*
X52026000Y-79500000D01*
X52026000Y-74780000D01*
X52111536Y-74780000D01*
X52111536Y-76280000D01*
X52138103Y-76421190D01*
X52221546Y-76550865D01*
X52348866Y-76637859D01*
X52500000Y-76668464D01*
X54000000Y-76668464D01*
X54055000Y-76658115D01*
X54055000Y-76690000D01*
X54103336Y-76933004D01*
X54240987Y-77139013D01*
X54580987Y-77479013D01*
X54786996Y-77616664D01*
X55030000Y-77665001D01*
X55030005Y-77665000D01*
X58520000Y-77665000D01*
X58763004Y-77616664D01*
X58969013Y-77479013D01*
X59449010Y-76999015D01*
X59449013Y-76999013D01*
X59586664Y-76793004D01*
X59607153Y-76690000D01*
X59616802Y-76641491D01*
X59750000Y-76668464D01*
X60340438Y-76668464D01*
X60490302Y-76818327D01*
X60723691Y-76915000D01*
X60914250Y-76915000D01*
X61073000Y-76756250D01*
X61073000Y-75532000D01*
X61053000Y-75532000D01*
X61053000Y-75278000D01*
X61073000Y-75278000D01*
X61073000Y-74053750D01*
X60914250Y-73895000D01*
X60723691Y-73895000D01*
X60569900Y-73958702D01*
X60569900Y-73544638D01*
X61782269Y-72332270D01*
X61796234Y-72311370D01*
X61983076Y-72481645D01*
X62393110Y-72651476D01*
X62623000Y-72530155D01*
X62623000Y-71337000D01*
X62603000Y-71337000D01*
X62603000Y-71083000D01*
X62623000Y-71083000D01*
X62623000Y-71063000D01*
X62877000Y-71063000D01*
X62877000Y-71083000D01*
X62897000Y-71083000D01*
X62897000Y-71337000D01*
X62877000Y-71337000D01*
X62877000Y-72530155D01*
X63106890Y-72651476D01*
X63498304Y-72489357D01*
X61967731Y-74019931D01*
X61955805Y-74037780D01*
X61909698Y-73991673D01*
X61676309Y-73895000D01*
X61485750Y-73895000D01*
X61327000Y-74053750D01*
X61327000Y-75278000D01*
X61347000Y-75278000D01*
X61347000Y-75532000D01*
X61327000Y-75532000D01*
X61327000Y-76756250D01*
X61485750Y-76915000D01*
X61676309Y-76915000D01*
X61909698Y-76818327D01*
X62059562Y-76668464D01*
X62650000Y-76668464D01*
X62791190Y-76641897D01*
X62849686Y-76604256D01*
X62898866Y-76637859D01*
X63050000Y-76668464D01*
X63750000Y-76668464D01*
X63853670Y-76648957D01*
X63950000Y-76668464D01*
X65250000Y-76668464D01*
X65391190Y-76641897D01*
X65520865Y-76558454D01*
X65607859Y-76431134D01*
X65638464Y-76280000D01*
X65638464Y-74780000D01*
X65611897Y-74638810D01*
X65528454Y-74509135D01*
X65401134Y-74422141D01*
X65250000Y-74391536D01*
X64112410Y-74391536D01*
X64111897Y-74388810D01*
X64028454Y-74259135D01*
X63901134Y-74172141D01*
X63750000Y-74141536D01*
X63175202Y-74141536D01*
X64482269Y-72834470D01*
X64584131Y-72682023D01*
X64590207Y-72651476D01*
X64619900Y-72502200D01*
X64619900Y-70070000D01*
X64584131Y-69890177D01*
X64482269Y-69737731D01*
X63891019Y-69146481D01*
X63981000Y-68694117D01*
X63981000Y-68645883D01*
X63887296Y-68174800D01*
X63620448Y-67775435D01*
X63259900Y-67534524D01*
X63259900Y-67444638D01*
X65218788Y-65485750D01*
X65935000Y-65485750D01*
X65935000Y-66176309D01*
X66031673Y-66409698D01*
X66210301Y-66588327D01*
X66443690Y-66685000D01*
X67134250Y-66685000D01*
X67293000Y-66526250D01*
X67293000Y-65327000D01*
X66093750Y-65327000D01*
X65935000Y-65485750D01*
X65218788Y-65485750D01*
X65935000Y-64769538D01*
X65935000Y-64914250D01*
X66093750Y-65073000D01*
X67293000Y-65073000D01*
X67293000Y-63873750D01*
X67134250Y-63715000D01*
X66989538Y-63715000D01*
X71065260Y-59639279D01*
X71160000Y-59658464D01*
X73160000Y-59658464D01*
X73301190Y-59631897D01*
X73430865Y-59548454D01*
X73517859Y-59421134D01*
X73548464Y-59270000D01*
X73548464Y-58770000D01*
X73521897Y-58628810D01*
X73517395Y-58621813D01*
X73517859Y-58621134D01*
X73548464Y-58470000D01*
X73548464Y-57970000D01*
X73521897Y-57828810D01*
X73517395Y-57821813D01*
X73517859Y-57821134D01*
X73548464Y-57670000D01*
X73548464Y-57170000D01*
X73521897Y-57028810D01*
X73517395Y-57021813D01*
X73517859Y-57021134D01*
X73548464Y-56870000D01*
X73548464Y-56370000D01*
X73521897Y-56228810D01*
X73517395Y-56221813D01*
X73517859Y-56221134D01*
X73548464Y-56070000D01*
X73548464Y-55570000D01*
X73521897Y-55428810D01*
X73517395Y-55421813D01*
X73517859Y-55421134D01*
X73548464Y-55270000D01*
X73548464Y-54770000D01*
X73521897Y-54628810D01*
X73517395Y-54621813D01*
X73517859Y-54621134D01*
X73548464Y-54470000D01*
X73548464Y-53970000D01*
X73521897Y-53828810D01*
X73517395Y-53821813D01*
X73517859Y-53821134D01*
X73548464Y-53670000D01*
X73548464Y-53170000D01*
X73521897Y-53028810D01*
X73517395Y-53021813D01*
X73517859Y-53021134D01*
X73548464Y-52870000D01*
X73548464Y-52455000D01*
X74010000Y-52455000D01*
X74253004Y-52406664D01*
X74459013Y-52269013D01*
X74519017Y-52209009D01*
X74686057Y-52209154D01*
X74686430Y-52209000D01*
X79431764Y-52209000D01*
X79711000Y-52488236D01*
X79711000Y-55230000D01*
X79778671Y-55570206D01*
X79937779Y-55808327D01*
X79971382Y-55858618D01*
X81101382Y-56988618D01*
X81389794Y-57181329D01*
X81502685Y-57203784D01*
X81506995Y-57206664D01*
X81750000Y-57255000D01*
X82182000Y-57255000D01*
X82182000Y-59580000D01*
X82192251Y-59631536D01*
X81910000Y-59631536D01*
X81768810Y-59658103D01*
X81761813Y-59662605D01*
X81761134Y-59662141D01*
X81610000Y-59631536D01*
X81110000Y-59631536D01*
X80968810Y-59658103D01*
X80961813Y-59662605D01*
X80961134Y-59662141D01*
X80810000Y-59631536D01*
X80310000Y-59631536D01*
X80168810Y-59658103D01*
X80161813Y-59662605D01*
X80161134Y-59662141D01*
X80010000Y-59631536D01*
X79510000Y-59631536D01*
X79368810Y-59658103D01*
X79361813Y-59662605D01*
X79361134Y-59662141D01*
X79210000Y-59631536D01*
X78710000Y-59631536D01*
X78568810Y-59658103D01*
X78561813Y-59662605D01*
X78561134Y-59662141D01*
X78410000Y-59631536D01*
X77910000Y-59631536D01*
X77768810Y-59658103D01*
X77761813Y-59662605D01*
X77761134Y-59662141D01*
X77610000Y-59631536D01*
X77319561Y-59631536D01*
X77169699Y-59481673D01*
X76936310Y-59385000D01*
X76843750Y-59385000D01*
X76685000Y-59543750D01*
X76685000Y-60893000D01*
X76707000Y-60893000D01*
X76707000Y-61147000D01*
X76685000Y-61147000D01*
X76685000Y-62496250D01*
X76843750Y-62655000D01*
X76890100Y-62655000D01*
X76890100Y-63275562D01*
X76269538Y-62655000D01*
X76276250Y-62655000D01*
X76435000Y-62496250D01*
X76435000Y-61147000D01*
X76413000Y-61147000D01*
X76413000Y-60893000D01*
X76435000Y-60893000D01*
X76435000Y-59543750D01*
X76276250Y-59385000D01*
X76183690Y-59385000D01*
X75950301Y-59481673D01*
X75800439Y-59631536D01*
X75510000Y-59631536D01*
X75368810Y-59658103D01*
X75361813Y-59662605D01*
X75361134Y-59662141D01*
X75210000Y-59631536D01*
X74710000Y-59631536D01*
X74568810Y-59658103D01*
X74561813Y-59662605D01*
X74561134Y-59662141D01*
X74410000Y-59631536D01*
X73910000Y-59631536D01*
X73768810Y-59658103D01*
X73639135Y-59741546D01*
X73552141Y-59868866D01*
X73521536Y-60020000D01*
X73521536Y-62020000D01*
X73548103Y-62161190D01*
X73631546Y-62290865D01*
X73690100Y-62330873D01*
X73690100Y-63230000D01*
X73721926Y-63390000D01*
X73725869Y-63409823D01*
X73827731Y-63562269D01*
X75720100Y-65454639D01*
X75720100Y-68213894D01*
X75630337Y-68123974D01*
X75163727Y-67930221D01*
X74658490Y-67929780D01*
X74191542Y-68122718D01*
X74069900Y-68244148D01*
X74069900Y-66300000D01*
X74034131Y-66120177D01*
X73932270Y-65967731D01*
X73682270Y-65717732D01*
X73682268Y-65717729D01*
X73641020Y-65676481D01*
X73731000Y-65224117D01*
X73731000Y-65175883D01*
X73637296Y-64704800D01*
X73370448Y-64305435D01*
X72971083Y-64038587D01*
X72500000Y-63944883D01*
X72028917Y-64038587D01*
X71629552Y-64305435D01*
X71362704Y-64704800D01*
X71269000Y-65175883D01*
X71269000Y-65224117D01*
X71362704Y-65695200D01*
X71629552Y-66094565D01*
X72028917Y-66361413D01*
X72500000Y-66455117D01*
X72971083Y-66361413D01*
X72986544Y-66351083D01*
X73017729Y-66382268D01*
X73017732Y-66382270D01*
X73130100Y-66494638D01*
X73130100Y-67855139D01*
X72608035Y-67664484D01*
X72002300Y-67690277D01*
X71562467Y-67872461D01*
X71559900Y-67880167D01*
X71559900Y-66330000D01*
X71524131Y-66150177D01*
X71422269Y-65997730D01*
X71101019Y-65676481D01*
X71191000Y-65224117D01*
X71191000Y-65175883D01*
X71097296Y-64704800D01*
X70830448Y-64305435D01*
X70431083Y-64038587D01*
X69960000Y-63944883D01*
X69488917Y-64038587D01*
X69089552Y-64305435D01*
X68905000Y-64581636D01*
X68905000Y-64223691D01*
X68808327Y-63990302D01*
X68629699Y-63811673D01*
X68396310Y-63715000D01*
X67705750Y-63715000D01*
X67547000Y-63873750D01*
X67547000Y-65073000D01*
X67567000Y-65073000D01*
X67567000Y-65327000D01*
X67547000Y-65327000D01*
X67547000Y-66526250D01*
X67705750Y-66685000D01*
X68396310Y-66685000D01*
X68629699Y-66588327D01*
X68808327Y-66409698D01*
X68905000Y-66176309D01*
X68905000Y-65818364D01*
X69089552Y-66094565D01*
X69488917Y-66361413D01*
X69960000Y-66455117D01*
X70431083Y-66361413D01*
X70446544Y-66351082D01*
X70620100Y-66524639D01*
X70620100Y-68193859D01*
X70550337Y-68123974D01*
X70083727Y-67930221D01*
X69578490Y-67929780D01*
X69111542Y-68122718D01*
X68753974Y-68479663D01*
X68560221Y-68946273D01*
X68559780Y-69451510D01*
X68752718Y-69918458D01*
X69109663Y-70276026D01*
X69576273Y-70469779D01*
X70081510Y-70470220D01*
X70548458Y-70277282D01*
X70620100Y-70205765D01*
X70620100Y-81918561D01*
X69497731Y-83040931D01*
X69416476Y-83162536D01*
X68941000Y-83162536D01*
X68799810Y-83189103D01*
X68670135Y-83272546D01*
X68583141Y-83399866D01*
X68552536Y-83551000D01*
X68552536Y-85329000D01*
X68579103Y-85470190D01*
X68662546Y-85599865D01*
X68789866Y-85686859D01*
X68941000Y-85717464D01*
X70719000Y-85717464D01*
X70860190Y-85690897D01*
X70989865Y-85607454D01*
X71076859Y-85480134D01*
X71107464Y-85329000D01*
X71107464Y-84710107D01*
X71292718Y-85158458D01*
X71649663Y-85516026D01*
X72116273Y-85709779D01*
X72621510Y-85710220D01*
X73088458Y-85517282D01*
X73093552Y-85512196D01*
X74017409Y-85512196D01*
X74102467Y-85767539D01*
X74671965Y-85975516D01*
X75277700Y-85949723D01*
X75717533Y-85767539D01*
X75802591Y-85512196D01*
X76557409Y-85512196D01*
X76642467Y-85767539D01*
X77211965Y-85975516D01*
X77817700Y-85949723D01*
X78257533Y-85767539D01*
X78342591Y-85512196D01*
X77450000Y-84619605D01*
X76557409Y-85512196D01*
X75802591Y-85512196D01*
X74910000Y-84619605D01*
X74017409Y-85512196D01*
X73093552Y-85512196D01*
X73446026Y-85160337D01*
X73496247Y-85039392D01*
X73582461Y-85247533D01*
X73837804Y-85332591D01*
X74730395Y-84440000D01*
X75089605Y-84440000D01*
X75982196Y-85332591D01*
X76180000Y-85266700D01*
X76377804Y-85332591D01*
X77270395Y-84440000D01*
X76377804Y-83547409D01*
X76180000Y-83613300D01*
X75982196Y-83547409D01*
X75089605Y-84440000D01*
X74730395Y-84440000D01*
X74716253Y-84425858D01*
X74895858Y-84246253D01*
X74910000Y-84260395D01*
X75802591Y-83367804D01*
X76557409Y-83367804D01*
X77450000Y-84260395D01*
X78342591Y-83367804D01*
X78257533Y-83112461D01*
X77688035Y-82904484D01*
X77082300Y-82930277D01*
X76642467Y-83112461D01*
X76557409Y-83367804D01*
X75802591Y-83367804D01*
X75717533Y-83112461D01*
X75148035Y-82904484D01*
X74542300Y-82930277D01*
X74102467Y-83112461D01*
X74069788Y-83210563D01*
X74069900Y-83210000D01*
X74069900Y-70156054D01*
X74189663Y-70276026D01*
X74656273Y-70469779D01*
X75161510Y-70470220D01*
X75628458Y-70277282D01*
X75720100Y-70185800D01*
X75720100Y-70480000D01*
X75748611Y-70623336D01*
X75755869Y-70659823D01*
X75857731Y-70812269D01*
X88928732Y-83883271D01*
X88928735Y-83883273D01*
X88983357Y-83937895D01*
X88880221Y-84186273D01*
X88880219Y-84188488D01*
X88687282Y-83721542D01*
X88330337Y-83363974D01*
X87863727Y-83170221D01*
X87358490Y-83169780D01*
X86891542Y-83362718D01*
X86533974Y-83719663D01*
X86340221Y-84186273D01*
X86340219Y-84188488D01*
X86147282Y-83721542D01*
X85790337Y-83363974D01*
X85323727Y-83170221D01*
X84818490Y-83169780D01*
X84351542Y-83362718D01*
X83993974Y-83719663D01*
X83800221Y-84186273D01*
X83800219Y-84188488D01*
X83607282Y-83721542D01*
X83250337Y-83363974D01*
X82783727Y-83170221D01*
X82278490Y-83169780D01*
X81811542Y-83362718D01*
X81453974Y-83719663D01*
X81260221Y-84186273D01*
X81260219Y-84188488D01*
X81067282Y-83721542D01*
X80710337Y-83363974D01*
X80243727Y-83170221D01*
X79738490Y-83169780D01*
X79271542Y-83362718D01*
X78913974Y-83719663D01*
X78863753Y-83840608D01*
X78777539Y-83632467D01*
X78522196Y-83547409D01*
X77629605Y-84440000D01*
X78522196Y-85332591D01*
X78777539Y-85247533D01*
X78858229Y-85026583D01*
X78912718Y-85158458D01*
X79269663Y-85516026D01*
X79736273Y-85709779D01*
X80241510Y-85710220D01*
X80708458Y-85517282D01*
X81066026Y-85160337D01*
X81259779Y-84693727D01*
X81259781Y-84691512D01*
X81452718Y-85158458D01*
X81809663Y-85516026D01*
X82276273Y-85709779D01*
X82781510Y-85710220D01*
X83248458Y-85517282D01*
X83606026Y-85160337D01*
X83799779Y-84693727D01*
X83799781Y-84691512D01*
X83992718Y-85158458D01*
X84349663Y-85516026D01*
X84816273Y-85709779D01*
X85321510Y-85710220D01*
X85788458Y-85517282D01*
X86146026Y-85160337D01*
X86339779Y-84693727D01*
X86339781Y-84691512D01*
X86532718Y-85158458D01*
X86889663Y-85516026D01*
X87356273Y-85709779D01*
X87861510Y-85710220D01*
X88328458Y-85517282D01*
X88686026Y-85160337D01*
X88879779Y-84693727D01*
X88879781Y-84691512D01*
X89072718Y-85158458D01*
X89429663Y-85516026D01*
X89896273Y-85709779D01*
X90401510Y-85710220D01*
X90868458Y-85517282D01*
X91226026Y-85160337D01*
X91419779Y-84693727D01*
X91419781Y-84691512D01*
X91612718Y-85158458D01*
X91969663Y-85516026D01*
X92436273Y-85709779D01*
X92941510Y-85710220D01*
X93408458Y-85517282D01*
X93766026Y-85160337D01*
X93959779Y-84693727D01*
X93959781Y-84691512D01*
X94152718Y-85158458D01*
X94509663Y-85516026D01*
X94976273Y-85709779D01*
X95481510Y-85710220D01*
X95948458Y-85517282D01*
X96306026Y-85160337D01*
X96499779Y-84693727D01*
X96499781Y-84691512D01*
X96692718Y-85158458D01*
X97049663Y-85516026D01*
X97516273Y-85709779D01*
X98021510Y-85710220D01*
X98488458Y-85517282D01*
X98846026Y-85160337D01*
X99039779Y-84693727D01*
X99040220Y-84188490D01*
X98847282Y-83721542D01*
X98490337Y-83363974D01*
X98023727Y-83170221D01*
X97518490Y-83169780D01*
X97267872Y-83273333D01*
X90072269Y-76077731D01*
X89919823Y-75975869D01*
X89740000Y-75940100D01*
X87254639Y-75940100D01*
X81709900Y-70395362D01*
X81709900Y-70176089D01*
X81809663Y-70276026D01*
X82276273Y-70469779D01*
X82781510Y-70470220D01*
X83248458Y-70277282D01*
X83606026Y-69920337D01*
X83799779Y-69453727D01*
X83799781Y-69451512D01*
X83992718Y-69918458D01*
X84349663Y-70276026D01*
X84816273Y-70469779D01*
X85321510Y-70470220D01*
X85788458Y-70277282D01*
X86146026Y-69920337D01*
X86339779Y-69453727D01*
X86339781Y-69451512D01*
X86532718Y-69918458D01*
X86889663Y-70276026D01*
X87356273Y-70469779D01*
X87861510Y-70470220D01*
X88328458Y-70277282D01*
X88686026Y-69920337D01*
X88879779Y-69453727D01*
X88879781Y-69451512D01*
X89072718Y-69918458D01*
X89429663Y-70276026D01*
X89896273Y-70469779D01*
X90401510Y-70470220D01*
X90868458Y-70277282D01*
X91226026Y-69920337D01*
X91419779Y-69453727D01*
X91419781Y-69451512D01*
X91612718Y-69918458D01*
X91969663Y-70276026D01*
X92436273Y-70469779D01*
X92941510Y-70470220D01*
X93408458Y-70277282D01*
X93766026Y-69920337D01*
X93959779Y-69453727D01*
X93959781Y-69451512D01*
X94152718Y-69918458D01*
X94509663Y-70276026D01*
X94976273Y-70469779D01*
X95481510Y-70470220D01*
X95948458Y-70277282D01*
X96306026Y-69920337D01*
X96499779Y-69453727D01*
X96499781Y-69451512D01*
X96692718Y-69918458D01*
X97049663Y-70276026D01*
X97516273Y-70469779D01*
X98021510Y-70470220D01*
X98488458Y-70277282D01*
X98846026Y-69920337D01*
X99039779Y-69453727D01*
X99040220Y-68948490D01*
X98847282Y-68481542D01*
X98490337Y-68123974D01*
X98023727Y-67930221D01*
X97518490Y-67929780D01*
X97267872Y-68033333D01*
X94252269Y-65017731D01*
X94099823Y-64915869D01*
X94091684Y-64914250D01*
X93920000Y-64880100D01*
X82874639Y-64880100D01*
X82812072Y-64817533D01*
X82815936Y-64817536D01*
X83105444Y-64697914D01*
X83303804Y-64499900D01*
X92000000Y-64499900D01*
X92179823Y-64464131D01*
X92332269Y-64362269D01*
X94193519Y-62501019D01*
X94645883Y-62591000D01*
X94694117Y-62591000D01*
X95165200Y-62497296D01*
X95564565Y-62230448D01*
X95821788Y-61845488D01*
X95938355Y-62126924D01*
X96328642Y-62555183D01*
X96853108Y-62801486D01*
X97083000Y-62680819D01*
X97083000Y-61487000D01*
X97337000Y-61487000D01*
X97337000Y-62680819D01*
X97566892Y-62801486D01*
X98091358Y-62555183D01*
X98481645Y-62126924D01*
X98651476Y-61716890D01*
X98530155Y-61487000D01*
X97337000Y-61487000D01*
X97083000Y-61487000D01*
X97063000Y-61487000D01*
X97063000Y-61233000D01*
X97083000Y-61233000D01*
X97083000Y-61213000D01*
X97337000Y-61213000D01*
X97337000Y-61233000D01*
X98530155Y-61233000D01*
X98651476Y-61003110D01*
X98481645Y-60593076D01*
X98091358Y-60164817D01*
X97666053Y-59965083D01*
X97705200Y-59957296D01*
X98104565Y-59690448D01*
X98371413Y-59291083D01*
X98465117Y-58820000D01*
X98371413Y-58348917D01*
X98104565Y-57949552D01*
X97705200Y-57682704D01*
X97234117Y-57589000D01*
X97185883Y-57589000D01*
X96714800Y-57682704D01*
X96315435Y-57949552D01*
X96048587Y-58348917D01*
X95954883Y-58820000D01*
X96048587Y-59291083D01*
X96315435Y-59690448D01*
X96714800Y-59957296D01*
X96753947Y-59965083D01*
X96328642Y-60164817D01*
X95938355Y-60593076D01*
X95821788Y-60874512D01*
X95564565Y-60489552D01*
X95165200Y-60222704D01*
X94694117Y-60129000D01*
X94645883Y-60129000D01*
X94174800Y-60222704D01*
X93775435Y-60489552D01*
X93508587Y-60888917D01*
X93414883Y-61360000D01*
X93508587Y-61831083D01*
X93518918Y-61846544D01*
X91805362Y-63560100D01*
X90344438Y-63560100D01*
X93702270Y-60202269D01*
X93804131Y-60049823D01*
X93839900Y-59870000D01*
X93839900Y-59733522D01*
X94174800Y-59957296D01*
X94645883Y-60051000D01*
X94694117Y-60051000D01*
X95165200Y-59957296D01*
X95564565Y-59690448D01*
X95831413Y-59291083D01*
X95925117Y-58820000D01*
X95831413Y-58348917D01*
X95564565Y-57949552D01*
X95165200Y-57682704D01*
X94694117Y-57589000D01*
X94645883Y-57589000D01*
X94174800Y-57682704D01*
X93839900Y-57906478D01*
X93839900Y-57774638D01*
X94193519Y-57421019D01*
X94645883Y-57511000D01*
X94694117Y-57511000D01*
X95165200Y-57417296D01*
X95564565Y-57150448D01*
X95831413Y-56751083D01*
X95925117Y-56280000D01*
X95954883Y-56280000D01*
X96048587Y-56751083D01*
X96315435Y-57150448D01*
X96714800Y-57417296D01*
X97185883Y-57511000D01*
X97234117Y-57511000D01*
X97705200Y-57417296D01*
X98104565Y-57150448D01*
X98371413Y-56751083D01*
X98465117Y-56280000D01*
X98371413Y-55808917D01*
X98104565Y-55409552D01*
X97705200Y-55142704D01*
X97234117Y-55049000D01*
X97185883Y-55049000D01*
X96714800Y-55142704D01*
X96315435Y-55409552D01*
X96048587Y-55808917D01*
X95954883Y-56280000D01*
X95925117Y-56280000D01*
X95831413Y-55808917D01*
X95564565Y-55409552D01*
X95165200Y-55142704D01*
X94694117Y-55049000D01*
X94645883Y-55049000D01*
X94174800Y-55142704D01*
X93775435Y-55409552D01*
X93508587Y-55808917D01*
X93414883Y-56280000D01*
X93508587Y-56751083D01*
X93518918Y-56766544D01*
X93299900Y-56985562D01*
X93299900Y-55774638D01*
X94152271Y-54922268D01*
X94152273Y-54922265D01*
X94193519Y-54881019D01*
X94645883Y-54971000D01*
X94694117Y-54971000D01*
X95165200Y-54877296D01*
X95564565Y-54610448D01*
X95831413Y-54211083D01*
X95925117Y-53740000D01*
X95831413Y-53268917D01*
X95564565Y-52869552D01*
X95165200Y-52602704D01*
X94694117Y-52509000D01*
X94645883Y-52509000D01*
X94174800Y-52602704D01*
X93775435Y-52869552D01*
X93508587Y-53268917D01*
X93414883Y-53740000D01*
X93508587Y-54211083D01*
X93518918Y-54226544D01*
X93487735Y-54257727D01*
X93487732Y-54257729D01*
X92589900Y-55155562D01*
X92589900Y-52916838D01*
X93435527Y-52071211D01*
X93458103Y-52191190D01*
X93541546Y-52320865D01*
X93668866Y-52407859D01*
X93820000Y-52438464D01*
X95520000Y-52438464D01*
X95547199Y-52433346D01*
X95547199Y-52585199D01*
X95585868Y-52779602D01*
X95695989Y-52944409D01*
X96043927Y-53292347D01*
X95954883Y-53740000D01*
X96048587Y-54211083D01*
X96315435Y-54610448D01*
X96714800Y-54877296D01*
X97185883Y-54971000D01*
X97234117Y-54971000D01*
X97705200Y-54877296D01*
X98104565Y-54610448D01*
X98371413Y-54211083D01*
X98465117Y-53740000D01*
X98371413Y-53268917D01*
X98104565Y-52869552D01*
X97705200Y-52602704D01*
X97666053Y-52594917D01*
X98091358Y-52395183D01*
X98481645Y-51966924D01*
X98651476Y-51556890D01*
X98530155Y-51327000D01*
X97337000Y-51327000D01*
X97337000Y-51347000D01*
X97083000Y-51347000D01*
X97083000Y-51327000D01*
X97063000Y-51327000D01*
X97063000Y-51073000D01*
X97083000Y-51073000D01*
X97083000Y-49879181D01*
X97337000Y-49879181D01*
X97337000Y-51073000D01*
X98530155Y-51073000D01*
X98651476Y-50843110D01*
X98481645Y-50433076D01*
X98091358Y-50004817D01*
X97566892Y-49758514D01*
X97337000Y-49879181D01*
X97083000Y-49879181D01*
X96853108Y-49758514D01*
X96552186Y-49899835D01*
X96524530Y-49760796D01*
X96414409Y-49595989D01*
X96159210Y-49340790D01*
X95994403Y-49230669D01*
X95800000Y-49192000D01*
X94537105Y-49192000D01*
X97622269Y-46106836D01*
X97724131Y-45954390D01*
X97727445Y-45937731D01*
X97759900Y-45774567D01*
X97759900Y-37380000D01*
X97724131Y-37200177D01*
X97683054Y-37138701D01*
X97622270Y-37047731D01*
X97114270Y-36539732D01*
X97114268Y-36539729D01*
X97089477Y-36514938D01*
X97162801Y-36338354D01*
X97163198Y-35883641D01*
X96989554Y-35463388D01*
X96668303Y-35141577D01*
X96248354Y-34967199D01*
X95793641Y-34966802D01*
X95373388Y-35140446D01*
X95051577Y-35461697D01*
X94877199Y-35881646D01*
X94876802Y-36336359D01*
X95050446Y-36756612D01*
X95371697Y-37078423D01*
X95791646Y-37252801D01*
X96246359Y-37253198D01*
X96424891Y-37179430D01*
X96449729Y-37204268D01*
X96449732Y-37204270D01*
X96820100Y-37574639D01*
X96820100Y-37833639D01*
X96668303Y-37681577D01*
X96248354Y-37507199D01*
X95793641Y-37506802D01*
X95373388Y-37680446D01*
X95149900Y-37903545D01*
X95149900Y-37310000D01*
X95114131Y-37130177D01*
X95107449Y-37120177D01*
X95012270Y-36977731D01*
X94574270Y-36539732D01*
X94574268Y-36539729D01*
X94549477Y-36514938D01*
X94622801Y-36338354D01*
X94623198Y-35883641D01*
X94449554Y-35463388D01*
X94128303Y-35141577D01*
X93708354Y-34967199D01*
X93253641Y-34966802D01*
X92833388Y-35140446D01*
X92511577Y-35461697D01*
X92337199Y-35881646D01*
X92336802Y-36336359D01*
X92510446Y-36756612D01*
X92831697Y-37078423D01*
X93251646Y-37252801D01*
X93706359Y-37253198D01*
X93884891Y-37179430D01*
X93909729Y-37204268D01*
X93909732Y-37204270D01*
X94210100Y-37504639D01*
X94210100Y-37763517D01*
X94128303Y-37681577D01*
X93708354Y-37507199D01*
X93253641Y-37506802D01*
X92833388Y-37680446D01*
X92619900Y-37893562D01*
X92619900Y-37320000D01*
X92584131Y-37140177D01*
X92522360Y-37047731D01*
X92482269Y-36987730D01*
X92034270Y-36539732D01*
X92034268Y-36539729D01*
X92009477Y-36514938D01*
X92082801Y-36338354D01*
X92083198Y-35883641D01*
X91909554Y-35463388D01*
X91588303Y-35141577D01*
X91168354Y-34967199D01*
X90713641Y-34966802D01*
X90293388Y-35140446D01*
X89971577Y-35461697D01*
X89797199Y-35881646D01*
X89796802Y-36336359D01*
X89970446Y-36756612D01*
X90291697Y-37078423D01*
X90711646Y-37252801D01*
X91166359Y-37253198D01*
X91344891Y-37179430D01*
X91369729Y-37204268D01*
X91369732Y-37204270D01*
X91680100Y-37514639D01*
X91680100Y-37773534D01*
X91588303Y-37681577D01*
X91168354Y-37507199D01*
X90713641Y-37506802D01*
X90293388Y-37680446D01*
X90119900Y-37853632D01*
X90119900Y-37360000D01*
X90084131Y-37180177D01*
X90070767Y-37160177D01*
X89982270Y-37027731D01*
X89494270Y-36539732D01*
X89494268Y-36539729D01*
X89469477Y-36514938D01*
X89542801Y-36338354D01*
X89543198Y-35883641D01*
X89369554Y-35463388D01*
X89048303Y-35141577D01*
X88628354Y-34967199D01*
X88173641Y-34966802D01*
X87753388Y-35140446D01*
X87431577Y-35461697D01*
X87257199Y-35881646D01*
X87257030Y-36075660D01*
X87241362Y-35762632D01*
X87082397Y-35378857D01*
X86840213Y-35309392D01*
X86039605Y-36110000D01*
X86840213Y-36910608D01*
X87082397Y-36841143D01*
X87259852Y-36343742D01*
X87430446Y-36756612D01*
X87751697Y-37078423D01*
X88171646Y-37252801D01*
X88626359Y-37253198D01*
X88804891Y-37179430D01*
X88829729Y-37204268D01*
X88829732Y-37204270D01*
X89180100Y-37554639D01*
X89180100Y-37813604D01*
X89048303Y-37681577D01*
X88628354Y-37507199D01*
X88173641Y-37506802D01*
X87753388Y-37680446D01*
X87431577Y-38001697D01*
X87257199Y-38421646D01*
X87256802Y-38876359D01*
X87430446Y-39296612D01*
X87751697Y-39618423D01*
X87930100Y-39692502D01*
X87930100Y-46425361D01*
X85367731Y-48987731D01*
X85265869Y-49140177D01*
X85230100Y-49320000D01*
X85230100Y-50395731D01*
X85160000Y-50381536D01*
X84629900Y-50381536D01*
X84629900Y-49534638D01*
X86192269Y-47972270D01*
X86294131Y-47819823D01*
X86329900Y-47640000D01*
X86329900Y-39692569D01*
X86506612Y-39619554D01*
X86828423Y-39298303D01*
X87002801Y-38878354D01*
X87003198Y-38423641D01*
X86829554Y-38003388D01*
X86508303Y-37681577D01*
X86088354Y-37507199D01*
X85894340Y-37507030D01*
X86207368Y-37491362D01*
X86591143Y-37332397D01*
X86660608Y-37090213D01*
X85860000Y-36289605D01*
X85845858Y-36303748D01*
X85666253Y-36124143D01*
X85680395Y-36110000D01*
X84879787Y-35309392D01*
X84637603Y-35378857D01*
X84460148Y-35876258D01*
X84289554Y-35463388D01*
X83968303Y-35141577D01*
X83548354Y-34967199D01*
X83093641Y-34966802D01*
X82673388Y-35140446D01*
X82351577Y-35461697D01*
X82177199Y-35881646D01*
X82176802Y-36336359D01*
X82350446Y-36756612D01*
X82671697Y-37078423D01*
X83091646Y-37252801D01*
X83546359Y-37253198D01*
X83724892Y-37179430D01*
X84080100Y-37534639D01*
X84080100Y-37793569D01*
X83968303Y-37681577D01*
X83548354Y-37507199D01*
X83093641Y-37506802D01*
X82673388Y-37680446D01*
X82409900Y-37943475D01*
X82409900Y-37270000D01*
X82374131Y-37090177D01*
X82348503Y-37051822D01*
X82272270Y-36937731D01*
X81849477Y-36514938D01*
X81922801Y-36338354D01*
X81923198Y-35883641D01*
X81749554Y-35463388D01*
X81428303Y-35141577D01*
X81008354Y-34967199D01*
X80553641Y-34966802D01*
X80133388Y-35140446D01*
X79811577Y-35461697D01*
X79637199Y-35881646D01*
X79636802Y-36336359D01*
X79810446Y-36756612D01*
X80131697Y-37078423D01*
X80551646Y-37252801D01*
X81006359Y-37253198D01*
X81184892Y-37179430D01*
X81470100Y-37464639D01*
X81470100Y-37723447D01*
X81428303Y-37681577D01*
X81008354Y-37507199D01*
X80553641Y-37506802D01*
X80133388Y-37680446D01*
X79879900Y-37933493D01*
X79879900Y-37280000D01*
X79844131Y-37100177D01*
X79811821Y-37051822D01*
X79742270Y-36947731D01*
X79309477Y-36514938D01*
X79382801Y-36338354D01*
X79383198Y-35883641D01*
X79209554Y-35463388D01*
X78888303Y-35141577D01*
X78468354Y-34967199D01*
X78013641Y-34966802D01*
X77593388Y-35140446D01*
X77271577Y-35461697D01*
X77097199Y-35881646D01*
X77096802Y-36336359D01*
X77270446Y-36756612D01*
X77591697Y-37078423D01*
X78011646Y-37252801D01*
X78466359Y-37253198D01*
X78644892Y-37179430D01*
X78940100Y-37474639D01*
X78940100Y-37733464D01*
X78888303Y-37681577D01*
X78468354Y-37507199D01*
X78013641Y-37506802D01*
X77593388Y-37680446D01*
X77389900Y-37883580D01*
X77389900Y-37330000D01*
X77354131Y-37150177D01*
X77340767Y-37130177D01*
X77252270Y-36997731D01*
X76769477Y-36514938D01*
X76842801Y-36338354D01*
X76843198Y-35883641D01*
X76669554Y-35463388D01*
X76348303Y-35141577D01*
X75928354Y-34967199D01*
X75473641Y-34966802D01*
X75053388Y-35140446D01*
X74731577Y-35461697D01*
X74557199Y-35881646D01*
X74556802Y-36336359D01*
X74730446Y-36756612D01*
X75051697Y-37078423D01*
X75471646Y-37252801D01*
X75665660Y-37252970D01*
X75352632Y-37268638D01*
X74968857Y-37427603D01*
X74899392Y-37669787D01*
X75700000Y-38470395D01*
X75714143Y-38456253D01*
X75893748Y-38635858D01*
X75879605Y-38650000D01*
X75893748Y-38664143D01*
X75714143Y-38843748D01*
X75700000Y-38829605D01*
X74899392Y-39630213D01*
X74968857Y-39872397D01*
X75492302Y-40059144D01*
X75907078Y-40038384D01*
X74627731Y-41317731D01*
X74525869Y-41470177D01*
X74490100Y-41650000D01*
X74490100Y-47647756D01*
X74410000Y-47631536D01*
X73910000Y-47631536D01*
X73768810Y-47658103D01*
X73639135Y-47741546D01*
X73552141Y-47868866D01*
X73521536Y-48020000D01*
X73521536Y-48144797D01*
X72359900Y-46983162D01*
X72359900Y-39631984D01*
X72428857Y-39872397D01*
X72952302Y-40059144D01*
X73507368Y-40031362D01*
X73891143Y-39872397D01*
X73960608Y-39630213D01*
X73160000Y-38829605D01*
X73145858Y-38843748D01*
X72966253Y-38664143D01*
X72980395Y-38650000D01*
X73339605Y-38650000D01*
X74140213Y-39450608D01*
X74382397Y-39381143D01*
X74426453Y-39257656D01*
X74477603Y-39381143D01*
X74719787Y-39450608D01*
X75520395Y-38650000D01*
X74719787Y-37849392D01*
X74477603Y-37918857D01*
X74433547Y-38042344D01*
X74382397Y-37918857D01*
X74140213Y-37849392D01*
X73339605Y-38650000D01*
X72980395Y-38650000D01*
X72966253Y-38635858D01*
X73145858Y-38456253D01*
X73160000Y-38470395D01*
X73960608Y-37669787D01*
X73891143Y-37427603D01*
X73393742Y-37250148D01*
X73806612Y-37079554D01*
X74128423Y-36758303D01*
X74302801Y-36338354D01*
X74303198Y-35883641D01*
X74129554Y-35463388D01*
X73808303Y-35141577D01*
X73388354Y-34967199D01*
X72933641Y-34966802D01*
X72513388Y-35140446D01*
X72191577Y-35461697D01*
X72017199Y-35881646D01*
X72016802Y-36336359D01*
X72190446Y-36756612D01*
X72511697Y-37078423D01*
X72931646Y-37252801D01*
X73125660Y-37252970D01*
X72812632Y-37268638D01*
X72428857Y-37427603D01*
X72359900Y-37668016D01*
X72359900Y-37380000D01*
X72324131Y-37200177D01*
X72283054Y-37138701D01*
X72222270Y-37047731D01*
X71714270Y-36539732D01*
X71714268Y-36539729D01*
X71689477Y-36514938D01*
X71762801Y-36338354D01*
X71763198Y-35883641D01*
X71589554Y-35463388D01*
X71268303Y-35141577D01*
X70848354Y-34967199D01*
X70393641Y-34966802D01*
X69973388Y-35140446D01*
X69651577Y-35461697D01*
X69477199Y-35881646D01*
X69476802Y-36336359D01*
X69650446Y-36756612D01*
X69971697Y-37078423D01*
X70391646Y-37252801D01*
X70585660Y-37252970D01*
X70272632Y-37268638D01*
X69888857Y-37427603D01*
X69819393Y-37669785D01*
X69769900Y-37620292D01*
X69769900Y-37330000D01*
X69734131Y-37150177D01*
X69720767Y-37130177D01*
X69632270Y-36997731D01*
X69149477Y-36514938D01*
X69222801Y-36338354D01*
X69223198Y-35883641D01*
X69049554Y-35463388D01*
X68728303Y-35141577D01*
X68308354Y-34967199D01*
X67853641Y-34966802D01*
X67433388Y-35140446D01*
X67111577Y-35461697D01*
X66937199Y-35881646D01*
X66936802Y-36336359D01*
X67110446Y-36756612D01*
X67431697Y-37078423D01*
X67851646Y-37252801D01*
X68045660Y-37252970D01*
X67732632Y-37268638D01*
X67348857Y-37427603D01*
X67279393Y-37669785D01*
X67239900Y-37630292D01*
X67239900Y-37340000D01*
X67204131Y-37160177D01*
X67189781Y-37138701D01*
X67102269Y-37007730D01*
X66634270Y-36539732D01*
X66634268Y-36539729D01*
X66609477Y-36514938D01*
X66682801Y-36338354D01*
X66683198Y-35883641D01*
X66509554Y-35463388D01*
X66188303Y-35141577D01*
X65768354Y-34967199D01*
X65313641Y-34966802D01*
X64893388Y-35140446D01*
X64571577Y-35461697D01*
X64397199Y-35881646D01*
X64396802Y-36336359D01*
X64570446Y-36756612D01*
X64891697Y-37078423D01*
X65311646Y-37252801D01*
X65505660Y-37252970D01*
X65192632Y-37268638D01*
X64808857Y-37427603D01*
X64739393Y-37669785D01*
X64729900Y-37660292D01*
X64729900Y-37370000D01*
X64694131Y-37190177D01*
X64687449Y-37180177D01*
X64592269Y-37037730D01*
X64069477Y-36514938D01*
X64142801Y-36338354D01*
X64143198Y-35883641D01*
X63969554Y-35463388D01*
X63648303Y-35141577D01*
X63228354Y-34967199D01*
X62773641Y-34966802D01*
X62353388Y-35140446D01*
X62031577Y-35461697D01*
X61857199Y-35881646D01*
X61856802Y-36336359D01*
X62030446Y-36756612D01*
X62351697Y-37078423D01*
X62771646Y-37252801D01*
X62965660Y-37252970D01*
X62652632Y-37268638D01*
X62268857Y-37427603D01*
X62199392Y-37669787D01*
X63000000Y-38470395D01*
X63014143Y-38456253D01*
X63193748Y-38635858D01*
X63179605Y-38650000D01*
X63193748Y-38664143D01*
X63014143Y-38843748D01*
X63000000Y-38829605D01*
X62199392Y-39630213D01*
X62268857Y-39872397D01*
X62792302Y-40059144D01*
X63347368Y-40031362D01*
X63731143Y-39872397D01*
X63790100Y-39666848D01*
X63790100Y-47750000D01*
X63813744Y-47868866D01*
X63825869Y-47929823D01*
X63927731Y-48082269D01*
X69595561Y-53750100D01*
X68874639Y-53750100D01*
X61958601Y-46834063D01*
X61958601Y-39433058D01*
X62019787Y-39450608D01*
X62820395Y-38650000D01*
X62019787Y-37849392D01*
X61958601Y-37866942D01*
X61958601Y-37138701D01*
X61922832Y-36958878D01*
X61890579Y-36910608D01*
X61820971Y-36806432D01*
X61554270Y-36539732D01*
X61554268Y-36539729D01*
X61529477Y-36514938D01*
X61602801Y-36338354D01*
X61603198Y-35883641D01*
X61429554Y-35463388D01*
X61108303Y-35141577D01*
X60688354Y-34967199D01*
X60233641Y-34966802D01*
X59813388Y-35140446D01*
X59491577Y-35461697D01*
X59317199Y-35881646D01*
X59316802Y-36336359D01*
X59490446Y-36756612D01*
X59811697Y-37078423D01*
X60231646Y-37252801D01*
X60425660Y-37252970D01*
X60112632Y-37268638D01*
X59728857Y-37427603D01*
X59659392Y-37669787D01*
X60460000Y-38470395D01*
X60474143Y-38456253D01*
X60653748Y-38635858D01*
X60639605Y-38650000D01*
X60653748Y-38664143D01*
X60474143Y-38843748D01*
X60460000Y-38829605D01*
X59659392Y-39630213D01*
X59728857Y-39872397D01*
X60252302Y-40059144D01*
X60807368Y-40031362D01*
X61018801Y-39943783D01*
X61018801Y-47028701D01*
X61042894Y-47149823D01*
X61054570Y-47208524D01*
X61156432Y-47360970D01*
X68345561Y-54550100D01*
X66904639Y-54550100D01*
X59649900Y-47295362D01*
X59649900Y-42773501D01*
X59847136Y-42576609D01*
X59967263Y-42287311D01*
X59967536Y-41974064D01*
X59847914Y-41684556D01*
X59626609Y-41462864D01*
X59337311Y-41342737D01*
X59024064Y-41342464D01*
X58734556Y-41462086D01*
X58512864Y-41683391D01*
X58392737Y-41972689D01*
X58392464Y-42285936D01*
X58512086Y-42575444D01*
X58710100Y-42773804D01*
X58710100Y-47490000D01*
X58742463Y-47652699D01*
X58745869Y-47669823D01*
X58847731Y-47822269D01*
X66377730Y-55352269D01*
X66399670Y-55366929D01*
X66202864Y-55563391D01*
X66082737Y-55852689D01*
X66082464Y-56165936D01*
X66202086Y-56455444D01*
X66423391Y-56677136D01*
X66712689Y-56797263D01*
X67025936Y-56797536D01*
X67315444Y-56677914D01*
X67537136Y-56456609D01*
X67606360Y-56289900D01*
X68465749Y-56289900D01*
X68302530Y-56452834D01*
X68182403Y-56742132D01*
X68182130Y-57055379D01*
X68301752Y-57344887D01*
X68523057Y-57566579D01*
X68812355Y-57686706D01*
X69125602Y-57686979D01*
X69415110Y-57567357D01*
X69636802Y-57346052D01*
X69743166Y-57089900D01*
X69836942Y-57089900D01*
X69752737Y-57292689D01*
X69752464Y-57605936D01*
X69812031Y-57750100D01*
X66634639Y-57750100D01*
X57199900Y-48315362D01*
X57199900Y-39876337D01*
X57712302Y-40059144D01*
X58267368Y-40031362D01*
X58651143Y-39872397D01*
X58720608Y-39630213D01*
X57920000Y-38829605D01*
X57905858Y-38843748D01*
X57726253Y-38664143D01*
X57740395Y-38650000D01*
X58099605Y-38650000D01*
X58900213Y-39450608D01*
X59142397Y-39381143D01*
X59186453Y-39257656D01*
X59237603Y-39381143D01*
X59479787Y-39450608D01*
X60280395Y-38650000D01*
X59479787Y-37849392D01*
X59237603Y-37918857D01*
X59193547Y-38042344D01*
X59142397Y-37918857D01*
X58900213Y-37849392D01*
X58099605Y-38650000D01*
X57740395Y-38650000D01*
X57726253Y-38635858D01*
X57905858Y-38456253D01*
X57920000Y-38470395D01*
X58720608Y-37669787D01*
X58651143Y-37427603D01*
X58153742Y-37250148D01*
X58566612Y-37079554D01*
X58888423Y-36758303D01*
X59062801Y-36338354D01*
X59063198Y-35883641D01*
X58889554Y-35463388D01*
X58568303Y-35141577D01*
X58148354Y-34967199D01*
X57693641Y-34966802D01*
X57273388Y-35140446D01*
X56951577Y-35461697D01*
X56777199Y-35881646D01*
X56776802Y-36336359D01*
X56850570Y-36514892D01*
X56825735Y-36539727D01*
X56825732Y-36539729D01*
X56397731Y-36967731D01*
X56295869Y-37120177D01*
X56269362Y-37253436D01*
X56268309Y-37253000D01*
X55665750Y-37253000D01*
X55507002Y-37411748D01*
X55507002Y-37253111D01*
X55606359Y-37253198D01*
X56026612Y-37079554D01*
X56348423Y-36758303D01*
X56522801Y-36338354D01*
X56523198Y-35883641D01*
X56349554Y-35463388D01*
X56028303Y-35141577D01*
X55608354Y-34967199D01*
X55153641Y-34966802D01*
X54733388Y-35140446D01*
X54411577Y-35461697D01*
X54237199Y-35881646D01*
X54236802Y-36336359D01*
X54410446Y-36756612D01*
X54731697Y-37078423D01*
X55151646Y-37252801D01*
X55379575Y-37253000D01*
X55252998Y-37253000D01*
X55252998Y-37411748D01*
X55094250Y-37253000D01*
X54491691Y-37253000D01*
X54258302Y-37349673D01*
X54079673Y-37528301D01*
X53983000Y-37761690D01*
X53983000Y-38364250D01*
X54141750Y-38523000D01*
X55253000Y-38523000D01*
X55253000Y-38503000D01*
X55507000Y-38503000D01*
X55507000Y-38523000D01*
X55527000Y-38523000D01*
X55527000Y-38777000D01*
X55507000Y-38777000D01*
X55507000Y-39888250D01*
X55665750Y-40047000D01*
X56260100Y-40047000D01*
X56260100Y-48510000D01*
X56276677Y-48593336D01*
X56295869Y-48689823D01*
X56397731Y-48842269D01*
X66107731Y-58552270D01*
X66260177Y-58654131D01*
X66440000Y-58689900D01*
X70685561Y-58689900D01*
X62457731Y-66917731D01*
X62355869Y-67070177D01*
X62320100Y-67250000D01*
X62320100Y-67500395D01*
X62278917Y-67508587D01*
X61879552Y-67775435D01*
X61612704Y-68174800D01*
X61519000Y-68645883D01*
X61519000Y-68694117D01*
X61612704Y-69165200D01*
X61879552Y-69564565D01*
X62264512Y-69821788D01*
X61983076Y-69938355D01*
X61919900Y-69995929D01*
X61919900Y-69910000D01*
X61884131Y-69730177D01*
X61843855Y-69669900D01*
X61782270Y-69577731D01*
X61351019Y-69146481D01*
X61441000Y-68694117D01*
X61441000Y-68645883D01*
X61347296Y-68174800D01*
X61080448Y-67775435D01*
X61007707Y-67726831D01*
X68267246Y-60467293D01*
X68545936Y-60467536D01*
X68835444Y-60347914D01*
X69057136Y-60126609D01*
X69177263Y-59837311D01*
X69177536Y-59524064D01*
X69057914Y-59234556D01*
X68836609Y-59012864D01*
X68547311Y-58892737D01*
X68234064Y-58892464D01*
X67944556Y-59012086D01*
X67722864Y-59233391D01*
X67602737Y-59522689D01*
X67602493Y-59802968D01*
X59936096Y-67469366D01*
X59738917Y-67508587D01*
X59339552Y-67775435D01*
X59072704Y-68174800D01*
X58979000Y-68645883D01*
X58979000Y-68694117D01*
X59072704Y-69165200D01*
X59339552Y-69564565D01*
X59738917Y-69831413D01*
X60210000Y-69925117D01*
X60681083Y-69831413D01*
X60696544Y-69821082D01*
X60980100Y-70104639D01*
X60980100Y-70248384D01*
X60681083Y-70048587D01*
X60210000Y-69954883D01*
X59738917Y-70048587D01*
X59439900Y-70248384D01*
X59439900Y-69970000D01*
X59404131Y-69790177D01*
X59389663Y-69768524D01*
X59302270Y-69637731D01*
X58811019Y-69146481D01*
X58901000Y-68694117D01*
X58901000Y-68645883D01*
X58807296Y-68174800D01*
X58720154Y-68044384D01*
X66387246Y-60377293D01*
X66665936Y-60377536D01*
X66955444Y-60257914D01*
X67177136Y-60036609D01*
X67297263Y-59747311D01*
X67297536Y-59434064D01*
X67177914Y-59144556D01*
X66956609Y-58922864D01*
X66667311Y-58802737D01*
X66354064Y-58802464D01*
X66064556Y-58922086D01*
X65842864Y-59143391D01*
X65722737Y-59432689D01*
X65722493Y-59712968D01*
X57962414Y-67473048D01*
X57670000Y-67414883D01*
X57198917Y-67508587D01*
X56799552Y-67775435D01*
X56532704Y-68174800D01*
X56439000Y-68645883D01*
X56439000Y-68694117D01*
X56532704Y-69165200D01*
X56799552Y-69564565D01*
X57198917Y-69831413D01*
X57670000Y-69925117D01*
X58141083Y-69831413D01*
X58156544Y-69821082D01*
X58306997Y-69971536D01*
X56820000Y-69971536D01*
X56678810Y-69998103D01*
X56549135Y-70081546D01*
X56462141Y-70208866D01*
X56435780Y-70339042D01*
X56309900Y-70213162D01*
X56309900Y-68214638D01*
X58102269Y-66422270D01*
X58102271Y-66422267D01*
X64557246Y-59967293D01*
X64835936Y-59967536D01*
X65125444Y-59847914D01*
X65347136Y-59626609D01*
X65467263Y-59337311D01*
X65467536Y-59024064D01*
X65347914Y-58734556D01*
X65126609Y-58512864D01*
X64837311Y-58392737D01*
X64524064Y-58392464D01*
X64234556Y-58512086D01*
X64012864Y-58733391D01*
X63892737Y-59022689D01*
X63892493Y-59302968D01*
X57437733Y-65757729D01*
X57437730Y-65757731D01*
X55507731Y-67687731D01*
X55405869Y-67840177D01*
X55370100Y-68020000D01*
X55370100Y-70407800D01*
X55393918Y-70527539D01*
X55405869Y-70587623D01*
X55507731Y-70740069D01*
X56309930Y-71542269D01*
X56431536Y-71623524D01*
X56431536Y-72060000D01*
X56458103Y-72201190D01*
X56541546Y-72330865D01*
X56668866Y-72417859D01*
X56799042Y-72444220D01*
X56467731Y-72775531D01*
X56365869Y-72927977D01*
X56330100Y-73107800D01*
X56330100Y-74164097D01*
X56308810Y-74168103D01*
X56250314Y-74205744D01*
X56201134Y-74172141D01*
X56050000Y-74141536D01*
X55350000Y-74141536D01*
X55325000Y-74146240D01*
X55325000Y-73580000D01*
X55276664Y-73336996D01*
X55139013Y-73130987D01*
X53985000Y-71976974D01*
X53985000Y-65143464D01*
X54260000Y-65143464D01*
X54401190Y-65116897D01*
X54530865Y-65033454D01*
X54617859Y-64906134D01*
X54625000Y-64870870D01*
X54625000Y-64881310D01*
X54721673Y-65114699D01*
X54900302Y-65293327D01*
X55133691Y-65390000D01*
X55724250Y-65390000D01*
X55883000Y-65231250D01*
X55883000Y-64257000D01*
X56137000Y-64257000D01*
X56137000Y-65231250D01*
X56295750Y-65390000D01*
X56886309Y-65390000D01*
X57119698Y-65293327D01*
X57298327Y-65114699D01*
X57395000Y-64881310D01*
X57395000Y-64415750D01*
X57236250Y-64257000D01*
X56137000Y-64257000D01*
X55883000Y-64257000D01*
X55863000Y-64257000D01*
X55863000Y-64003000D01*
X55883000Y-64003000D01*
X55883000Y-63028750D01*
X56137000Y-63028750D01*
X56137000Y-64003000D01*
X57236250Y-64003000D01*
X57395000Y-63844250D01*
X57395000Y-63378690D01*
X57298327Y-63145301D01*
X57119698Y-62966673D01*
X56886309Y-62870000D01*
X56295750Y-62870000D01*
X56137000Y-63028750D01*
X55883000Y-63028750D01*
X55724250Y-62870000D01*
X55133691Y-62870000D01*
X54900302Y-62966673D01*
X54721673Y-63145301D01*
X54625000Y-63378690D01*
X54625000Y-63380301D01*
X54621897Y-63363810D01*
X54538454Y-63234135D01*
X54411134Y-63147141D01*
X54260000Y-63116536D01*
X53985000Y-63116536D01*
X53985000Y-60701702D01*
X54472637Y-61392521D01*
X54638866Y-61526359D01*
X54790000Y-61556964D01*
X55790000Y-61556964D01*
X55995202Y-61498343D01*
X56107363Y-61392521D01*
X56660786Y-60608505D01*
X56660865Y-60608454D01*
X56662163Y-60606555D01*
X56707363Y-60542521D01*
X56708737Y-60538391D01*
X56747859Y-60481134D01*
X56778464Y-60330000D01*
X56778464Y-60196490D01*
X57510985Y-60929010D01*
X57510987Y-60929013D01*
X57658729Y-61027731D01*
X57716996Y-61066664D01*
X57960000Y-61115001D01*
X57960005Y-61115000D01*
X58306536Y-61115000D01*
X58306536Y-61230000D01*
X58333103Y-61371190D01*
X58416546Y-61500865D01*
X58543866Y-61587859D01*
X58695000Y-61618464D01*
X59945000Y-61618464D01*
X60086190Y-61591897D01*
X60215865Y-61508454D01*
X60302859Y-61381134D01*
X60333464Y-61230000D01*
X60333464Y-59730000D01*
X60306897Y-59588810D01*
X60223454Y-59459135D01*
X60096134Y-59372141D01*
X60060870Y-59365000D01*
X60071310Y-59365000D01*
X60304699Y-59268327D01*
X60483327Y-59089698D01*
X60580000Y-58856309D01*
X60580000Y-58265750D01*
X60421250Y-58107000D01*
X59447000Y-58107000D01*
X59447000Y-58127000D01*
X59193000Y-58127000D01*
X59193000Y-58107000D01*
X58218750Y-58107000D01*
X58060000Y-58265750D01*
X58060000Y-58856309D01*
X58156673Y-59089698D01*
X58335301Y-59268327D01*
X58568690Y-59365000D01*
X58570301Y-59365000D01*
X58553810Y-59368103D01*
X58424135Y-59451546D01*
X58337141Y-59578866D01*
X58306536Y-59730000D01*
X58306536Y-59845000D01*
X58223025Y-59845000D01*
X57339013Y-58960987D01*
X57133004Y-58823336D01*
X56890000Y-58775000D01*
X56778464Y-58775000D01*
X56778464Y-58490000D01*
X56770143Y-58445779D01*
X56769839Y-58418896D01*
X56761471Y-58399692D01*
X56751897Y-58348810D01*
X56712880Y-58288176D01*
X56708242Y-58277531D01*
X56680854Y-58238405D01*
X56668454Y-58219135D01*
X56666366Y-58217709D01*
X56501020Y-57981500D01*
X56504250Y-57981500D01*
X56663000Y-57822750D01*
X56663000Y-56723500D01*
X56917000Y-56723500D01*
X56917000Y-57822750D01*
X57075750Y-57981500D01*
X57416309Y-57981500D01*
X57649698Y-57884827D01*
X57828327Y-57706199D01*
X57925000Y-57472810D01*
X57925000Y-57103691D01*
X58060000Y-57103691D01*
X58060000Y-57694250D01*
X58218750Y-57853000D01*
X59193000Y-57853000D01*
X59193000Y-56753750D01*
X59447000Y-56753750D01*
X59447000Y-57853000D01*
X60421250Y-57853000D01*
X60580000Y-57694250D01*
X60580000Y-57103691D01*
X60483327Y-56870302D01*
X60304699Y-56691673D01*
X60071310Y-56595000D01*
X59605750Y-56595000D01*
X59447000Y-56753750D01*
X59193000Y-56753750D01*
X59034250Y-56595000D01*
X58568690Y-56595000D01*
X58335301Y-56691673D01*
X58156673Y-56870302D01*
X58060000Y-57103691D01*
X57925000Y-57103691D01*
X57925000Y-56882250D01*
X57766250Y-56723500D01*
X56917000Y-56723500D01*
X56663000Y-56723500D01*
X56643000Y-56723500D01*
X56643000Y-56469500D01*
X56663000Y-56469500D01*
X56663000Y-55370250D01*
X56917000Y-55370250D01*
X56917000Y-56469500D01*
X57766250Y-56469500D01*
X57925000Y-56310750D01*
X57925000Y-55720190D01*
X57828327Y-55486801D01*
X57649698Y-55308173D01*
X57416309Y-55211500D01*
X57075750Y-55211500D01*
X56917000Y-55370250D01*
X56663000Y-55370250D01*
X56504250Y-55211500D01*
X56163691Y-55211500D01*
X55930302Y-55308173D01*
X55925000Y-55313475D01*
X55925000Y-53632086D01*
X55925001Y-53632081D01*
X55876664Y-53389077D01*
X55739013Y-53183068D01*
X55277841Y-52721896D01*
X55474565Y-52590448D01*
X55741413Y-52191083D01*
X55835117Y-51720000D01*
X55741413Y-51248917D01*
X55474565Y-50849552D01*
X55075200Y-50582704D01*
X54604117Y-50489000D01*
X54555883Y-50489000D01*
X54084800Y-50582704D01*
X53685435Y-50849552D01*
X53635000Y-50925033D01*
X53635000Y-50893026D01*
X54189837Y-50338189D01*
X54555883Y-50411000D01*
X54604117Y-50411000D01*
X55075200Y-50317296D01*
X55474565Y-50050448D01*
X55741413Y-49651083D01*
X55835117Y-49180000D01*
X55741413Y-48708917D01*
X55474565Y-48309552D01*
X55198364Y-48125000D01*
X55556309Y-48125000D01*
X55789698Y-48028327D01*
X55968327Y-47849699D01*
X56065000Y-47616310D01*
X56065000Y-46925750D01*
X55906250Y-46767000D01*
X54707000Y-46767000D01*
X54707000Y-46787000D01*
X54453000Y-46787000D01*
X54453000Y-46767000D01*
X53253750Y-46767000D01*
X53095000Y-46925750D01*
X53095000Y-47616310D01*
X53191673Y-47849699D01*
X53370302Y-48028327D01*
X53603691Y-48125000D01*
X53961636Y-48125000D01*
X53685435Y-48309552D01*
X53418587Y-48708917D01*
X53324883Y-49180000D01*
X53362560Y-49369414D01*
X52550987Y-50180987D01*
X52413336Y-50386996D01*
X52365000Y-50630000D01*
X52365000Y-54890000D01*
X52413336Y-55133004D01*
X52550987Y-55339013D01*
X52927964Y-55715990D01*
X52901536Y-55846500D01*
X52901536Y-57346500D01*
X52928103Y-57487690D01*
X53011546Y-57617365D01*
X53054951Y-57647023D01*
X52900987Y-57800987D01*
X52763336Y-58006996D01*
X52715000Y-58250000D01*
X52715000Y-63125003D01*
X52618810Y-63143103D01*
X52489135Y-63226546D01*
X52402141Y-63353866D01*
X52371536Y-63505000D01*
X52371536Y-64755000D01*
X52398103Y-64896190D01*
X52481546Y-65025865D01*
X52608866Y-65112859D01*
X52715000Y-65134351D01*
X52715000Y-72240000D01*
X52763336Y-72483004D01*
X52900987Y-72689013D01*
X54055000Y-73843026D01*
X54055000Y-74402674D01*
X54000000Y-74391536D01*
X52500000Y-74391536D01*
X52358810Y-74418103D01*
X52229135Y-74501546D01*
X52142141Y-74628866D01*
X52111536Y-74780000D01*
X52026000Y-74780000D01*
X52026000Y-45663690D01*
X53095000Y-45663690D01*
X53095000Y-46354250D01*
X53253750Y-46513000D01*
X54453000Y-46513000D01*
X54453000Y-45313750D01*
X54707000Y-45313750D01*
X54707000Y-46513000D01*
X55906250Y-46513000D01*
X56065000Y-46354250D01*
X56065000Y-45663690D01*
X55968327Y-45430301D01*
X55789698Y-45251673D01*
X55556309Y-45155000D01*
X54865750Y-45155000D01*
X54707000Y-45313750D01*
X54453000Y-45313750D01*
X54294250Y-45155000D01*
X53603691Y-45155000D01*
X53370302Y-45251673D01*
X53191673Y-45430301D01*
X53095000Y-45663690D01*
X52026000Y-45663690D01*
X52026000Y-38935750D01*
X53983000Y-38935750D01*
X53983000Y-39538310D01*
X54079673Y-39771699D01*
X54258302Y-39950327D01*
X54491691Y-40047000D01*
X55094250Y-40047000D01*
X55253000Y-39888250D01*
X55253000Y-38777000D01*
X54141750Y-38777000D01*
X53983000Y-38935750D01*
X52026000Y-38935750D01*
X52026000Y-35698882D01*
X52758881Y-34966000D01*
X85106371Y-34966000D01*
X85059392Y-35129787D01*
G36*
X79269663Y-70276026D02*
X79736273Y-70469779D01*
X80241510Y-70470220D01*
X80708458Y-70277282D01*
X80770100Y-70215747D01*
X80770100Y-70590000D01*
X80799045Y-70735516D01*
X80805869Y-70769823D01*
X80907731Y-70922269D01*
X86727731Y-76742270D01*
X86841559Y-76818327D01*
X86880177Y-76844131D01*
X87060000Y-76879900D01*
X89545362Y-76879900D01*
X96603356Y-83937895D01*
X96500221Y-84186273D01*
X96500219Y-84188488D01*
X96307282Y-83721542D01*
X95950337Y-83363974D01*
X95483727Y-83170221D01*
X94978490Y-83169780D01*
X94727871Y-83273333D01*
X89262269Y-77807731D01*
X89109823Y-77705869D01*
X88930000Y-77670100D01*
X86494639Y-77670100D01*
X79169900Y-70345362D01*
X79169900Y-70176089D01*
X79269663Y-70276026D01*
X79269663Y-70276026D01*
G37*
X79269663Y-70276026D02*
X79736273Y-70469779D01*
X80241510Y-70470220D01*
X80708458Y-70277282D01*
X80770100Y-70215747D01*
X80770100Y-70590000D01*
X80799045Y-70735516D01*
X80805869Y-70769823D01*
X80907731Y-70922269D01*
X86727731Y-76742270D01*
X86841559Y-76818327D01*
X86880177Y-76844131D01*
X87060000Y-76879900D01*
X89545362Y-76879900D01*
X96603356Y-83937895D01*
X96500221Y-84186273D01*
X96500219Y-84188488D01*
X96307282Y-83721542D01*
X95950337Y-83363974D01*
X95483727Y-83170221D01*
X94978490Y-83169780D01*
X94727871Y-83273333D01*
X89262269Y-77807731D01*
X89109823Y-77705869D01*
X88930000Y-77670100D01*
X86494639Y-77670100D01*
X79169900Y-70345362D01*
X79169900Y-70176089D01*
X79269663Y-70276026D01*
G36*
X76729663Y-70276026D02*
X77196273Y-70469779D01*
X77701510Y-70470220D01*
X78168458Y-70277282D01*
X78230100Y-70215747D01*
X78230100Y-70540000D01*
X78263860Y-70709723D01*
X78265869Y-70719823D01*
X78367731Y-70872269D01*
X85967730Y-78472269D01*
X86120177Y-78574131D01*
X86300000Y-78609900D01*
X88735362Y-78609900D01*
X94063357Y-83937895D01*
X93960221Y-84186273D01*
X93960219Y-84188488D01*
X93767282Y-83721542D01*
X93410337Y-83363974D01*
X92943727Y-83170221D01*
X92438490Y-83169780D01*
X91971542Y-83362718D01*
X91613974Y-83719663D01*
X91420221Y-84186273D01*
X91420219Y-84188488D01*
X91227282Y-83721542D01*
X90870337Y-83363974D01*
X90403727Y-83170221D01*
X89898490Y-83169780D01*
X89647871Y-83273333D01*
X89593273Y-83218735D01*
X89593271Y-83218732D01*
X76659900Y-70285362D01*
X76659900Y-70206141D01*
X76729663Y-70276026D01*
X76729663Y-70276026D01*
G37*
X76729663Y-70276026D02*
X77196273Y-70469779D01*
X77701510Y-70470220D01*
X78168458Y-70277282D01*
X78230100Y-70215747D01*
X78230100Y-70540000D01*
X78263860Y-70709723D01*
X78265869Y-70719823D01*
X78367731Y-70872269D01*
X85967730Y-78472269D01*
X86120177Y-78574131D01*
X86300000Y-78609900D01*
X88735362Y-78609900D01*
X94063357Y-83937895D01*
X93960221Y-84186273D01*
X93960219Y-84188488D01*
X93767282Y-83721542D01*
X93410337Y-83363974D01*
X92943727Y-83170221D01*
X92438490Y-83169780D01*
X91971542Y-83362718D01*
X91613974Y-83719663D01*
X91420221Y-84186273D01*
X91420219Y-84188488D01*
X91227282Y-83721542D01*
X90870337Y-83363974D01*
X90403727Y-83170221D01*
X89898490Y-83169780D01*
X89647871Y-83273333D01*
X89593273Y-83218735D01*
X89593271Y-83218732D01*
X76659900Y-70285362D01*
X76659900Y-70206141D01*
X76729663Y-70276026D01*
G36*
X71562467Y-70527539D02*
X72131965Y-70735516D01*
X72737700Y-70709723D01*
X73130100Y-70547186D01*
X73130100Y-83015361D01*
X72872105Y-83273356D01*
X72623727Y-83170221D01*
X72118490Y-83169780D01*
X71651542Y-83362718D01*
X71293974Y-83719663D01*
X71107464Y-84168830D01*
X71107464Y-83551000D01*
X71080897Y-83409810D01*
X70997454Y-83280135D01*
X70870134Y-83193141D01*
X70719000Y-83162536D01*
X70705202Y-83162536D01*
X71422269Y-82445470D01*
X71524131Y-82293023D01*
X71559900Y-82113200D01*
X71559900Y-70519833D01*
X71562467Y-70527539D01*
X71562467Y-70527539D01*
G37*
X71562467Y-70527539D02*
X72131965Y-70735516D01*
X72737700Y-70709723D01*
X73130100Y-70547186D01*
X73130100Y-83015361D01*
X72872105Y-83273356D01*
X72623727Y-83170221D01*
X72118490Y-83169780D01*
X71651542Y-83362718D01*
X71293974Y-83719663D01*
X71107464Y-84168830D01*
X71107464Y-83551000D01*
X71080897Y-83409810D01*
X70997454Y-83280135D01*
X70870134Y-83193141D01*
X70719000Y-83162536D01*
X70705202Y-83162536D01*
X71422269Y-82445470D01*
X71524131Y-82293023D01*
X71559900Y-82113200D01*
X71559900Y-70519833D01*
X71562467Y-70527539D01*
G36*
X72563748Y-69185858D02*
X72549605Y-69200000D01*
X72563748Y-69214143D01*
X72384143Y-69393748D01*
X72370000Y-69379605D01*
X72355858Y-69393748D01*
X72176253Y-69214143D01*
X72190395Y-69200000D01*
X72176253Y-69185858D01*
X72355858Y-69006253D01*
X72370000Y-69020395D01*
X72384143Y-69006253D01*
X72563748Y-69185858D01*
X72563748Y-69185858D01*
G37*
X72563748Y-69185858D02*
X72549605Y-69200000D01*
X72563748Y-69214143D01*
X72384143Y-69393748D01*
X72370000Y-69379605D01*
X72355858Y-69393748D01*
X72176253Y-69214143D01*
X72190395Y-69200000D01*
X72176253Y-69185858D01*
X72355858Y-69006253D01*
X72370000Y-69020395D01*
X72384143Y-69006253D01*
X72563748Y-69185858D01*
G36*
X92831697Y-39618423D02*
X93010100Y-39692502D01*
X93010100Y-46775361D01*
X88707731Y-51077731D01*
X88605869Y-51230177D01*
X88570100Y-51410000D01*
X88570100Y-53137074D01*
X88494699Y-53061673D01*
X88261310Y-52965000D01*
X87795750Y-52965000D01*
X87637000Y-53123750D01*
X87637000Y-54223000D01*
X87657000Y-54223000D01*
X87657000Y-54477000D01*
X87637000Y-54477000D01*
X87637000Y-54497000D01*
X87383000Y-54497000D01*
X87383000Y-54477000D01*
X86408750Y-54477000D01*
X86250000Y-54635750D01*
X86250000Y-55110100D01*
X86040000Y-55110100D01*
X85876089Y-55142704D01*
X85860177Y-55145869D01*
X85726464Y-55235214D01*
X85636250Y-55145000D01*
X84287000Y-55145000D01*
X84287000Y-55167000D01*
X84033000Y-55167000D01*
X84033000Y-55145000D01*
X82683750Y-55145000D01*
X82525000Y-55303750D01*
X82525000Y-55396309D01*
X82621673Y-55629698D01*
X82771536Y-55779562D01*
X82771536Y-55985000D01*
X82528080Y-55985000D01*
X82358618Y-55731382D01*
X81489000Y-54861764D01*
X81489000Y-52120000D01*
X81421329Y-51779794D01*
X81228618Y-51491382D01*
X80428618Y-50691382D01*
X80395000Y-50668919D01*
X80395000Y-50536250D01*
X80435000Y-50496250D01*
X80435000Y-49147000D01*
X80413000Y-49147000D01*
X80413000Y-48893000D01*
X80435000Y-48893000D01*
X80435000Y-47543750D01*
X80276250Y-47385000D01*
X80229900Y-47385000D01*
X80229900Y-47377438D01*
X80502270Y-47105069D01*
X80583524Y-46983464D01*
X80920000Y-46983464D01*
X81061190Y-46956897D01*
X81190865Y-46873454D01*
X81277859Y-46746134D01*
X81285000Y-46710870D01*
X81285000Y-46721310D01*
X81381673Y-46954699D01*
X81560302Y-47133327D01*
X81793691Y-47230000D01*
X82384250Y-47230000D01*
X82543000Y-47071250D01*
X82543000Y-46097000D01*
X82523000Y-46097000D01*
X82523000Y-45843000D01*
X82543000Y-45843000D01*
X82543000Y-44868750D01*
X82797000Y-44868750D01*
X82797000Y-45843000D01*
X83896250Y-45843000D01*
X84055000Y-45684250D01*
X84055000Y-45218690D01*
X83958327Y-44985301D01*
X83779698Y-44806673D01*
X83546309Y-44710000D01*
X82955750Y-44710000D01*
X82797000Y-44868750D01*
X82543000Y-44868750D01*
X82384250Y-44710000D01*
X81793691Y-44710000D01*
X81560302Y-44806673D01*
X81381673Y-44985301D01*
X81285000Y-45218690D01*
X81285000Y-45220301D01*
X81281897Y-45203810D01*
X81198454Y-45074135D01*
X81071134Y-44987141D01*
X80920000Y-44956536D01*
X79698002Y-44956536D01*
X83682270Y-40972269D01*
X83784131Y-40819823D01*
X83819900Y-40640000D01*
X83819900Y-39680174D01*
X83966612Y-39619554D01*
X84080100Y-39506263D01*
X84080100Y-46365361D01*
X84055000Y-46390461D01*
X84055000Y-46255750D01*
X83896250Y-46097000D01*
X82797000Y-46097000D01*
X82797000Y-47071250D01*
X82955750Y-47230000D01*
X83215461Y-47230000D01*
X82691536Y-47753925D01*
X82688454Y-47749135D01*
X82561134Y-47662141D01*
X82410000Y-47631536D01*
X81910000Y-47631536D01*
X81768810Y-47658103D01*
X81761813Y-47662605D01*
X81761134Y-47662141D01*
X81610000Y-47631536D01*
X81319561Y-47631536D01*
X81169699Y-47481673D01*
X80936310Y-47385000D01*
X80843750Y-47385000D01*
X80685000Y-47543750D01*
X80685000Y-48893000D01*
X80707000Y-48893000D01*
X80707000Y-49147000D01*
X80685000Y-49147000D01*
X80685000Y-50496250D01*
X80843750Y-50655000D01*
X80936310Y-50655000D01*
X81089294Y-50591632D01*
X81116632Y-50618970D01*
X81269078Y-50720832D01*
X81448901Y-50756601D01*
X82774249Y-50756601D01*
X82771536Y-50770000D01*
X82771536Y-51270000D01*
X82798103Y-51411190D01*
X82802605Y-51418187D01*
X82802141Y-51418866D01*
X82771536Y-51570000D01*
X82771536Y-52070000D01*
X82798103Y-52211190D01*
X82802605Y-52218187D01*
X82802141Y-52218866D01*
X82771536Y-52370000D01*
X82771536Y-52870000D01*
X82798103Y-53011190D01*
X82802605Y-53018187D01*
X82802141Y-53018866D01*
X82771536Y-53170000D01*
X82771536Y-53670000D01*
X82798103Y-53811190D01*
X82802605Y-53818187D01*
X82802141Y-53818866D01*
X82771536Y-53970000D01*
X82771536Y-54260438D01*
X82621673Y-54410302D01*
X82525000Y-54643691D01*
X82525000Y-54736250D01*
X82683750Y-54895000D01*
X84033000Y-54895000D01*
X84033000Y-54873000D01*
X84287000Y-54873000D01*
X84287000Y-54895000D01*
X85636250Y-54895000D01*
X85795000Y-54736250D01*
X85795000Y-54643691D01*
X85698327Y-54410302D01*
X85677296Y-54389271D01*
X86250000Y-53816567D01*
X86250000Y-54064250D01*
X86408750Y-54223000D01*
X87383000Y-54223000D01*
X87383000Y-53123750D01*
X87224250Y-52965000D01*
X87101568Y-52965000D01*
X88102270Y-51964298D01*
X88204131Y-51811852D01*
X88239900Y-51632029D01*
X88239900Y-50724638D01*
X92482269Y-46482270D01*
X92584131Y-46329823D01*
X92592504Y-46287730D01*
X92619900Y-46150000D01*
X92619900Y-39406257D01*
X92831697Y-39618423D01*
X92831697Y-39618423D01*
G37*
X92831697Y-39618423D02*
X93010100Y-39692502D01*
X93010100Y-46775361D01*
X88707731Y-51077731D01*
X88605869Y-51230177D01*
X88570100Y-51410000D01*
X88570100Y-53137074D01*
X88494699Y-53061673D01*
X88261310Y-52965000D01*
X87795750Y-52965000D01*
X87637000Y-53123750D01*
X87637000Y-54223000D01*
X87657000Y-54223000D01*
X87657000Y-54477000D01*
X87637000Y-54477000D01*
X87637000Y-54497000D01*
X87383000Y-54497000D01*
X87383000Y-54477000D01*
X86408750Y-54477000D01*
X86250000Y-54635750D01*
X86250000Y-55110100D01*
X86040000Y-55110100D01*
X85876089Y-55142704D01*
X85860177Y-55145869D01*
X85726464Y-55235214D01*
X85636250Y-55145000D01*
X84287000Y-55145000D01*
X84287000Y-55167000D01*
X84033000Y-55167000D01*
X84033000Y-55145000D01*
X82683750Y-55145000D01*
X82525000Y-55303750D01*
X82525000Y-55396309D01*
X82621673Y-55629698D01*
X82771536Y-55779562D01*
X82771536Y-55985000D01*
X82528080Y-55985000D01*
X82358618Y-55731382D01*
X81489000Y-54861764D01*
X81489000Y-52120000D01*
X81421329Y-51779794D01*
X81228618Y-51491382D01*
X80428618Y-50691382D01*
X80395000Y-50668919D01*
X80395000Y-50536250D01*
X80435000Y-50496250D01*
X80435000Y-49147000D01*
X80413000Y-49147000D01*
X80413000Y-48893000D01*
X80435000Y-48893000D01*
X80435000Y-47543750D01*
X80276250Y-47385000D01*
X80229900Y-47385000D01*
X80229900Y-47377438D01*
X80502270Y-47105069D01*
X80583524Y-46983464D01*
X80920000Y-46983464D01*
X81061190Y-46956897D01*
X81190865Y-46873454D01*
X81277859Y-46746134D01*
X81285000Y-46710870D01*
X81285000Y-46721310D01*
X81381673Y-46954699D01*
X81560302Y-47133327D01*
X81793691Y-47230000D01*
X82384250Y-47230000D01*
X82543000Y-47071250D01*
X82543000Y-46097000D01*
X82523000Y-46097000D01*
X82523000Y-45843000D01*
X82543000Y-45843000D01*
X82543000Y-44868750D01*
X82797000Y-44868750D01*
X82797000Y-45843000D01*
X83896250Y-45843000D01*
X84055000Y-45684250D01*
X84055000Y-45218690D01*
X83958327Y-44985301D01*
X83779698Y-44806673D01*
X83546309Y-44710000D01*
X82955750Y-44710000D01*
X82797000Y-44868750D01*
X82543000Y-44868750D01*
X82384250Y-44710000D01*
X81793691Y-44710000D01*
X81560302Y-44806673D01*
X81381673Y-44985301D01*
X81285000Y-45218690D01*
X81285000Y-45220301D01*
X81281897Y-45203810D01*
X81198454Y-45074135D01*
X81071134Y-44987141D01*
X80920000Y-44956536D01*
X79698002Y-44956536D01*
X83682270Y-40972269D01*
X83784131Y-40819823D01*
X83819900Y-40640000D01*
X83819900Y-39680174D01*
X83966612Y-39619554D01*
X84080100Y-39506263D01*
X84080100Y-46365361D01*
X84055000Y-46390461D01*
X84055000Y-46255750D01*
X83896250Y-46097000D01*
X82797000Y-46097000D01*
X82797000Y-47071250D01*
X82955750Y-47230000D01*
X83215461Y-47230000D01*
X82691536Y-47753925D01*
X82688454Y-47749135D01*
X82561134Y-47662141D01*
X82410000Y-47631536D01*
X81910000Y-47631536D01*
X81768810Y-47658103D01*
X81761813Y-47662605D01*
X81761134Y-47662141D01*
X81610000Y-47631536D01*
X81319561Y-47631536D01*
X81169699Y-47481673D01*
X80936310Y-47385000D01*
X80843750Y-47385000D01*
X80685000Y-47543750D01*
X80685000Y-48893000D01*
X80707000Y-48893000D01*
X80707000Y-49147000D01*
X80685000Y-49147000D01*
X80685000Y-50496250D01*
X80843750Y-50655000D01*
X80936310Y-50655000D01*
X81089294Y-50591632D01*
X81116632Y-50618970D01*
X81269078Y-50720832D01*
X81448901Y-50756601D01*
X82774249Y-50756601D01*
X82771536Y-50770000D01*
X82771536Y-51270000D01*
X82798103Y-51411190D01*
X82802605Y-51418187D01*
X82802141Y-51418866D01*
X82771536Y-51570000D01*
X82771536Y-52070000D01*
X82798103Y-52211190D01*
X82802605Y-52218187D01*
X82802141Y-52218866D01*
X82771536Y-52370000D01*
X82771536Y-52870000D01*
X82798103Y-53011190D01*
X82802605Y-53018187D01*
X82802141Y-53018866D01*
X82771536Y-53170000D01*
X82771536Y-53670000D01*
X82798103Y-53811190D01*
X82802605Y-53818187D01*
X82802141Y-53818866D01*
X82771536Y-53970000D01*
X82771536Y-54260438D01*
X82621673Y-54410302D01*
X82525000Y-54643691D01*
X82525000Y-54736250D01*
X82683750Y-54895000D01*
X84033000Y-54895000D01*
X84033000Y-54873000D01*
X84287000Y-54873000D01*
X84287000Y-54895000D01*
X85636250Y-54895000D01*
X85795000Y-54736250D01*
X85795000Y-54643691D01*
X85698327Y-54410302D01*
X85677296Y-54389271D01*
X86250000Y-53816567D01*
X86250000Y-54064250D01*
X86408750Y-54223000D01*
X87383000Y-54223000D01*
X87383000Y-53123750D01*
X87224250Y-52965000D01*
X87101568Y-52965000D01*
X88102270Y-51964298D01*
X88204131Y-51811852D01*
X88239900Y-51632029D01*
X88239900Y-50724638D01*
X92482269Y-46482270D01*
X92584131Y-46329823D01*
X92592504Y-46287730D01*
X92619900Y-46150000D01*
X92619900Y-39406257D01*
X92831697Y-39618423D01*
G36*
X64808857Y-39872397D02*
X65332302Y-40059144D01*
X65887368Y-40031362D01*
X66271143Y-39872397D01*
X66300100Y-39771441D01*
X66300100Y-48407800D01*
X66327391Y-48544999D01*
X66335869Y-48587623D01*
X66437731Y-48740069D01*
X70647761Y-52950100D01*
X70124639Y-52950100D01*
X64729900Y-47555362D01*
X64729900Y-39639708D01*
X64739393Y-39630215D01*
X64808857Y-39872397D01*
X64808857Y-39872397D01*
G37*
X64808857Y-39872397D02*
X65332302Y-40059144D01*
X65887368Y-40031362D01*
X66271143Y-39872397D01*
X66300100Y-39771441D01*
X66300100Y-48407800D01*
X66327391Y-48544999D01*
X66335869Y-48587623D01*
X66437731Y-48740069D01*
X70647761Y-52950100D01*
X70124639Y-52950100D01*
X64729900Y-47555362D01*
X64729900Y-39639708D01*
X64739393Y-39630215D01*
X64808857Y-39872397D01*
G36*
X67348857Y-39872397D02*
X67872302Y-40059144D01*
X68427368Y-40031362D01*
X68811143Y-39872397D01*
X68830100Y-39806305D01*
X68830100Y-47732200D01*
X68853472Y-47849699D01*
X68865869Y-47912023D01*
X68967731Y-48064469D01*
X71284797Y-50381536D01*
X71160000Y-50381536D01*
X71018810Y-50408103D01*
X70889135Y-50491546D01*
X70802141Y-50618866D01*
X70771536Y-50770000D01*
X70771536Y-51270000D01*
X70798103Y-51411190D01*
X70802605Y-51418187D01*
X70802141Y-51418866D01*
X70771536Y-51570000D01*
X70771536Y-51744797D01*
X67239900Y-48213162D01*
X67239900Y-39669708D01*
X67279393Y-39630215D01*
X67348857Y-39872397D01*
X67348857Y-39872397D01*
G37*
X67348857Y-39872397D02*
X67872302Y-40059144D01*
X68427368Y-40031362D01*
X68811143Y-39872397D01*
X68830100Y-39806305D01*
X68830100Y-47732200D01*
X68853472Y-47849699D01*
X68865869Y-47912023D01*
X68967731Y-48064469D01*
X71284797Y-50381536D01*
X71160000Y-50381536D01*
X71018810Y-50408103D01*
X70889135Y-50491546D01*
X70802141Y-50618866D01*
X70771536Y-50770000D01*
X70771536Y-51270000D01*
X70798103Y-51411190D01*
X70802605Y-51418187D01*
X70802141Y-51418866D01*
X70771536Y-51570000D01*
X70771536Y-51744797D01*
X67239900Y-48213162D01*
X67239900Y-39669708D01*
X67279393Y-39630215D01*
X67348857Y-39872397D01*
G36*
X69888857Y-39872397D02*
X70412302Y-40059144D01*
X70967368Y-40031362D01*
X71351143Y-39872397D01*
X71420100Y-39631984D01*
X71420100Y-47177800D01*
X71447564Y-47315869D01*
X71455869Y-47357623D01*
X71557731Y-47510069D01*
X73399930Y-49352269D01*
X73521536Y-49433524D01*
X73521536Y-50020000D01*
X73548103Y-50161190D01*
X73631546Y-50290865D01*
X73758866Y-50377859D01*
X73910000Y-50408464D01*
X74410000Y-50408464D01*
X74551190Y-50381897D01*
X74558187Y-50377395D01*
X74558866Y-50377859D01*
X74710000Y-50408464D01*
X75210000Y-50408464D01*
X75351190Y-50381897D01*
X75358187Y-50377395D01*
X75358866Y-50377859D01*
X75510000Y-50408464D01*
X76010000Y-50408464D01*
X76151190Y-50381897D01*
X76158187Y-50377395D01*
X76158866Y-50377859D01*
X76310000Y-50408464D01*
X76810000Y-50408464D01*
X76951190Y-50381897D01*
X76958187Y-50377395D01*
X76958866Y-50377859D01*
X77110000Y-50408464D01*
X77610000Y-50408464D01*
X77751190Y-50381897D01*
X77758187Y-50377395D01*
X77758866Y-50377859D01*
X77910000Y-50408464D01*
X78410000Y-50408464D01*
X78551190Y-50381897D01*
X78558187Y-50377395D01*
X78558866Y-50377859D01*
X78710000Y-50408464D01*
X79125000Y-50408464D01*
X79125000Y-50431000D01*
X74510776Y-50431000D01*
X74333943Y-50430846D01*
X74007080Y-50565903D01*
X73756782Y-50815764D01*
X73621154Y-51142391D01*
X73621117Y-51185000D01*
X73548464Y-51185000D01*
X73548464Y-50770000D01*
X73521897Y-50628810D01*
X73438454Y-50499135D01*
X73311134Y-50412141D01*
X73160000Y-50381536D01*
X72573524Y-50381536D01*
X72492270Y-50259931D01*
X69769900Y-47537562D01*
X69769900Y-39679708D01*
X69819393Y-39630215D01*
X69888857Y-39872397D01*
X69888857Y-39872397D01*
G37*
X69888857Y-39872397D02*
X70412302Y-40059144D01*
X70967368Y-40031362D01*
X71351143Y-39872397D01*
X71420100Y-39631984D01*
X71420100Y-47177800D01*
X71447564Y-47315869D01*
X71455869Y-47357623D01*
X71557731Y-47510069D01*
X73399930Y-49352269D01*
X73521536Y-49433524D01*
X73521536Y-50020000D01*
X73548103Y-50161190D01*
X73631546Y-50290865D01*
X73758866Y-50377859D01*
X73910000Y-50408464D01*
X74410000Y-50408464D01*
X74551190Y-50381897D01*
X74558187Y-50377395D01*
X74558866Y-50377859D01*
X74710000Y-50408464D01*
X75210000Y-50408464D01*
X75351190Y-50381897D01*
X75358187Y-50377395D01*
X75358866Y-50377859D01*
X75510000Y-50408464D01*
X76010000Y-50408464D01*
X76151190Y-50381897D01*
X76158187Y-50377395D01*
X76158866Y-50377859D01*
X76310000Y-50408464D01*
X76810000Y-50408464D01*
X76951190Y-50381897D01*
X76958187Y-50377395D01*
X76958866Y-50377859D01*
X77110000Y-50408464D01*
X77610000Y-50408464D01*
X77751190Y-50381897D01*
X77758187Y-50377395D01*
X77758866Y-50377859D01*
X77910000Y-50408464D01*
X78410000Y-50408464D01*
X78551190Y-50381897D01*
X78558187Y-50377395D01*
X78558866Y-50377859D01*
X78710000Y-50408464D01*
X79125000Y-50408464D01*
X79125000Y-50431000D01*
X74510776Y-50431000D01*
X74333943Y-50430846D01*
X74007080Y-50565903D01*
X73756782Y-50815764D01*
X73621154Y-51142391D01*
X73621117Y-51185000D01*
X73548464Y-51185000D01*
X73548464Y-50770000D01*
X73521897Y-50628810D01*
X73438454Y-50499135D01*
X73311134Y-50412141D01*
X73160000Y-50381536D01*
X72573524Y-50381536D01*
X72492270Y-50259931D01*
X69769900Y-47537562D01*
X69769900Y-39679708D01*
X69819393Y-39630215D01*
X69888857Y-39872397D01*
G36*
X85211697Y-39618423D02*
X85390100Y-39692502D01*
X85390100Y-47445361D01*
X83874458Y-48961004D01*
X83706611Y-48792864D01*
X83417313Y-48672737D01*
X83104066Y-48672464D01*
X83100672Y-48673866D01*
X84882269Y-46892270D01*
X84984131Y-46739823D01*
X84989486Y-46712900D01*
X85019900Y-46560000D01*
X85019900Y-39426292D01*
X85211697Y-39618423D01*
X85211697Y-39618423D01*
G37*
X85211697Y-39618423D02*
X85390100Y-39692502D01*
X85390100Y-47445361D01*
X83874458Y-48961004D01*
X83706611Y-48792864D01*
X83417313Y-48672737D01*
X83104066Y-48672464D01*
X83100672Y-48673866D01*
X84882269Y-46892270D01*
X84984131Y-46739823D01*
X84989486Y-46712900D01*
X85019900Y-46560000D01*
X85019900Y-39426292D01*
X85211697Y-39618423D01*
G36*
X70813748Y-38635858D02*
X70799605Y-38650000D01*
X70813748Y-38664143D01*
X70634143Y-38843748D01*
X70620000Y-38829605D01*
X70605858Y-38843748D01*
X70426253Y-38664143D01*
X70440395Y-38650000D01*
X70426253Y-38635858D01*
X70605858Y-38456253D01*
X70620000Y-38470395D01*
X70634143Y-38456253D01*
X70813748Y-38635858D01*
X70813748Y-38635858D01*
G37*
X70813748Y-38635858D02*
X70799605Y-38650000D01*
X70813748Y-38664143D01*
X70634143Y-38843748D01*
X70620000Y-38829605D01*
X70605858Y-38843748D01*
X70426253Y-38664143D01*
X70440395Y-38650000D01*
X70426253Y-38635858D01*
X70605858Y-38456253D01*
X70620000Y-38470395D01*
X70634143Y-38456253D01*
X70813748Y-38635858D01*
G36*
X65733748Y-38635858D02*
X65719605Y-38650000D01*
X65733748Y-38664143D01*
X65554143Y-38843748D01*
X65540000Y-38829605D01*
X65525858Y-38843748D01*
X65346253Y-38664143D01*
X65360395Y-38650000D01*
X65346253Y-38635858D01*
X65525858Y-38456253D01*
X65540000Y-38470395D01*
X65554143Y-38456253D01*
X65733748Y-38635858D01*
X65733748Y-38635858D01*
G37*
X65733748Y-38635858D02*
X65719605Y-38650000D01*
X65733748Y-38664143D01*
X65554143Y-38843748D01*
X65540000Y-38829605D01*
X65525858Y-38843748D01*
X65346253Y-38664143D01*
X65360395Y-38650000D01*
X65346253Y-38635858D01*
X65525858Y-38456253D01*
X65540000Y-38470395D01*
X65554143Y-38456253D01*
X65733748Y-38635858D01*
G36*
X68273748Y-38635858D02*
X68259605Y-38650000D01*
X68273748Y-38664143D01*
X68094143Y-38843748D01*
X68080000Y-38829605D01*
X68065858Y-38843748D01*
X67886253Y-38664143D01*
X67900395Y-38650000D01*
X67886253Y-38635858D01*
X68065858Y-38456253D01*
X68080000Y-38470395D01*
X68094143Y-38456253D01*
X68273748Y-38635858D01*
X68273748Y-38635858D01*
G37*
X68273748Y-38635858D02*
X68259605Y-38650000D01*
X68273748Y-38664143D01*
X68094143Y-38843748D01*
X68080000Y-38829605D01*
X68065858Y-38843748D01*
X67886253Y-38664143D01*
X67900395Y-38650000D01*
X67886253Y-38635858D01*
X68065858Y-38456253D01*
X68080000Y-38470395D01*
X68094143Y-38456253D01*
X68273748Y-38635858D01*
M02*
