G04 #@! TF.FileFunction,Legend,Top*
%FSLAX46Y46*%
G04 Gerber Fmt 4.6, Leading zero omitted, Abs format (unit mm)*
G04 Created by KiCad (PCBNEW 4.0.6) date Saturday, October 28, 2017 'PMt' 05:20:16 PM*
%MOMM*%
%LPD*%
G01*
G04 APERTURE LIST*
%ADD10C,0.100000*%
%ADD11C,0.177800*%
%ADD12C,0.300000*%
%ADD13C,0.120000*%
%ADD14C,0.150000*%
G04 APERTURE END LIST*
D10*
D11*
X110119287Y-53988429D02*
X109998334Y-54024714D01*
X109756430Y-54024714D01*
X109635477Y-53988429D01*
X109575001Y-53952143D01*
X109514525Y-53879571D01*
X109514525Y-53661857D01*
X109575001Y-53589286D01*
X109635477Y-53553000D01*
X109756430Y-53516714D01*
X109998334Y-53516714D01*
X110119287Y-53553000D01*
X110663572Y-54024714D02*
X110663572Y-53262714D01*
X110784524Y-53734429D02*
X111147381Y-54024714D01*
X111147381Y-53516714D02*
X110663572Y-53807000D01*
X112598810Y-53988429D02*
X112719762Y-54024714D01*
X112961667Y-54024714D01*
X113082619Y-53988429D01*
X113143095Y-53915857D01*
X113143095Y-53879571D01*
X113082619Y-53807000D01*
X112961667Y-53770714D01*
X112780238Y-53770714D01*
X112659286Y-53734429D01*
X112598810Y-53661857D01*
X112598810Y-53625571D01*
X112659286Y-53553000D01*
X112780238Y-53516714D01*
X112961667Y-53516714D01*
X113082619Y-53553000D01*
X114655000Y-54024714D02*
X114655000Y-53516714D01*
X114655000Y-53589286D02*
X114715476Y-53553000D01*
X114836429Y-53516714D01*
X115017857Y-53516714D01*
X115138809Y-53553000D01*
X115199286Y-53625571D01*
X115199286Y-54024714D01*
X115199286Y-53625571D02*
X115259762Y-53553000D01*
X115380714Y-53516714D01*
X115562143Y-53516714D01*
X115683095Y-53553000D01*
X115743571Y-53625571D01*
X115743571Y-54024714D01*
X116529762Y-54024714D02*
X116408809Y-53988429D01*
X116348333Y-53952143D01*
X116287857Y-53879571D01*
X116287857Y-53661857D01*
X116348333Y-53589286D01*
X116408809Y-53553000D01*
X116529762Y-53516714D01*
X116711190Y-53516714D01*
X116832142Y-53553000D01*
X116892619Y-53589286D01*
X116953095Y-53661857D01*
X116953095Y-53879571D01*
X116892619Y-53952143D01*
X116832142Y-53988429D01*
X116711190Y-54024714D01*
X116529762Y-54024714D01*
X118465000Y-54024714D02*
X118465000Y-53516714D01*
X118465000Y-53262714D02*
X118404524Y-53299000D01*
X118465000Y-53335286D01*
X118525476Y-53299000D01*
X118465000Y-53262714D01*
X118465000Y-53335286D01*
X122516662Y-89756814D02*
X122478567Y-89794910D01*
X122364281Y-89833005D01*
X122288091Y-89833005D01*
X122173805Y-89794910D01*
X122097614Y-89718719D01*
X122059519Y-89642529D01*
X122021424Y-89490148D01*
X122021424Y-89375862D01*
X122059519Y-89223481D01*
X122097614Y-89147290D01*
X122173805Y-89071100D01*
X122288091Y-89033005D01*
X122364281Y-89033005D01*
X122478567Y-89071100D01*
X122516662Y-89109195D01*
X122973805Y-89833005D02*
X122897614Y-89794910D01*
X122859519Y-89756814D01*
X122821424Y-89680624D01*
X122821424Y-89452052D01*
X122859519Y-89375862D01*
X122897614Y-89337767D01*
X122973805Y-89299671D01*
X123088091Y-89299671D01*
X123164281Y-89337767D01*
X123202376Y-89375862D01*
X123240472Y-89452052D01*
X123240472Y-89680624D01*
X123202376Y-89756814D01*
X123164281Y-89794910D01*
X123088091Y-89833005D01*
X122973805Y-89833005D01*
X123583329Y-89299671D02*
X123583329Y-90099671D01*
X123583329Y-89337767D02*
X123659520Y-89299671D01*
X123811901Y-89299671D01*
X123888091Y-89337767D01*
X123926186Y-89375862D01*
X123964282Y-89452052D01*
X123964282Y-89680624D01*
X123926186Y-89756814D01*
X123888091Y-89794910D01*
X123811901Y-89833005D01*
X123659520Y-89833005D01*
X123583329Y-89794910D01*
X124230949Y-89299671D02*
X124421425Y-89833005D01*
X124611901Y-89299671D02*
X124421425Y-89833005D01*
X124345234Y-90023481D01*
X124307139Y-90061576D01*
X124230949Y-90099671D01*
X124916663Y-89833005D02*
X124916663Y-89299671D01*
X124916663Y-89452052D02*
X124954758Y-89375862D01*
X124992854Y-89337767D01*
X125069044Y-89299671D01*
X125145235Y-89299671D01*
X125411901Y-89833005D02*
X125411901Y-89299671D01*
X125411901Y-89033005D02*
X125373806Y-89071100D01*
X125411901Y-89109195D01*
X125449996Y-89071100D01*
X125411901Y-89033005D01*
X125411901Y-89109195D01*
X126135710Y-89299671D02*
X126135710Y-89947290D01*
X126097615Y-90023481D01*
X126059520Y-90061576D01*
X125983329Y-90099671D01*
X125869044Y-90099671D01*
X125792853Y-90061576D01*
X126135710Y-89794910D02*
X126059520Y-89833005D01*
X125907139Y-89833005D01*
X125830948Y-89794910D01*
X125792853Y-89756814D01*
X125754758Y-89680624D01*
X125754758Y-89452052D01*
X125792853Y-89375862D01*
X125830948Y-89337767D01*
X125907139Y-89299671D01*
X126059520Y-89299671D01*
X126135710Y-89337767D01*
X126516663Y-89833005D02*
X126516663Y-89033005D01*
X126859520Y-89833005D02*
X126859520Y-89413957D01*
X126821425Y-89337767D01*
X126745235Y-89299671D01*
X126630949Y-89299671D01*
X126554758Y-89337767D01*
X126516663Y-89375862D01*
X127126187Y-89299671D02*
X127430949Y-89299671D01*
X127240473Y-89033005D02*
X127240473Y-89718719D01*
X127278568Y-89794910D01*
X127354759Y-89833005D01*
X127430949Y-89833005D01*
X128269045Y-89109195D02*
X128307140Y-89071100D01*
X128383331Y-89033005D01*
X128573807Y-89033005D01*
X128649997Y-89071100D01*
X128688093Y-89109195D01*
X128726188Y-89185386D01*
X128726188Y-89261576D01*
X128688093Y-89375862D01*
X128230950Y-89833005D01*
X128726188Y-89833005D01*
X129221426Y-89033005D02*
X129297617Y-89033005D01*
X129373807Y-89071100D01*
X129411902Y-89109195D01*
X129449998Y-89185386D01*
X129488093Y-89337767D01*
X129488093Y-89528243D01*
X129449998Y-89680624D01*
X129411902Y-89756814D01*
X129373807Y-89794910D01*
X129297617Y-89833005D01*
X129221426Y-89833005D01*
X129145236Y-89794910D01*
X129107140Y-89756814D01*
X129069045Y-89680624D01*
X129030950Y-89528243D01*
X129030950Y-89337767D01*
X129069045Y-89185386D01*
X129107140Y-89109195D01*
X129145236Y-89071100D01*
X129221426Y-89033005D01*
X130249998Y-89833005D02*
X129792855Y-89833005D01*
X130021426Y-89833005D02*
X130021426Y-89033005D01*
X129945236Y-89147290D01*
X129869045Y-89223481D01*
X129792855Y-89261576D01*
X130516665Y-89033005D02*
X131049998Y-89033005D01*
X130707141Y-89833005D01*
X132383332Y-89071100D02*
X132307141Y-89033005D01*
X132192856Y-89033005D01*
X132078570Y-89071100D01*
X132002379Y-89147290D01*
X131964284Y-89223481D01*
X131926189Y-89375862D01*
X131926189Y-89490148D01*
X131964284Y-89642529D01*
X132002379Y-89718719D01*
X132078570Y-89794910D01*
X132192856Y-89833005D01*
X132269046Y-89833005D01*
X132383332Y-89794910D01*
X132421427Y-89756814D01*
X132421427Y-89490148D01*
X132269046Y-89490148D01*
X132878570Y-89833005D02*
X132802379Y-89794910D01*
X132764284Y-89756814D01*
X132726189Y-89680624D01*
X132726189Y-89452052D01*
X132764284Y-89375862D01*
X132802379Y-89337767D01*
X132878570Y-89299671D01*
X132992856Y-89299671D01*
X133069046Y-89337767D01*
X133107141Y-89375862D01*
X133145237Y-89452052D01*
X133145237Y-89680624D01*
X133107141Y-89756814D01*
X133069046Y-89794910D01*
X132992856Y-89833005D01*
X132878570Y-89833005D01*
X133602380Y-89833005D02*
X133526189Y-89794910D01*
X133488094Y-89756814D01*
X133449999Y-89680624D01*
X133449999Y-89452052D01*
X133488094Y-89375862D01*
X133526189Y-89337767D01*
X133602380Y-89299671D01*
X133716666Y-89299671D01*
X133792856Y-89337767D01*
X133830951Y-89375862D01*
X133869047Y-89452052D01*
X133869047Y-89680624D01*
X133830951Y-89756814D01*
X133792856Y-89794910D01*
X133716666Y-89833005D01*
X133602380Y-89833005D01*
X134554761Y-89299671D02*
X134554761Y-89947290D01*
X134516666Y-90023481D01*
X134478571Y-90061576D01*
X134402380Y-90099671D01*
X134288095Y-90099671D01*
X134211904Y-90061576D01*
X134554761Y-89794910D02*
X134478571Y-89833005D01*
X134326190Y-89833005D01*
X134249999Y-89794910D01*
X134211904Y-89756814D01*
X134173809Y-89680624D01*
X134173809Y-89452052D01*
X134211904Y-89375862D01*
X134249999Y-89337767D01*
X134326190Y-89299671D01*
X134478571Y-89299671D01*
X134554761Y-89337767D01*
X135050000Y-89833005D02*
X134973809Y-89794910D01*
X134935714Y-89718719D01*
X134935714Y-89033005D01*
X135659524Y-89794910D02*
X135583334Y-89833005D01*
X135430953Y-89833005D01*
X135354762Y-89794910D01*
X135316667Y-89718719D01*
X135316667Y-89413957D01*
X135354762Y-89337767D01*
X135430953Y-89299671D01*
X135583334Y-89299671D01*
X135659524Y-89337767D01*
X135697619Y-89413957D01*
X135697619Y-89490148D01*
X135316667Y-89566338D01*
X136650000Y-89833005D02*
X136650000Y-89033005D01*
X137030952Y-89299671D02*
X137030952Y-89833005D01*
X137030952Y-89375862D02*
X137069047Y-89337767D01*
X137145238Y-89299671D01*
X137259524Y-89299671D01*
X137335714Y-89337767D01*
X137373809Y-89413957D01*
X137373809Y-89833005D01*
X138097619Y-89794910D02*
X138021429Y-89833005D01*
X137869048Y-89833005D01*
X137792857Y-89794910D01*
X137754762Y-89756814D01*
X137716667Y-89680624D01*
X137716667Y-89452052D01*
X137754762Y-89375862D01*
X137792857Y-89337767D01*
X137869048Y-89299671D01*
X138021429Y-89299671D01*
X138097619Y-89337767D01*
X106021422Y-90677471D02*
X106021422Y-91325090D01*
X105983327Y-91401281D01*
X105945232Y-91439376D01*
X105869041Y-91477471D01*
X105754756Y-91477471D01*
X105678565Y-91439376D01*
X106021422Y-91172710D02*
X105945232Y-91210805D01*
X105792851Y-91210805D01*
X105716660Y-91172710D01*
X105678565Y-91134614D01*
X105640470Y-91058424D01*
X105640470Y-90829852D01*
X105678565Y-90753662D01*
X105716660Y-90715567D01*
X105792851Y-90677471D01*
X105945232Y-90677471D01*
X106021422Y-90715567D01*
X106402375Y-91210805D02*
X106402375Y-90677471D01*
X106402375Y-90410805D02*
X106364280Y-90448900D01*
X106402375Y-90486995D01*
X106440470Y-90448900D01*
X106402375Y-90410805D01*
X106402375Y-90486995D01*
X106669041Y-90677471D02*
X106973803Y-90677471D01*
X106783327Y-90410805D02*
X106783327Y-91096519D01*
X106821422Y-91172710D01*
X106897613Y-91210805D01*
X106973803Y-91210805D01*
X107240470Y-91210805D02*
X107240470Y-90410805D01*
X107583327Y-91210805D02*
X107583327Y-90791757D01*
X107545232Y-90715567D01*
X107469042Y-90677471D01*
X107354756Y-90677471D01*
X107278565Y-90715567D01*
X107240470Y-90753662D01*
X108307137Y-90677471D02*
X108307137Y-91210805D01*
X107964280Y-90677471D02*
X107964280Y-91096519D01*
X108002375Y-91172710D01*
X108078566Y-91210805D01*
X108192852Y-91210805D01*
X108269042Y-91172710D01*
X108307137Y-91134614D01*
X108688090Y-91210805D02*
X108688090Y-90410805D01*
X108688090Y-90715567D02*
X108764281Y-90677471D01*
X108916662Y-90677471D01*
X108992852Y-90715567D01*
X109030947Y-90753662D01*
X109069043Y-90829852D01*
X109069043Y-91058424D01*
X109030947Y-91134614D01*
X108992852Y-91172710D01*
X108916662Y-91210805D01*
X108764281Y-91210805D01*
X108688090Y-91172710D01*
X109411900Y-91134614D02*
X109449995Y-91172710D01*
X109411900Y-91210805D01*
X109373805Y-91172710D01*
X109411900Y-91134614D01*
X109411900Y-91210805D01*
X110135709Y-91172710D02*
X110059519Y-91210805D01*
X109907138Y-91210805D01*
X109830947Y-91172710D01*
X109792852Y-91134614D01*
X109754757Y-91058424D01*
X109754757Y-90829852D01*
X109792852Y-90753662D01*
X109830947Y-90715567D01*
X109907138Y-90677471D01*
X110059519Y-90677471D01*
X110135709Y-90715567D01*
X110592852Y-91210805D02*
X110516661Y-91172710D01*
X110478566Y-91134614D01*
X110440471Y-91058424D01*
X110440471Y-90829852D01*
X110478566Y-90753662D01*
X110516661Y-90715567D01*
X110592852Y-90677471D01*
X110707138Y-90677471D01*
X110783328Y-90715567D01*
X110821423Y-90753662D01*
X110859519Y-90829852D01*
X110859519Y-91058424D01*
X110821423Y-91134614D01*
X110783328Y-91172710D01*
X110707138Y-91210805D01*
X110592852Y-91210805D01*
X111202376Y-91210805D02*
X111202376Y-90677471D01*
X111202376Y-90753662D02*
X111240471Y-90715567D01*
X111316662Y-90677471D01*
X111430948Y-90677471D01*
X111507138Y-90715567D01*
X111545233Y-90791757D01*
X111545233Y-91210805D01*
X111545233Y-90791757D02*
X111583329Y-90715567D01*
X111659519Y-90677471D01*
X111773805Y-90677471D01*
X111849995Y-90715567D01*
X111888090Y-90791757D01*
X111888090Y-91210805D01*
X112840472Y-90372710D02*
X112154757Y-91401281D01*
X113449995Y-90677471D02*
X113449995Y-91325090D01*
X113411900Y-91401281D01*
X113373805Y-91439376D01*
X113297614Y-91477471D01*
X113183329Y-91477471D01*
X113107138Y-91439376D01*
X113449995Y-91172710D02*
X113373805Y-91210805D01*
X113221424Y-91210805D01*
X113145233Y-91172710D01*
X113107138Y-91134614D01*
X113069043Y-91058424D01*
X113069043Y-90829852D01*
X113107138Y-90753662D01*
X113145233Y-90715567D01*
X113221424Y-90677471D01*
X113373805Y-90677471D01*
X113449995Y-90715567D01*
X113945234Y-91210805D02*
X113869043Y-91172710D01*
X113830948Y-91134614D01*
X113792853Y-91058424D01*
X113792853Y-90829852D01*
X113830948Y-90753662D01*
X113869043Y-90715567D01*
X113945234Y-90677471D01*
X114059520Y-90677471D01*
X114135710Y-90715567D01*
X114173805Y-90753662D01*
X114211901Y-90829852D01*
X114211901Y-91058424D01*
X114173805Y-91134614D01*
X114135710Y-91172710D01*
X114059520Y-91210805D01*
X113945234Y-91210805D01*
X114669044Y-91210805D02*
X114592853Y-91172710D01*
X114554758Y-91134614D01*
X114516663Y-91058424D01*
X114516663Y-90829852D01*
X114554758Y-90753662D01*
X114592853Y-90715567D01*
X114669044Y-90677471D01*
X114783330Y-90677471D01*
X114859520Y-90715567D01*
X114897615Y-90753662D01*
X114935711Y-90829852D01*
X114935711Y-91058424D01*
X114897615Y-91134614D01*
X114859520Y-91172710D01*
X114783330Y-91210805D01*
X114669044Y-91210805D01*
X115621425Y-90677471D02*
X115621425Y-91325090D01*
X115583330Y-91401281D01*
X115545235Y-91439376D01*
X115469044Y-91477471D01*
X115354759Y-91477471D01*
X115278568Y-91439376D01*
X115621425Y-91172710D02*
X115545235Y-91210805D01*
X115392854Y-91210805D01*
X115316663Y-91172710D01*
X115278568Y-91134614D01*
X115240473Y-91058424D01*
X115240473Y-90829852D01*
X115278568Y-90753662D01*
X115316663Y-90715567D01*
X115392854Y-90677471D01*
X115545235Y-90677471D01*
X115621425Y-90715567D01*
X116116664Y-91210805D02*
X116040473Y-91172710D01*
X116002378Y-91096519D01*
X116002378Y-90410805D01*
X116726188Y-91172710D02*
X116649998Y-91210805D01*
X116497617Y-91210805D01*
X116421426Y-91172710D01*
X116383331Y-91096519D01*
X116383331Y-90791757D01*
X116421426Y-90715567D01*
X116497617Y-90677471D01*
X116649998Y-90677471D01*
X116726188Y-90715567D01*
X116764283Y-90791757D01*
X116764283Y-90867948D01*
X116383331Y-90944138D01*
X117678569Y-90372710D02*
X116992854Y-91401281D01*
X117945235Y-91210805D02*
X117945235Y-90677471D01*
X117945235Y-90753662D02*
X117983330Y-90715567D01*
X118059521Y-90677471D01*
X118173807Y-90677471D01*
X118249997Y-90715567D01*
X118288092Y-90791757D01*
X118288092Y-91210805D01*
X118288092Y-90791757D02*
X118326188Y-90715567D01*
X118402378Y-90677471D01*
X118516664Y-90677471D01*
X118592854Y-90715567D01*
X118630949Y-90791757D01*
X118630949Y-91210805D01*
X118935712Y-90677471D02*
X119126188Y-91210805D01*
X119316664Y-90677471D02*
X119126188Y-91210805D01*
X119049997Y-91401281D01*
X119011902Y-91439376D01*
X118935712Y-91477471D01*
X119926188Y-91172710D02*
X119849998Y-91210805D01*
X119697617Y-91210805D01*
X119621426Y-91172710D01*
X119583331Y-91096519D01*
X119583331Y-90791757D01*
X119621426Y-90715567D01*
X119697617Y-90677471D01*
X119849998Y-90677471D01*
X119926188Y-90715567D01*
X119964283Y-90791757D01*
X119964283Y-90867948D01*
X119583331Y-90944138D01*
X120421426Y-91210805D02*
X120345235Y-91172710D01*
X120307140Y-91096519D01*
X120307140Y-90410805D01*
X120726188Y-91210805D02*
X120726188Y-90677471D01*
X120726188Y-90410805D02*
X120688093Y-90448900D01*
X120726188Y-90486995D01*
X120764283Y-90448900D01*
X120726188Y-90410805D01*
X120726188Y-90486995D01*
X121107140Y-90677471D02*
X121107140Y-91210805D01*
X121107140Y-90753662D02*
X121145235Y-90715567D01*
X121221426Y-90677471D01*
X121335712Y-90677471D01*
X121411902Y-90715567D01*
X121449997Y-90791757D01*
X121449997Y-91210805D01*
X121830950Y-90906043D02*
X122440474Y-90906043D01*
X123164283Y-91210805D02*
X123164283Y-90791757D01*
X123126188Y-90715567D01*
X123049998Y-90677471D01*
X122897617Y-90677471D01*
X122821426Y-90715567D01*
X123164283Y-91172710D02*
X123088093Y-91210805D01*
X122897617Y-91210805D01*
X122821426Y-91172710D01*
X122783331Y-91096519D01*
X122783331Y-91020329D01*
X122821426Y-90944138D01*
X122897617Y-90906043D01*
X123088093Y-90906043D01*
X123164283Y-90867948D01*
X123888093Y-91172710D02*
X123811903Y-91210805D01*
X123659522Y-91210805D01*
X123583331Y-91172710D01*
X123545236Y-91134614D01*
X123507141Y-91058424D01*
X123507141Y-90829852D01*
X123545236Y-90753662D01*
X123583331Y-90715567D01*
X123659522Y-90677471D01*
X123811903Y-90677471D01*
X123888093Y-90715567D01*
X124345236Y-91210805D02*
X124269045Y-91172710D01*
X124230950Y-91134614D01*
X124192855Y-91058424D01*
X124192855Y-90829852D01*
X124230950Y-90753662D01*
X124269045Y-90715567D01*
X124345236Y-90677471D01*
X124459522Y-90677471D01*
X124535712Y-90715567D01*
X124573807Y-90753662D01*
X124611903Y-90829852D01*
X124611903Y-91058424D01*
X124573807Y-91134614D01*
X124535712Y-91172710D01*
X124459522Y-91210805D01*
X124345236Y-91210805D01*
X124954760Y-91210805D02*
X124954760Y-90677471D01*
X124954760Y-90829852D02*
X124992855Y-90753662D01*
X125030951Y-90715567D01*
X125107141Y-90677471D01*
X125183332Y-90677471D01*
X125449998Y-90677471D02*
X125449998Y-91210805D01*
X125449998Y-90753662D02*
X125488093Y-90715567D01*
X125564284Y-90677471D01*
X125678570Y-90677471D01*
X125754760Y-90715567D01*
X125792855Y-90791757D01*
X125792855Y-91210805D01*
X126173808Y-90906043D02*
X126783332Y-90906043D01*
X127469046Y-91172710D02*
X127392856Y-91210805D01*
X127240475Y-91210805D01*
X127164284Y-91172710D01*
X127126189Y-91096519D01*
X127126189Y-90791757D01*
X127164284Y-90715567D01*
X127240475Y-90677471D01*
X127392856Y-90677471D01*
X127469046Y-90715567D01*
X127507141Y-90791757D01*
X127507141Y-90867948D01*
X127126189Y-90944138D01*
X127964284Y-91210805D02*
X127888093Y-91172710D01*
X127849998Y-91096519D01*
X127849998Y-90410805D01*
X128573808Y-91172710D02*
X128497618Y-91210805D01*
X128345237Y-91210805D01*
X128269046Y-91172710D01*
X128230951Y-91096519D01*
X128230951Y-90791757D01*
X128269046Y-90715567D01*
X128345237Y-90677471D01*
X128497618Y-90677471D01*
X128573808Y-90715567D01*
X128611903Y-90791757D01*
X128611903Y-90867948D01*
X128230951Y-90944138D01*
X129297617Y-91172710D02*
X129221427Y-91210805D01*
X129069046Y-91210805D01*
X128992855Y-91172710D01*
X128954760Y-91134614D01*
X128916665Y-91058424D01*
X128916665Y-90829852D01*
X128954760Y-90753662D01*
X128992855Y-90715567D01*
X129069046Y-90677471D01*
X129221427Y-90677471D01*
X129297617Y-90715567D01*
X129526188Y-90677471D02*
X129830950Y-90677471D01*
X129640474Y-90410805D02*
X129640474Y-91096519D01*
X129678569Y-91172710D01*
X129754760Y-91210805D01*
X129830950Y-91210805D01*
X130097617Y-91210805D02*
X130097617Y-90677471D01*
X130097617Y-90829852D02*
X130135712Y-90753662D01*
X130173808Y-90715567D01*
X130249998Y-90677471D01*
X130326189Y-90677471D01*
X130707141Y-91210805D02*
X130630950Y-91172710D01*
X130592855Y-91134614D01*
X130554760Y-91058424D01*
X130554760Y-90829852D01*
X130592855Y-90753662D01*
X130630950Y-90715567D01*
X130707141Y-90677471D01*
X130821427Y-90677471D01*
X130897617Y-90715567D01*
X130935712Y-90753662D01*
X130973808Y-90829852D01*
X130973808Y-91058424D01*
X130935712Y-91134614D01*
X130897617Y-91172710D01*
X130821427Y-91210805D01*
X130707141Y-91210805D01*
X131316665Y-90677471D02*
X131316665Y-91210805D01*
X131316665Y-90753662D02*
X131354760Y-90715567D01*
X131430951Y-90677471D01*
X131545237Y-90677471D01*
X131621427Y-90715567D01*
X131659522Y-90791757D01*
X131659522Y-91210805D01*
X132040475Y-90906043D02*
X132649999Y-90906043D01*
X133030951Y-91210805D02*
X133030951Y-90410805D01*
X133373808Y-91210805D02*
X133373808Y-90791757D01*
X133335713Y-90715567D01*
X133259523Y-90677471D01*
X133145237Y-90677471D01*
X133069046Y-90715567D01*
X133030951Y-90753662D01*
X134097618Y-91210805D02*
X134097618Y-90791757D01*
X134059523Y-90715567D01*
X133983333Y-90677471D01*
X133830952Y-90677471D01*
X133754761Y-90715567D01*
X134097618Y-91172710D02*
X134021428Y-91210805D01*
X133830952Y-91210805D01*
X133754761Y-91172710D01*
X133716666Y-91096519D01*
X133716666Y-91020329D01*
X133754761Y-90944138D01*
X133830952Y-90906043D01*
X134021428Y-90906043D01*
X134097618Y-90867948D01*
X134478571Y-91210805D02*
X134478571Y-90677471D01*
X134478571Y-90829852D02*
X134516666Y-90753662D01*
X134554762Y-90715567D01*
X134630952Y-90677471D01*
X134707143Y-90677471D01*
X135316666Y-91210805D02*
X135316666Y-90410805D01*
X135316666Y-91172710D02*
X135240476Y-91210805D01*
X135088095Y-91210805D01*
X135011904Y-91172710D01*
X134973809Y-91134614D01*
X134935714Y-91058424D01*
X134935714Y-90829852D01*
X134973809Y-90753662D01*
X135011904Y-90715567D01*
X135088095Y-90677471D01*
X135240476Y-90677471D01*
X135316666Y-90715567D01*
X135621429Y-90677471D02*
X135773810Y-91210805D01*
X135926191Y-90829852D01*
X136078572Y-91210805D01*
X136230953Y-90677471D01*
X136878571Y-91210805D02*
X136878571Y-90791757D01*
X136840476Y-90715567D01*
X136764286Y-90677471D01*
X136611905Y-90677471D01*
X136535714Y-90715567D01*
X136878571Y-91172710D02*
X136802381Y-91210805D01*
X136611905Y-91210805D01*
X136535714Y-91172710D01*
X136497619Y-91096519D01*
X136497619Y-91020329D01*
X136535714Y-90944138D01*
X136611905Y-90906043D01*
X136802381Y-90906043D01*
X136878571Y-90867948D01*
X137259524Y-91210805D02*
X137259524Y-90677471D01*
X137259524Y-90829852D02*
X137297619Y-90753662D01*
X137335715Y-90715567D01*
X137411905Y-90677471D01*
X137488096Y-90677471D01*
X138059524Y-91172710D02*
X137983334Y-91210805D01*
X137830953Y-91210805D01*
X137754762Y-91172710D01*
X137716667Y-91096519D01*
X137716667Y-90791757D01*
X137754762Y-90715567D01*
X137830953Y-90677471D01*
X137983334Y-90677471D01*
X138059524Y-90715567D01*
X138097619Y-90791757D01*
X138097619Y-90867948D01*
X137716667Y-90944138D01*
D12*
X126371429Y-75328571D02*
X126371429Y-76328571D01*
X125728572Y-75328571D02*
X125728572Y-76114286D01*
X125800000Y-76257143D01*
X125942858Y-76328571D01*
X126157143Y-76328571D01*
X126300000Y-76257143D01*
X126371429Y-76185714D01*
X127085715Y-75328571D02*
X127085715Y-76828571D01*
X127085715Y-75400000D02*
X127228572Y-75328571D01*
X127514286Y-75328571D01*
X127657143Y-75400000D01*
X127728572Y-75471429D01*
X127800001Y-75614286D01*
X127800001Y-76042857D01*
X127728572Y-76185714D01*
X127657143Y-76257143D01*
X127514286Y-76328571D01*
X127228572Y-76328571D01*
X127085715Y-76257143D01*
X129085715Y-76328571D02*
X129085715Y-74828571D01*
X129085715Y-76257143D02*
X128942858Y-76328571D01*
X128657144Y-76328571D01*
X128514286Y-76257143D01*
X128442858Y-76185714D01*
X128371429Y-76042857D01*
X128371429Y-75614286D01*
X128442858Y-75471429D01*
X128514286Y-75400000D01*
X128657144Y-75328571D01*
X128942858Y-75328571D01*
X129085715Y-75400000D01*
X130442858Y-76328571D02*
X130442858Y-75542857D01*
X130371429Y-75400000D01*
X130228572Y-75328571D01*
X129942858Y-75328571D01*
X129800001Y-75400000D01*
X130442858Y-76257143D02*
X130300001Y-76328571D01*
X129942858Y-76328571D01*
X129800001Y-76257143D01*
X129728572Y-76114286D01*
X129728572Y-75971429D01*
X129800001Y-75828571D01*
X129942858Y-75757143D01*
X130300001Y-75757143D01*
X130442858Y-75685714D01*
X130942858Y-75328571D02*
X131514287Y-75328571D01*
X131157144Y-74828571D02*
X131157144Y-76114286D01*
X131228572Y-76257143D01*
X131371430Y-76328571D01*
X131514287Y-76328571D01*
X132585715Y-76257143D02*
X132442858Y-76328571D01*
X132157144Y-76328571D01*
X132014287Y-76257143D01*
X131942858Y-76114286D01*
X131942858Y-75542857D01*
X132014287Y-75400000D01*
X132157144Y-75328571D01*
X132442858Y-75328571D01*
X132585715Y-75400000D01*
X132657144Y-75542857D01*
X132657144Y-75685714D01*
X131942858Y-75828571D01*
X133942858Y-76328571D02*
X133942858Y-75542857D01*
X133871429Y-75400000D01*
X133728572Y-75328571D01*
X133442858Y-75328571D01*
X133300001Y-75400000D01*
X133942858Y-76257143D02*
X133800001Y-76328571D01*
X133442858Y-76328571D01*
X133300001Y-76257143D01*
X133228572Y-76114286D01*
X133228572Y-75971429D01*
X133300001Y-75828571D01*
X133442858Y-75757143D01*
X133800001Y-75757143D01*
X133942858Y-75685714D01*
X134657144Y-76328571D02*
X134657144Y-74828571D01*
X134657144Y-75400000D02*
X134800001Y-75328571D01*
X135085715Y-75328571D01*
X135228572Y-75400000D01*
X135300001Y-75471429D01*
X135371430Y-75614286D01*
X135371430Y-76042857D01*
X135300001Y-76185714D01*
X135228572Y-76257143D01*
X135085715Y-76328571D01*
X134800001Y-76328571D01*
X134657144Y-76257143D01*
X136228573Y-76328571D02*
X136085715Y-76257143D01*
X136014287Y-76114286D01*
X136014287Y-74828571D01*
X137371429Y-76257143D02*
X137228572Y-76328571D01*
X136942858Y-76328571D01*
X136800001Y-76257143D01*
X136728572Y-76114286D01*
X136728572Y-75542857D01*
X136800001Y-75400000D01*
X136942858Y-75328571D01*
X137228572Y-75328571D01*
X137371429Y-75400000D01*
X137442858Y-75542857D01*
X137442858Y-75685714D01*
X136728572Y-75828571D01*
X128085715Y-78878571D02*
X128085715Y-77878571D01*
X128085715Y-78021429D02*
X128157143Y-77950000D01*
X128300001Y-77878571D01*
X128514286Y-77878571D01*
X128657143Y-77950000D01*
X128728572Y-78092857D01*
X128728572Y-78878571D01*
X128728572Y-78092857D02*
X128800001Y-77950000D01*
X128942858Y-77878571D01*
X129157143Y-77878571D01*
X129300001Y-77950000D01*
X129371429Y-78092857D01*
X129371429Y-78878571D01*
X130728572Y-78878571D02*
X130728572Y-78092857D01*
X130657143Y-77950000D01*
X130514286Y-77878571D01*
X130228572Y-77878571D01*
X130085715Y-77950000D01*
X130728572Y-78807143D02*
X130585715Y-78878571D01*
X130228572Y-78878571D01*
X130085715Y-78807143D01*
X130014286Y-78664286D01*
X130014286Y-78521429D01*
X130085715Y-78378571D01*
X130228572Y-78307143D01*
X130585715Y-78307143D01*
X130728572Y-78235714D01*
X131371429Y-78807143D02*
X131514286Y-78878571D01*
X131800001Y-78878571D01*
X131942858Y-78807143D01*
X132014286Y-78664286D01*
X132014286Y-78592857D01*
X131942858Y-78450000D01*
X131800001Y-78378571D01*
X131585715Y-78378571D01*
X131442858Y-78307143D01*
X131371429Y-78164286D01*
X131371429Y-78092857D01*
X131442858Y-77950000D01*
X131585715Y-77878571D01*
X131800001Y-77878571D01*
X131942858Y-77950000D01*
X132442858Y-77878571D02*
X133014287Y-77878571D01*
X132657144Y-77378571D02*
X132657144Y-78664286D01*
X132728572Y-78807143D01*
X132871430Y-78878571D01*
X133014287Y-78878571D01*
X134085715Y-78807143D02*
X133942858Y-78878571D01*
X133657144Y-78878571D01*
X133514287Y-78807143D01*
X133442858Y-78664286D01*
X133442858Y-78092857D01*
X133514287Y-77950000D01*
X133657144Y-77878571D01*
X133942858Y-77878571D01*
X134085715Y-77950000D01*
X134157144Y-78092857D01*
X134157144Y-78235714D01*
X133442858Y-78378571D01*
X134800001Y-78878571D02*
X134800001Y-77878571D01*
X134800001Y-78164286D02*
X134871429Y-78021429D01*
X134942858Y-77950000D01*
X135085715Y-77878571D01*
X135228572Y-77878571D01*
X126764286Y-81428571D02*
X126764286Y-80428571D01*
X126764286Y-80571429D02*
X126835714Y-80500000D01*
X126978572Y-80428571D01*
X127192857Y-80428571D01*
X127335714Y-80500000D01*
X127407143Y-80642857D01*
X127407143Y-81428571D01*
X127407143Y-80642857D02*
X127478572Y-80500000D01*
X127621429Y-80428571D01*
X127835714Y-80428571D01*
X127978572Y-80500000D01*
X128050000Y-80642857D01*
X128050000Y-81428571D01*
X129335714Y-81357143D02*
X129192857Y-81428571D01*
X128907143Y-81428571D01*
X128764286Y-81357143D01*
X128692857Y-81214286D01*
X128692857Y-80642857D01*
X128764286Y-80500000D01*
X128907143Y-80428571D01*
X129192857Y-80428571D01*
X129335714Y-80500000D01*
X129407143Y-80642857D01*
X129407143Y-80785714D01*
X128692857Y-80928571D01*
X130692857Y-80428571D02*
X130692857Y-81642857D01*
X130621428Y-81785714D01*
X130550000Y-81857143D01*
X130407143Y-81928571D01*
X130192857Y-81928571D01*
X130050000Y-81857143D01*
X130692857Y-81357143D02*
X130550000Y-81428571D01*
X130264286Y-81428571D01*
X130121428Y-81357143D01*
X130050000Y-81285714D01*
X129978571Y-81142857D01*
X129978571Y-80714286D01*
X130050000Y-80571429D01*
X130121428Y-80500000D01*
X130264286Y-80428571D01*
X130550000Y-80428571D01*
X130692857Y-80500000D01*
X132050000Y-81428571D02*
X132050000Y-80642857D01*
X131978571Y-80500000D01*
X131835714Y-80428571D01*
X131550000Y-80428571D01*
X131407143Y-80500000D01*
X132050000Y-81357143D02*
X131907143Y-81428571D01*
X131550000Y-81428571D01*
X131407143Y-81357143D01*
X131335714Y-81214286D01*
X131335714Y-81071429D01*
X131407143Y-80928571D01*
X131550000Y-80857143D01*
X131907143Y-80857143D01*
X132050000Y-80785714D01*
X132764286Y-81428571D02*
X132764286Y-80428571D01*
X132764286Y-80714286D02*
X132835714Y-80571429D01*
X132907143Y-80500000D01*
X133050000Y-80428571D01*
X133192857Y-80428571D01*
X133907143Y-81428571D02*
X133764285Y-81357143D01*
X133692857Y-81285714D01*
X133621428Y-81142857D01*
X133621428Y-80714286D01*
X133692857Y-80571429D01*
X133764285Y-80500000D01*
X133907143Y-80428571D01*
X134121428Y-80428571D01*
X134264285Y-80500000D01*
X134335714Y-80571429D01*
X134407143Y-80714286D01*
X134407143Y-81142857D01*
X134335714Y-81285714D01*
X134264285Y-81357143D01*
X134121428Y-81428571D01*
X133907143Y-81428571D01*
X135050000Y-81428571D02*
X135050000Y-80428571D01*
X135050000Y-80571429D02*
X135121428Y-80500000D01*
X135264286Y-80428571D01*
X135478571Y-80428571D01*
X135621428Y-80500000D01*
X135692857Y-80642857D01*
X135692857Y-81428571D01*
X135692857Y-80642857D02*
X135764286Y-80500000D01*
X135907143Y-80428571D01*
X136121428Y-80428571D01*
X136264286Y-80500000D01*
X136335714Y-80642857D01*
X136335714Y-81428571D01*
D13*
X114260000Y-56040000D02*
X113260000Y-56040000D01*
X113260000Y-57740000D02*
X114260000Y-57740000D01*
X111510000Y-76150000D02*
X112510000Y-76150000D01*
X112510000Y-74450000D02*
X111510000Y-74450000D01*
D14*
X118250000Y-71200000D02*
X118250000Y-61200000D01*
X118250000Y-61200000D02*
X108250000Y-61200000D01*
X108250000Y-61200000D02*
X108250000Y-71200000D01*
X108250000Y-71200000D02*
X118250000Y-71200000D01*
X118000000Y-70700000D02*
G75*
G03X118000000Y-70700000I-250000J0D01*
G01*
D13*
X119260000Y-49000000D02*
X119260000Y-43800000D01*
X109040000Y-49000000D02*
X119260000Y-49000000D01*
X106440000Y-43800000D02*
X119260000Y-43800000D01*
X109040000Y-49000000D02*
X109040000Y-46400000D01*
X109040000Y-46400000D02*
X106440000Y-46400000D01*
X106440000Y-46400000D02*
X106440000Y-43800000D01*
X107770000Y-49000000D02*
X106440000Y-49000000D01*
X106440000Y-49000000D02*
X106440000Y-47670000D01*
X132220000Y-51650000D02*
G75*
G02X130220000Y-51650000I-1000000J0D01*
G01*
X130220000Y-51650000D02*
X124760000Y-51650000D01*
X124760000Y-51650000D02*
X124760000Y-87330000D01*
X124760000Y-87330000D02*
X137680000Y-87330000D01*
X137680000Y-87330000D02*
X137680000Y-51650000D01*
X137680000Y-51650000D02*
X132220000Y-51650000D01*
D14*
X107505000Y-89335000D02*
X120475000Y-89335000D01*
X120475000Y-89335000D02*
X120475000Y-77905000D01*
X120475000Y-77905000D02*
X106505000Y-77905000D01*
X106505000Y-77905000D02*
X106505000Y-88335000D01*
X106505000Y-88335000D02*
X107505000Y-89335000D01*
X108505000Y-83620000D02*
G75*
G03X108505000Y-83620000I-500000J0D01*
G01*
D13*
X132580000Y-54550000D02*
X131580000Y-54550000D01*
X131580000Y-56250000D02*
X132580000Y-56250000D01*
X127580000Y-58720000D02*
X127580000Y-59720000D01*
X129280000Y-59720000D02*
X129280000Y-58720000D01*
X135250000Y-66410000D02*
X135250000Y-63750000D01*
X130110000Y-66410000D02*
X135250000Y-66410000D01*
X130110000Y-63750000D02*
X135250000Y-63750000D01*
X130110000Y-66410000D02*
X130110000Y-63750000D01*
X128840000Y-66410000D02*
X127510000Y-66410000D01*
X127510000Y-66410000D02*
X127510000Y-65080000D01*
X134056500Y-60420000D02*
X134056500Y-61620000D01*
X134056500Y-61620000D02*
X131356500Y-61620000D01*
X130056500Y-56820000D02*
X134056500Y-56820000D01*
X134056500Y-56820000D02*
X134056500Y-58020000D01*
X136920000Y-53620000D02*
X136920000Y-50960000D01*
X129240000Y-53620000D02*
X136920000Y-53620000D01*
X129240000Y-50960000D02*
X136920000Y-50960000D01*
X129240000Y-53620000D02*
X129240000Y-50960000D01*
X127970000Y-53620000D02*
X126640000Y-53620000D01*
X126640000Y-53620000D02*
X126640000Y-52290000D01*
X119240000Y-53090000D02*
X119240000Y-50430000D01*
X109020000Y-53090000D02*
X119240000Y-53090000D01*
X109020000Y-50430000D02*
X119240000Y-50430000D01*
X109020000Y-53090000D02*
X109020000Y-50430000D01*
X107750000Y-53090000D02*
X106420000Y-53090000D01*
X106420000Y-53090000D02*
X106420000Y-51760000D01*
D14*
X113593334Y-55497143D02*
X113545715Y-55544762D01*
X113402858Y-55592381D01*
X113307620Y-55592381D01*
X113164762Y-55544762D01*
X113069524Y-55449524D01*
X113021905Y-55354286D01*
X112974286Y-55163810D01*
X112974286Y-55020952D01*
X113021905Y-54830476D01*
X113069524Y-54735238D01*
X113164762Y-54640000D01*
X113307620Y-54592381D01*
X113402858Y-54592381D01*
X113545715Y-54640000D01*
X113593334Y-54687619D01*
X114545715Y-55592381D02*
X113974286Y-55592381D01*
X114260000Y-55592381D02*
X114260000Y-54592381D01*
X114164762Y-54735238D01*
X114069524Y-54830476D01*
X113974286Y-54878095D01*
X111843334Y-77407143D02*
X111795715Y-77454762D01*
X111652858Y-77502381D01*
X111557620Y-77502381D01*
X111414762Y-77454762D01*
X111319524Y-77359524D01*
X111271905Y-77264286D01*
X111224286Y-77073810D01*
X111224286Y-76930952D01*
X111271905Y-76740476D01*
X111319524Y-76645238D01*
X111414762Y-76550000D01*
X111557620Y-76502381D01*
X111652858Y-76502381D01*
X111795715Y-76550000D01*
X111843334Y-76597619D01*
X112176667Y-76502381D02*
X112795715Y-76502381D01*
X112462381Y-76883333D01*
X112605239Y-76883333D01*
X112700477Y-76930952D01*
X112748096Y-76978571D01*
X112795715Y-77073810D01*
X112795715Y-77311905D01*
X112748096Y-77407143D01*
X112700477Y-77454762D01*
X112605239Y-77502381D01*
X112319524Y-77502381D01*
X112224286Y-77454762D01*
X112176667Y-77407143D01*
X112154762Y-67557143D02*
X112107143Y-67604762D01*
X111964286Y-67652381D01*
X111869048Y-67652381D01*
X111726190Y-67604762D01*
X111630952Y-67509524D01*
X111583333Y-67414286D01*
X111535714Y-67223810D01*
X111535714Y-67080952D01*
X111583333Y-66890476D01*
X111630952Y-66795238D01*
X111726190Y-66700000D01*
X111869048Y-66652381D01*
X111964286Y-66652381D01*
X112107143Y-66700000D01*
X112154762Y-66747619D01*
X112583333Y-67652381D02*
X112583333Y-66652381D01*
X112964286Y-66652381D01*
X113059524Y-66700000D01*
X113107143Y-66747619D01*
X113154762Y-66842857D01*
X113154762Y-66985714D01*
X113107143Y-67080952D01*
X113059524Y-67128571D01*
X112964286Y-67176190D01*
X112583333Y-67176190D01*
X114059524Y-67652381D02*
X113583333Y-67652381D01*
X113583333Y-66652381D01*
X114392857Y-67652381D02*
X114392857Y-66652381D01*
X114630952Y-66652381D01*
X114773810Y-66700000D01*
X114869048Y-66795238D01*
X114916667Y-66890476D01*
X114964286Y-67080952D01*
X114964286Y-67223810D01*
X114916667Y-67414286D01*
X114869048Y-67509524D01*
X114773810Y-67604762D01*
X114630952Y-67652381D01*
X114392857Y-67652381D01*
X107083333Y-64652381D02*
X107750000Y-65652381D01*
X107750000Y-64652381D02*
X107083333Y-65652381D01*
X108702381Y-65557143D02*
X108654762Y-65604762D01*
X108511905Y-65652381D01*
X108416667Y-65652381D01*
X108273809Y-65604762D01*
X108178571Y-65509524D01*
X108130952Y-65414286D01*
X108083333Y-65223810D01*
X108083333Y-65080952D01*
X108130952Y-64890476D01*
X108178571Y-64795238D01*
X108273809Y-64700000D01*
X108416667Y-64652381D01*
X108511905Y-64652381D01*
X108654762Y-64700000D01*
X108702381Y-64747619D01*
X109178571Y-65652381D02*
X109369047Y-65652381D01*
X109464286Y-65604762D01*
X109511905Y-65557143D01*
X109607143Y-65414286D01*
X109654762Y-65223810D01*
X109654762Y-64842857D01*
X109607143Y-64747619D01*
X109559524Y-64700000D01*
X109464286Y-64652381D01*
X109273809Y-64652381D01*
X109178571Y-64700000D01*
X109130952Y-64747619D01*
X109083333Y-64842857D01*
X109083333Y-65080952D01*
X109130952Y-65176190D01*
X109178571Y-65223810D01*
X109273809Y-65271429D01*
X109464286Y-65271429D01*
X109559524Y-65223810D01*
X109607143Y-65176190D01*
X109654762Y-65080952D01*
X110559524Y-64652381D02*
X110083333Y-64652381D01*
X110035714Y-65128571D01*
X110083333Y-65080952D01*
X110178571Y-65033333D01*
X110416667Y-65033333D01*
X110511905Y-65080952D01*
X110559524Y-65128571D01*
X110607143Y-65223810D01*
X110607143Y-65461905D01*
X110559524Y-65557143D01*
X110511905Y-65604762D01*
X110416667Y-65652381D01*
X110178571Y-65652381D01*
X110083333Y-65604762D01*
X110035714Y-65557143D01*
X110940476Y-64652381D02*
X111607143Y-64652381D01*
X111178571Y-65652381D01*
X111892857Y-64652381D02*
X112559524Y-65652381D01*
X112559524Y-64652381D02*
X111892857Y-65652381D01*
X113416667Y-65652381D02*
X112940476Y-65652381D01*
X112940476Y-64652381D01*
X113750000Y-65271429D02*
X114511905Y-65271429D01*
X115416667Y-64652381D02*
X115226190Y-64652381D01*
X115130952Y-64700000D01*
X115083333Y-64747619D01*
X114988095Y-64890476D01*
X114940476Y-65080952D01*
X114940476Y-65461905D01*
X114988095Y-65557143D01*
X115035714Y-65604762D01*
X115130952Y-65652381D01*
X115321429Y-65652381D01*
X115416667Y-65604762D01*
X115464286Y-65557143D01*
X115511905Y-65461905D01*
X115511905Y-65223810D01*
X115464286Y-65128571D01*
X115416667Y-65080952D01*
X115321429Y-65033333D01*
X115130952Y-65033333D01*
X115035714Y-65080952D01*
X114988095Y-65128571D01*
X114940476Y-65223810D01*
X116369048Y-64985714D02*
X116369048Y-65652381D01*
X116130952Y-64604762D02*
X115892857Y-65319048D01*
X116511905Y-65319048D01*
X116750000Y-64652381D02*
X117083333Y-65652381D01*
X117416667Y-64652381D01*
X118416667Y-65747619D02*
X118321429Y-65700000D01*
X118226191Y-65604762D01*
X118083334Y-65461905D01*
X117988095Y-65414286D01*
X117892857Y-65414286D01*
X117940476Y-65652381D02*
X117845238Y-65604762D01*
X117750000Y-65509524D01*
X117702381Y-65319048D01*
X117702381Y-64985714D01*
X117750000Y-64795238D01*
X117845238Y-64700000D01*
X117940476Y-64652381D01*
X118130953Y-64652381D01*
X118226191Y-64700000D01*
X118321429Y-64795238D01*
X118369048Y-64985714D01*
X118369048Y-65319048D01*
X118321429Y-65509524D01*
X118226191Y-65604762D01*
X118130953Y-65652381D01*
X117940476Y-65652381D01*
X119321429Y-64700000D02*
X119226191Y-64652381D01*
X119083334Y-64652381D01*
X118940476Y-64700000D01*
X118845238Y-64795238D01*
X118797619Y-64890476D01*
X118750000Y-65080952D01*
X118750000Y-65223810D01*
X118797619Y-65414286D01*
X118845238Y-65509524D01*
X118940476Y-65604762D01*
X119083334Y-65652381D01*
X119178572Y-65652381D01*
X119321429Y-65604762D01*
X119369048Y-65557143D01*
X119369048Y-65223810D01*
X119178572Y-65223810D01*
X104892381Y-48042857D02*
X105606667Y-48042857D01*
X105749524Y-48090477D01*
X105844762Y-48185715D01*
X105892381Y-48328572D01*
X105892381Y-48423810D01*
X104892381Y-47709524D02*
X104892381Y-47138095D01*
X105892381Y-47423810D02*
X104892381Y-47423810D01*
X105606667Y-46852381D02*
X105606667Y-46376190D01*
X105892381Y-46947619D02*
X104892381Y-46614286D01*
X105892381Y-46280952D01*
X104940000Y-45423809D02*
X104892381Y-45519047D01*
X104892381Y-45661904D01*
X104940000Y-45804762D01*
X105035238Y-45900000D01*
X105130476Y-45947619D01*
X105320952Y-45995238D01*
X105463810Y-45995238D01*
X105654286Y-45947619D01*
X105749524Y-45900000D01*
X105844762Y-45804762D01*
X105892381Y-45661904D01*
X105892381Y-45566666D01*
X105844762Y-45423809D01*
X105797143Y-45376190D01*
X105463810Y-45376190D01*
X105463810Y-45566666D01*
X105892381Y-44423809D02*
X105892381Y-44995238D01*
X105892381Y-44709524D02*
X104892381Y-44709524D01*
X105035238Y-44804762D01*
X105130476Y-44900000D01*
X105178095Y-44995238D01*
X130854286Y-70902381D02*
X130520952Y-70426190D01*
X130282857Y-70902381D02*
X130282857Y-69902381D01*
X130663810Y-69902381D01*
X130759048Y-69950000D01*
X130806667Y-69997619D01*
X130854286Y-70092857D01*
X130854286Y-70235714D01*
X130806667Y-70330952D01*
X130759048Y-70378571D01*
X130663810Y-70426190D01*
X130282857Y-70426190D01*
X131473333Y-69902381D02*
X131663810Y-69902381D01*
X131759048Y-69950000D01*
X131854286Y-70045238D01*
X131901905Y-70235714D01*
X131901905Y-70569048D01*
X131854286Y-70759524D01*
X131759048Y-70854762D01*
X131663810Y-70902381D01*
X131473333Y-70902381D01*
X131378095Y-70854762D01*
X131282857Y-70759524D01*
X131235238Y-70569048D01*
X131235238Y-70235714D01*
X131282857Y-70045238D01*
X131378095Y-69950000D01*
X131473333Y-69902381D01*
X132330476Y-70902381D02*
X132330476Y-69902381D01*
X132663810Y-70616667D01*
X132997143Y-69902381D01*
X132997143Y-70902381D01*
X112942381Y-84977143D02*
X111942381Y-84977143D01*
X112656667Y-84643809D01*
X111942381Y-84310476D01*
X112942381Y-84310476D01*
X112418571Y-83834286D02*
X112418571Y-83500952D01*
X112942381Y-83358095D02*
X112942381Y-83834286D01*
X111942381Y-83834286D01*
X111942381Y-83358095D01*
X112942381Y-82929524D02*
X111942381Y-82929524D01*
X112656667Y-82596190D01*
X111942381Y-82262857D01*
X112942381Y-82262857D01*
X114894762Y-88477143D02*
X114942381Y-88334286D01*
X114942381Y-88096190D01*
X114894762Y-88000952D01*
X114847143Y-87953333D01*
X114751905Y-87905714D01*
X114656667Y-87905714D01*
X114561429Y-87953333D01*
X114513810Y-88000952D01*
X114466190Y-88096190D01*
X114418571Y-88286667D01*
X114370952Y-88381905D01*
X114323333Y-88429524D01*
X114228095Y-88477143D01*
X114132857Y-88477143D01*
X114037619Y-88429524D01*
X113990000Y-88381905D01*
X113942381Y-88286667D01*
X113942381Y-88048571D01*
X113990000Y-87905714D01*
X114894762Y-87524762D02*
X114942381Y-87381905D01*
X114942381Y-87143809D01*
X114894762Y-87048571D01*
X114847143Y-87000952D01*
X114751905Y-86953333D01*
X114656667Y-86953333D01*
X114561429Y-87000952D01*
X114513810Y-87048571D01*
X114466190Y-87143809D01*
X114418571Y-87334286D01*
X114370952Y-87429524D01*
X114323333Y-87477143D01*
X114228095Y-87524762D01*
X114132857Y-87524762D01*
X114037619Y-87477143D01*
X113990000Y-87429524D01*
X113942381Y-87334286D01*
X113942381Y-87096190D01*
X113990000Y-86953333D01*
X113942381Y-86667619D02*
X113942381Y-86096190D01*
X114942381Y-86381905D02*
X113942381Y-86381905D01*
X113942381Y-85858095D02*
X113942381Y-85239047D01*
X114323333Y-85572381D01*
X114323333Y-85429523D01*
X114370952Y-85334285D01*
X114418571Y-85286666D01*
X114513810Y-85239047D01*
X114751905Y-85239047D01*
X114847143Y-85286666D01*
X114894762Y-85334285D01*
X114942381Y-85429523D01*
X114942381Y-85715238D01*
X114894762Y-85810476D01*
X114847143Y-85858095D01*
X114942381Y-84762857D02*
X114942381Y-84572381D01*
X114894762Y-84477142D01*
X114847143Y-84429523D01*
X114704286Y-84334285D01*
X114513810Y-84286666D01*
X114132857Y-84286666D01*
X114037619Y-84334285D01*
X113990000Y-84381904D01*
X113942381Y-84477142D01*
X113942381Y-84667619D01*
X113990000Y-84762857D01*
X114037619Y-84810476D01*
X114132857Y-84858095D01*
X114370952Y-84858095D01*
X114466190Y-84810476D01*
X114513810Y-84762857D01*
X114561429Y-84667619D01*
X114561429Y-84477142D01*
X114513810Y-84381904D01*
X114466190Y-84334285D01*
X114370952Y-84286666D01*
X114894762Y-83905714D02*
X114942381Y-83762857D01*
X114942381Y-83524761D01*
X114894762Y-83429523D01*
X114847143Y-83381904D01*
X114751905Y-83334285D01*
X114656667Y-83334285D01*
X114561429Y-83381904D01*
X114513810Y-83429523D01*
X114466190Y-83524761D01*
X114418571Y-83715238D01*
X114370952Y-83810476D01*
X114323333Y-83858095D01*
X114228095Y-83905714D01*
X114132857Y-83905714D01*
X114037619Y-83858095D01*
X113990000Y-83810476D01*
X113942381Y-83715238D01*
X113942381Y-83477142D01*
X113990000Y-83334285D01*
X114418571Y-82572380D02*
X114418571Y-82905714D01*
X114942381Y-82905714D02*
X113942381Y-82905714D01*
X113942381Y-82429523D01*
X113942381Y-81858095D02*
X113942381Y-81762856D01*
X113990000Y-81667618D01*
X114037619Y-81619999D01*
X114132857Y-81572380D01*
X114323333Y-81524761D01*
X114561429Y-81524761D01*
X114751905Y-81572380D01*
X114847143Y-81619999D01*
X114894762Y-81667618D01*
X114942381Y-81762856D01*
X114942381Y-81858095D01*
X114894762Y-81953333D01*
X114847143Y-82000952D01*
X114751905Y-82048571D01*
X114561429Y-82096190D01*
X114323333Y-82096190D01*
X114132857Y-82048571D01*
X114037619Y-82000952D01*
X113990000Y-81953333D01*
X113942381Y-81858095D01*
X114942381Y-80572380D02*
X114942381Y-81143809D01*
X114942381Y-80858095D02*
X113942381Y-80858095D01*
X114085238Y-80953333D01*
X114180476Y-81048571D01*
X114228095Y-81143809D01*
X113942381Y-79953333D02*
X113942381Y-79858094D01*
X113990000Y-79762856D01*
X114037619Y-79715237D01*
X114132857Y-79667618D01*
X114323333Y-79619999D01*
X114561429Y-79619999D01*
X114751905Y-79667618D01*
X114847143Y-79715237D01*
X114894762Y-79762856D01*
X114942381Y-79858094D01*
X114942381Y-79953333D01*
X114894762Y-80048571D01*
X114847143Y-80096190D01*
X114751905Y-80143809D01*
X114561429Y-80191428D01*
X114323333Y-80191428D01*
X114132857Y-80143809D01*
X114037619Y-80096190D01*
X113990000Y-80048571D01*
X113942381Y-79953333D01*
X114656667Y-79239047D02*
X114656667Y-78762856D01*
X114942381Y-79334285D02*
X113942381Y-79000952D01*
X114942381Y-78667618D01*
X128703334Y-55597143D02*
X128655715Y-55644762D01*
X128512858Y-55692381D01*
X128417620Y-55692381D01*
X128274762Y-55644762D01*
X128179524Y-55549524D01*
X128131905Y-55454286D01*
X128084286Y-55263810D01*
X128084286Y-55120952D01*
X128131905Y-54930476D01*
X128179524Y-54835238D01*
X128274762Y-54740000D01*
X128417620Y-54692381D01*
X128512858Y-54692381D01*
X128655715Y-54740000D01*
X128703334Y-54787619D01*
X129560477Y-54692381D02*
X129370000Y-54692381D01*
X129274762Y-54740000D01*
X129227143Y-54787619D01*
X129131905Y-54930476D01*
X129084286Y-55120952D01*
X129084286Y-55501905D01*
X129131905Y-55597143D01*
X129179524Y-55644762D01*
X129274762Y-55692381D01*
X129465239Y-55692381D01*
X129560477Y-55644762D01*
X129608096Y-55597143D01*
X129655715Y-55501905D01*
X129655715Y-55263810D01*
X129608096Y-55168571D01*
X129560477Y-55120952D01*
X129465239Y-55073333D01*
X129274762Y-55073333D01*
X129179524Y-55120952D01*
X129131905Y-55168571D01*
X129084286Y-55263810D01*
X128323334Y-62577143D02*
X128275715Y-62624762D01*
X128132858Y-62672381D01*
X128037620Y-62672381D01*
X127894762Y-62624762D01*
X127799524Y-62529524D01*
X127751905Y-62434286D01*
X127704286Y-62243810D01*
X127704286Y-62100952D01*
X127751905Y-61910476D01*
X127799524Y-61815238D01*
X127894762Y-61720000D01*
X128037620Y-61672381D01*
X128132858Y-61672381D01*
X128275715Y-61720000D01*
X128323334Y-61767619D01*
X128656667Y-61672381D02*
X129323334Y-61672381D01*
X128894762Y-62672381D01*
X129097143Y-67228571D02*
X129430477Y-67228571D01*
X129573334Y-67752381D02*
X129097143Y-67752381D01*
X129097143Y-66752381D01*
X129573334Y-66752381D01*
X129906667Y-66752381D02*
X130573334Y-67752381D01*
X130573334Y-66752381D02*
X129906667Y-67752381D01*
X130811429Y-66752381D02*
X131382858Y-66752381D01*
X131097143Y-67752381D02*
X131097143Y-66752381D01*
X131716191Y-67752381D02*
X131716191Y-66752381D01*
X132097144Y-66752381D01*
X132192382Y-66800000D01*
X132240001Y-66847619D01*
X132287620Y-66942857D01*
X132287620Y-67085714D01*
X132240001Y-67180952D01*
X132192382Y-67228571D01*
X132097144Y-67276190D01*
X131716191Y-67276190D01*
X132620953Y-66752381D02*
X132859048Y-67752381D01*
X133049525Y-67038095D01*
X133240001Y-67752381D01*
X133478096Y-66752381D01*
X134430477Y-67752381D02*
X134097143Y-67276190D01*
X133859048Y-67752381D02*
X133859048Y-66752381D01*
X134240001Y-66752381D01*
X134335239Y-66800000D01*
X134382858Y-66847619D01*
X134430477Y-66942857D01*
X134430477Y-67085714D01*
X134382858Y-67180952D01*
X134335239Y-67228571D01*
X134240001Y-67276190D01*
X133859048Y-67276190D01*
X137162381Y-59802857D02*
X136686190Y-60136191D01*
X137162381Y-60374286D02*
X136162381Y-60374286D01*
X136162381Y-59993333D01*
X136210000Y-59898095D01*
X136257619Y-59850476D01*
X136352857Y-59802857D01*
X136495714Y-59802857D01*
X136590952Y-59850476D01*
X136638571Y-59898095D01*
X136686190Y-59993333D01*
X136686190Y-60374286D01*
X136638571Y-59374286D02*
X136638571Y-59040952D01*
X137162381Y-58898095D02*
X137162381Y-59374286D01*
X136162381Y-59374286D01*
X136162381Y-58898095D01*
X136210000Y-57945714D02*
X136162381Y-58040952D01*
X136162381Y-58183809D01*
X136210000Y-58326667D01*
X136305238Y-58421905D01*
X136400476Y-58469524D01*
X136590952Y-58517143D01*
X136733810Y-58517143D01*
X136924286Y-58469524D01*
X137019524Y-58421905D01*
X137114762Y-58326667D01*
X137162381Y-58183809D01*
X137162381Y-58088571D01*
X137114762Y-57945714D01*
X137067143Y-57898095D01*
X136733810Y-57898095D01*
X136733810Y-58088571D01*
X135402858Y-54122381D02*
X135402858Y-54836667D01*
X135355238Y-54979524D01*
X135260000Y-55074762D01*
X135117143Y-55122381D01*
X135021905Y-55122381D01*
X135879048Y-55122381D02*
X135879048Y-54122381D01*
X136260001Y-54122381D01*
X136355239Y-54170000D01*
X136402858Y-54217619D01*
X136450477Y-54312857D01*
X136450477Y-54455714D01*
X136402858Y-54550952D01*
X136355239Y-54598571D01*
X136260001Y-54646190D01*
X135879048Y-54646190D01*
X105824762Y-52783809D02*
X105872381Y-52640952D01*
X105872381Y-52402856D01*
X105824762Y-52307618D01*
X105777143Y-52259999D01*
X105681905Y-52212380D01*
X105586667Y-52212380D01*
X105491429Y-52259999D01*
X105443810Y-52307618D01*
X105396190Y-52402856D01*
X105348571Y-52593333D01*
X105300952Y-52688571D01*
X105253333Y-52736190D01*
X105158095Y-52783809D01*
X105062857Y-52783809D01*
X104967619Y-52736190D01*
X104920000Y-52688571D01*
X104872381Y-52593333D01*
X104872381Y-52355237D01*
X104920000Y-52212380D01*
X105872381Y-51783809D02*
X104872381Y-51783809D01*
X104872381Y-51402856D01*
X104920000Y-51307618D01*
X104967619Y-51259999D01*
X105062857Y-51212380D01*
X105205714Y-51212380D01*
X105300952Y-51259999D01*
X105348571Y-51307618D01*
X105396190Y-51402856D01*
X105396190Y-51783809D01*
X105872381Y-50783809D02*
X104872381Y-50783809D01*
M02*
