G04 #@! TF.FileFunction,Soldermask,Top*
%FSLAX46Y46*%
G04 Gerber Fmt 4.6, Leading zero omitted, Abs format (unit mm)*
G04 Created by KiCad (PCBNEW 4.0.6) date Saturday, October 28, 2017 'PMt' 05:20:16 PM*
%MOMM*%
%LPD*%
G01*
G04 APERTURE LIST*
%ADD10C,0.100000*%
%ADD11R,1.500000X1.250000*%
%ADD12R,2.000000X0.250000*%
%ADD13R,0.250000X2.000000*%
%ADD14R,1.700000X1.700000*%
%ADD15O,1.700000X1.700000*%
%ADD16R,1.600000X1.600000*%
%ADD17O,1.600000X1.600000*%
%ADD18R,0.812800X1.508000*%
%ADD19R,1.508000X0.812800*%
%ADD20R,1.250000X1.500000*%
%ADD21R,1.500000X1.000000*%
%ADD22R,1.800000X1.000000*%
%ADD23R,1.840000X2.200000*%
G04 APERTURE END LIST*
D10*
D11*
X112510000Y-56890000D03*
X115010000Y-56890000D03*
X113260000Y-75300000D03*
X110760000Y-75300000D03*
D12*
X119250000Y-69950000D03*
X119250000Y-69450000D03*
X119250000Y-68950000D03*
X119250000Y-68450000D03*
X119250000Y-67950000D03*
X119250000Y-67450000D03*
X119250000Y-66950000D03*
X119250000Y-66450000D03*
X119250000Y-65950000D03*
X119250000Y-65450000D03*
X119250000Y-64950000D03*
X119250000Y-64450000D03*
X119250000Y-63950000D03*
X119250000Y-63450000D03*
X119250000Y-62950000D03*
X119250000Y-62450000D03*
D13*
X117000000Y-60200000D03*
X116500000Y-60200000D03*
X116000000Y-60200000D03*
X115500000Y-60200000D03*
X115000000Y-60200000D03*
X114500000Y-60200000D03*
X114000000Y-60200000D03*
X113500000Y-60200000D03*
X113000000Y-60200000D03*
X112500000Y-60200000D03*
X112000000Y-60200000D03*
X111500000Y-60200000D03*
X111000000Y-60200000D03*
X110500000Y-60200000D03*
X110000000Y-60200000D03*
X109500000Y-60200000D03*
D12*
X107250000Y-62450000D03*
X107250000Y-62950000D03*
X107250000Y-63450000D03*
X107250000Y-63950000D03*
X107250000Y-64450000D03*
X107250000Y-64950000D03*
X107250000Y-65450000D03*
X107250000Y-65950000D03*
X107250000Y-66450000D03*
X107250000Y-66950000D03*
X107250000Y-67450000D03*
X107250000Y-67950000D03*
X107250000Y-68450000D03*
X107250000Y-68950000D03*
X107250000Y-69450000D03*
X107250000Y-69950000D03*
D13*
X109500000Y-72200000D03*
X110000000Y-72200000D03*
X110500000Y-72200000D03*
X111000000Y-72200000D03*
X111500000Y-72200000D03*
X112000000Y-72200000D03*
X112500000Y-72200000D03*
X113000000Y-72200000D03*
X113500000Y-72200000D03*
X114000000Y-72200000D03*
X114500000Y-72200000D03*
X115000000Y-72200000D03*
X115500000Y-72200000D03*
X116000000Y-72200000D03*
X116500000Y-72200000D03*
X117000000Y-72200000D03*
D14*
X107770000Y-47670000D03*
D15*
X107770000Y-45130000D03*
X110310000Y-47670000D03*
X110310000Y-45130000D03*
X112850000Y-47670000D03*
X112850000Y-45130000D03*
X115390000Y-47670000D03*
X115390000Y-45130000D03*
X117930000Y-47670000D03*
X117930000Y-45130000D03*
D16*
X123600000Y-52980000D03*
D17*
X138840000Y-86000000D03*
X123600000Y-55520000D03*
X138840000Y-83460000D03*
X123600000Y-58060000D03*
X138840000Y-80920000D03*
X123600000Y-60600000D03*
X138840000Y-78380000D03*
X123600000Y-63140000D03*
X138840000Y-75840000D03*
X123600000Y-65680000D03*
X138840000Y-73300000D03*
X123600000Y-68220000D03*
X138840000Y-70760000D03*
X123600000Y-70760000D03*
X138840000Y-68220000D03*
X123600000Y-73300000D03*
X138840000Y-65680000D03*
X123600000Y-75840000D03*
X138840000Y-63140000D03*
X123600000Y-78380000D03*
X138840000Y-60600000D03*
X123600000Y-80920000D03*
X138840000Y-58060000D03*
X123600000Y-83460000D03*
X138840000Y-55520000D03*
X123600000Y-86000000D03*
X138840000Y-52980000D03*
D18*
X108410000Y-89335000D03*
X109680000Y-89335000D03*
X110950000Y-89335000D03*
X112220000Y-89335000D03*
X113490000Y-89335000D03*
X114760000Y-89335000D03*
X116030000Y-89335000D03*
X117300000Y-89335000D03*
X118570000Y-89335000D03*
D19*
X120475000Y-87430000D03*
X120475000Y-86160000D03*
X120475000Y-84890000D03*
X120475000Y-83620000D03*
X120475000Y-82350000D03*
X120475000Y-81080000D03*
X120475000Y-79810000D03*
D18*
X118570000Y-77905000D03*
X117300000Y-77905000D03*
X116030000Y-77905000D03*
X114760000Y-77905000D03*
X113490000Y-77905000D03*
X112220000Y-77905000D03*
X110950000Y-77905000D03*
X109680000Y-77905000D03*
X108410000Y-77905000D03*
D19*
X106505000Y-79810000D03*
X106505000Y-81080000D03*
X106505000Y-82350000D03*
X106505000Y-83620000D03*
X106505000Y-84890000D03*
X106505000Y-86160000D03*
X106505000Y-87430000D03*
D11*
X130830000Y-55400000D03*
X133330000Y-55400000D03*
D20*
X128430000Y-60470000D03*
X128430000Y-57970000D03*
D14*
X128840000Y-65080000D03*
D15*
X131380000Y-65080000D03*
X133920000Y-65080000D03*
D10*
G36*
X134518500Y-58120000D02*
X135368500Y-58720000D01*
X135368500Y-59720000D01*
X134518500Y-60320000D01*
X134518500Y-58120000D01*
X134518500Y-58120000D01*
G37*
D21*
X130796500Y-57720000D03*
D22*
X130943000Y-59220000D03*
D21*
X130796500Y-60720000D03*
D23*
X133610000Y-59220000D03*
D10*
G36*
X132700300Y-60320000D02*
X131700300Y-59620000D01*
X131700300Y-58820000D01*
X132700300Y-58120000D01*
X132700300Y-60320000D01*
X132700300Y-60320000D01*
G37*
D14*
X127970000Y-52290000D03*
D15*
X130510000Y-52290000D03*
X133050000Y-52290000D03*
X135590000Y-52290000D03*
D14*
X107750000Y-51760000D03*
D15*
X110290000Y-51760000D03*
X112830000Y-51760000D03*
X115370000Y-51760000D03*
X117910000Y-51760000D03*
M02*
