G04 #@! TF.FileFunction,Soldermask,Bot*
%FSLAX46Y46*%
G04 Gerber Fmt 4.6, Leading zero omitted, Abs format (unit mm)*
G04 Created by KiCad (PCBNEW 4.0.6) date Saturday, October 28, 2017 'PMt' 05:20:16 PM*
%MOMM*%
%LPD*%
G01*
G04 APERTURE LIST*
%ADD10C,0.100000*%
%ADD11R,1.250000X1.500000*%
%ADD12R,1.700000X1.700000*%
%ADD13O,1.700000X1.700000*%
%ADD14R,1.600000X1.600000*%
%ADD15O,1.600000X1.600000*%
G04 APERTURE END LIST*
D10*
D11*
X107210000Y-64240000D03*
X107210000Y-66740000D03*
X119300000Y-67430000D03*
X119300000Y-64930000D03*
X104840000Y-82350000D03*
X104840000Y-79850000D03*
D12*
X107770000Y-47670000D03*
D13*
X107770000Y-45130000D03*
X110310000Y-47670000D03*
X110310000Y-45130000D03*
X112850000Y-47670000D03*
X112850000Y-45130000D03*
X115390000Y-47670000D03*
X115390000Y-45130000D03*
X117930000Y-47670000D03*
X117930000Y-45130000D03*
D14*
X123600000Y-52980000D03*
D15*
X138840000Y-86000000D03*
X123600000Y-55520000D03*
X138840000Y-83460000D03*
X123600000Y-58060000D03*
X138840000Y-80920000D03*
X123600000Y-60600000D03*
X138840000Y-78380000D03*
X123600000Y-63140000D03*
X138840000Y-75840000D03*
X123600000Y-65680000D03*
X138840000Y-73300000D03*
X123600000Y-68220000D03*
X138840000Y-70760000D03*
X123600000Y-70760000D03*
X138840000Y-68220000D03*
X123600000Y-73300000D03*
X138840000Y-65680000D03*
X123600000Y-75840000D03*
X138840000Y-63140000D03*
X123600000Y-78380000D03*
X138840000Y-60600000D03*
X123600000Y-80920000D03*
X138840000Y-58060000D03*
X123600000Y-83460000D03*
X138840000Y-55520000D03*
X123600000Y-86000000D03*
X138840000Y-52980000D03*
D12*
X128840000Y-65080000D03*
D13*
X131380000Y-65080000D03*
X133920000Y-65080000D03*
D12*
X127970000Y-52290000D03*
D13*
X130510000Y-52290000D03*
X133050000Y-52290000D03*
X135590000Y-52290000D03*
D12*
X107750000Y-51760000D03*
D13*
X110290000Y-51760000D03*
X112830000Y-51760000D03*
X115370000Y-51760000D03*
X117910000Y-51760000D03*
M02*
