G04 #@! TF.FileFunction,Legend,Bot*
%FSLAX46Y46*%
G04 Gerber Fmt 4.6, Leading zero omitted, Abs format (unit mm)*
G04 Created by KiCad (PCBNEW 4.0.6) date Saturday, October 28, 2017 'PMt' 05:20:16 PM*
%MOMM*%
%LPD*%
G01*
G04 APERTURE LIST*
%ADD10C,0.100000*%
%ADD11C,0.120000*%
%ADD12C,0.150000*%
G04 APERTURE END LIST*
D10*
D11*
X106360000Y-65990000D02*
X106360000Y-64990000D01*
X108060000Y-64990000D02*
X108060000Y-65990000D01*
X120150000Y-65680000D02*
X120150000Y-66680000D01*
X118450000Y-66680000D02*
X118450000Y-65680000D01*
X105690000Y-80600000D02*
X105690000Y-81600000D01*
X103990000Y-81600000D02*
X103990000Y-80600000D01*
D12*
X105817143Y-65323334D02*
X105864762Y-65275715D01*
X105912381Y-65132858D01*
X105912381Y-65037620D01*
X105864762Y-64894762D01*
X105769524Y-64799524D01*
X105674286Y-64751905D01*
X105483810Y-64704286D01*
X105340952Y-64704286D01*
X105150476Y-64751905D01*
X105055238Y-64799524D01*
X104960000Y-64894762D01*
X104912381Y-65037620D01*
X104912381Y-65132858D01*
X104960000Y-65275715D01*
X105007619Y-65323334D01*
X105007619Y-65704286D02*
X104960000Y-65751905D01*
X104912381Y-65847143D01*
X104912381Y-66085239D01*
X104960000Y-66180477D01*
X105007619Y-66228096D01*
X105102857Y-66275715D01*
X105198095Y-66275715D01*
X105340952Y-66228096D01*
X105912381Y-65656667D01*
X105912381Y-66275715D01*
X121407143Y-66013334D02*
X121454762Y-65965715D01*
X121502381Y-65822858D01*
X121502381Y-65727620D01*
X121454762Y-65584762D01*
X121359524Y-65489524D01*
X121264286Y-65441905D01*
X121073810Y-65394286D01*
X120930952Y-65394286D01*
X120740476Y-65441905D01*
X120645238Y-65489524D01*
X120550000Y-65584762D01*
X120502381Y-65727620D01*
X120502381Y-65822858D01*
X120550000Y-65965715D01*
X120597619Y-66013334D01*
X120835714Y-66870477D02*
X121502381Y-66870477D01*
X120454762Y-66632381D02*
X121169048Y-66394286D01*
X121169048Y-67013334D01*
X106947143Y-80933334D02*
X106994762Y-80885715D01*
X107042381Y-80742858D01*
X107042381Y-80647620D01*
X106994762Y-80504762D01*
X106899524Y-80409524D01*
X106804286Y-80361905D01*
X106613810Y-80314286D01*
X106470952Y-80314286D01*
X106280476Y-80361905D01*
X106185238Y-80409524D01*
X106090000Y-80504762D01*
X106042381Y-80647620D01*
X106042381Y-80742858D01*
X106090000Y-80885715D01*
X106137619Y-80933334D01*
X106042381Y-81838096D02*
X106042381Y-81361905D01*
X106518571Y-81314286D01*
X106470952Y-81361905D01*
X106423333Y-81457143D01*
X106423333Y-81695239D01*
X106470952Y-81790477D01*
X106518571Y-81838096D01*
X106613810Y-81885715D01*
X106851905Y-81885715D01*
X106947143Y-81838096D01*
X106994762Y-81790477D01*
X107042381Y-81695239D01*
X107042381Y-81457143D01*
X106994762Y-81361905D01*
X106947143Y-81314286D01*
M02*
