M48
;DRILL file {KiCad 4.0.6} date Saturday, October 28, 2017 'PMt' 05:20:18 PM
;FORMAT={-:-/ absolute / inch / decimal}
FMAT,2
INCH,TZ
T1C0.013
T2C0.031
T3C0.039
%
G90
G05
M72
T1
X4.128Y-3.0953
X4.1339Y-3.5791
X4.1559Y-2.6613
X4.1591Y-2.7024
X4.1603Y-2.7456
X4.1616Y-2.6227
X4.1622Y-2.5819
X4.1652Y-2.5377
X4.1815Y-2.4295
X4.1909Y-2.776
X4.1913Y-3.0984
X4.2091Y-3.4945
X4.2114Y-2.2213
X4.2122Y-2.3933
X4.2248Y-2.9327
X4.2371Y-2.2865
X4.2391Y-2.4307
X4.2394Y-3.2413
X4.2427Y-3.3277
X4.2458Y-3.1929
X4.2469Y-3.376
X4.2469Y-3.4224
X4.2476Y-3.2885
X4.282Y-2.3187
X4.2844Y-2.7434
X4.2856Y-2.6426
X4.2862Y-2.3626
X4.2862Y-2.5032
X4.2988Y-2.7036
X4.3015Y-3.4644
X4.3129Y-2.1058
X4.3188Y-2.2796
X4.3271Y-2.6066
X4.33Y-2.5536
X4.3421Y-3.465
X4.3749Y-2.236
X4.3835Y-3.4657
X4.3866Y-2.283
X4.4094Y-2.4492
X4.4256Y-3.465
X4.4581Y-2.2874
X4.4669Y-2.4324
X4.4669Y-3.465
X4.4832Y-2.7801
X4.4832Y-2.7182
X4.4914Y-2.3077
X4.5091Y-3.465
X4.5118Y-2.4327
X4.5176Y-2.1762
X4.5213Y-2.6756
X4.5222Y-2.7804
X4.5362Y-2.587
X4.5524Y-3.4638
X4.5598Y-2.9854
X4.5612Y-2.7803
X4.568Y-2.9049
X4.578Y-2.7157
X4.5945Y-3.463
X4.6031Y-3.3791
X4.6137Y-2.1657
X4.6228Y-2.5594
X4.6262Y-2.8993
X4.6263Y-2.2276
X4.6323Y-2.8433
X4.6358Y-3.4622
X4.6516Y-3.2181
X4.6865Y-2.2474
X4.6917Y-2.7815
X4.698Y-2.3634
X4.7288Y-2.8067
X4.7563Y-2.9984
X4.7626Y-2.7872
X4.7685Y-2.4912
X4.7701Y-3.1047
X4.7908Y-3.3968
X4.7937Y-3.1909
X4.7976Y-3.2449
X4.8074Y-3.3091
X4.9283Y-3.3669
X4.9417Y-2.4362
X4.9417Y-2.735
X4.9429Y-2.5339
X4.9441Y-2.6327
X4.9661Y-2.339
X4.9874Y-3.4369
X5.2709Y-3.4567
X5.465Y-3.5776
X5.4728Y-2.0059
T2
X4.8661Y-2.0858
X4.8661Y-2.1858
X4.8661Y-2.2858
X4.8661Y-2.3858
X4.8661Y-2.4858
X4.8661Y-2.5858
X4.8661Y-2.6858
X4.8661Y-2.7858
X4.8661Y-2.8858
X4.8661Y-2.9858
X4.8661Y-3.0858
X4.8661Y-3.1858
X4.8661Y-3.2858
X4.8661Y-3.3858
X5.4661Y-2.0858
X5.4661Y-2.1858
X5.4661Y-2.2858
X5.4661Y-2.3858
X5.4661Y-2.4858
X5.4661Y-2.5858
X5.4661Y-2.6858
X5.4661Y-2.7858
X5.4661Y-2.8858
X5.4661Y-2.9858
X5.4661Y-3.0858
X5.4661Y-3.1858
X5.4661Y-3.2858
X5.4661Y-3.3858
T3
X4.2421Y-2.0378
X4.2429Y-1.7768
X4.2429Y-1.8768
X4.3421Y-2.0378
X4.3429Y-1.7768
X4.3429Y-1.8768
X4.4421Y-2.0378
X4.4429Y-1.7768
X4.4429Y-1.8768
X4.5421Y-2.0378
X4.5429Y-1.7768
X4.5429Y-1.8768
X4.6421Y-2.0378
X4.6429Y-1.7768
X4.6429Y-1.8768
X5.0382Y-2.0587
X5.0724Y-2.5622
X5.1382Y-2.0587
X5.1724Y-2.5622
X5.2382Y-2.0587
X5.2724Y-2.5622
X5.3382Y-2.0587
T0
M30
