G04 #@! TF.FileFunction,Copper,L2,Bot,Signal*
%FSLAX46Y46*%
G04 Gerber Fmt 4.6, Leading zero omitted, Abs format (unit mm)*
G04 Created by KiCad (PCBNEW 4.0.6) date Saturday, October 28, 2017 'PMt' 05:20:16 PM*
%MOMM*%
%LPD*%
G01*
G04 APERTURE LIST*
%ADD10C,0.100000*%
%ADD11R,1.250000X1.500000*%
%ADD12R,1.700000X1.700000*%
%ADD13O,1.700000X1.700000*%
%ADD14R,1.600000X1.600000*%
%ADD15O,1.600000X1.600000*%
%ADD16C,0.812800*%
%ADD17C,0.508000*%
%ADD18C,0.177800*%
%ADD19C,1.016000*%
%ADD20C,0.254000*%
G04 APERTURE END LIST*
D10*
D11*
X107210000Y-64240000D03*
X107210000Y-66740000D03*
X119300000Y-67430000D03*
X119300000Y-64930000D03*
X104840000Y-82350000D03*
X104840000Y-79850000D03*
D12*
X107770000Y-47670000D03*
D13*
X107770000Y-45130000D03*
X110310000Y-47670000D03*
X110310000Y-45130000D03*
X112850000Y-47670000D03*
X112850000Y-45130000D03*
X115390000Y-47670000D03*
X115390000Y-45130000D03*
X117930000Y-47670000D03*
X117930000Y-45130000D03*
D14*
X123600000Y-52980000D03*
D15*
X138840000Y-86000000D03*
X123600000Y-55520000D03*
X138840000Y-83460000D03*
X123600000Y-58060000D03*
X138840000Y-80920000D03*
X123600000Y-60600000D03*
X138840000Y-78380000D03*
X123600000Y-63140000D03*
X138840000Y-75840000D03*
X123600000Y-65680000D03*
X138840000Y-73300000D03*
X123600000Y-68220000D03*
X138840000Y-70760000D03*
X123600000Y-70760000D03*
X138840000Y-68220000D03*
X123600000Y-73300000D03*
X138840000Y-65680000D03*
X123600000Y-75840000D03*
X138840000Y-63140000D03*
X123600000Y-78380000D03*
X138840000Y-60600000D03*
X123600000Y-80920000D03*
X138840000Y-58060000D03*
X123600000Y-83460000D03*
X138840000Y-55520000D03*
X123600000Y-86000000D03*
X138840000Y-52980000D03*
D12*
X128840000Y-65080000D03*
D13*
X131380000Y-65080000D03*
X133920000Y-65080000D03*
D12*
X127970000Y-52290000D03*
D13*
X130510000Y-52290000D03*
X133050000Y-52290000D03*
X135590000Y-52290000D03*
D12*
X107750000Y-51760000D03*
D13*
X110290000Y-51760000D03*
X112830000Y-51760000D03*
X115370000Y-51760000D03*
X117910000Y-51760000D03*
D16*
X138810000Y-90870000D03*
X105000000Y-90910000D03*
X106910000Y-88760000D03*
X139010000Y-50950000D03*
X117420000Y-65010000D03*
X115220000Y-65710000D03*
X114840000Y-67960000D03*
X112000000Y-62210000D03*
X116920000Y-85830000D03*
X107310000Y-74490000D03*
X106970000Y-56420000D03*
X116280000Y-68980002D03*
X120969175Y-70793730D03*
X113873107Y-70615792D03*
X113459999Y-61784212D03*
X125520000Y-69470002D03*
X105795331Y-64458165D03*
X121120000Y-63276890D03*
X105704045Y-66617064D03*
X104850000Y-78620000D03*
X133880000Y-87800000D03*
X107679998Y-82330000D03*
X111123110Y-56793170D03*
X109696890Y-57902373D03*
X107621279Y-58077092D03*
X109548284Y-53486688D03*
X113873110Y-69041767D03*
X117187803Y-55009250D03*
X122107807Y-84051790D03*
X116026890Y-73784202D03*
X119036348Y-57083148D03*
X115854301Y-70619766D03*
X121860000Y-82419998D03*
X117660000Y-72220000D03*
X121760000Y-81050000D03*
X119170000Y-70650000D03*
X121160000Y-78860000D03*
X120112383Y-71290942D03*
X120810000Y-76160000D03*
X125580000Y-66870000D03*
X125550000Y-64360000D03*
X125520000Y-61880000D03*
X126140000Y-59410000D03*
X115820000Y-75830000D03*
X117750000Y-87940000D03*
X126680000Y-87297790D03*
X119330000Y-60029998D03*
X117506348Y-73642566D03*
X118150000Y-81740000D03*
X114600000Y-61790000D03*
X114863694Y-70622894D03*
X121686939Y-86277558D03*
X125180000Y-85520000D03*
X114082102Y-58615788D03*
X108853336Y-67123110D03*
X109259185Y-87996966D03*
X109908472Y-66208351D03*
X110290000Y-88010000D03*
X105719408Y-65580512D03*
X111339998Y-88030000D03*
X109982069Y-64862139D03*
X112410000Y-88010000D03*
X108870000Y-63580371D03*
X113460002Y-88010000D03*
X106210000Y-61710000D03*
X114530000Y-88010000D03*
X107672630Y-61740409D03*
X115630000Y-87980000D03*
X106990000Y-60790000D03*
X116700000Y-87960000D03*
X105559584Y-67597086D03*
X107870000Y-86930000D03*
X106450000Y-70510000D03*
X106460000Y-78700000D03*
X107843202Y-81100000D03*
X105672414Y-69737331D03*
X107889424Y-83528723D03*
X105640000Y-68640000D03*
X108824271Y-69682316D03*
X107764040Y-84524038D03*
X109189811Y-68671094D03*
X107870000Y-85750000D03*
X108762473Y-58896070D03*
X113236857Y-58099212D03*
X111418903Y-57989284D03*
X108870000Y-60010000D03*
X114745961Y-55275961D03*
X117507525Y-56580553D03*
D17*
X105280000Y-58110000D02*
X106563601Y-56826399D01*
X105795331Y-64458165D02*
X105280000Y-63942834D01*
X105280000Y-63942834D02*
X105280000Y-58110000D01*
X106563601Y-56826399D02*
X106970000Y-56420000D01*
X116280000Y-68405266D02*
X116280000Y-68980002D01*
X116280000Y-65178949D02*
X116280000Y-68405266D01*
X113873107Y-70402157D02*
X115295262Y-68980002D01*
X113873107Y-70615792D02*
X113873107Y-70402157D01*
X115295262Y-68980002D02*
X115705264Y-68980002D01*
X113459999Y-62358948D02*
X116280000Y-65178949D01*
X113459999Y-61784212D02*
X113459999Y-62358948D01*
X115705264Y-68980002D02*
X116280000Y-68980002D01*
D18*
X119300000Y-69124555D02*
X120562776Y-70387331D01*
D17*
X121375574Y-70387331D02*
X120969175Y-70793730D01*
X122292903Y-69470002D02*
X121375574Y-70387331D01*
X125520000Y-69470002D02*
X122292903Y-69470002D01*
D18*
X120562776Y-70387331D02*
X120969175Y-70793730D01*
X119300000Y-67430000D02*
X119300000Y-69124555D01*
X105795331Y-64458165D02*
X106991835Y-64458165D01*
X106991835Y-64458165D02*
X107210000Y-64240000D01*
X120828110Y-63276890D02*
X121120000Y-63276890D01*
X119300000Y-64805000D02*
X120828110Y-63276890D01*
X119300000Y-64930000D02*
X119300000Y-64805000D01*
X107210000Y-66740000D02*
X105826981Y-66740000D01*
X105826981Y-66740000D02*
X105704045Y-66617064D01*
D17*
X104840000Y-79850000D02*
X104840000Y-78630000D01*
X104840000Y-78630000D02*
X104850000Y-78620000D01*
D19*
X104840000Y-82350000D02*
X104840000Y-88410000D01*
X104840000Y-88410000D02*
X106570000Y-90140000D01*
X106570000Y-90140000D02*
X131540000Y-90140000D01*
X131540000Y-90140000D02*
X133473601Y-88206399D01*
X133473601Y-88206399D02*
X133880000Y-87800000D01*
X107659998Y-82350000D02*
X107679998Y-82330000D01*
X104840000Y-82350000D02*
X107659998Y-82350000D01*
D18*
X111123110Y-56218434D02*
X111123110Y-56793170D01*
X116957283Y-48519999D02*
X113946701Y-51530581D01*
X117080001Y-48519999D02*
X116957283Y-48519999D01*
X117930000Y-47670000D02*
X117080001Y-48519999D01*
X113946701Y-52396207D02*
X111123110Y-55219798D01*
X111123110Y-55219798D02*
X111123110Y-56218434D01*
X113946701Y-51530581D02*
X113946701Y-52396207D01*
X111713299Y-48806701D02*
X111713299Y-53623792D01*
X112850000Y-47670000D02*
X111713299Y-48806701D01*
X110014389Y-57010138D02*
X109696890Y-57327637D01*
X110014389Y-55322702D02*
X110014389Y-57010138D01*
X111713299Y-53623792D02*
X110014389Y-55322702D01*
X109696890Y-57327637D02*
X109696890Y-57902373D01*
X107770000Y-47670000D02*
X107770000Y-48697800D01*
X109173299Y-52894298D02*
X107938778Y-54128819D01*
X107938778Y-57759593D02*
X107621279Y-58077092D01*
X107770000Y-48697800D02*
X109173299Y-50101099D01*
X109173299Y-50101099D02*
X109173299Y-52894298D01*
X107938778Y-54128819D02*
X107938778Y-57759593D01*
X108546910Y-60683102D02*
X108089371Y-60225563D01*
X108089371Y-60225563D02*
X108089371Y-58572980D01*
X108089371Y-58572980D02*
X108294389Y-58367962D01*
X108294389Y-58367962D02*
X108294389Y-57312702D01*
X109250193Y-60683102D02*
X108546910Y-60683102D01*
X113873110Y-69041767D02*
X113873110Y-68467031D01*
X108294389Y-57312702D02*
X109141885Y-56465206D01*
X113873110Y-68467031D02*
X113555611Y-68149532D01*
X113555611Y-68149532D02*
X113555611Y-64988520D01*
X113555611Y-64988520D02*
X109250193Y-60683102D01*
X109141885Y-56465206D02*
X109141885Y-53893087D01*
X109141885Y-53893087D02*
X109548284Y-53486688D01*
X118376957Y-55009250D02*
X117762539Y-55009250D01*
X117762539Y-55009250D02*
X117187803Y-55009250D01*
X120406207Y-52980000D02*
X118376957Y-55009250D01*
X123600000Y-52980000D02*
X120406207Y-52980000D01*
X117040000Y-74797312D02*
X117040000Y-77359098D01*
X117040000Y-77359098D02*
X116026890Y-78372208D01*
X116026890Y-73784202D02*
X117040000Y-74797312D01*
X116026890Y-81776890D02*
X118301790Y-84051790D01*
X116026890Y-78372208D02*
X116026890Y-81776890D01*
X118301790Y-84051790D02*
X121533071Y-84051790D01*
X121533071Y-84051790D02*
X122107807Y-84051790D01*
X137510000Y-84670000D02*
X122726017Y-84670000D01*
X138840000Y-86000000D02*
X137510000Y-84670000D01*
X122514206Y-84458189D02*
X122107807Y-84051790D01*
X122726017Y-84670000D02*
X122514206Y-84458189D01*
X120599496Y-55520000D02*
X119442747Y-56676749D01*
X119442747Y-56676749D02*
X119036348Y-57083148D01*
X123600000Y-55520000D02*
X120599496Y-55520000D01*
X121860000Y-82419998D02*
X117569998Y-82419998D01*
X117569998Y-82419998D02*
X116700000Y-81550000D01*
X116700000Y-81550000D02*
X116700000Y-78202006D01*
X117720000Y-77182006D02*
X117720000Y-74910000D01*
X116700000Y-78202006D02*
X117720000Y-77182006D01*
X117720000Y-74910000D02*
X116700000Y-73890000D01*
X116700000Y-73890000D02*
X116700000Y-71465465D01*
X116700000Y-71465465D02*
X116260700Y-71026165D01*
X116260700Y-71026165D02*
X115854301Y-70619766D01*
X138840000Y-83460000D02*
X137393599Y-82013599D01*
X122266399Y-82013599D02*
X121860000Y-82419998D01*
X137393599Y-82013599D02*
X122266399Y-82013599D01*
X121353601Y-80643601D02*
X121760000Y-81050000D01*
X119215546Y-78505546D02*
X121353601Y-80643601D01*
X117660000Y-72220000D02*
X119215546Y-73775546D01*
X119215546Y-73775546D02*
X119215546Y-78505546D01*
X122166399Y-80643601D02*
X121760000Y-81050000D01*
X123096399Y-79713601D02*
X122166399Y-80643601D01*
X137633601Y-79713601D02*
X123096399Y-79713601D01*
X138840000Y-80920000D02*
X137633601Y-79713601D01*
X119170000Y-71224736D02*
X119170000Y-70650000D01*
X121160000Y-78860000D02*
X119630908Y-77330908D01*
X119630908Y-77330908D02*
X119630908Y-72770908D01*
X119630908Y-72770908D02*
X119170000Y-72310000D01*
X119170000Y-72310000D02*
X119170000Y-71224736D01*
X122766399Y-77253601D02*
X121566399Y-78453601D01*
X137713601Y-77253601D02*
X122766399Y-77253601D01*
X138840000Y-78380000D02*
X137713601Y-77253601D01*
X121566399Y-78453601D02*
X121160000Y-78860000D01*
X120810000Y-76160000D02*
X120112383Y-75462383D01*
X120112383Y-75462383D02*
X120112383Y-71865678D01*
X120112383Y-71865678D02*
X120112383Y-71290942D01*
X138840000Y-75840000D02*
X137773299Y-74773299D01*
X122196701Y-74773299D02*
X121216399Y-75753601D01*
X137773299Y-74773299D02*
X122196701Y-74773299D01*
X121216399Y-75753601D02*
X120810000Y-76160000D01*
X129470000Y-70760000D02*
X125580000Y-66870000D01*
X138840000Y-70760000D02*
X129470000Y-70760000D01*
X125550000Y-64360000D02*
X125550000Y-64934736D01*
X125550000Y-64934736D02*
X128835264Y-68220000D01*
X128835264Y-68220000D02*
X138840000Y-68220000D01*
X125520000Y-61880000D02*
X135040000Y-61880000D01*
X135040000Y-61880000D02*
X138840000Y-65680000D01*
X138840000Y-63140000D02*
X135110000Y-59410000D01*
X126714736Y-59410000D02*
X126140000Y-59410000D01*
X135110000Y-59410000D02*
X126714736Y-59410000D01*
X126680000Y-87297790D02*
X125827790Y-88150000D01*
X125827790Y-88150000D02*
X118534736Y-88150000D01*
X118534736Y-88150000D02*
X118324736Y-87940000D01*
X118324736Y-87940000D02*
X117750000Y-87940000D01*
X115413601Y-76236399D02*
X115820000Y-75830000D01*
X113880000Y-77770000D02*
X115413601Y-76236399D01*
X113880000Y-84070000D02*
X113880000Y-77770000D01*
X117750000Y-87940000D02*
X113880000Y-84070000D01*
X138840000Y-60600000D02*
X136120000Y-57880000D01*
X136120000Y-57880000D02*
X125433299Y-57880000D01*
X125433299Y-57880000D02*
X124186598Y-59126701D01*
X124186598Y-59126701D02*
X120233297Y-59126701D01*
X120233297Y-59126701D02*
X119330000Y-60029998D01*
X118150000Y-81740000D02*
X118390000Y-81500000D01*
X118390000Y-81500000D02*
X118390000Y-74510000D01*
X118390000Y-74510000D02*
X117522566Y-73642566D01*
X117522566Y-73642566D02*
X117506348Y-73642566D01*
X122033810Y-81740000D02*
X118724736Y-81740000D01*
X122853810Y-80920000D02*
X122033810Y-81740000D01*
X123600000Y-80920000D02*
X122853810Y-80920000D01*
X118724736Y-81740000D02*
X118150000Y-81740000D01*
X138840000Y-58060000D02*
X137366701Y-56586701D01*
X137366701Y-56586701D02*
X122083299Y-56586701D01*
X122083299Y-56586701D02*
X120760000Y-57910000D01*
X118480000Y-57910000D02*
X114600000Y-61790000D01*
X120760000Y-57910000D02*
X118480000Y-57910000D01*
X116493102Y-76153090D02*
X116493102Y-75389408D01*
X116493102Y-75389408D02*
X114863694Y-73760000D01*
X114863694Y-73760000D02*
X114863694Y-71197630D01*
X114863694Y-71197630D02*
X114863694Y-70622894D01*
X121686939Y-86277558D02*
X118857558Y-86277558D01*
X118857558Y-86277558D02*
X114863694Y-82283694D01*
X114863694Y-82283694D02*
X114863694Y-77782498D01*
X114863694Y-77782498D02*
X116493102Y-76153090D01*
X122093338Y-86683957D02*
X121686939Y-86277558D01*
X122476082Y-87066701D02*
X122093338Y-86683957D01*
X124208035Y-87066701D02*
X122476082Y-87066701D01*
X125180000Y-86094736D02*
X124208035Y-87066701D01*
X125180000Y-85520000D02*
X125180000Y-86094736D01*
X138840000Y-55520000D02*
X137773299Y-54453299D01*
X137773299Y-54453299D02*
X120586701Y-54453299D01*
X120586701Y-54453299D02*
X116424212Y-58615788D01*
X116424212Y-58615788D02*
X114656838Y-58615788D01*
X114656838Y-58615788D02*
X114082102Y-58615788D01*
X110220722Y-68896007D02*
X110220722Y-67915760D01*
X109259185Y-87996966D02*
X109259185Y-86950815D01*
X110220722Y-67915760D02*
X109428072Y-67123110D01*
X109428072Y-67123110D02*
X108853336Y-67123110D01*
X110215114Y-68901615D02*
X110220722Y-68896007D01*
X110215114Y-85994886D02*
X110215114Y-68901615D01*
X109259185Y-86950815D02*
X110215114Y-85994886D01*
X109908472Y-66208351D02*
X110576333Y-66876212D01*
X110576333Y-86573667D02*
X110290000Y-86860000D01*
X110576333Y-66876212D02*
X110576333Y-86573667D01*
X110290000Y-86860000D02*
X110290000Y-88010000D01*
X106339415Y-65535241D02*
X106294144Y-65580512D01*
X106294144Y-65580512D02*
X105719408Y-65580512D01*
X110931944Y-66253580D02*
X110213605Y-65535241D01*
X110213605Y-65535241D02*
X106339415Y-65535241D01*
X110931944Y-87621946D02*
X110931944Y-66253580D01*
X111339998Y-88030000D02*
X110931944Y-87621946D01*
X111287555Y-86547555D02*
X111287555Y-66106282D01*
X111287555Y-66106282D02*
X110043412Y-64862139D01*
X112410000Y-88010000D02*
X112410000Y-87670000D01*
X110043412Y-64862139D02*
X109982069Y-64862139D01*
X112410000Y-87670000D02*
X111287555Y-86547555D01*
X113460002Y-88010000D02*
X113460002Y-87450002D01*
X113460002Y-87450002D02*
X111643166Y-85633166D01*
X111643166Y-85633166D02*
X111643166Y-65548984D01*
X109444736Y-63580371D02*
X108870000Y-63580371D01*
X111643166Y-65548984D02*
X109674553Y-63580371D01*
X109674553Y-63580371D02*
X109444736Y-63580371D01*
X114530000Y-88010000D02*
X114530000Y-87630000D01*
X107316399Y-62816399D02*
X106616399Y-62116399D01*
X106616399Y-62116399D02*
X106210000Y-61710000D01*
X114530000Y-87630000D02*
X111998777Y-85098777D01*
X111998777Y-85098777D02*
X111998777Y-65401685D01*
X111998777Y-65401685D02*
X109413491Y-62816399D01*
X109413491Y-62816399D02*
X107316399Y-62816399D01*
X112354388Y-84704388D02*
X112354388Y-65208968D01*
X112354388Y-65208968D02*
X108885829Y-61740409D01*
X108885829Y-61740409D02*
X108247366Y-61740409D01*
X115630000Y-87980000D02*
X112354388Y-84704388D01*
X108247366Y-61740409D02*
X107672630Y-61740409D01*
X112844389Y-84104389D02*
X112844389Y-64817297D01*
X107813449Y-61038713D02*
X107564736Y-60790000D01*
X116700000Y-87960000D02*
X112844389Y-84104389D01*
X112844389Y-64817297D02*
X109065805Y-61038713D01*
X109065805Y-61038713D02*
X107813449Y-61038713D01*
X107564736Y-60790000D02*
X106990000Y-60790000D01*
X107870000Y-86930000D02*
X109859503Y-84940497D01*
X109482869Y-67992869D02*
X106530103Y-67992869D01*
X109859503Y-84940497D02*
X109859503Y-68754317D01*
X109859503Y-68754317D02*
X109865111Y-68748709D01*
X109865111Y-68748709D02*
X109865111Y-68375111D01*
X106134320Y-67597086D02*
X105559584Y-67597086D01*
X109865111Y-68375111D02*
X109482869Y-67992869D01*
X106530103Y-67992869D02*
X106134320Y-67597086D01*
X106460000Y-78700000D02*
X106460000Y-70520000D01*
X106460000Y-70520000D02*
X106450000Y-70510000D01*
X105760000Y-79680000D02*
X107180000Y-81100000D01*
X107180000Y-81100000D02*
X107843202Y-81100000D01*
X105760000Y-70399653D02*
X105760000Y-79680000D01*
X105672414Y-69737331D02*
X105672414Y-70312067D01*
X105672414Y-70312067D02*
X105760000Y-70399653D01*
X105640000Y-68640000D02*
X108530000Y-71530000D01*
X108530000Y-82888147D02*
X108295823Y-83122324D01*
X108530000Y-71530000D02*
X108530000Y-82888147D01*
X108295823Y-83122324D02*
X107889424Y-83528723D01*
X108338776Y-84524038D02*
X109093890Y-83768924D01*
X107764040Y-84524038D02*
X108338776Y-84524038D01*
X109093890Y-70526671D02*
X108824271Y-70257052D01*
X108824271Y-70257052D02*
X108824271Y-69682316D01*
X109093890Y-83768924D02*
X109093890Y-70526671D01*
X109503892Y-68985175D02*
X109189811Y-68671094D01*
X107870000Y-85750000D02*
X109503892Y-84116108D01*
X109503892Y-84116108D02*
X109503892Y-68985175D01*
X110290000Y-54544182D02*
X109658778Y-55175404D01*
X110290000Y-51760000D02*
X110290000Y-54544182D01*
X109658778Y-55175404D02*
X109658778Y-56451222D01*
X109658778Y-56451222D02*
X108762473Y-57347527D01*
X108762473Y-57347527D02*
X108762473Y-58321334D01*
X108762473Y-58321334D02*
X108762473Y-58896070D01*
X115250000Y-53820000D02*
X115850000Y-53820000D01*
X115850000Y-53820000D02*
X117910000Y-51760000D01*
X113236857Y-55833143D02*
X115250000Y-53820000D01*
X113236857Y-58099212D02*
X113236857Y-55833143D01*
X111825302Y-57582885D02*
X111418903Y-57989284D01*
X111825302Y-55294698D02*
X111825302Y-57582885D01*
X114100000Y-53020000D02*
X111825302Y-55294698D01*
X114110000Y-53020000D02*
X114100000Y-53020000D01*
X115370000Y-51760000D02*
X114110000Y-53020000D01*
X110370000Y-55470000D02*
X110370000Y-58510000D01*
X110370000Y-58510000D02*
X108870000Y-60010000D01*
X112830000Y-53010000D02*
X110370000Y-55470000D01*
X112830000Y-51760000D02*
X112830000Y-53010000D01*
X126690000Y-53570000D02*
X129230000Y-53570000D01*
X129230000Y-53570000D02*
X130510000Y-52290000D01*
X125033299Y-51913299D02*
X126690000Y-53570000D01*
X119233299Y-52876701D02*
X120196701Y-51913299D01*
X120196701Y-51913299D02*
X125033299Y-51913299D01*
X115557640Y-55682360D02*
X118363299Y-52876701D01*
X118363299Y-52876701D02*
X119233299Y-52876701D01*
X115152360Y-55682360D02*
X115557640Y-55682360D01*
X114745961Y-55275961D02*
X115152360Y-55682360D01*
X131293299Y-54046701D02*
X132200001Y-53139999D01*
X132200001Y-53139999D02*
X133050000Y-52290000D01*
X120041377Y-54046701D02*
X131293299Y-54046701D01*
X117507525Y-56580553D02*
X120041377Y-54046701D01*
D20*
G36*
X114393794Y-82283694D02*
X114420907Y-82419998D01*
X114429563Y-82463517D01*
X114531425Y-82615963D01*
X118525289Y-86609828D01*
X118677735Y-86711689D01*
X118857558Y-86747458D01*
X121043438Y-86747458D01*
X121240330Y-86944694D01*
X121529628Y-87064821D01*
X121809908Y-87065065D01*
X122143813Y-87398971D01*
X122280313Y-87490177D01*
X122296259Y-87500832D01*
X122476082Y-87536601D01*
X124208035Y-87536601D01*
X124387858Y-87500832D01*
X124540304Y-87398970D01*
X125512269Y-86427006D01*
X125614131Y-86274559D01*
X125620727Y-86241398D01*
X125632833Y-86180538D01*
X125847136Y-85966609D01*
X125967263Y-85677311D01*
X125967536Y-85364064D01*
X125874914Y-85139900D01*
X137315362Y-85139900D01*
X137725388Y-85549926D01*
X137635863Y-86000000D01*
X137725761Y-86451949D01*
X137981770Y-86835093D01*
X138364914Y-87091102D01*
X138816863Y-87181000D01*
X138863137Y-87181000D01*
X139315086Y-87091102D01*
X139569000Y-86921442D01*
X139569000Y-91569000D01*
X104431000Y-91569000D01*
X104431000Y-89258236D01*
X105941382Y-90768618D01*
X106229794Y-90961329D01*
X106570000Y-91029000D01*
X131540000Y-91029000D01*
X131880206Y-90961329D01*
X132168618Y-90768618D01*
X134508618Y-88428618D01*
X134701329Y-88140205D01*
X134769000Y-87800000D01*
X134701329Y-87459795D01*
X134508618Y-87171382D01*
X134220205Y-86978671D01*
X133880000Y-86911000D01*
X133539795Y-86978671D01*
X133251382Y-87171382D01*
X131171764Y-89251000D01*
X106938236Y-89251000D01*
X105729000Y-88041764D01*
X105729000Y-83382871D01*
X105735865Y-83378454D01*
X105822859Y-83251134D01*
X105825316Y-83239000D01*
X107157143Y-83239000D01*
X107102161Y-83371412D01*
X107101888Y-83684659D01*
X107215330Y-83959210D01*
X107096904Y-84077429D01*
X106976777Y-84366727D01*
X106976504Y-84679974D01*
X107096126Y-84969482D01*
X107316356Y-85190097D01*
X107202864Y-85303391D01*
X107082737Y-85592689D01*
X107082464Y-85905936D01*
X107202086Y-86195444D01*
X107346448Y-86340058D01*
X107202864Y-86483391D01*
X107082737Y-86772689D01*
X107082464Y-87085936D01*
X107202086Y-87375444D01*
X107423391Y-87597136D01*
X107712689Y-87717263D01*
X108025936Y-87717536D01*
X108315444Y-87597914D01*
X108537136Y-87376609D01*
X108657263Y-87087311D01*
X108657507Y-86807031D01*
X109745214Y-85719325D01*
X109745214Y-85800247D01*
X108926916Y-86618546D01*
X108825054Y-86770992D01*
X108789285Y-86950815D01*
X108789285Y-87353465D01*
X108592049Y-87550357D01*
X108471922Y-87839655D01*
X108471649Y-88152902D01*
X108591271Y-88442410D01*
X108812576Y-88664102D01*
X109101874Y-88784229D01*
X109415121Y-88784502D01*
X109704629Y-88664880D01*
X109768003Y-88601616D01*
X109843391Y-88677136D01*
X110132689Y-88797263D01*
X110445936Y-88797536D01*
X110735444Y-88677914D01*
X110804943Y-88608536D01*
X110893389Y-88697136D01*
X111182687Y-88817263D01*
X111495934Y-88817536D01*
X111785442Y-88697914D01*
X111884961Y-88598569D01*
X111963391Y-88677136D01*
X112252689Y-88797263D01*
X112565936Y-88797536D01*
X112855444Y-88677914D01*
X112934945Y-88598551D01*
X113013393Y-88677136D01*
X113302691Y-88797263D01*
X113615938Y-88797536D01*
X113905446Y-88677914D01*
X113994963Y-88588553D01*
X114083391Y-88677136D01*
X114372689Y-88797263D01*
X114685936Y-88797536D01*
X114975444Y-88677914D01*
X115094988Y-88558579D01*
X115183391Y-88647136D01*
X115472689Y-88767263D01*
X115785936Y-88767536D01*
X116075444Y-88647914D01*
X116174962Y-88548570D01*
X116253391Y-88627136D01*
X116542689Y-88747263D01*
X116855936Y-88747536D01*
X117145444Y-88627914D01*
X117234944Y-88538570D01*
X117303391Y-88607136D01*
X117592689Y-88727263D01*
X117905936Y-88727536D01*
X118195444Y-88607914D01*
X118273657Y-88529838D01*
X118298750Y-88546604D01*
X118354913Y-88584131D01*
X118534736Y-88619900D01*
X125827790Y-88619900D01*
X126007613Y-88584131D01*
X126160059Y-88482269D01*
X126557245Y-88085083D01*
X126835936Y-88085326D01*
X127125444Y-87965704D01*
X127347136Y-87744399D01*
X127467263Y-87455101D01*
X127467536Y-87141854D01*
X127347914Y-86852346D01*
X127126609Y-86630654D01*
X126837311Y-86510527D01*
X126524064Y-86510254D01*
X126234556Y-86629876D01*
X126012864Y-86851181D01*
X125892737Y-87140479D01*
X125892493Y-87420759D01*
X125633152Y-87680100D01*
X118729374Y-87680100D01*
X118657005Y-87607731D01*
X118504559Y-87505869D01*
X118479236Y-87500832D01*
X118410538Y-87487167D01*
X118196609Y-87272864D01*
X117907311Y-87152737D01*
X117627032Y-87152493D01*
X114349900Y-83875362D01*
X114349900Y-77964638D01*
X114393794Y-77920744D01*
X114393794Y-82283694D01*
X114393794Y-82283694D01*
G37*
X114393794Y-82283694D02*
X114420907Y-82419998D01*
X114429563Y-82463517D01*
X114531425Y-82615963D01*
X118525289Y-86609828D01*
X118677735Y-86711689D01*
X118857558Y-86747458D01*
X121043438Y-86747458D01*
X121240330Y-86944694D01*
X121529628Y-87064821D01*
X121809908Y-87065065D01*
X122143813Y-87398971D01*
X122280313Y-87490177D01*
X122296259Y-87500832D01*
X122476082Y-87536601D01*
X124208035Y-87536601D01*
X124387858Y-87500832D01*
X124540304Y-87398970D01*
X125512269Y-86427006D01*
X125614131Y-86274559D01*
X125620727Y-86241398D01*
X125632833Y-86180538D01*
X125847136Y-85966609D01*
X125967263Y-85677311D01*
X125967536Y-85364064D01*
X125874914Y-85139900D01*
X137315362Y-85139900D01*
X137725388Y-85549926D01*
X137635863Y-86000000D01*
X137725761Y-86451949D01*
X137981770Y-86835093D01*
X138364914Y-87091102D01*
X138816863Y-87181000D01*
X138863137Y-87181000D01*
X139315086Y-87091102D01*
X139569000Y-86921442D01*
X139569000Y-91569000D01*
X104431000Y-91569000D01*
X104431000Y-89258236D01*
X105941382Y-90768618D01*
X106229794Y-90961329D01*
X106570000Y-91029000D01*
X131540000Y-91029000D01*
X131880206Y-90961329D01*
X132168618Y-90768618D01*
X134508618Y-88428618D01*
X134701329Y-88140205D01*
X134769000Y-87800000D01*
X134701329Y-87459795D01*
X134508618Y-87171382D01*
X134220205Y-86978671D01*
X133880000Y-86911000D01*
X133539795Y-86978671D01*
X133251382Y-87171382D01*
X131171764Y-89251000D01*
X106938236Y-89251000D01*
X105729000Y-88041764D01*
X105729000Y-83382871D01*
X105735865Y-83378454D01*
X105822859Y-83251134D01*
X105825316Y-83239000D01*
X107157143Y-83239000D01*
X107102161Y-83371412D01*
X107101888Y-83684659D01*
X107215330Y-83959210D01*
X107096904Y-84077429D01*
X106976777Y-84366727D01*
X106976504Y-84679974D01*
X107096126Y-84969482D01*
X107316356Y-85190097D01*
X107202864Y-85303391D01*
X107082737Y-85592689D01*
X107082464Y-85905936D01*
X107202086Y-86195444D01*
X107346448Y-86340058D01*
X107202864Y-86483391D01*
X107082737Y-86772689D01*
X107082464Y-87085936D01*
X107202086Y-87375444D01*
X107423391Y-87597136D01*
X107712689Y-87717263D01*
X108025936Y-87717536D01*
X108315444Y-87597914D01*
X108537136Y-87376609D01*
X108657263Y-87087311D01*
X108657507Y-86807031D01*
X109745214Y-85719325D01*
X109745214Y-85800247D01*
X108926916Y-86618546D01*
X108825054Y-86770992D01*
X108789285Y-86950815D01*
X108789285Y-87353465D01*
X108592049Y-87550357D01*
X108471922Y-87839655D01*
X108471649Y-88152902D01*
X108591271Y-88442410D01*
X108812576Y-88664102D01*
X109101874Y-88784229D01*
X109415121Y-88784502D01*
X109704629Y-88664880D01*
X109768003Y-88601616D01*
X109843391Y-88677136D01*
X110132689Y-88797263D01*
X110445936Y-88797536D01*
X110735444Y-88677914D01*
X110804943Y-88608536D01*
X110893389Y-88697136D01*
X111182687Y-88817263D01*
X111495934Y-88817536D01*
X111785442Y-88697914D01*
X111884961Y-88598569D01*
X111963391Y-88677136D01*
X112252689Y-88797263D01*
X112565936Y-88797536D01*
X112855444Y-88677914D01*
X112934945Y-88598551D01*
X113013393Y-88677136D01*
X113302691Y-88797263D01*
X113615938Y-88797536D01*
X113905446Y-88677914D01*
X113994963Y-88588553D01*
X114083391Y-88677136D01*
X114372689Y-88797263D01*
X114685936Y-88797536D01*
X114975444Y-88677914D01*
X115094988Y-88558579D01*
X115183391Y-88647136D01*
X115472689Y-88767263D01*
X115785936Y-88767536D01*
X116075444Y-88647914D01*
X116174962Y-88548570D01*
X116253391Y-88627136D01*
X116542689Y-88747263D01*
X116855936Y-88747536D01*
X117145444Y-88627914D01*
X117234944Y-88538570D01*
X117303391Y-88607136D01*
X117592689Y-88727263D01*
X117905936Y-88727536D01*
X118195444Y-88607914D01*
X118273657Y-88529838D01*
X118298750Y-88546604D01*
X118354913Y-88584131D01*
X118534736Y-88619900D01*
X125827790Y-88619900D01*
X126007613Y-88584131D01*
X126160059Y-88482269D01*
X126557245Y-88085083D01*
X126835936Y-88085326D01*
X127125444Y-87965704D01*
X127347136Y-87744399D01*
X127467263Y-87455101D01*
X127467536Y-87141854D01*
X127347914Y-86852346D01*
X127126609Y-86630654D01*
X126837311Y-86510527D01*
X126524064Y-86510254D01*
X126234556Y-86629876D01*
X126012864Y-86851181D01*
X125892737Y-87140479D01*
X125892493Y-87420759D01*
X125633152Y-87680100D01*
X118729374Y-87680100D01*
X118657005Y-87607731D01*
X118504559Y-87505869D01*
X118479236Y-87500832D01*
X118410538Y-87487167D01*
X118196609Y-87272864D01*
X117907311Y-87152737D01*
X117627032Y-87152493D01*
X114349900Y-83875362D01*
X114349900Y-77964638D01*
X114393794Y-77920744D01*
X114393794Y-82283694D01*
G36*
X123727000Y-85873000D02*
X123747000Y-85873000D01*
X123747000Y-86127000D01*
X123727000Y-86127000D01*
X123727000Y-86147000D01*
X123473000Y-86147000D01*
X123473000Y-86127000D01*
X123453000Y-86127000D01*
X123453000Y-85873000D01*
X123473000Y-85873000D01*
X123473000Y-85853000D01*
X123727000Y-85853000D01*
X123727000Y-85873000D01*
X123727000Y-85873000D01*
G37*
X123727000Y-85873000D02*
X123747000Y-85873000D01*
X123747000Y-86127000D01*
X123727000Y-86127000D01*
X123727000Y-86147000D01*
X123473000Y-86147000D01*
X123473000Y-86127000D01*
X123453000Y-86127000D01*
X123453000Y-85873000D01*
X123473000Y-85873000D01*
X123473000Y-85853000D01*
X123727000Y-85853000D01*
X123727000Y-85873000D01*
G36*
X108060100Y-71724639D02*
X108060100Y-80337480D01*
X108000513Y-80312737D01*
X107687266Y-80312464D01*
X107397758Y-80432086D01*
X107287095Y-80542556D01*
X106229900Y-79485362D01*
X106229900Y-79457038D01*
X106302689Y-79487263D01*
X106615936Y-79487536D01*
X106905444Y-79367914D01*
X107127136Y-79146609D01*
X107247263Y-78857311D01*
X107247536Y-78544064D01*
X107127914Y-78254556D01*
X106929900Y-78056196D01*
X106929900Y-71143518D01*
X107117136Y-70956609D01*
X107168462Y-70833001D01*
X108060100Y-71724639D01*
X108060100Y-71724639D01*
G37*
X108060100Y-71724639D02*
X108060100Y-80337480D01*
X108000513Y-80312737D01*
X107687266Y-80312464D01*
X107397758Y-80432086D01*
X107287095Y-80542556D01*
X106229900Y-79485362D01*
X106229900Y-79457038D01*
X106302689Y-79487263D01*
X106615936Y-79487536D01*
X106905444Y-79367914D01*
X107127136Y-79146609D01*
X107247263Y-78857311D01*
X107247536Y-78544064D01*
X107127914Y-78254556D01*
X106929900Y-78056196D01*
X106929900Y-71143518D01*
X107117136Y-70956609D01*
X107168462Y-70833001D01*
X108060100Y-71724639D01*
G36*
X120569000Y-50000000D02*
X120601808Y-50164937D01*
X120695237Y-50304763D01*
X120835063Y-50398192D01*
X121000000Y-50431000D01*
X139569000Y-50431000D01*
X139569000Y-52058558D01*
X139315086Y-51888898D01*
X138863137Y-51799000D01*
X138816863Y-51799000D01*
X138364914Y-51888898D01*
X137981770Y-52144907D01*
X137725761Y-52528051D01*
X137635863Y-52980000D01*
X137725761Y-53431949D01*
X137981770Y-53815093D01*
X138364914Y-54071102D01*
X138816863Y-54161000D01*
X138863137Y-54161000D01*
X139315086Y-54071102D01*
X139569000Y-53901442D01*
X139569000Y-54598558D01*
X139315086Y-54428898D01*
X138863137Y-54339000D01*
X138816863Y-54339000D01*
X138405386Y-54420848D01*
X138105568Y-54121030D01*
X137953122Y-54019168D01*
X137773299Y-53983399D01*
X132021139Y-53983399D01*
X132532270Y-53472269D01*
X132532272Y-53472266D01*
X132563456Y-53441082D01*
X132578917Y-53451413D01*
X133050000Y-53545117D01*
X133521083Y-53451413D01*
X133920448Y-53184565D01*
X134187296Y-52785200D01*
X134281000Y-52314117D01*
X134281000Y-52265883D01*
X134359000Y-52265883D01*
X134359000Y-52314117D01*
X134452704Y-52785200D01*
X134719552Y-53184565D01*
X135118917Y-53451413D01*
X135590000Y-53545117D01*
X136061083Y-53451413D01*
X136460448Y-53184565D01*
X136727296Y-52785200D01*
X136821000Y-52314117D01*
X136821000Y-52265883D01*
X136727296Y-51794800D01*
X136460448Y-51395435D01*
X136061083Y-51128587D01*
X135590000Y-51034883D01*
X135118917Y-51128587D01*
X134719552Y-51395435D01*
X134452704Y-51794800D01*
X134359000Y-52265883D01*
X134281000Y-52265883D01*
X134187296Y-51794800D01*
X133920448Y-51395435D01*
X133521083Y-51128587D01*
X133050000Y-51034883D01*
X132578917Y-51128587D01*
X132179552Y-51395435D01*
X131912704Y-51794800D01*
X131819000Y-52265883D01*
X131819000Y-52314117D01*
X131908981Y-52766481D01*
X131867734Y-52807728D01*
X131867731Y-52807730D01*
X131098661Y-53576801D01*
X129887737Y-53576801D01*
X130023456Y-53441082D01*
X130038917Y-53451413D01*
X130510000Y-53545117D01*
X130981083Y-53451413D01*
X131380448Y-53184565D01*
X131647296Y-52785200D01*
X131741000Y-52314117D01*
X131741000Y-52265883D01*
X131647296Y-51794800D01*
X131380448Y-51395435D01*
X130981083Y-51128587D01*
X130510000Y-51034883D01*
X130038917Y-51128587D01*
X129639552Y-51395435D01*
X129455000Y-51671636D01*
X129455000Y-51313691D01*
X129358327Y-51080302D01*
X129179699Y-50901673D01*
X128946310Y-50805000D01*
X128255750Y-50805000D01*
X128097000Y-50963750D01*
X128097000Y-52163000D01*
X128117000Y-52163000D01*
X128117000Y-52417000D01*
X128097000Y-52417000D01*
X128097000Y-52437000D01*
X127843000Y-52437000D01*
X127843000Y-52417000D01*
X126643750Y-52417000D01*
X126485000Y-52575750D01*
X126485000Y-52700462D01*
X125365568Y-51581030D01*
X125213122Y-51479168D01*
X125033299Y-51443399D01*
X120196701Y-51443399D01*
X120016878Y-51479168D01*
X119864431Y-51581030D01*
X119038661Y-52406801D01*
X118945999Y-52406801D01*
X119047296Y-52255200D01*
X119141000Y-51784117D01*
X119141000Y-51735883D01*
X119057022Y-51313691D01*
X126485000Y-51313691D01*
X126485000Y-52004250D01*
X126643750Y-52163000D01*
X127843000Y-52163000D01*
X127843000Y-50963750D01*
X127684250Y-50805000D01*
X126993690Y-50805000D01*
X126760301Y-50901673D01*
X126581673Y-51080302D01*
X126485000Y-51313691D01*
X119057022Y-51313691D01*
X119047296Y-51264800D01*
X118780448Y-50865435D01*
X118381083Y-50598587D01*
X117910000Y-50504883D01*
X117438917Y-50598587D01*
X117039552Y-50865435D01*
X116772704Y-51264800D01*
X116679000Y-51735883D01*
X116679000Y-51784117D01*
X116768981Y-52236481D01*
X115655362Y-53350100D01*
X115250000Y-53350100D01*
X115070177Y-53385869D01*
X114917730Y-53487731D01*
X112904588Y-55500874D01*
X112802726Y-55653320D01*
X112766957Y-55833143D01*
X112766957Y-57455711D01*
X112569721Y-57652603D01*
X112449594Y-57941901D01*
X112449321Y-58255148D01*
X112568943Y-58544656D01*
X112790248Y-58766348D01*
X113079546Y-58886475D01*
X113342075Y-58886704D01*
X113414188Y-59061232D01*
X113635493Y-59282924D01*
X113924791Y-59403051D01*
X114238038Y-59403324D01*
X114527546Y-59283702D01*
X114725906Y-59085688D01*
X116424212Y-59085688D01*
X116604035Y-59049919D01*
X116756481Y-58948057D01*
X118312154Y-57392384D01*
X118343120Y-57467327D01*
X118300177Y-57475869D01*
X118147731Y-57577730D01*
X114722755Y-61002707D01*
X114444064Y-61002464D01*
X114154556Y-61122086D01*
X114032870Y-61243559D01*
X113906608Y-61117076D01*
X113617310Y-60996949D01*
X113304063Y-60996676D01*
X113014555Y-61116298D01*
X112792863Y-61337603D01*
X112672736Y-61626901D01*
X112672463Y-61940148D01*
X112792085Y-62229656D01*
X112824999Y-62262628D01*
X112824999Y-62358948D01*
X112873335Y-62601952D01*
X113010986Y-62807961D01*
X115645000Y-65441975D01*
X115645000Y-68345002D01*
X115295262Y-68345002D01*
X115052258Y-68393338D01*
X114846249Y-68530989D01*
X114611164Y-68766074D01*
X114541024Y-68596323D01*
X114325853Y-68380775D01*
X114307241Y-68287208D01*
X114266109Y-68225650D01*
X114205379Y-68134761D01*
X114025511Y-67954894D01*
X114025511Y-64988520D01*
X113989742Y-64808697D01*
X113979420Y-64793249D01*
X113887881Y-64656251D01*
X109582462Y-60350833D01*
X109581363Y-60350099D01*
X109657263Y-60167311D01*
X109657507Y-59887031D01*
X110702269Y-58842270D01*
X110804131Y-58689823D01*
X110804168Y-58689636D01*
X110837612Y-58521502D01*
X110972294Y-58656420D01*
X111261592Y-58776547D01*
X111574839Y-58776820D01*
X111864347Y-58657198D01*
X112086039Y-58435893D01*
X112206166Y-58146595D01*
X112206431Y-57842030D01*
X112259433Y-57762708D01*
X112260053Y-57759593D01*
X112295202Y-57582885D01*
X112295202Y-55489336D01*
X114412135Y-53372404D01*
X114442269Y-53352269D01*
X114883456Y-52911082D01*
X114898917Y-52921413D01*
X115370000Y-53015117D01*
X115841083Y-52921413D01*
X116240448Y-52654565D01*
X116507296Y-52255200D01*
X116601000Y-51784117D01*
X116601000Y-51735883D01*
X116507296Y-51264800D01*
X116240448Y-50865435D01*
X115841083Y-50598587D01*
X115592650Y-50549171D01*
X117169780Y-48972041D01*
X117259824Y-48954130D01*
X117412270Y-48852268D01*
X117443456Y-48821082D01*
X117458917Y-48831413D01*
X117930000Y-48925117D01*
X118401083Y-48831413D01*
X118800448Y-48564565D01*
X119067296Y-48165200D01*
X119161000Y-47694117D01*
X119161000Y-47645883D01*
X119067296Y-47174800D01*
X118800448Y-46775435D01*
X118415488Y-46518212D01*
X118696924Y-46401645D01*
X119125183Y-46011358D01*
X119371486Y-45486892D01*
X119250819Y-45257000D01*
X118057000Y-45257000D01*
X118057000Y-45277000D01*
X117803000Y-45277000D01*
X117803000Y-45257000D01*
X117783000Y-45257000D01*
X117783000Y-45003000D01*
X117803000Y-45003000D01*
X117803000Y-43809845D01*
X118057000Y-43809845D01*
X118057000Y-45003000D01*
X119250819Y-45003000D01*
X119371486Y-44773108D01*
X119125183Y-44248642D01*
X118696924Y-43858355D01*
X118286890Y-43688524D01*
X118057000Y-43809845D01*
X117803000Y-43809845D01*
X117573110Y-43688524D01*
X117163076Y-43858355D01*
X116734817Y-44248642D01*
X116535083Y-44673947D01*
X116527296Y-44634800D01*
X116260448Y-44235435D01*
X115861083Y-43968587D01*
X115390000Y-43874883D01*
X114918917Y-43968587D01*
X114519552Y-44235435D01*
X114252704Y-44634800D01*
X114159000Y-45105883D01*
X114159000Y-45154117D01*
X114252704Y-45625200D01*
X114519552Y-46024565D01*
X114918917Y-46291413D01*
X115390000Y-46385117D01*
X115861083Y-46291413D01*
X116260448Y-46024565D01*
X116527296Y-45625200D01*
X116535083Y-45586053D01*
X116734817Y-46011358D01*
X117163076Y-46401645D01*
X117444512Y-46518212D01*
X117059552Y-46775435D01*
X116792704Y-47174800D01*
X116699000Y-47645883D01*
X116699000Y-47694117D01*
X116776987Y-48086184D01*
X116625014Y-48187729D01*
X116285156Y-48527587D01*
X116527296Y-48165200D01*
X116621000Y-47694117D01*
X116621000Y-47645883D01*
X116527296Y-47174800D01*
X116260448Y-46775435D01*
X115861083Y-46508587D01*
X115390000Y-46414883D01*
X114918917Y-46508587D01*
X114519552Y-46775435D01*
X114252704Y-47174800D01*
X114159000Y-47645883D01*
X114159000Y-47694117D01*
X114252704Y-48165200D01*
X114519552Y-48564565D01*
X114918917Y-48831413D01*
X115390000Y-48925117D01*
X115861083Y-48831413D01*
X116223470Y-48589273D01*
X113799327Y-51013417D01*
X113700448Y-50865435D01*
X113301083Y-50598587D01*
X112830000Y-50504883D01*
X112358917Y-50598587D01*
X112183199Y-50715998D01*
X112183199Y-49001339D01*
X112363456Y-48821082D01*
X112378917Y-48831413D01*
X112850000Y-48925117D01*
X113321083Y-48831413D01*
X113720448Y-48564565D01*
X113987296Y-48165200D01*
X114081000Y-47694117D01*
X114081000Y-47645883D01*
X113987296Y-47174800D01*
X113720448Y-46775435D01*
X113321083Y-46508587D01*
X112850000Y-46414883D01*
X112378917Y-46508587D01*
X111979552Y-46775435D01*
X111712704Y-47174800D01*
X111619000Y-47645883D01*
X111619000Y-47694117D01*
X111708981Y-48146481D01*
X111381030Y-48474432D01*
X111279168Y-48626878D01*
X111243399Y-48806701D01*
X111243399Y-50989580D01*
X111160448Y-50865435D01*
X110761083Y-50598587D01*
X110290000Y-50504883D01*
X109818917Y-50598587D01*
X109643199Y-50715998D01*
X109643199Y-50101099D01*
X109607430Y-49921276D01*
X109549824Y-49835063D01*
X109505568Y-49768829D01*
X108641211Y-48904473D01*
X108761190Y-48881897D01*
X108890865Y-48798454D01*
X108977859Y-48671134D01*
X109008464Y-48520000D01*
X109008464Y-47645883D01*
X109079000Y-47645883D01*
X109079000Y-47694117D01*
X109172704Y-48165200D01*
X109439552Y-48564565D01*
X109838917Y-48831413D01*
X110310000Y-48925117D01*
X110781083Y-48831413D01*
X111180448Y-48564565D01*
X111447296Y-48165200D01*
X111541000Y-47694117D01*
X111541000Y-47645883D01*
X111447296Y-47174800D01*
X111180448Y-46775435D01*
X110781083Y-46508587D01*
X110310000Y-46414883D01*
X109838917Y-46508587D01*
X109439552Y-46775435D01*
X109172704Y-47174800D01*
X109079000Y-47645883D01*
X109008464Y-47645883D01*
X109008464Y-46820000D01*
X108981897Y-46678810D01*
X108898454Y-46549135D01*
X108771134Y-46462141D01*
X108620000Y-46431536D01*
X108464756Y-46431536D01*
X108536924Y-46401645D01*
X108965183Y-46011358D01*
X109164917Y-45586053D01*
X109172704Y-45625200D01*
X109439552Y-46024565D01*
X109838917Y-46291413D01*
X110310000Y-46385117D01*
X110781083Y-46291413D01*
X111180448Y-46024565D01*
X111447296Y-45625200D01*
X111541000Y-45154117D01*
X111541000Y-45105883D01*
X111619000Y-45105883D01*
X111619000Y-45154117D01*
X111712704Y-45625200D01*
X111979552Y-46024565D01*
X112378917Y-46291413D01*
X112850000Y-46385117D01*
X113321083Y-46291413D01*
X113720448Y-46024565D01*
X113987296Y-45625200D01*
X114081000Y-45154117D01*
X114081000Y-45105883D01*
X113987296Y-44634800D01*
X113720448Y-44235435D01*
X113321083Y-43968587D01*
X112850000Y-43874883D01*
X112378917Y-43968587D01*
X111979552Y-44235435D01*
X111712704Y-44634800D01*
X111619000Y-45105883D01*
X111541000Y-45105883D01*
X111447296Y-44634800D01*
X111180448Y-44235435D01*
X110781083Y-43968587D01*
X110310000Y-43874883D01*
X109838917Y-43968587D01*
X109439552Y-44235435D01*
X109172704Y-44634800D01*
X109164917Y-44673947D01*
X108965183Y-44248642D01*
X108536924Y-43858355D01*
X108126890Y-43688524D01*
X107897000Y-43809845D01*
X107897000Y-45003000D01*
X107917000Y-45003000D01*
X107917000Y-45257000D01*
X107897000Y-45257000D01*
X107897000Y-45277000D01*
X107643000Y-45277000D01*
X107643000Y-45257000D01*
X106449181Y-45257000D01*
X106328514Y-45486892D01*
X106574817Y-46011358D01*
X107003076Y-46401645D01*
X107075244Y-46431536D01*
X106920000Y-46431536D01*
X106778810Y-46458103D01*
X106649135Y-46541546D01*
X106562141Y-46668866D01*
X106531536Y-46820000D01*
X106531536Y-48520000D01*
X106558103Y-48661190D01*
X106641546Y-48790865D01*
X106768866Y-48877859D01*
X106920000Y-48908464D01*
X107356476Y-48908464D01*
X107437731Y-49030069D01*
X108682661Y-50275000D01*
X108035750Y-50275000D01*
X107877000Y-50433750D01*
X107877000Y-51633000D01*
X107897000Y-51633000D01*
X107897000Y-51887000D01*
X107877000Y-51887000D01*
X107877000Y-53086250D01*
X108035750Y-53245000D01*
X108158059Y-53245000D01*
X107606509Y-53796550D01*
X107504647Y-53948996D01*
X107468878Y-54128819D01*
X107468878Y-55805224D01*
X107416609Y-55752864D01*
X107127311Y-55632737D01*
X106814064Y-55632464D01*
X106524556Y-55752086D01*
X106302864Y-55973391D01*
X106182737Y-56262689D01*
X106182696Y-56309278D01*
X104830987Y-57660987D01*
X104693336Y-57866996D01*
X104645000Y-58110000D01*
X104645000Y-63942834D01*
X104693336Y-64185838D01*
X104830987Y-64391847D01*
X105007835Y-64568695D01*
X105007795Y-64614101D01*
X105127417Y-64903609D01*
X105205057Y-64981385D01*
X105052272Y-65133903D01*
X104932145Y-65423201D01*
X104931872Y-65736448D01*
X105051494Y-66025956D01*
X105272799Y-66247648D01*
X105562097Y-66367775D01*
X105875344Y-66368048D01*
X105950000Y-66337201D01*
X105950000Y-66454250D01*
X106108750Y-66613000D01*
X107083000Y-66613000D01*
X107083000Y-66593000D01*
X107337000Y-66593000D01*
X107337000Y-66613000D01*
X107357000Y-66613000D01*
X107357000Y-66867000D01*
X107337000Y-66867000D01*
X107337000Y-66887000D01*
X107083000Y-66887000D01*
X107083000Y-66867000D01*
X106108750Y-66867000D01*
X106025979Y-66949771D01*
X106006193Y-66929950D01*
X105716895Y-66809823D01*
X105403648Y-66809550D01*
X105114140Y-66929172D01*
X104892448Y-67150477D01*
X104772321Y-67439775D01*
X104772048Y-67753022D01*
X104891670Y-68042530D01*
X105007626Y-68158689D01*
X104972864Y-68193391D01*
X104852737Y-68482689D01*
X104852464Y-68795936D01*
X104972086Y-69085444D01*
X105091292Y-69204858D01*
X105005278Y-69290722D01*
X104885151Y-69580020D01*
X104884878Y-69893267D01*
X105004500Y-70182775D01*
X105219671Y-70398323D01*
X105231638Y-70458481D01*
X105238283Y-70491890D01*
X105290100Y-70569439D01*
X105290100Y-78465000D01*
X105125750Y-78465000D01*
X104967000Y-78623750D01*
X104967000Y-79723000D01*
X104987000Y-79723000D01*
X104987000Y-79977000D01*
X104967000Y-79977000D01*
X104967000Y-79997000D01*
X104713000Y-79997000D01*
X104713000Y-79977000D01*
X104693000Y-79977000D01*
X104693000Y-79723000D01*
X104713000Y-79723000D01*
X104713000Y-78623750D01*
X104554250Y-78465000D01*
X104431000Y-78465000D01*
X104431000Y-52045750D01*
X106265000Y-52045750D01*
X106265000Y-52736309D01*
X106361673Y-52969698D01*
X106540301Y-53148327D01*
X106773690Y-53245000D01*
X107464250Y-53245000D01*
X107623000Y-53086250D01*
X107623000Y-51887000D01*
X106423750Y-51887000D01*
X106265000Y-52045750D01*
X104431000Y-52045750D01*
X104431000Y-50783691D01*
X106265000Y-50783691D01*
X106265000Y-51474250D01*
X106423750Y-51633000D01*
X107623000Y-51633000D01*
X107623000Y-50433750D01*
X107464250Y-50275000D01*
X106773690Y-50275000D01*
X106540301Y-50371673D01*
X106361673Y-50550302D01*
X106265000Y-50783691D01*
X104431000Y-50783691D01*
X104431000Y-44773108D01*
X106328514Y-44773108D01*
X106449181Y-45003000D01*
X107643000Y-45003000D01*
X107643000Y-43809845D01*
X107413110Y-43688524D01*
X107003076Y-43858355D01*
X106574817Y-44248642D01*
X106328514Y-44773108D01*
X104431000Y-44773108D01*
X104431000Y-43431000D01*
X120569000Y-43431000D01*
X120569000Y-50000000D01*
X120569000Y-50000000D01*
G37*
X120569000Y-50000000D02*
X120601808Y-50164937D01*
X120695237Y-50304763D01*
X120835063Y-50398192D01*
X121000000Y-50431000D01*
X139569000Y-50431000D01*
X139569000Y-52058558D01*
X139315086Y-51888898D01*
X138863137Y-51799000D01*
X138816863Y-51799000D01*
X138364914Y-51888898D01*
X137981770Y-52144907D01*
X137725761Y-52528051D01*
X137635863Y-52980000D01*
X137725761Y-53431949D01*
X137981770Y-53815093D01*
X138364914Y-54071102D01*
X138816863Y-54161000D01*
X138863137Y-54161000D01*
X139315086Y-54071102D01*
X139569000Y-53901442D01*
X139569000Y-54598558D01*
X139315086Y-54428898D01*
X138863137Y-54339000D01*
X138816863Y-54339000D01*
X138405386Y-54420848D01*
X138105568Y-54121030D01*
X137953122Y-54019168D01*
X137773299Y-53983399D01*
X132021139Y-53983399D01*
X132532270Y-53472269D01*
X132532272Y-53472266D01*
X132563456Y-53441082D01*
X132578917Y-53451413D01*
X133050000Y-53545117D01*
X133521083Y-53451413D01*
X133920448Y-53184565D01*
X134187296Y-52785200D01*
X134281000Y-52314117D01*
X134281000Y-52265883D01*
X134359000Y-52265883D01*
X134359000Y-52314117D01*
X134452704Y-52785200D01*
X134719552Y-53184565D01*
X135118917Y-53451413D01*
X135590000Y-53545117D01*
X136061083Y-53451413D01*
X136460448Y-53184565D01*
X136727296Y-52785200D01*
X136821000Y-52314117D01*
X136821000Y-52265883D01*
X136727296Y-51794800D01*
X136460448Y-51395435D01*
X136061083Y-51128587D01*
X135590000Y-51034883D01*
X135118917Y-51128587D01*
X134719552Y-51395435D01*
X134452704Y-51794800D01*
X134359000Y-52265883D01*
X134281000Y-52265883D01*
X134187296Y-51794800D01*
X133920448Y-51395435D01*
X133521083Y-51128587D01*
X133050000Y-51034883D01*
X132578917Y-51128587D01*
X132179552Y-51395435D01*
X131912704Y-51794800D01*
X131819000Y-52265883D01*
X131819000Y-52314117D01*
X131908981Y-52766481D01*
X131867734Y-52807728D01*
X131867731Y-52807730D01*
X131098661Y-53576801D01*
X129887737Y-53576801D01*
X130023456Y-53441082D01*
X130038917Y-53451413D01*
X130510000Y-53545117D01*
X130981083Y-53451413D01*
X131380448Y-53184565D01*
X131647296Y-52785200D01*
X131741000Y-52314117D01*
X131741000Y-52265883D01*
X131647296Y-51794800D01*
X131380448Y-51395435D01*
X130981083Y-51128587D01*
X130510000Y-51034883D01*
X130038917Y-51128587D01*
X129639552Y-51395435D01*
X129455000Y-51671636D01*
X129455000Y-51313691D01*
X129358327Y-51080302D01*
X129179699Y-50901673D01*
X128946310Y-50805000D01*
X128255750Y-50805000D01*
X128097000Y-50963750D01*
X128097000Y-52163000D01*
X128117000Y-52163000D01*
X128117000Y-52417000D01*
X128097000Y-52417000D01*
X128097000Y-52437000D01*
X127843000Y-52437000D01*
X127843000Y-52417000D01*
X126643750Y-52417000D01*
X126485000Y-52575750D01*
X126485000Y-52700462D01*
X125365568Y-51581030D01*
X125213122Y-51479168D01*
X125033299Y-51443399D01*
X120196701Y-51443399D01*
X120016878Y-51479168D01*
X119864431Y-51581030D01*
X119038661Y-52406801D01*
X118945999Y-52406801D01*
X119047296Y-52255200D01*
X119141000Y-51784117D01*
X119141000Y-51735883D01*
X119057022Y-51313691D01*
X126485000Y-51313691D01*
X126485000Y-52004250D01*
X126643750Y-52163000D01*
X127843000Y-52163000D01*
X127843000Y-50963750D01*
X127684250Y-50805000D01*
X126993690Y-50805000D01*
X126760301Y-50901673D01*
X126581673Y-51080302D01*
X126485000Y-51313691D01*
X119057022Y-51313691D01*
X119047296Y-51264800D01*
X118780448Y-50865435D01*
X118381083Y-50598587D01*
X117910000Y-50504883D01*
X117438917Y-50598587D01*
X117039552Y-50865435D01*
X116772704Y-51264800D01*
X116679000Y-51735883D01*
X116679000Y-51784117D01*
X116768981Y-52236481D01*
X115655362Y-53350100D01*
X115250000Y-53350100D01*
X115070177Y-53385869D01*
X114917730Y-53487731D01*
X112904588Y-55500874D01*
X112802726Y-55653320D01*
X112766957Y-55833143D01*
X112766957Y-57455711D01*
X112569721Y-57652603D01*
X112449594Y-57941901D01*
X112449321Y-58255148D01*
X112568943Y-58544656D01*
X112790248Y-58766348D01*
X113079546Y-58886475D01*
X113342075Y-58886704D01*
X113414188Y-59061232D01*
X113635493Y-59282924D01*
X113924791Y-59403051D01*
X114238038Y-59403324D01*
X114527546Y-59283702D01*
X114725906Y-59085688D01*
X116424212Y-59085688D01*
X116604035Y-59049919D01*
X116756481Y-58948057D01*
X118312154Y-57392384D01*
X118343120Y-57467327D01*
X118300177Y-57475869D01*
X118147731Y-57577730D01*
X114722755Y-61002707D01*
X114444064Y-61002464D01*
X114154556Y-61122086D01*
X114032870Y-61243559D01*
X113906608Y-61117076D01*
X113617310Y-60996949D01*
X113304063Y-60996676D01*
X113014555Y-61116298D01*
X112792863Y-61337603D01*
X112672736Y-61626901D01*
X112672463Y-61940148D01*
X112792085Y-62229656D01*
X112824999Y-62262628D01*
X112824999Y-62358948D01*
X112873335Y-62601952D01*
X113010986Y-62807961D01*
X115645000Y-65441975D01*
X115645000Y-68345002D01*
X115295262Y-68345002D01*
X115052258Y-68393338D01*
X114846249Y-68530989D01*
X114611164Y-68766074D01*
X114541024Y-68596323D01*
X114325853Y-68380775D01*
X114307241Y-68287208D01*
X114266109Y-68225650D01*
X114205379Y-68134761D01*
X114025511Y-67954894D01*
X114025511Y-64988520D01*
X113989742Y-64808697D01*
X113979420Y-64793249D01*
X113887881Y-64656251D01*
X109582462Y-60350833D01*
X109581363Y-60350099D01*
X109657263Y-60167311D01*
X109657507Y-59887031D01*
X110702269Y-58842270D01*
X110804131Y-58689823D01*
X110804168Y-58689636D01*
X110837612Y-58521502D01*
X110972294Y-58656420D01*
X111261592Y-58776547D01*
X111574839Y-58776820D01*
X111864347Y-58657198D01*
X112086039Y-58435893D01*
X112206166Y-58146595D01*
X112206431Y-57842030D01*
X112259433Y-57762708D01*
X112260053Y-57759593D01*
X112295202Y-57582885D01*
X112295202Y-55489336D01*
X114412135Y-53372404D01*
X114442269Y-53352269D01*
X114883456Y-52911082D01*
X114898917Y-52921413D01*
X115370000Y-53015117D01*
X115841083Y-52921413D01*
X116240448Y-52654565D01*
X116507296Y-52255200D01*
X116601000Y-51784117D01*
X116601000Y-51735883D01*
X116507296Y-51264800D01*
X116240448Y-50865435D01*
X115841083Y-50598587D01*
X115592650Y-50549171D01*
X117169780Y-48972041D01*
X117259824Y-48954130D01*
X117412270Y-48852268D01*
X117443456Y-48821082D01*
X117458917Y-48831413D01*
X117930000Y-48925117D01*
X118401083Y-48831413D01*
X118800448Y-48564565D01*
X119067296Y-48165200D01*
X119161000Y-47694117D01*
X119161000Y-47645883D01*
X119067296Y-47174800D01*
X118800448Y-46775435D01*
X118415488Y-46518212D01*
X118696924Y-46401645D01*
X119125183Y-46011358D01*
X119371486Y-45486892D01*
X119250819Y-45257000D01*
X118057000Y-45257000D01*
X118057000Y-45277000D01*
X117803000Y-45277000D01*
X117803000Y-45257000D01*
X117783000Y-45257000D01*
X117783000Y-45003000D01*
X117803000Y-45003000D01*
X117803000Y-43809845D01*
X118057000Y-43809845D01*
X118057000Y-45003000D01*
X119250819Y-45003000D01*
X119371486Y-44773108D01*
X119125183Y-44248642D01*
X118696924Y-43858355D01*
X118286890Y-43688524D01*
X118057000Y-43809845D01*
X117803000Y-43809845D01*
X117573110Y-43688524D01*
X117163076Y-43858355D01*
X116734817Y-44248642D01*
X116535083Y-44673947D01*
X116527296Y-44634800D01*
X116260448Y-44235435D01*
X115861083Y-43968587D01*
X115390000Y-43874883D01*
X114918917Y-43968587D01*
X114519552Y-44235435D01*
X114252704Y-44634800D01*
X114159000Y-45105883D01*
X114159000Y-45154117D01*
X114252704Y-45625200D01*
X114519552Y-46024565D01*
X114918917Y-46291413D01*
X115390000Y-46385117D01*
X115861083Y-46291413D01*
X116260448Y-46024565D01*
X116527296Y-45625200D01*
X116535083Y-45586053D01*
X116734817Y-46011358D01*
X117163076Y-46401645D01*
X117444512Y-46518212D01*
X117059552Y-46775435D01*
X116792704Y-47174800D01*
X116699000Y-47645883D01*
X116699000Y-47694117D01*
X116776987Y-48086184D01*
X116625014Y-48187729D01*
X116285156Y-48527587D01*
X116527296Y-48165200D01*
X116621000Y-47694117D01*
X116621000Y-47645883D01*
X116527296Y-47174800D01*
X116260448Y-46775435D01*
X115861083Y-46508587D01*
X115390000Y-46414883D01*
X114918917Y-46508587D01*
X114519552Y-46775435D01*
X114252704Y-47174800D01*
X114159000Y-47645883D01*
X114159000Y-47694117D01*
X114252704Y-48165200D01*
X114519552Y-48564565D01*
X114918917Y-48831413D01*
X115390000Y-48925117D01*
X115861083Y-48831413D01*
X116223470Y-48589273D01*
X113799327Y-51013417D01*
X113700448Y-50865435D01*
X113301083Y-50598587D01*
X112830000Y-50504883D01*
X112358917Y-50598587D01*
X112183199Y-50715998D01*
X112183199Y-49001339D01*
X112363456Y-48821082D01*
X112378917Y-48831413D01*
X112850000Y-48925117D01*
X113321083Y-48831413D01*
X113720448Y-48564565D01*
X113987296Y-48165200D01*
X114081000Y-47694117D01*
X114081000Y-47645883D01*
X113987296Y-47174800D01*
X113720448Y-46775435D01*
X113321083Y-46508587D01*
X112850000Y-46414883D01*
X112378917Y-46508587D01*
X111979552Y-46775435D01*
X111712704Y-47174800D01*
X111619000Y-47645883D01*
X111619000Y-47694117D01*
X111708981Y-48146481D01*
X111381030Y-48474432D01*
X111279168Y-48626878D01*
X111243399Y-48806701D01*
X111243399Y-50989580D01*
X111160448Y-50865435D01*
X110761083Y-50598587D01*
X110290000Y-50504883D01*
X109818917Y-50598587D01*
X109643199Y-50715998D01*
X109643199Y-50101099D01*
X109607430Y-49921276D01*
X109549824Y-49835063D01*
X109505568Y-49768829D01*
X108641211Y-48904473D01*
X108761190Y-48881897D01*
X108890865Y-48798454D01*
X108977859Y-48671134D01*
X109008464Y-48520000D01*
X109008464Y-47645883D01*
X109079000Y-47645883D01*
X109079000Y-47694117D01*
X109172704Y-48165200D01*
X109439552Y-48564565D01*
X109838917Y-48831413D01*
X110310000Y-48925117D01*
X110781083Y-48831413D01*
X111180448Y-48564565D01*
X111447296Y-48165200D01*
X111541000Y-47694117D01*
X111541000Y-47645883D01*
X111447296Y-47174800D01*
X111180448Y-46775435D01*
X110781083Y-46508587D01*
X110310000Y-46414883D01*
X109838917Y-46508587D01*
X109439552Y-46775435D01*
X109172704Y-47174800D01*
X109079000Y-47645883D01*
X109008464Y-47645883D01*
X109008464Y-46820000D01*
X108981897Y-46678810D01*
X108898454Y-46549135D01*
X108771134Y-46462141D01*
X108620000Y-46431536D01*
X108464756Y-46431536D01*
X108536924Y-46401645D01*
X108965183Y-46011358D01*
X109164917Y-45586053D01*
X109172704Y-45625200D01*
X109439552Y-46024565D01*
X109838917Y-46291413D01*
X110310000Y-46385117D01*
X110781083Y-46291413D01*
X111180448Y-46024565D01*
X111447296Y-45625200D01*
X111541000Y-45154117D01*
X111541000Y-45105883D01*
X111619000Y-45105883D01*
X111619000Y-45154117D01*
X111712704Y-45625200D01*
X111979552Y-46024565D01*
X112378917Y-46291413D01*
X112850000Y-46385117D01*
X113321083Y-46291413D01*
X113720448Y-46024565D01*
X113987296Y-45625200D01*
X114081000Y-45154117D01*
X114081000Y-45105883D01*
X113987296Y-44634800D01*
X113720448Y-44235435D01*
X113321083Y-43968587D01*
X112850000Y-43874883D01*
X112378917Y-43968587D01*
X111979552Y-44235435D01*
X111712704Y-44634800D01*
X111619000Y-45105883D01*
X111541000Y-45105883D01*
X111447296Y-44634800D01*
X111180448Y-44235435D01*
X110781083Y-43968587D01*
X110310000Y-43874883D01*
X109838917Y-43968587D01*
X109439552Y-44235435D01*
X109172704Y-44634800D01*
X109164917Y-44673947D01*
X108965183Y-44248642D01*
X108536924Y-43858355D01*
X108126890Y-43688524D01*
X107897000Y-43809845D01*
X107897000Y-45003000D01*
X107917000Y-45003000D01*
X107917000Y-45257000D01*
X107897000Y-45257000D01*
X107897000Y-45277000D01*
X107643000Y-45277000D01*
X107643000Y-45257000D01*
X106449181Y-45257000D01*
X106328514Y-45486892D01*
X106574817Y-46011358D01*
X107003076Y-46401645D01*
X107075244Y-46431536D01*
X106920000Y-46431536D01*
X106778810Y-46458103D01*
X106649135Y-46541546D01*
X106562141Y-46668866D01*
X106531536Y-46820000D01*
X106531536Y-48520000D01*
X106558103Y-48661190D01*
X106641546Y-48790865D01*
X106768866Y-48877859D01*
X106920000Y-48908464D01*
X107356476Y-48908464D01*
X107437731Y-49030069D01*
X108682661Y-50275000D01*
X108035750Y-50275000D01*
X107877000Y-50433750D01*
X107877000Y-51633000D01*
X107897000Y-51633000D01*
X107897000Y-51887000D01*
X107877000Y-51887000D01*
X107877000Y-53086250D01*
X108035750Y-53245000D01*
X108158059Y-53245000D01*
X107606509Y-53796550D01*
X107504647Y-53948996D01*
X107468878Y-54128819D01*
X107468878Y-55805224D01*
X107416609Y-55752864D01*
X107127311Y-55632737D01*
X106814064Y-55632464D01*
X106524556Y-55752086D01*
X106302864Y-55973391D01*
X106182737Y-56262689D01*
X106182696Y-56309278D01*
X104830987Y-57660987D01*
X104693336Y-57866996D01*
X104645000Y-58110000D01*
X104645000Y-63942834D01*
X104693336Y-64185838D01*
X104830987Y-64391847D01*
X105007835Y-64568695D01*
X105007795Y-64614101D01*
X105127417Y-64903609D01*
X105205057Y-64981385D01*
X105052272Y-65133903D01*
X104932145Y-65423201D01*
X104931872Y-65736448D01*
X105051494Y-66025956D01*
X105272799Y-66247648D01*
X105562097Y-66367775D01*
X105875344Y-66368048D01*
X105950000Y-66337201D01*
X105950000Y-66454250D01*
X106108750Y-66613000D01*
X107083000Y-66613000D01*
X107083000Y-66593000D01*
X107337000Y-66593000D01*
X107337000Y-66613000D01*
X107357000Y-66613000D01*
X107357000Y-66867000D01*
X107337000Y-66867000D01*
X107337000Y-66887000D01*
X107083000Y-66887000D01*
X107083000Y-66867000D01*
X106108750Y-66867000D01*
X106025979Y-66949771D01*
X106006193Y-66929950D01*
X105716895Y-66809823D01*
X105403648Y-66809550D01*
X105114140Y-66929172D01*
X104892448Y-67150477D01*
X104772321Y-67439775D01*
X104772048Y-67753022D01*
X104891670Y-68042530D01*
X105007626Y-68158689D01*
X104972864Y-68193391D01*
X104852737Y-68482689D01*
X104852464Y-68795936D01*
X104972086Y-69085444D01*
X105091292Y-69204858D01*
X105005278Y-69290722D01*
X104885151Y-69580020D01*
X104884878Y-69893267D01*
X105004500Y-70182775D01*
X105219671Y-70398323D01*
X105231638Y-70458481D01*
X105238283Y-70491890D01*
X105290100Y-70569439D01*
X105290100Y-78465000D01*
X105125750Y-78465000D01*
X104967000Y-78623750D01*
X104967000Y-79723000D01*
X104987000Y-79723000D01*
X104987000Y-79977000D01*
X104967000Y-79977000D01*
X104967000Y-79997000D01*
X104713000Y-79997000D01*
X104713000Y-79977000D01*
X104693000Y-79977000D01*
X104693000Y-79723000D01*
X104713000Y-79723000D01*
X104713000Y-78623750D01*
X104554250Y-78465000D01*
X104431000Y-78465000D01*
X104431000Y-52045750D01*
X106265000Y-52045750D01*
X106265000Y-52736309D01*
X106361673Y-52969698D01*
X106540301Y-53148327D01*
X106773690Y-53245000D01*
X107464250Y-53245000D01*
X107623000Y-53086250D01*
X107623000Y-51887000D01*
X106423750Y-51887000D01*
X106265000Y-52045750D01*
X104431000Y-52045750D01*
X104431000Y-50783691D01*
X106265000Y-50783691D01*
X106265000Y-51474250D01*
X106423750Y-51633000D01*
X107623000Y-51633000D01*
X107623000Y-50433750D01*
X107464250Y-50275000D01*
X106773690Y-50275000D01*
X106540301Y-50371673D01*
X106361673Y-50550302D01*
X106265000Y-50783691D01*
X104431000Y-50783691D01*
X104431000Y-44773108D01*
X106328514Y-44773108D01*
X106449181Y-45003000D01*
X107643000Y-45003000D01*
X107643000Y-43809845D01*
X107413110Y-43688524D01*
X107003076Y-43858355D01*
X106574817Y-44248642D01*
X106328514Y-44773108D01*
X104431000Y-44773108D01*
X104431000Y-43431000D01*
X120569000Y-43431000D01*
X120569000Y-50000000D01*
G36*
X122741770Y-57224907D02*
X122485761Y-57608051D01*
X122395863Y-58060000D01*
X122485761Y-58511949D01*
X122582548Y-58656801D01*
X120233297Y-58656801D01*
X120067284Y-58689823D01*
X120053474Y-58692570D01*
X119901028Y-58794431D01*
X119452755Y-59242705D01*
X119174064Y-59242462D01*
X118884556Y-59362084D01*
X118662864Y-59583389D01*
X118542737Y-59872687D01*
X118542464Y-60185934D01*
X118662086Y-60475442D01*
X118883391Y-60697134D01*
X119172689Y-60817261D01*
X119485936Y-60817534D01*
X119775444Y-60697912D01*
X119997136Y-60476607D01*
X120117263Y-60187309D01*
X120117507Y-59907029D01*
X120427936Y-59596601D01*
X122993657Y-59596601D01*
X122741770Y-59764907D01*
X122485761Y-60148051D01*
X122395863Y-60600000D01*
X122485761Y-61051949D01*
X122741770Y-61435093D01*
X123124914Y-61691102D01*
X123576863Y-61781000D01*
X123623137Y-61781000D01*
X124075086Y-61691102D01*
X124458230Y-61435093D01*
X124714239Y-61051949D01*
X124804137Y-60600000D01*
X124714239Y-60148051D01*
X124458230Y-59764907D01*
X124201813Y-59593575D01*
X124366421Y-59560832D01*
X124518867Y-59458970D01*
X125627938Y-58349900D01*
X135925362Y-58349900D01*
X137725388Y-60149927D01*
X137635863Y-60600000D01*
X137725761Y-61051949D01*
X137981770Y-61435093D01*
X138364914Y-61691102D01*
X138816863Y-61781000D01*
X138863137Y-61781000D01*
X139315086Y-61691102D01*
X139569000Y-61521442D01*
X139569000Y-62218558D01*
X139315086Y-62048898D01*
X138863137Y-61959000D01*
X138816863Y-61959000D01*
X138405386Y-62040848D01*
X135442269Y-59077731D01*
X135289823Y-58975869D01*
X135110000Y-58940100D01*
X126783501Y-58940100D01*
X126586609Y-58742864D01*
X126297311Y-58622737D01*
X125984064Y-58622464D01*
X125694556Y-58742086D01*
X125472864Y-58963391D01*
X125352737Y-59252689D01*
X125352464Y-59565936D01*
X125472086Y-59855444D01*
X125693391Y-60077136D01*
X125982689Y-60197263D01*
X126295936Y-60197536D01*
X126585444Y-60077914D01*
X126783804Y-59879900D01*
X134915362Y-59879900D01*
X137725388Y-62689927D01*
X137635863Y-63140000D01*
X137725761Y-63591949D01*
X137981770Y-63975093D01*
X138364914Y-64231102D01*
X138816863Y-64321000D01*
X138863137Y-64321000D01*
X139315086Y-64231102D01*
X139569000Y-64061442D01*
X139569000Y-64758558D01*
X139315086Y-64588898D01*
X138863137Y-64499000D01*
X138816863Y-64499000D01*
X138405386Y-64580848D01*
X135372269Y-61547731D01*
X135219823Y-61445869D01*
X135040000Y-61410100D01*
X126163501Y-61410100D01*
X125966609Y-61212864D01*
X125677311Y-61092737D01*
X125364064Y-61092464D01*
X125074556Y-61212086D01*
X124852864Y-61433391D01*
X124732737Y-61722689D01*
X124732464Y-62035936D01*
X124852086Y-62325444D01*
X125073391Y-62547136D01*
X125362689Y-62667263D01*
X125675936Y-62667536D01*
X125965444Y-62547914D01*
X126163804Y-62349900D01*
X134845362Y-62349900D01*
X137725388Y-65229927D01*
X137635863Y-65680000D01*
X137725761Y-66131949D01*
X137981770Y-66515093D01*
X138364914Y-66771102D01*
X138816863Y-66861000D01*
X138863137Y-66861000D01*
X139315086Y-66771102D01*
X139569000Y-66601442D01*
X139569000Y-67298558D01*
X139315086Y-67128898D01*
X138863137Y-67039000D01*
X138816863Y-67039000D01*
X138364914Y-67128898D01*
X137981770Y-67384907D01*
X137737755Y-67750100D01*
X129029903Y-67750100D01*
X127831447Y-66551645D01*
X127863690Y-66565000D01*
X128554250Y-66565000D01*
X128713000Y-66406250D01*
X128713000Y-65207000D01*
X127513750Y-65207000D01*
X127355000Y-65365750D01*
X127355000Y-66056309D01*
X127368356Y-66088554D01*
X126151716Y-64871914D01*
X126217136Y-64806609D01*
X126337263Y-64517311D01*
X126337536Y-64204064D01*
X126296063Y-64103691D01*
X127355000Y-64103691D01*
X127355000Y-64794250D01*
X127513750Y-64953000D01*
X128713000Y-64953000D01*
X128713000Y-63753750D01*
X128967000Y-63753750D01*
X128967000Y-64953000D01*
X128987000Y-64953000D01*
X128987000Y-65207000D01*
X128967000Y-65207000D01*
X128967000Y-66406250D01*
X129125750Y-66565000D01*
X129816310Y-66565000D01*
X130049699Y-66468327D01*
X130228327Y-66289698D01*
X130325000Y-66056309D01*
X130325000Y-65698364D01*
X130509552Y-65974565D01*
X130908917Y-66241413D01*
X131380000Y-66335117D01*
X131851083Y-66241413D01*
X132250448Y-65974565D01*
X132517296Y-65575200D01*
X132611000Y-65104117D01*
X132611000Y-65055883D01*
X132689000Y-65055883D01*
X132689000Y-65104117D01*
X132782704Y-65575200D01*
X133049552Y-65974565D01*
X133448917Y-66241413D01*
X133920000Y-66335117D01*
X134391083Y-66241413D01*
X134790448Y-65974565D01*
X135057296Y-65575200D01*
X135151000Y-65104117D01*
X135151000Y-65055883D01*
X135057296Y-64584800D01*
X134790448Y-64185435D01*
X134391083Y-63918587D01*
X133920000Y-63824883D01*
X133448917Y-63918587D01*
X133049552Y-64185435D01*
X132782704Y-64584800D01*
X132689000Y-65055883D01*
X132611000Y-65055883D01*
X132517296Y-64584800D01*
X132250448Y-64185435D01*
X131851083Y-63918587D01*
X131380000Y-63824883D01*
X130908917Y-63918587D01*
X130509552Y-64185435D01*
X130325000Y-64461636D01*
X130325000Y-64103691D01*
X130228327Y-63870302D01*
X130049699Y-63691673D01*
X129816310Y-63595000D01*
X129125750Y-63595000D01*
X128967000Y-63753750D01*
X128713000Y-63753750D01*
X128554250Y-63595000D01*
X127863690Y-63595000D01*
X127630301Y-63691673D01*
X127451673Y-63870302D01*
X127355000Y-64103691D01*
X126296063Y-64103691D01*
X126217914Y-63914556D01*
X125996609Y-63692864D01*
X125707311Y-63572737D01*
X125394064Y-63572464D01*
X125104556Y-63692086D01*
X124882864Y-63913391D01*
X124762737Y-64202689D01*
X124762464Y-64515936D01*
X124882086Y-64805444D01*
X125097257Y-65020992D01*
X125113194Y-65101110D01*
X125115869Y-65114559D01*
X125217731Y-65267005D01*
X128502995Y-68552270D01*
X128644550Y-68646854D01*
X128655441Y-68654131D01*
X128835264Y-68689900D01*
X137737755Y-68689900D01*
X137981770Y-69055093D01*
X138364914Y-69311102D01*
X138816863Y-69401000D01*
X138863137Y-69401000D01*
X139315086Y-69311102D01*
X139569000Y-69141442D01*
X139569000Y-69838558D01*
X139315086Y-69668898D01*
X138863137Y-69579000D01*
X138816863Y-69579000D01*
X138364914Y-69668898D01*
X137981770Y-69924907D01*
X137737755Y-70290100D01*
X129664639Y-70290100D01*
X126367293Y-66992755D01*
X126367536Y-66714064D01*
X126247914Y-66424556D01*
X126026609Y-66202864D01*
X125737311Y-66082737D01*
X125424064Y-66082464D01*
X125134556Y-66202086D01*
X124912864Y-66423391D01*
X124792737Y-66712689D01*
X124792464Y-67025936D01*
X124912086Y-67315444D01*
X125133391Y-67537136D01*
X125422689Y-67657263D01*
X125702969Y-67657507D01*
X129137731Y-71092270D01*
X129264742Y-71177136D01*
X129290177Y-71194131D01*
X129470000Y-71229900D01*
X137737755Y-71229900D01*
X137981770Y-71595093D01*
X138364914Y-71851102D01*
X138816863Y-71941000D01*
X138863137Y-71941000D01*
X139315086Y-71851102D01*
X139569000Y-71681442D01*
X139569000Y-72378558D01*
X139315086Y-72208898D01*
X138863137Y-72119000D01*
X138816863Y-72119000D01*
X138364914Y-72208898D01*
X137981770Y-72464907D01*
X137725761Y-72848051D01*
X137635863Y-73300000D01*
X137725761Y-73751949D01*
X137981770Y-74135093D01*
X138364914Y-74391102D01*
X138816863Y-74481000D01*
X138863137Y-74481000D01*
X139315086Y-74391102D01*
X139569000Y-74221442D01*
X139569000Y-74918558D01*
X139315086Y-74748898D01*
X138863137Y-74659000D01*
X138816863Y-74659000D01*
X138405386Y-74740848D01*
X138105568Y-74441030D01*
X137953122Y-74339168D01*
X137773299Y-74303399D01*
X124206343Y-74303399D01*
X124458230Y-74135093D01*
X124714239Y-73751949D01*
X124804137Y-73300000D01*
X124714239Y-72848051D01*
X124458230Y-72464907D01*
X124075086Y-72208898D01*
X123623137Y-72119000D01*
X123576863Y-72119000D01*
X123124914Y-72208898D01*
X122741770Y-72464907D01*
X122485761Y-72848051D01*
X122395863Y-73300000D01*
X122485761Y-73751949D01*
X122741770Y-74135093D01*
X122993657Y-74303399D01*
X122196701Y-74303399D01*
X122016878Y-74339168D01*
X121864431Y-74441030D01*
X120932755Y-75372707D01*
X120687031Y-75372493D01*
X120582283Y-75267745D01*
X120582283Y-71934443D01*
X120779519Y-71737551D01*
X120844516Y-71581021D01*
X121125111Y-71581266D01*
X121414619Y-71461644D01*
X121636311Y-71240339D01*
X121756438Y-70951041D01*
X121756479Y-70904452D01*
X122555929Y-70105002D01*
X122621434Y-70105002D01*
X122485761Y-70308051D01*
X122395863Y-70760000D01*
X122485761Y-71211949D01*
X122741770Y-71595093D01*
X123124914Y-71851102D01*
X123576863Y-71941000D01*
X123623137Y-71941000D01*
X124075086Y-71851102D01*
X124458230Y-71595093D01*
X124714239Y-71211949D01*
X124804137Y-70760000D01*
X124714239Y-70308051D01*
X124578566Y-70105002D01*
X125041311Y-70105002D01*
X125073391Y-70137138D01*
X125362689Y-70257265D01*
X125675936Y-70257538D01*
X125965444Y-70137916D01*
X126187136Y-69916611D01*
X126307263Y-69627313D01*
X126307536Y-69314066D01*
X126187914Y-69024558D01*
X125966609Y-68802866D01*
X125677311Y-68682739D01*
X125364064Y-68682466D01*
X125074556Y-68802088D01*
X125041584Y-68835002D01*
X124605290Y-68835002D01*
X124714239Y-68671949D01*
X124804137Y-68220000D01*
X124714239Y-67768051D01*
X124458230Y-67384907D01*
X124075086Y-67128898D01*
X123623137Y-67039000D01*
X123576863Y-67039000D01*
X123124914Y-67128898D01*
X122741770Y-67384907D01*
X122485761Y-67768051D01*
X122395863Y-68220000D01*
X122485761Y-68671949D01*
X122594710Y-68835002D01*
X122292903Y-68835002D01*
X122049899Y-68883338D01*
X121843890Y-69020989D01*
X120858645Y-70006234D01*
X120846207Y-70006223D01*
X119769900Y-68929917D01*
X119769900Y-68568464D01*
X119925000Y-68568464D01*
X120066190Y-68541897D01*
X120195865Y-68458454D01*
X120282859Y-68331134D01*
X120313464Y-68180000D01*
X120313464Y-66680000D01*
X120286897Y-66538810D01*
X120203454Y-66409135D01*
X120076134Y-66322141D01*
X120040870Y-66315000D01*
X120051310Y-66315000D01*
X120284699Y-66218327D01*
X120463327Y-66039698D01*
X120560000Y-65806309D01*
X120560000Y-65680000D01*
X122395863Y-65680000D01*
X122485761Y-66131949D01*
X122741770Y-66515093D01*
X123124914Y-66771102D01*
X123576863Y-66861000D01*
X123623137Y-66861000D01*
X124075086Y-66771102D01*
X124458230Y-66515093D01*
X124714239Y-66131949D01*
X124804137Y-65680000D01*
X124714239Y-65228051D01*
X124458230Y-64844907D01*
X124075086Y-64588898D01*
X123623137Y-64499000D01*
X123576863Y-64499000D01*
X123124914Y-64588898D01*
X122741770Y-64844907D01*
X122485761Y-65228051D01*
X122395863Y-65680000D01*
X120560000Y-65680000D01*
X120560000Y-65215750D01*
X120401250Y-65057000D01*
X119427000Y-65057000D01*
X119427000Y-65077000D01*
X119173000Y-65077000D01*
X119173000Y-65057000D01*
X118198750Y-65057000D01*
X118040000Y-65215750D01*
X118040000Y-65806309D01*
X118136673Y-66039698D01*
X118315301Y-66218327D01*
X118548690Y-66315000D01*
X118550301Y-66315000D01*
X118533810Y-66318103D01*
X118404135Y-66401546D01*
X118317141Y-66528866D01*
X118286536Y-66680000D01*
X118286536Y-68180000D01*
X118313103Y-68321190D01*
X118396546Y-68450865D01*
X118523866Y-68537859D01*
X118675000Y-68568464D01*
X118830100Y-68568464D01*
X118830100Y-69124555D01*
X118854692Y-69248185D01*
X118865869Y-69304378D01*
X118967731Y-69456824D01*
X119406544Y-69895637D01*
X119327311Y-69862737D01*
X119014064Y-69862464D01*
X118724556Y-69982086D01*
X118502864Y-70203391D01*
X118382737Y-70492689D01*
X118382464Y-70805936D01*
X118502086Y-71095444D01*
X118700100Y-71293804D01*
X118700100Y-72310000D01*
X118717967Y-72399823D01*
X118735869Y-72489823D01*
X118837731Y-72642269D01*
X119161008Y-72965547D01*
X119161008Y-73056469D01*
X118447293Y-72342755D01*
X118447536Y-72064064D01*
X118327914Y-71774556D01*
X118106609Y-71552864D01*
X117817311Y-71432737D01*
X117504064Y-71432464D01*
X117214556Y-71552086D01*
X117169900Y-71596664D01*
X117169900Y-71465465D01*
X117134131Y-71285642D01*
X117032269Y-71133196D01*
X116641594Y-70742521D01*
X116641837Y-70463830D01*
X116522215Y-70174322D01*
X116300910Y-69952630D01*
X116011612Y-69832503D01*
X115698365Y-69832230D01*
X115408857Y-69951852D01*
X115357541Y-70003079D01*
X115310303Y-69955758D01*
X115244751Y-69928539D01*
X115558288Y-69615002D01*
X115801311Y-69615002D01*
X115833391Y-69647138D01*
X116122689Y-69767265D01*
X116435936Y-69767538D01*
X116725444Y-69647916D01*
X116947136Y-69426611D01*
X117067263Y-69137313D01*
X117067536Y-68824066D01*
X116947914Y-68534558D01*
X116915000Y-68501586D01*
X116915000Y-65178954D01*
X116915001Y-65178949D01*
X116866664Y-64935945D01*
X116729013Y-64729936D01*
X116052768Y-64053691D01*
X118040000Y-64053691D01*
X118040000Y-64644250D01*
X118198750Y-64803000D01*
X119173000Y-64803000D01*
X119173000Y-63703750D01*
X119427000Y-63703750D01*
X119427000Y-64803000D01*
X120401250Y-64803000D01*
X120560000Y-64644250D01*
X120560000Y-64053691D01*
X120463327Y-63820302D01*
X120284699Y-63641673D01*
X120051310Y-63545000D01*
X119585750Y-63545000D01*
X119427000Y-63703750D01*
X119173000Y-63703750D01*
X119014250Y-63545000D01*
X118548690Y-63545000D01*
X118315301Y-63641673D01*
X118136673Y-63820302D01*
X118040000Y-64053691D01*
X116052768Y-64053691D01*
X115139077Y-63140000D01*
X122395863Y-63140000D01*
X122485761Y-63591949D01*
X122741770Y-63975093D01*
X123124914Y-64231102D01*
X123576863Y-64321000D01*
X123623137Y-64321000D01*
X124075086Y-64231102D01*
X124458230Y-63975093D01*
X124714239Y-63591949D01*
X124804137Y-63140000D01*
X124714239Y-62688051D01*
X124458230Y-62304907D01*
X124075086Y-62048898D01*
X123623137Y-61959000D01*
X123576863Y-61959000D01*
X123124914Y-62048898D01*
X122741770Y-62304907D01*
X122485761Y-62688051D01*
X122395863Y-63140000D01*
X115139077Y-63140000D01*
X114576457Y-62577380D01*
X114755936Y-62577536D01*
X115045444Y-62457914D01*
X115267136Y-62236609D01*
X115387263Y-61947311D01*
X115387507Y-61667031D01*
X118674639Y-58379900D01*
X120760000Y-58379900D01*
X120939823Y-58344131D01*
X121092269Y-58242269D01*
X122277938Y-57056601D01*
X122993657Y-57056601D01*
X122741770Y-57224907D01*
X122741770Y-57224907D01*
G37*
X122741770Y-57224907D02*
X122485761Y-57608051D01*
X122395863Y-58060000D01*
X122485761Y-58511949D01*
X122582548Y-58656801D01*
X120233297Y-58656801D01*
X120067284Y-58689823D01*
X120053474Y-58692570D01*
X119901028Y-58794431D01*
X119452755Y-59242705D01*
X119174064Y-59242462D01*
X118884556Y-59362084D01*
X118662864Y-59583389D01*
X118542737Y-59872687D01*
X118542464Y-60185934D01*
X118662086Y-60475442D01*
X118883391Y-60697134D01*
X119172689Y-60817261D01*
X119485936Y-60817534D01*
X119775444Y-60697912D01*
X119997136Y-60476607D01*
X120117263Y-60187309D01*
X120117507Y-59907029D01*
X120427936Y-59596601D01*
X122993657Y-59596601D01*
X122741770Y-59764907D01*
X122485761Y-60148051D01*
X122395863Y-60600000D01*
X122485761Y-61051949D01*
X122741770Y-61435093D01*
X123124914Y-61691102D01*
X123576863Y-61781000D01*
X123623137Y-61781000D01*
X124075086Y-61691102D01*
X124458230Y-61435093D01*
X124714239Y-61051949D01*
X124804137Y-60600000D01*
X124714239Y-60148051D01*
X124458230Y-59764907D01*
X124201813Y-59593575D01*
X124366421Y-59560832D01*
X124518867Y-59458970D01*
X125627938Y-58349900D01*
X135925362Y-58349900D01*
X137725388Y-60149927D01*
X137635863Y-60600000D01*
X137725761Y-61051949D01*
X137981770Y-61435093D01*
X138364914Y-61691102D01*
X138816863Y-61781000D01*
X138863137Y-61781000D01*
X139315086Y-61691102D01*
X139569000Y-61521442D01*
X139569000Y-62218558D01*
X139315086Y-62048898D01*
X138863137Y-61959000D01*
X138816863Y-61959000D01*
X138405386Y-62040848D01*
X135442269Y-59077731D01*
X135289823Y-58975869D01*
X135110000Y-58940100D01*
X126783501Y-58940100D01*
X126586609Y-58742864D01*
X126297311Y-58622737D01*
X125984064Y-58622464D01*
X125694556Y-58742086D01*
X125472864Y-58963391D01*
X125352737Y-59252689D01*
X125352464Y-59565936D01*
X125472086Y-59855444D01*
X125693391Y-60077136D01*
X125982689Y-60197263D01*
X126295936Y-60197536D01*
X126585444Y-60077914D01*
X126783804Y-59879900D01*
X134915362Y-59879900D01*
X137725388Y-62689927D01*
X137635863Y-63140000D01*
X137725761Y-63591949D01*
X137981770Y-63975093D01*
X138364914Y-64231102D01*
X138816863Y-64321000D01*
X138863137Y-64321000D01*
X139315086Y-64231102D01*
X139569000Y-64061442D01*
X139569000Y-64758558D01*
X139315086Y-64588898D01*
X138863137Y-64499000D01*
X138816863Y-64499000D01*
X138405386Y-64580848D01*
X135372269Y-61547731D01*
X135219823Y-61445869D01*
X135040000Y-61410100D01*
X126163501Y-61410100D01*
X125966609Y-61212864D01*
X125677311Y-61092737D01*
X125364064Y-61092464D01*
X125074556Y-61212086D01*
X124852864Y-61433391D01*
X124732737Y-61722689D01*
X124732464Y-62035936D01*
X124852086Y-62325444D01*
X125073391Y-62547136D01*
X125362689Y-62667263D01*
X125675936Y-62667536D01*
X125965444Y-62547914D01*
X126163804Y-62349900D01*
X134845362Y-62349900D01*
X137725388Y-65229927D01*
X137635863Y-65680000D01*
X137725761Y-66131949D01*
X137981770Y-66515093D01*
X138364914Y-66771102D01*
X138816863Y-66861000D01*
X138863137Y-66861000D01*
X139315086Y-66771102D01*
X139569000Y-66601442D01*
X139569000Y-67298558D01*
X139315086Y-67128898D01*
X138863137Y-67039000D01*
X138816863Y-67039000D01*
X138364914Y-67128898D01*
X137981770Y-67384907D01*
X137737755Y-67750100D01*
X129029903Y-67750100D01*
X127831447Y-66551645D01*
X127863690Y-66565000D01*
X128554250Y-66565000D01*
X128713000Y-66406250D01*
X128713000Y-65207000D01*
X127513750Y-65207000D01*
X127355000Y-65365750D01*
X127355000Y-66056309D01*
X127368356Y-66088554D01*
X126151716Y-64871914D01*
X126217136Y-64806609D01*
X126337263Y-64517311D01*
X126337536Y-64204064D01*
X126296063Y-64103691D01*
X127355000Y-64103691D01*
X127355000Y-64794250D01*
X127513750Y-64953000D01*
X128713000Y-64953000D01*
X128713000Y-63753750D01*
X128967000Y-63753750D01*
X128967000Y-64953000D01*
X128987000Y-64953000D01*
X128987000Y-65207000D01*
X128967000Y-65207000D01*
X128967000Y-66406250D01*
X129125750Y-66565000D01*
X129816310Y-66565000D01*
X130049699Y-66468327D01*
X130228327Y-66289698D01*
X130325000Y-66056309D01*
X130325000Y-65698364D01*
X130509552Y-65974565D01*
X130908917Y-66241413D01*
X131380000Y-66335117D01*
X131851083Y-66241413D01*
X132250448Y-65974565D01*
X132517296Y-65575200D01*
X132611000Y-65104117D01*
X132611000Y-65055883D01*
X132689000Y-65055883D01*
X132689000Y-65104117D01*
X132782704Y-65575200D01*
X133049552Y-65974565D01*
X133448917Y-66241413D01*
X133920000Y-66335117D01*
X134391083Y-66241413D01*
X134790448Y-65974565D01*
X135057296Y-65575200D01*
X135151000Y-65104117D01*
X135151000Y-65055883D01*
X135057296Y-64584800D01*
X134790448Y-64185435D01*
X134391083Y-63918587D01*
X133920000Y-63824883D01*
X133448917Y-63918587D01*
X133049552Y-64185435D01*
X132782704Y-64584800D01*
X132689000Y-65055883D01*
X132611000Y-65055883D01*
X132517296Y-64584800D01*
X132250448Y-64185435D01*
X131851083Y-63918587D01*
X131380000Y-63824883D01*
X130908917Y-63918587D01*
X130509552Y-64185435D01*
X130325000Y-64461636D01*
X130325000Y-64103691D01*
X130228327Y-63870302D01*
X130049699Y-63691673D01*
X129816310Y-63595000D01*
X129125750Y-63595000D01*
X128967000Y-63753750D01*
X128713000Y-63753750D01*
X128554250Y-63595000D01*
X127863690Y-63595000D01*
X127630301Y-63691673D01*
X127451673Y-63870302D01*
X127355000Y-64103691D01*
X126296063Y-64103691D01*
X126217914Y-63914556D01*
X125996609Y-63692864D01*
X125707311Y-63572737D01*
X125394064Y-63572464D01*
X125104556Y-63692086D01*
X124882864Y-63913391D01*
X124762737Y-64202689D01*
X124762464Y-64515936D01*
X124882086Y-64805444D01*
X125097257Y-65020992D01*
X125113194Y-65101110D01*
X125115869Y-65114559D01*
X125217731Y-65267005D01*
X128502995Y-68552270D01*
X128644550Y-68646854D01*
X128655441Y-68654131D01*
X128835264Y-68689900D01*
X137737755Y-68689900D01*
X137981770Y-69055093D01*
X138364914Y-69311102D01*
X138816863Y-69401000D01*
X138863137Y-69401000D01*
X139315086Y-69311102D01*
X139569000Y-69141442D01*
X139569000Y-69838558D01*
X139315086Y-69668898D01*
X138863137Y-69579000D01*
X138816863Y-69579000D01*
X138364914Y-69668898D01*
X137981770Y-69924907D01*
X137737755Y-70290100D01*
X129664639Y-70290100D01*
X126367293Y-66992755D01*
X126367536Y-66714064D01*
X126247914Y-66424556D01*
X126026609Y-66202864D01*
X125737311Y-66082737D01*
X125424064Y-66082464D01*
X125134556Y-66202086D01*
X124912864Y-66423391D01*
X124792737Y-66712689D01*
X124792464Y-67025936D01*
X124912086Y-67315444D01*
X125133391Y-67537136D01*
X125422689Y-67657263D01*
X125702969Y-67657507D01*
X129137731Y-71092270D01*
X129264742Y-71177136D01*
X129290177Y-71194131D01*
X129470000Y-71229900D01*
X137737755Y-71229900D01*
X137981770Y-71595093D01*
X138364914Y-71851102D01*
X138816863Y-71941000D01*
X138863137Y-71941000D01*
X139315086Y-71851102D01*
X139569000Y-71681442D01*
X139569000Y-72378558D01*
X139315086Y-72208898D01*
X138863137Y-72119000D01*
X138816863Y-72119000D01*
X138364914Y-72208898D01*
X137981770Y-72464907D01*
X137725761Y-72848051D01*
X137635863Y-73300000D01*
X137725761Y-73751949D01*
X137981770Y-74135093D01*
X138364914Y-74391102D01*
X138816863Y-74481000D01*
X138863137Y-74481000D01*
X139315086Y-74391102D01*
X139569000Y-74221442D01*
X139569000Y-74918558D01*
X139315086Y-74748898D01*
X138863137Y-74659000D01*
X138816863Y-74659000D01*
X138405386Y-74740848D01*
X138105568Y-74441030D01*
X137953122Y-74339168D01*
X137773299Y-74303399D01*
X124206343Y-74303399D01*
X124458230Y-74135093D01*
X124714239Y-73751949D01*
X124804137Y-73300000D01*
X124714239Y-72848051D01*
X124458230Y-72464907D01*
X124075086Y-72208898D01*
X123623137Y-72119000D01*
X123576863Y-72119000D01*
X123124914Y-72208898D01*
X122741770Y-72464907D01*
X122485761Y-72848051D01*
X122395863Y-73300000D01*
X122485761Y-73751949D01*
X122741770Y-74135093D01*
X122993657Y-74303399D01*
X122196701Y-74303399D01*
X122016878Y-74339168D01*
X121864431Y-74441030D01*
X120932755Y-75372707D01*
X120687031Y-75372493D01*
X120582283Y-75267745D01*
X120582283Y-71934443D01*
X120779519Y-71737551D01*
X120844516Y-71581021D01*
X121125111Y-71581266D01*
X121414619Y-71461644D01*
X121636311Y-71240339D01*
X121756438Y-70951041D01*
X121756479Y-70904452D01*
X122555929Y-70105002D01*
X122621434Y-70105002D01*
X122485761Y-70308051D01*
X122395863Y-70760000D01*
X122485761Y-71211949D01*
X122741770Y-71595093D01*
X123124914Y-71851102D01*
X123576863Y-71941000D01*
X123623137Y-71941000D01*
X124075086Y-71851102D01*
X124458230Y-71595093D01*
X124714239Y-71211949D01*
X124804137Y-70760000D01*
X124714239Y-70308051D01*
X124578566Y-70105002D01*
X125041311Y-70105002D01*
X125073391Y-70137138D01*
X125362689Y-70257265D01*
X125675936Y-70257538D01*
X125965444Y-70137916D01*
X126187136Y-69916611D01*
X126307263Y-69627313D01*
X126307536Y-69314066D01*
X126187914Y-69024558D01*
X125966609Y-68802866D01*
X125677311Y-68682739D01*
X125364064Y-68682466D01*
X125074556Y-68802088D01*
X125041584Y-68835002D01*
X124605290Y-68835002D01*
X124714239Y-68671949D01*
X124804137Y-68220000D01*
X124714239Y-67768051D01*
X124458230Y-67384907D01*
X124075086Y-67128898D01*
X123623137Y-67039000D01*
X123576863Y-67039000D01*
X123124914Y-67128898D01*
X122741770Y-67384907D01*
X122485761Y-67768051D01*
X122395863Y-68220000D01*
X122485761Y-68671949D01*
X122594710Y-68835002D01*
X122292903Y-68835002D01*
X122049899Y-68883338D01*
X121843890Y-69020989D01*
X120858645Y-70006234D01*
X120846207Y-70006223D01*
X119769900Y-68929917D01*
X119769900Y-68568464D01*
X119925000Y-68568464D01*
X120066190Y-68541897D01*
X120195865Y-68458454D01*
X120282859Y-68331134D01*
X120313464Y-68180000D01*
X120313464Y-66680000D01*
X120286897Y-66538810D01*
X120203454Y-66409135D01*
X120076134Y-66322141D01*
X120040870Y-66315000D01*
X120051310Y-66315000D01*
X120284699Y-66218327D01*
X120463327Y-66039698D01*
X120560000Y-65806309D01*
X120560000Y-65680000D01*
X122395863Y-65680000D01*
X122485761Y-66131949D01*
X122741770Y-66515093D01*
X123124914Y-66771102D01*
X123576863Y-66861000D01*
X123623137Y-66861000D01*
X124075086Y-66771102D01*
X124458230Y-66515093D01*
X124714239Y-66131949D01*
X124804137Y-65680000D01*
X124714239Y-65228051D01*
X124458230Y-64844907D01*
X124075086Y-64588898D01*
X123623137Y-64499000D01*
X123576863Y-64499000D01*
X123124914Y-64588898D01*
X122741770Y-64844907D01*
X122485761Y-65228051D01*
X122395863Y-65680000D01*
X120560000Y-65680000D01*
X120560000Y-65215750D01*
X120401250Y-65057000D01*
X119427000Y-65057000D01*
X119427000Y-65077000D01*
X119173000Y-65077000D01*
X119173000Y-65057000D01*
X118198750Y-65057000D01*
X118040000Y-65215750D01*
X118040000Y-65806309D01*
X118136673Y-66039698D01*
X118315301Y-66218327D01*
X118548690Y-66315000D01*
X118550301Y-66315000D01*
X118533810Y-66318103D01*
X118404135Y-66401546D01*
X118317141Y-66528866D01*
X118286536Y-66680000D01*
X118286536Y-68180000D01*
X118313103Y-68321190D01*
X118396546Y-68450865D01*
X118523866Y-68537859D01*
X118675000Y-68568464D01*
X118830100Y-68568464D01*
X118830100Y-69124555D01*
X118854692Y-69248185D01*
X118865869Y-69304378D01*
X118967731Y-69456824D01*
X119406544Y-69895637D01*
X119327311Y-69862737D01*
X119014064Y-69862464D01*
X118724556Y-69982086D01*
X118502864Y-70203391D01*
X118382737Y-70492689D01*
X118382464Y-70805936D01*
X118502086Y-71095444D01*
X118700100Y-71293804D01*
X118700100Y-72310000D01*
X118717967Y-72399823D01*
X118735869Y-72489823D01*
X118837731Y-72642269D01*
X119161008Y-72965547D01*
X119161008Y-73056469D01*
X118447293Y-72342755D01*
X118447536Y-72064064D01*
X118327914Y-71774556D01*
X118106609Y-71552864D01*
X117817311Y-71432737D01*
X117504064Y-71432464D01*
X117214556Y-71552086D01*
X117169900Y-71596664D01*
X117169900Y-71465465D01*
X117134131Y-71285642D01*
X117032269Y-71133196D01*
X116641594Y-70742521D01*
X116641837Y-70463830D01*
X116522215Y-70174322D01*
X116300910Y-69952630D01*
X116011612Y-69832503D01*
X115698365Y-69832230D01*
X115408857Y-69951852D01*
X115357541Y-70003079D01*
X115310303Y-69955758D01*
X115244751Y-69928539D01*
X115558288Y-69615002D01*
X115801311Y-69615002D01*
X115833391Y-69647138D01*
X116122689Y-69767265D01*
X116435936Y-69767538D01*
X116725444Y-69647916D01*
X116947136Y-69426611D01*
X117067263Y-69137313D01*
X117067536Y-68824066D01*
X116947914Y-68534558D01*
X116915000Y-68501586D01*
X116915000Y-65178954D01*
X116915001Y-65178949D01*
X116866664Y-64935945D01*
X116729013Y-64729936D01*
X116052768Y-64053691D01*
X118040000Y-64053691D01*
X118040000Y-64644250D01*
X118198750Y-64803000D01*
X119173000Y-64803000D01*
X119173000Y-63703750D01*
X119427000Y-63703750D01*
X119427000Y-64803000D01*
X120401250Y-64803000D01*
X120560000Y-64644250D01*
X120560000Y-64053691D01*
X120463327Y-63820302D01*
X120284699Y-63641673D01*
X120051310Y-63545000D01*
X119585750Y-63545000D01*
X119427000Y-63703750D01*
X119173000Y-63703750D01*
X119014250Y-63545000D01*
X118548690Y-63545000D01*
X118315301Y-63641673D01*
X118136673Y-63820302D01*
X118040000Y-64053691D01*
X116052768Y-64053691D01*
X115139077Y-63140000D01*
X122395863Y-63140000D01*
X122485761Y-63591949D01*
X122741770Y-63975093D01*
X123124914Y-64231102D01*
X123576863Y-64321000D01*
X123623137Y-64321000D01*
X124075086Y-64231102D01*
X124458230Y-63975093D01*
X124714239Y-63591949D01*
X124804137Y-63140000D01*
X124714239Y-62688051D01*
X124458230Y-62304907D01*
X124075086Y-62048898D01*
X123623137Y-61959000D01*
X123576863Y-61959000D01*
X123124914Y-62048898D01*
X122741770Y-62304907D01*
X122485761Y-62688051D01*
X122395863Y-63140000D01*
X115139077Y-63140000D01*
X114576457Y-62577380D01*
X114755936Y-62577536D01*
X115045444Y-62457914D01*
X115267136Y-62236609D01*
X115387263Y-61947311D01*
X115387507Y-61667031D01*
X118674639Y-58379900D01*
X120760000Y-58379900D01*
X120939823Y-58344131D01*
X121092269Y-58242269D01*
X122277938Y-57056601D01*
X122993657Y-57056601D01*
X122741770Y-57224907D01*
M02*
