M48
;DRILL file {KiCad 4.0.1-stable} date Monday, April 10, 2017 'AMt' 12:08:24 AM
;FORMAT={-:-/ absolute / inch / decimal}
FMAT,2
INCH,TZ
T1C0.013
T2C0.025
T3C0.039
T4C0.040
%
G90
G05
M72
T1
X5.9Y-2.5807
X5.9508Y-2.5815
X6.0366Y-3.4299
X6.1201Y-3.3606
X6.1485Y-3.4003
X6.274Y-3.4323
X6.3469Y-3.4878
X6.5047Y-4.0217
X6.5795Y-3.7185
X6.7972Y-3.539
X6.7984Y-3.5898
X6.8Y-3.637
T2
X5.6508Y-4.1445
X5.9102Y-4.1516
X6.0232Y-3.226
X6.2445Y-3.7594
X6.5264Y-3.5339
X6.5791Y-2.9583
T3
X5.3252Y-3.1173
X5.3252Y-3.2173
X5.3252Y-3.3173
X5.3252Y-3.4173
X5.3252Y-3.5173
X5.4252Y-3.1173
X5.4252Y-3.2173
X5.4252Y-3.3173
X5.4252Y-3.4173
X5.4252Y-3.5173
X6.4539Y-4.1433
X6.4539Y-4.2433
X6.5539Y-4.1433
X6.5539Y-4.2433
X6.6539Y-4.1433
X6.6539Y-4.2433
T4
X5.4492Y-2.1709
X5.4492Y-2.3619
X5.5492Y-2.1709
X5.5492Y-2.3619
X5.6492Y-2.1709
X5.6492Y-2.3619
X5.7492Y-2.1709
X5.7492Y-2.3619
X5.8492Y-2.1709
X5.8492Y-2.3619
X5.9492Y-2.1709
X5.9492Y-2.3619
X6.0492Y-2.1709
X6.0492Y-2.3619
X6.1492Y-2.1709
X6.1492Y-2.3619
X6.2492Y-2.1709
X6.2492Y-2.3619
X6.3492Y-2.1709
X6.3492Y-2.3619
X6.4492Y-2.1709
X6.4492Y-2.3619
X6.5492Y-2.1709
X6.5492Y-2.3619
X6.6492Y-2.1709
X6.6492Y-2.3619
X6.7492Y-2.1709
X6.7492Y-2.3619
X6.8492Y-2.1709
X6.8492Y-2.3619
X6.9492Y-2.1709
X6.9492Y-2.3619
X7.0492Y-2.1709
X7.0492Y-2.3619
X7.0579Y-3.1126
X7.0579Y-3.2126
X7.0579Y-3.3126
X7.0579Y-3.4126
X7.0579Y-3.5126
X7.0579Y-3.6126
X7.0579Y-3.7126
X7.0579Y-3.8126
X7.0579Y-3.9126
X7.0579Y-4.0126
X7.0579Y-4.1126
X7.0579Y-4.2126
X7.1492Y-2.1709
X7.1492Y-2.3619
X7.2492Y-2.1709
X7.2492Y-2.3619
X7.3492Y-2.1709
X7.3492Y-2.3619
X7.4492Y-2.1709
X7.4492Y-2.3619
X7.5492Y-2.1709
X7.5492Y-2.3619
X7.6579Y-3.1126
X7.6579Y-3.2126
X7.6579Y-3.3126
X7.6579Y-3.4126
X7.6579Y-3.5126
X7.6579Y-3.6126
X7.6579Y-3.7126
X7.6579Y-3.8126
X7.6579Y-3.9126
X7.6579Y-4.0126
X7.6579Y-4.1126
X7.6579Y-4.2126
T0
M30
