G04 #@! TF.FileFunction,Soldermask,Top*
%FSLAX46Y46*%
G04 Gerber Fmt 4.6, Leading zero omitted, Abs format (unit mm)*
G04 Created by KiCad (PCBNEW 4.0.1-stable) date Monday, April 10, 2017 'AMt' 12:08:22 AM*
%MOMM*%
G01*
G04 APERTURE LIST*
%ADD10C,0.100000*%
%ADD11R,1.650000X1.900000*%
%ADD12R,1.900000X1.650000*%
%ADD13R,2.400000X0.900000*%
%ADD14R,0.900000X2.400000*%
%ADD15R,1.400000X1.900000*%
%ADD16R,2.400000X3.400000*%
%ADD17R,2.100000X2.100000*%
%ADD18O,2.100000X2.100000*%
%ADD19C,2.178000*%
G04 APERTURE END LIST*
D10*
D11*
X167020000Y-85390000D03*
X167020000Y-87890000D03*
D12*
X154940000Y-94280000D03*
X157440000Y-94280000D03*
D11*
X141820000Y-102800000D03*
X141820000Y-105300000D03*
X151800000Y-102800000D03*
X151800000Y-105300000D03*
D13*
X151010000Y-80640000D03*
X151010000Y-81440000D03*
X151010000Y-82240000D03*
X151010000Y-83040000D03*
X151010000Y-83840000D03*
X151010000Y-84640000D03*
X151010000Y-85440000D03*
X151010000Y-86240000D03*
X151010000Y-87040000D03*
X151010000Y-87840000D03*
X151010000Y-88640000D03*
D14*
X153010000Y-90640000D03*
X153810000Y-90640000D03*
X154610000Y-90640000D03*
X155410000Y-90640000D03*
X156210000Y-90640000D03*
X157010000Y-90640000D03*
X157810000Y-90640000D03*
X158610000Y-90640000D03*
X159410000Y-90640000D03*
X160210000Y-90640000D03*
X161010000Y-90640000D03*
D13*
X163010000Y-88640000D03*
X163010000Y-87840000D03*
X163010000Y-87040000D03*
X163010000Y-86240000D03*
X163010000Y-85440000D03*
X163010000Y-84640000D03*
X163010000Y-83840000D03*
X163010000Y-83040000D03*
X163010000Y-82240000D03*
X163010000Y-81440000D03*
X163010000Y-80640000D03*
D14*
X161010000Y-78640000D03*
X160210000Y-78640000D03*
X159410000Y-78640000D03*
X158610000Y-78640000D03*
X157810000Y-78640000D03*
X157010000Y-78640000D03*
X156210000Y-78640000D03*
X155410000Y-78640000D03*
X154610000Y-78640000D03*
X153810000Y-78640000D03*
X153010000Y-78640000D03*
D15*
X145280000Y-105250000D03*
X146780000Y-105250000D03*
X148280000Y-105250000D03*
D16*
X146780000Y-102290000D03*
D10*
G36*
X147980000Y-103565000D02*
X147480000Y-104715000D01*
X146080000Y-104715000D01*
X145580000Y-103565000D01*
X147980000Y-103565000D01*
X147980000Y-103565000D01*
G37*
D17*
X163930000Y-107780000D03*
D18*
X163930000Y-105240000D03*
X166470000Y-107780000D03*
X166470000Y-105240000D03*
X169010000Y-107780000D03*
X169010000Y-105240000D03*
D17*
X135260000Y-79180000D03*
D18*
X137800000Y-79180000D03*
X135260000Y-81720000D03*
X137800000Y-81720000D03*
X135260000Y-84260000D03*
X137800000Y-84260000D03*
X135260000Y-86800000D03*
X137800000Y-86800000D03*
X135260000Y-89340000D03*
X137800000Y-89340000D03*
D19*
X179270000Y-107000000D03*
X194510000Y-107000000D03*
X179270000Y-104460000D03*
X194510000Y-104460000D03*
X179270000Y-101920000D03*
X194510000Y-101920000D03*
X179270000Y-99380000D03*
X194510000Y-99380000D03*
X179270000Y-96840000D03*
X194510000Y-96840000D03*
X179270000Y-94300000D03*
X194510000Y-94300000D03*
X179270000Y-91760000D03*
X194510000Y-91760000D03*
X179270000Y-89220000D03*
X194510000Y-89220000D03*
X179270000Y-86680000D03*
X194510000Y-86680000D03*
X179270000Y-84140000D03*
X194510000Y-84140000D03*
X179270000Y-81600000D03*
X194510000Y-81600000D03*
X179270000Y-79060000D03*
X194510000Y-79060000D03*
X191750000Y-55140000D03*
X191750000Y-59991400D03*
X189210000Y-55140000D03*
X189210000Y-59991400D03*
X186670000Y-55140000D03*
X186670000Y-59991400D03*
X184130000Y-55140000D03*
X184130000Y-59991400D03*
X181590000Y-55140000D03*
X181590000Y-59991400D03*
X179050000Y-55140000D03*
X179050000Y-59991400D03*
X176510000Y-55140000D03*
X176510000Y-59991400D03*
X173970000Y-55140000D03*
X173970000Y-59991400D03*
X171430000Y-55140000D03*
X171430000Y-59991400D03*
X168890000Y-55140000D03*
X168890000Y-59991400D03*
X166350000Y-55140000D03*
X166350000Y-59991400D03*
X163810000Y-55140000D03*
X163810000Y-59991400D03*
X161270000Y-55140000D03*
X161270000Y-59991400D03*
X158730000Y-55140000D03*
X158730000Y-59991400D03*
X156190000Y-55140000D03*
X156190000Y-59991400D03*
X153650000Y-55140000D03*
X153650000Y-59991400D03*
X151110000Y-55140000D03*
X151110000Y-59991400D03*
X148570000Y-55140000D03*
X148570000Y-59991400D03*
X146030000Y-55140000D03*
X146030000Y-59991400D03*
X143490000Y-55140000D03*
X143490000Y-59991400D03*
X140950000Y-55140000D03*
X140950000Y-59991400D03*
X138410000Y-55140000D03*
X138410000Y-59991400D03*
D12*
X163060000Y-75440000D03*
X165560000Y-75440000D03*
M02*
