G04 #@! TF.FileFunction,Copper,L1,Top,Signal*
%FSLAX46Y46*%
G04 Gerber Fmt 4.6, Leading zero omitted, Abs format (unit mm)*
G04 Created by KiCad (PCBNEW 4.0.1-stable) date Monday, April 10, 2017 'AMt' 12:08:22 AM*
%MOMM*%
G01*
G04 APERTURE LIST*
%ADD10C,0.100000*%
%ADD11R,1.250000X1.500000*%
%ADD12R,1.500000X1.250000*%
%ADD13R,2.000000X0.500000*%
%ADD14R,0.500000X2.000000*%
%ADD15R,1.000000X1.500000*%
%ADD16R,2.000000X3.000000*%
%ADD17R,1.700000X1.700000*%
%ADD18O,1.700000X1.700000*%
%ADD19C,1.778000*%
%ADD20C,1.016000*%
%ADD21C,0.812800*%
%ADD22C,0.508000*%
%ADD23C,1.270000*%
%ADD24C,0.177800*%
%ADD25C,0.254000*%
G04 APERTURE END LIST*
D10*
D11*
X167020000Y-85390000D03*
X167020000Y-87890000D03*
D12*
X154940000Y-94280000D03*
X157440000Y-94280000D03*
D11*
X141820000Y-102800000D03*
X141820000Y-105300000D03*
X151800000Y-102800000D03*
X151800000Y-105300000D03*
D13*
X151010000Y-80640000D03*
X151010000Y-81440000D03*
X151010000Y-82240000D03*
X151010000Y-83040000D03*
X151010000Y-83840000D03*
X151010000Y-84640000D03*
X151010000Y-85440000D03*
X151010000Y-86240000D03*
X151010000Y-87040000D03*
X151010000Y-87840000D03*
X151010000Y-88640000D03*
D14*
X153010000Y-90640000D03*
X153810000Y-90640000D03*
X154610000Y-90640000D03*
X155410000Y-90640000D03*
X156210000Y-90640000D03*
X157010000Y-90640000D03*
X157810000Y-90640000D03*
X158610000Y-90640000D03*
X159410000Y-90640000D03*
X160210000Y-90640000D03*
X161010000Y-90640000D03*
D13*
X163010000Y-88640000D03*
X163010000Y-87840000D03*
X163010000Y-87040000D03*
X163010000Y-86240000D03*
X163010000Y-85440000D03*
X163010000Y-84640000D03*
X163010000Y-83840000D03*
X163010000Y-83040000D03*
X163010000Y-82240000D03*
X163010000Y-81440000D03*
X163010000Y-80640000D03*
D14*
X161010000Y-78640000D03*
X160210000Y-78640000D03*
X159410000Y-78640000D03*
X158610000Y-78640000D03*
X157810000Y-78640000D03*
X157010000Y-78640000D03*
X156210000Y-78640000D03*
X155410000Y-78640000D03*
X154610000Y-78640000D03*
X153810000Y-78640000D03*
X153010000Y-78640000D03*
D15*
X145280000Y-105250000D03*
X146780000Y-105250000D03*
X148280000Y-105250000D03*
D16*
X146780000Y-102290000D03*
D10*
G36*
X147780000Y-103765000D02*
X147280000Y-104515000D01*
X146280000Y-104515000D01*
X145780000Y-103765000D01*
X147780000Y-103765000D01*
X147780000Y-103765000D01*
G37*
D17*
X163930000Y-107780000D03*
D18*
X163930000Y-105240000D03*
X166470000Y-107780000D03*
X166470000Y-105240000D03*
X169010000Y-107780000D03*
X169010000Y-105240000D03*
D17*
X135260000Y-79180000D03*
D18*
X137800000Y-79180000D03*
X135260000Y-81720000D03*
X137800000Y-81720000D03*
X135260000Y-84260000D03*
X137800000Y-84260000D03*
X135260000Y-86800000D03*
X137800000Y-86800000D03*
X135260000Y-89340000D03*
X137800000Y-89340000D03*
D19*
X179270000Y-107000000D03*
X194510000Y-107000000D03*
X179270000Y-104460000D03*
X194510000Y-104460000D03*
X179270000Y-101920000D03*
X194510000Y-101920000D03*
X179270000Y-99380000D03*
X194510000Y-99380000D03*
X179270000Y-96840000D03*
X194510000Y-96840000D03*
X179270000Y-94300000D03*
X194510000Y-94300000D03*
X179270000Y-91760000D03*
X194510000Y-91760000D03*
X179270000Y-89220000D03*
X194510000Y-89220000D03*
X179270000Y-86680000D03*
X194510000Y-86680000D03*
X179270000Y-84140000D03*
X194510000Y-84140000D03*
X179270000Y-81600000D03*
X194510000Y-81600000D03*
X179270000Y-79060000D03*
X194510000Y-79060000D03*
X191750000Y-55140000D03*
X191750000Y-59991400D03*
X189210000Y-55140000D03*
X189210000Y-59991400D03*
X186670000Y-55140000D03*
X186670000Y-59991400D03*
X184130000Y-55140000D03*
X184130000Y-59991400D03*
X181590000Y-55140000D03*
X181590000Y-59991400D03*
X179050000Y-55140000D03*
X179050000Y-59991400D03*
X176510000Y-55140000D03*
X176510000Y-59991400D03*
X173970000Y-55140000D03*
X173970000Y-59991400D03*
X171430000Y-55140000D03*
X171430000Y-59991400D03*
X168890000Y-55140000D03*
X168890000Y-59991400D03*
X166350000Y-55140000D03*
X166350000Y-59991400D03*
X163810000Y-55140000D03*
X163810000Y-59991400D03*
X161270000Y-55140000D03*
X161270000Y-59991400D03*
X158730000Y-55140000D03*
X158730000Y-59991400D03*
X156190000Y-55140000D03*
X156190000Y-59991400D03*
X153650000Y-55140000D03*
X153650000Y-59991400D03*
X151110000Y-55140000D03*
X151110000Y-59991400D03*
X148570000Y-55140000D03*
X148570000Y-59991400D03*
X146030000Y-55140000D03*
X146030000Y-59991400D03*
X143490000Y-55140000D03*
X143490000Y-59991400D03*
X140950000Y-55140000D03*
X140950000Y-59991400D03*
X138410000Y-55140000D03*
X138410000Y-59991400D03*
D12*
X163060000Y-75440000D03*
X165560000Y-75440000D03*
D20*
X165770000Y-89760002D03*
X167110000Y-75140000D03*
X152990000Y-81940000D03*
X158610000Y-95490000D03*
X150120000Y-105450000D03*
X143530000Y-105270000D03*
D21*
X151150000Y-65570000D03*
X149860000Y-65550000D03*
X153330000Y-87120000D03*
X167120000Y-94450000D03*
X155450000Y-85360000D03*
X172650000Y-89890000D03*
X156172518Y-86367480D03*
X172680000Y-91180000D03*
X159360000Y-87179998D03*
X172720000Y-92380000D03*
X161210000Y-88589320D03*
X165220000Y-102150000D03*
D22*
X160245598Y-86235598D02*
X158306402Y-86235598D01*
X155410000Y-89132000D02*
X155410000Y-90640000D01*
X160250000Y-86240000D02*
X160245598Y-86235598D01*
X158306402Y-86235598D02*
X155410000Y-89132000D01*
X160210000Y-78640000D02*
X160210000Y-80148000D01*
X160210000Y-80148000D02*
X160250000Y-80188000D01*
X160250000Y-80188000D02*
X160250000Y-86240000D01*
X160210000Y-78640000D02*
X160210000Y-77132000D01*
X160210000Y-77132000D02*
X161902000Y-75440000D01*
X161902000Y-75440000D02*
X162935000Y-75440000D01*
X162935000Y-75440000D02*
X163060000Y-75440000D01*
X163010000Y-86240000D02*
X160250000Y-86240000D01*
X163010000Y-86240000D02*
X162968001Y-86198001D01*
X155410000Y-90640000D02*
X155410000Y-93810000D01*
X155410000Y-93810000D02*
X154940000Y-94280000D01*
D23*
X154940000Y-94280000D02*
X154940000Y-96175000D01*
X154940000Y-96175000D02*
X151845000Y-99270000D01*
X151845000Y-99270000D02*
X151800000Y-99270000D01*
D22*
X163010000Y-86240000D02*
X166170000Y-86240000D01*
X166170000Y-86240000D02*
X167020000Y-85390000D01*
D23*
X137800000Y-81720000D02*
X141220000Y-85140000D01*
X141220000Y-85140000D02*
X141220000Y-88690000D01*
X141220000Y-88690000D02*
X151800000Y-99270000D01*
X151800000Y-99270000D02*
X151800000Y-102675000D01*
X151800000Y-102675000D02*
X151800000Y-102800000D01*
D22*
X151800000Y-102800000D02*
X150730000Y-102800000D01*
X150730000Y-102800000D02*
X148280000Y-105250000D01*
D24*
X167020000Y-87890000D02*
X167020000Y-88590000D01*
X167020000Y-88590000D02*
X165849998Y-89760002D01*
X165849998Y-89760002D02*
X165770000Y-89760002D01*
D22*
X165560000Y-75440000D02*
X166810000Y-75440000D01*
X166810000Y-75440000D02*
X167110000Y-75140000D01*
D24*
X151010000Y-83040000D02*
X152187800Y-83040000D01*
X152187800Y-83040000D02*
X152990000Y-82237800D01*
X152990000Y-82237800D02*
X152990000Y-81940000D01*
X157440000Y-94280000D02*
X157530000Y-94280000D01*
X157530000Y-94280000D02*
X158610000Y-95360000D01*
X158610000Y-95360000D02*
X158610000Y-95490000D01*
D22*
X157010000Y-90640000D02*
X157010000Y-93850000D01*
X157010000Y-93850000D02*
X157440000Y-94280000D01*
X163010000Y-87040000D02*
X166170000Y-87040000D01*
X166170000Y-87040000D02*
X167020000Y-87890000D01*
D23*
X169010000Y-105240000D02*
X169750000Y-104500000D01*
X169750000Y-104500000D02*
X179230000Y-104500000D01*
X179230000Y-104500000D02*
X179270000Y-104460000D01*
D22*
X150120000Y-105450000D02*
X150120000Y-106050000D01*
X150120000Y-106050000D02*
X149420000Y-106750000D01*
X149420000Y-106750000D02*
X145790000Y-106750000D01*
X145790000Y-106750000D02*
X145280000Y-106240000D01*
X145280000Y-106240000D02*
X145280000Y-105250000D01*
X151800000Y-105300000D02*
X150270000Y-105300000D01*
X150270000Y-105300000D02*
X150120000Y-105450000D01*
X143530000Y-105270000D02*
X141850000Y-105270000D01*
X141850000Y-105270000D02*
X141820000Y-105300000D01*
X145280000Y-105250000D02*
X143550000Y-105250000D01*
X143550000Y-105250000D02*
X143530000Y-105270000D01*
X141820000Y-102800000D02*
X141820000Y-102925000D01*
X146780000Y-104140000D02*
X146780000Y-105250000D01*
X146780000Y-102290000D02*
X146780000Y-104140000D01*
X141820000Y-102800000D02*
X146270000Y-102800000D01*
X146270000Y-102800000D02*
X146780000Y-102290000D01*
D24*
X189210000Y-55140000D02*
X190470000Y-56400000D01*
X190470000Y-56400000D02*
X190470000Y-64270000D01*
X160375101Y-91982901D02*
X160210000Y-91817800D01*
X190470000Y-64270000D02*
X170663622Y-84076378D01*
X170663622Y-84076378D02*
X170663622Y-89046378D01*
X170663622Y-89046378D02*
X167727099Y-91982901D01*
X167727099Y-91982901D02*
X160375101Y-91982901D01*
X160210000Y-91817800D02*
X160210000Y-90640000D01*
X189210000Y-59991400D02*
X189210000Y-64300000D01*
X189210000Y-64300000D02*
X170231811Y-83278189D01*
X170231811Y-83278189D02*
X170231811Y-88548189D01*
X170231811Y-88548189D02*
X167460000Y-91320000D01*
X167460000Y-91320000D02*
X162117800Y-91320000D01*
X161437800Y-90640000D02*
X161010000Y-90640000D01*
X162117800Y-91320000D02*
X161437800Y-90640000D01*
X194510000Y-79060000D02*
X195380000Y-78190000D01*
X195380000Y-78190000D02*
X195380000Y-55962016D01*
X195380000Y-55962016D02*
X193137984Y-53720000D01*
X193137984Y-53720000D02*
X188090000Y-53720000D01*
X188090000Y-53720000D02*
X187558999Y-54251001D01*
X187558999Y-54251001D02*
X186670000Y-55140000D01*
X163010000Y-89067800D02*
X163010000Y-88640000D01*
X164593102Y-90650902D02*
X163010000Y-89067800D01*
X167009098Y-90650902D02*
X164593102Y-90650902D01*
X169800000Y-87860000D02*
X167009098Y-90650902D01*
X186670000Y-59991400D02*
X186670000Y-65720000D01*
X186670000Y-65720000D02*
X169800000Y-82590000D01*
X169800000Y-82590000D02*
X169800000Y-87860000D01*
X163010000Y-85440000D02*
X164640000Y-85440000D01*
X164640000Y-85440000D02*
X185410000Y-64670000D01*
X185410000Y-56420000D02*
X185018999Y-56028999D01*
X185410000Y-64670000D02*
X185410000Y-56420000D01*
X185018999Y-56028999D02*
X184130000Y-55140000D01*
X184130000Y-61248635D02*
X184130000Y-59991400D01*
X184130000Y-64952688D02*
X184130000Y-61248635D01*
X164442688Y-84640000D02*
X184130000Y-64952688D01*
X163010000Y-84640000D02*
X164442688Y-84640000D01*
X181590000Y-55140000D02*
X182860000Y-56410000D01*
X182860000Y-65280000D02*
X164300000Y-83840000D01*
X182860000Y-56410000D02*
X182860000Y-65280000D01*
X164300000Y-83840000D02*
X163010000Y-83840000D01*
X181590000Y-59991400D02*
X181590000Y-65660000D01*
X181590000Y-65660000D02*
X164210000Y-83040000D01*
X164210000Y-83040000D02*
X163010000Y-83040000D01*
X179050000Y-55140000D02*
X180330000Y-56420000D01*
X164090000Y-82240000D02*
X163010000Y-82240000D01*
X180330000Y-56420000D02*
X180330000Y-66000000D01*
X180330000Y-66000000D02*
X164090000Y-82240000D01*
X179050000Y-59991400D02*
X179050000Y-66370000D01*
X179050000Y-66370000D02*
X163980000Y-81440000D01*
X163980000Y-81440000D02*
X163010000Y-81440000D01*
X176510000Y-55140000D02*
X177770000Y-56400000D01*
X177770000Y-56400000D02*
X177770000Y-66610000D01*
X177770000Y-66610000D02*
X163740000Y-80640000D01*
X163740000Y-80640000D02*
X163010000Y-80640000D01*
X176510000Y-59991400D02*
X175748001Y-60753399D01*
X175748001Y-60753399D02*
X175748001Y-61493343D01*
X175748001Y-61493343D02*
X164370672Y-72870672D01*
X164370672Y-72870672D02*
X164370672Y-76121550D01*
X164370672Y-76121550D02*
X161852222Y-78640000D01*
X161852222Y-78640000D02*
X161010000Y-78640000D01*
X153810000Y-78640000D02*
X153810000Y-74110000D01*
X153810000Y-74110000D02*
X157421901Y-70498099D01*
X157421901Y-70498099D02*
X157421901Y-59008099D01*
X157421901Y-59008099D02*
X158960000Y-57470000D01*
X172410000Y-57470000D02*
X173960000Y-55920000D01*
X158960000Y-57470000D02*
X172410000Y-57470000D01*
X173960000Y-55920000D02*
X173960000Y-55150000D01*
X173960000Y-55150000D02*
X173970000Y-55140000D01*
X173970000Y-61584032D02*
X173970000Y-61248635D01*
X173970000Y-61248635D02*
X173970000Y-59991400D01*
X159410000Y-76144032D02*
X173970000Y-61584032D01*
X159410000Y-78640000D02*
X159410000Y-76144032D01*
X158610000Y-76333360D02*
X158610000Y-77462200D01*
X171430000Y-63513360D02*
X158610000Y-76333360D01*
X171430000Y-59991400D02*
X171430000Y-63513360D01*
X158610000Y-77462200D02*
X158610000Y-78640000D01*
X168890000Y-61248635D02*
X168890000Y-59991400D01*
X168890000Y-65442688D02*
X168890000Y-61248635D01*
X157680000Y-76652688D02*
X168890000Y-65442688D01*
X157680000Y-78430000D02*
X157680000Y-76652688D01*
X143490000Y-59991400D02*
X143490000Y-60980000D01*
X153810000Y-91817800D02*
X153810000Y-90640000D01*
X143490000Y-60980000D02*
X146207323Y-63697323D01*
X146207323Y-86566651D02*
X151728861Y-92088189D01*
X146207323Y-63697323D02*
X146207323Y-86566651D01*
X151728861Y-92088189D02*
X153539611Y-92088189D01*
X153539611Y-92088189D02*
X153810000Y-91817800D01*
X166350000Y-67372016D02*
X166350000Y-61248635D01*
X166350000Y-61248635D02*
X166350000Y-59991400D01*
X156940000Y-78470000D02*
X156940000Y-76782016D01*
X156940000Y-76782016D02*
X166350000Y-67372016D01*
X154610000Y-90640000D02*
X154610000Y-91817800D01*
X154610000Y-91817800D02*
X153907800Y-92520000D01*
X153907800Y-92520000D02*
X151550000Y-92520000D01*
X140950000Y-60030000D02*
X140950000Y-59991400D01*
X151550000Y-92520000D02*
X145775512Y-86745512D01*
X145775512Y-86745512D02*
X145775512Y-64855512D01*
X145775512Y-64855512D02*
X140950000Y-60030000D01*
X156210000Y-76901344D02*
X156210000Y-78700000D01*
X163810000Y-69301344D02*
X156210000Y-76901344D01*
X163810000Y-59991400D02*
X163810000Y-69301344D01*
X155380000Y-77120672D02*
X155380000Y-78870000D01*
X161270000Y-71230672D02*
X155380000Y-77120672D01*
X161270000Y-59991400D02*
X161270000Y-71230672D01*
X149942778Y-81440000D02*
X149230000Y-80727222D01*
X149230000Y-67490000D02*
X150743601Y-65976399D01*
X151010000Y-81440000D02*
X149942778Y-81440000D01*
X149230000Y-80727222D02*
X149230000Y-67490000D01*
X150743601Y-65976399D02*
X151150000Y-65570000D01*
X158730000Y-73160000D02*
X154610000Y-77280000D01*
X158730000Y-59991400D02*
X158730000Y-73160000D01*
X154610000Y-77280000D02*
X154610000Y-78730000D01*
X151010000Y-82240000D02*
X149832200Y-82240000D01*
X149832200Y-82240000D02*
X148952200Y-81360000D01*
X148952200Y-81360000D02*
X148910000Y-81360000D01*
X148910000Y-81360000D02*
X148798189Y-81248189D01*
X148798189Y-81248189D02*
X148798189Y-66611811D01*
X148798189Y-66611811D02*
X149860000Y-65550000D01*
X156190000Y-59991400D02*
X156190000Y-68170000D01*
X156190000Y-68170000D02*
X153010000Y-71350000D01*
X153010000Y-71350000D02*
X153010000Y-77462200D01*
X153010000Y-77462200D02*
X153010000Y-78640000D01*
X147934567Y-65185433D02*
X152418099Y-60701901D01*
X152761001Y-56028999D02*
X153650000Y-55140000D01*
X152418099Y-60701901D02*
X152418099Y-56371901D01*
X152418099Y-56371901D02*
X152761001Y-56028999D01*
X147934567Y-82742367D02*
X147934567Y-65185433D01*
X149832200Y-84640000D02*
X147934567Y-82742367D01*
X151010000Y-84640000D02*
X149832200Y-84640000D01*
X148366378Y-65603622D02*
X148366378Y-82374178D01*
X153650000Y-60320000D02*
X148366378Y-65603622D01*
X153650000Y-59991400D02*
X153650000Y-60320000D01*
X148366378Y-82374178D02*
X149832200Y-83840000D01*
X149832200Y-83840000D02*
X151010000Y-83840000D01*
X151010000Y-80640000D02*
X151010000Y-69800000D01*
X151998999Y-54251001D02*
X151110000Y-55140000D01*
X151010000Y-69800000D02*
X154958099Y-65851901D01*
X154958099Y-65851901D02*
X154958099Y-54338099D01*
X154958099Y-54338099D02*
X154310000Y-53690000D01*
X154310000Y-53690000D02*
X152560000Y-53690000D01*
X152560000Y-53690000D02*
X151998999Y-54251001D01*
X150221001Y-60880399D02*
X151110000Y-59991400D01*
X147502756Y-63598644D02*
X150221001Y-60880399D01*
X149832200Y-85440000D02*
X147502756Y-83110556D01*
X151010000Y-85440000D02*
X149832200Y-85440000D01*
X147502756Y-83110556D02*
X147502756Y-63598644D01*
X151010000Y-86240000D02*
X149832200Y-86240000D01*
X149832200Y-86240000D02*
X147070945Y-83478745D01*
X147070945Y-83478745D02*
X147070945Y-62489055D01*
X147070945Y-62489055D02*
X148560000Y-61000000D01*
X148560000Y-61000000D02*
X148560000Y-60001400D01*
X148560000Y-60001400D02*
X148570000Y-59991400D01*
X153010000Y-90640000D02*
X150891344Y-90640000D01*
X150891344Y-90640000D02*
X146639134Y-86387790D01*
X146639134Y-86387790D02*
X146639134Y-60599134D01*
X146639134Y-60599134D02*
X146031400Y-59991400D01*
X146031400Y-59991400D02*
X146030000Y-59991400D01*
X146030000Y-59991400D02*
X145920000Y-60101400D01*
X151010000Y-87040000D02*
X153250000Y-87040000D01*
X153250000Y-87040000D02*
X153330000Y-87120000D01*
X169510000Y-96840000D02*
X167526399Y-94856399D01*
X167526399Y-94856399D02*
X167120000Y-94450000D01*
X179270000Y-96840000D02*
X169510000Y-96840000D01*
X151010000Y-87840000D02*
X152187800Y-87840000D01*
X152187800Y-87840000D02*
X152327102Y-87979302D01*
X155043601Y-85766399D02*
X155450000Y-85360000D01*
X152327102Y-87979302D02*
X153545434Y-87979302D01*
X155043601Y-86481135D02*
X155043601Y-85766399D01*
X153545434Y-87979302D02*
X155043601Y-86481135D01*
X173056399Y-90296399D02*
X172650000Y-89890000D01*
X174520000Y-91760000D02*
X173056399Y-90296399D01*
X179270000Y-91760000D02*
X174520000Y-91760000D01*
X155766119Y-86773879D02*
X156172518Y-86367480D01*
X151010000Y-88640000D02*
X153899998Y-88640000D01*
X153899998Y-88640000D02*
X155766119Y-86773879D01*
X175800000Y-94300000D02*
X173086399Y-91586399D01*
X179270000Y-94300000D02*
X175800000Y-94300000D01*
X173086399Y-91586399D02*
X172680000Y-91180000D01*
X159800678Y-87179998D02*
X159360000Y-87179998D01*
X161210000Y-88589320D02*
X159800678Y-87179998D01*
X173126399Y-92786399D02*
X172720000Y-92380000D01*
X175871901Y-95531901D02*
X173126399Y-92786399D01*
X181060000Y-91010000D02*
X181060000Y-94590000D01*
X180118099Y-95531901D02*
X175871901Y-95531901D01*
X181060000Y-94590000D02*
X180118099Y-95531901D01*
X179270000Y-89220000D02*
X181060000Y-91010000D01*
X161210000Y-88462200D02*
X161210000Y-88589320D01*
X161832200Y-87840000D02*
X161210000Y-88462200D01*
X163010000Y-87840000D02*
X161832200Y-87840000D01*
X157810000Y-90640000D02*
X157810000Y-92657778D01*
X157810000Y-92657778D02*
X165220000Y-100067778D01*
X165220000Y-100067778D02*
X165220000Y-102150000D01*
X166470000Y-107780000D02*
X167662901Y-106587099D01*
X158610000Y-91817800D02*
X158610000Y-90640000D01*
X167662901Y-106587099D02*
X167662901Y-100870701D01*
X167662901Y-100870701D02*
X158610000Y-91817800D01*
X166470000Y-107780000D02*
X166880000Y-107780000D01*
X156210000Y-90640000D02*
X156210000Y-94980000D01*
X156210000Y-94980000D02*
X166470000Y-105240000D01*
X169010000Y-107780000D02*
X169620000Y-107780000D01*
X179270000Y-79060000D02*
X178740000Y-79060000D01*
X177440000Y-80360000D02*
X177440000Y-83210000D01*
X178740000Y-79060000D02*
X177440000Y-80360000D01*
X177440000Y-83210000D02*
X168235288Y-92414712D01*
X160006912Y-92414712D02*
X159410000Y-91817800D01*
X159410000Y-91817800D02*
X159410000Y-90640000D01*
X168235288Y-92414712D02*
X160006912Y-92414712D01*
X166350000Y-55140000D02*
X168201811Y-53288189D01*
X195398999Y-80711001D02*
X194510000Y-81600000D01*
X168201811Y-53288189D02*
X193316845Y-53288189D01*
X193316845Y-53288189D02*
X195811811Y-55783155D01*
X195811811Y-55783155D02*
X195811811Y-80298189D01*
X195811811Y-80298189D02*
X195398999Y-80711001D01*
X163810000Y-55140000D02*
X166093622Y-52856378D01*
X195398999Y-83251001D02*
X194510000Y-84140000D01*
X196243622Y-82406378D02*
X195398999Y-83251001D01*
X196243622Y-55604294D02*
X196243622Y-82406378D01*
X193495706Y-52856378D02*
X196243622Y-55604294D01*
X166093622Y-52856378D02*
X193495706Y-52856378D01*
X162158999Y-54251001D02*
X161270000Y-55140000D01*
X193674567Y-52424567D02*
X163985433Y-52424567D01*
X163985433Y-52424567D02*
X162158999Y-54251001D01*
X196675433Y-55425433D02*
X193674567Y-52424567D01*
X196675433Y-84514567D02*
X196675433Y-55425433D01*
X194510000Y-86680000D02*
X196675433Y-84514567D01*
D25*
G36*
X198229233Y-50739475D02*
X198847446Y-51152551D01*
X199260525Y-51770766D01*
X199417000Y-52557422D01*
X199417000Y-112442578D01*
X199260525Y-113229234D01*
X198847446Y-113847449D01*
X198229233Y-114260525D01*
X197442578Y-114417000D01*
X132557422Y-114417000D01*
X131770766Y-114260525D01*
X131152551Y-113847446D01*
X130739475Y-113229233D01*
X130583000Y-112442578D01*
X130583000Y-101923691D01*
X140560000Y-101923691D01*
X140560000Y-102514250D01*
X140718750Y-102673000D01*
X141693000Y-102673000D01*
X141693000Y-101573750D01*
X141947000Y-101573750D01*
X141947000Y-102673000D01*
X142921250Y-102673000D01*
X143080000Y-102514250D01*
X143080000Y-101923691D01*
X142983327Y-101690302D01*
X142804699Y-101511673D01*
X142571310Y-101415000D01*
X142105750Y-101415000D01*
X141947000Y-101573750D01*
X141693000Y-101573750D01*
X141534250Y-101415000D01*
X141068690Y-101415000D01*
X140835301Y-101511673D01*
X140656673Y-101690302D01*
X140560000Y-101923691D01*
X130583000Y-101923691D01*
X130583000Y-100663690D01*
X145145000Y-100663690D01*
X145145000Y-102004250D01*
X145303750Y-102163000D01*
X146653000Y-102163000D01*
X146653000Y-100313750D01*
X146907000Y-100313750D01*
X146907000Y-102163000D01*
X148256250Y-102163000D01*
X148415000Y-102004250D01*
X148415000Y-100663690D01*
X148318327Y-100430301D01*
X148139698Y-100251673D01*
X147906309Y-100155000D01*
X147065750Y-100155000D01*
X146907000Y-100313750D01*
X146653000Y-100313750D01*
X146494250Y-100155000D01*
X145653691Y-100155000D01*
X145420302Y-100251673D01*
X145241673Y-100430301D01*
X145145000Y-100663690D01*
X130583000Y-100663690D01*
X130583000Y-81720000D01*
X133875395Y-81720000D01*
X133978767Y-82239684D01*
X134273144Y-82680251D01*
X134713711Y-82974628D01*
X134790991Y-82990000D01*
X134713711Y-83005372D01*
X134273144Y-83299749D01*
X133978767Y-83740316D01*
X133875395Y-84260000D01*
X133978767Y-84779684D01*
X134273144Y-85220251D01*
X134713711Y-85514628D01*
X134790991Y-85530000D01*
X134713711Y-85545372D01*
X134273144Y-85839749D01*
X133978767Y-86280316D01*
X133875395Y-86800000D01*
X133978767Y-87319684D01*
X134273144Y-87760251D01*
X134713711Y-88054628D01*
X134790991Y-88070000D01*
X134713711Y-88085372D01*
X134273144Y-88379749D01*
X133978767Y-88820316D01*
X133875395Y-89340000D01*
X133978767Y-89859684D01*
X134273144Y-90300251D01*
X134713711Y-90594628D01*
X135233395Y-90698000D01*
X135286605Y-90698000D01*
X135806289Y-90594628D01*
X136246856Y-90300251D01*
X136530000Y-89876495D01*
X136813144Y-90300251D01*
X137253711Y-90594628D01*
X137773395Y-90698000D01*
X137826605Y-90698000D01*
X138346289Y-90594628D01*
X138786856Y-90300251D01*
X139081233Y-89859684D01*
X139184605Y-89340000D01*
X139081233Y-88820316D01*
X138786856Y-88379749D01*
X138346289Y-88085372D01*
X138269009Y-88070000D01*
X138346289Y-88054628D01*
X138786856Y-87760251D01*
X139081233Y-87319684D01*
X139184605Y-86800000D01*
X139081233Y-86280316D01*
X138786856Y-85839749D01*
X138346289Y-85545372D01*
X138269009Y-85530000D01*
X138346289Y-85514628D01*
X138786856Y-85220251D01*
X139081233Y-84779684D01*
X139108111Y-84644557D01*
X140077000Y-85613446D01*
X140077000Y-88690000D01*
X140164006Y-89127407D01*
X140411777Y-89498223D01*
X150657000Y-99743446D01*
X150657000Y-102052521D01*
X150438395Y-102096004D01*
X150191184Y-102261185D01*
X148470322Y-103982048D01*
X148387770Y-103982048D01*
X148415000Y-103916310D01*
X148415000Y-103821239D01*
X148427193Y-103782887D01*
X148415000Y-103712770D01*
X148415000Y-102575750D01*
X148256250Y-102417000D01*
X146907000Y-102417000D01*
X146907000Y-105162440D01*
X146927000Y-105162440D01*
X146927000Y-105377000D01*
X146907000Y-105377000D01*
X146907000Y-105397000D01*
X146653000Y-105397000D01*
X146653000Y-105377000D01*
X146633000Y-105377000D01*
X146633000Y-105162440D01*
X146653000Y-105162440D01*
X146653000Y-102417000D01*
X145303750Y-102417000D01*
X145145000Y-102575750D01*
X145145000Y-103800008D01*
X145144016Y-103886255D01*
X145145000Y-103888661D01*
X145145000Y-103916310D01*
X145172230Y-103982048D01*
X144780000Y-103982048D01*
X144591747Y-104017470D01*
X144418847Y-104128728D01*
X144302855Y-104298488D01*
X144264478Y-104488000D01*
X144184953Y-104488000D01*
X144106269Y-104409179D01*
X143732982Y-104254176D01*
X143328792Y-104253824D01*
X142955234Y-104408175D01*
X142939265Y-104424116D01*
X142927530Y-104361747D01*
X142816272Y-104188847D01*
X142720313Y-104123281D01*
X142804699Y-104088327D01*
X142983327Y-103909698D01*
X143080000Y-103676309D01*
X143080000Y-103085750D01*
X142921250Y-102927000D01*
X141947000Y-102927000D01*
X141947000Y-102947000D01*
X141693000Y-102947000D01*
X141693000Y-102927000D01*
X140718750Y-102927000D01*
X140560000Y-103085750D01*
X140560000Y-103676309D01*
X140656673Y-103909698D01*
X140835301Y-104088327D01*
X140919886Y-104123363D01*
X140833847Y-104178728D01*
X140717855Y-104348488D01*
X140677048Y-104550000D01*
X140677048Y-106050000D01*
X140712470Y-106238253D01*
X140823728Y-106411153D01*
X140993488Y-106527145D01*
X141195000Y-106567952D01*
X142445000Y-106567952D01*
X142633253Y-106532530D01*
X142806153Y-106421272D01*
X142922145Y-106251512D01*
X142947790Y-106124870D01*
X142953731Y-106130821D01*
X143327018Y-106285824D01*
X143731208Y-106286176D01*
X144104766Y-106131825D01*
X144224800Y-106012000D01*
X144264306Y-106012000D01*
X144297470Y-106188253D01*
X144408728Y-106361153D01*
X144563077Y-106466615D01*
X144576004Y-106531605D01*
X144716417Y-106741747D01*
X144741185Y-106778815D01*
X145251185Y-107288815D01*
X145498395Y-107453996D01*
X145790000Y-107512000D01*
X149420000Y-107512000D01*
X149711605Y-107453996D01*
X149958815Y-107288815D01*
X150658815Y-106588816D01*
X150790873Y-106391176D01*
X150803728Y-106411153D01*
X150973488Y-106527145D01*
X151175000Y-106567952D01*
X152425000Y-106567952D01*
X152613253Y-106532530D01*
X152786153Y-106421272D01*
X152902145Y-106251512D01*
X152942952Y-106050000D01*
X152942952Y-104883108D01*
X162488514Y-104883108D01*
X162609181Y-105113000D01*
X163803000Y-105113000D01*
X163803000Y-103919845D01*
X163573110Y-103798524D01*
X163163076Y-103968355D01*
X162734817Y-104358642D01*
X162488514Y-104883108D01*
X152942952Y-104883108D01*
X152942952Y-104550000D01*
X152907530Y-104361747D01*
X152796272Y-104188847D01*
X152626512Y-104072855D01*
X152516905Y-104050659D01*
X152613253Y-104032530D01*
X152786153Y-103921272D01*
X152902145Y-103751512D01*
X152942952Y-103550000D01*
X152942952Y-102800241D01*
X152943000Y-102800000D01*
X152943000Y-99788446D01*
X155748223Y-96983223D01*
X155995994Y-96612407D01*
X156083000Y-96175000D01*
X156083000Y-95697144D01*
X164219791Y-103833935D01*
X164057000Y-103919845D01*
X164057000Y-105113000D01*
X164077000Y-105113000D01*
X164077000Y-105367000D01*
X164057000Y-105367000D01*
X164057000Y-105387000D01*
X163803000Y-105387000D01*
X163803000Y-105367000D01*
X162609181Y-105367000D01*
X162488514Y-105596892D01*
X162734817Y-106121358D01*
X163058275Y-106416136D01*
X162891747Y-106447470D01*
X162718847Y-106558728D01*
X162602855Y-106728488D01*
X162562048Y-106930000D01*
X162562048Y-108630000D01*
X162597470Y-108818253D01*
X162708728Y-108991153D01*
X162878488Y-109107145D01*
X163080000Y-109147952D01*
X164780000Y-109147952D01*
X164968253Y-109112530D01*
X165141153Y-109001272D01*
X165257145Y-108831512D01*
X165297952Y-108630000D01*
X165297952Y-108449879D01*
X165509749Y-108766856D01*
X165950316Y-109061233D01*
X166470000Y-109164605D01*
X166989684Y-109061233D01*
X167430251Y-108766856D01*
X167724628Y-108326289D01*
X167740000Y-108249009D01*
X167755372Y-108326289D01*
X168049749Y-108766856D01*
X168490316Y-109061233D01*
X169010000Y-109164605D01*
X169529684Y-109061233D01*
X169970251Y-108766856D01*
X170264628Y-108326289D01*
X170315170Y-108072196D01*
X178377409Y-108072196D01*
X178462467Y-108327539D01*
X179031965Y-108535516D01*
X179637700Y-108509723D01*
X180077533Y-108327539D01*
X180162591Y-108072196D01*
X179270000Y-107179605D01*
X178377409Y-108072196D01*
X170315170Y-108072196D01*
X170368000Y-107806605D01*
X170368000Y-107753395D01*
X170264628Y-107233711D01*
X169970251Y-106793144D01*
X169923589Y-106761965D01*
X177734484Y-106761965D01*
X177760277Y-107367700D01*
X177942461Y-107807533D01*
X178197804Y-107892591D01*
X179090395Y-107000000D01*
X179449605Y-107000000D01*
X180342196Y-107892591D01*
X180597539Y-107807533D01*
X180805516Y-107238035D01*
X180779723Y-106632300D01*
X180597539Y-106192467D01*
X180342196Y-106107409D01*
X179449605Y-107000000D01*
X179090395Y-107000000D01*
X178197804Y-106107409D01*
X177942461Y-106192467D01*
X177734484Y-106761965D01*
X169923589Y-106761965D01*
X169546495Y-106510000D01*
X169970251Y-106226856D01*
X170264628Y-105786289D01*
X170293130Y-105643000D01*
X178477002Y-105643000D01*
X178477630Y-105643629D01*
X178504818Y-105654919D01*
X178462467Y-105672461D01*
X178377409Y-105927804D01*
X179270000Y-106820395D01*
X180162591Y-105927804D01*
X180077533Y-105672461D01*
X180033120Y-105656242D01*
X180060303Y-105645010D01*
X180453629Y-105252370D01*
X180666757Y-104739100D01*
X180667242Y-104183339D01*
X180455010Y-103669697D01*
X180062370Y-103276371D01*
X179854488Y-103190051D01*
X180060303Y-103105010D01*
X180453629Y-102712370D01*
X180666757Y-102199100D01*
X180667242Y-101643339D01*
X180455010Y-101129697D01*
X180062370Y-100736371D01*
X179854488Y-100650051D01*
X180060303Y-100565010D01*
X180453629Y-100172370D01*
X180666757Y-99659100D01*
X180667242Y-99103339D01*
X180455010Y-98589697D01*
X180062370Y-98196371D01*
X179854488Y-98110051D01*
X180060303Y-98025010D01*
X180453629Y-97632370D01*
X180666757Y-97119100D01*
X180667242Y-96563339D01*
X180455010Y-96049697D01*
X180431763Y-96026409D01*
X180540171Y-95953973D01*
X181482072Y-95012072D01*
X181611464Y-94818424D01*
X181656900Y-94590000D01*
X181656900Y-91010000D01*
X181611464Y-90781576D01*
X181482072Y-90587928D01*
X180586507Y-89692363D01*
X180666757Y-89499100D01*
X180667242Y-88943339D01*
X180455010Y-88429697D01*
X180062370Y-88036371D01*
X179854488Y-87950051D01*
X180060303Y-87865010D01*
X180453629Y-87472370D01*
X180666757Y-86959100D01*
X180667242Y-86403339D01*
X180455010Y-85889697D01*
X180062370Y-85496371D01*
X179854488Y-85410051D01*
X180060303Y-85325010D01*
X180453629Y-84932370D01*
X180666757Y-84419100D01*
X180667242Y-83863339D01*
X180455010Y-83349697D01*
X180062370Y-82956371D01*
X179854488Y-82870051D01*
X180060303Y-82785010D01*
X180453629Y-82392370D01*
X180666757Y-81879100D01*
X180667242Y-81323339D01*
X180455010Y-80809697D01*
X180062370Y-80416371D01*
X179854488Y-80330051D01*
X180060303Y-80245010D01*
X180453629Y-79852370D01*
X180666757Y-79339100D01*
X180667242Y-78783339D01*
X180455010Y-78269697D01*
X180062370Y-77876371D01*
X179549100Y-77663243D01*
X178993339Y-77662758D01*
X178479697Y-77874990D01*
X178086371Y-78267630D01*
X177873243Y-78780900D01*
X177872979Y-79082877D01*
X177017928Y-79937928D01*
X176888536Y-80131576D01*
X176843100Y-80360000D01*
X176843100Y-82962756D01*
X171260522Y-88545334D01*
X171260522Y-84323622D01*
X190892072Y-64692072D01*
X191021464Y-64498424D01*
X191066900Y-64270000D01*
X191066900Y-61364381D01*
X191511965Y-61526916D01*
X192117700Y-61501123D01*
X192557533Y-61318939D01*
X192642591Y-61063596D01*
X191750000Y-60171005D01*
X191735858Y-60185148D01*
X191556253Y-60005543D01*
X191570395Y-59991400D01*
X191929605Y-59991400D01*
X192822196Y-60883991D01*
X193077539Y-60798933D01*
X193285516Y-60229435D01*
X193259723Y-59623700D01*
X193077539Y-59183867D01*
X192822196Y-59098809D01*
X191929605Y-59991400D01*
X191570395Y-59991400D01*
X191556253Y-59977258D01*
X191735858Y-59797653D01*
X191750000Y-59811795D01*
X192642591Y-58919204D01*
X192557533Y-58663861D01*
X191988035Y-58455884D01*
X191382300Y-58481677D01*
X191066900Y-58612319D01*
X191066900Y-56512981D01*
X191511965Y-56675516D01*
X192117700Y-56649723D01*
X192557533Y-56467539D01*
X192642591Y-56212196D01*
X191750000Y-55319605D01*
X191735858Y-55333748D01*
X191556253Y-55154143D01*
X191570395Y-55140000D01*
X191556253Y-55125858D01*
X191735858Y-54946253D01*
X191750000Y-54960395D01*
X191764143Y-54946253D01*
X191943748Y-55125858D01*
X191929605Y-55140000D01*
X192822196Y-56032591D01*
X193077539Y-55947533D01*
X193285516Y-55378035D01*
X193259723Y-54772300D01*
X193198617Y-54624777D01*
X194783100Y-56209260D01*
X194783100Y-77663238D01*
X194233339Y-77662758D01*
X193719697Y-77874990D01*
X193326371Y-78267630D01*
X193113243Y-78780900D01*
X193112758Y-79336661D01*
X193324990Y-79850303D01*
X193717630Y-80243629D01*
X193925512Y-80329949D01*
X193719697Y-80414990D01*
X193326371Y-80807630D01*
X193113243Y-81320900D01*
X193112758Y-81876661D01*
X193324990Y-82390303D01*
X193717630Y-82783629D01*
X193925512Y-82869949D01*
X193719697Y-82954990D01*
X193326371Y-83347630D01*
X193113243Y-83860900D01*
X193112758Y-84416661D01*
X193324990Y-84930303D01*
X193717630Y-85323629D01*
X193925512Y-85409949D01*
X193719697Y-85494990D01*
X193326371Y-85887630D01*
X193113243Y-86400900D01*
X193112758Y-86956661D01*
X193324990Y-87470303D01*
X193717630Y-87863629D01*
X193925512Y-87949949D01*
X193719697Y-88034990D01*
X193326371Y-88427630D01*
X193113243Y-88940900D01*
X193112758Y-89496661D01*
X193324990Y-90010303D01*
X193717630Y-90403629D01*
X193925512Y-90489949D01*
X193719697Y-90574990D01*
X193326371Y-90967630D01*
X193113243Y-91480900D01*
X193112758Y-92036661D01*
X193324990Y-92550303D01*
X193717630Y-92943629D01*
X193925512Y-93029949D01*
X193719697Y-93114990D01*
X193326371Y-93507630D01*
X193113243Y-94020900D01*
X193112758Y-94576661D01*
X193324990Y-95090303D01*
X193717630Y-95483629D01*
X193925512Y-95569949D01*
X193719697Y-95654990D01*
X193326371Y-96047630D01*
X193113243Y-96560900D01*
X193112758Y-97116661D01*
X193324990Y-97630303D01*
X193717630Y-98023629D01*
X193925512Y-98109949D01*
X193719697Y-98194990D01*
X193326371Y-98587630D01*
X193113243Y-99100900D01*
X193112758Y-99656661D01*
X193324990Y-100170303D01*
X193717630Y-100563629D01*
X193925512Y-100649949D01*
X193719697Y-100734990D01*
X193326371Y-101127630D01*
X193113243Y-101640900D01*
X193112758Y-102196661D01*
X193324990Y-102710303D01*
X193717630Y-103103629D01*
X193925512Y-103189949D01*
X193719697Y-103274990D01*
X193326371Y-103667630D01*
X193113243Y-104180900D01*
X193112758Y-104736661D01*
X193324990Y-105250303D01*
X193717630Y-105643629D01*
X193925512Y-105729949D01*
X193719697Y-105814990D01*
X193326371Y-106207630D01*
X193113243Y-106720900D01*
X193112758Y-107276661D01*
X193324990Y-107790303D01*
X193717630Y-108183629D01*
X194230900Y-108396757D01*
X194786661Y-108397242D01*
X195300303Y-108185010D01*
X195693629Y-107792370D01*
X195906757Y-107279100D01*
X195907242Y-106723339D01*
X195695010Y-106209697D01*
X195302370Y-105816371D01*
X195094488Y-105730051D01*
X195300303Y-105645010D01*
X195693629Y-105252370D01*
X195906757Y-104739100D01*
X195907242Y-104183339D01*
X195695010Y-103669697D01*
X195302370Y-103276371D01*
X195094488Y-103190051D01*
X195300303Y-103105010D01*
X195693629Y-102712370D01*
X195906757Y-102199100D01*
X195907242Y-101643339D01*
X195695010Y-101129697D01*
X195302370Y-100736371D01*
X195094488Y-100650051D01*
X195300303Y-100565010D01*
X195693629Y-100172370D01*
X195906757Y-99659100D01*
X195907242Y-99103339D01*
X195695010Y-98589697D01*
X195302370Y-98196371D01*
X195094488Y-98110051D01*
X195300303Y-98025010D01*
X195693629Y-97632370D01*
X195906757Y-97119100D01*
X195907242Y-96563339D01*
X195695010Y-96049697D01*
X195302370Y-95656371D01*
X195094488Y-95570051D01*
X195300303Y-95485010D01*
X195693629Y-95092370D01*
X195906757Y-94579100D01*
X195907242Y-94023339D01*
X195695010Y-93509697D01*
X195302370Y-93116371D01*
X195094488Y-93030051D01*
X195300303Y-92945010D01*
X195693629Y-92552370D01*
X195906757Y-92039100D01*
X195907242Y-91483339D01*
X195695010Y-90969697D01*
X195302370Y-90576371D01*
X195094488Y-90490051D01*
X195300303Y-90405010D01*
X195693629Y-90012370D01*
X195906757Y-89499100D01*
X195907242Y-88943339D01*
X195695010Y-88429697D01*
X195302370Y-88036371D01*
X195094488Y-87950051D01*
X195300303Y-87865010D01*
X195693629Y-87472370D01*
X195906757Y-86959100D01*
X195907242Y-86403339D01*
X195826417Y-86207727D01*
X197097505Y-84936639D01*
X197226897Y-84742991D01*
X197272333Y-84514567D01*
X197272333Y-55425433D01*
X197226897Y-55197009D01*
X197097505Y-55003361D01*
X194096639Y-52002495D01*
X193902991Y-51873103D01*
X193674567Y-51827667D01*
X163985433Y-51827667D01*
X163757009Y-51873103D01*
X163563361Y-52002495D01*
X161742363Y-53823493D01*
X161549100Y-53743243D01*
X160993339Y-53742758D01*
X160479697Y-53954990D01*
X160086371Y-54347630D01*
X160000051Y-54555512D01*
X159915010Y-54349697D01*
X159522370Y-53956371D01*
X159009100Y-53743243D01*
X158453339Y-53742758D01*
X157939697Y-53954990D01*
X157546371Y-54347630D01*
X157460051Y-54555512D01*
X157375010Y-54349697D01*
X156982370Y-53956371D01*
X156469100Y-53743243D01*
X155913339Y-53742758D01*
X155404797Y-53952883D01*
X155380171Y-53916027D01*
X154732072Y-53267928D01*
X154538424Y-53138536D01*
X154310000Y-53093100D01*
X152560000Y-53093100D01*
X152331576Y-53138536D01*
X152137928Y-53267928D01*
X151582363Y-53823493D01*
X151389100Y-53743243D01*
X150833339Y-53742758D01*
X150319697Y-53954990D01*
X149926371Y-54347630D01*
X149840051Y-54555512D01*
X149755010Y-54349697D01*
X149362370Y-53956371D01*
X148849100Y-53743243D01*
X148293339Y-53742758D01*
X147779697Y-53954990D01*
X147386371Y-54347630D01*
X147300051Y-54555512D01*
X147215010Y-54349697D01*
X146822370Y-53956371D01*
X146309100Y-53743243D01*
X145753339Y-53742758D01*
X145239697Y-53954990D01*
X144846371Y-54347630D01*
X144760051Y-54555512D01*
X144675010Y-54349697D01*
X144282370Y-53956371D01*
X143769100Y-53743243D01*
X143213339Y-53742758D01*
X142699697Y-53954990D01*
X142306371Y-54347630D01*
X142220051Y-54555512D01*
X142135010Y-54349697D01*
X141742370Y-53956371D01*
X141229100Y-53743243D01*
X140673339Y-53742758D01*
X140159697Y-53954990D01*
X139766371Y-54347630D01*
X139680051Y-54555512D01*
X139595010Y-54349697D01*
X139202370Y-53956371D01*
X138689100Y-53743243D01*
X138133339Y-53742758D01*
X137619697Y-53954990D01*
X137226371Y-54347630D01*
X137013243Y-54860900D01*
X137012758Y-55416661D01*
X137224990Y-55930303D01*
X137617630Y-56323629D01*
X138130900Y-56536757D01*
X138686661Y-56537242D01*
X139200303Y-56325010D01*
X139593629Y-55932370D01*
X139679949Y-55724488D01*
X139764990Y-55930303D01*
X140157630Y-56323629D01*
X140670900Y-56536757D01*
X141226661Y-56537242D01*
X141740303Y-56325010D01*
X142133629Y-55932370D01*
X142219949Y-55724488D01*
X142304990Y-55930303D01*
X142697630Y-56323629D01*
X143210900Y-56536757D01*
X143766661Y-56537242D01*
X144280303Y-56325010D01*
X144673629Y-55932370D01*
X144759949Y-55724488D01*
X144844990Y-55930303D01*
X145237630Y-56323629D01*
X145750900Y-56536757D01*
X146306661Y-56537242D01*
X146820303Y-56325010D01*
X147213629Y-55932370D01*
X147299949Y-55724488D01*
X147384990Y-55930303D01*
X147777630Y-56323629D01*
X148290900Y-56536757D01*
X148846661Y-56537242D01*
X149360303Y-56325010D01*
X149753629Y-55932370D01*
X149839949Y-55724488D01*
X149924990Y-55930303D01*
X150317630Y-56323629D01*
X150830900Y-56536757D01*
X151386661Y-56537242D01*
X151824278Y-56356423D01*
X151821199Y-56371901D01*
X151821199Y-58774066D01*
X151389100Y-58594643D01*
X150833339Y-58594158D01*
X150319697Y-58806390D01*
X149926371Y-59199030D01*
X149840051Y-59406912D01*
X149755010Y-59201097D01*
X149362370Y-58807771D01*
X148849100Y-58594643D01*
X148293339Y-58594158D01*
X147779697Y-58806390D01*
X147386371Y-59199030D01*
X147300051Y-59406912D01*
X147215010Y-59201097D01*
X146822370Y-58807771D01*
X146309100Y-58594643D01*
X145753339Y-58594158D01*
X145239697Y-58806390D01*
X144846371Y-59199030D01*
X144760051Y-59406912D01*
X144675010Y-59201097D01*
X144282370Y-58807771D01*
X143769100Y-58594643D01*
X143213339Y-58594158D01*
X142699697Y-58806390D01*
X142306371Y-59199030D01*
X142220051Y-59406912D01*
X142135010Y-59201097D01*
X141742370Y-58807771D01*
X141229100Y-58594643D01*
X140673339Y-58594158D01*
X140159697Y-58806390D01*
X139766371Y-59199030D01*
X139680051Y-59406912D01*
X139595010Y-59201097D01*
X139202370Y-58807771D01*
X138689100Y-58594643D01*
X138133339Y-58594158D01*
X137619697Y-58806390D01*
X137226371Y-59199030D01*
X137013243Y-59712300D01*
X137012758Y-60268061D01*
X137224990Y-60781703D01*
X137617630Y-61175029D01*
X138130900Y-61388157D01*
X138686661Y-61388642D01*
X139200303Y-61176410D01*
X139593629Y-60783770D01*
X139679949Y-60575888D01*
X139764990Y-60781703D01*
X140157630Y-61175029D01*
X140670900Y-61388157D01*
X141226661Y-61388642D01*
X141394959Y-61319103D01*
X145178612Y-65102756D01*
X145178612Y-86745512D01*
X145224048Y-86973936D01*
X145353440Y-87167584D01*
X151127928Y-92942072D01*
X151321576Y-93071464D01*
X151550000Y-93116900D01*
X153907800Y-93116900D01*
X154136224Y-93071464D01*
X154329872Y-92942072D01*
X154648000Y-92623944D01*
X154648000Y-93137048D01*
X154190000Y-93137048D01*
X154001747Y-93172470D01*
X153828847Y-93283728D01*
X153712855Y-93453488D01*
X153672048Y-93655000D01*
X153672048Y-94905000D01*
X153707470Y-95093253D01*
X153797000Y-95232387D01*
X153797000Y-95701554D01*
X151822500Y-97676054D01*
X142363000Y-88216554D01*
X142363000Y-85140000D01*
X142275994Y-84702593D01*
X142028223Y-84331777D01*
X139127038Y-81430592D01*
X139081233Y-81200316D01*
X138786856Y-80759749D01*
X138346289Y-80465372D01*
X138269009Y-80450000D01*
X138346289Y-80434628D01*
X138786856Y-80140251D01*
X139081233Y-79699684D01*
X139184605Y-79180000D01*
X139081233Y-78660316D01*
X138786856Y-78219749D01*
X138346289Y-77925372D01*
X137826605Y-77822000D01*
X137773395Y-77822000D01*
X137253711Y-77925372D01*
X136813144Y-78219749D01*
X136627952Y-78496909D01*
X136627952Y-78330000D01*
X136592530Y-78141747D01*
X136481272Y-77968847D01*
X136311512Y-77852855D01*
X136110000Y-77812048D01*
X134410000Y-77812048D01*
X134221747Y-77847470D01*
X134048847Y-77958728D01*
X133932855Y-78128488D01*
X133892048Y-78330000D01*
X133892048Y-80030000D01*
X133927470Y-80218253D01*
X134038728Y-80391153D01*
X134208488Y-80507145D01*
X134410000Y-80547952D01*
X134590121Y-80547952D01*
X134273144Y-80759749D01*
X133978767Y-81200316D01*
X133875395Y-81720000D01*
X130583000Y-81720000D01*
X130583000Y-52557422D01*
X130739475Y-51770767D01*
X131152551Y-51152554D01*
X131770766Y-50739475D01*
X132557422Y-50583000D01*
X197442578Y-50583000D01*
X198229233Y-50739475D01*
X198229233Y-50739475D01*
G37*
X198229233Y-50739475D02*
X198847446Y-51152551D01*
X199260525Y-51770766D01*
X199417000Y-52557422D01*
X199417000Y-112442578D01*
X199260525Y-113229234D01*
X198847446Y-113847449D01*
X198229233Y-114260525D01*
X197442578Y-114417000D01*
X132557422Y-114417000D01*
X131770766Y-114260525D01*
X131152551Y-113847446D01*
X130739475Y-113229233D01*
X130583000Y-112442578D01*
X130583000Y-101923691D01*
X140560000Y-101923691D01*
X140560000Y-102514250D01*
X140718750Y-102673000D01*
X141693000Y-102673000D01*
X141693000Y-101573750D01*
X141947000Y-101573750D01*
X141947000Y-102673000D01*
X142921250Y-102673000D01*
X143080000Y-102514250D01*
X143080000Y-101923691D01*
X142983327Y-101690302D01*
X142804699Y-101511673D01*
X142571310Y-101415000D01*
X142105750Y-101415000D01*
X141947000Y-101573750D01*
X141693000Y-101573750D01*
X141534250Y-101415000D01*
X141068690Y-101415000D01*
X140835301Y-101511673D01*
X140656673Y-101690302D01*
X140560000Y-101923691D01*
X130583000Y-101923691D01*
X130583000Y-100663690D01*
X145145000Y-100663690D01*
X145145000Y-102004250D01*
X145303750Y-102163000D01*
X146653000Y-102163000D01*
X146653000Y-100313750D01*
X146907000Y-100313750D01*
X146907000Y-102163000D01*
X148256250Y-102163000D01*
X148415000Y-102004250D01*
X148415000Y-100663690D01*
X148318327Y-100430301D01*
X148139698Y-100251673D01*
X147906309Y-100155000D01*
X147065750Y-100155000D01*
X146907000Y-100313750D01*
X146653000Y-100313750D01*
X146494250Y-100155000D01*
X145653691Y-100155000D01*
X145420302Y-100251673D01*
X145241673Y-100430301D01*
X145145000Y-100663690D01*
X130583000Y-100663690D01*
X130583000Y-81720000D01*
X133875395Y-81720000D01*
X133978767Y-82239684D01*
X134273144Y-82680251D01*
X134713711Y-82974628D01*
X134790991Y-82990000D01*
X134713711Y-83005372D01*
X134273144Y-83299749D01*
X133978767Y-83740316D01*
X133875395Y-84260000D01*
X133978767Y-84779684D01*
X134273144Y-85220251D01*
X134713711Y-85514628D01*
X134790991Y-85530000D01*
X134713711Y-85545372D01*
X134273144Y-85839749D01*
X133978767Y-86280316D01*
X133875395Y-86800000D01*
X133978767Y-87319684D01*
X134273144Y-87760251D01*
X134713711Y-88054628D01*
X134790991Y-88070000D01*
X134713711Y-88085372D01*
X134273144Y-88379749D01*
X133978767Y-88820316D01*
X133875395Y-89340000D01*
X133978767Y-89859684D01*
X134273144Y-90300251D01*
X134713711Y-90594628D01*
X135233395Y-90698000D01*
X135286605Y-90698000D01*
X135806289Y-90594628D01*
X136246856Y-90300251D01*
X136530000Y-89876495D01*
X136813144Y-90300251D01*
X137253711Y-90594628D01*
X137773395Y-90698000D01*
X137826605Y-90698000D01*
X138346289Y-90594628D01*
X138786856Y-90300251D01*
X139081233Y-89859684D01*
X139184605Y-89340000D01*
X139081233Y-88820316D01*
X138786856Y-88379749D01*
X138346289Y-88085372D01*
X138269009Y-88070000D01*
X138346289Y-88054628D01*
X138786856Y-87760251D01*
X139081233Y-87319684D01*
X139184605Y-86800000D01*
X139081233Y-86280316D01*
X138786856Y-85839749D01*
X138346289Y-85545372D01*
X138269009Y-85530000D01*
X138346289Y-85514628D01*
X138786856Y-85220251D01*
X139081233Y-84779684D01*
X139108111Y-84644557D01*
X140077000Y-85613446D01*
X140077000Y-88690000D01*
X140164006Y-89127407D01*
X140411777Y-89498223D01*
X150657000Y-99743446D01*
X150657000Y-102052521D01*
X150438395Y-102096004D01*
X150191184Y-102261185D01*
X148470322Y-103982048D01*
X148387770Y-103982048D01*
X148415000Y-103916310D01*
X148415000Y-103821239D01*
X148427193Y-103782887D01*
X148415000Y-103712770D01*
X148415000Y-102575750D01*
X148256250Y-102417000D01*
X146907000Y-102417000D01*
X146907000Y-105162440D01*
X146927000Y-105162440D01*
X146927000Y-105377000D01*
X146907000Y-105377000D01*
X146907000Y-105397000D01*
X146653000Y-105397000D01*
X146653000Y-105377000D01*
X146633000Y-105377000D01*
X146633000Y-105162440D01*
X146653000Y-105162440D01*
X146653000Y-102417000D01*
X145303750Y-102417000D01*
X145145000Y-102575750D01*
X145145000Y-103800008D01*
X145144016Y-103886255D01*
X145145000Y-103888661D01*
X145145000Y-103916310D01*
X145172230Y-103982048D01*
X144780000Y-103982048D01*
X144591747Y-104017470D01*
X144418847Y-104128728D01*
X144302855Y-104298488D01*
X144264478Y-104488000D01*
X144184953Y-104488000D01*
X144106269Y-104409179D01*
X143732982Y-104254176D01*
X143328792Y-104253824D01*
X142955234Y-104408175D01*
X142939265Y-104424116D01*
X142927530Y-104361747D01*
X142816272Y-104188847D01*
X142720313Y-104123281D01*
X142804699Y-104088327D01*
X142983327Y-103909698D01*
X143080000Y-103676309D01*
X143080000Y-103085750D01*
X142921250Y-102927000D01*
X141947000Y-102927000D01*
X141947000Y-102947000D01*
X141693000Y-102947000D01*
X141693000Y-102927000D01*
X140718750Y-102927000D01*
X140560000Y-103085750D01*
X140560000Y-103676309D01*
X140656673Y-103909698D01*
X140835301Y-104088327D01*
X140919886Y-104123363D01*
X140833847Y-104178728D01*
X140717855Y-104348488D01*
X140677048Y-104550000D01*
X140677048Y-106050000D01*
X140712470Y-106238253D01*
X140823728Y-106411153D01*
X140993488Y-106527145D01*
X141195000Y-106567952D01*
X142445000Y-106567952D01*
X142633253Y-106532530D01*
X142806153Y-106421272D01*
X142922145Y-106251512D01*
X142947790Y-106124870D01*
X142953731Y-106130821D01*
X143327018Y-106285824D01*
X143731208Y-106286176D01*
X144104766Y-106131825D01*
X144224800Y-106012000D01*
X144264306Y-106012000D01*
X144297470Y-106188253D01*
X144408728Y-106361153D01*
X144563077Y-106466615D01*
X144576004Y-106531605D01*
X144716417Y-106741747D01*
X144741185Y-106778815D01*
X145251185Y-107288815D01*
X145498395Y-107453996D01*
X145790000Y-107512000D01*
X149420000Y-107512000D01*
X149711605Y-107453996D01*
X149958815Y-107288815D01*
X150658815Y-106588816D01*
X150790873Y-106391176D01*
X150803728Y-106411153D01*
X150973488Y-106527145D01*
X151175000Y-106567952D01*
X152425000Y-106567952D01*
X152613253Y-106532530D01*
X152786153Y-106421272D01*
X152902145Y-106251512D01*
X152942952Y-106050000D01*
X152942952Y-104883108D01*
X162488514Y-104883108D01*
X162609181Y-105113000D01*
X163803000Y-105113000D01*
X163803000Y-103919845D01*
X163573110Y-103798524D01*
X163163076Y-103968355D01*
X162734817Y-104358642D01*
X162488514Y-104883108D01*
X152942952Y-104883108D01*
X152942952Y-104550000D01*
X152907530Y-104361747D01*
X152796272Y-104188847D01*
X152626512Y-104072855D01*
X152516905Y-104050659D01*
X152613253Y-104032530D01*
X152786153Y-103921272D01*
X152902145Y-103751512D01*
X152942952Y-103550000D01*
X152942952Y-102800241D01*
X152943000Y-102800000D01*
X152943000Y-99788446D01*
X155748223Y-96983223D01*
X155995994Y-96612407D01*
X156083000Y-96175000D01*
X156083000Y-95697144D01*
X164219791Y-103833935D01*
X164057000Y-103919845D01*
X164057000Y-105113000D01*
X164077000Y-105113000D01*
X164077000Y-105367000D01*
X164057000Y-105367000D01*
X164057000Y-105387000D01*
X163803000Y-105387000D01*
X163803000Y-105367000D01*
X162609181Y-105367000D01*
X162488514Y-105596892D01*
X162734817Y-106121358D01*
X163058275Y-106416136D01*
X162891747Y-106447470D01*
X162718847Y-106558728D01*
X162602855Y-106728488D01*
X162562048Y-106930000D01*
X162562048Y-108630000D01*
X162597470Y-108818253D01*
X162708728Y-108991153D01*
X162878488Y-109107145D01*
X163080000Y-109147952D01*
X164780000Y-109147952D01*
X164968253Y-109112530D01*
X165141153Y-109001272D01*
X165257145Y-108831512D01*
X165297952Y-108630000D01*
X165297952Y-108449879D01*
X165509749Y-108766856D01*
X165950316Y-109061233D01*
X166470000Y-109164605D01*
X166989684Y-109061233D01*
X167430251Y-108766856D01*
X167724628Y-108326289D01*
X167740000Y-108249009D01*
X167755372Y-108326289D01*
X168049749Y-108766856D01*
X168490316Y-109061233D01*
X169010000Y-109164605D01*
X169529684Y-109061233D01*
X169970251Y-108766856D01*
X170264628Y-108326289D01*
X170315170Y-108072196D01*
X178377409Y-108072196D01*
X178462467Y-108327539D01*
X179031965Y-108535516D01*
X179637700Y-108509723D01*
X180077533Y-108327539D01*
X180162591Y-108072196D01*
X179270000Y-107179605D01*
X178377409Y-108072196D01*
X170315170Y-108072196D01*
X170368000Y-107806605D01*
X170368000Y-107753395D01*
X170264628Y-107233711D01*
X169970251Y-106793144D01*
X169923589Y-106761965D01*
X177734484Y-106761965D01*
X177760277Y-107367700D01*
X177942461Y-107807533D01*
X178197804Y-107892591D01*
X179090395Y-107000000D01*
X179449605Y-107000000D01*
X180342196Y-107892591D01*
X180597539Y-107807533D01*
X180805516Y-107238035D01*
X180779723Y-106632300D01*
X180597539Y-106192467D01*
X180342196Y-106107409D01*
X179449605Y-107000000D01*
X179090395Y-107000000D01*
X178197804Y-106107409D01*
X177942461Y-106192467D01*
X177734484Y-106761965D01*
X169923589Y-106761965D01*
X169546495Y-106510000D01*
X169970251Y-106226856D01*
X170264628Y-105786289D01*
X170293130Y-105643000D01*
X178477002Y-105643000D01*
X178477630Y-105643629D01*
X178504818Y-105654919D01*
X178462467Y-105672461D01*
X178377409Y-105927804D01*
X179270000Y-106820395D01*
X180162591Y-105927804D01*
X180077533Y-105672461D01*
X180033120Y-105656242D01*
X180060303Y-105645010D01*
X180453629Y-105252370D01*
X180666757Y-104739100D01*
X180667242Y-104183339D01*
X180455010Y-103669697D01*
X180062370Y-103276371D01*
X179854488Y-103190051D01*
X180060303Y-103105010D01*
X180453629Y-102712370D01*
X180666757Y-102199100D01*
X180667242Y-101643339D01*
X180455010Y-101129697D01*
X180062370Y-100736371D01*
X179854488Y-100650051D01*
X180060303Y-100565010D01*
X180453629Y-100172370D01*
X180666757Y-99659100D01*
X180667242Y-99103339D01*
X180455010Y-98589697D01*
X180062370Y-98196371D01*
X179854488Y-98110051D01*
X180060303Y-98025010D01*
X180453629Y-97632370D01*
X180666757Y-97119100D01*
X180667242Y-96563339D01*
X180455010Y-96049697D01*
X180431763Y-96026409D01*
X180540171Y-95953973D01*
X181482072Y-95012072D01*
X181611464Y-94818424D01*
X181656900Y-94590000D01*
X181656900Y-91010000D01*
X181611464Y-90781576D01*
X181482072Y-90587928D01*
X180586507Y-89692363D01*
X180666757Y-89499100D01*
X180667242Y-88943339D01*
X180455010Y-88429697D01*
X180062370Y-88036371D01*
X179854488Y-87950051D01*
X180060303Y-87865010D01*
X180453629Y-87472370D01*
X180666757Y-86959100D01*
X180667242Y-86403339D01*
X180455010Y-85889697D01*
X180062370Y-85496371D01*
X179854488Y-85410051D01*
X180060303Y-85325010D01*
X180453629Y-84932370D01*
X180666757Y-84419100D01*
X180667242Y-83863339D01*
X180455010Y-83349697D01*
X180062370Y-82956371D01*
X179854488Y-82870051D01*
X180060303Y-82785010D01*
X180453629Y-82392370D01*
X180666757Y-81879100D01*
X180667242Y-81323339D01*
X180455010Y-80809697D01*
X180062370Y-80416371D01*
X179854488Y-80330051D01*
X180060303Y-80245010D01*
X180453629Y-79852370D01*
X180666757Y-79339100D01*
X180667242Y-78783339D01*
X180455010Y-78269697D01*
X180062370Y-77876371D01*
X179549100Y-77663243D01*
X178993339Y-77662758D01*
X178479697Y-77874990D01*
X178086371Y-78267630D01*
X177873243Y-78780900D01*
X177872979Y-79082877D01*
X177017928Y-79937928D01*
X176888536Y-80131576D01*
X176843100Y-80360000D01*
X176843100Y-82962756D01*
X171260522Y-88545334D01*
X171260522Y-84323622D01*
X190892072Y-64692072D01*
X191021464Y-64498424D01*
X191066900Y-64270000D01*
X191066900Y-61364381D01*
X191511965Y-61526916D01*
X192117700Y-61501123D01*
X192557533Y-61318939D01*
X192642591Y-61063596D01*
X191750000Y-60171005D01*
X191735858Y-60185148D01*
X191556253Y-60005543D01*
X191570395Y-59991400D01*
X191929605Y-59991400D01*
X192822196Y-60883991D01*
X193077539Y-60798933D01*
X193285516Y-60229435D01*
X193259723Y-59623700D01*
X193077539Y-59183867D01*
X192822196Y-59098809D01*
X191929605Y-59991400D01*
X191570395Y-59991400D01*
X191556253Y-59977258D01*
X191735858Y-59797653D01*
X191750000Y-59811795D01*
X192642591Y-58919204D01*
X192557533Y-58663861D01*
X191988035Y-58455884D01*
X191382300Y-58481677D01*
X191066900Y-58612319D01*
X191066900Y-56512981D01*
X191511965Y-56675516D01*
X192117700Y-56649723D01*
X192557533Y-56467539D01*
X192642591Y-56212196D01*
X191750000Y-55319605D01*
X191735858Y-55333748D01*
X191556253Y-55154143D01*
X191570395Y-55140000D01*
X191556253Y-55125858D01*
X191735858Y-54946253D01*
X191750000Y-54960395D01*
X191764143Y-54946253D01*
X191943748Y-55125858D01*
X191929605Y-55140000D01*
X192822196Y-56032591D01*
X193077539Y-55947533D01*
X193285516Y-55378035D01*
X193259723Y-54772300D01*
X193198617Y-54624777D01*
X194783100Y-56209260D01*
X194783100Y-77663238D01*
X194233339Y-77662758D01*
X193719697Y-77874990D01*
X193326371Y-78267630D01*
X193113243Y-78780900D01*
X193112758Y-79336661D01*
X193324990Y-79850303D01*
X193717630Y-80243629D01*
X193925512Y-80329949D01*
X193719697Y-80414990D01*
X193326371Y-80807630D01*
X193113243Y-81320900D01*
X193112758Y-81876661D01*
X193324990Y-82390303D01*
X193717630Y-82783629D01*
X193925512Y-82869949D01*
X193719697Y-82954990D01*
X193326371Y-83347630D01*
X193113243Y-83860900D01*
X193112758Y-84416661D01*
X193324990Y-84930303D01*
X193717630Y-85323629D01*
X193925512Y-85409949D01*
X193719697Y-85494990D01*
X193326371Y-85887630D01*
X193113243Y-86400900D01*
X193112758Y-86956661D01*
X193324990Y-87470303D01*
X193717630Y-87863629D01*
X193925512Y-87949949D01*
X193719697Y-88034990D01*
X193326371Y-88427630D01*
X193113243Y-88940900D01*
X193112758Y-89496661D01*
X193324990Y-90010303D01*
X193717630Y-90403629D01*
X193925512Y-90489949D01*
X193719697Y-90574990D01*
X193326371Y-90967630D01*
X193113243Y-91480900D01*
X193112758Y-92036661D01*
X193324990Y-92550303D01*
X193717630Y-92943629D01*
X193925512Y-93029949D01*
X193719697Y-93114990D01*
X193326371Y-93507630D01*
X193113243Y-94020900D01*
X193112758Y-94576661D01*
X193324990Y-95090303D01*
X193717630Y-95483629D01*
X193925512Y-95569949D01*
X193719697Y-95654990D01*
X193326371Y-96047630D01*
X193113243Y-96560900D01*
X193112758Y-97116661D01*
X193324990Y-97630303D01*
X193717630Y-98023629D01*
X193925512Y-98109949D01*
X193719697Y-98194990D01*
X193326371Y-98587630D01*
X193113243Y-99100900D01*
X193112758Y-99656661D01*
X193324990Y-100170303D01*
X193717630Y-100563629D01*
X193925512Y-100649949D01*
X193719697Y-100734990D01*
X193326371Y-101127630D01*
X193113243Y-101640900D01*
X193112758Y-102196661D01*
X193324990Y-102710303D01*
X193717630Y-103103629D01*
X193925512Y-103189949D01*
X193719697Y-103274990D01*
X193326371Y-103667630D01*
X193113243Y-104180900D01*
X193112758Y-104736661D01*
X193324990Y-105250303D01*
X193717630Y-105643629D01*
X193925512Y-105729949D01*
X193719697Y-105814990D01*
X193326371Y-106207630D01*
X193113243Y-106720900D01*
X193112758Y-107276661D01*
X193324990Y-107790303D01*
X193717630Y-108183629D01*
X194230900Y-108396757D01*
X194786661Y-108397242D01*
X195300303Y-108185010D01*
X195693629Y-107792370D01*
X195906757Y-107279100D01*
X195907242Y-106723339D01*
X195695010Y-106209697D01*
X195302370Y-105816371D01*
X195094488Y-105730051D01*
X195300303Y-105645010D01*
X195693629Y-105252370D01*
X195906757Y-104739100D01*
X195907242Y-104183339D01*
X195695010Y-103669697D01*
X195302370Y-103276371D01*
X195094488Y-103190051D01*
X195300303Y-103105010D01*
X195693629Y-102712370D01*
X195906757Y-102199100D01*
X195907242Y-101643339D01*
X195695010Y-101129697D01*
X195302370Y-100736371D01*
X195094488Y-100650051D01*
X195300303Y-100565010D01*
X195693629Y-100172370D01*
X195906757Y-99659100D01*
X195907242Y-99103339D01*
X195695010Y-98589697D01*
X195302370Y-98196371D01*
X195094488Y-98110051D01*
X195300303Y-98025010D01*
X195693629Y-97632370D01*
X195906757Y-97119100D01*
X195907242Y-96563339D01*
X195695010Y-96049697D01*
X195302370Y-95656371D01*
X195094488Y-95570051D01*
X195300303Y-95485010D01*
X195693629Y-95092370D01*
X195906757Y-94579100D01*
X195907242Y-94023339D01*
X195695010Y-93509697D01*
X195302370Y-93116371D01*
X195094488Y-93030051D01*
X195300303Y-92945010D01*
X195693629Y-92552370D01*
X195906757Y-92039100D01*
X195907242Y-91483339D01*
X195695010Y-90969697D01*
X195302370Y-90576371D01*
X195094488Y-90490051D01*
X195300303Y-90405010D01*
X195693629Y-90012370D01*
X195906757Y-89499100D01*
X195907242Y-88943339D01*
X195695010Y-88429697D01*
X195302370Y-88036371D01*
X195094488Y-87950051D01*
X195300303Y-87865010D01*
X195693629Y-87472370D01*
X195906757Y-86959100D01*
X195907242Y-86403339D01*
X195826417Y-86207727D01*
X197097505Y-84936639D01*
X197226897Y-84742991D01*
X197272333Y-84514567D01*
X197272333Y-55425433D01*
X197226897Y-55197009D01*
X197097505Y-55003361D01*
X194096639Y-52002495D01*
X193902991Y-51873103D01*
X193674567Y-51827667D01*
X163985433Y-51827667D01*
X163757009Y-51873103D01*
X163563361Y-52002495D01*
X161742363Y-53823493D01*
X161549100Y-53743243D01*
X160993339Y-53742758D01*
X160479697Y-53954990D01*
X160086371Y-54347630D01*
X160000051Y-54555512D01*
X159915010Y-54349697D01*
X159522370Y-53956371D01*
X159009100Y-53743243D01*
X158453339Y-53742758D01*
X157939697Y-53954990D01*
X157546371Y-54347630D01*
X157460051Y-54555512D01*
X157375010Y-54349697D01*
X156982370Y-53956371D01*
X156469100Y-53743243D01*
X155913339Y-53742758D01*
X155404797Y-53952883D01*
X155380171Y-53916027D01*
X154732072Y-53267928D01*
X154538424Y-53138536D01*
X154310000Y-53093100D01*
X152560000Y-53093100D01*
X152331576Y-53138536D01*
X152137928Y-53267928D01*
X151582363Y-53823493D01*
X151389100Y-53743243D01*
X150833339Y-53742758D01*
X150319697Y-53954990D01*
X149926371Y-54347630D01*
X149840051Y-54555512D01*
X149755010Y-54349697D01*
X149362370Y-53956371D01*
X148849100Y-53743243D01*
X148293339Y-53742758D01*
X147779697Y-53954990D01*
X147386371Y-54347630D01*
X147300051Y-54555512D01*
X147215010Y-54349697D01*
X146822370Y-53956371D01*
X146309100Y-53743243D01*
X145753339Y-53742758D01*
X145239697Y-53954990D01*
X144846371Y-54347630D01*
X144760051Y-54555512D01*
X144675010Y-54349697D01*
X144282370Y-53956371D01*
X143769100Y-53743243D01*
X143213339Y-53742758D01*
X142699697Y-53954990D01*
X142306371Y-54347630D01*
X142220051Y-54555512D01*
X142135010Y-54349697D01*
X141742370Y-53956371D01*
X141229100Y-53743243D01*
X140673339Y-53742758D01*
X140159697Y-53954990D01*
X139766371Y-54347630D01*
X139680051Y-54555512D01*
X139595010Y-54349697D01*
X139202370Y-53956371D01*
X138689100Y-53743243D01*
X138133339Y-53742758D01*
X137619697Y-53954990D01*
X137226371Y-54347630D01*
X137013243Y-54860900D01*
X137012758Y-55416661D01*
X137224990Y-55930303D01*
X137617630Y-56323629D01*
X138130900Y-56536757D01*
X138686661Y-56537242D01*
X139200303Y-56325010D01*
X139593629Y-55932370D01*
X139679949Y-55724488D01*
X139764990Y-55930303D01*
X140157630Y-56323629D01*
X140670900Y-56536757D01*
X141226661Y-56537242D01*
X141740303Y-56325010D01*
X142133629Y-55932370D01*
X142219949Y-55724488D01*
X142304990Y-55930303D01*
X142697630Y-56323629D01*
X143210900Y-56536757D01*
X143766661Y-56537242D01*
X144280303Y-56325010D01*
X144673629Y-55932370D01*
X144759949Y-55724488D01*
X144844990Y-55930303D01*
X145237630Y-56323629D01*
X145750900Y-56536757D01*
X146306661Y-56537242D01*
X146820303Y-56325010D01*
X147213629Y-55932370D01*
X147299949Y-55724488D01*
X147384990Y-55930303D01*
X147777630Y-56323629D01*
X148290900Y-56536757D01*
X148846661Y-56537242D01*
X149360303Y-56325010D01*
X149753629Y-55932370D01*
X149839949Y-55724488D01*
X149924990Y-55930303D01*
X150317630Y-56323629D01*
X150830900Y-56536757D01*
X151386661Y-56537242D01*
X151824278Y-56356423D01*
X151821199Y-56371901D01*
X151821199Y-58774066D01*
X151389100Y-58594643D01*
X150833339Y-58594158D01*
X150319697Y-58806390D01*
X149926371Y-59199030D01*
X149840051Y-59406912D01*
X149755010Y-59201097D01*
X149362370Y-58807771D01*
X148849100Y-58594643D01*
X148293339Y-58594158D01*
X147779697Y-58806390D01*
X147386371Y-59199030D01*
X147300051Y-59406912D01*
X147215010Y-59201097D01*
X146822370Y-58807771D01*
X146309100Y-58594643D01*
X145753339Y-58594158D01*
X145239697Y-58806390D01*
X144846371Y-59199030D01*
X144760051Y-59406912D01*
X144675010Y-59201097D01*
X144282370Y-58807771D01*
X143769100Y-58594643D01*
X143213339Y-58594158D01*
X142699697Y-58806390D01*
X142306371Y-59199030D01*
X142220051Y-59406912D01*
X142135010Y-59201097D01*
X141742370Y-58807771D01*
X141229100Y-58594643D01*
X140673339Y-58594158D01*
X140159697Y-58806390D01*
X139766371Y-59199030D01*
X139680051Y-59406912D01*
X139595010Y-59201097D01*
X139202370Y-58807771D01*
X138689100Y-58594643D01*
X138133339Y-58594158D01*
X137619697Y-58806390D01*
X137226371Y-59199030D01*
X137013243Y-59712300D01*
X137012758Y-60268061D01*
X137224990Y-60781703D01*
X137617630Y-61175029D01*
X138130900Y-61388157D01*
X138686661Y-61388642D01*
X139200303Y-61176410D01*
X139593629Y-60783770D01*
X139679949Y-60575888D01*
X139764990Y-60781703D01*
X140157630Y-61175029D01*
X140670900Y-61388157D01*
X141226661Y-61388642D01*
X141394959Y-61319103D01*
X145178612Y-65102756D01*
X145178612Y-86745512D01*
X145224048Y-86973936D01*
X145353440Y-87167584D01*
X151127928Y-92942072D01*
X151321576Y-93071464D01*
X151550000Y-93116900D01*
X153907800Y-93116900D01*
X154136224Y-93071464D01*
X154329872Y-92942072D01*
X154648000Y-92623944D01*
X154648000Y-93137048D01*
X154190000Y-93137048D01*
X154001747Y-93172470D01*
X153828847Y-93283728D01*
X153712855Y-93453488D01*
X153672048Y-93655000D01*
X153672048Y-94905000D01*
X153707470Y-95093253D01*
X153797000Y-95232387D01*
X153797000Y-95701554D01*
X151822500Y-97676054D01*
X142363000Y-88216554D01*
X142363000Y-85140000D01*
X142275994Y-84702593D01*
X142028223Y-84331777D01*
X139127038Y-81430592D01*
X139081233Y-81200316D01*
X138786856Y-80759749D01*
X138346289Y-80465372D01*
X138269009Y-80450000D01*
X138346289Y-80434628D01*
X138786856Y-80140251D01*
X139081233Y-79699684D01*
X139184605Y-79180000D01*
X139081233Y-78660316D01*
X138786856Y-78219749D01*
X138346289Y-77925372D01*
X137826605Y-77822000D01*
X137773395Y-77822000D01*
X137253711Y-77925372D01*
X136813144Y-78219749D01*
X136627952Y-78496909D01*
X136627952Y-78330000D01*
X136592530Y-78141747D01*
X136481272Y-77968847D01*
X136311512Y-77852855D01*
X136110000Y-77812048D01*
X134410000Y-77812048D01*
X134221747Y-77847470D01*
X134048847Y-77958728D01*
X133932855Y-78128488D01*
X133892048Y-78330000D01*
X133892048Y-80030000D01*
X133927470Y-80218253D01*
X134038728Y-80391153D01*
X134208488Y-80507145D01*
X134410000Y-80547952D01*
X134590121Y-80547952D01*
X134273144Y-80759749D01*
X133978767Y-81200316D01*
X133875395Y-81720000D01*
X130583000Y-81720000D01*
X130583000Y-52557422D01*
X130739475Y-51770767D01*
X131152551Y-51152554D01*
X131770766Y-50739475D01*
X132557422Y-50583000D01*
X197442578Y-50583000D01*
X198229233Y-50739475D01*
M02*
