<?xml version="1.0" standalone="no"?>
 <!DOCTYPE svg PUBLIC "-//W3C//DTD SVG 1.1//EN" 
 "http://www.w3.org/Graphics/SVG/1.1/DTD/svg11.dtd"> 
<svg xmlns="http://www.w3.org/2000/svg" version="1.1" 
    width="29.7002cm" height="21.0007cm" viewBox="0 0 116930 82680 ">
<title>SVG Picture created as atsamd11_pro_micro-B.Preview.svg date 2017/10/30 19:39:58 </title>
  <desc>Picture generated by PCBNEW </desc>
<g style="fill:#000000; fill-opacity:1;stroke:#000000; stroke-opacity:1;
stroke-linecap:round; stroke-linejoin:round; "
 transform="translate(0 0) scale(1 1)">
</g>
<g style="fill:#008400; fill-opacity:0.0; 
stroke:#008400; stroke-width:-0.000393701; stroke-opacity:1; 
stroke-linecap:round; stroke-linejoin:round;">
</g>
<g style="fill:#840000; fill-opacity:0.0; 
stroke:#840000; stroke-width:-0.000393701; stroke-opacity:1; 
stroke-linecap:round; stroke-linejoin:round;">
</g>
<g style="fill:#840000; fill-opacity:1.0; 
stroke:#840000; stroke-width:0; stroke-opacity:1; 
stroke-linecap:round; stroke-linejoin:round;">
<circle cx="64930" cy="44500" r="350" /> 
</g>
<g style="fill:#840000; fill-opacity:1.0; 
stroke:#840000; stroke-width:39.3701; stroke-opacity:1; 
stroke-linecap:round; stroke-linejoin:round;">
</g>
<g style="fill:#840000; fill-opacity:1.0; 
stroke:#840000; stroke-width:0; stroke-opacity:1; 
stroke-linecap:round; stroke-linejoin:round;">
<polyline style="fill-rule:evenodd;"
points="65280,50850
65280,50150
64580,50150
64580,50850
65280,50850
" /> 
<circle cx="63930" cy="44500" r="350" /> 
</g>
<g style="fill:#840000; fill-opacity:1.0; 
stroke:#840000; stroke-width:39.3701; stroke-opacity:1; 
stroke-linecap:round; stroke-linejoin:round;">
</g>
<g style="fill:#840000; fill-opacity:1.0; 
stroke:#840000; stroke-width:0; stroke-opacity:1; 
stroke-linecap:round; stroke-linejoin:round;">
<circle cx="63930" cy="50500" r="350" /> 
</g>
<g style="fill:#840000; fill-opacity:1.0; 
stroke:#840000; stroke-width:39.3701; stroke-opacity:1; 
stroke-linecap:round; stroke-linejoin:round;">
</g>
<g style="fill:#840000; fill-opacity:1.0; 
stroke:#840000; stroke-width:0; stroke-opacity:1; 
stroke-linecap:round; stroke-linejoin:round;">
<circle cx="62930" cy="44500" r="350" /> 
</g>
<g style="fill:#840000; fill-opacity:1.0; 
stroke:#840000; stroke-width:39.3701; stroke-opacity:1; 
stroke-linecap:round; stroke-linejoin:round;">
</g>
<g style="fill:#840000; fill-opacity:1.0; 
stroke:#840000; stroke-width:0; stroke-opacity:1; 
stroke-linecap:round; stroke-linejoin:round;">
<circle cx="62930" cy="50500" r="350" /> 
</g>
<g style="fill:#840000; fill-opacity:1.0; 
stroke:#840000; stroke-width:39.3701; stroke-opacity:1; 
stroke-linecap:round; stroke-linejoin:round;">
</g>
<g style="fill:#840000; fill-opacity:1.0; 
stroke:#840000; stroke-width:0; stroke-opacity:1; 
stroke-linecap:round; stroke-linejoin:round;">
<circle cx="61930" cy="44500" r="350" /> 
</g>
<g style="fill:#840000; fill-opacity:1.0; 
stroke:#840000; stroke-width:39.3701; stroke-opacity:1; 
stroke-linecap:round; stroke-linejoin:round;">
</g>
<g style="fill:#840000; fill-opacity:1.0; 
stroke:#840000; stroke-width:0; stroke-opacity:1; 
stroke-linecap:round; stroke-linejoin:round;">
<circle cx="61930" cy="50500" r="350" /> 
</g>
<g style="fill:#840000; fill-opacity:1.0; 
stroke:#840000; stroke-width:39.3701; stroke-opacity:1; 
stroke-linecap:round; stroke-linejoin:round;">
</g>
<g style="fill:#840000; fill-opacity:1.0; 
stroke:#840000; stroke-width:0; stroke-opacity:1; 
stroke-linecap:round; stroke-linejoin:round;">
<circle cx="60930" cy="44500" r="350" /> 
</g>
<g style="fill:#840000; fill-opacity:1.0; 
stroke:#840000; stroke-width:39.3701; stroke-opacity:1; 
stroke-linecap:round; stroke-linejoin:round;">
</g>
<g style="fill:#840000; fill-opacity:1.0; 
stroke:#840000; stroke-width:0; stroke-opacity:1; 
stroke-linecap:round; stroke-linejoin:round;">
<circle cx="60930" cy="50500" r="350" /> 
</g>
<g style="fill:#840000; fill-opacity:1.0; 
stroke:#840000; stroke-width:39.3701; stroke-opacity:1; 
stroke-linecap:round; stroke-linejoin:round;">
</g>
<g style="fill:#840000; fill-opacity:1.0; 
stroke:#840000; stroke-width:0; stroke-opacity:1; 
stroke-linecap:round; stroke-linejoin:round;">
<circle cx="59930" cy="44500" r="350" /> 
</g>
<g style="fill:#840000; fill-opacity:1.0; 
stroke:#840000; stroke-width:39.3701; stroke-opacity:1; 
stroke-linecap:round; stroke-linejoin:round;">
</g>
<g style="fill:#840000; fill-opacity:1.0; 
stroke:#840000; stroke-width:0; stroke-opacity:1; 
stroke-linecap:round; stroke-linejoin:round;">
<circle cx="59930" cy="50500" r="350" /> 
</g>
<g style="fill:#840000; fill-opacity:1.0; 
stroke:#840000; stroke-width:39.3701; stroke-opacity:1; 
stroke-linecap:round; stroke-linejoin:round;">
</g>
<g style="fill:#840000; fill-opacity:1.0; 
stroke:#840000; stroke-width:0; stroke-opacity:1; 
stroke-linecap:round; stroke-linejoin:round;">
<circle cx="58930" cy="44500" r="350" /> 
</g>
<g style="fill:#840000; fill-opacity:1.0; 
stroke:#840000; stroke-width:39.3701; stroke-opacity:1; 
stroke-linecap:round; stroke-linejoin:round;">
</g>
<g style="fill:#840000; fill-opacity:1.0; 
stroke:#840000; stroke-width:0; stroke-opacity:1; 
stroke-linecap:round; stroke-linejoin:round;">
<circle cx="58930" cy="50500" r="350" /> 
</g>
<g style="fill:#840000; fill-opacity:1.0; 
stroke:#840000; stroke-width:39.3701; stroke-opacity:1; 
stroke-linecap:round; stroke-linejoin:round;">
</g>
<g style="fill:#840000; fill-opacity:1.0; 
stroke:#840000; stroke-width:0; stroke-opacity:1; 
stroke-linecap:round; stroke-linejoin:round;">
<circle cx="57930" cy="44500" r="350" /> 
</g>
<g style="fill:#840000; fill-opacity:1.0; 
stroke:#840000; stroke-width:39.3701; stroke-opacity:1; 
stroke-linecap:round; stroke-linejoin:round;">
</g>
<g style="fill:#840000; fill-opacity:1.0; 
stroke:#840000; stroke-width:0; stroke-opacity:1; 
stroke-linecap:round; stroke-linejoin:round;">
<circle cx="57930" cy="50500" r="350" /> 
</g>
<g style="fill:#840000; fill-opacity:1.0; 
stroke:#840000; stroke-width:39.3701; stroke-opacity:1; 
stroke-linecap:round; stroke-linejoin:round;">
</g>
<g style="fill:#840000; fill-opacity:1.0; 
stroke:#840000; stroke-width:0; stroke-opacity:1; 
stroke-linecap:round; stroke-linejoin:round;">
<circle cx="56930" cy="44500" r="350" /> 
</g>
<g style="fill:#840000; fill-opacity:1.0; 
stroke:#840000; stroke-width:39.3701; stroke-opacity:1; 
stroke-linecap:round; stroke-linejoin:round;">
</g>
<g style="fill:#840000; fill-opacity:1.0; 
stroke:#840000; stroke-width:0; stroke-opacity:1; 
stroke-linecap:round; stroke-linejoin:round;">
<circle cx="56930" cy="50500" r="350" /> 
</g>
<g style="fill:#840000; fill-opacity:1.0; 
stroke:#840000; stroke-width:39.3701; stroke-opacity:1; 
stroke-linecap:round; stroke-linejoin:round;">
</g>
<g style="fill:#840000; fill-opacity:1.0; 
stroke:#840000; stroke-width:0; stroke-opacity:1; 
stroke-linecap:round; stroke-linejoin:round;">
<circle cx="55930" cy="44500" r="350" /> 
</g>
<g style="fill:#840000; fill-opacity:1.0; 
stroke:#840000; stroke-width:39.3701; stroke-opacity:1; 
stroke-linecap:round; stroke-linejoin:round;">
</g>
<g style="fill:#840000; fill-opacity:1.0; 
stroke:#840000; stroke-width:0; stroke-opacity:1; 
stroke-linecap:round; stroke-linejoin:round;">
<circle cx="55930" cy="50500" r="350" /> 
</g>
<g style="fill:#840000; fill-opacity:1.0; 
stroke:#840000; stroke-width:39.3701; stroke-opacity:1; 
stroke-linecap:round; stroke-linejoin:round;">
</g>
<g style="fill:#840000; fill-opacity:1.0; 
stroke:#840000; stroke-width:0; stroke-opacity:1; 
stroke-linecap:round; stroke-linejoin:round;">
<circle cx="54930" cy="44500" r="350" /> 
</g>
<g style="fill:#840000; fill-opacity:1.0; 
stroke:#840000; stroke-width:39.3701; stroke-opacity:1; 
stroke-linecap:round; stroke-linejoin:round;">
</g>
<g style="fill:#840000; fill-opacity:1.0; 
stroke:#840000; stroke-width:0; stroke-opacity:1; 
stroke-linecap:round; stroke-linejoin:round;">
<circle cx="54930" cy="50500" r="350" /> 
</g>
<g style="fill:#840000; fill-opacity:1.0; 
stroke:#840000; stroke-width:39.3701; stroke-opacity:1; 
stroke-linecap:round; stroke-linejoin:round;">
</g>
<g style="fill:#840000; fill-opacity:1.0; 
stroke:#840000; stroke-width:0; stroke-opacity:1; 
stroke-linecap:round; stroke-linejoin:round;">
<circle cx="53930" cy="44500" r="350" /> 
</g>
<g style="fill:#840000; fill-opacity:1.0; 
stroke:#840000; stroke-width:39.3701; stroke-opacity:1; 
stroke-linecap:round; stroke-linejoin:round;">
</g>
<g style="fill:#840000; fill-opacity:1.0; 
stroke:#840000; stroke-width:0; stroke-opacity:1; 
stroke-linecap:round; stroke-linejoin:round;">
<circle cx="53930" cy="50500" r="350" /> 
</g>
<g style="fill:#840000; fill-opacity:1.0; 
stroke:#840000; stroke-width:39.3701; stroke-opacity:1; 
stroke-linecap:round; stroke-linejoin:round;">
</g>
<g style="fill:#840000; fill-opacity:1.0; 
stroke:#840000; stroke-width:0; stroke-opacity:1; 
stroke-linecap:round; stroke-linejoin:round;">
<circle cx="64792.2" cy="46519.7" r="285.433" /> 
</g>
<g style="fill:#840000; fill-opacity:1.0; 
stroke:#840000; stroke-width:39.3701; stroke-opacity:1; 
stroke-linecap:round; stroke-linejoin:round;">
</g>
<g style="fill:#840000; fill-opacity:1.0; 
stroke:#840000; stroke-width:0; stroke-opacity:1; 
stroke-linecap:round; stroke-linejoin:round;">
<circle cx="64792.2" cy="48488.2" r="285.433" /> 
</g>
<g style="fill:#840000; fill-opacity:1.0; 
stroke:#840000; stroke-width:39.3701; stroke-opacity:1; 
stroke-linecap:round; stroke-linejoin:round;">
</g>
<g style="fill:#840000; fill-opacity:1.0; 
stroke:#840000; stroke-width:0; stroke-opacity:1; 
stroke-linecap:round; stroke-linejoin:round;">
<circle cx="65855.2" cy="46126" r="374.016" /> 
</g>
<g style="fill:#840000; fill-opacity:1.0; 
stroke:#840000; stroke-width:39.3701; stroke-opacity:1; 
stroke-linecap:round; stroke-linejoin:round;">
</g>
<g style="fill:#840000; fill-opacity:1.0; 
stroke:#840000; stroke-width:0; stroke-opacity:1; 
stroke-linecap:round; stroke-linejoin:round;">
<circle cx="65855.2" cy="48881.9" r="374.016" /> 
</g>
<g style="fill:#840000; fill-opacity:1.0; 
stroke:#840000; stroke-width:39.3701; stroke-opacity:1; 
stroke-linecap:round; stroke-linejoin:round;">
</g>
<g style="fill:#840000; fill-opacity:1.0; 
stroke:#840000; stroke-width:0; stroke-opacity:1; 
stroke-linecap:round; stroke-linejoin:round;">
<circle cx="66067.8" cy="50629.9" r="160" /> 
</g>
<g style="fill:#840000; fill-opacity:1.0; 
stroke:#840000; stroke-width:39.3701; stroke-opacity:1; 
stroke-linecap:round; stroke-linejoin:round;">
</g>
<g style="fill:#840000; fill-opacity:1.0; 
stroke:#840000; stroke-width:0; stroke-opacity:1; 
stroke-linecap:round; stroke-linejoin:round;">
<circle cx="66111.1" cy="44350.4" r="160" /> 
</g>
<g style="fill:#840000; fill-opacity:1.0; 
stroke:#840000; stroke-width:39.3701; stroke-opacity:1; 
stroke-linecap:round; stroke-linejoin:round;">
</g>
<g style="fill:#840000; fill-opacity:1.0; 
stroke:#840000; stroke-width:0; stroke-opacity:1; 
stroke-linecap:round; stroke-linejoin:round;">
<circle cx="53764.6" cy="45192.9" r="160" /> 
</g>
<g style="fill:#840000; fill-opacity:1.0; 
stroke:#840000; stroke-width:39.3701; stroke-opacity:1; 
stroke-linecap:round; stroke-linejoin:round;">
</g>
<g style="fill:#840000; fill-opacity:1.0; 
stroke:#840000; stroke-width:0; stroke-opacity:1; 
stroke-linecap:round; stroke-linejoin:round;">
<circle cx="53808" cy="49834.6" r="160" /> 
</g>
<g style="fill:#840000; fill-opacity:1.0; 
stroke:#840000; stroke-width:39.3701; stroke-opacity:1; 
stroke-linecap:round; stroke-linejoin:round;">
</g>
<g style="fill:#840000; fill-opacity:1.0; 
stroke:#840000; stroke-width:0; stroke-opacity:1; 
stroke-linecap:round; stroke-linejoin:round;">
<circle cx="58556" cy="46708.7" r="160" /> 
</g>
<g style="fill:#840000; fill-opacity:1.0; 
stroke:#840000; stroke-width:39.3701; stroke-opacity:1; 
stroke-linecap:round; stroke-linejoin:round;">
</g>
<g style="fill:#840000; fill-opacity:1.0; 
stroke:#840000; stroke-width:0; stroke-opacity:1; 
stroke-linecap:round; stroke-linejoin:round;">
<circle cx="61721.3" cy="48878" r="160" /> 
</g>
<g style="fill:#840000; fill-opacity:1.0; 
stroke:#840000; stroke-width:39.3701; stroke-opacity:1; 
stroke-linecap:round; stroke-linejoin:round;">
</g>
<g style="fill:#840000; fill-opacity:1.0; 
stroke:#840000; stroke-width:0; stroke-opacity:1; 
stroke-linecap:round; stroke-linejoin:round;">
<circle cx="56315.8" cy="45511.8" r="160" /> 
</g>
<g style="fill:#840000; fill-opacity:1.0; 
stroke:#840000; stroke-width:39.3701; stroke-opacity:1; 
stroke-linecap:round; stroke-linejoin:round;">
</g>
<g style="fill:#840000; fill-opacity:1.0; 
stroke:#840000; stroke-width:0; stroke-opacity:1; 
stroke-linecap:round; stroke-linejoin:round;">
<circle cx="56717.4" cy="49500" r="160" /> 
</g>
<g style="fill:#840000; fill-opacity:1.0; 
stroke:#840000; stroke-width:39.3701; stroke-opacity:1; 
stroke-linecap:round; stroke-linejoin:round;">
</g>
<g style="fill:#840000; fill-opacity:1.0; 
stroke:#840000; stroke-width:0; stroke-opacity:1; 
stroke-linecap:round; stroke-linejoin:round;">
<circle cx="56575.7" cy="48842.5" r="160" /> 
</g>
<g style="fill:#840000; fill-opacity:1.0; 
stroke:#840000; stroke-width:39.3701; stroke-opacity:1; 
stroke-linecap:round; stroke-linejoin:round;">
</g>
<g style="fill:#840000; fill-opacity:1.0; 
stroke:#840000; stroke-width:0; stroke-opacity:1; 
stroke-linecap:round; stroke-linejoin:round;">
<circle cx="62260.7" cy="46370.1" r="160" /> 
</g>
<g style="fill:#840000; fill-opacity:1.0; 
stroke:#840000; stroke-width:39.3701; stroke-opacity:1; 
stroke-linecap:round; stroke-linejoin:round;">
</g>
<g style="fill:#840000; fill-opacity:1.0; 
stroke:#840000; stroke-width:0; stroke-opacity:1; 
stroke-linecap:round; stroke-linejoin:round;">
<circle cx="60083.5" cy="46968.5" r="160" /> 
</g>
<g style="fill:#840000; fill-opacity:1.0; 
stroke:#840000; stroke-width:39.3701; stroke-opacity:1; 
stroke-linecap:round; stroke-linejoin:round;">
</g>
<g style="fill:#840000; fill-opacity:1.0; 
stroke:#840000; stroke-width:0; stroke-opacity:1; 
stroke-linecap:round; stroke-linejoin:round;">
<circle cx="59485.1" cy="49039.4" r="160" /> 
</g>
<g style="fill:#840000; fill-opacity:1.0; 
stroke:#840000; stroke-width:39.3701; stroke-opacity:1; 
stroke-linecap:round; stroke-linejoin:round;">
</g>
<g style="fill:#840000; fill-opacity:1.0; 
stroke:#840000; stroke-width:0; stroke-opacity:1; 
stroke-linecap:round; stroke-linejoin:round;">
<circle cx="64162.3" cy="48519.7" r="160" /> 
</g>
<g style="fill:#840000; fill-opacity:1.0; 
stroke:#840000; stroke-width:39.3701; stroke-opacity:1; 
stroke-linecap:round; stroke-linejoin:round;">
</g>
<g style="fill:#840000; fill-opacity:1.0; 
stroke:#840000; stroke-width:0; stroke-opacity:1; 
stroke-linecap:round; stroke-linejoin:round;">
<circle cx="63552" cy="46200.8" r="160" /> 
</g>
<g style="fill:#840000; fill-opacity:1.0; 
stroke:#840000; stroke-width:39.3701; stroke-opacity:1; 
stroke-linecap:round; stroke-linejoin:round;">
</g>
<g style="fill:#840000; fill-opacity:1.0; 
stroke:#840000; stroke-width:0; stroke-opacity:1; 
stroke-linecap:round; stroke-linejoin:round;">
<circle cx="56390.6" cy="47622" r="160" /> 
</g>
<g style="fill:#840000; fill-opacity:1.0; 
stroke:#840000; stroke-width:39.3701; stroke-opacity:1; 
stroke-linecap:round; stroke-linejoin:round;">
</g>
<g style="fill:#C2C2C2; fill-opacity:1.0; 
stroke:#C2C2C2; stroke-width:39.3701; stroke-opacity:1; 
stroke-linecap:round; stroke-linejoin:round;">
</g>
<g style="fill:#C2C2C2; fill-opacity:1.0; 
stroke:#C2C2C2; stroke-width:0; stroke-opacity:1; 
stroke-linecap:round; stroke-linejoin:round;">
<circle cx="64189.8" cy="46228.3" r="160" /> 
</g>
<g style="fill:#C2C2C2; fill-opacity:1.0; 
stroke:#C2C2C2; stroke-width:39.3701; stroke-opacity:1; 
stroke-linecap:round; stroke-linejoin:round;">
</g>
<g style="fill:#C2C2C2; fill-opacity:1.0; 
stroke:#C2C2C2; stroke-width:0; stroke-opacity:1; 
stroke-linecap:round; stroke-linejoin:round;">
<circle cx="57556" cy="46878" r="160" /> 
</g>
<g style="fill:#C2C2C2; fill-opacity:1.0; 
stroke:#C2C2C2; stroke-width:39.3701; stroke-opacity:1; 
stroke-linecap:round; stroke-linejoin:round;">
</g>
<g style="fill:#C2C2C2; fill-opacity:1.0; 
stroke:#C2C2C2; stroke-width:0; stroke-opacity:1; 
stroke-linecap:round; stroke-linejoin:round;">
<circle cx="59008.7" cy="48208.7" r="160" /> 
</g>
<g style="fill:#C2C2C2; fill-opacity:1.0; 
stroke:#C2C2C2; stroke-width:39.3701; stroke-opacity:1; 
stroke-linecap:round; stroke-linejoin:round;">
</g>
<g style="fill:#C2C2C2; fill-opacity:1.0; 
stroke:#C2C2C2; stroke-width:0; stroke-opacity:1; 
stroke-linecap:round; stroke-linejoin:round;">
<circle cx="62343.4" cy="48110.2" r="160" /> 
</g>
<g style="fill:#C2C2C2; fill-opacity:1.0; 
stroke:#C2C2C2; stroke-width:39.3701; stroke-opacity:1; 
stroke-linecap:round; stroke-linejoin:round;">
</g>
<g style="fill:#C2C2C2; fill-opacity:1.0; 
stroke:#C2C2C2; stroke-width:0; stroke-opacity:1; 
stroke-linecap:round; stroke-linejoin:round;">
<circle cx="61496.9" cy="45401.6" r="160" /> 
</g>
<g style="fill:#C2C2C2; fill-opacity:1.0; 
stroke:#C2C2C2; stroke-width:39.3701; stroke-opacity:1; 
stroke-linecap:round; stroke-linejoin:round;">
</g>
<g style="fill:#C2C2C2; fill-opacity:1.0; 
stroke:#C2C2C2; stroke-width:0; stroke-opacity:1; 
stroke-linecap:round; stroke-linejoin:round;">
<circle cx="61352.5" cy="46401" r="160" /> 
</g>
<g style="fill:#C2C2C2; fill-opacity:1.0; 
stroke:#C2C2C2; stroke-width:39.3701; stroke-opacity:1; 
stroke-linecap:round; stroke-linejoin:round;">
</g>
<g style="fill:#C2C2C2; fill-opacity:1.0; 
stroke:#C2C2C2; stroke-width:0; stroke-opacity:1; 
stroke-linecap:round; stroke-linejoin:round;">
<circle cx="61166.2" cy="47381.9" r="160" /> 
</g>
<g style="fill:#C2C2C2; fill-opacity:1.0; 
stroke:#C2C2C2; stroke-width:39.3701; stroke-opacity:1; 
stroke-linecap:round; stroke-linejoin:round;">
</g>
<g style="fill:#C2C2C2; fill-opacity:1.0; 
stroke:#C2C2C2; stroke-width:0; stroke-opacity:1; 
stroke-linecap:round; stroke-linejoin:round;">
<circle cx="61259.7" cy="46794.2" r="160" /> 
</g>
<g style="fill:#C2C2C2; fill-opacity:1.0; 
stroke:#C2C2C2; stroke-width:39.3701; stroke-opacity:1; 
stroke-linecap:round; stroke-linejoin:round;">
</g>
<g style="fill:#C2C2C2; fill-opacity:1.0; 
stroke:#C2C2C2; stroke-width:0; stroke-opacity:1; 
stroke-linecap:round; stroke-linejoin:round;">
<circle cx="58079.6" cy="48720.5" r="160" /> 
</g>
<g style="fill:#C2C2C2; fill-opacity:1.0; 
stroke:#C2C2C2; stroke-width:39.3701; stroke-opacity:1; 
stroke-linecap:round; stroke-linejoin:round;">
</g>
<g style="fill:#C2C2C2; fill-opacity:1.0; 
stroke:#C2C2C2; stroke-width:0; stroke-opacity:1; 
stroke-linecap:round; stroke-linejoin:round;">
<circle cx="59433.9" cy="46500" r="160" /> 
</g>
<g style="fill:#C2C2C2; fill-opacity:1.0; 
stroke:#C2C2C2; stroke-width:39.3701; stroke-opacity:1; 
stroke-linecap:round; stroke-linejoin:round;">
</g>
<g style="fill:#C2C2C2; fill-opacity:1.0; 
stroke:#C2C2C2; stroke-width:0; stroke-opacity:1; 
stroke-linecap:round; stroke-linejoin:round;">
<circle cx="61174.1" cy="45700.8" r="160" /> 
</g>
<g style="fill:#C2C2C2; fill-opacity:1.0; 
stroke:#C2C2C2; stroke-width:39.3701; stroke-opacity:1; 
stroke-linecap:round; stroke-linejoin:round;">
</g>
<g style="fill:#C2C2C2; fill-opacity:1.0; 
stroke:#C2C2C2; stroke-width:0; stroke-opacity:1; 
stroke-linecap:round; stroke-linejoin:round;">
<circle cx="62214.4" cy="45251.1" r="160" /> 
</g>
<g style="fill:#C2C2C2; fill-opacity:1.0; 
stroke:#C2C2C2; stroke-width:39.3701; stroke-opacity:1; 
stroke-linecap:round; stroke-linejoin:round;">
</g>
<g style="fill:#C2C2C2; fill-opacity:1.0; 
stroke:#C2C2C2; stroke-width:0; stroke-opacity:1; 
stroke-linecap:round; stroke-linejoin:round;">
<circle cx="61792.2" cy="46073.7" r="160" /> 
</g>
<g style="fill:#C2C2C2; fill-opacity:1.0; 
stroke:#C2C2C2; stroke-width:39.3701; stroke-opacity:1; 
stroke-linecap:round; stroke-linejoin:round;">
</g>
<g style="fill:#008400; fill-opacity:1.0; 
stroke:#008400; stroke-width:39.3701; stroke-opacity:1; 
stroke-linecap:round; stroke-linejoin:round;">
</g>
<g style="fill:#008400; fill-opacity:1.0; 
stroke:#008400; stroke-width:200; stroke-opacity:1; 
stroke-linecap:round; stroke-linejoin:round;">
</g>
<g style="fill:#008400; fill-opacity:0.0; 
stroke:#008400; stroke-width:200; stroke-opacity:1; 
stroke-linecap:round; stroke-linejoin:round;">
<path d="M57555 46877
L57414 47019
" />
<path d="M57414 47019
L57414 49114
" />
<path d="M57414 49114
L57839 49539
" />
<path d="M57839 49539
L62469 49539
" />
<path d="M62469 49539
L64189 47818
" />
<path d="M64189 47818
L64189 46228
" />
<path d="M62343 48110
L62229 48224
" />
<path d="M62229 48224
L59024 48224
" />
<path d="M59024 48224
L59008 48208
" />
<path d="M62503 47950
L62343 48110
" />
<path d="M61930 44500
L62752 45322
" />
<path d="M62752 45322
L62752 47700
" />
<path d="M62752 47700
L62503 47950
" />
</g>
<g style="fill:#008400; fill-opacity:0.0; 
stroke:#008400; stroke-width:70; stroke-opacity:1; 
stroke-linecap:round; stroke-linejoin:round;">
<path d="M61496 45175
L61496 45401
" />
<path d="M60930 44500
L61496 45066
" />
<path d="M61496 45066
L61496 45175
" />
<path d="M58930 44500
L58937 44492
" />
<path d="M58937 44492
L59122 44492
" />
<path d="M61126 46400
L61352 46400
" />
<path d="M59122 44492
L61031 46400
" />
<path d="M61031 46400
L61126 46400
" />
<path d="M61166 47381
L59052 45267
" />
<path d="M59052 45267
L56697 45267
" />
<path d="M56697 45267
L56279 44849
" />
<path d="M56279 44849
L55930 44500
" />
<path d="M57930 44500
L58420 44990
" />
<path d="M61099 46634
L61259 46794
" />
<path d="M58420 44990
L59179 44990
" />
<path d="M59179 44990
L60824 46634
" />
<path d="M60824 46634
L61099 46634
" />
<path d="M59433 46500
L59433 46948
" />
<path d="M58107 48692
L58079 48720
" />
<path d="M59433 46948
L58107 48275
" />
<path d="M58107 48275
L58107 48692
" />
<path d="M61400 45700
L61174 45700
" />
<path d="M61764 45700
L61400 45700
" />
<path d="M62214 45251
L61764 45700
" />
<path d="M59930 44500
L59930 44866
" />
<path d="M59930 44866
L61137 46073
" />
<path d="M61137 46073
L61565 46073
" />
<path d="M61565 46073
L61792 46073
" />
</g>
<g style="fill:#008400; fill-opacity:1.0; 
stroke:#008400; stroke-width:100; stroke-opacity:1; 
stroke-linecap:round; stroke-linejoin:round;">
<polyline style="fill-rule:evenodd;"
points="65353,44216
65429,44400
65430,44599
65354,44782
65213,44923
65029,44999
64830,45000
64647,44924
64645,44922
64281,44922
64247,45022
64023,45104
63785,45094
63612,45022
63578,44922
63930,44570
64281,44922
64645,44922
64506,44783
64486,44735
64452,44817
64352,44851
64000,44500
64006,44494
63935,44423
63930,44429
63924,44423
63853,44494
63859,44500
63507,44851
63407,44817
63375,44730
63354,44782
63213,44923
63029,44999
62830,45000
62750,44966
62929,45146
62983,45227
63002,45322
63002,47700
62983,47796
62929,47877
62653,48153
62653,48171
62606,48285
62519,48372
62405,48420
62377,48420
62324,48455
62229,48474
59177,48474
59070,48518
58947,48518
58833,48471
58746,48384
58698,48270
58698,48147
58745,48033
58832,47946
58946,47898
59070,47898
59184,47945
59212,47974
62064,47974
62080,47934
62167,47847
62281,47800
62299,47800
62502,47597
62502,45426
62484,45408
62477,45426
62390,45513
62276,45561
62165,45561
61931,45795
61967,45810
62054,45897
62102,46011
62102,46135
62055,46249
61968,46336
61854,46383
61730,46383
61662,46355
61662,46462
61615,46576
61537,46654
61569,46732
61569,46855
61522,46969
61435,47056
61321,47104
61305,47104
61341,47118
61428,47206
61476,47319
61476,47443
61429,47557
61342,47644
61228,47691
61104,47691
60990,47644
60903,47557
60856,47443
60856,47333
60084,46561
59743,46561
59696,46675
59618,46753
59618,46948
59604,47019
59564,47079
58292,48352
58292,48494
58342,48544
58389,48658
58389,48781
58342,48895
58255,48983
58141,49030
58018,49030
57904,48983
57816,48896
57769,48782
57769,48659
57816,48545
57903,48457
57922,48450
57922,48275
57936,48204
57952,48181
57976,48144
59248,46872
59248,46753
59171,46675
59123,46561
59123,46438
59170,46324
59258,46237
59372,46190
59495,46189
59609,46237
59696,46324
59743,46438
59743,46561
60084,46561
58975,45452
56697,45452
56626,45438
56566,45398
56127,44959
56029,44999
55830,45000
55647,44924
55506,44783
55430,44599
55430,44599
55354,44782
55213,44923
55029,44999
54830,45000
54647,44924
54506,44783
54430,44599
54430,44599
54354,44782
54213,44923
54029,44999
53830,45000
53647,44924
53599,44876
53599,50123
53646,50076
53830,50000
54029,49999
54212,50075
54353,50216
54429,50400
54429,50400
54505,50217
54646,50076
54830,50000
55029,49999
55212,50075
55353,50216
55429,50400
55429,50400
55505,50217
55646,50076
55830,50000
56029,49999
56212,50075
56353,50216
56429,50400
56429,50400
56505,50217
56646,50076
56830,50000
57029,49999
57212,50075
57353,50216
57429,50400
57429,50400
57505,50217
57646,50076
57830,50000
58029,49999
58212,50075
58353,50216
58429,50400
58429,50400
58505,50217
58646,50076
58830,50000
59029,49999
59212,50075
59353,50216
59429,50400
59429,50400
59505,50217
59646,50076
59830,50000
60029,49999
60212,50075
60353,50216
60429,50400
60429,50400
60505,50217
60646,50076
60830,50000
61029,49999
61212,50075
61353,50216
61373,50264
61407,50182
61507,50148
61859,50500
61853,50505
61924,50576
61930,50570
61935,50576
62006,50505
62000,50500
62352,50148
62430,50174
62507,50148
62859,50500
62853,50505
62924,50576
62930,50570
62935,50576
63006,50505
63000,50500
63352,50148
63452,50182
63484,50269
63505,50217
63644,50077
63281,50077
62930,50429
62578,50077
62281,50077
61930,50429
61578,50077
61612,49977
61836,49895
62074,49905
62247,49977
62281,50077
62578,50077
62612,49977
62836,49895
63074,49905
63247,49977
63281,50077
63644,50077
63646,50076
63830,50000
64029,49999
64212,50075
64353,50216
64427,50393
64427,50150
64437,50094
64470,50043
64520,50009
64580,49997
65280,49997
65335,50007
65386,50040
65420,50090
65432,50150
65432,50830
66260,50830
66260,49217
66152,49325
65959,49405
65751,49405
65558,49326
65411,49179
65331,48986
65331,48778
65410,48585
65421,48574
65227,48574
65161,48734
65039,48857
64879,48923
64705,48923
64545,48857
64423,48735
64356,48575
64356,48401
64422,48241
64545,48119
64705,48052
64878,48052
65038,48118
65161,48241
65227,48401
65227,48574
65421,48574
65557,48437
65750,48357
65958,48357
66151,48437
66260,48545
66260,46461
66152,46569
65959,46649
65751,46650
65644,46605
65227,46605
65161,46766
65039,46888
64879,46955
64705,46955
64545,46889
64439,46783
64439,47818
64420,47914
64366,47995
62646,49716
62565,49770
62469,49789
57839,49789
57743,49770
57662,49716
57237,49290
57183,49209
57164,49114
57164,49114
57164,47019
57183,46924
57237,46842
57245,46834
57245,46816
57293,46702
57380,46615
57494,46568
57617,46567
57731,46614
57818,46702
57865,46816
57866,46939
57818,47053
57731,47140
57664,47168
57664,49010
57943,49289
62365,49289
63939,47715
63939,46416
63927,46404
63879,46290
63879,46166
63926,46052
64014,45965
64127,45918
64251,45918
64365,45965
64452,46052
64499,46166
64499,46196
64545,46150
64705,46084
64878,46084
65038,46150
65161,46272
65227,46432
65227,46605
65644,46605
65558,46570
65411,46423
65331,46230
65331,46022
65410,45829
65557,45682
65750,45602
65958,45601
66151,45681
66260,45789
66260,44169
65306,44169
65353,44216
" /> 
</g>
<g style="fill:#FFFFFF; fill-opacity:1.0; 
stroke:#FFFFFF; stroke-width:100; stroke-opacity:1; 
stroke-linecap:round; stroke-linejoin:round;">
</g>
<g style="fill:#840084; fill-opacity:1.0; 
stroke:#840084; stroke-width:100; stroke-opacity:1; 
stroke-linecap:round; stroke-linejoin:round;">
</g>
<g style="fill:#840084; fill-opacity:0.0; 
stroke:#840084; stroke-width:100; stroke-opacity:1; 
stroke-linecap:round; stroke-linejoin:round;">
</g>
<g style="fill:#840084; fill-opacity:0.0; 
stroke:#840084; stroke-width:78.7402; stroke-opacity:1; 
stroke-linecap:round; stroke-linejoin:round;">
<path d="M56005 46004
L56005 45798
L55986 45761
L55948 45742
L55873 45742
L55836 45761
" />
<path d="M56005 45986
L55967 46004
L55873 46004
L55836 45986
L55817 45948
L55817 45911
L55836 45873
L55873 45854
L55967 45854
L56005 45836
" />
<path d="M56136 45742
L56286 45742
" />
<path d="M56192 45611
L56192 45948
L56211 45986
L56248 46004
L56286 46004
" />
<path d="M56398 45986
L56436 46004
L56511 46004
L56548 45986
L56567 45948
L56567 45929
L56548 45892
L56511 45873
L56455 45873
L56417 45854
L56398 45817
L56398 45798
L56417 45761
L56455 45742
L56511 45742
L56548 45761
" />
<path d="M56905 46004
L56905 45798
L56886 45761
L56848 45742
L56773 45742
L56736 45761
" />
<path d="M56905 45986
L56867 46004
L56773 46004
L56736 45986
L56717 45948
L56717 45911
L56736 45873
L56773 45854
L56867 45854
L56905 45836
" />
<path d="M57092 46004
L57092 45742
" />
<path d="M57092 45779
L57111 45761
L57148 45742
L57205 45742
L57242 45761
L57261 45798
L57261 46004
" />
<path d="M57261 45798
L57280 45761
L57317 45742
L57373 45742
L57411 45761
L57429 45798
L57429 46004
" />
<path d="M57786 46004
L57786 45611
" />
<path d="M57786 45986
L57748 46004
L57673 46004
L57636 45986
L57617 45967
L57598 45929
L57598 45817
L57617 45779
L57636 45761
L57673 45742
L57748 45742
L57786 45761
" />
<path d="M58179 46004
L57954 46004
" />
<path d="M58067 46004
L58067 45611
L58029 45667
L57992 45704
L57954 45723
" />
<path d="M58554 46004
L58329 46004
" />
<path d="M58442 46004
L58442 45611
L58404 45667
L58367 45704
L58329 45723
" />
<path d="M59023 46004
L59023 45611
" />
<path d="M59023 45761
L59061 45742
L59136 45742
L59173 45761
L59192 45779
L59211 45817
L59211 45929
L59192 45967
L59173 45986
L59136 46004
L59061 46004
L59023 45986
" />
<path d="M59379 46004
L59379 45742
" />
<path d="M59379 45817
L59398 45779
L59417 45761
L59454 45742
L59492 45742
" />
<path d="M59773 45986
L59735 46004
L59660 46004
L59623 45986
L59604 45948
L59604 45798
L59623 45761
L59660 45742
L59735 45742
L59773 45761
L59792 45798
L59792 45836
L59604 45873
" />
<path d="M60129 46004
L60129 45798
L60110 45761
L60073 45742
L59998 45742
L59960 45761
" />
<path d="M60129 45986
L60092 46004
L59998 46004
L59960 45986
L59942 45948
L59942 45911
L59960 45873
L59998 45854
L60092 45854
L60129 45836
" />
<path d="M60317 46004
L60317 45611
" />
<path d="M60354 45854
L60467 46004
" />
<path d="M60467 45742
L60317 45892
" />
<path d="M60692 46004
L60654 45986
L60635 45967
L60617 45929
L60617 45817
L60635 45779
L60654 45761
L60692 45742
L60748 45742
L60785 45761
L60804 45779
L60823 45817
L60823 45929
L60804 45967
L60785 45986
L60748 46004
L60692 46004
" />
<path d="M61160 45742
L61160 46004
" />
<path d="M60992 45742
L60992 45948
L61010 45986
L61048 46004
L61104 46004
L61142 45986
L61160 45967
" />
<path d="M61292 45742
L61441 45742
" />
<path d="M61348 45611
L61348 45948
L61367 45986
L61404 46004
L61441 46004
" />
<path d="M61873 46004
L61873 45611
" />
<path d="M61873 45761
L61910 45742
L61985 45742
L62023 45761
L62041 45779
L62060 45817
L62060 45929
L62041 45967
L62023 45986
L61985 46004
L61910 46004
L61873 45986
" />
<path d="M62285 46004
L62248 45986
L62229 45967
L62210 45929
L62210 45817
L62229 45779
L62248 45761
L62285 45742
L62341 45742
L62379 45761
L62398 45779
L62416 45817
L62416 45929
L62398 45967
L62379 45986
L62341 46004
L62285 46004
" />
<path d="M62754 46004
L62754 45798
L62735 45761
L62698 45742
L62623 45742
L62585 45761
" />
<path d="M62754 45986
L62716 46004
L62623 46004
L62585 45986
L62566 45948
L62566 45911
L62585 45873
L62623 45854
L62716 45854
L62754 45836
" />
<path d="M62941 46004
L62941 45742
" />
<path d="M62941 45817
L62960 45779
L62979 45761
L63016 45742
L63054 45742
" />
<path d="M63354 46004
L63354 45611
" />
<path d="M63354 45986
L63316 46004
L63241 46004
L63204 45986
L63185 45967
L63166 45929
L63166 45817
L63185 45779
L63204 45761
L63241 45742
L63316 45742
L63354 45761
" />
<path d="M55883 46636
L55864 46655
L55808 46674
L55770 46674
L55714 46655
L55677 46617
L55658 46580
L55639 46505
L55639 46449
L55658 46374
L55677 46336
L55714 46299
L55770 46280
L55808 46280
L55864 46299
L55883 46317
" />
<path d="M56108 46674
L56070 46655
L56052 46636
L56033 46599
L56033 46486
L56052 46449
L56070 46430
L56108 46411
L56164 46411
L56202 46430
L56220 46449
L56239 46486
L56239 46599
L56220 46636
L56202 46655
L56164 46674
L56108 46674
" />
<path d="M56408 46411
L56408 46805
" />
<path d="M56408 46430
L56445 46411
L56520 46411
L56558 46430
L56576 46449
L56595 46486
L56595 46599
L56576 46636
L56558 46655
L56520 46674
L56445 46674
L56408 46655
" />
<path d="M56726 46411
L56820 46674
" />
<path d="M56914 46411
L56820 46674
L56783 46767
L56764 46786
L56726 46805
" />
<path d="M57064 46674
L57064 46411
" />
<path d="M57064 46486
L57083 46449
L57101 46430
L57139 46411
L57176 46411
" />
<path d="M57308 46674
L57308 46411
" />
<path d="M57308 46280
L57289 46299
L57308 46317
L57326 46299
L57308 46280
L57308 46317
" />
<path d="M57664 46411
L57664 46730
L57645 46767
L57626 46786
L57589 46805
L57533 46805
L57495 46786
" />
<path d="M57664 46655
L57626 46674
L57551 46674
L57514 46655
L57495 46636
L57476 46599
L57476 46486
L57495 46449
L57514 46430
L57551 46411
L57626 46411
L57664 46430
" />
<path d="M57851 46674
L57851 46280
" />
<path d="M58020 46674
L58020 46467
L58001 46430
L57964 46411
L57908 46411
L57870 46430
L57851 46449
" />
<path d="M58151 46411
L58301 46411
" />
<path d="M58208 46280
L58208 46617
L58226 46655
L58264 46674
L58301 46674
" />
<path d="M58714 46317
L58732 46299
L58770 46280
L58864 46280
L58901 46299
L58920 46317
L58939 46355
L58939 46392
L58920 46449
L58695 46674
L58939 46674
" />
<path d="M59182 46280
L59220 46280
L59257 46299
L59276 46317
L59295 46355
L59314 46430
L59314 46524
L59295 46599
L59276 46636
L59257 46655
L59220 46674
L59182 46674
L59145 46655
L59126 46636
L59107 46599
L59089 46524
L59089 46430
L59107 46355
L59126 46317
L59145 46299
L59182 46280
" />
<path d="M59689 46674
L59464 46674
" />
<path d="M59576 46674
L59576 46280
L59539 46336
L59501 46374
L59464 46392
" />
<path d="M59820 46280
L60082 46280
L59914 46674
" />
<path d="M60738 46299
L60701 46280
L60645 46280
L60588 46299
L60551 46336
L60532 46374
L60513 46449
L60513 46505
L60532 46580
L60551 46617
L60588 46655
L60645 46674
L60682 46674
L60738 46655
L60757 46636
L60757 46505
L60682 46505
" />
<path d="M60982 46674
L60945 46655
L60926 46636
L60907 46599
L60907 46486
L60926 46449
L60945 46430
L60982 46411
L61038 46411
L61076 46430
L61095 46449
L61113 46486
L61113 46599
L61095 46636
L61076 46655
L61038 46674
L60982 46674
" />
<path d="M61338 46674
L61301 46655
L61282 46636
L61263 46599
L61263 46486
L61282 46449
L61301 46430
L61338 46411
L61395 46411
L61432 46430
L61451 46449
L61470 46486
L61470 46599
L61451 46636
L61432 46655
L61395 46674
L61338 46674
" />
<path d="M61807 46411
L61807 46730
L61788 46767
L61770 46786
L61732 46805
L61676 46805
L61638 46786
" />
<path d="M61807 46655
L61770 46674
L61695 46674
L61657 46655
L61638 46636
L61620 46599
L61620 46486
L61638 46449
L61657 46430
L61695 46411
L61770 46411
L61807 46430
" />
<path d="M62051 46674
L62013 46655
L61995 46617
L61995 46280
" />
<path d="M62351 46655
L62313 46674
L62238 46674
L62201 46655
L62182 46617
L62182 46467
L62201 46430
L62238 46411
L62313 46411
L62351 46430
L62370 46467
L62370 46505
L62182 46542
" />
<path d="M62838 46674
L62838 46280
" />
<path d="M63026 46411
L63026 46674
" />
<path d="M63026 46449
L63044 46430
L63082 46411
L63138 46411
L63176 46430
L63194 46467
L63194 46674
" />
<path d="M63551 46655
L63513 46674
L63438 46674
L63401 46655
L63382 46636
L63363 46599
L63363 46486
L63382 46449
L63401 46430
L63438 46411
L63513 46411
L63551 46430
" />
<path d="M55461 47343
L55461 46949
L55555 46949
L55611 46968
L55648 47005
L55667 47043
L55686 47118
L55686 47174
L55667 47249
L55648 47287
L55611 47324
L55555 47343
L55461 47343
" />
<path d="M56005 47324
L55967 47343
L55892 47343
L55855 47324
L55836 47287
L55836 47137
L55855 47099
L55892 47080
L55967 47080
L56005 47099
L56023 47137
L56023 47174
L55836 47212
" />
<path d="M56173 47324
L56211 47343
L56286 47343
L56323 47324
L56342 47287
L56342 47268
L56323 47230
L56286 47212
L56230 47212
L56192 47193
L56173 47155
L56173 47137
L56192 47099
L56230 47080
L56286 47080
L56323 47099
" />
<path d="M56511 47343
L56511 47080
" />
<path d="M56511 46949
L56492 46968
L56511 46987
L56530 46968
L56511 46949
L56511 46987
" />
<path d="M56867 47080
L56867 47399
L56848 47437
L56830 47455
L56792 47474
L56736 47474
L56698 47455
" />
<path d="M56867 47324
L56830 47343
L56755 47343
L56717 47324
L56698 47305
L56680 47268
L56680 47155
L56698 47118
L56717 47099
L56755 47080
L56830 47080
L56867 47099
" />
<path d="M57055 47080
L57055 47343
" />
<path d="M57055 47118
L57073 47099
L57111 47080
L57167 47080
L57205 47099
L57223 47137
L57223 47343
" />
<path d="M57561 47324
L57523 47343
L57448 47343
L57411 47324
L57392 47287
L57392 47137
L57411 47099
L57448 47080
L57523 47080
L57561 47099
L57579 47137
L57579 47174
L57392 47212
" />
<path d="M57917 47343
L57917 46949
" />
<path d="M57917 47324
L57879 47343
L57804 47343
L57767 47324
L57748 47305
L57729 47268
L57729 47155
L57748 47118
L57767 47099
L57804 47080
L57879 47080
L57917 47099
" />
<path d="M58404 47343
L58404 46949
" />
<path d="M58404 47099
L58442 47080
L58517 47080
L58554 47099
L58573 47118
L58592 47155
L58592 47268
L58573 47305
L58554 47324
L58517 47343
L58442 47343
L58404 47324
" />
<path d="M58723 47080
L58817 47343
" />
<path d="M58911 47080
L58817 47343
L58779 47437
L58761 47455
L58723 47474
" />
<path d="M59361 47343
L59361 46949
L59510 46949
L59548 46968
L59567 46987
L59585 47024
L59585 47080
L59567 47118
L59548 47137
L59510 47155
L59361 47155
" />
<path d="M59754 47343
L59754 46949
" />
<path d="M59923 47343
L59923 47137
L59904 47099
L59867 47080
L59810 47080
L59773 47099
L59754 47118
" />
<path d="M60110 47343
L60110 47080
" />
<path d="M60110 46949
L60092 46968
L60110 46987
L60129 46968
L60110 46949
L60110 46987
" />
<path d="M60354 47343
L60317 47324
L60298 47287
L60298 46949
" />
<path d="M60560 47343
L60523 47324
L60504 47287
L60504 46949
" />
<path d="M60710 47343
L60710 47080
" />
<path d="M60710 46949
L60692 46968
L60710 46987
L60729 46968
L60710 46949
L60710 46987
" />
<path d="M60898 47080
L60898 47474
" />
<path d="M60898 47099
L60935 47080
L61010 47080
L61048 47099
L61067 47118
L61085 47155
L61085 47268
L61067 47305
L61048 47324
L61010 47343
L60935 47343
L60898 47324
" />
<path d="M61554 47343
L61554 46949
L61704 46949
L61741 46968
L61760 46987
L61779 47024
L61779 47080
L61760 47118
L61741 47137
L61704 47155
L61554 47155
" />
<path d="M62098 47324
L62060 47343
L61985 47343
L61948 47324
L61929 47287
L61929 47137
L61948 47099
L61985 47080
L62060 47080
L62098 47099
L62116 47137
L62116 47174
L61929 47212
" />
<path d="M62454 47343
L62454 47137
L62435 47099
L62398 47080
L62323 47080
L62285 47099
" />
<path d="M62454 47324
L62416 47343
L62323 47343
L62285 47324
L62266 47287
L62266 47249
L62285 47212
L62323 47193
L62416 47193
L62454 47174
" />
<path d="M62641 47343
L62641 47080
" />
<path d="M62641 47155
L62660 47118
L62679 47099
L62716 47080
L62754 47080
" />
<path d="M62866 47324
L62904 47343
L62979 47343
L63016 47324
L63035 47287
L63035 47268
L63016 47230
L62979 47212
L62923 47212
L62885 47193
L62866 47155
L62866 47137
L62885 47099
L62923 47080
L62979 47080
L63016 47099
" />
<path d="M63260 47343
L63223 47324
L63204 47305
L63185 47268
L63185 47155
L63204 47118
L63223 47099
L63260 47080
L63316 47080
L63354 47099
L63373 47118
L63391 47155
L63391 47268
L63373 47305
L63354 47324
L63316 47343
L63260 47343
" />
<path d="M63560 47080
L63560 47343
" />
<path d="M63560 47118
L63579 47099
L63616 47080
L63672 47080
L63710 47099
L63729 47137
L63729 47343
" />
<path d="M56839 47750
L56839 48068
L56820 48106
L56801 48125
L56764 48143
L56708 48143
L56670 48125
" />
<path d="M56839 47994
L56801 48012
L56726 48012
L56689 47994
L56670 47975
L56651 47937
L56651 47825
L56670 47787
L56689 47769
L56726 47750
L56801 47750
L56839 47769
" />
<path d="M57026 48012
L57026 47750
" />
<path d="M57026 47619
L57008 47637
L57026 47656
L57045 47637
L57026 47619
L57026 47656
" />
<path d="M57158 47750
L57308 47750
" />
<path d="M57214 47619
L57214 47956
L57233 47994
L57270 48012
L57308 48012
" />
<path d="M57439 48012
L57439 47619
" />
<path d="M57608 48012
L57608 47806
L57589 47769
L57551 47750
L57495 47750
L57458 47769
L57439 47787
" />
<path d="M57964 47750
L57964 48012
" />
<path d="M57795 47750
L57795 47956
L57814 47994
L57851 48012
L57908 48012
L57945 47994
L57964 47975
" />
<path d="M58151 48012
L58151 47619
" />
<path d="M58151 47769
L58189 47750
L58264 47750
L58301 47769
L58320 47787
L58339 47825
L58339 47937
L58320 47975
L58301 47994
L58264 48012
L58189 48012
L58151 47994
" />
<path d="M58507 47975
L58526 47994
L58507 48012
L58489 47994
L58507 47975
L58507 48012
" />
<path d="M58864 47994
L58826 48012
L58751 48012
L58714 47994
L58695 47975
L58676 47937
L58676 47825
L58695 47787
L58714 47769
L58751 47750
L58826 47750
L58864 47769
" />
<path d="M59089 48012
L59051 47994
L59032 47975
L59014 47937
L59014 47825
L59032 47787
L59051 47769
L59089 47750
L59145 47750
L59182 47769
L59201 47787
L59220 47825
L59220 47937
L59201 47975
L59182 47994
L59145 48012
L59089 48012
" />
<path d="M59389 48012
L59389 47750
" />
<path d="M59389 47787
L59407 47769
L59445 47750
L59501 47750
L59539 47769
L59557 47806
L59557 48012
" />
<path d="M59557 47806
L59576 47769
L59614 47750
L59670 47750
L59707 47769
L59726 47806
L59726 48012
" />
<path d="M60195 47600
L59857 48106
" />
<path d="M60495 47750
L60495 48068
L60476 48106
L60457 48125
L60420 48143
L60364 48143
L60326 48125
" />
<path d="M60495 47994
L60457 48012
L60382 48012
L60345 47994
L60326 47975
L60307 47937
L60307 47825
L60326 47787
L60345 47769
L60382 47750
L60457 47750
L60495 47769
" />
<path d="M60738 48012
L60701 47994
L60682 47975
L60663 47937
L60663 47825
L60682 47787
L60701 47769
L60738 47750
L60795 47750
L60832 47769
L60851 47787
L60870 47825
L60870 47937
L60851 47975
L60832 47994
L60795 48012
L60738 48012
" />
<path d="M61095 48012
L61057 47994
L61038 47975
L61020 47937
L61020 47825
L61038 47787
L61057 47769
L61095 47750
L61151 47750
L61188 47769
L61207 47787
L61226 47825
L61226 47937
L61207 47975
L61188 47994
L61151 48012
L61095 48012
" />
<path d="M61563 47750
L61563 48068
L61545 48106
L61526 48125
L61488 48143
L61432 48143
L61395 48125
" />
<path d="M61563 47994
L61526 48012
L61451 48012
L61413 47994
L61395 47975
L61376 47937
L61376 47825
L61395 47787
L61413 47769
L61451 47750
L61526 47750
L61563 47769
" />
<path d="M61807 48012
L61770 47994
L61751 47956
L61751 47619
" />
<path d="M62107 47994
L62070 48012
L61995 48012
L61957 47994
L61938 47956
L61938 47806
L61957 47769
L61995 47750
L62070 47750
L62107 47769
L62126 47806
L62126 47844
L61938 47881
" />
<path d="M62576 47600
L62238 48106
" />
<path d="M54645 48682
L54645 48419
" />
<path d="M54645 48457
L54664 48438
L54702 48419
L54758 48419
L54795 48438
L54814 48475
L54814 48682
" />
<path d="M54814 48475
L54833 48438
L54870 48419
L54927 48419
L54964 48438
L54983 48475
L54983 48682
" />
<path d="M55133 48419
L55227 48682
" />
<path d="M55320 48419
L55227 48682
L55189 48775
L55170 48794
L55133 48813
" />
<path d="M55620 48663
L55583 48682
L55508 48682
L55470 48663
L55452 48625
L55452 48475
L55470 48438
L55508 48419
L55583 48419
L55620 48438
L55639 48475
L55639 48513
L55452 48550
" />
<path d="M55864 48682
L55827 48663
L55808 48625
L55808 48288
" />
<path d="M56014 48682
L56014 48419
" />
<path d="M56014 48288
L55995 48307
L56014 48325
L56033 48307
L56014 48288
L56014 48325
" />
<path d="M56202 48419
L56202 48682
" />
<path d="M56202 48457
L56220 48438
L56258 48419
L56314 48419
L56352 48438
L56370 48475
L56370 48682
" />
<path d="M56558 48532
L56858 48532
" />
<path d="M57214 48682
L57214 48475
L57195 48438
L57158 48419
L57083 48419
L57045 48438
" />
<path d="M57214 48663
L57176 48682
L57083 48682
L57045 48663
L57026 48625
L57026 48588
L57045 48550
L57083 48532
L57176 48532
L57214 48513
" />
<path d="M57570 48663
L57533 48682
L57458 48682
L57420 48663
L57401 48644
L57383 48607
L57383 48494
L57401 48457
L57420 48438
L57458 48419
L57533 48419
L57570 48438
" />
<path d="M57795 48682
L57758 48663
L57739 48644
L57720 48607
L57720 48494
L57739 48457
L57758 48438
L57795 48419
L57851 48419
L57889 48438
L57908 48457
L57926 48494
L57926 48607
L57908 48644
L57889 48663
L57851 48682
L57795 48682
" />
<path d="M58095 48682
L58095 48419
" />
<path d="M58095 48494
L58114 48457
L58133 48438
L58170 48419
L58208 48419
" />
<path d="M58339 48419
L58339 48682
" />
<path d="M58339 48457
L58358 48438
L58395 48419
L58451 48419
L58489 48438
L58507 48475
L58507 48682
" />
<path d="M58695 48532
L58995 48532
" />
<path d="M59332 48663
L59295 48682
L59220 48682
L59182 48663
L59164 48625
L59164 48475
L59182 48438
L59220 48419
L59295 48419
L59332 48438
L59351 48475
L59351 48513
L59164 48550
" />
<path d="M59576 48682
L59539 48663
L59520 48625
L59520 48288
" />
<path d="M59876 48663
L59839 48682
L59764 48682
L59726 48663
L59707 48625
L59707 48475
L59726 48438
L59764 48419
L59839 48419
L59876 48438
L59895 48475
L59895 48513
L59707 48550
" />
<path d="M60232 48663
L60195 48682
L60120 48682
L60082 48663
L60064 48644
L60045 48607
L60045 48494
L60064 48457
L60082 48438
L60120 48419
L60195 48419
L60232 48438
" />
<path d="M60345 48419
L60495 48419
" />
<path d="M60401 48288
L60401 48625
L60420 48663
L60457 48682
L60495 48682
" />
<path d="M60626 48682
L60626 48419
" />
<path d="M60626 48494
L60645 48457
L60663 48438
L60701 48419
L60738 48419
" />
<path d="M60926 48682
L60888 48663
L60870 48644
L60851 48607
L60851 48494
L60870 48457
L60888 48438
L60926 48419
L60982 48419
L61020 48438
L61038 48457
L61057 48494
L61057 48607
L61038 48644
L61020 48663
L60982 48682
L60926 48682
" />
<path d="M61226 48419
L61226 48682
" />
<path d="M61226 48457
L61245 48438
L61282 48419
L61338 48419
L61376 48438
L61395 48475
L61395 48682
" />
<path d="M61582 48532
L61882 48532
" />
<path d="M62070 48682
L62070 48288
" />
<path d="M62238 48682
L62238 48475
L62220 48438
L62182 48419
L62126 48419
L62088 48438
L62070 48457
" />
<path d="M62594 48682
L62594 48475
L62576 48438
L62538 48419
L62463 48419
L62426 48438
" />
<path d="M62594 48663
L62557 48682
L62463 48682
L62426 48663
L62407 48625
L62407 48588
L62426 48550
L62463 48532
L62557 48532
L62594 48513
" />
<path d="M62782 48682
L62782 48419
" />
<path d="M62782 48494
L62801 48457
L62819 48438
L62857 48419
L62894 48419
" />
<path d="M63194 48682
L63194 48288
" />
<path d="M63194 48663
L63157 48682
L63082 48682
L63044 48663
L63026 48644
L63007 48607
L63007 48494
L63026 48457
L63044 48438
L63082 48419
L63157 48419
L63194 48438
" />
<path d="M63344 48419
L63419 48682
L63494 48494
L63569 48682
L63644 48419
" />
<path d="M63963 48682
L63963 48475
L63944 48438
L63907 48419
L63832 48419
L63794 48438
" />
<path d="M63963 48663
L63926 48682
L63832 48682
L63794 48663
L63776 48625
L63776 48588
L63794 48550
L63832 48532
L63926 48532
L63963 48513
" />
<path d="M64151 48682
L64151 48419
" />
<path d="M64151 48494
L64169 48457
L64188 48438
L64226 48419
L64263 48419
" />
<path d="M64544 48663
L64507 48682
L64432 48682
L64394 48663
L64376 48625
L64376 48475
L64394 48438
L64432 48419
L64507 48419
L64544 48438
L64563 48475
L64563 48513
L64376 48550
" />
</g>
<g style="fill:#C2C200; fill-opacity:0.0; 
stroke:#C2C200; stroke-width:78.7402; stroke-opacity:1; 
stroke-linecap:round; stroke-linejoin:round;">
</g>
<g style="fill:#C2C200; fill-opacity:0.0; 
stroke:#C2C200; stroke-width:39.3701; stroke-opacity:1; 
stroke-linecap:round; stroke-linejoin:round;">
<path d="M66430 51000
L66430 44000
" />
<path d="M53430 51000
L66430 51000
" />
<path d="M53430 44000
L53430 51000
" />
<path d="M66430 44000
L53430 44000
" />
</g> 
</svg>
