<?xml version="1.0" standalone="no"?>
 <!DOCTYPE svg PUBLIC "-//W3C//DTD SVG 1.1//EN" 
 "http://www.w3.org/Graphics/SVG/1.1/DTD/svg11.dtd"> 
<svg xmlns="http://www.w3.org/2000/svg" version="1.1" 
    width="29.7002cm" height="21.0007cm" viewBox="0 0 116930 82680 ">
<title>SVG Picture created as atsamd11_pro_micro-F.Preview.svg date 2017/10/30 19:39:58 </title>
  <desc>Picture generated by PCBNEW </desc>
<g style="fill:#000000; fill-opacity:1;stroke:#000000; stroke-opacity:1;
stroke-linecap:round; stroke-linejoin:round; "
 transform="translate(0 0) scale(1 1)">
</g>
<g style="fill:#840000; fill-opacity:0.0; 
stroke:#840000; stroke-width:-0.000393701; stroke-opacity:1; 
stroke-linecap:round; stroke-linejoin:round;">
</g>
<g style="fill:#840000; fill-opacity:0.0; 
stroke:#840000; stroke-width:0; stroke-opacity:1; 
stroke-linecap:round; stroke-linejoin:round;">
</g>
<g style="fill:#840000; fill-opacity:1.0; 
stroke:#840000; stroke-width:0; stroke-opacity:1; 
stroke-linecap:round; stroke-linejoin:round;">
<polyline style="fill-rule:evenodd;"
points="53053,47366
53545,47366
53545,47956
53053,47956
53053,47366
" /> 
<polyline style="fill-rule:evenodd;"
points="53053,48350
53545,48350
53545,48940
53053,48940
53053,48350
" /> 
<polyline style="fill-rule:evenodd;"
points="58094,46501
58094,46009
58685,46009
58685,46501
58094,46501
" /> 
<polyline style="fill-rule:evenodd;"
points="59078,46501
59078,46009
59669,46009
59669,46501
59078,46501
" /> 
<polyline style="fill-rule:evenodd;"
points="57738,48503
57246,48503
57246,47913
57738,47913
57738,48503
" /> 
<polyline style="fill-rule:evenodd;"
points="57738,47519
57246,47519
57246,46929
57738,46929
57738,47519
" /> 
<polyline style="fill-rule:evenodd;"
points="56543,48996
56543,49232
55952,49232
55952,48996
56543,48996
" /> 
<polyline style="fill-rule:evenodd;"
points="56543,48496
56543,48732
55952,48732
55952,48496
56543,48496
" /> 
<polyline style="fill-rule:evenodd;"
points="56543,47996
56543,48232
55952,48232
55952,47996
56543,47996
" /> 
<polyline style="fill-rule:evenodd;"
points="56543,47496
56543,47732
55952,47732
55952,47496
56543,47496
" /> 
<polyline style="fill-rule:evenodd;"
points="56543,46996
56543,47232
55952,47232
55952,46996
56543,46996
" /> 
<polyline style="fill-rule:evenodd;"
points="56543,46496
56543,46732
55952,46732
55952,46496
56543,46496
" /> 
<polyline style="fill-rule:evenodd;"
points="56543,45996
56543,46232
55952,46232
55952,45996
56543,45996
" /> 
<polyline style="fill-rule:evenodd;"
points="54417,45996
54417,46232
53826,46232
53826,45996
54417,45996
" /> 
<polyline style="fill-rule:evenodd;"
points="54417,46496
54417,46732
53826,46732
53826,46496
54417,46496
" /> 
<polyline style="fill-rule:evenodd;"
points="54417,46996
54417,47232
53826,47232
53826,46996
54417,46996
" /> 
<polyline style="fill-rule:evenodd;"
points="54417,47496
54417,47732
53826,47732
53826,47496
54417,47496
" /> 
<polyline style="fill-rule:evenodd;"
points="54417,47996
54417,48232
53826,48232
53826,47996
54417,47996
" /> 
<polyline style="fill-rule:evenodd;"
points="54417,48496
54417,48732
53826,48732
53826,48496
54417,48496
" /> 
<polyline style="fill-rule:evenodd;"
points="54417,48996
54417,49232
53826,49232
53826,48996
54417,48996
" /> 
<circle cx="52000" cy="44500" r="350" /> 
</g>
<g style="fill:#840000; fill-opacity:1.0; 
stroke:#840000; stroke-width:39.3701; stroke-opacity:1; 
stroke-linecap:round; stroke-linejoin:round;">
</g>
<g style="fill:#840000; fill-opacity:1.0; 
stroke:#840000; stroke-width:0; stroke-opacity:1; 
stroke-linecap:round; stroke-linejoin:round;">
<polyline style="fill-rule:evenodd;"
points="51650,50850
51650,50150
52350,50150
52350,50850
51650,50850
" /> 
<circle cx="53000" cy="44500" r="350" /> 
</g>
<g style="fill:#840000; fill-opacity:1.0; 
stroke:#840000; stroke-width:39.3701; stroke-opacity:1; 
stroke-linecap:round; stroke-linejoin:round;">
</g>
<g style="fill:#840000; fill-opacity:1.0; 
stroke:#840000; stroke-width:0; stroke-opacity:1; 
stroke-linecap:round; stroke-linejoin:round;">
<circle cx="53000" cy="50500" r="350" /> 
</g>
<g style="fill:#840000; fill-opacity:1.0; 
stroke:#840000; stroke-width:39.3701; stroke-opacity:1; 
stroke-linecap:round; stroke-linejoin:round;">
</g>
<g style="fill:#840000; fill-opacity:1.0; 
stroke:#840000; stroke-width:0; stroke-opacity:1; 
stroke-linecap:round; stroke-linejoin:round;">
<circle cx="54000" cy="44500" r="350" /> 
</g>
<g style="fill:#840000; fill-opacity:1.0; 
stroke:#840000; stroke-width:39.3701; stroke-opacity:1; 
stroke-linecap:round; stroke-linejoin:round;">
</g>
<g style="fill:#840000; fill-opacity:1.0; 
stroke:#840000; stroke-width:0; stroke-opacity:1; 
stroke-linecap:round; stroke-linejoin:round;">
<circle cx="54000" cy="50500" r="350" /> 
</g>
<g style="fill:#840000; fill-opacity:1.0; 
stroke:#840000; stroke-width:39.3701; stroke-opacity:1; 
stroke-linecap:round; stroke-linejoin:round;">
</g>
<g style="fill:#840000; fill-opacity:1.0; 
stroke:#840000; stroke-width:0; stroke-opacity:1; 
stroke-linecap:round; stroke-linejoin:round;">
<circle cx="55000" cy="44500" r="350" /> 
</g>
<g style="fill:#840000; fill-opacity:1.0; 
stroke:#840000; stroke-width:39.3701; stroke-opacity:1; 
stroke-linecap:round; stroke-linejoin:round;">
</g>
<g style="fill:#840000; fill-opacity:1.0; 
stroke:#840000; stroke-width:0; stroke-opacity:1; 
stroke-linecap:round; stroke-linejoin:round;">
<circle cx="55000" cy="50500" r="350" /> 
</g>
<g style="fill:#840000; fill-opacity:1.0; 
stroke:#840000; stroke-width:39.3701; stroke-opacity:1; 
stroke-linecap:round; stroke-linejoin:round;">
</g>
<g style="fill:#840000; fill-opacity:1.0; 
stroke:#840000; stroke-width:0; stroke-opacity:1; 
stroke-linecap:round; stroke-linejoin:round;">
<circle cx="56000" cy="44500" r="350" /> 
</g>
<g style="fill:#840000; fill-opacity:1.0; 
stroke:#840000; stroke-width:39.3701; stroke-opacity:1; 
stroke-linecap:round; stroke-linejoin:round;">
</g>
<g style="fill:#840000; fill-opacity:1.0; 
stroke:#840000; stroke-width:0; stroke-opacity:1; 
stroke-linecap:round; stroke-linejoin:round;">
<circle cx="56000" cy="50500" r="350" /> 
</g>
<g style="fill:#840000; fill-opacity:1.0; 
stroke:#840000; stroke-width:39.3701; stroke-opacity:1; 
stroke-linecap:round; stroke-linejoin:round;">
</g>
<g style="fill:#840000; fill-opacity:1.0; 
stroke:#840000; stroke-width:0; stroke-opacity:1; 
stroke-linecap:round; stroke-linejoin:round;">
<circle cx="57000" cy="44500" r="350" /> 
</g>
<g style="fill:#840000; fill-opacity:1.0; 
stroke:#840000; stroke-width:39.3701; stroke-opacity:1; 
stroke-linecap:round; stroke-linejoin:round;">
</g>
<g style="fill:#840000; fill-opacity:1.0; 
stroke:#840000; stroke-width:0; stroke-opacity:1; 
stroke-linecap:round; stroke-linejoin:round;">
<circle cx="57000" cy="50500" r="350" /> 
</g>
<g style="fill:#840000; fill-opacity:1.0; 
stroke:#840000; stroke-width:39.3701; stroke-opacity:1; 
stroke-linecap:round; stroke-linejoin:round;">
</g>
<g style="fill:#840000; fill-opacity:1.0; 
stroke:#840000; stroke-width:0; stroke-opacity:1; 
stroke-linecap:round; stroke-linejoin:round;">
<circle cx="58000" cy="44500" r="350" /> 
</g>
<g style="fill:#840000; fill-opacity:1.0; 
stroke:#840000; stroke-width:39.3701; stroke-opacity:1; 
stroke-linecap:round; stroke-linejoin:round;">
</g>
<g style="fill:#840000; fill-opacity:1.0; 
stroke:#840000; stroke-width:0; stroke-opacity:1; 
stroke-linecap:round; stroke-linejoin:round;">
<circle cx="58000" cy="50500" r="350" /> 
</g>
<g style="fill:#840000; fill-opacity:1.0; 
stroke:#840000; stroke-width:39.3701; stroke-opacity:1; 
stroke-linecap:round; stroke-linejoin:round;">
</g>
<g style="fill:#840000; fill-opacity:1.0; 
stroke:#840000; stroke-width:0; stroke-opacity:1; 
stroke-linecap:round; stroke-linejoin:round;">
<circle cx="59000" cy="44500" r="350" /> 
</g>
<g style="fill:#840000; fill-opacity:1.0; 
stroke:#840000; stroke-width:39.3701; stroke-opacity:1; 
stroke-linecap:round; stroke-linejoin:round;">
</g>
<g style="fill:#840000; fill-opacity:1.0; 
stroke:#840000; stroke-width:0; stroke-opacity:1; 
stroke-linecap:round; stroke-linejoin:round;">
<circle cx="59000" cy="50500" r="350" /> 
</g>
<g style="fill:#840000; fill-opacity:1.0; 
stroke:#840000; stroke-width:39.3701; stroke-opacity:1; 
stroke-linecap:round; stroke-linejoin:round;">
</g>
<g style="fill:#840000; fill-opacity:1.0; 
stroke:#840000; stroke-width:0; stroke-opacity:1; 
stroke-linecap:round; stroke-linejoin:round;">
<circle cx="60000" cy="44500" r="350" /> 
</g>
<g style="fill:#840000; fill-opacity:1.0; 
stroke:#840000; stroke-width:39.3701; stroke-opacity:1; 
stroke-linecap:round; stroke-linejoin:round;">
</g>
<g style="fill:#840000; fill-opacity:1.0; 
stroke:#840000; stroke-width:0; stroke-opacity:1; 
stroke-linecap:round; stroke-linejoin:round;">
<circle cx="60000" cy="50500" r="350" /> 
</g>
<g style="fill:#840000; fill-opacity:1.0; 
stroke:#840000; stroke-width:39.3701; stroke-opacity:1; 
stroke-linecap:round; stroke-linejoin:round;">
</g>
<g style="fill:#840000; fill-opacity:1.0; 
stroke:#840000; stroke-width:0; stroke-opacity:1; 
stroke-linecap:round; stroke-linejoin:round;">
<circle cx="61000" cy="44500" r="350" /> 
</g>
<g style="fill:#840000; fill-opacity:1.0; 
stroke:#840000; stroke-width:39.3701; stroke-opacity:1; 
stroke-linecap:round; stroke-linejoin:round;">
</g>
<g style="fill:#840000; fill-opacity:1.0; 
stroke:#840000; stroke-width:0; stroke-opacity:1; 
stroke-linecap:round; stroke-linejoin:round;">
<circle cx="61000" cy="50500" r="350" /> 
</g>
<g style="fill:#840000; fill-opacity:1.0; 
stroke:#840000; stroke-width:39.3701; stroke-opacity:1; 
stroke-linecap:round; stroke-linejoin:round;">
</g>
<g style="fill:#840000; fill-opacity:1.0; 
stroke:#840000; stroke-width:0; stroke-opacity:1; 
stroke-linecap:round; stroke-linejoin:round;">
<circle cx="62000" cy="44500" r="350" /> 
</g>
<g style="fill:#840000; fill-opacity:1.0; 
stroke:#840000; stroke-width:39.3701; stroke-opacity:1; 
stroke-linecap:round; stroke-linejoin:round;">
</g>
<g style="fill:#840000; fill-opacity:1.0; 
stroke:#840000; stroke-width:0; stroke-opacity:1; 
stroke-linecap:round; stroke-linejoin:round;">
<circle cx="62000" cy="50500" r="350" /> 
</g>
<g style="fill:#840000; fill-opacity:1.0; 
stroke:#840000; stroke-width:39.3701; stroke-opacity:1; 
stroke-linecap:round; stroke-linejoin:round;">
</g>
<g style="fill:#840000; fill-opacity:1.0; 
stroke:#840000; stroke-width:0; stroke-opacity:1; 
stroke-linecap:round; stroke-linejoin:round;">
<circle cx="63000" cy="44500" r="350" /> 
</g>
<g style="fill:#840000; fill-opacity:1.0; 
stroke:#840000; stroke-width:39.3701; stroke-opacity:1; 
stroke-linecap:round; stroke-linejoin:round;">
</g>
<g style="fill:#840000; fill-opacity:1.0; 
stroke:#840000; stroke-width:0; stroke-opacity:1; 
stroke-linecap:round; stroke-linejoin:round;">
<circle cx="63000" cy="50500" r="350" /> 
</g>
<g style="fill:#840000; fill-opacity:1.0; 
stroke:#840000; stroke-width:39.3701; stroke-opacity:1; 
stroke-linecap:round; stroke-linejoin:round;">
</g>
<g style="fill:#840000; fill-opacity:1.0; 
stroke:#840000; stroke-width:0; stroke-opacity:1; 
stroke-linecap:round; stroke-linejoin:round;">
<polyline style="fill-rule:evenodd;"
points="59744,48940
59744,49452
59153,49452
59153,48940
59744,48940
" /> 
<polyline style="fill-rule:evenodd;"
points="58681,48940
58681,49452
58090,49452
58090,48940
58681,48940
" /> 
<polyline style="fill-rule:evenodd;"
points="61165,48720
60874,48720
60874,47775
61165,47775
61165,48720
" /> 
<polyline style="fill-rule:evenodd;"
points="61165,47185
60874,47185
60874,46240
61165,46240
61165,47185
" /> 
<polyline style="fill-rule:evenodd;"
points="61665,48720
61374,48720
61374,47775
61665,47775
61665,48720
" /> 
<polyline style="fill-rule:evenodd;"
points="61665,47185
61374,47185
61374,46240
61665,46240
61665,47185
" /> 
<polyline style="fill-rule:evenodd;"
points="62165,48720
61874,48720
61874,47775
62165,47775
62165,48720
" /> 
<polyline style="fill-rule:evenodd;"
points="62165,47185
61874,47185
61874,46240
62165,46240
62165,47185
" /> 
<polyline style="fill-rule:evenodd;"
points="62665,48720
62374,48720
62374,47775
62665,47775
62665,48720
" /> 
<polyline style="fill-rule:evenodd;"
points="62665,47185
62374,47185
62374,46240
62665,46240
62665,47185
" /> 
<polyline style="fill-rule:evenodd;"
points="63165,48720
62874,48720
62874,47775
63165,47775
63165,48720
" /> 
<polyline style="fill-rule:evenodd;"
points="63165,47185
62874,47185
62874,46240
63165,46240
63165,47185
" /> 
<polyline style="fill-rule:evenodd;"
points="59857,47279
60192,47515
60192,47909
59857,48145
59857,47279
" /> 
<polyline style="fill-rule:evenodd;"
points="58097,46925
58687,46925
58687,47318
58097,47318
58097,46925
" /> 
<polyline style="fill-rule:evenodd;"
points="58095,47515
58804,47515
58804,47909
58095,47909
58095,47515
" /> 
<polyline style="fill-rule:evenodd;"
points="58097,48106
58687,48106
58687,48500
58097,48500
58097,48106
" /> 
<polyline style="fill-rule:evenodd;"
points="59137,47279
59862,47279
59862,48145
59137,48145
59137,47279
" /> 
<polyline style="fill-rule:evenodd;"
points="59141,48145
58748,47870
58748,47555
59141,47279
59141,48145
" /> 
<polyline style="fill-rule:evenodd;"
points="51872,46913
52403,46913
52403,47070
51872,47070
51872,46913
" /> 
<polyline style="fill-rule:evenodd;"
points="51872,47169
52403,47169
52403,47326
51872,47326
51872,47169
" /> 
<polyline style="fill-rule:evenodd;"
points="51872,47425
52403,47425
52403,47582
51872,47582
51872,47425
" /> 
<polyline style="fill-rule:evenodd;"
points="51872,47681
52403,47681
52403,47838
51872,47838
51872,47681
" /> 
<polyline style="fill-rule:evenodd;"
points="51872,47937
52403,47937
52403,48094
51872,48094
51872,47937
" /> 
<circle cx="52137.8" cy="46519.7" r="285.433" /> 
</g>
<g style="fill:#840000; fill-opacity:1.0; 
stroke:#840000; stroke-width:39.3701; stroke-opacity:1; 
stroke-linecap:round; stroke-linejoin:round;">
</g>
<g style="fill:#840000; fill-opacity:1.0; 
stroke:#840000; stroke-width:0; stroke-opacity:1; 
stroke-linecap:round; stroke-linejoin:round;">
<circle cx="52137.8" cy="48488.2" r="285.433" /> 
</g>
<g style="fill:#840000; fill-opacity:1.0; 
stroke:#840000; stroke-width:39.3701; stroke-opacity:1; 
stroke-linecap:round; stroke-linejoin:round;">
</g>
<g style="fill:#840000; fill-opacity:1.0; 
stroke:#840000; stroke-width:0; stroke-opacity:1; 
stroke-linecap:round; stroke-linejoin:round;">
<circle cx="51074.8" cy="46126" r="374.016" /> 
</g>
<g style="fill:#840000; fill-opacity:1.0; 
stroke:#840000; stroke-width:39.3701; stroke-opacity:1; 
stroke-linecap:round; stroke-linejoin:round;">
</g>
<g style="fill:#840000; fill-opacity:1.0; 
stroke:#840000; stroke-width:0; stroke-opacity:1; 
stroke-linecap:round; stroke-linejoin:round;">
<circle cx="51074.8" cy="48881.9" r="374.016" /> 
</g>
<g style="fill:#840000; fill-opacity:1.0; 
stroke:#840000; stroke-width:39.3701; stroke-opacity:1; 
stroke-linecap:round; stroke-linejoin:round;">
</g>
<g style="fill:#840000; fill-opacity:1.0; 
stroke:#840000; stroke-width:0; stroke-opacity:1; 
stroke-linecap:round; stroke-linejoin:round;">
<circle cx="50862.2" cy="50629.9" r="160" /> 
</g>
<g style="fill:#840000; fill-opacity:1.0; 
stroke:#840000; stroke-width:39.3701; stroke-opacity:1; 
stroke-linecap:round; stroke-linejoin:round;">
</g>
<g style="fill:#840000; fill-opacity:1.0; 
stroke:#840000; stroke-width:0; stroke-opacity:1; 
stroke-linecap:round; stroke-linejoin:round;">
<circle cx="50818.9" cy="44350.4" r="160" /> 
</g>
<g style="fill:#840000; fill-opacity:1.0; 
stroke:#840000; stroke-width:39.3701; stroke-opacity:1; 
stroke-linecap:round; stroke-linejoin:round;">
</g>
<g style="fill:#840000; fill-opacity:1.0; 
stroke:#840000; stroke-width:0; stroke-opacity:1; 
stroke-linecap:round; stroke-linejoin:round;">
<circle cx="63165.4" cy="45192.9" r="160" /> 
</g>
<g style="fill:#840000; fill-opacity:1.0; 
stroke:#840000; stroke-width:39.3701; stroke-opacity:1; 
stroke-linecap:round; stroke-linejoin:round;">
</g>
<g style="fill:#840000; fill-opacity:1.0; 
stroke:#840000; stroke-width:0; stroke-opacity:1; 
stroke-linecap:round; stroke-linejoin:round;">
<circle cx="63122" cy="49834.6" r="160" /> 
</g>
<g style="fill:#840000; fill-opacity:1.0; 
stroke:#840000; stroke-width:39.3701; stroke-opacity:1; 
stroke-linecap:round; stroke-linejoin:round;">
</g>
<g style="fill:#840000; fill-opacity:1.0; 
stroke:#840000; stroke-width:0; stroke-opacity:1; 
stroke-linecap:round; stroke-linejoin:round;">
<circle cx="58374" cy="46708.7" r="160" /> 
</g>
<g style="fill:#840000; fill-opacity:1.0; 
stroke:#840000; stroke-width:39.3701; stroke-opacity:1; 
stroke-linecap:round; stroke-linejoin:round;">
</g>
<g style="fill:#840000; fill-opacity:1.0; 
stroke:#840000; stroke-width:0; stroke-opacity:1; 
stroke-linecap:round; stroke-linejoin:round;">
<circle cx="55208.7" cy="48878" r="160" /> 
</g>
<g style="fill:#840000; fill-opacity:1.0; 
stroke:#840000; stroke-width:39.3701; stroke-opacity:1; 
stroke-linecap:round; stroke-linejoin:round;">
</g>
<g style="fill:#840000; fill-opacity:1.0; 
stroke:#840000; stroke-width:0; stroke-opacity:1; 
stroke-linecap:round; stroke-linejoin:round;">
<circle cx="60614.2" cy="45511.8" r="160" /> 
</g>
<g style="fill:#840000; fill-opacity:1.0; 
stroke:#840000; stroke-width:39.3701; stroke-opacity:1; 
stroke-linecap:round; stroke-linejoin:round;">
</g>
<g style="fill:#840000; fill-opacity:1.0; 
stroke:#840000; stroke-width:0; stroke-opacity:1; 
stroke-linecap:round; stroke-linejoin:round;">
<circle cx="60212.6" cy="49500" r="160" /> 
</g>
<g style="fill:#840000; fill-opacity:1.0; 
stroke:#840000; stroke-width:39.3701; stroke-opacity:1; 
stroke-linecap:round; stroke-linejoin:round;">
</g>
<g style="fill:#840000; fill-opacity:1.0; 
stroke:#840000; stroke-width:0; stroke-opacity:1; 
stroke-linecap:round; stroke-linejoin:round;">
<circle cx="60354.3" cy="48842.5" r="160" /> 
</g>
<g style="fill:#840000; fill-opacity:1.0; 
stroke:#840000; stroke-width:39.3701; stroke-opacity:1; 
stroke-linecap:round; stroke-linejoin:round;">
</g>
<g style="fill:#840000; fill-opacity:1.0; 
stroke:#840000; stroke-width:0; stroke-opacity:1; 
stroke-linecap:round; stroke-linejoin:round;">
<circle cx="54669.3" cy="46370.1" r="160" /> 
</g>
<g style="fill:#840000; fill-opacity:1.0; 
stroke:#840000; stroke-width:39.3701; stroke-opacity:1; 
stroke-linecap:round; stroke-linejoin:round;">
</g>
<g style="fill:#840000; fill-opacity:1.0; 
stroke:#840000; stroke-width:0; stroke-opacity:1; 
stroke-linecap:round; stroke-linejoin:round;">
<circle cx="56846.5" cy="46968.5" r="160" /> 
</g>
<g style="fill:#840000; fill-opacity:1.0; 
stroke:#840000; stroke-width:39.3701; stroke-opacity:1; 
stroke-linecap:round; stroke-linejoin:round;">
</g>
<g style="fill:#840000; fill-opacity:1.0; 
stroke:#840000; stroke-width:0; stroke-opacity:1; 
stroke-linecap:round; stroke-linejoin:round;">
<circle cx="57444.9" cy="49039.4" r="160" /> 
</g>
<g style="fill:#840000; fill-opacity:1.0; 
stroke:#840000; stroke-width:39.3701; stroke-opacity:1; 
stroke-linecap:round; stroke-linejoin:round;">
</g>
<g style="fill:#840000; fill-opacity:1.0; 
stroke:#840000; stroke-width:0; stroke-opacity:1; 
stroke-linecap:round; stroke-linejoin:round;">
<circle cx="52767.7" cy="48519.7" r="160" /> 
</g>
<g style="fill:#840000; fill-opacity:1.0; 
stroke:#840000; stroke-width:39.3701; stroke-opacity:1; 
stroke-linecap:round; stroke-linejoin:round;">
</g>
<g style="fill:#840000; fill-opacity:1.0; 
stroke:#840000; stroke-width:0; stroke-opacity:1; 
stroke-linecap:round; stroke-linejoin:round;">
<circle cx="53378" cy="46200.8" r="160" /> 
</g>
<g style="fill:#840000; fill-opacity:1.0; 
stroke:#840000; stroke-width:39.3701; stroke-opacity:1; 
stroke-linecap:round; stroke-linejoin:round;">
</g>
<g style="fill:#840000; fill-opacity:1.0; 
stroke:#840000; stroke-width:0; stroke-opacity:1; 
stroke-linecap:round; stroke-linejoin:round;">
<circle cx="60539.4" cy="47622" r="160" /> 
</g>
<g style="fill:#840000; fill-opacity:1.0; 
stroke:#840000; stroke-width:39.3701; stroke-opacity:1; 
stroke-linecap:round; stroke-linejoin:round;">
</g>
<g style="fill:#C2C2C2; fill-opacity:1.0; 
stroke:#C2C2C2; stroke-width:39.3701; stroke-opacity:1; 
stroke-linecap:round; stroke-linejoin:round;">
</g>
<g style="fill:#C2C2C2; fill-opacity:1.0; 
stroke:#C2C2C2; stroke-width:0; stroke-opacity:1; 
stroke-linecap:round; stroke-linejoin:round;">
<circle cx="52740.2" cy="46228.3" r="160" /> 
</g>
<g style="fill:#C2C2C2; fill-opacity:1.0; 
stroke:#C2C2C2; stroke-width:39.3701; stroke-opacity:1; 
stroke-linecap:round; stroke-linejoin:round;">
</g>
<g style="fill:#C2C2C2; fill-opacity:1.0; 
stroke:#C2C2C2; stroke-width:0; stroke-opacity:1; 
stroke-linecap:round; stroke-linejoin:round;">
<circle cx="59374" cy="46878" r="160" /> 
</g>
<g style="fill:#C2C2C2; fill-opacity:1.0; 
stroke:#C2C2C2; stroke-width:39.3701; stroke-opacity:1; 
stroke-linecap:round; stroke-linejoin:round;">
</g>
<g style="fill:#C2C2C2; fill-opacity:1.0; 
stroke:#C2C2C2; stroke-width:0; stroke-opacity:1; 
stroke-linecap:round; stroke-linejoin:round;">
<circle cx="57921.3" cy="48208.7" r="160" /> 
</g>
<g style="fill:#C2C2C2; fill-opacity:1.0; 
stroke:#C2C2C2; stroke-width:39.3701; stroke-opacity:1; 
stroke-linecap:round; stroke-linejoin:round;">
</g>
<g style="fill:#C2C2C2; fill-opacity:1.0; 
stroke:#C2C2C2; stroke-width:0; stroke-opacity:1; 
stroke-linecap:round; stroke-linejoin:round;">
<circle cx="54586.6" cy="48110.2" r="160" /> 
</g>
<g style="fill:#C2C2C2; fill-opacity:1.0; 
stroke:#C2C2C2; stroke-width:39.3701; stroke-opacity:1; 
stroke-linecap:round; stroke-linejoin:round;">
</g>
<g style="fill:#C2C2C2; fill-opacity:1.0; 
stroke:#C2C2C2; stroke-width:0; stroke-opacity:1; 
stroke-linecap:round; stroke-linejoin:round;">
<circle cx="55433.1" cy="45401.6" r="160" /> 
</g>
<g style="fill:#C2C2C2; fill-opacity:1.0; 
stroke:#C2C2C2; stroke-width:39.3701; stroke-opacity:1; 
stroke-linecap:round; stroke-linejoin:round;">
</g>
<g style="fill:#C2C2C2; fill-opacity:1.0; 
stroke:#C2C2C2; stroke-width:0; stroke-opacity:1; 
stroke-linecap:round; stroke-linejoin:round;">
<circle cx="55577.5" cy="46401" r="160" /> 
</g>
<g style="fill:#C2C2C2; fill-opacity:1.0; 
stroke:#C2C2C2; stroke-width:39.3701; stroke-opacity:1; 
stroke-linecap:round; stroke-linejoin:round;">
</g>
<g style="fill:#C2C2C2; fill-opacity:1.0; 
stroke:#C2C2C2; stroke-width:0; stroke-opacity:1; 
stroke-linecap:round; stroke-linejoin:round;">
<circle cx="55763.8" cy="47381.9" r="160" /> 
</g>
<g style="fill:#C2C2C2; fill-opacity:1.0; 
stroke:#C2C2C2; stroke-width:39.3701; stroke-opacity:1; 
stroke-linecap:round; stroke-linejoin:round;">
</g>
<g style="fill:#C2C2C2; fill-opacity:1.0; 
stroke:#C2C2C2; stroke-width:0; stroke-opacity:1; 
stroke-linecap:round; stroke-linejoin:round;">
<circle cx="55670.3" cy="46794.2" r="160" /> 
</g>
<g style="fill:#C2C2C2; fill-opacity:1.0; 
stroke:#C2C2C2; stroke-width:39.3701; stroke-opacity:1; 
stroke-linecap:round; stroke-linejoin:round;">
</g>
<g style="fill:#C2C2C2; fill-opacity:1.0; 
stroke:#C2C2C2; stroke-width:0; stroke-opacity:1; 
stroke-linecap:round; stroke-linejoin:round;">
<circle cx="58850.4" cy="48720.5" r="160" /> 
</g>
<g style="fill:#C2C2C2; fill-opacity:1.0; 
stroke:#C2C2C2; stroke-width:39.3701; stroke-opacity:1; 
stroke-linecap:round; stroke-linejoin:round;">
</g>
<g style="fill:#C2C2C2; fill-opacity:1.0; 
stroke:#C2C2C2; stroke-width:0; stroke-opacity:1; 
stroke-linecap:round; stroke-linejoin:round;">
<circle cx="57496.1" cy="46500" r="160" /> 
</g>
<g style="fill:#C2C2C2; fill-opacity:1.0; 
stroke:#C2C2C2; stroke-width:39.3701; stroke-opacity:1; 
stroke-linecap:round; stroke-linejoin:round;">
</g>
<g style="fill:#C2C2C2; fill-opacity:1.0; 
stroke:#C2C2C2; stroke-width:0; stroke-opacity:1; 
stroke-linecap:round; stroke-linejoin:round;">
<circle cx="55755.9" cy="45700.8" r="160" /> 
</g>
<g style="fill:#C2C2C2; fill-opacity:1.0; 
stroke:#C2C2C2; stroke-width:39.3701; stroke-opacity:1; 
stroke-linecap:round; stroke-linejoin:round;">
</g>
<g style="fill:#C2C2C2; fill-opacity:1.0; 
stroke:#C2C2C2; stroke-width:0; stroke-opacity:1; 
stroke-linecap:round; stroke-linejoin:round;">
<circle cx="54715.6" cy="45251.1" r="160" /> 
</g>
<g style="fill:#C2C2C2; fill-opacity:1.0; 
stroke:#C2C2C2; stroke-width:39.3701; stroke-opacity:1; 
stroke-linecap:round; stroke-linejoin:round;">
</g>
<g style="fill:#C2C2C2; fill-opacity:1.0; 
stroke:#C2C2C2; stroke-width:0; stroke-opacity:1; 
stroke-linecap:round; stroke-linejoin:round;">
<circle cx="55137.8" cy="46073.7" r="160" /> 
</g>
<g style="fill:#C2C2C2; fill-opacity:1.0; 
stroke:#C2C2C2; stroke-width:39.3701; stroke-opacity:1; 
stroke-linecap:round; stroke-linejoin:round;">
</g>
<g style="fill:#840000; fill-opacity:1.0; 
stroke:#840000; stroke-width:39.3701; stroke-opacity:1; 
stroke-linecap:round; stroke-linejoin:round;">
</g>
<g style="fill:#840000; fill-opacity:1.0; 
stroke:#840000; stroke-width:70; stroke-opacity:1; 
stroke-linecap:round; stroke-linejoin:round;">
</g>
<g style="fill:#840000; fill-opacity:0.0; 
stroke:#840000; stroke-width:70; stroke-opacity:1; 
stroke-linecap:round; stroke-linejoin:round;">
<path d="M58389 46255
L58389 45939
" />
<path d="M58389 45939
L58487 45842
" />
<path d="M58487 45842
L59818 45842
" />
<path d="M59818 45842
L60464 46488
" />
<path d="M61341 47527
L61519 47705
" />
<path d="M60464 46488
L60464 47255
" />
<path d="M60464 47255
L60736 47527
" />
<path d="M60736 47527
L61341 47527
" />
<path d="M61519 47705
L61519 48248
" />
</g>
<g style="fill:#840000; fill-opacity:0.0; 
stroke:#840000; stroke-width:200; stroke-opacity:1; 
stroke-linecap:round; stroke-linejoin:round;">
<path d="M57492 47224
L58289 47224
" />
<path d="M58289 47224
L58392 47122
" />
<path d="M58389 46255
L58389 47119
" />
<path d="M58389 47119
L58392 47122
" />
</g>
<g style="fill:#840000; fill-opacity:0.0; 
stroke:#840000; stroke-width:70; stroke-opacity:1; 
stroke-linecap:round; stroke-linejoin:round;">
<path d="M53299 47661
L54074 47661
" />
<path d="M54074 47661
L54122 47614
" />
<path d="M52137 48015
L52944 48015
" />
<path d="M52944 48015
L52955 48026
" />
<path d="M52955 48026
L52983 48026
" />
<path d="M52983 48026
L53299 47710
" />
<path d="M53299 47710
L53299 47661
" />
</g>
<g style="fill:#840000; fill-opacity:0.0; 
stroke:#840000; stroke-width:200; stroke-opacity:1; 
stroke-linecap:round; stroke-linejoin:round;">
<path d="M52740 45735
L52740 46228
" />
<path d="M52740 46228
L52740 46712
" />
<path d="M52000 44500
L52000 44994
" />
<path d="M52000 44994
L52740 45735
" />
<path d="M52740 46712
L52460 46992
" />
<path d="M52460 46992
L52137 46992
" />
<path d="M59374 46877
L59374 47586
" />
<path d="M59374 46255
L59374 46877
" />
<path d="M59500 47712
L60025 47712
" />
<path d="M58945 47712
L59500 47712
" />
<path d="M58450 47712
L58945 47712
" />
<path d="M59374 47586
L59500 47712
" />
<path d="M57492 48208
L57921 48208
" />
<path d="M57921 48208
L58297 48208
" />
<path d="M54122 48114
L54582 48114
" />
<path d="M54582 48114
L54586 48110
" />
</g>
<g style="fill:#840000; fill-opacity:0.0; 
stroke:#840000; stroke-width:70; stroke-opacity:1; 
stroke-linecap:round; stroke-linejoin:round;">
<path d="M58392 48303
L60964 48303
" />
<path d="M60964 48303
L61019 48248
" />
</g>
<g style="fill:#840000; fill-opacity:0.0; 
stroke:#840000; stroke-width:200; stroke-opacity:1; 
stroke-linecap:round; stroke-linejoin:round;">
<path d="M58392 48303
L58392 49190
" />
<path d="M58392 49190
L58385 49196
" />
<path d="M58297 48208
L58392 48303
" />
</g>
<g style="fill:#840000; fill-opacity:0.0; 
stroke:#840000; stroke-width:70; stroke-opacity:1; 
stroke-linecap:round; stroke-linejoin:round;">
<path d="M54122 48114
L53781 48114
" />
<path d="M53781 48114
L53299 48596
" />
<path d="M53299 48596
L53299 48645
" />
<path d="M57302 49803
L62303 49803
" />
<path d="M62303 49803
L63000 50500
" />
<path d="M56248 49114
L56613 49114
" />
<path d="M56613 49114
L57302 49803
" />
<path d="M56248 48614
L56070 48614
" />
<path d="M56070 48614
L55196 47740
" />
<path d="M55196 47740
L55196 46389
" />
<path d="M55196 46389
L55433 46153
" />
<path d="M55433 46153
L55433 45627
" />
<path d="M55433 45627
L55433 45401
" />
<path d="M56000 44500
L56692 45192
" />
<path d="M56692 45192
L61307 45192
" />
<path d="M61650 44849
L62000 44500
" />
<path d="M61307 45192
L61650 44849
" />
<path d="M55405 47448
L55405 46573
" />
<path d="M56070 48114
L55405 47448
" />
<path d="M55417 46560
L55577 46400
" />
<path d="M56248 48114
L56070 48114
" />
<path d="M55405 46573
L55417 46560
" />
<path d="M60000 44500
L59544 44955
" />
<path d="M58349 44849
L58000 44500
" />
<path d="M59544 44955
L58455 44955
" />
<path d="M58455 44955
L58349 44849
" />
<path d="M56248 47614
L55996 47614
" />
<path d="M55996 47614
L55763 47381
" />
<path d="M56070 47114
L55750 46794
" />
<path d="M56248 47114
L56070 47114
" />
<path d="M55750 46794
L55670 46794
" />
<path d="M59448 49196
L59409 49196
" />
<path d="M58933 48720
L58850 48720
" />
<path d="M59409 49196
L58933 48720
" />
<path d="M57381 46614
L57496 46500
" />
<path d="M56248 46614
L57381 46614
" />
<path d="M55755 45927
L55755 45700
" />
<path d="M55846 46017
L55755 45927
" />
<path d="M55846 46389
L55846 46017
" />
<path d="M56070 46614
L55846 46389
" />
<path d="M56248 46614
L56070 46614
" />
<path d="M54715 45215
L54715 45251
" />
<path d="M54000 44500
L54715 45215
" />
<path d="M63019 46712
L63019 47039
" />
<path d="M63270 47290
L63270 48804
" />
<path d="M59814 49196
L59448 49196
" />
<path d="M63019 47039
L63270 47290
" />
<path d="M63270 48804
L62877 49196
" />
<path d="M62877 49196
L59814 49196
" />
<path d="M56248 46114
L56425 46114
" />
<path d="M61269 47290
L61519 47039
" />
<path d="M56425 46114
L57007 45531
" />
<path d="M60712 47141
L60769 47198
" />
<path d="M57007 45531
L59862 45531
" />
<path d="M60769 47269
L60790 47290
" />
<path d="M59862 45531
L60712 46381
" />
<path d="M60769 47198
L60769 47269
" />
<path d="M60712 46381
L60712 47141
" />
<path d="M60790 47290
L61269 47290
" />
<path d="M61519 47039
L61519 46712
" />
<path d="M61019 46385
L61019 46712
" />
<path d="M55276 45136
L55544 45136
" />
<path d="M55544 45136
L55770 45362
" />
<path d="M54299 46114
L55276 45136
" />
<path d="M54122 46114
L54299 46114
" />
<path d="M55770 45362
L59996 45362
" />
<path d="M59996 45362
L61019 46385
" />
<path d="M52494 47248
L52473 47248
" />
<path d="M53128 46614
L52494 47248
" />
<path d="M54122 46614
L53128 46614
" />
<path d="M52473 47248
L52137 47248
" />
<path d="M52137 47503
L52726 47503
" />
<path d="M52726 47503
L53116 47114
" />
<path d="M53116 47114
L53756 47114
" />
<path d="M53756 47114
L54122 47114
" />
<path d="M54122 48614
L54487 48614
" />
<path d="M54487 48614
L54987 48114
" />
<path d="M54987 46224
L55137 46073
" />
<path d="M54987 48114
L54987 46224
" />
<path d="M54122 49114
L54487 49114
" />
<path d="M54487 49114
L55418 50044
" />
<path d="M55418 50044
L61544 50044
" />
<path d="M61544 50044
L61650 50150
" />
<path d="M61650 50150
L62000 50500
" />
</g>
<g style="fill:#840000; fill-opacity:1.0; 
stroke:#840000; stroke-width:100; stroke-opacity:1; 
stroke-linecap:round; stroke-linejoin:round;">
<polyline style="fill-rule:evenodd;"
points="51576,44216
51500,44400
51499,44599
51575,44782
51716,44923
51750,44937
51750,44994
51769,45090
51823,45171
52490,45838
52490,46039
52477,46052
52430,46166
52430,46196
52384,46150
52224,46084
52051,46084
51891,46150
51768,46272
51702,46432
51702,46605
51768,46766
51790,46787
51765,46803
51731,46853
51719,46913
51719,47070
51728,47121
51719,47169
51719,47326
51728,47377
51719,47425
51719,47582
51728,47633
51719,47681
51719,47736
51660,47795
51622,47887
51622,47913
51684,47976
51808,47976
51812,47979
51872,47991
52403,47991
52459,47981
52466,47976
52591,47976
52653,47913
52653,47887
52615,47795
52556,47736
52556,47688
52726,47688
52797,47674
52803,47670
52803,47711
52865,47711
52803,47773
52803,48006
52841,48098
52911,48168
53003,48206
53004,48206
52997,48207
52946,48240
52912,48290
52900,48350
52900,48940
52910,48996
52943,49047
52993,49081
53053,49093
53545,49093
53600,49083
53651,49050
53673,49018
53673,49232
53684,49287
53717,49338
53767,49373
53826,49385
54417,49385
54472,49374
54481,49369
55010,49899
54855,49905
54682,49977
54648,50077
55000,50429
55005,50423
55076,50494
55070,50500
55076,50505
55005,50576
55000,50570
54994,50576
54923,50505
54929,50500
54577,50148
54500,50174
54422,50148
54070,50500
54076,50505
54005,50576
54000,50570
53994,50576
53923,50505
53929,50500
53577,50148
53477,50182
53445,50269
53424,50217
53285,50077
53648,50077
54000,50429
54351,50077
54317,49977
54093,49895
53855,49905
53682,49977
53648,50077
53285,50077
53283,50076
53099,50000
52900,49999
52717,50075
52576,50216
52502,50393
52502,50150
52492,50094
52459,50043
52409,50009
52350,49997
51650,49997
51594,50007
51543,50040
51509,50090
51497,50150
51497,50830
50669,50830
50669,49217
50777,49325
50970,49405
51178,49405
51371,49326
51518,49179
51598,48986
51598,48778
51519,48585
51372,48437
51179,48357
50971,48357
50778,48437
50669,48545
50669,48117
51622,48117
51622,48144
51660,48236
51730,48306
51740,48310
51702,48401
51702,48574
51768,48734
51890,48857
52050,48923
52224,48923
52384,48857
52506,48735
52573,48575
52573,48401
52535,48310
52545,48306
52615,48236
52653,48144
52653,48117
52591,48055
52230,48055
52224,48052
52051,48052
52045,48055
51684,48055
51622,48117
50669,48117
50669,46461
50777,46569
50970,46649
51178,46650
51371,46570
51518,46423
51598,46230
51598,46022
51519,45829
51372,45682
51179,45602
50971,45601
50778,45681
50669,45789
50669,44169
51623,44169
51576,44216
" /> 
<polyline style="fill-rule:evenodd;"
points="56996,46879
56996,47111
57058,47174
57442,47174
57442,47166
57542,47166
57542,47174
57550,47174
57550,47274
57542,47274
57542,47282
57442,47282
57442,47274
57058,47274
56996,47336
56996,47569
57034,47661
57104,47731
57196,47769
57196,47769
57190,47770
57139,47803
57105,47853
57093,47913
57093,48503
57103,48559
57136,48610
57186,48644
57246,48656
57738,48656
57793,48646
57844,48613
57879,48563
57888,48518
57947,48518
57954,48555
57987,48606
58037,48640
58097,48652
58142,48652
58142,48788
58090,48788
58034,48798
57983,48831
57949,48881
57937,48940
57937,49452
57948,49508
57980,49559
58031,49593
58090,49605
58681,49605
58736,49595
58787,49562
58821,49512
58834,49452
58834,49030
58911,49030
58961,49010
59000,49049
59000,49452
59011,49508
59043,49559
59094,49593
59153,49605
59744,49605
59799,49595
59850,49562
59884,49512
59897,49452
59897,49381
62877,49381
62948,49367
63008,49327
63330,49006
63330,50123
63283,50076
63099,50000
62900,49999
62802,50040
62433,49672
62373,49632
62303,49618
57378,49618
56744,48983
56686,48944
56685,48940
56652,48889
56615,48863
56649,48841
56684,48791
56696,48732
56696,48496
56685,48440
56652,48389
56615,48363
56649,48341
56684,48291
56696,48232
56696,47996
56685,47940
56652,47889
56615,47863
56649,47841
56684,47791
56696,47732
56696,47496
56685,47440
56652,47389
56615,47363
56649,47341
56684,47291
56696,47232
56696,46996
56685,46940
56652,46889
56615,46863
56649,46841
56679,46799
57029,46799
56996,46879
" /> 
<polyline style="fill-rule:evenodd;"
points="55799,48604
55799,48732
55810,48787
55843,48838
55880,48864
55846,48886
55811,48936
55799,48996
55799,49232
55810,49287
55843,49338
55893,49373
55952,49385
56543,49385
56598,49374
56607,49369
57097,49859
55494,49859
54618,48983
54560,48944
54559,48940
54526,48889
54489,48863
54523,48841
54558,48791
54559,48783
54618,48744
55118,48245
55158,48185
55160,48172
55172,48114
55172,47977
55799,48604
" /> 
<polyline style="fill-rule:evenodd;"
points="60527,46458
60527,47141
60540,47206
60541,47212
60581,47272
60585,47276
60595,47326
60598,47339
60638,47399
60659,47420
60706,47452
60719,47460
60790,47475
61269,47475
61339,47460
61399,47420
61482,47337
61665,47337
61720,47327
61770,47295
61814,47325
61874,47337
62165,47337
62220,47327
62270,47295
62314,47325
62374,47337
62665,47337
62720,47327
62770,47295
62814,47325
62874,47337
63056,47337
63085,47366
63085,47572
63069,47588
63069,48198
63077,48198
63077,48298
63069,48298
63069,48305
62969,48305
62969,48298
62961,48298
62961,48198
62969,48198
62969,47588
62907,47525
62824,47525
62732,47563
62672,47624
62665,47622
62374,47622
62367,47623
62306,47563
62215,47525
62132,47525
62069,47588
62069,48198
62077,48198
62077,48298
62069,48298
62069,48907
62132,48970
62215,48970
62306,48932
62367,48872
62374,48873
62665,48873
62672,48872
62732,48932
62824,48970
62842,48970
62801,49011
59897,49011
59897,48940
59886,48885
59853,48834
59803,48800
59744,48788
59262,48788
59160,48686
59160,48659
59113,48545
59056,48488
60721,48488
60721,48720
60731,48776
60764,48827
60814,48861
60874,48873
61165,48873
61172,48872
61232,48932
61324,48970
61407,48970
61469,48907
61469,48298
61569,48298
61569,48907
61632,48970
61715,48970
61769,48947
61824,48970
61907,48970
61969,48907
61969,48298
61569,48298
61469,48298
61461,48298
61461,48198
61469,48198
61469,47588
61569,47588
61569,48198
61969,48198
61969,47588
61907,47525
61824,47525
61769,47548
61715,47525
61632,47525
61569,47588
61469,47588
61407,47525
61324,47525
61232,47563
61172,47624
61165,47622
60874,47622
60818,47633
60767,47665
60733,47716
60721,47775
60721,48118
60161,48118
60280,48034
60333,47968
60345,47909
60345,47515
60322,47434
60280,47390
59971,47172
59971,47172
59971,47172
59945,47154
59944,47154
59921,47138
59862,47126
59624,47126
59624,47066
59636,47053
59683,46939
59684,46816
59636,46702
59624,46689
59624,46654
59669,46654
59724,46644
59775,46611
59810,46561
59822,46501
59822,46009
59811,45954
59778,45903
59728,45868
59669,45856
59078,45856
59023,45867
58972,45900
58937,45950
58935,45964
58935,45960
58896,45868
58826,45797
58734,45759
58502,45759
58439,45822
58439,46205
58447,46205
58447,46305
58439,46305
58439,46689
58465,46714
58442,46737
58442,47072
58875,47072
58937,47009
58937,46875
58899,46783
58829,46713
58827,46712
58896,46643
58935,46551
58935,46551
58936,46557
58969,46608
59019,46642
59078,46654
59124,46654
59124,46689
59111,46702
59064,46816
59063,46939
59111,47053
59124,47066
59124,47129
59120,47129
59109,47129
59102,47133
59082,47137
59058,47152
59054,47154
59038,47165
59031,47169
59030,47170
58937,47235
58937,47234
58875,47172
58442,47172
58442,47179
58342,47179
58342,47172
58334,47172
58334,47072
58342,47072
58342,46737
58316,46712
58339,46689
58339,46305
57906,46305
57844,46368
57844,46551
57882,46643
57952,46713
57954,46714
57915,46753
57879,46717
57787,46679
57755,46679
57758,46675
57806,46561
57806,46438
57759,46324
57671,46237
57557,46190
57434,46189
57320,46237
57233,46324
57189,46429
56678,46429
56652,46389
56615,46363
56649,46341
56684,46291
56696,46232
56696,46104
56840,45960
57844,45960
57844,46143
57906,46205
58339,46205
58339,45822
58277,45759
58044,45759
57952,45797
57882,45868
57844,45960
56840,45960
57084,45716
59785,45716
60527,46458
" /> 
<polyline style="fill-rule:evenodd;"
points="55170,45576
55248,45655
55248,45783
55199,45763
55076,45763
54962,45810
54875,45897
54827,46011
54827,46135
54828,46135
54816,46153
54802,46224
54802,47887
54762,47847
54658,47804
54667,47782
54667,47726
54604,47664
54172,47664
54172,47672
54072,47672
54072,47664
53639,47664
53592,47711
53349,47711
53349,47719
53249,47719
53249,47711
53241,47711
53241,47611
53249,47611
53249,47603
53349,47603
53349,47611
53732,47611
53780,47564
54072,47564
54072,47556
54172,47556
54172,47564
54604,47564
54667,47501
54667,47446
54629,47354
54559,47284
54570,47232
54570,46996
54559,46940
54526,46889
54489,46863
54523,46841
54558,46791
54570,46732
54570,46496
54559,46440
54526,46389
54489,46363
54523,46341
54558,46291
54570,46232
54570,46104
55149,45525
55170,45576
" /> 
<polyline style="fill-rule:evenodd;"
points="62575,44782
62716,44923
62900,44999
63099,45000
63282,44924
63330,44876
63330,47088
63318,47076
63318,46240
63307,46184
63274,46133
63224,46099
63165,46087
62874,46087
62818,46097
62769,46129
62724,46099
62665,46087
62374,46087
62318,46097
62269,46129
62224,46099
62165,46087
61874,46087
61818,46097
61769,46129
61724,46099
61665,46087
61374,46087
61318,46097
61269,46129
61224,46099
61165,46087
60982,46087
60273,45377
61307,45377
61377,45363
61437,45323
61780,44980
61780,44980
61802,44959
61900,44999
62099,45000
62282,44924
62423,44783
62499,44599
62499,44599
62575,44782
" /> 
<polyline style="fill-rule:evenodd;"
points="53076,44494
53070,44500
53422,44851
53522,44817
53554,44730
53575,44782
53716,44923
53900,44999
54099,45000
54197,44959
54412,45173
54405,45189
54405,45312
54452,45426
54539,45513
54609,45542
54308,45843
53826,45843
53771,45853
53720,45886
53685,45936
53673,45996
53673,46232
53684,46287
53717,46338
53754,46364
53720,46386
53690,46429
53128,46429
53057,46443
52997,46483
52990,46490
52990,46416
53002,46404
53050,46290
53050,46166
53003,46052
52990,46039
52990,45735
52979,45682
52971,45639
52949,45606
52916,45558
52916,45558
52282,44924
52282,44924
52284,44922
52648,44922
52682,45022
52906,45104
53144,45094
53317,45022
53351,44922
53000,44570
52648,44922
52284,44922
52423,44783
52443,44735
52477,44817
52577,44851
52929,44500
52923,44494
52994,44423
53000,44429
53005,44423
53076,44494
" /> 
</g>
<g style="fill:#FFFFFF; fill-opacity:1.0; 
stroke:#FFFFFF; stroke-width:100; stroke-opacity:1; 
stroke-linecap:round; stroke-linejoin:round;">
</g>
<g style="fill:#008484; fill-opacity:1.0; 
stroke:#008484; stroke-width:100; stroke-opacity:1; 
stroke-linecap:round; stroke-linejoin:round;">
</g>
<g style="fill:#008484; fill-opacity:0.0; 
stroke:#008484; stroke-width:100; stroke-opacity:1; 
stroke-linecap:round; stroke-linejoin:round;">
</g>
<g style="fill:#008484; fill-opacity:0.0; 
stroke:#008484; stroke-width:78.7402; stroke-opacity:1; 
stroke-linecap:round; stroke-linejoin:round;">
<path d="M61213 48879
L61213 49104
" />
<path d="M61213 48992
L60819 48992
L60876 49029
L60913 49067
L60932 49104
" />
<path d="M55773 49130
L55548 49130
" />
<path d="M55661 49130
L55661 48737
L55623 48793
L55586 48830
L55548 48849
" />
</g>
<g style="fill:#008484; fill-opacity:0.0; 
stroke:#008484; stroke-width:47.2441; stroke-opacity:1; 
stroke-linecap:round; stroke-linejoin:round;">
<path d="M53633 48350
L53633 47956
" />
<path d="M52964 47956
L52964 48350
" />
<path d="M59078 45921
L58685 45921
" />
<path d="M58685 46590
L59078 46590
" />
<path d="M57157 47519
L57157 47913
" />
<path d="M57826 47913
L57826 47519
" />
</g>
<g style="fill:#008484; fill-opacity:0.0; 
stroke:#008484; stroke-width:59.0551; stroke-opacity:1; 
stroke-linecap:round; stroke-linejoin:round;">
<path d="M56001 49366
L56001 49356
" />
<path d="M54368 49366
L54368 49320
" />
<path d="M54368 45862
L54368 45907
" />
<path d="M56001 45862
L56001 45907
" />
<path d="M56001 49366
L54368 49366
" />
<path d="M56001 45862
L54368 45862
" />
<path d="M56001 49356
L56543 49356
" />
<path d="M50500 44000
L50500 51000
" />
<path d="M50500 51000
L63500 51000
" />
<path d="M63500 51000
L63500 44000
" />
<path d="M63500 44000
L50500 44000
" />
</g>
<g style="fill:#008484; fill-opacity:0.0; 
stroke:#008484; stroke-width:47.2441; stroke-opacity:1; 
stroke-linecap:round; stroke-linejoin:round;">
<path d="M58681 48850
L59153 48850
" />
<path d="M59153 49543
L58681 49543
" />
<path d="M60746 48175
L60746 46785
" />
<path d="M63293 48175
L63293 46785
" />
<path d="M60771 48696
L60771 48175
" />
<path d="M60746 48175
L60771 48175
" />
<path d="M60746 46785
L60771 46785
" />
<path d="M63267 48175
L63293 48175
" />
<path d="M63267 46785
L63293 46785
" />
<path d="M59675 48185
L59675 48657
" />
<path d="M59675 48657
L58612 48657
" />
<path d="M58100 46767
L59675 46767
" />
<path d="M59675 46767
L59675 47240
" />
</g>
<g style="fill:#008484; fill-opacity:0.0; 
stroke:#008484; stroke-width:59.0551; stroke-opacity:1; 
stroke-linecap:round; stroke-linejoin:round;">
<path d="M52472 45929
L52472 49078
" />
<path d="M52472 45929
L50503 45929
" />
<path d="M50503 45929
L50503 49078
" />
<path d="M52472 49078
L50503 49078
" />
<path d="M50228 45929
L50228 46322
" />
<path d="M50228 48685
L50228 49078
" />
</g>
<g style="fill:#000000; fill-opacity:0.0; 
stroke:#000000; stroke-width:59.0551; stroke-opacity:1; 
stroke-linecap:round; stroke-linejoin:round;">
<path d="M53412 46979
L53431 46997
L53449 47053
L53449 47091
L53431 47147
L53393 47185
L53356 47203
L53281 47222
L53224 47222
L53149 47203
L53112 47185
L53074 47147
L53056 47091
L53056 47053
L53074 46997
L53093 46979
" />
<path d="M53449 46604
L53449 46829
" />
<path d="M53449 46716
L53056 46716
L53112 46754
L53149 46791
L53168 46829
" />
<path d="M60087 46412
L60069 46431
L60012 46449
L59975 46449
L59919 46431
L59881 46393
L59862 46356
L59844 46281
L59844 46224
L59862 46149
L59881 46112
L59919 46074
L59975 46056
L60012 46056
L60069 46074
L60087 46093
" />
<path d="M60237 46093
L60256 46074
L60294 46056
L60387 46056
L60425 46074
L60444 46093
L60462 46131
L60462 46168
L60444 46224
L60219 46449
L60462 46449
" />
<path d="M57355 46624
L57336 46643
L57280 46662
L57243 46662
L57186 46643
L57149 46606
L57130 46568
L57111 46493
L57111 46437
L57130 46362
L57149 46324
L57186 46287
L57243 46268
L57280 46268
L57336 46287
L57355 46306
" />
<path d="M57486 46268
L57730 46268
L57599 46418
L57655 46418
L57693 46437
L57711 46456
L57730 46493
L57730 46587
L57711 46624
L57693 46643
L57655 46662
L57543 46662
L57505 46643
L57486 46624
" />
<path d="M54631 47831
L54631 47437
L54762 47719
L54893 47437
L54893 47831
" />
<path d="M55305 47794
L55287 47812
L55230 47831
L55193 47831
L55137 47812
L55099 47775
L55080 47737
L55062 47662
L55062 47606
L55080 47531
L55099 47494
L55137 47456
L55193 47437
L55230 47437
L55287 47456
L55305 47475
" />
<path d="M55474 47437
L55474 47756
L55493 47794
L55512 47812
L55549 47831
L55624 47831
L55662 47812
L55680 47794
L55699 47756
L55699 47437
" />
<path d="M57564 49355
L57433 49167
" />
<path d="M57339 49355
L57339 48961
L57489 48961
L57526 48980
L57545 48999
L57564 49036
L57564 49092
L57545 49130
L57526 49149
L57489 49167
L57339 49167
" />
<path d="M57939 49355
L57714 49355
" />
<path d="M57826 49355
L57826 48961
L57789 49017
L57751 49055
L57714 49074
" />
<path d="M61583 45663
L61640 45682
L61733 45682
L61771 45663
L61790 45644
L61808 45607
L61808 45569
L61790 45532
L61771 45513
L61733 45494
L61658 45475
L61621 45457
L61602 45438
L61583 45400
L61583 45363
L61602 45325
L61621 45307
L61658 45288
L61752 45288
L61808 45307
" />
<path d="M61940 45288
L62033 45682
L62108 45400
L62183 45682
L62277 45288
" />
<path d="M62427 45682
L62427 45288
L62521 45288
L62577 45307
L62614 45344
L62633 45382
L62652 45457
L62652 45513
L62633 45588
L62614 45625
L62577 45663
L62521 45682
L62427 45682
" />
<path d="M59802 46796
L59802 47114
L59821 47152
L59839 47171
L59877 47189
L59952 47189
L59989 47171
L60008 47152
L60027 47114
L60027 46796
" />
<path d="M60421 47189
L60196 47189
" />
<path d="M60308 47189
L60308 46796
L60271 46852
L60233 46889
L60196 46908
" />
<path d="M50682 48000
L51000 48000
L51038 47982
L51056 47963
L51075 47925
L51075 47850
L51056 47813
L51038 47794
L51000 47775
L50682 47775
" />
<path d="M51056 47607
L51075 47550
L51075 47457
L51056 47419
L51038 47400
L51000 47382
L50963 47382
L50925 47400
L50907 47419
L50888 47457
L50869 47532
L50850 47569
L50832 47588
L50794 47607
L50757 47607
L50719 47588
L50700 47569
L50682 47532
L50682 47438
L50700 47382
" />
<path d="M50869 47082
L50888 47025
L50907 47007
L50944 46988
L51000 46988
L51038 47007
L51056 47025
L51075 47063
L51075 47213
L50682 47213
L50682 47082
L50700 47044
L50719 47025
L50757 47007
L50794 47007
L50832 47025
L50850 47044
L50869 47082
L50869 47213
" />
<path d="M51065 45376
L51065 45638
" />
<path d="M50897 45376
L50897 45582
L50915 45619
L50953 45638
L51009 45638
L51047 45619
L51065 45601
" />
<path d="M51234 45619
L51272 45638
L51347 45638
L51384 45619
L51403 45582
L51403 45563
L51384 45526
L51347 45507
L51290 45507
L51253 45488
L51234 45451
L51234 45432
L51253 45395
L51290 45376
L51347 45376
L51384 45395
" />
<path d="M51571 45638
L51571 45245
" />
<path d="M51571 45395
L51609 45376
L51684 45376
L51721 45395
L51740 45413
L51759 45451
L51759 45563
L51740 45601
L51721 45619
L51684 45638
L51609 45638
L51571 45619
" />
</g>
<g style="fill:#008484; fill-opacity:0.0; 
stroke:#008484; stroke-width:59.0551; stroke-opacity:1; 
stroke-linecap:round; stroke-linejoin:round;">
<path d="M51396 47083
L51671 46992
L51396 46900
" />
<path d="M51566 47353
L51566 47143
" />
<path d="M51566 47608
L51566 47398
" />
<path d="M51671 47503
L51461 47503
" />
<path d="M51671 47759
L51396 47759
" />
<path d="M51409 47943
L51396 47969
L51396 48009
L51409 48048
L51435 48074
L51461 48087
L51514 48101
L51553 48101
L51606 48087
L51632 48074
L51658 48048
L51671 48009
L51671 47982
L51658 47943
L51645 47930
L51553 47930
L51553 47982
" />
</g>
<g style="fill:#C2C200; fill-opacity:0.0; 
stroke:#C2C200; stroke-width:59.0551; stroke-opacity:1; 
stroke-linecap:round; stroke-linejoin:round;">
</g>
<g style="fill:#C2C200; fill-opacity:0.0; 
stroke:#C2C200; stroke-width:39.3701; stroke-opacity:1; 
stroke-linecap:round; stroke-linejoin:round;">
<path d="M50500 51000
L50500 44000
" />
<path d="M63500 51000
L50500 51000
" />
<path d="M63500 44000
L63500 51000
" />
<path d="M50500 44000
L63500 44000
" />
</g> 
</svg>
