G04 #@! TF.FileFunction,Soldermask,Bot*
%FSLAX46Y46*%
G04 Gerber Fmt 4.6, Leading zero omitted, Abs format (unit mm)*
G04 Created by KiCad (PCBNEW 4.0.6) date Monday, June 05, 2017 'PMt' 08:11:22 PM*
%MOMM*%
%LPD*%
G01*
G04 APERTURE LIST*
%ADD10C,0.100000*%
%ADD11R,2.100000X2.100000*%
%ADD12O,2.100000X2.100000*%
%ADD13C,1.924000*%
G04 APERTURE END LIST*
D10*
D11*
X109350000Y-65750000D03*
D12*
X109350000Y-63210000D03*
X111890000Y-65750000D03*
X111890000Y-63210000D03*
X114430000Y-65750000D03*
X114430000Y-63210000D03*
X116970000Y-65750000D03*
X116970000Y-63210000D03*
X119510000Y-65750000D03*
X119510000Y-63210000D03*
X122050000Y-65750000D03*
X122050000Y-63210000D03*
X124590000Y-65750000D03*
X124590000Y-63210000D03*
X127130000Y-65750000D03*
X127130000Y-63210000D03*
X129670000Y-65750000D03*
X129670000Y-63210000D03*
X132210000Y-65750000D03*
X132210000Y-63210000D03*
X134750000Y-65750000D03*
X134750000Y-63210000D03*
X137290000Y-65750000D03*
X137290000Y-63210000D03*
X139830000Y-65750000D03*
X139830000Y-63210000D03*
X142370000Y-65750000D03*
X142370000Y-63210000D03*
X144910000Y-65750000D03*
X144910000Y-63210000D03*
X147450000Y-65750000D03*
X147450000Y-63210000D03*
X149990000Y-65750000D03*
X149990000Y-63210000D03*
X152530000Y-65750000D03*
X152530000Y-63210000D03*
X155070000Y-65750000D03*
X155070000Y-63210000D03*
X157610000Y-65750000D03*
X157610000Y-63210000D03*
X160150000Y-65750000D03*
X160150000Y-63210000D03*
X162690000Y-65750000D03*
X162690000Y-63210000D03*
X165230000Y-65750000D03*
X165230000Y-63210000D03*
X167770000Y-65750000D03*
X167770000Y-63210000D03*
D13*
X103020000Y-53000000D03*
X103020000Y-57000000D03*
X105560000Y-53000000D03*
X105560000Y-57000000D03*
X108100000Y-53000000D03*
X108100000Y-57000000D03*
X110640000Y-53000000D03*
X110640000Y-57000000D03*
X113180000Y-53000000D03*
X113180000Y-57000000D03*
X115720000Y-53000000D03*
X115720000Y-57000000D03*
X118260000Y-53000000D03*
X118260000Y-57000000D03*
X120800000Y-53000000D03*
X120800000Y-57000000D03*
X123340000Y-53000000D03*
X123340000Y-57000000D03*
X125880000Y-53000000D03*
X125880000Y-57000000D03*
X128420000Y-53000000D03*
X128420000Y-57000000D03*
X130960000Y-53000000D03*
X130960000Y-57000000D03*
X133500000Y-53000000D03*
X133500000Y-57000000D03*
X136040000Y-53000000D03*
X136040000Y-57000000D03*
X141120000Y-53000000D03*
X141120000Y-57000000D03*
X143660000Y-53000000D03*
X143660000Y-57000000D03*
X146200000Y-53000000D03*
X146200000Y-57000000D03*
X148740000Y-53000000D03*
X148740000Y-57000000D03*
X151280000Y-53000000D03*
X151280000Y-57000000D03*
X153820000Y-53000000D03*
X153820000Y-57000000D03*
X156360000Y-53000000D03*
X156360000Y-57000000D03*
X158900000Y-53000000D03*
X158900000Y-57000000D03*
X161440000Y-53000000D03*
X161440000Y-57000000D03*
X163980000Y-53000000D03*
X163980000Y-57000000D03*
D11*
X175120000Y-78110000D03*
D12*
X175120000Y-75570000D03*
D13*
X132960000Y-137300000D03*
X132960000Y-139840000D03*
X130420000Y-137300000D03*
X130420000Y-139840000D03*
X127880000Y-137300000D03*
X127880000Y-139840000D03*
X125340000Y-137300000D03*
X125340000Y-139840000D03*
X122800000Y-137300000D03*
X122800000Y-139840000D03*
X120260000Y-137300000D03*
X120260000Y-139840000D03*
X117720000Y-137300000D03*
X117720000Y-139840000D03*
X115180000Y-137300000D03*
X115180000Y-139840000D03*
X135500000Y-139840000D03*
X135500000Y-137300000D03*
X138040000Y-139840000D03*
X138040000Y-137300000D03*
X140580000Y-139840000D03*
X140580000Y-137300000D03*
X143120000Y-139840000D03*
X143120000Y-137300000D03*
X145660000Y-139840000D03*
X145660000Y-137300000D03*
X148200000Y-139840000D03*
X148200000Y-137300000D03*
X150740000Y-139840000D03*
X150740000Y-137300000D03*
X153280000Y-139840000D03*
X153280000Y-137300000D03*
X173600000Y-137300000D03*
X173600000Y-139840000D03*
X171060000Y-137300000D03*
X171060000Y-139840000D03*
X168520000Y-137300000D03*
X168520000Y-139840000D03*
X165980000Y-137300000D03*
X165980000Y-139840000D03*
X163440000Y-137300000D03*
X163440000Y-139840000D03*
X160900000Y-137300000D03*
X160900000Y-139840000D03*
X158360000Y-137300000D03*
X158360000Y-139840000D03*
X155820000Y-137300000D03*
X155820000Y-139840000D03*
X155820000Y-94120000D03*
X155820000Y-91580000D03*
X158360000Y-94120000D03*
X158360000Y-91580000D03*
X160900000Y-94120000D03*
X160900000Y-91580000D03*
X163440000Y-94120000D03*
X163440000Y-91580000D03*
X165980000Y-94120000D03*
X165980000Y-91580000D03*
X168520000Y-94120000D03*
X168520000Y-91580000D03*
X171060000Y-94120000D03*
X171060000Y-91580000D03*
X173600000Y-94120000D03*
X173600000Y-91580000D03*
X153280000Y-91580000D03*
X153280000Y-94120000D03*
X150740000Y-91580000D03*
X150740000Y-94120000D03*
X148200000Y-91580000D03*
X148200000Y-94120000D03*
X145660000Y-91580000D03*
X145660000Y-94120000D03*
X143120000Y-91580000D03*
X143120000Y-94120000D03*
X140580000Y-91580000D03*
X140580000Y-94120000D03*
X138040000Y-91580000D03*
X138040000Y-94120000D03*
X135500000Y-91580000D03*
X135500000Y-94120000D03*
X115180000Y-94120000D03*
X115180000Y-91580000D03*
X117720000Y-94120000D03*
X117720000Y-91580000D03*
X120260000Y-94120000D03*
X120260000Y-91580000D03*
X122800000Y-94120000D03*
X122800000Y-91580000D03*
X125340000Y-94120000D03*
X125340000Y-91580000D03*
X127880000Y-94120000D03*
X127880000Y-91580000D03*
X130420000Y-94120000D03*
X130420000Y-91580000D03*
X132960000Y-94120000D03*
X132960000Y-91580000D03*
M02*
