G04 #@! TF.FileFunction,Soldermask,Top*
%FSLAX46Y46*%
G04 Gerber Fmt 4.6, Leading zero omitted, Abs format (unit mm)*
G04 Created by KiCad (PCBNEW 4.0.6) date Monday, June 05, 2017 'PMt' 08:11:22 PM*
%MOMM*%
%LPD*%
G01*
G04 APERTURE LIST*
%ADD10C,0.100000*%
%ADD11R,1.000000X1.900000*%
%ADD12R,2.100000X2.100000*%
%ADD13O,2.100000X2.100000*%
%ADD14R,1.797000X1.289000*%
%ADD15R,1.289000X1.797000*%
%ADD16C,1.924000*%
%ADD17R,0.800000X1.400000*%
G04 APERTURE END LIST*
D10*
D11*
X118130000Y-73050000D03*
X116860000Y-73050000D03*
X115590000Y-73050000D03*
X114320000Y-73050000D03*
X113050000Y-73050000D03*
X111780000Y-73050000D03*
X110510000Y-73050000D03*
X110510000Y-78450000D03*
X111780000Y-78450000D03*
X113050000Y-78450000D03*
X114320000Y-78450000D03*
X115590000Y-78450000D03*
X116860000Y-78450000D03*
X118130000Y-78450000D03*
D12*
X109350000Y-65750000D03*
D13*
X109350000Y-63210000D03*
X111890000Y-65750000D03*
X111890000Y-63210000D03*
X114430000Y-65750000D03*
X114430000Y-63210000D03*
X116970000Y-65750000D03*
X116970000Y-63210000D03*
X119510000Y-65750000D03*
X119510000Y-63210000D03*
X122050000Y-65750000D03*
X122050000Y-63210000D03*
X124590000Y-65750000D03*
X124590000Y-63210000D03*
X127130000Y-65750000D03*
X127130000Y-63210000D03*
X129670000Y-65750000D03*
X129670000Y-63210000D03*
X132210000Y-65750000D03*
X132210000Y-63210000D03*
X134750000Y-65750000D03*
X134750000Y-63210000D03*
X137290000Y-65750000D03*
X137290000Y-63210000D03*
X139830000Y-65750000D03*
X139830000Y-63210000D03*
X142370000Y-65750000D03*
X142370000Y-63210000D03*
X144910000Y-65750000D03*
X144910000Y-63210000D03*
X147450000Y-65750000D03*
X147450000Y-63210000D03*
X149990000Y-65750000D03*
X149990000Y-63210000D03*
X152530000Y-65750000D03*
X152530000Y-63210000D03*
X155070000Y-65750000D03*
X155070000Y-63210000D03*
X157610000Y-65750000D03*
X157610000Y-63210000D03*
X160150000Y-65750000D03*
X160150000Y-63210000D03*
X162690000Y-65750000D03*
X162690000Y-63210000D03*
X165230000Y-65750000D03*
X165230000Y-63210000D03*
X167770000Y-65750000D03*
X167770000Y-63210000D03*
D14*
X118500000Y-85545000D03*
X118500000Y-83640000D03*
X115580000Y-85545000D03*
X115580000Y-83640000D03*
X112690000Y-83670000D03*
X112690000Y-85575000D03*
D15*
X144435000Y-81750000D03*
X142530000Y-81750000D03*
D16*
X103020000Y-53000000D03*
X103020000Y-57000000D03*
X105560000Y-53000000D03*
X105560000Y-57000000D03*
X108100000Y-53000000D03*
X108100000Y-57000000D03*
X110640000Y-53000000D03*
X110640000Y-57000000D03*
X113180000Y-53000000D03*
X113180000Y-57000000D03*
X115720000Y-53000000D03*
X115720000Y-57000000D03*
X118260000Y-53000000D03*
X118260000Y-57000000D03*
X120800000Y-53000000D03*
X120800000Y-57000000D03*
X123340000Y-53000000D03*
X123340000Y-57000000D03*
X125880000Y-53000000D03*
X125880000Y-57000000D03*
X128420000Y-53000000D03*
X128420000Y-57000000D03*
X130960000Y-53000000D03*
X130960000Y-57000000D03*
X133500000Y-53000000D03*
X133500000Y-57000000D03*
X136040000Y-53000000D03*
X136040000Y-57000000D03*
X141120000Y-53000000D03*
X141120000Y-57000000D03*
X143660000Y-53000000D03*
X143660000Y-57000000D03*
X146200000Y-53000000D03*
X146200000Y-57000000D03*
X148740000Y-53000000D03*
X148740000Y-57000000D03*
X151280000Y-53000000D03*
X151280000Y-57000000D03*
X153820000Y-53000000D03*
X153820000Y-57000000D03*
X156360000Y-53000000D03*
X156360000Y-57000000D03*
X158900000Y-53000000D03*
X158900000Y-57000000D03*
X161440000Y-53000000D03*
X161440000Y-57000000D03*
X163980000Y-53000000D03*
X163980000Y-57000000D03*
D17*
X140835000Y-72770000D03*
X140185000Y-72770000D03*
X139535000Y-72770000D03*
X138885000Y-72770000D03*
X138235000Y-72770000D03*
X137585000Y-72770000D03*
X136935000Y-72770000D03*
X136285000Y-72770000D03*
X135635000Y-72770000D03*
X134985000Y-72770000D03*
X134985000Y-78570000D03*
X135635000Y-78570000D03*
X136285000Y-78570000D03*
X136935000Y-78570000D03*
X137585000Y-78570000D03*
X138235000Y-78570000D03*
X138885000Y-78570000D03*
X139535000Y-78570000D03*
X140185000Y-78570000D03*
X140835000Y-78570000D03*
X162565000Y-72770000D03*
X161915000Y-72770000D03*
X161265000Y-72770000D03*
X160615000Y-72770000D03*
X159965000Y-72770000D03*
X159315000Y-72770000D03*
X158665000Y-72770000D03*
X158015000Y-72770000D03*
X157365000Y-72770000D03*
X156715000Y-72770000D03*
X156715000Y-78570000D03*
X157365000Y-78570000D03*
X158015000Y-78570000D03*
X158665000Y-78570000D03*
X159315000Y-78570000D03*
X159965000Y-78570000D03*
X160615000Y-78570000D03*
X161265000Y-78570000D03*
X161915000Y-78570000D03*
X162565000Y-78570000D03*
X152165000Y-72770000D03*
X151515000Y-72770000D03*
X150865000Y-72770000D03*
X150215000Y-72770000D03*
X149565000Y-72770000D03*
X148915000Y-72770000D03*
X148265000Y-72770000D03*
X147615000Y-72770000D03*
X146965000Y-72770000D03*
X146315000Y-72770000D03*
X146315000Y-78570000D03*
X146965000Y-78570000D03*
X147615000Y-78570000D03*
X148265000Y-78570000D03*
X148915000Y-78570000D03*
X149565000Y-78570000D03*
X150215000Y-78570000D03*
X150865000Y-78570000D03*
X151515000Y-78570000D03*
X152165000Y-78570000D03*
X130085000Y-72770000D03*
X129435000Y-72770000D03*
X128785000Y-72770000D03*
X128135000Y-72770000D03*
X127485000Y-72770000D03*
X126835000Y-72770000D03*
X126185000Y-72770000D03*
X125535000Y-72770000D03*
X124885000Y-72770000D03*
X124235000Y-72770000D03*
X124235000Y-78570000D03*
X124885000Y-78570000D03*
X125535000Y-78570000D03*
X126185000Y-78570000D03*
X126835000Y-78570000D03*
X127485000Y-78570000D03*
X128135000Y-78570000D03*
X128785000Y-78570000D03*
X129435000Y-78570000D03*
X130085000Y-78570000D03*
D14*
X108270000Y-77020000D03*
X108270000Y-75115000D03*
X122100000Y-77075000D03*
X122100000Y-75170000D03*
X132820000Y-76405000D03*
X132820000Y-74500000D03*
X144020000Y-76695000D03*
X144020000Y-74790000D03*
X154720000Y-76455000D03*
X154720000Y-74550000D03*
D15*
X144395000Y-84470000D03*
X142490000Y-84470000D03*
D12*
X175120000Y-78110000D03*
D13*
X175120000Y-75570000D03*
D16*
X132960000Y-137300000D03*
X132960000Y-139840000D03*
X130420000Y-137300000D03*
X130420000Y-139840000D03*
X127880000Y-137300000D03*
X127880000Y-139840000D03*
X125340000Y-137300000D03*
X125340000Y-139840000D03*
X122800000Y-137300000D03*
X122800000Y-139840000D03*
X120260000Y-137300000D03*
X120260000Y-139840000D03*
X117720000Y-137300000D03*
X117720000Y-139840000D03*
X115180000Y-137300000D03*
X115180000Y-139840000D03*
X135500000Y-139840000D03*
X135500000Y-137300000D03*
X138040000Y-139840000D03*
X138040000Y-137300000D03*
X140580000Y-139840000D03*
X140580000Y-137300000D03*
X143120000Y-139840000D03*
X143120000Y-137300000D03*
X145660000Y-139840000D03*
X145660000Y-137300000D03*
X148200000Y-139840000D03*
X148200000Y-137300000D03*
X150740000Y-139840000D03*
X150740000Y-137300000D03*
X153280000Y-139840000D03*
X153280000Y-137300000D03*
X173600000Y-137300000D03*
X173600000Y-139840000D03*
X171060000Y-137300000D03*
X171060000Y-139840000D03*
X168520000Y-137300000D03*
X168520000Y-139840000D03*
X165980000Y-137300000D03*
X165980000Y-139840000D03*
X163440000Y-137300000D03*
X163440000Y-139840000D03*
X160900000Y-137300000D03*
X160900000Y-139840000D03*
X158360000Y-137300000D03*
X158360000Y-139840000D03*
X155820000Y-137300000D03*
X155820000Y-139840000D03*
X155820000Y-94120000D03*
X155820000Y-91580000D03*
X158360000Y-94120000D03*
X158360000Y-91580000D03*
X160900000Y-94120000D03*
X160900000Y-91580000D03*
X163440000Y-94120000D03*
X163440000Y-91580000D03*
X165980000Y-94120000D03*
X165980000Y-91580000D03*
X168520000Y-94120000D03*
X168520000Y-91580000D03*
X171060000Y-94120000D03*
X171060000Y-91580000D03*
X173600000Y-94120000D03*
X173600000Y-91580000D03*
X153280000Y-91580000D03*
X153280000Y-94120000D03*
X150740000Y-91580000D03*
X150740000Y-94120000D03*
X148200000Y-91580000D03*
X148200000Y-94120000D03*
X145660000Y-91580000D03*
X145660000Y-94120000D03*
X143120000Y-91580000D03*
X143120000Y-94120000D03*
X140580000Y-91580000D03*
X140580000Y-94120000D03*
X138040000Y-91580000D03*
X138040000Y-94120000D03*
X135500000Y-91580000D03*
X135500000Y-94120000D03*
X115180000Y-94120000D03*
X115180000Y-91580000D03*
X117720000Y-94120000D03*
X117720000Y-91580000D03*
X120260000Y-94120000D03*
X120260000Y-91580000D03*
X122800000Y-94120000D03*
X122800000Y-91580000D03*
X125340000Y-94120000D03*
X125340000Y-91580000D03*
X127880000Y-94120000D03*
X127880000Y-91580000D03*
X130420000Y-94120000D03*
X130420000Y-91580000D03*
X132960000Y-94120000D03*
X132960000Y-91580000D03*
M02*
