G04 #@! TF.FileFunction,Legend,Top*
%FSLAX46Y46*%
G04 Gerber Fmt 4.6, Leading zero omitted, Abs format (unit mm)*
G04 Created by KiCad (PCBNEW 4.0.6) date Monday, June 05, 2017 'PMt' 08:11:22 PM*
%MOMM*%
%LPD*%
G01*
G04 APERTURE LIST*
%ADD10C,0.100000*%
%ADD11C,0.200000*%
%ADD12C,0.150000*%
%ADD13C,0.120000*%
%ADD14C,0.109220*%
G04 APERTURE END LIST*
D10*
X167409286Y-68382857D02*
X167409286Y-68740000D01*
X167766429Y-68775714D01*
X167730714Y-68740000D01*
X167695000Y-68668571D01*
X167695000Y-68490000D01*
X167730714Y-68418571D01*
X167766429Y-68382857D01*
X167837857Y-68347142D01*
X168016429Y-68347142D01*
X168087857Y-68382857D01*
X168123571Y-68418571D01*
X168159286Y-68490000D01*
X168159286Y-68668571D01*
X168123571Y-68740000D01*
X168087857Y-68775714D01*
X167409286Y-68132856D02*
X168159286Y-67882856D01*
X167409286Y-67632856D01*
X164945000Y-69191428D02*
X164909286Y-69262857D01*
X164909286Y-69370000D01*
X164945000Y-69477143D01*
X165016429Y-69548571D01*
X165087857Y-69584286D01*
X165230714Y-69620000D01*
X165337857Y-69620000D01*
X165480714Y-69584286D01*
X165552143Y-69548571D01*
X165623571Y-69477143D01*
X165659286Y-69370000D01*
X165659286Y-69298571D01*
X165623571Y-69191428D01*
X165587857Y-69155714D01*
X165337857Y-69155714D01*
X165337857Y-69298571D01*
X165659286Y-68834286D02*
X164909286Y-68834286D01*
X165659286Y-68405714D01*
X164909286Y-68405714D01*
X165659286Y-68048572D02*
X164909286Y-68048572D01*
X164909286Y-67870000D01*
X164945000Y-67762857D01*
X165016429Y-67691429D01*
X165087857Y-67655714D01*
X165230714Y-67620000D01*
X165337857Y-67620000D01*
X165480714Y-67655714D01*
X165552143Y-67691429D01*
X165623571Y-67762857D01*
X165659286Y-67870000D01*
X165659286Y-68048572D01*
X119179286Y-68372857D02*
X119179286Y-68730000D01*
X119536429Y-68765714D01*
X119500714Y-68730000D01*
X119465000Y-68658571D01*
X119465000Y-68480000D01*
X119500714Y-68408571D01*
X119536429Y-68372857D01*
X119607857Y-68337142D01*
X119786429Y-68337142D01*
X119857857Y-68372857D01*
X119893571Y-68408571D01*
X119929286Y-68480000D01*
X119929286Y-68658571D01*
X119893571Y-68730000D01*
X119857857Y-68765714D01*
X119179286Y-68122856D02*
X119929286Y-67872856D01*
X119179286Y-67622856D01*
X116595000Y-69181428D02*
X116559286Y-69252857D01*
X116559286Y-69360000D01*
X116595000Y-69467143D01*
X116666429Y-69538571D01*
X116737857Y-69574286D01*
X116880714Y-69610000D01*
X116987857Y-69610000D01*
X117130714Y-69574286D01*
X117202143Y-69538571D01*
X117273571Y-69467143D01*
X117309286Y-69360000D01*
X117309286Y-69288571D01*
X117273571Y-69181428D01*
X117237857Y-69145714D01*
X116987857Y-69145714D01*
X116987857Y-69288571D01*
X117309286Y-68824286D02*
X116559286Y-68824286D01*
X117309286Y-68395714D01*
X116559286Y-68395714D01*
X117309286Y-68038572D02*
X116559286Y-68038572D01*
X116559286Y-67860000D01*
X116595000Y-67752857D01*
X116666429Y-67681429D01*
X116737857Y-67645714D01*
X116880714Y-67610000D01*
X116987857Y-67610000D01*
X117130714Y-67645714D01*
X117202143Y-67681429D01*
X117273571Y-67752857D01*
X117309286Y-67860000D01*
X117309286Y-68038572D01*
X114523571Y-69634286D02*
X114523571Y-69062857D01*
X114059286Y-68348572D02*
X114059286Y-68705715D01*
X114416429Y-68741429D01*
X114380714Y-68705715D01*
X114345000Y-68634286D01*
X114345000Y-68455715D01*
X114380714Y-68384286D01*
X114416429Y-68348572D01*
X114487857Y-68312857D01*
X114666429Y-68312857D01*
X114737857Y-68348572D01*
X114773571Y-68384286D01*
X114809286Y-68455715D01*
X114809286Y-68634286D01*
X114773571Y-68705715D01*
X114737857Y-68741429D01*
X114059286Y-68098571D02*
X114809286Y-67848571D01*
X114059286Y-67598571D01*
X112095000Y-69355714D02*
X112095000Y-68998571D01*
X112309286Y-69427142D02*
X111559286Y-69177142D01*
X112309286Y-68927142D01*
X112237857Y-68248571D02*
X112273571Y-68284285D01*
X112309286Y-68391428D01*
X112309286Y-68462857D01*
X112273571Y-68570000D01*
X112202143Y-68641428D01*
X112130714Y-68677143D01*
X111987857Y-68712857D01*
X111880714Y-68712857D01*
X111737857Y-68677143D01*
X111666429Y-68641428D01*
X111595000Y-68570000D01*
X111559286Y-68462857D01*
X111559286Y-68391428D01*
X111595000Y-68284285D01*
X111630714Y-68248571D01*
X112309286Y-67927143D02*
X111809286Y-67927143D01*
X111952143Y-67927143D02*
X111880714Y-67891428D01*
X111845000Y-67855714D01*
X111809286Y-67784285D01*
X111809286Y-67712857D01*
X109709286Y-69074285D02*
X109709286Y-69502857D01*
X109709286Y-69288571D02*
X108959286Y-69288571D01*
X109066429Y-69360000D01*
X109137857Y-69431428D01*
X109173571Y-69502857D01*
X109280714Y-68645714D02*
X109245000Y-68717142D01*
X109209286Y-68752857D01*
X109137857Y-68788571D01*
X109102143Y-68788571D01*
X109030714Y-68752857D01*
X108995000Y-68717142D01*
X108959286Y-68645714D01*
X108959286Y-68502857D01*
X108995000Y-68431428D01*
X109030714Y-68395714D01*
X109102143Y-68359999D01*
X109137857Y-68359999D01*
X109209286Y-68395714D01*
X109245000Y-68431428D01*
X109280714Y-68502857D01*
X109280714Y-68645714D01*
X109316429Y-68717142D01*
X109352143Y-68752857D01*
X109423571Y-68788571D01*
X109566429Y-68788571D01*
X109637857Y-68752857D01*
X109673571Y-68717142D01*
X109709286Y-68645714D01*
X109709286Y-68502857D01*
X109673571Y-68431428D01*
X109637857Y-68395714D01*
X109566429Y-68359999D01*
X109423571Y-68359999D01*
X109352143Y-68395714D01*
X109316429Y-68431428D01*
X109280714Y-68502857D01*
X108959286Y-68145713D02*
X109709286Y-67895713D01*
X108959286Y-67645713D01*
X124929286Y-69795000D02*
X124179286Y-69795000D01*
X124179286Y-69509285D01*
X124215000Y-69437857D01*
X124250714Y-69402142D01*
X124322143Y-69366428D01*
X124429286Y-69366428D01*
X124500714Y-69402142D01*
X124536429Y-69437857D01*
X124572143Y-69509285D01*
X124572143Y-69795000D01*
X124929286Y-69045000D02*
X124179286Y-69045000D01*
X124536429Y-69045000D02*
X124536429Y-68616428D01*
X124929286Y-68616428D02*
X124179286Y-68616428D01*
X124929286Y-68259286D02*
X124179286Y-68259286D01*
X124179286Y-67759285D02*
X124179286Y-67687857D01*
X124215000Y-67616428D01*
X124250714Y-67580714D01*
X124322143Y-67545000D01*
X124465000Y-67509285D01*
X124643571Y-67509285D01*
X124786429Y-67545000D01*
X124857857Y-67580714D01*
X124893571Y-67616428D01*
X124929286Y-67687857D01*
X124929286Y-67759285D01*
X124893571Y-67830714D01*
X124857857Y-67866428D01*
X124786429Y-67902143D01*
X124643571Y-67937857D01*
X124465000Y-67937857D01*
X124322143Y-67902143D01*
X124250714Y-67866428D01*
X124215000Y-67830714D01*
X124179286Y-67759285D01*
X122489286Y-69161428D02*
X122489286Y-69590000D01*
X122489286Y-69375714D02*
X121739286Y-69375714D01*
X121846429Y-69447143D01*
X121917857Y-69518571D01*
X121953571Y-69590000D01*
X121739286Y-68518571D02*
X121739286Y-68661428D01*
X121775000Y-68732857D01*
X121810714Y-68768571D01*
X121917857Y-68840000D01*
X122060714Y-68875714D01*
X122346429Y-68875714D01*
X122417857Y-68840000D01*
X122453571Y-68804285D01*
X122489286Y-68732857D01*
X122489286Y-68590000D01*
X122453571Y-68518571D01*
X122417857Y-68482857D01*
X122346429Y-68447142D01*
X122167857Y-68447142D01*
X122096429Y-68482857D01*
X122060714Y-68518571D01*
X122025000Y-68590000D01*
X122025000Y-68732857D01*
X122060714Y-68804285D01*
X122096429Y-68840000D01*
X122167857Y-68875714D01*
X122489286Y-68125714D02*
X121739286Y-68125714D01*
X122275000Y-67875714D01*
X121739286Y-67625714D01*
X122489286Y-67625714D01*
D11*
X185100000Y-139787142D02*
X185100000Y-139072856D01*
X185528571Y-139929999D02*
X184028571Y-139429999D01*
X185528571Y-138929999D01*
X185457143Y-137787142D02*
X185528571Y-137929999D01*
X185528571Y-138215713D01*
X185457143Y-138358571D01*
X185385714Y-138429999D01*
X185242857Y-138501428D01*
X184814286Y-138501428D01*
X184671429Y-138429999D01*
X184600000Y-138358571D01*
X184528571Y-138215713D01*
X184528571Y-137929999D01*
X184600000Y-137787142D01*
X185528571Y-136929999D02*
X185457143Y-137072857D01*
X185385714Y-137144285D01*
X185242857Y-137215714D01*
X184814286Y-137215714D01*
X184671429Y-137144285D01*
X184600000Y-137072857D01*
X184528571Y-136929999D01*
X184528571Y-136715714D01*
X184600000Y-136572857D01*
X184671429Y-136501428D01*
X184814286Y-136429999D01*
X185242857Y-136429999D01*
X185385714Y-136501428D01*
X185457143Y-136572857D01*
X185528571Y-136715714D01*
X185528571Y-136929999D01*
X185528571Y-135787142D02*
X184528571Y-135787142D01*
X184814286Y-135787142D02*
X184671429Y-135715714D01*
X184600000Y-135644285D01*
X184528571Y-135501428D01*
X184528571Y-135358571D01*
X184528571Y-134858571D02*
X185528571Y-134858571D01*
X184671429Y-134858571D02*
X184600000Y-134787143D01*
X184528571Y-134644285D01*
X184528571Y-134430000D01*
X184600000Y-134287143D01*
X184742857Y-134215714D01*
X185528571Y-134215714D01*
X184742857Y-132358571D02*
X184742857Y-131858571D01*
X185528571Y-131644285D02*
X185528571Y-132358571D01*
X184028571Y-132358571D01*
X184028571Y-131644285D01*
X185528571Y-130787142D02*
X185457143Y-130930000D01*
X185314286Y-131001428D01*
X184028571Y-131001428D01*
X185457143Y-129644286D02*
X185528571Y-129787143D01*
X185528571Y-130072857D01*
X185457143Y-130215714D01*
X185314286Y-130287143D01*
X184742857Y-130287143D01*
X184600000Y-130215714D01*
X184528571Y-130072857D01*
X184528571Y-129787143D01*
X184600000Y-129644286D01*
X184742857Y-129572857D01*
X184885714Y-129572857D01*
X185028571Y-130287143D01*
X185457143Y-128287143D02*
X185528571Y-128430000D01*
X185528571Y-128715714D01*
X185457143Y-128858572D01*
X185385714Y-128930000D01*
X185242857Y-129001429D01*
X184814286Y-129001429D01*
X184671429Y-128930000D01*
X184600000Y-128858572D01*
X184528571Y-128715714D01*
X184528571Y-128430000D01*
X184600000Y-128287143D01*
X184528571Y-127858572D02*
X184528571Y-127287143D01*
X184028571Y-127644286D02*
X185314286Y-127644286D01*
X185457143Y-127572858D01*
X185528571Y-127430000D01*
X185528571Y-127287143D01*
X185528571Y-126787143D02*
X184528571Y-126787143D01*
X184814286Y-126787143D02*
X184671429Y-126715715D01*
X184600000Y-126644286D01*
X184528571Y-126501429D01*
X184528571Y-126358572D01*
X185528571Y-125644286D02*
X185457143Y-125787144D01*
X185385714Y-125858572D01*
X185242857Y-125930001D01*
X184814286Y-125930001D01*
X184671429Y-125858572D01*
X184600000Y-125787144D01*
X184528571Y-125644286D01*
X184528571Y-125430001D01*
X184600000Y-125287144D01*
X184671429Y-125215715D01*
X184814286Y-125144286D01*
X185242857Y-125144286D01*
X185385714Y-125215715D01*
X185457143Y-125287144D01*
X185528571Y-125430001D01*
X185528571Y-125644286D01*
X184528571Y-124501429D02*
X185528571Y-124501429D01*
X184671429Y-124501429D02*
X184600000Y-124430001D01*
X184528571Y-124287143D01*
X184528571Y-124072858D01*
X184600000Y-123930001D01*
X184742857Y-123858572D01*
X185528571Y-123858572D01*
X185100000Y-122072858D02*
X185100000Y-121358572D01*
X185528571Y-122215715D02*
X184028571Y-121715715D01*
X185528571Y-121215715D01*
X185528571Y-120715715D02*
X184028571Y-120715715D01*
X185528571Y-119858572D01*
X184028571Y-119858572D01*
X185528571Y-118358572D02*
X185528571Y-119215715D01*
X185528571Y-118787143D02*
X184028571Y-118787143D01*
X184242857Y-118930000D01*
X184385714Y-119072858D01*
X184457143Y-119215715D01*
X184028571Y-117001429D02*
X184028571Y-117715715D01*
X184742857Y-117787144D01*
X184671429Y-117715715D01*
X184600000Y-117572858D01*
X184600000Y-117215715D01*
X184671429Y-117072858D01*
X184742857Y-117001429D01*
X184885714Y-116930001D01*
X185242857Y-116930001D01*
X185385714Y-117001429D01*
X185457143Y-117072858D01*
X185528571Y-117215715D01*
X185528571Y-117572858D01*
X185457143Y-117715715D01*
X185385714Y-117787144D01*
X184742857Y-115144287D02*
X184742857Y-114644287D01*
X185528571Y-114430001D02*
X185528571Y-115144287D01*
X184028571Y-115144287D01*
X184028571Y-114430001D01*
X185528571Y-113930001D02*
X184528571Y-113144287D01*
X184528571Y-113930001D02*
X185528571Y-113144287D01*
X184528571Y-112572858D02*
X186028571Y-112572858D01*
X184600000Y-112572858D02*
X184528571Y-112430001D01*
X184528571Y-112144287D01*
X184600000Y-112001430D01*
X184671429Y-111930001D01*
X184814286Y-111858572D01*
X185242857Y-111858572D01*
X185385714Y-111930001D01*
X185457143Y-112001430D01*
X185528571Y-112144287D01*
X185528571Y-112430001D01*
X185457143Y-112572858D01*
X185528571Y-110572858D02*
X184742857Y-110572858D01*
X184600000Y-110644287D01*
X184528571Y-110787144D01*
X184528571Y-111072858D01*
X184600000Y-111215715D01*
X185457143Y-110572858D02*
X185528571Y-110715715D01*
X185528571Y-111072858D01*
X185457143Y-111215715D01*
X185314286Y-111287144D01*
X185171429Y-111287144D01*
X185028571Y-111215715D01*
X184957143Y-111072858D01*
X184957143Y-110715715D01*
X184885714Y-110572858D01*
X184528571Y-109858572D02*
X185528571Y-109858572D01*
X184671429Y-109858572D02*
X184600000Y-109787144D01*
X184528571Y-109644286D01*
X184528571Y-109430001D01*
X184600000Y-109287144D01*
X184742857Y-109215715D01*
X185528571Y-109215715D01*
X185457143Y-108572858D02*
X185528571Y-108430001D01*
X185528571Y-108144286D01*
X185457143Y-108001429D01*
X185314286Y-107930001D01*
X185242857Y-107930001D01*
X185100000Y-108001429D01*
X185028571Y-108144286D01*
X185028571Y-108358572D01*
X184957143Y-108501429D01*
X184814286Y-108572858D01*
X184742857Y-108572858D01*
X184600000Y-108501429D01*
X184528571Y-108358572D01*
X184528571Y-108144286D01*
X184600000Y-108001429D01*
X185528571Y-107287143D02*
X184528571Y-107287143D01*
X184028571Y-107287143D02*
X184100000Y-107358572D01*
X184171429Y-107287143D01*
X184100000Y-107215715D01*
X184028571Y-107287143D01*
X184171429Y-107287143D01*
X185528571Y-106358571D02*
X185457143Y-106501429D01*
X185385714Y-106572857D01*
X185242857Y-106644286D01*
X184814286Y-106644286D01*
X184671429Y-106572857D01*
X184600000Y-106501429D01*
X184528571Y-106358571D01*
X184528571Y-106144286D01*
X184600000Y-106001429D01*
X184671429Y-105930000D01*
X184814286Y-105858571D01*
X185242857Y-105858571D01*
X185385714Y-105930000D01*
X185457143Y-106001429D01*
X185528571Y-106144286D01*
X185528571Y-106358571D01*
X184528571Y-105215714D02*
X185528571Y-105215714D01*
X184671429Y-105215714D02*
X184600000Y-105144286D01*
X184528571Y-105001428D01*
X184528571Y-104787143D01*
X184600000Y-104644286D01*
X184742857Y-104572857D01*
X185528571Y-104572857D01*
X185385714Y-101858571D02*
X185457143Y-101930000D01*
X185528571Y-102144286D01*
X185528571Y-102287143D01*
X185457143Y-102501428D01*
X185314286Y-102644286D01*
X185171429Y-102715714D01*
X184885714Y-102787143D01*
X184671429Y-102787143D01*
X184385714Y-102715714D01*
X184242857Y-102644286D01*
X184100000Y-102501428D01*
X184028571Y-102287143D01*
X184028571Y-102144286D01*
X184100000Y-101930000D01*
X184171429Y-101858571D01*
X185528571Y-101001428D02*
X185457143Y-101144286D01*
X185385714Y-101215714D01*
X185242857Y-101287143D01*
X184814286Y-101287143D01*
X184671429Y-101215714D01*
X184600000Y-101144286D01*
X184528571Y-101001428D01*
X184528571Y-100787143D01*
X184600000Y-100644286D01*
X184671429Y-100572857D01*
X184814286Y-100501428D01*
X185242857Y-100501428D01*
X185385714Y-100572857D01*
X185457143Y-100644286D01*
X185528571Y-100787143D01*
X185528571Y-101001428D01*
X184528571Y-99858571D02*
X185528571Y-99858571D01*
X184671429Y-99858571D02*
X184600000Y-99787143D01*
X184528571Y-99644285D01*
X184528571Y-99430000D01*
X184600000Y-99287143D01*
X184742857Y-99215714D01*
X185528571Y-99215714D01*
X184528571Y-98501428D02*
X185528571Y-98501428D01*
X184671429Y-98501428D02*
X184600000Y-98430000D01*
X184528571Y-98287142D01*
X184528571Y-98072857D01*
X184600000Y-97930000D01*
X184742857Y-97858571D01*
X185528571Y-97858571D01*
X185457143Y-96572857D02*
X185528571Y-96715714D01*
X185528571Y-97001428D01*
X185457143Y-97144285D01*
X185314286Y-97215714D01*
X184742857Y-97215714D01*
X184600000Y-97144285D01*
X184528571Y-97001428D01*
X184528571Y-96715714D01*
X184600000Y-96572857D01*
X184742857Y-96501428D01*
X184885714Y-96501428D01*
X185028571Y-97215714D01*
X185457143Y-95215714D02*
X185528571Y-95358571D01*
X185528571Y-95644285D01*
X185457143Y-95787143D01*
X185385714Y-95858571D01*
X185242857Y-95930000D01*
X184814286Y-95930000D01*
X184671429Y-95858571D01*
X184600000Y-95787143D01*
X184528571Y-95644285D01*
X184528571Y-95358571D01*
X184600000Y-95215714D01*
X184528571Y-94787143D02*
X184528571Y-94215714D01*
X184028571Y-94572857D02*
X185314286Y-94572857D01*
X185457143Y-94501429D01*
X185528571Y-94358571D01*
X185528571Y-94215714D01*
X185528571Y-93501428D02*
X185457143Y-93644286D01*
X185385714Y-93715714D01*
X185242857Y-93787143D01*
X184814286Y-93787143D01*
X184671429Y-93715714D01*
X184600000Y-93644286D01*
X184528571Y-93501428D01*
X184528571Y-93287143D01*
X184600000Y-93144286D01*
X184671429Y-93072857D01*
X184814286Y-93001428D01*
X185242857Y-93001428D01*
X185385714Y-93072857D01*
X185457143Y-93144286D01*
X185528571Y-93287143D01*
X185528571Y-93501428D01*
X185528571Y-92358571D02*
X184528571Y-92358571D01*
X184814286Y-92358571D02*
X184671429Y-92287143D01*
X184600000Y-92215714D01*
X184528571Y-92072857D01*
X184528571Y-91930000D01*
X187978571Y-128822857D02*
X186478571Y-128822857D01*
X187907143Y-128822857D02*
X187978571Y-128965714D01*
X187978571Y-129251428D01*
X187907143Y-129394286D01*
X187835714Y-129465714D01*
X187692857Y-129537143D01*
X187264286Y-129537143D01*
X187121429Y-129465714D01*
X187050000Y-129394286D01*
X186978571Y-129251428D01*
X186978571Y-128965714D01*
X187050000Y-128822857D01*
X187907143Y-127537143D02*
X187978571Y-127680000D01*
X187978571Y-127965714D01*
X187907143Y-128108571D01*
X187764286Y-128180000D01*
X187192857Y-128180000D01*
X187050000Y-128108571D01*
X186978571Y-127965714D01*
X186978571Y-127680000D01*
X187050000Y-127537143D01*
X187192857Y-127465714D01*
X187335714Y-127465714D01*
X187478571Y-128180000D01*
X187978571Y-126822857D02*
X186478571Y-126822857D01*
X187050000Y-126822857D02*
X186978571Y-126680000D01*
X186978571Y-126394286D01*
X187050000Y-126251429D01*
X187121429Y-126180000D01*
X187264286Y-126108571D01*
X187692857Y-126108571D01*
X187835714Y-126180000D01*
X187907143Y-126251429D01*
X187978571Y-126394286D01*
X187978571Y-126680000D01*
X187907143Y-126822857D01*
X186978571Y-124822857D02*
X187978571Y-124822857D01*
X186978571Y-125465714D02*
X187764286Y-125465714D01*
X187907143Y-125394286D01*
X187978571Y-125251428D01*
X187978571Y-125037143D01*
X187907143Y-124894286D01*
X187835714Y-124822857D01*
X186978571Y-123465714D02*
X188192857Y-123465714D01*
X188335714Y-123537143D01*
X188407143Y-123608571D01*
X188478571Y-123751428D01*
X188478571Y-123965714D01*
X188407143Y-124108571D01*
X187907143Y-123465714D02*
X187978571Y-123608571D01*
X187978571Y-123894285D01*
X187907143Y-124037143D01*
X187835714Y-124108571D01*
X187692857Y-124180000D01*
X187264286Y-124180000D01*
X187121429Y-124108571D01*
X187050000Y-124037143D01*
X186978571Y-123894285D01*
X186978571Y-123608571D01*
X187050000Y-123465714D01*
X186407143Y-120537143D02*
X188335714Y-121822857D01*
X187978571Y-118894285D02*
X186478571Y-118894285D01*
X187050000Y-118894285D02*
X186978571Y-118751428D01*
X186978571Y-118465714D01*
X187050000Y-118322857D01*
X187121429Y-118251428D01*
X187264286Y-118179999D01*
X187692857Y-118179999D01*
X187835714Y-118251428D01*
X187907143Y-118322857D01*
X187978571Y-118465714D01*
X187978571Y-118751428D01*
X187907143Y-118894285D01*
X187978571Y-117537142D02*
X186978571Y-117537142D01*
X187264286Y-117537142D02*
X187121429Y-117465714D01*
X187050000Y-117394285D01*
X186978571Y-117251428D01*
X186978571Y-117108571D01*
X187907143Y-116037143D02*
X187978571Y-116180000D01*
X187978571Y-116465714D01*
X187907143Y-116608571D01*
X187764286Y-116680000D01*
X187192857Y-116680000D01*
X187050000Y-116608571D01*
X186978571Y-116465714D01*
X186978571Y-116180000D01*
X187050000Y-116037143D01*
X187192857Y-115965714D01*
X187335714Y-115965714D01*
X187478571Y-116680000D01*
X187978571Y-114680000D02*
X187192857Y-114680000D01*
X187050000Y-114751429D01*
X186978571Y-114894286D01*
X186978571Y-115180000D01*
X187050000Y-115322857D01*
X187907143Y-114680000D02*
X187978571Y-114822857D01*
X187978571Y-115180000D01*
X187907143Y-115322857D01*
X187764286Y-115394286D01*
X187621429Y-115394286D01*
X187478571Y-115322857D01*
X187407143Y-115180000D01*
X187407143Y-114822857D01*
X187335714Y-114680000D01*
X187978571Y-113965714D02*
X186478571Y-113965714D01*
X187407143Y-113822857D02*
X187978571Y-113394286D01*
X186978571Y-113394286D02*
X187550000Y-113965714D01*
X187978571Y-112537142D02*
X187907143Y-112680000D01*
X187835714Y-112751428D01*
X187692857Y-112822857D01*
X187264286Y-112822857D01*
X187121429Y-112751428D01*
X187050000Y-112680000D01*
X186978571Y-112537142D01*
X186978571Y-112322857D01*
X187050000Y-112180000D01*
X187121429Y-112108571D01*
X187264286Y-112037142D01*
X187692857Y-112037142D01*
X187835714Y-112108571D01*
X187907143Y-112180000D01*
X187978571Y-112322857D01*
X187978571Y-112537142D01*
X186978571Y-110751428D02*
X187978571Y-110751428D01*
X186978571Y-111394285D02*
X187764286Y-111394285D01*
X187907143Y-111322857D01*
X187978571Y-111179999D01*
X187978571Y-110965714D01*
X187907143Y-110822857D01*
X187835714Y-110751428D01*
X186978571Y-110251428D02*
X186978571Y-109679999D01*
X186478571Y-110037142D02*
X187764286Y-110037142D01*
X187907143Y-109965714D01*
X187978571Y-109822856D01*
X187978571Y-109679999D01*
X187978571Y-108037142D02*
X186478571Y-108037142D01*
X187050000Y-108037142D02*
X186978571Y-107894285D01*
X186978571Y-107608571D01*
X187050000Y-107465714D01*
X187121429Y-107394285D01*
X187264286Y-107322856D01*
X187692857Y-107322856D01*
X187835714Y-107394285D01*
X187907143Y-107465714D01*
X187978571Y-107608571D01*
X187978571Y-107894285D01*
X187907143Y-108037142D01*
X187978571Y-106465713D02*
X187907143Y-106608571D01*
X187835714Y-106679999D01*
X187692857Y-106751428D01*
X187264286Y-106751428D01*
X187121429Y-106679999D01*
X187050000Y-106608571D01*
X186978571Y-106465713D01*
X186978571Y-106251428D01*
X187050000Y-106108571D01*
X187121429Y-106037142D01*
X187264286Y-105965713D01*
X187692857Y-105965713D01*
X187835714Y-106037142D01*
X187907143Y-106108571D01*
X187978571Y-106251428D01*
X187978571Y-106465713D01*
X187978571Y-104679999D02*
X187192857Y-104679999D01*
X187050000Y-104751428D01*
X186978571Y-104894285D01*
X186978571Y-105179999D01*
X187050000Y-105322856D01*
X187907143Y-104679999D02*
X187978571Y-104822856D01*
X187978571Y-105179999D01*
X187907143Y-105322856D01*
X187764286Y-105394285D01*
X187621429Y-105394285D01*
X187478571Y-105322856D01*
X187407143Y-105179999D01*
X187407143Y-104822856D01*
X187335714Y-104679999D01*
X187978571Y-103965713D02*
X186978571Y-103965713D01*
X187264286Y-103965713D02*
X187121429Y-103894285D01*
X187050000Y-103822856D01*
X186978571Y-103679999D01*
X186978571Y-103537142D01*
X187978571Y-102394285D02*
X186478571Y-102394285D01*
X187907143Y-102394285D02*
X187978571Y-102537142D01*
X187978571Y-102822856D01*
X187907143Y-102965714D01*
X187835714Y-103037142D01*
X187692857Y-103108571D01*
X187264286Y-103108571D01*
X187121429Y-103037142D01*
X187050000Y-102965714D01*
X186978571Y-102822856D01*
X186978571Y-102537142D01*
X187050000Y-102394285D01*
X192878571Y-142072857D02*
X191378571Y-142072857D01*
X191378571Y-141715714D01*
X191450000Y-141501429D01*
X191592857Y-141358571D01*
X191735714Y-141287143D01*
X192021429Y-141215714D01*
X192235714Y-141215714D01*
X192521429Y-141287143D01*
X192664286Y-141358571D01*
X192807143Y-141501429D01*
X192878571Y-141715714D01*
X192878571Y-142072857D01*
X192807143Y-140001429D02*
X192878571Y-140144286D01*
X192878571Y-140430000D01*
X192807143Y-140572857D01*
X192664286Y-140644286D01*
X192092857Y-140644286D01*
X191950000Y-140572857D01*
X191878571Y-140430000D01*
X191878571Y-140144286D01*
X191950000Y-140001429D01*
X192092857Y-139930000D01*
X192235714Y-139930000D01*
X192378571Y-140644286D01*
X192807143Y-139358572D02*
X192878571Y-139215715D01*
X192878571Y-138930000D01*
X192807143Y-138787143D01*
X192664286Y-138715715D01*
X192592857Y-138715715D01*
X192450000Y-138787143D01*
X192378571Y-138930000D01*
X192378571Y-139144286D01*
X192307143Y-139287143D01*
X192164286Y-139358572D01*
X192092857Y-139358572D01*
X191950000Y-139287143D01*
X191878571Y-139144286D01*
X191878571Y-138930000D01*
X191950000Y-138787143D01*
X192878571Y-138072857D02*
X191878571Y-138072857D01*
X191378571Y-138072857D02*
X191450000Y-138144286D01*
X191521429Y-138072857D01*
X191450000Y-138001429D01*
X191378571Y-138072857D01*
X191521429Y-138072857D01*
X191878571Y-136715714D02*
X193092857Y-136715714D01*
X193235714Y-136787143D01*
X193307143Y-136858571D01*
X193378571Y-137001428D01*
X193378571Y-137215714D01*
X193307143Y-137358571D01*
X192807143Y-136715714D02*
X192878571Y-136858571D01*
X192878571Y-137144285D01*
X192807143Y-137287143D01*
X192735714Y-137358571D01*
X192592857Y-137430000D01*
X192164286Y-137430000D01*
X192021429Y-137358571D01*
X191950000Y-137287143D01*
X191878571Y-137144285D01*
X191878571Y-136858571D01*
X191950000Y-136715714D01*
X191878571Y-136001428D02*
X192878571Y-136001428D01*
X192021429Y-136001428D02*
X191950000Y-135930000D01*
X191878571Y-135787142D01*
X191878571Y-135572857D01*
X191950000Y-135430000D01*
X192092857Y-135358571D01*
X192878571Y-135358571D01*
X192878571Y-133501428D02*
X191378571Y-133501428D01*
X191950000Y-133501428D02*
X191878571Y-133358571D01*
X191878571Y-133072857D01*
X191950000Y-132930000D01*
X192021429Y-132858571D01*
X192164286Y-132787142D01*
X192592857Y-132787142D01*
X192735714Y-132858571D01*
X192807143Y-132930000D01*
X192878571Y-133072857D01*
X192878571Y-133358571D01*
X192807143Y-133501428D01*
X191878571Y-132287142D02*
X192878571Y-131929999D01*
X191878571Y-131572857D02*
X192878571Y-131929999D01*
X193235714Y-132072857D01*
X193307143Y-132144285D01*
X193378571Y-132287142D01*
X192878571Y-129858571D02*
X191378571Y-129858571D01*
X191378571Y-129287143D01*
X191450000Y-129144285D01*
X191521429Y-129072857D01*
X191664286Y-129001428D01*
X191878571Y-129001428D01*
X192021429Y-129072857D01*
X192092857Y-129144285D01*
X192164286Y-129287143D01*
X192164286Y-129858571D01*
X192878571Y-128358571D02*
X191378571Y-128358571D01*
X192878571Y-127715714D02*
X192092857Y-127715714D01*
X191950000Y-127787143D01*
X191878571Y-127930000D01*
X191878571Y-128144285D01*
X191950000Y-128287143D01*
X192021429Y-128358571D01*
X192878571Y-127001428D02*
X191878571Y-127001428D01*
X191378571Y-127001428D02*
X191450000Y-127072857D01*
X191521429Y-127001428D01*
X191450000Y-126930000D01*
X191378571Y-127001428D01*
X191521429Y-127001428D01*
X192878571Y-126072856D02*
X192807143Y-126215714D01*
X192664286Y-126287142D01*
X191378571Y-126287142D01*
X192878571Y-125287142D02*
X192807143Y-125430000D01*
X192664286Y-125501428D01*
X191378571Y-125501428D01*
X192878571Y-124715714D02*
X191878571Y-124715714D01*
X191378571Y-124715714D02*
X191450000Y-124787143D01*
X191521429Y-124715714D01*
X191450000Y-124644286D01*
X191378571Y-124715714D01*
X191521429Y-124715714D01*
X191878571Y-124001428D02*
X193378571Y-124001428D01*
X191950000Y-124001428D02*
X191878571Y-123858571D01*
X191878571Y-123572857D01*
X191950000Y-123430000D01*
X192021429Y-123358571D01*
X192164286Y-123287142D01*
X192592857Y-123287142D01*
X192735714Y-123358571D01*
X192807143Y-123430000D01*
X192878571Y-123572857D01*
X192878571Y-123858571D01*
X192807143Y-124001428D01*
X192878571Y-121501428D02*
X191378571Y-121501428D01*
X191378571Y-120930000D01*
X191450000Y-120787142D01*
X191521429Y-120715714D01*
X191664286Y-120644285D01*
X191878571Y-120644285D01*
X192021429Y-120715714D01*
X192092857Y-120787142D01*
X192164286Y-120930000D01*
X192164286Y-121501428D01*
X192807143Y-119430000D02*
X192878571Y-119572857D01*
X192878571Y-119858571D01*
X192807143Y-120001428D01*
X192664286Y-120072857D01*
X192092857Y-120072857D01*
X191950000Y-120001428D01*
X191878571Y-119858571D01*
X191878571Y-119572857D01*
X191950000Y-119430000D01*
X192092857Y-119358571D01*
X192235714Y-119358571D01*
X192378571Y-120072857D01*
X192878571Y-118072857D02*
X192092857Y-118072857D01*
X191950000Y-118144286D01*
X191878571Y-118287143D01*
X191878571Y-118572857D01*
X191950000Y-118715714D01*
X192807143Y-118072857D02*
X192878571Y-118215714D01*
X192878571Y-118572857D01*
X192807143Y-118715714D01*
X192664286Y-118787143D01*
X192521429Y-118787143D01*
X192378571Y-118715714D01*
X192307143Y-118572857D01*
X192307143Y-118215714D01*
X192235714Y-118072857D01*
X192878571Y-117358571D02*
X191878571Y-117358571D01*
X192164286Y-117358571D02*
X192021429Y-117287143D01*
X191950000Y-117215714D01*
X191878571Y-117072857D01*
X191878571Y-116930000D01*
X192807143Y-116501429D02*
X192878571Y-116358572D01*
X192878571Y-116072857D01*
X192807143Y-115930000D01*
X192664286Y-115858572D01*
X192592857Y-115858572D01*
X192450000Y-115930000D01*
X192378571Y-116072857D01*
X192378571Y-116287143D01*
X192307143Y-116430000D01*
X192164286Y-116501429D01*
X192092857Y-116501429D01*
X191950000Y-116430000D01*
X191878571Y-116287143D01*
X191878571Y-116072857D01*
X191950000Y-115930000D01*
X192878571Y-115001428D02*
X192807143Y-115144286D01*
X192735714Y-115215714D01*
X192592857Y-115287143D01*
X192164286Y-115287143D01*
X192021429Y-115215714D01*
X191950000Y-115144286D01*
X191878571Y-115001428D01*
X191878571Y-114787143D01*
X191950000Y-114644286D01*
X192021429Y-114572857D01*
X192164286Y-114501428D01*
X192592857Y-114501428D01*
X192735714Y-114572857D01*
X192807143Y-114644286D01*
X192878571Y-114787143D01*
X192878571Y-115001428D01*
X191878571Y-113858571D02*
X192878571Y-113858571D01*
X192021429Y-113858571D02*
X191950000Y-113787143D01*
X191878571Y-113644285D01*
X191878571Y-113430000D01*
X191950000Y-113287143D01*
X192092857Y-113215714D01*
X192878571Y-113215714D01*
X191878571Y-110215714D02*
X192307143Y-111358571D01*
X192735714Y-110215714D01*
X191878571Y-109501428D02*
X193378571Y-109501428D01*
X191950000Y-109501428D02*
X191878571Y-109358571D01*
X191878571Y-109072857D01*
X191950000Y-108930000D01*
X192021429Y-108858571D01*
X192164286Y-108787142D01*
X192592857Y-108787142D01*
X192735714Y-108858571D01*
X192807143Y-108930000D01*
X192878571Y-109072857D01*
X192878571Y-109358571D01*
X192807143Y-109501428D01*
X191878571Y-108144285D02*
X193378571Y-108144285D01*
X191950000Y-108144285D02*
X191878571Y-108001428D01*
X191878571Y-107715714D01*
X191950000Y-107572857D01*
X192021429Y-107501428D01*
X192164286Y-107429999D01*
X192592857Y-107429999D01*
X192735714Y-107501428D01*
X192807143Y-107572857D01*
X192878571Y-107715714D01*
X192878571Y-108001428D01*
X192807143Y-108144285D01*
X192164286Y-105858571D02*
X192092857Y-105929999D01*
X192021429Y-106072856D01*
X192021429Y-106215714D01*
X192092857Y-106358571D01*
X192164286Y-106429999D01*
X192307143Y-106501428D01*
X192450000Y-106501428D01*
X192592857Y-106429999D01*
X192664286Y-106358571D01*
X192735714Y-106215714D01*
X192735714Y-106072856D01*
X192664286Y-105929999D01*
X192592857Y-105858571D01*
X192021429Y-105858571D02*
X192592857Y-105858571D01*
X192664286Y-105787142D01*
X192664286Y-105715714D01*
X192592857Y-105572856D01*
X192450000Y-105501428D01*
X192092857Y-105501428D01*
X191878571Y-105644285D01*
X191735714Y-105858571D01*
X191664286Y-106144285D01*
X191735714Y-106429999D01*
X191878571Y-106644285D01*
X192092857Y-106787142D01*
X192378571Y-106858571D01*
X192664286Y-106787142D01*
X192878571Y-106644285D01*
X193021429Y-106429999D01*
X193092857Y-106144285D01*
X193021429Y-105858571D01*
X192878571Y-105644285D01*
X192878571Y-104858571D02*
X191878571Y-104858571D01*
X192021429Y-104858571D02*
X191950000Y-104787143D01*
X191878571Y-104644285D01*
X191878571Y-104430000D01*
X191950000Y-104287143D01*
X192092857Y-104215714D01*
X192878571Y-104215714D01*
X192092857Y-104215714D02*
X191950000Y-104144285D01*
X191878571Y-104001428D01*
X191878571Y-103787143D01*
X191950000Y-103644285D01*
X192092857Y-103572857D01*
X192878571Y-103572857D01*
X191878571Y-103001428D02*
X192878571Y-102644285D01*
X191878571Y-102287143D02*
X192878571Y-102644285D01*
X193235714Y-102787143D01*
X193307143Y-102858571D01*
X193378571Y-103001428D01*
X192807143Y-101144286D02*
X192878571Y-101287143D01*
X192878571Y-101572857D01*
X192807143Y-101715714D01*
X192664286Y-101787143D01*
X192092857Y-101787143D01*
X191950000Y-101715714D01*
X191878571Y-101572857D01*
X191878571Y-101287143D01*
X191950000Y-101144286D01*
X192092857Y-101072857D01*
X192235714Y-101072857D01*
X192378571Y-101787143D01*
X192878571Y-100215714D02*
X192807143Y-100358572D01*
X192664286Y-100430000D01*
X191378571Y-100430000D01*
X192878571Y-99644286D02*
X191878571Y-99644286D01*
X191378571Y-99644286D02*
X191450000Y-99715715D01*
X191521429Y-99644286D01*
X191450000Y-99572858D01*
X191378571Y-99644286D01*
X191521429Y-99644286D01*
X191878571Y-98930000D02*
X192878571Y-98930000D01*
X192021429Y-98930000D02*
X191950000Y-98858572D01*
X191878571Y-98715714D01*
X191878571Y-98501429D01*
X191950000Y-98358572D01*
X192092857Y-98287143D01*
X192878571Y-98287143D01*
X192735714Y-97572857D02*
X192807143Y-97501429D01*
X192878571Y-97572857D01*
X192807143Y-97644286D01*
X192735714Y-97572857D01*
X192878571Y-97572857D01*
X192807143Y-96215714D02*
X192878571Y-96358571D01*
X192878571Y-96644285D01*
X192807143Y-96787143D01*
X192735714Y-96858571D01*
X192592857Y-96930000D01*
X192164286Y-96930000D01*
X192021429Y-96858571D01*
X191950000Y-96787143D01*
X191878571Y-96644285D01*
X191878571Y-96358571D01*
X191950000Y-96215714D01*
X192878571Y-95358571D02*
X192807143Y-95501429D01*
X192735714Y-95572857D01*
X192592857Y-95644286D01*
X192164286Y-95644286D01*
X192021429Y-95572857D01*
X191950000Y-95501429D01*
X191878571Y-95358571D01*
X191878571Y-95144286D01*
X191950000Y-95001429D01*
X192021429Y-94930000D01*
X192164286Y-94858571D01*
X192592857Y-94858571D01*
X192735714Y-94930000D01*
X192807143Y-95001429D01*
X192878571Y-95144286D01*
X192878571Y-95358571D01*
X192735714Y-94215714D02*
X192807143Y-94144286D01*
X192878571Y-94215714D01*
X192807143Y-94287143D01*
X192735714Y-94215714D01*
X192878571Y-94215714D01*
X191878571Y-93501428D02*
X192878571Y-93501428D01*
X192021429Y-93501428D02*
X191950000Y-93430000D01*
X191878571Y-93287142D01*
X191878571Y-93072857D01*
X191950000Y-92930000D01*
X192092857Y-92858571D01*
X192878571Y-92858571D01*
X191878571Y-92287142D02*
X191878571Y-91501428D01*
X192878571Y-92287142D01*
X192878571Y-91501428D01*
X191878571Y-90929999D02*
X192307143Y-89787142D01*
X192735714Y-90929999D01*
X195185714Y-130072856D02*
X195257143Y-130144285D01*
X195328571Y-130358571D01*
X195328571Y-130501428D01*
X195257143Y-130715713D01*
X195114286Y-130858571D01*
X194971429Y-130929999D01*
X194685714Y-131001428D01*
X194471429Y-131001428D01*
X194185714Y-130929999D01*
X194042857Y-130858571D01*
X193900000Y-130715713D01*
X193828571Y-130501428D01*
X193828571Y-130358571D01*
X193900000Y-130144285D01*
X193971429Y-130072856D01*
X195328571Y-129215713D02*
X195257143Y-129358571D01*
X195185714Y-129429999D01*
X195042857Y-129501428D01*
X194614286Y-129501428D01*
X194471429Y-129429999D01*
X194400000Y-129358571D01*
X194328571Y-129215713D01*
X194328571Y-129001428D01*
X194400000Y-128858571D01*
X194471429Y-128787142D01*
X194614286Y-128715713D01*
X195042857Y-128715713D01*
X195185714Y-128787142D01*
X195257143Y-128858571D01*
X195328571Y-129001428D01*
X195328571Y-129215713D01*
X194328571Y-128072856D02*
X195828571Y-128072856D01*
X194400000Y-128072856D02*
X194328571Y-127929999D01*
X194328571Y-127644285D01*
X194400000Y-127501428D01*
X194471429Y-127429999D01*
X194614286Y-127358570D01*
X195042857Y-127358570D01*
X195185714Y-127429999D01*
X195257143Y-127501428D01*
X195328571Y-127644285D01*
X195328571Y-127929999D01*
X195257143Y-128072856D01*
X194328571Y-126858570D02*
X195328571Y-126501427D01*
X194328571Y-126144285D02*
X195328571Y-126501427D01*
X195685714Y-126644285D01*
X195757143Y-126715713D01*
X195828571Y-126858570D01*
X195328571Y-125572856D02*
X194328571Y-125572856D01*
X194614286Y-125572856D02*
X194471429Y-125501428D01*
X194400000Y-125429999D01*
X194328571Y-125287142D01*
X194328571Y-125144285D01*
X195328571Y-124644285D02*
X194328571Y-124644285D01*
X193828571Y-124644285D02*
X193900000Y-124715714D01*
X193971429Y-124644285D01*
X193900000Y-124572857D01*
X193828571Y-124644285D01*
X193971429Y-124644285D01*
X194328571Y-123287142D02*
X195542857Y-123287142D01*
X195685714Y-123358571D01*
X195757143Y-123429999D01*
X195828571Y-123572856D01*
X195828571Y-123787142D01*
X195757143Y-123929999D01*
X195257143Y-123287142D02*
X195328571Y-123429999D01*
X195328571Y-123715713D01*
X195257143Y-123858571D01*
X195185714Y-123929999D01*
X195042857Y-124001428D01*
X194614286Y-124001428D01*
X194471429Y-123929999D01*
X194400000Y-123858571D01*
X194328571Y-123715713D01*
X194328571Y-123429999D01*
X194400000Y-123287142D01*
X195328571Y-122572856D02*
X193828571Y-122572856D01*
X195328571Y-121929999D02*
X194542857Y-121929999D01*
X194400000Y-122001428D01*
X194328571Y-122144285D01*
X194328571Y-122358570D01*
X194400000Y-122501428D01*
X194471429Y-122572856D01*
X194328571Y-121429999D02*
X194328571Y-120858570D01*
X193828571Y-121215713D02*
X195114286Y-121215713D01*
X195257143Y-121144285D01*
X195328571Y-121001427D01*
X195328571Y-120858570D01*
X193971429Y-119287142D02*
X193900000Y-119215713D01*
X193828571Y-119072856D01*
X193828571Y-118715713D01*
X193900000Y-118572856D01*
X193971429Y-118501427D01*
X194114286Y-118429999D01*
X194257143Y-118429999D01*
X194471429Y-118501427D01*
X195328571Y-119358570D01*
X195328571Y-118429999D01*
X193828571Y-117501428D02*
X193828571Y-117358571D01*
X193900000Y-117215714D01*
X193971429Y-117144285D01*
X194114286Y-117072856D01*
X194400000Y-117001428D01*
X194757143Y-117001428D01*
X195042857Y-117072856D01*
X195185714Y-117144285D01*
X195257143Y-117215714D01*
X195328571Y-117358571D01*
X195328571Y-117501428D01*
X195257143Y-117644285D01*
X195185714Y-117715714D01*
X195042857Y-117787142D01*
X194757143Y-117858571D01*
X194400000Y-117858571D01*
X194114286Y-117787142D01*
X193971429Y-117715714D01*
X193900000Y-117644285D01*
X193828571Y-117501428D01*
X195328571Y-115572857D02*
X195328571Y-116430000D01*
X195328571Y-116001428D02*
X193828571Y-116001428D01*
X194042857Y-116144285D01*
X194185714Y-116287143D01*
X194257143Y-116430000D01*
X193828571Y-115072857D02*
X193828571Y-114072857D01*
X195328571Y-114715714D01*
X193900000Y-111572858D02*
X193828571Y-111715715D01*
X193828571Y-111930001D01*
X193900000Y-112144286D01*
X194042857Y-112287144D01*
X194185714Y-112358572D01*
X194471429Y-112430001D01*
X194685714Y-112430001D01*
X194971429Y-112358572D01*
X195114286Y-112287144D01*
X195257143Y-112144286D01*
X195328571Y-111930001D01*
X195328571Y-111787144D01*
X195257143Y-111572858D01*
X195185714Y-111501429D01*
X194685714Y-111501429D01*
X194685714Y-111787144D01*
X195328571Y-110644286D02*
X195257143Y-110787144D01*
X195185714Y-110858572D01*
X195042857Y-110930001D01*
X194614286Y-110930001D01*
X194471429Y-110858572D01*
X194400000Y-110787144D01*
X194328571Y-110644286D01*
X194328571Y-110430001D01*
X194400000Y-110287144D01*
X194471429Y-110215715D01*
X194614286Y-110144286D01*
X195042857Y-110144286D01*
X195185714Y-110215715D01*
X195257143Y-110287144D01*
X195328571Y-110430001D01*
X195328571Y-110644286D01*
X195328571Y-109287143D02*
X195257143Y-109430001D01*
X195185714Y-109501429D01*
X195042857Y-109572858D01*
X194614286Y-109572858D01*
X194471429Y-109501429D01*
X194400000Y-109430001D01*
X194328571Y-109287143D01*
X194328571Y-109072858D01*
X194400000Y-108930001D01*
X194471429Y-108858572D01*
X194614286Y-108787143D01*
X195042857Y-108787143D01*
X195185714Y-108858572D01*
X195257143Y-108930001D01*
X195328571Y-109072858D01*
X195328571Y-109287143D01*
X194328571Y-107501429D02*
X195542857Y-107501429D01*
X195685714Y-107572858D01*
X195757143Y-107644286D01*
X195828571Y-107787143D01*
X195828571Y-108001429D01*
X195757143Y-108144286D01*
X195257143Y-107501429D02*
X195328571Y-107644286D01*
X195328571Y-107930000D01*
X195257143Y-108072858D01*
X195185714Y-108144286D01*
X195042857Y-108215715D01*
X194614286Y-108215715D01*
X194471429Y-108144286D01*
X194400000Y-108072858D01*
X194328571Y-107930000D01*
X194328571Y-107644286D01*
X194400000Y-107501429D01*
X195328571Y-106572857D02*
X195257143Y-106715715D01*
X195114286Y-106787143D01*
X193828571Y-106787143D01*
X195257143Y-105430001D02*
X195328571Y-105572858D01*
X195328571Y-105858572D01*
X195257143Y-106001429D01*
X195114286Y-106072858D01*
X194542857Y-106072858D01*
X194400000Y-106001429D01*
X194328571Y-105858572D01*
X194328571Y-105572858D01*
X194400000Y-105430001D01*
X194542857Y-105358572D01*
X194685714Y-105358572D01*
X194828571Y-106072858D01*
X195328571Y-103572858D02*
X193828571Y-103572858D01*
X194328571Y-102858572D02*
X195328571Y-102858572D01*
X194471429Y-102858572D02*
X194400000Y-102787144D01*
X194328571Y-102644286D01*
X194328571Y-102430001D01*
X194400000Y-102287144D01*
X194542857Y-102215715D01*
X195328571Y-102215715D01*
X195257143Y-100858572D02*
X195328571Y-101001429D01*
X195328571Y-101287143D01*
X195257143Y-101430001D01*
X195185714Y-101501429D01*
X195042857Y-101572858D01*
X194614286Y-101572858D01*
X194471429Y-101501429D01*
X194400000Y-101430001D01*
X194328571Y-101287143D01*
X194328571Y-101001429D01*
X194400000Y-100858572D01*
X177797143Y-75642143D02*
X178940000Y-75642143D01*
X180797143Y-75427857D02*
X181297143Y-75427857D01*
X181511429Y-76213571D02*
X180797143Y-76213571D01*
X180797143Y-74713571D01*
X181511429Y-74713571D01*
X182368572Y-76213571D02*
X182225714Y-76142143D01*
X182154286Y-75999286D01*
X182154286Y-74713571D01*
X182940000Y-76213571D02*
X182940000Y-74713571D01*
X183082857Y-75642143D02*
X183511428Y-76213571D01*
X183511428Y-75213571D02*
X182940000Y-75785000D01*
X186011429Y-74713571D02*
X185297143Y-74713571D01*
X185225714Y-75427857D01*
X185297143Y-75356429D01*
X185440000Y-75285000D01*
X185797143Y-75285000D01*
X185940000Y-75356429D01*
X186011429Y-75427857D01*
X186082857Y-75570714D01*
X186082857Y-75927857D01*
X186011429Y-76070714D01*
X185940000Y-76142143D01*
X185797143Y-76213571D01*
X185440000Y-76213571D01*
X185297143Y-76142143D01*
X185225714Y-76070714D01*
X186511428Y-74713571D02*
X187011428Y-76213571D01*
X187511428Y-74713571D01*
X177797143Y-78092143D02*
X178940000Y-78092143D01*
X180725714Y-78592143D02*
X180940000Y-78663571D01*
X181297143Y-78663571D01*
X181440000Y-78592143D01*
X181511429Y-78520714D01*
X181582857Y-78377857D01*
X181582857Y-78235000D01*
X181511429Y-78092143D01*
X181440000Y-78020714D01*
X181297143Y-77949286D01*
X181011429Y-77877857D01*
X180868571Y-77806429D01*
X180797143Y-77735000D01*
X180725714Y-77592143D01*
X180725714Y-77449286D01*
X180797143Y-77306429D01*
X180868571Y-77235000D01*
X181011429Y-77163571D01*
X181368571Y-77163571D01*
X181582857Y-77235000D01*
X182225714Y-77663571D02*
X182225714Y-79163571D01*
X182225714Y-77735000D02*
X182368571Y-77663571D01*
X182654285Y-77663571D01*
X182797142Y-77735000D01*
X182868571Y-77806429D01*
X182940000Y-77949286D01*
X182940000Y-78377857D01*
X182868571Y-78520714D01*
X182797142Y-78592143D01*
X182654285Y-78663571D01*
X182368571Y-78663571D01*
X182225714Y-78592143D01*
X184225714Y-78663571D02*
X184225714Y-77877857D01*
X184154285Y-77735000D01*
X184011428Y-77663571D01*
X183725714Y-77663571D01*
X183582857Y-77735000D01*
X184225714Y-78592143D02*
X184082857Y-78663571D01*
X183725714Y-78663571D01*
X183582857Y-78592143D01*
X183511428Y-78449286D01*
X183511428Y-78306429D01*
X183582857Y-78163571D01*
X183725714Y-78092143D01*
X184082857Y-78092143D01*
X184225714Y-78020714D01*
X184940000Y-78663571D02*
X184940000Y-77663571D01*
X184940000Y-77949286D02*
X185011428Y-77806429D01*
X185082857Y-77735000D01*
X185225714Y-77663571D01*
X185368571Y-77663571D01*
X185654285Y-77663571D02*
X186225714Y-77663571D01*
X185868571Y-77163571D02*
X185868571Y-78449286D01*
X185939999Y-78592143D01*
X186082857Y-78663571D01*
X186225714Y-78663571D01*
X187368571Y-78663571D02*
X187368571Y-77877857D01*
X187297142Y-77735000D01*
X187154285Y-77663571D01*
X186868571Y-77663571D01*
X186725714Y-77735000D01*
X187368571Y-78592143D02*
X187225714Y-78663571D01*
X186868571Y-78663571D01*
X186725714Y-78592143D01*
X186654285Y-78449286D01*
X186654285Y-78306429D01*
X186725714Y-78163571D01*
X186868571Y-78092143D01*
X187225714Y-78092143D01*
X187368571Y-78020714D01*
X188082857Y-77663571D02*
X188082857Y-78663571D01*
X188082857Y-77806429D02*
X188154285Y-77735000D01*
X188297143Y-77663571D01*
X188511428Y-77663571D01*
X188654285Y-77735000D01*
X188725714Y-77877857D01*
X188725714Y-78663571D01*
X191297143Y-77163571D02*
X190582857Y-77163571D01*
X190511428Y-77877857D01*
X190582857Y-77806429D01*
X190725714Y-77735000D01*
X191082857Y-77735000D01*
X191225714Y-77806429D01*
X191297143Y-77877857D01*
X191368571Y-78020714D01*
X191368571Y-78377857D01*
X191297143Y-78520714D01*
X191225714Y-78592143D01*
X191082857Y-78663571D01*
X190725714Y-78663571D01*
X190582857Y-78592143D01*
X190511428Y-78520714D01*
X191797142Y-77163571D02*
X192297142Y-78663571D01*
X192797142Y-77163571D01*
X193582856Y-77163571D02*
X193725713Y-77163571D01*
X193868570Y-77235000D01*
X193939999Y-77306429D01*
X194011428Y-77449286D01*
X194082856Y-77735000D01*
X194082856Y-78092143D01*
X194011428Y-78377857D01*
X193939999Y-78520714D01*
X193868570Y-78592143D01*
X193725713Y-78663571D01*
X193582856Y-78663571D01*
X193439999Y-78592143D01*
X193368570Y-78520714D01*
X193297142Y-78377857D01*
X193225713Y-78092143D01*
X193225713Y-77735000D01*
X193297142Y-77449286D01*
X193368570Y-77306429D01*
X193439999Y-77235000D01*
X193582856Y-77163571D01*
X177797143Y-81113571D02*
X177797143Y-79613571D01*
X178154286Y-79613571D01*
X178368571Y-79685000D01*
X178511429Y-79827857D01*
X178582857Y-79970714D01*
X178654286Y-80256429D01*
X178654286Y-80470714D01*
X178582857Y-80756429D01*
X178511429Y-80899286D01*
X178368571Y-81042143D01*
X178154286Y-81113571D01*
X177797143Y-81113571D01*
X179297143Y-81113571D02*
X179297143Y-80113571D01*
X179297143Y-79613571D02*
X179225714Y-79685000D01*
X179297143Y-79756429D01*
X179368571Y-79685000D01*
X179297143Y-79613571D01*
X179297143Y-79756429D01*
X179940000Y-81042143D02*
X180082857Y-81113571D01*
X180368572Y-81113571D01*
X180511429Y-81042143D01*
X180582857Y-80899286D01*
X180582857Y-80827857D01*
X180511429Y-80685000D01*
X180368572Y-80613571D01*
X180154286Y-80613571D01*
X180011429Y-80542143D01*
X179940000Y-80399286D01*
X179940000Y-80327857D01*
X180011429Y-80185000D01*
X180154286Y-80113571D01*
X180368572Y-80113571D01*
X180511429Y-80185000D01*
X181868572Y-81042143D02*
X181725715Y-81113571D01*
X181440001Y-81113571D01*
X181297143Y-81042143D01*
X181225715Y-80970714D01*
X181154286Y-80827857D01*
X181154286Y-80399286D01*
X181225715Y-80256429D01*
X181297143Y-80185000D01*
X181440001Y-80113571D01*
X181725715Y-80113571D01*
X181868572Y-80185000D01*
X182725715Y-81113571D02*
X182582857Y-81042143D01*
X182511429Y-80970714D01*
X182440000Y-80827857D01*
X182440000Y-80399286D01*
X182511429Y-80256429D01*
X182582857Y-80185000D01*
X182725715Y-80113571D01*
X182940000Y-80113571D01*
X183082857Y-80185000D01*
X183154286Y-80256429D01*
X183225715Y-80399286D01*
X183225715Y-80827857D01*
X183154286Y-80970714D01*
X183082857Y-81042143D01*
X182940000Y-81113571D01*
X182725715Y-81113571D01*
X183868572Y-80113571D02*
X183868572Y-81113571D01*
X183868572Y-80256429D02*
X183940000Y-80185000D01*
X184082858Y-80113571D01*
X184297143Y-80113571D01*
X184440000Y-80185000D01*
X184511429Y-80327857D01*
X184511429Y-81113571D01*
X185225715Y-80113571D02*
X185225715Y-81113571D01*
X185225715Y-80256429D02*
X185297143Y-80185000D01*
X185440001Y-80113571D01*
X185654286Y-80113571D01*
X185797143Y-80185000D01*
X185868572Y-80327857D01*
X185868572Y-81113571D01*
X187154286Y-81042143D02*
X187011429Y-81113571D01*
X186725715Y-81113571D01*
X186582858Y-81042143D01*
X186511429Y-80899286D01*
X186511429Y-80327857D01*
X186582858Y-80185000D01*
X186725715Y-80113571D01*
X187011429Y-80113571D01*
X187154286Y-80185000D01*
X187225715Y-80327857D01*
X187225715Y-80470714D01*
X186511429Y-80613571D01*
X188511429Y-81042143D02*
X188368572Y-81113571D01*
X188082858Y-81113571D01*
X187940000Y-81042143D01*
X187868572Y-80970714D01*
X187797143Y-80827857D01*
X187797143Y-80399286D01*
X187868572Y-80256429D01*
X187940000Y-80185000D01*
X188082858Y-80113571D01*
X188368572Y-80113571D01*
X188511429Y-80185000D01*
X188940000Y-80113571D02*
X189511429Y-80113571D01*
X189154286Y-79613571D02*
X189154286Y-80899286D01*
X189225714Y-81042143D01*
X189368572Y-81113571D01*
X189511429Y-81113571D01*
X191011429Y-80113571D02*
X191297143Y-81113571D01*
X191582857Y-80399286D01*
X191868572Y-81113571D01*
X192154286Y-80113571D01*
X192725715Y-81113571D02*
X192725715Y-79613571D01*
X193368572Y-81113571D02*
X193368572Y-80327857D01*
X193297143Y-80185000D01*
X193154286Y-80113571D01*
X192940001Y-80113571D01*
X192797143Y-80185000D01*
X192725715Y-80256429D01*
X194654286Y-81042143D02*
X194511429Y-81113571D01*
X194225715Y-81113571D01*
X194082858Y-81042143D01*
X194011429Y-80899286D01*
X194011429Y-80327857D01*
X194082858Y-80185000D01*
X194225715Y-80113571D01*
X194511429Y-80113571D01*
X194654286Y-80185000D01*
X194725715Y-80327857D01*
X194725715Y-80470714D01*
X194011429Y-80613571D01*
X195368572Y-80113571D02*
X195368572Y-81113571D01*
X195368572Y-80256429D02*
X195440000Y-80185000D01*
X195582858Y-80113571D01*
X195797143Y-80113571D01*
X195940000Y-80185000D01*
X196011429Y-80327857D01*
X196011429Y-81113571D01*
X178440000Y-82563571D02*
X178440000Y-83563571D01*
X177797143Y-82563571D02*
X177797143Y-83349286D01*
X177868571Y-83492143D01*
X178011429Y-83563571D01*
X178225714Y-83563571D01*
X178368571Y-83492143D01*
X178440000Y-83420714D01*
X179082857Y-83492143D02*
X179225714Y-83563571D01*
X179511429Y-83563571D01*
X179654286Y-83492143D01*
X179725714Y-83349286D01*
X179725714Y-83277857D01*
X179654286Y-83135000D01*
X179511429Y-83063571D01*
X179297143Y-83063571D01*
X179154286Y-82992143D01*
X179082857Y-82849286D01*
X179082857Y-82777857D01*
X179154286Y-82635000D01*
X179297143Y-82563571D01*
X179511429Y-82563571D01*
X179654286Y-82635000D01*
X180368572Y-83563571D02*
X180368572Y-82563571D01*
X180368572Y-82063571D02*
X180297143Y-82135000D01*
X180368572Y-82206429D01*
X180440000Y-82135000D01*
X180368572Y-82063571D01*
X180368572Y-82206429D01*
X181082858Y-82563571D02*
X181082858Y-83563571D01*
X181082858Y-82706429D02*
X181154286Y-82635000D01*
X181297144Y-82563571D01*
X181511429Y-82563571D01*
X181654286Y-82635000D01*
X181725715Y-82777857D01*
X181725715Y-83563571D01*
X183082858Y-82563571D02*
X183082858Y-83777857D01*
X183011429Y-83920714D01*
X182940001Y-83992143D01*
X182797144Y-84063571D01*
X182582858Y-84063571D01*
X182440001Y-83992143D01*
X183082858Y-83492143D02*
X182940001Y-83563571D01*
X182654287Y-83563571D01*
X182511429Y-83492143D01*
X182440001Y-83420714D01*
X182368572Y-83277857D01*
X182368572Y-82849286D01*
X182440001Y-82706429D01*
X182511429Y-82635000D01*
X182654287Y-82563571D01*
X182940001Y-82563571D01*
X183082858Y-82635000D01*
X184940001Y-82063571D02*
X184940001Y-83277857D01*
X185011429Y-83420714D01*
X185082858Y-83492143D01*
X185225715Y-83563571D01*
X185511429Y-83563571D01*
X185654287Y-83492143D01*
X185725715Y-83420714D01*
X185797144Y-83277857D01*
X185797144Y-82063571D01*
X186440001Y-83492143D02*
X186654287Y-83563571D01*
X187011430Y-83563571D01*
X187154287Y-83492143D01*
X187225716Y-83420714D01*
X187297144Y-83277857D01*
X187297144Y-83135000D01*
X187225716Y-82992143D01*
X187154287Y-82920714D01*
X187011430Y-82849286D01*
X186725716Y-82777857D01*
X186582858Y-82706429D01*
X186511430Y-82635000D01*
X186440001Y-82492143D01*
X186440001Y-82349286D01*
X186511430Y-82206429D01*
X186582858Y-82135000D01*
X186725716Y-82063571D01*
X187082858Y-82063571D01*
X187297144Y-82135000D01*
X188440001Y-82777857D02*
X188654287Y-82849286D01*
X188725715Y-82920714D01*
X188797144Y-83063571D01*
X188797144Y-83277857D01*
X188725715Y-83420714D01*
X188654287Y-83492143D01*
X188511429Y-83563571D01*
X187940001Y-83563571D01*
X187940001Y-82063571D01*
X188440001Y-82063571D01*
X188582858Y-82135000D01*
X188654287Y-82206429D01*
X188725715Y-82349286D01*
X188725715Y-82492143D01*
X188654287Y-82635000D01*
X188582858Y-82706429D01*
X188440001Y-82777857D01*
X187940001Y-82777857D01*
X189440001Y-83420714D02*
X189511429Y-83492143D01*
X189440001Y-83563571D01*
X189368572Y-83492143D01*
X189440001Y-83420714D01*
X189440001Y-83563571D01*
X189440001Y-82992143D02*
X189368572Y-82135000D01*
X189440001Y-82063571D01*
X189511429Y-82135000D01*
X189440001Y-82992143D01*
X189440001Y-82063571D01*
X174054286Y-62693571D02*
X172911429Y-63122143D01*
X174054286Y-63550714D01*
X174768572Y-63122143D02*
X175911429Y-63122143D01*
X176625715Y-63122143D02*
X177768572Y-63122143D01*
X180340001Y-62193571D02*
X179625715Y-62193571D01*
X179554286Y-62907857D01*
X179625715Y-62836429D01*
X179768572Y-62765000D01*
X180125715Y-62765000D01*
X180268572Y-62836429D01*
X180340001Y-62907857D01*
X180411429Y-63050714D01*
X180411429Y-63407857D01*
X180340001Y-63550714D01*
X180268572Y-63622143D01*
X180125715Y-63693571D01*
X179768572Y-63693571D01*
X179625715Y-63622143D01*
X179554286Y-63550714D01*
X180840000Y-62193571D02*
X181340000Y-63693571D01*
X181840000Y-62193571D01*
X183268571Y-62193571D02*
X184125714Y-62193571D01*
X183697143Y-63693571D02*
X183697143Y-62193571D01*
X184411428Y-62193571D02*
X185268571Y-62193571D01*
X184840000Y-63693571D02*
X184840000Y-62193571D01*
X186482857Y-63693571D02*
X185768571Y-63693571D01*
X185768571Y-62193571D01*
X173125715Y-65143571D02*
X173697144Y-65143571D01*
X173340001Y-66143571D02*
X173340001Y-64857857D01*
X173411429Y-64715000D01*
X173554287Y-64643571D01*
X173697144Y-64643571D01*
X174197144Y-66143571D02*
X174197144Y-65143571D01*
X174197144Y-65429286D02*
X174268572Y-65286429D01*
X174340001Y-65215000D01*
X174482858Y-65143571D01*
X174625715Y-65143571D01*
X175340001Y-66143571D02*
X175197143Y-66072143D01*
X175125715Y-66000714D01*
X175054286Y-65857857D01*
X175054286Y-65429286D01*
X175125715Y-65286429D01*
X175197143Y-65215000D01*
X175340001Y-65143571D01*
X175554286Y-65143571D01*
X175697143Y-65215000D01*
X175768572Y-65286429D01*
X175840001Y-65429286D01*
X175840001Y-65857857D01*
X175768572Y-66000714D01*
X175697143Y-66072143D01*
X175554286Y-66143571D01*
X175340001Y-66143571D01*
X176482858Y-66143571D02*
X176482858Y-65143571D01*
X176482858Y-65286429D02*
X176554286Y-65215000D01*
X176697144Y-65143571D01*
X176911429Y-65143571D01*
X177054286Y-65215000D01*
X177125715Y-65357857D01*
X177125715Y-66143571D01*
X177125715Y-65357857D02*
X177197144Y-65215000D01*
X177340001Y-65143571D01*
X177554286Y-65143571D01*
X177697144Y-65215000D01*
X177768572Y-65357857D01*
X177768572Y-66143571D01*
X179625715Y-65357857D02*
X180125715Y-65357857D01*
X180340001Y-66143571D02*
X179625715Y-66143571D01*
X179625715Y-64643571D01*
X180340001Y-64643571D01*
X181197144Y-66143571D02*
X181054286Y-66072143D01*
X180982858Y-65929286D01*
X180982858Y-64643571D01*
X182340000Y-66072143D02*
X182197143Y-66143571D01*
X181911429Y-66143571D01*
X181768572Y-66072143D01*
X181697143Y-65929286D01*
X181697143Y-65357857D01*
X181768572Y-65215000D01*
X181911429Y-65143571D01*
X182197143Y-65143571D01*
X182340000Y-65215000D01*
X182411429Y-65357857D01*
X182411429Y-65500714D01*
X181697143Y-65643571D01*
X183697143Y-66072143D02*
X183554286Y-66143571D01*
X183268572Y-66143571D01*
X183125714Y-66072143D01*
X183054286Y-66000714D01*
X182982857Y-65857857D01*
X182982857Y-65429286D01*
X183054286Y-65286429D01*
X183125714Y-65215000D01*
X183268572Y-65143571D01*
X183554286Y-65143571D01*
X183697143Y-65215000D01*
X184125714Y-65143571D02*
X184697143Y-65143571D01*
X184340000Y-64643571D02*
X184340000Y-65929286D01*
X184411428Y-66072143D01*
X184554286Y-66143571D01*
X184697143Y-66143571D01*
X185197143Y-66143571D02*
X185197143Y-65143571D01*
X185197143Y-65429286D02*
X185268571Y-65286429D01*
X185340000Y-65215000D01*
X185482857Y-65143571D01*
X185625714Y-65143571D01*
X186340000Y-66143571D02*
X186197142Y-66072143D01*
X186125714Y-66000714D01*
X186054285Y-65857857D01*
X186054285Y-65429286D01*
X186125714Y-65286429D01*
X186197142Y-65215000D01*
X186340000Y-65143571D01*
X186554285Y-65143571D01*
X186697142Y-65215000D01*
X186768571Y-65286429D01*
X186840000Y-65429286D01*
X186840000Y-65857857D01*
X186768571Y-66000714D01*
X186697142Y-66072143D01*
X186554285Y-66143571D01*
X186340000Y-66143571D01*
X187482857Y-65143571D02*
X187482857Y-66143571D01*
X187482857Y-65286429D02*
X187554285Y-65215000D01*
X187697143Y-65143571D01*
X187911428Y-65143571D01*
X188054285Y-65215000D01*
X188125714Y-65357857D01*
X188125714Y-66143571D01*
X132420000Y-119387143D02*
X132634286Y-119458571D01*
X132991429Y-119458571D01*
X133134286Y-119387143D01*
X133205715Y-119315714D01*
X133277143Y-119172857D01*
X133277143Y-119030000D01*
X133205715Y-118887143D01*
X133134286Y-118815714D01*
X132991429Y-118744286D01*
X132705715Y-118672857D01*
X132562857Y-118601429D01*
X132491429Y-118530000D01*
X132420000Y-118387143D01*
X132420000Y-118244286D01*
X132491429Y-118101429D01*
X132562857Y-118030000D01*
X132705715Y-117958571D01*
X133062857Y-117958571D01*
X133277143Y-118030000D01*
X134562857Y-119387143D02*
X134420000Y-119458571D01*
X134134286Y-119458571D01*
X133991428Y-119387143D01*
X133920000Y-119315714D01*
X133848571Y-119172857D01*
X133848571Y-118744286D01*
X133920000Y-118601429D01*
X133991428Y-118530000D01*
X134134286Y-118458571D01*
X134420000Y-118458571D01*
X134562857Y-118530000D01*
X135848571Y-119458571D02*
X135848571Y-118672857D01*
X135777142Y-118530000D01*
X135634285Y-118458571D01*
X135348571Y-118458571D01*
X135205714Y-118530000D01*
X135848571Y-119387143D02*
X135705714Y-119458571D01*
X135348571Y-119458571D01*
X135205714Y-119387143D01*
X135134285Y-119244286D01*
X135134285Y-119101429D01*
X135205714Y-118958571D01*
X135348571Y-118887143D01*
X135705714Y-118887143D01*
X135848571Y-118815714D01*
X136562857Y-119458571D02*
X136562857Y-118458571D01*
X136562857Y-118744286D02*
X136634285Y-118601429D01*
X136705714Y-118530000D01*
X136848571Y-118458571D01*
X136991428Y-118458571D01*
X138134285Y-119458571D02*
X138134285Y-118672857D01*
X138062856Y-118530000D01*
X137919999Y-118458571D01*
X137634285Y-118458571D01*
X137491428Y-118530000D01*
X138134285Y-119387143D02*
X137991428Y-119458571D01*
X137634285Y-119458571D01*
X137491428Y-119387143D01*
X137419999Y-119244286D01*
X137419999Y-119101429D01*
X137491428Y-118958571D01*
X137634285Y-118887143D01*
X137991428Y-118887143D01*
X138134285Y-118815714D01*
X138848571Y-119458571D02*
X138848571Y-117958571D01*
X138848571Y-118530000D02*
X138991428Y-118458571D01*
X139277142Y-118458571D01*
X139419999Y-118530000D01*
X139491428Y-118601429D01*
X139562857Y-118744286D01*
X139562857Y-119172857D01*
X139491428Y-119315714D01*
X139419999Y-119387143D01*
X139277142Y-119458571D01*
X138991428Y-119458571D01*
X138848571Y-119387143D01*
X141348571Y-119458571D02*
X141348571Y-118458571D01*
X141348571Y-118601429D02*
X141419999Y-118530000D01*
X141562857Y-118458571D01*
X141777142Y-118458571D01*
X141919999Y-118530000D01*
X141991428Y-118672857D01*
X141991428Y-119458571D01*
X141991428Y-118672857D02*
X142062857Y-118530000D01*
X142205714Y-118458571D01*
X142419999Y-118458571D01*
X142562857Y-118530000D01*
X142634285Y-118672857D01*
X142634285Y-119458571D01*
X143348571Y-119458571D02*
X143348571Y-118458571D01*
X143348571Y-117958571D02*
X143277142Y-118030000D01*
X143348571Y-118101429D01*
X143419999Y-118030000D01*
X143348571Y-117958571D01*
X143348571Y-118101429D01*
X144062857Y-118458571D02*
X144062857Y-119458571D01*
X144062857Y-118601429D02*
X144134285Y-118530000D01*
X144277143Y-118458571D01*
X144491428Y-118458571D01*
X144634285Y-118530000D01*
X144705714Y-118672857D01*
X144705714Y-119458571D01*
X145420000Y-119458571D02*
X145420000Y-118458571D01*
X145420000Y-117958571D02*
X145348571Y-118030000D01*
X145420000Y-118101429D01*
X145491428Y-118030000D01*
X145420000Y-117958571D01*
X145420000Y-118101429D01*
X146062857Y-119387143D02*
X146277143Y-119458571D01*
X146634286Y-119458571D01*
X146777143Y-119387143D01*
X146848572Y-119315714D01*
X146920000Y-119172857D01*
X146920000Y-119030000D01*
X146848572Y-118887143D01*
X146777143Y-118815714D01*
X146634286Y-118744286D01*
X146348572Y-118672857D01*
X146205714Y-118601429D01*
X146134286Y-118530000D01*
X146062857Y-118387143D01*
X146062857Y-118244286D01*
X146134286Y-118101429D01*
X146205714Y-118030000D01*
X146348572Y-117958571D01*
X146705714Y-117958571D01*
X146920000Y-118030000D01*
X147562857Y-118458571D02*
X147562857Y-119958571D01*
X147562857Y-118530000D02*
X147705714Y-118458571D01*
X147991428Y-118458571D01*
X148134285Y-118530000D01*
X148205714Y-118601429D01*
X148277143Y-118744286D01*
X148277143Y-119172857D01*
X148205714Y-119315714D01*
X148134285Y-119387143D01*
X147991428Y-119458571D01*
X147705714Y-119458571D01*
X147562857Y-119387143D01*
X149562857Y-119458571D02*
X149562857Y-118672857D01*
X149491428Y-118530000D01*
X149348571Y-118458571D01*
X149062857Y-118458571D01*
X148920000Y-118530000D01*
X149562857Y-119387143D02*
X149420000Y-119458571D01*
X149062857Y-119458571D01*
X148920000Y-119387143D01*
X148848571Y-119244286D01*
X148848571Y-119101429D01*
X148920000Y-118958571D01*
X149062857Y-118887143D01*
X149420000Y-118887143D01*
X149562857Y-118815714D01*
X150277143Y-119458571D02*
X150277143Y-118458571D01*
X150277143Y-118744286D02*
X150348571Y-118601429D01*
X150420000Y-118530000D01*
X150562857Y-118458571D01*
X150705714Y-118458571D01*
X150991428Y-118458571D02*
X151562857Y-118458571D01*
X151205714Y-117958571D02*
X151205714Y-119244286D01*
X151277142Y-119387143D01*
X151420000Y-119458571D01*
X151562857Y-119458571D01*
X152705714Y-119458571D02*
X152705714Y-118672857D01*
X152634285Y-118530000D01*
X152491428Y-118458571D01*
X152205714Y-118458571D01*
X152062857Y-118530000D01*
X152705714Y-119387143D02*
X152562857Y-119458571D01*
X152205714Y-119458571D01*
X152062857Y-119387143D01*
X151991428Y-119244286D01*
X151991428Y-119101429D01*
X152062857Y-118958571D01*
X152205714Y-118887143D01*
X152562857Y-118887143D01*
X152705714Y-118815714D01*
X153420000Y-118458571D02*
X153420000Y-119458571D01*
X153420000Y-118601429D02*
X153491428Y-118530000D01*
X153634286Y-118458571D01*
X153848571Y-118458571D01*
X153991428Y-118530000D01*
X154062857Y-118672857D01*
X154062857Y-119458571D01*
X155420000Y-117958571D02*
X155134286Y-117958571D01*
X154991429Y-118030000D01*
X154920000Y-118101429D01*
X154777143Y-118315714D01*
X154705714Y-118601429D01*
X154705714Y-119172857D01*
X154777143Y-119315714D01*
X154848571Y-119387143D01*
X154991429Y-119458571D01*
X155277143Y-119458571D01*
X155420000Y-119387143D01*
X155491429Y-119315714D01*
X155562857Y-119172857D01*
X155562857Y-118815714D01*
X155491429Y-118672857D01*
X155420000Y-118601429D01*
X155277143Y-118530000D01*
X154991429Y-118530000D01*
X154848571Y-118601429D01*
X154777143Y-118672857D01*
X154705714Y-118815714D01*
X156205714Y-118887143D02*
X157348571Y-118887143D01*
X156777142Y-119458571D02*
X156777142Y-118315714D01*
X139027144Y-122858571D02*
X139955715Y-122858571D01*
X139455715Y-123430000D01*
X139670001Y-123430000D01*
X139812858Y-123501429D01*
X139884287Y-123572857D01*
X139955715Y-123715714D01*
X139955715Y-124072857D01*
X139884287Y-124215714D01*
X139812858Y-124287143D01*
X139670001Y-124358571D01*
X139241429Y-124358571D01*
X139098572Y-124287143D01*
X139027144Y-124215714D01*
X140598572Y-124215714D02*
X140670000Y-124287143D01*
X140598572Y-124358571D01*
X140527143Y-124287143D01*
X140598572Y-124215714D01*
X140598572Y-124358571D01*
X141170001Y-122858571D02*
X142098572Y-122858571D01*
X141598572Y-123430000D01*
X141812858Y-123430000D01*
X141955715Y-123501429D01*
X142027144Y-123572857D01*
X142098572Y-123715714D01*
X142098572Y-124072857D01*
X142027144Y-124215714D01*
X141955715Y-124287143D01*
X141812858Y-124358571D01*
X141384286Y-124358571D01*
X141241429Y-124287143D01*
X141170001Y-124215714D01*
X142527143Y-122858571D02*
X143027143Y-124358571D01*
X143527143Y-122858571D01*
X146027143Y-124215714D02*
X145955714Y-124287143D01*
X145741428Y-124358571D01*
X145598571Y-124358571D01*
X145384286Y-124287143D01*
X145241428Y-124144286D01*
X145170000Y-124001429D01*
X145098571Y-123715714D01*
X145098571Y-123501429D01*
X145170000Y-123215714D01*
X145241428Y-123072857D01*
X145384286Y-122930000D01*
X145598571Y-122858571D01*
X145741428Y-122858571D01*
X145955714Y-122930000D01*
X146027143Y-123001429D01*
X146670000Y-124358571D02*
X146670000Y-122858571D01*
X147170000Y-123930000D01*
X147670000Y-122858571D01*
X147670000Y-124358571D01*
X148670000Y-122858571D02*
X148955714Y-122858571D01*
X149098572Y-122930000D01*
X149241429Y-123072857D01*
X149312857Y-123358571D01*
X149312857Y-123858571D01*
X149241429Y-124144286D01*
X149098572Y-124287143D01*
X148955714Y-124358571D01*
X148670000Y-124358571D01*
X148527143Y-124287143D01*
X148384286Y-124144286D01*
X148312857Y-123858571D01*
X148312857Y-123358571D01*
X148384286Y-123072857D01*
X148527143Y-122930000D01*
X148670000Y-122858571D01*
X149884286Y-124287143D02*
X150098572Y-124358571D01*
X150455715Y-124358571D01*
X150598572Y-124287143D01*
X150670001Y-124215714D01*
X150741429Y-124072857D01*
X150741429Y-123930000D01*
X150670001Y-123787143D01*
X150598572Y-123715714D01*
X150455715Y-123644286D01*
X150170001Y-123572857D01*
X150027143Y-123501429D01*
X149955715Y-123430000D01*
X149884286Y-123287143D01*
X149884286Y-123144286D01*
X149955715Y-123001429D01*
X150027143Y-122930000D01*
X150170001Y-122858571D01*
X150527143Y-122858571D01*
X150741429Y-122930000D01*
D12*
X118770000Y-73675000D02*
X118745000Y-73675000D01*
X118770000Y-77825000D02*
X118655000Y-77825000D01*
X109870000Y-77825000D02*
X109985000Y-77825000D01*
X109870000Y-73675000D02*
X109985000Y-73675000D01*
X118770000Y-73675000D02*
X118770000Y-77825000D01*
X109870000Y-73675000D02*
X109870000Y-77825000D01*
X118745000Y-73675000D02*
X118745000Y-72300000D01*
D13*
X110620000Y-67080000D02*
X169100000Y-67080000D01*
X169100000Y-67080000D02*
X169100000Y-61880000D01*
X169100000Y-61880000D02*
X108020000Y-61880000D01*
X108020000Y-61880000D02*
X108020000Y-64480000D01*
X108020000Y-64480000D02*
X110620000Y-64480000D01*
X110620000Y-64480000D02*
X110620000Y-67080000D01*
X109350000Y-67080000D02*
X108020000Y-67080000D01*
X108020000Y-67080000D02*
X108020000Y-65750000D01*
D12*
X141360000Y-77995000D02*
X141260000Y-77995000D01*
X134535000Y-77995000D02*
X134560000Y-77995000D01*
X134535000Y-73345000D02*
X134560000Y-73345000D01*
X141360000Y-72270000D02*
X141360000Y-77995000D01*
X134535000Y-73345000D02*
X134535000Y-77995000D01*
X163090000Y-77995000D02*
X162990000Y-77995000D01*
X156265000Y-77995000D02*
X156290000Y-77995000D01*
X156265000Y-73345000D02*
X156290000Y-73345000D01*
X163090000Y-72270000D02*
X163090000Y-77995000D01*
X156265000Y-73345000D02*
X156265000Y-77995000D01*
X152690000Y-77995000D02*
X152590000Y-77995000D01*
X145865000Y-77995000D02*
X145890000Y-77995000D01*
X145865000Y-73345000D02*
X145890000Y-73345000D01*
X152690000Y-72270000D02*
X152690000Y-77995000D01*
X145865000Y-73345000D02*
X145865000Y-77995000D01*
X130610000Y-77995000D02*
X130510000Y-77995000D01*
X123785000Y-77995000D02*
X123810000Y-77995000D01*
X123785000Y-73345000D02*
X123810000Y-73345000D01*
X130610000Y-72270000D02*
X130610000Y-77995000D01*
X123785000Y-73345000D02*
X123785000Y-77995000D01*
D13*
X176450000Y-76840000D02*
X176450000Y-74240000D01*
X176450000Y-74240000D02*
X173790000Y-74240000D01*
X173790000Y-74240000D02*
X173790000Y-76840000D01*
X173790000Y-76840000D02*
X176450000Y-76840000D01*
X176450000Y-78110000D02*
X176450000Y-79440000D01*
X176450000Y-79440000D02*
X175120000Y-79440000D01*
D12*
X104385000Y-89675000D02*
X180585000Y-89675000D01*
X180585000Y-141745000D02*
X104385000Y-141745000D01*
X180585000Y-89675000D02*
X180585000Y-141745000D01*
X104385000Y-141745000D02*
X104385000Y-89675000D01*
X119147381Y-76511905D02*
X119956905Y-76511905D01*
X120052143Y-76464286D01*
X120099762Y-76416667D01*
X120147381Y-76321429D01*
X120147381Y-76130952D01*
X120099762Y-76035714D01*
X120052143Y-75988095D01*
X119956905Y-75940476D01*
X119147381Y-75940476D01*
X120147381Y-74940476D02*
X120147381Y-75511905D01*
X120147381Y-75226191D02*
X119147381Y-75226191D01*
X119290238Y-75321429D01*
X119385476Y-75416667D01*
X119433095Y-75511905D01*
X107472381Y-65218095D02*
X106472381Y-65218095D01*
X106472381Y-64837142D01*
X106520000Y-64741904D01*
X106567619Y-64694285D01*
X106662857Y-64646666D01*
X106805714Y-64646666D01*
X106900952Y-64694285D01*
X106948571Y-64741904D01*
X106996190Y-64837142D01*
X106996190Y-65218095D01*
X106567619Y-64265714D02*
X106520000Y-64218095D01*
X106472381Y-64122857D01*
X106472381Y-63884761D01*
X106520000Y-63789523D01*
X106567619Y-63741904D01*
X106662857Y-63694285D01*
X106758095Y-63694285D01*
X106900952Y-63741904D01*
X107472381Y-64313333D01*
X107472381Y-63694285D01*
D14*
X118202155Y-84818862D02*
X117916223Y-84818862D01*
X118059189Y-84818862D02*
X118059189Y-84318482D01*
X118011534Y-84389965D01*
X117963879Y-84437620D01*
X117916223Y-84461448D01*
X118511914Y-84318482D02*
X118559569Y-84318482D01*
X118607224Y-84342310D01*
X118631052Y-84366138D01*
X118654879Y-84413793D01*
X118678707Y-84509103D01*
X118678707Y-84628241D01*
X118654879Y-84723552D01*
X118631052Y-84771207D01*
X118607224Y-84795035D01*
X118559569Y-84818862D01*
X118511914Y-84818862D01*
X118464258Y-84795035D01*
X118440431Y-84771207D01*
X118416603Y-84723552D01*
X118392775Y-84628241D01*
X118392775Y-84509103D01*
X118416603Y-84413793D01*
X118440431Y-84366138D01*
X118464258Y-84342310D01*
X118511914Y-84318482D01*
X118893155Y-84818862D02*
X118893155Y-84318482D01*
X118940810Y-84628241D02*
X119083776Y-84818862D01*
X119083776Y-84485276D02*
X118893155Y-84675897D01*
X115282155Y-84818862D02*
X114996223Y-84818862D01*
X115139189Y-84818862D02*
X115139189Y-84318482D01*
X115091534Y-84389965D01*
X115043879Y-84437620D01*
X114996223Y-84461448D01*
X115591914Y-84318482D02*
X115639569Y-84318482D01*
X115687224Y-84342310D01*
X115711052Y-84366138D01*
X115734879Y-84413793D01*
X115758707Y-84509103D01*
X115758707Y-84628241D01*
X115734879Y-84723552D01*
X115711052Y-84771207D01*
X115687224Y-84795035D01*
X115639569Y-84818862D01*
X115591914Y-84818862D01*
X115544258Y-84795035D01*
X115520431Y-84771207D01*
X115496603Y-84723552D01*
X115472775Y-84628241D01*
X115472775Y-84509103D01*
X115496603Y-84413793D01*
X115520431Y-84366138D01*
X115544258Y-84342310D01*
X115591914Y-84318482D01*
X115973155Y-84818862D02*
X115973155Y-84318482D01*
X116020810Y-84628241D02*
X116163776Y-84818862D01*
X116163776Y-84485276D02*
X115973155Y-84675897D01*
X112392155Y-84848862D02*
X112106223Y-84848862D01*
X112249189Y-84848862D02*
X112249189Y-84348482D01*
X112201534Y-84419965D01*
X112153879Y-84467620D01*
X112106223Y-84491448D01*
X112701914Y-84348482D02*
X112749569Y-84348482D01*
X112797224Y-84372310D01*
X112821052Y-84396138D01*
X112844879Y-84443793D01*
X112868707Y-84539103D01*
X112868707Y-84658241D01*
X112844879Y-84753552D01*
X112821052Y-84801207D01*
X112797224Y-84825035D01*
X112749569Y-84848862D01*
X112701914Y-84848862D01*
X112654258Y-84825035D01*
X112630431Y-84801207D01*
X112606603Y-84753552D01*
X112582775Y-84658241D01*
X112582775Y-84539103D01*
X112606603Y-84443793D01*
X112630431Y-84396138D01*
X112654258Y-84372310D01*
X112701914Y-84348482D01*
X113083155Y-84848862D02*
X113083155Y-84348482D01*
X113130810Y-84658241D02*
X113273776Y-84848862D01*
X113273776Y-84515276D02*
X113083155Y-84705897D01*
X143708862Y-82047845D02*
X143708862Y-82333777D01*
X143708862Y-82190811D02*
X143208482Y-82190811D01*
X143279965Y-82238466D01*
X143327620Y-82286121D01*
X143351448Y-82333777D01*
X143208482Y-81738086D02*
X143208482Y-81690431D01*
X143232310Y-81642776D01*
X143256138Y-81618948D01*
X143303793Y-81595121D01*
X143399103Y-81571293D01*
X143518241Y-81571293D01*
X143613552Y-81595121D01*
X143661207Y-81618948D01*
X143685035Y-81642776D01*
X143708862Y-81690431D01*
X143708862Y-81738086D01*
X143685035Y-81785742D01*
X143661207Y-81809569D01*
X143613552Y-81833397D01*
X143518241Y-81857225D01*
X143399103Y-81857225D01*
X143303793Y-81833397D01*
X143256138Y-81809569D01*
X143232310Y-81785742D01*
X143208482Y-81738086D01*
X143708862Y-81356845D02*
X143208482Y-81356845D01*
X143518241Y-81309190D02*
X143708862Y-81166224D01*
X143375276Y-81166224D02*
X143565897Y-81356845D01*
D12*
X139032381Y-55738095D02*
X138032381Y-55738095D01*
X138032381Y-55357142D01*
X138080000Y-55261904D01*
X138127619Y-55214285D01*
X138222857Y-55166666D01*
X138365714Y-55166666D01*
X138460952Y-55214285D01*
X138508571Y-55261904D01*
X138556190Y-55357142D01*
X138556190Y-55738095D01*
X139032381Y-54214285D02*
X139032381Y-54785714D01*
X139032381Y-54500000D02*
X138032381Y-54500000D01*
X138175238Y-54595238D01*
X138270476Y-54690476D01*
X138318095Y-54785714D01*
X110523804Y-59166667D02*
X110999995Y-59166667D01*
X110428566Y-59452381D02*
X110761899Y-58452381D01*
X111095233Y-59452381D01*
X111857138Y-59404762D02*
X111761900Y-59452381D01*
X111571423Y-59452381D01*
X111476185Y-59404762D01*
X111428566Y-59357143D01*
X111380947Y-59261905D01*
X111380947Y-58976190D01*
X111428566Y-58880952D01*
X111476185Y-58833333D01*
X111571423Y-58785714D01*
X111761900Y-58785714D01*
X111857138Y-58833333D01*
X112428566Y-59452381D02*
X112333328Y-59404762D01*
X112285709Y-59357143D01*
X112238090Y-59261905D01*
X112238090Y-58976190D01*
X112285709Y-58880952D01*
X112333328Y-58833333D01*
X112428566Y-58785714D01*
X112571424Y-58785714D01*
X112666662Y-58833333D01*
X112714281Y-58880952D01*
X112761900Y-58976190D01*
X112761900Y-59261905D01*
X112714281Y-59357143D01*
X112666662Y-59404762D01*
X112571424Y-59452381D01*
X112428566Y-59452381D01*
X113190471Y-59452381D02*
X113190471Y-58785714D01*
X113190471Y-58976190D02*
X113238090Y-58880952D01*
X113285709Y-58833333D01*
X113380947Y-58785714D01*
X113476186Y-58785714D01*
X113809519Y-58785714D02*
X113809519Y-59452381D01*
X113809519Y-58880952D02*
X113857138Y-58833333D01*
X113952376Y-58785714D01*
X114095234Y-58785714D01*
X114190472Y-58833333D01*
X114238091Y-58928571D01*
X114238091Y-59452381D01*
X115476186Y-58928571D02*
X115809520Y-58928571D01*
X115952377Y-59452381D02*
X115476186Y-59452381D01*
X115476186Y-58452381D01*
X115952377Y-58452381D01*
X116523805Y-59452381D02*
X116428567Y-59404762D01*
X116380948Y-59309524D01*
X116380948Y-58452381D01*
X117285711Y-59404762D02*
X117190473Y-59452381D01*
X116999996Y-59452381D01*
X116904758Y-59404762D01*
X116857139Y-59309524D01*
X116857139Y-58928571D01*
X116904758Y-58833333D01*
X116999996Y-58785714D01*
X117190473Y-58785714D01*
X117285711Y-58833333D01*
X117333330Y-58928571D01*
X117333330Y-59023810D01*
X116857139Y-59119048D01*
X118190473Y-59404762D02*
X118095235Y-59452381D01*
X117904758Y-59452381D01*
X117809520Y-59404762D01*
X117761901Y-59357143D01*
X117714282Y-59261905D01*
X117714282Y-58976190D01*
X117761901Y-58880952D01*
X117809520Y-58833333D01*
X117904758Y-58785714D01*
X118095235Y-58785714D01*
X118190473Y-58833333D01*
X118476187Y-58785714D02*
X118857139Y-58785714D01*
X118619044Y-58452381D02*
X118619044Y-59309524D01*
X118666663Y-59404762D01*
X118761901Y-59452381D01*
X118857139Y-59452381D01*
X119190473Y-59452381D02*
X119190473Y-58785714D01*
X119190473Y-58976190D02*
X119238092Y-58880952D01*
X119285711Y-58833333D01*
X119380949Y-58785714D01*
X119476188Y-58785714D01*
X119952378Y-59452381D02*
X119857140Y-59404762D01*
X119809521Y-59357143D01*
X119761902Y-59261905D01*
X119761902Y-58976190D01*
X119809521Y-58880952D01*
X119857140Y-58833333D01*
X119952378Y-58785714D01*
X120095236Y-58785714D01*
X120190474Y-58833333D01*
X120238093Y-58880952D01*
X120285712Y-58976190D01*
X120285712Y-59261905D01*
X120238093Y-59357143D01*
X120190474Y-59404762D01*
X120095236Y-59452381D01*
X119952378Y-59452381D01*
X120714283Y-58785714D02*
X120714283Y-59452381D01*
X120714283Y-58880952D02*
X120761902Y-58833333D01*
X120857140Y-58785714D01*
X120999998Y-58785714D01*
X121095236Y-58833333D01*
X121142855Y-58928571D01*
X121142855Y-59452381D01*
X122380950Y-58928571D02*
X122714284Y-58928571D01*
X122857141Y-59452381D02*
X122380950Y-59452381D01*
X122380950Y-58452381D01*
X122857141Y-58452381D01*
X123190474Y-59452381D02*
X123714284Y-58785714D01*
X123190474Y-58785714D02*
X123714284Y-59452381D01*
X124095236Y-58785714D02*
X124095236Y-59785714D01*
X124095236Y-58833333D02*
X124190474Y-58785714D01*
X124380951Y-58785714D01*
X124476189Y-58833333D01*
X124523808Y-58880952D01*
X124571427Y-58976190D01*
X124571427Y-59261905D01*
X124523808Y-59357143D01*
X124476189Y-59404762D01*
X124380951Y-59452381D01*
X124190474Y-59452381D01*
X124095236Y-59404762D01*
X125428570Y-59452381D02*
X125428570Y-58928571D01*
X125380951Y-58833333D01*
X125285713Y-58785714D01*
X125095236Y-58785714D01*
X124999998Y-58833333D01*
X125428570Y-59404762D02*
X125333332Y-59452381D01*
X125095236Y-59452381D01*
X124999998Y-59404762D01*
X124952379Y-59309524D01*
X124952379Y-59214286D01*
X124999998Y-59119048D01*
X125095236Y-59071429D01*
X125333332Y-59071429D01*
X125428570Y-59023810D01*
X125904760Y-58785714D02*
X125904760Y-59452381D01*
X125904760Y-58880952D02*
X125952379Y-58833333D01*
X126047617Y-58785714D01*
X126190475Y-58785714D01*
X126285713Y-58833333D01*
X126333332Y-58928571D01*
X126333332Y-59452381D01*
X126761903Y-59404762D02*
X126857141Y-59452381D01*
X127047617Y-59452381D01*
X127142856Y-59404762D01*
X127190475Y-59309524D01*
X127190475Y-59261905D01*
X127142856Y-59166667D01*
X127047617Y-59119048D01*
X126904760Y-59119048D01*
X126809522Y-59071429D01*
X126761903Y-58976190D01*
X126761903Y-58928571D01*
X126809522Y-58833333D01*
X126904760Y-58785714D01*
X127047617Y-58785714D01*
X127142856Y-58833333D01*
X127619046Y-59452381D02*
X127619046Y-58785714D01*
X127619046Y-58452381D02*
X127571427Y-58500000D01*
X127619046Y-58547619D01*
X127666665Y-58500000D01*
X127619046Y-58452381D01*
X127619046Y-58547619D01*
X128238093Y-59452381D02*
X128142855Y-59404762D01*
X128095236Y-59357143D01*
X128047617Y-59261905D01*
X128047617Y-58976190D01*
X128095236Y-58880952D01*
X128142855Y-58833333D01*
X128238093Y-58785714D01*
X128380951Y-58785714D01*
X128476189Y-58833333D01*
X128523808Y-58880952D01*
X128571427Y-58976190D01*
X128571427Y-59261905D01*
X128523808Y-59357143D01*
X128476189Y-59404762D01*
X128380951Y-59452381D01*
X128238093Y-59452381D01*
X128999998Y-58785714D02*
X128999998Y-59452381D01*
X128999998Y-58880952D02*
X129047617Y-58833333D01*
X129142855Y-58785714D01*
X129285713Y-58785714D01*
X129380951Y-58833333D01*
X129428570Y-58928571D01*
X129428570Y-59452381D01*
X131238094Y-59357143D02*
X131190475Y-59404762D01*
X131047618Y-59452381D01*
X130952380Y-59452381D01*
X130809522Y-59404762D01*
X130714284Y-59309524D01*
X130666665Y-59214286D01*
X130619046Y-59023810D01*
X130619046Y-58880952D01*
X130666665Y-58690476D01*
X130714284Y-58595238D01*
X130809522Y-58500000D01*
X130952380Y-58452381D01*
X131047618Y-58452381D01*
X131190475Y-58500000D01*
X131238094Y-58547619D01*
X131809522Y-59452381D02*
X131714284Y-59404762D01*
X131666665Y-59357143D01*
X131619046Y-59261905D01*
X131619046Y-58976190D01*
X131666665Y-58880952D01*
X131714284Y-58833333D01*
X131809522Y-58785714D01*
X131952380Y-58785714D01*
X132047618Y-58833333D01*
X132095237Y-58880952D01*
X132142856Y-58976190D01*
X132142856Y-59261905D01*
X132095237Y-59357143D01*
X132047618Y-59404762D01*
X131952380Y-59452381D01*
X131809522Y-59452381D01*
X132571427Y-58785714D02*
X132571427Y-59452381D01*
X132571427Y-58880952D02*
X132619046Y-58833333D01*
X132714284Y-58785714D01*
X132857142Y-58785714D01*
X132952380Y-58833333D01*
X132999999Y-58928571D01*
X132999999Y-59452381D01*
X133476189Y-58785714D02*
X133476189Y-59452381D01*
X133476189Y-58880952D02*
X133523808Y-58833333D01*
X133619046Y-58785714D01*
X133761904Y-58785714D01*
X133857142Y-58833333D01*
X133904761Y-58928571D01*
X133904761Y-59452381D01*
X134761904Y-59404762D02*
X134666666Y-59452381D01*
X134476189Y-59452381D01*
X134380951Y-59404762D01*
X134333332Y-59309524D01*
X134333332Y-58928571D01*
X134380951Y-58833333D01*
X134476189Y-58785714D01*
X134666666Y-58785714D01*
X134761904Y-58833333D01*
X134809523Y-58928571D01*
X134809523Y-59023810D01*
X134333332Y-59119048D01*
X135666666Y-59404762D02*
X135571428Y-59452381D01*
X135380951Y-59452381D01*
X135285713Y-59404762D01*
X135238094Y-59357143D01*
X135190475Y-59261905D01*
X135190475Y-58976190D01*
X135238094Y-58880952D01*
X135285713Y-58833333D01*
X135380951Y-58785714D01*
X135571428Y-58785714D01*
X135666666Y-58833333D01*
X135952380Y-58785714D02*
X136333332Y-58785714D01*
X136095237Y-58452381D02*
X136095237Y-59309524D01*
X136142856Y-59404762D01*
X136238094Y-59452381D01*
X136333332Y-59452381D01*
X136809523Y-59452381D02*
X136714285Y-59404762D01*
X136666666Y-59357143D01*
X136619047Y-59261905D01*
X136619047Y-58976190D01*
X136666666Y-58880952D01*
X136714285Y-58833333D01*
X136809523Y-58785714D01*
X136952381Y-58785714D01*
X137047619Y-58833333D01*
X137095238Y-58880952D01*
X137142857Y-58976190D01*
X137142857Y-59261905D01*
X137095238Y-59357143D01*
X137047619Y-59404762D01*
X136952381Y-59452381D01*
X136809523Y-59452381D01*
X137571428Y-59452381D02*
X137571428Y-58785714D01*
X137571428Y-58976190D02*
X137619047Y-58880952D01*
X137666666Y-58833333D01*
X137761904Y-58785714D01*
X137857143Y-58785714D01*
X139238096Y-59833333D02*
X139190476Y-59785714D01*
X139095238Y-59642857D01*
X139047619Y-59547619D01*
X139000000Y-59404762D01*
X138952381Y-59166667D01*
X138952381Y-58976190D01*
X139000000Y-58738095D01*
X139047619Y-58595238D01*
X139095238Y-58500000D01*
X139190476Y-58357143D01*
X139238096Y-58309524D01*
X139476191Y-58785714D02*
X139857143Y-58785714D01*
X139619048Y-59452381D02*
X139619048Y-58595238D01*
X139666667Y-58500000D01*
X139761905Y-58452381D01*
X139857143Y-58452381D01*
X140190477Y-59452381D02*
X140190477Y-58785714D01*
X140190477Y-58452381D02*
X140142858Y-58500000D01*
X140190477Y-58547619D01*
X140238096Y-58500000D01*
X140190477Y-58452381D01*
X140190477Y-58547619D01*
X140523810Y-58785714D02*
X140904762Y-58785714D01*
X140666667Y-58452381D02*
X140666667Y-59309524D01*
X140714286Y-59404762D01*
X140809524Y-59452381D01*
X140904762Y-59452381D01*
X142428573Y-59404762D02*
X142333335Y-59452381D01*
X142142858Y-59452381D01*
X142047620Y-59404762D01*
X142000001Y-59357143D01*
X141952382Y-59261905D01*
X141952382Y-58976190D01*
X142000001Y-58880952D01*
X142047620Y-58833333D01*
X142142858Y-58785714D01*
X142333335Y-58785714D01*
X142428573Y-58833333D01*
X143000001Y-59452381D02*
X142904763Y-59404762D01*
X142857144Y-59357143D01*
X142809525Y-59261905D01*
X142809525Y-58976190D01*
X142857144Y-58880952D01*
X142904763Y-58833333D01*
X143000001Y-58785714D01*
X143142859Y-58785714D01*
X143238097Y-58833333D01*
X143285716Y-58880952D01*
X143333335Y-58976190D01*
X143333335Y-59261905D01*
X143285716Y-59357143D01*
X143238097Y-59404762D01*
X143142859Y-59452381D01*
X143000001Y-59452381D01*
X143761906Y-58785714D02*
X143761906Y-59452381D01*
X143761906Y-58880952D02*
X143809525Y-58833333D01*
X143904763Y-58785714D01*
X144047621Y-58785714D01*
X144142859Y-58833333D01*
X144190478Y-58928571D01*
X144190478Y-59452381D01*
X144666668Y-58785714D02*
X144666668Y-59452381D01*
X144666668Y-58880952D02*
X144714287Y-58833333D01*
X144809525Y-58785714D01*
X144952383Y-58785714D01*
X145047621Y-58833333D01*
X145095240Y-58928571D01*
X145095240Y-59452381D01*
X145952383Y-59404762D02*
X145857145Y-59452381D01*
X145666668Y-59452381D01*
X145571430Y-59404762D01*
X145523811Y-59309524D01*
X145523811Y-58928571D01*
X145571430Y-58833333D01*
X145666668Y-58785714D01*
X145857145Y-58785714D01*
X145952383Y-58833333D01*
X146000002Y-58928571D01*
X146000002Y-59023810D01*
X145523811Y-59119048D01*
X146857145Y-59404762D02*
X146761907Y-59452381D01*
X146571430Y-59452381D01*
X146476192Y-59404762D01*
X146428573Y-59357143D01*
X146380954Y-59261905D01*
X146380954Y-58976190D01*
X146428573Y-58880952D01*
X146476192Y-58833333D01*
X146571430Y-58785714D01*
X146761907Y-58785714D01*
X146857145Y-58833333D01*
X147142859Y-58785714D02*
X147523811Y-58785714D01*
X147285716Y-58452381D02*
X147285716Y-59309524D01*
X147333335Y-59404762D01*
X147428573Y-59452381D01*
X147523811Y-59452381D01*
X148000002Y-59452381D02*
X147904764Y-59404762D01*
X147857145Y-59357143D01*
X147809526Y-59261905D01*
X147809526Y-58976190D01*
X147857145Y-58880952D01*
X147904764Y-58833333D01*
X148000002Y-58785714D01*
X148142860Y-58785714D01*
X148238098Y-58833333D01*
X148285717Y-58880952D01*
X148333336Y-58976190D01*
X148333336Y-59261905D01*
X148285717Y-59357143D01*
X148238098Y-59404762D01*
X148142860Y-59452381D01*
X148000002Y-59452381D01*
X148761907Y-59452381D02*
X148761907Y-58785714D01*
X148761907Y-58976190D02*
X148809526Y-58880952D01*
X148857145Y-58833333D01*
X148952383Y-58785714D01*
X149047622Y-58785714D01*
X150571432Y-58785714D02*
X150571432Y-59452381D01*
X150142860Y-58785714D02*
X150142860Y-59309524D01*
X150190479Y-59404762D01*
X150285717Y-59452381D01*
X150428575Y-59452381D01*
X150523813Y-59404762D01*
X150571432Y-59357143D01*
X151047622Y-58785714D02*
X151047622Y-59452381D01*
X151047622Y-58880952D02*
X151095241Y-58833333D01*
X151190479Y-58785714D01*
X151333337Y-58785714D01*
X151428575Y-58833333D01*
X151476194Y-58928571D01*
X151476194Y-59452381D01*
X152380956Y-59452381D02*
X152380956Y-58452381D01*
X152380956Y-59404762D02*
X152285718Y-59452381D01*
X152095241Y-59452381D01*
X152000003Y-59404762D01*
X151952384Y-59357143D01*
X151904765Y-59261905D01*
X151904765Y-58976190D01*
X151952384Y-58880952D01*
X152000003Y-58833333D01*
X152095241Y-58785714D01*
X152285718Y-58785714D01*
X152380956Y-58833333D01*
X153238099Y-59404762D02*
X153142861Y-59452381D01*
X152952384Y-59452381D01*
X152857146Y-59404762D01*
X152809527Y-59309524D01*
X152809527Y-58928571D01*
X152857146Y-58833333D01*
X152952384Y-58785714D01*
X153142861Y-58785714D01*
X153238099Y-58833333D01*
X153285718Y-58928571D01*
X153285718Y-59023810D01*
X152809527Y-59119048D01*
X153714289Y-59452381D02*
X153714289Y-58785714D01*
X153714289Y-58976190D02*
X153761908Y-58880952D01*
X153809527Y-58833333D01*
X153904765Y-58785714D01*
X154000004Y-58785714D01*
X154333337Y-58785714D02*
X154333337Y-59452381D01*
X154333337Y-58880952D02*
X154380956Y-58833333D01*
X154476194Y-58785714D01*
X154619052Y-58785714D01*
X154714290Y-58833333D01*
X154761909Y-58928571D01*
X154761909Y-59452381D01*
X155619052Y-59404762D02*
X155523814Y-59452381D01*
X155333337Y-59452381D01*
X155238099Y-59404762D01*
X155190480Y-59309524D01*
X155190480Y-58928571D01*
X155238099Y-58833333D01*
X155333337Y-58785714D01*
X155523814Y-58785714D01*
X155619052Y-58833333D01*
X155666671Y-58928571D01*
X155666671Y-59023810D01*
X155190480Y-59119048D01*
X156523814Y-59452381D02*
X156523814Y-58928571D01*
X156476195Y-58833333D01*
X156380957Y-58785714D01*
X156190480Y-58785714D01*
X156095242Y-58833333D01*
X156523814Y-59404762D02*
X156428576Y-59452381D01*
X156190480Y-59452381D01*
X156095242Y-59404762D01*
X156047623Y-59309524D01*
X156047623Y-59214286D01*
X156095242Y-59119048D01*
X156190480Y-59071429D01*
X156428576Y-59071429D01*
X156523814Y-59023810D01*
X156857147Y-58785714D02*
X157238099Y-58785714D01*
X157000004Y-58452381D02*
X157000004Y-59309524D01*
X157047623Y-59404762D01*
X157142861Y-59452381D01*
X157238099Y-59452381D01*
X157571433Y-59452381D02*
X157571433Y-58452381D01*
X158000005Y-59452381D02*
X158000005Y-58928571D01*
X157952386Y-58833333D01*
X157857148Y-58785714D01*
X157714290Y-58785714D01*
X157619052Y-58833333D01*
X157571433Y-58880952D01*
X159238100Y-59452381D02*
X159238100Y-58452381D01*
X159619053Y-58452381D01*
X159714291Y-58500000D01*
X159761910Y-58547619D01*
X159809529Y-58642857D01*
X159809529Y-58785714D01*
X159761910Y-58880952D01*
X159714291Y-58928571D01*
X159619053Y-58976190D01*
X159238100Y-58976190D01*
X160809529Y-59357143D02*
X160761910Y-59404762D01*
X160619053Y-59452381D01*
X160523815Y-59452381D01*
X160380957Y-59404762D01*
X160285719Y-59309524D01*
X160238100Y-59214286D01*
X160190481Y-59023810D01*
X160190481Y-58880952D01*
X160238100Y-58690476D01*
X160285719Y-58595238D01*
X160380957Y-58500000D01*
X160523815Y-58452381D01*
X160619053Y-58452381D01*
X160761910Y-58500000D01*
X160809529Y-58547619D01*
X161571434Y-58928571D02*
X161714291Y-58976190D01*
X161761910Y-59023810D01*
X161809529Y-59119048D01*
X161809529Y-59261905D01*
X161761910Y-59357143D01*
X161714291Y-59404762D01*
X161619053Y-59452381D01*
X161238100Y-59452381D01*
X161238100Y-58452381D01*
X161571434Y-58452381D01*
X161666672Y-58500000D01*
X161714291Y-58547619D01*
X161761910Y-58642857D01*
X161761910Y-58738095D01*
X161714291Y-58833333D01*
X161666672Y-58880952D01*
X161571434Y-58928571D01*
X161238100Y-58928571D01*
X162142862Y-59833333D02*
X162190481Y-59785714D01*
X162285719Y-59642857D01*
X162333338Y-59547619D01*
X162380957Y-59404762D01*
X162428576Y-59166667D01*
X162428576Y-58976190D01*
X162380957Y-58738095D01*
X162333338Y-58595238D01*
X162285719Y-58500000D01*
X162190481Y-58357143D01*
X162142862Y-58309524D01*
X140867143Y-55166667D02*
X141343334Y-55166667D01*
X140771905Y-55452381D02*
X141105238Y-54452381D01*
X141438572Y-55452381D01*
X142295715Y-55452381D02*
X141724286Y-55452381D01*
X142010000Y-55452381D02*
X142010000Y-54452381D01*
X141914762Y-54595238D01*
X141819524Y-54690476D01*
X141724286Y-54738095D01*
X143200477Y-54452381D02*
X142724286Y-54452381D01*
X142676667Y-54928571D01*
X142724286Y-54880952D01*
X142819524Y-54833333D01*
X143057620Y-54833333D01*
X143152858Y-54880952D01*
X143200477Y-54928571D01*
X143248096Y-55023810D01*
X143248096Y-55261905D01*
X143200477Y-55357143D01*
X143152858Y-55404762D01*
X143057620Y-55452381D01*
X142819524Y-55452381D01*
X142724286Y-55404762D01*
X142676667Y-55357143D01*
X144438572Y-55071429D02*
X145200477Y-55071429D01*
X145676667Y-55071429D02*
X146438572Y-55071429D01*
X147629048Y-55166667D02*
X148105239Y-55166667D01*
X147533810Y-55452381D02*
X147867143Y-54452381D01*
X148200477Y-55452381D01*
X148581429Y-55452381D02*
X148771905Y-55452381D01*
X148867144Y-55404762D01*
X148914763Y-55357143D01*
X149010001Y-55214286D01*
X149057620Y-55023810D01*
X149057620Y-54642857D01*
X149010001Y-54547619D01*
X148962382Y-54500000D01*
X148867144Y-54452381D01*
X148676667Y-54452381D01*
X148581429Y-54500000D01*
X148533810Y-54547619D01*
X148486191Y-54642857D01*
X148486191Y-54880952D01*
X148533810Y-54976190D01*
X148581429Y-55023810D01*
X148676667Y-55071429D01*
X148867144Y-55071429D01*
X148962382Y-55023810D01*
X149010001Y-54976190D01*
X149057620Y-54880952D01*
X149533810Y-55404762D02*
X149533810Y-55452381D01*
X149486191Y-55547619D01*
X149438572Y-55595238D01*
X150676667Y-55166667D02*
X151152858Y-55166667D01*
X150581429Y-55452381D02*
X150914762Y-54452381D01*
X151248096Y-55452381D01*
X151771905Y-54452381D02*
X151867144Y-54452381D01*
X151962382Y-54500000D01*
X152010001Y-54547619D01*
X152057620Y-54642857D01*
X152105239Y-54833333D01*
X152105239Y-55071429D01*
X152057620Y-55261905D01*
X152010001Y-55357143D01*
X151962382Y-55404762D01*
X151867144Y-55452381D01*
X151771905Y-55452381D01*
X151676667Y-55404762D01*
X151629048Y-55357143D01*
X151581429Y-55261905D01*
X151533810Y-55071429D01*
X151533810Y-54833333D01*
X151581429Y-54642857D01*
X151629048Y-54547619D01*
X151676667Y-54500000D01*
X151771905Y-54452381D01*
X153295715Y-55071429D02*
X154057620Y-55071429D01*
X154533810Y-55071429D02*
X155295715Y-55071429D01*
X155771905Y-55071429D02*
X156533810Y-55071429D01*
X157724286Y-55166667D02*
X158200477Y-55166667D01*
X157629048Y-55452381D02*
X157962381Y-54452381D01*
X158295715Y-55452381D01*
X158771905Y-54880952D02*
X158676667Y-54833333D01*
X158629048Y-54785714D01*
X158581429Y-54690476D01*
X158581429Y-54642857D01*
X158629048Y-54547619D01*
X158676667Y-54500000D01*
X158771905Y-54452381D01*
X158962382Y-54452381D01*
X159057620Y-54500000D01*
X159105239Y-54547619D01*
X159152858Y-54642857D01*
X159152858Y-54690476D01*
X159105239Y-54785714D01*
X159057620Y-54833333D01*
X158962382Y-54880952D01*
X158771905Y-54880952D01*
X158676667Y-54928571D01*
X158629048Y-54976190D01*
X158581429Y-55071429D01*
X158581429Y-55261905D01*
X158629048Y-55357143D01*
X158676667Y-55404762D01*
X158771905Y-55452381D01*
X158962382Y-55452381D01*
X159057620Y-55404762D01*
X159105239Y-55357143D01*
X159152858Y-55261905D01*
X159152858Y-55071429D01*
X159105239Y-54976190D01*
X159057620Y-54928571D01*
X158962382Y-54880952D01*
X125356667Y-55452381D02*
X125356667Y-54452381D01*
X125594762Y-54452381D01*
X125737620Y-54500000D01*
X125832858Y-54595238D01*
X125880477Y-54690476D01*
X125928096Y-54880952D01*
X125928096Y-55023810D01*
X125880477Y-55214286D01*
X125832858Y-55309524D01*
X125737620Y-55404762D01*
X125594762Y-55452381D01*
X125356667Y-55452381D01*
X126261429Y-54452381D02*
X126928096Y-54452381D01*
X126499524Y-55452381D01*
X128070953Y-55071429D02*
X128832858Y-55071429D01*
X129309048Y-55071429D02*
X130070953Y-55071429D01*
X130547143Y-55071429D02*
X131309048Y-55071429D01*
X132547143Y-55452381D02*
X132547143Y-54452381D01*
X132785238Y-54452381D01*
X132928096Y-54500000D01*
X133023334Y-54595238D01*
X133070953Y-54690476D01*
X133118572Y-54880952D01*
X133118572Y-55023810D01*
X133070953Y-55214286D01*
X133023334Y-55309524D01*
X132928096Y-55404762D01*
X132785238Y-55452381D01*
X132547143Y-55452381D01*
X133737619Y-54452381D02*
X133832858Y-54452381D01*
X133928096Y-54500000D01*
X133975715Y-54547619D01*
X134023334Y-54642857D01*
X134070953Y-54833333D01*
X134070953Y-55071429D01*
X134023334Y-55261905D01*
X133975715Y-55357143D01*
X133928096Y-55404762D01*
X133832858Y-55452381D01*
X133737619Y-55452381D01*
X133642381Y-55404762D01*
X133594762Y-55357143D01*
X133547143Y-55261905D01*
X133499524Y-55071429D01*
X133499524Y-54833333D01*
X133547143Y-54642857D01*
X133594762Y-54547619D01*
X133642381Y-54500000D01*
X133737619Y-54452381D01*
X107211428Y-55071429D02*
X107973333Y-55071429D01*
X108925714Y-54452381D02*
X108449523Y-54452381D01*
X108401904Y-54928571D01*
X108449523Y-54880952D01*
X108544761Y-54833333D01*
X108782857Y-54833333D01*
X108878095Y-54880952D01*
X108925714Y-54928571D01*
X108973333Y-55023810D01*
X108973333Y-55261905D01*
X108925714Y-55357143D01*
X108878095Y-55404762D01*
X108782857Y-55452381D01*
X108544761Y-55452381D01*
X108449523Y-55404762D01*
X108401904Y-55357143D01*
X110354285Y-54452381D02*
X110449524Y-54452381D01*
X110544762Y-54500000D01*
X110592381Y-54547619D01*
X110640000Y-54642857D01*
X110687619Y-54833333D01*
X110687619Y-55071429D01*
X110640000Y-55261905D01*
X110592381Y-55357143D01*
X110544762Y-55404762D01*
X110449524Y-55452381D01*
X110354285Y-55452381D01*
X110259047Y-55404762D01*
X110211428Y-55357143D01*
X110163809Y-55261905D01*
X110116190Y-55071429D01*
X110116190Y-54833333D01*
X110163809Y-54642857D01*
X110211428Y-54547619D01*
X110259047Y-54500000D01*
X110354285Y-54452381D01*
X110973333Y-54452381D02*
X111306666Y-55452381D01*
X111640000Y-54452381D01*
X113211429Y-54452381D02*
X112735238Y-54452381D01*
X112687619Y-54928571D01*
X112735238Y-54880952D01*
X112830476Y-54833333D01*
X113068572Y-54833333D01*
X113163810Y-54880952D01*
X113211429Y-54928571D01*
X113259048Y-55023810D01*
X113259048Y-55261905D01*
X113211429Y-55357143D01*
X113163810Y-55404762D01*
X113068572Y-55452381D01*
X112830476Y-55452381D01*
X112735238Y-55404762D01*
X112687619Y-55357143D01*
X113544762Y-54452381D02*
X113878095Y-55452381D01*
X114211429Y-54452381D01*
X102242381Y-55166667D02*
X102718572Y-55166667D01*
X102147143Y-55452381D02*
X102480476Y-54452381D01*
X102813810Y-55452381D01*
X103718572Y-55357143D02*
X103670953Y-55404762D01*
X103528096Y-55452381D01*
X103432858Y-55452381D01*
X103290000Y-55404762D01*
X103194762Y-55309524D01*
X103147143Y-55214286D01*
X103099524Y-55023810D01*
X103099524Y-54880952D01*
X103147143Y-54690476D01*
X103194762Y-54595238D01*
X103290000Y-54500000D01*
X103432858Y-54452381D01*
X103528096Y-54452381D01*
X103670953Y-54500000D01*
X103718572Y-54547619D01*
X104861429Y-55166667D02*
X105337620Y-55166667D01*
X104766191Y-55452381D02*
X105099524Y-54452381D01*
X105432858Y-55452381D01*
X106337620Y-55452381D02*
X106004286Y-54976190D01*
X105766191Y-55452381D02*
X105766191Y-54452381D01*
X106147144Y-54452381D01*
X106242382Y-54500000D01*
X106290001Y-54547619D01*
X106337620Y-54642857D01*
X106337620Y-54785714D01*
X106290001Y-54880952D01*
X106242382Y-54928571D01*
X106147144Y-54976190D01*
X105766191Y-54976190D01*
X160948095Y-54452381D02*
X161043334Y-54452381D01*
X161138572Y-54500000D01*
X161186191Y-54547619D01*
X161233810Y-54642857D01*
X161281429Y-54833333D01*
X161281429Y-55071429D01*
X161233810Y-55261905D01*
X161186191Y-55357143D01*
X161138572Y-55404762D01*
X161043334Y-55452381D01*
X160948095Y-55452381D01*
X160852857Y-55404762D01*
X160805238Y-55357143D01*
X160757619Y-55261905D01*
X160710000Y-55071429D01*
X160710000Y-54833333D01*
X160757619Y-54642857D01*
X160805238Y-54547619D01*
X160852857Y-54500000D01*
X160948095Y-54452381D01*
X161567143Y-54452381D02*
X161900476Y-55452381D01*
X162233810Y-54452381D01*
X163805239Y-54452381D02*
X163329048Y-54452381D01*
X163281429Y-54928571D01*
X163329048Y-54880952D01*
X163424286Y-54833333D01*
X163662382Y-54833333D01*
X163757620Y-54880952D01*
X163805239Y-54928571D01*
X163852858Y-55023810D01*
X163852858Y-55261905D01*
X163805239Y-55357143D01*
X163757620Y-55404762D01*
X163662382Y-55452381D01*
X163424286Y-55452381D01*
X163329048Y-55404762D01*
X163281429Y-55357143D01*
X164138572Y-54452381D02*
X164471905Y-55452381D01*
X164805239Y-54452381D01*
X141662381Y-76431905D02*
X142471905Y-76431905D01*
X142567143Y-76384286D01*
X142614762Y-76336667D01*
X142662381Y-76241429D01*
X142662381Y-76050952D01*
X142614762Y-75955714D01*
X142567143Y-75908095D01*
X142471905Y-75860476D01*
X141662381Y-75860476D01*
X141757619Y-75431905D02*
X141710000Y-75384286D01*
X141662381Y-75289048D01*
X141662381Y-75050952D01*
X141710000Y-74955714D01*
X141757619Y-74908095D01*
X141852857Y-74860476D01*
X141948095Y-74860476D01*
X142090952Y-74908095D01*
X142662381Y-75479524D01*
X142662381Y-74860476D01*
X163392381Y-76431905D02*
X164201905Y-76431905D01*
X164297143Y-76384286D01*
X164344762Y-76336667D01*
X164392381Y-76241429D01*
X164392381Y-76050952D01*
X164344762Y-75955714D01*
X164297143Y-75908095D01*
X164201905Y-75860476D01*
X163392381Y-75860476D01*
X163392381Y-75479524D02*
X163392381Y-74860476D01*
X163773333Y-75193810D01*
X163773333Y-75050952D01*
X163820952Y-74955714D01*
X163868571Y-74908095D01*
X163963810Y-74860476D01*
X164201905Y-74860476D01*
X164297143Y-74908095D01*
X164344762Y-74955714D01*
X164392381Y-75050952D01*
X164392381Y-75336667D01*
X164344762Y-75431905D01*
X164297143Y-75479524D01*
X152992381Y-76431905D02*
X153801905Y-76431905D01*
X153897143Y-76384286D01*
X153944762Y-76336667D01*
X153992381Y-76241429D01*
X153992381Y-76050952D01*
X153944762Y-75955714D01*
X153897143Y-75908095D01*
X153801905Y-75860476D01*
X152992381Y-75860476D01*
X153325714Y-74955714D02*
X153992381Y-74955714D01*
X152944762Y-75193810D02*
X153659048Y-75431905D01*
X153659048Y-74812857D01*
X130912381Y-76431905D02*
X131721905Y-76431905D01*
X131817143Y-76384286D01*
X131864762Y-76336667D01*
X131912381Y-76241429D01*
X131912381Y-76050952D01*
X131864762Y-75955714D01*
X131817143Y-75908095D01*
X131721905Y-75860476D01*
X130912381Y-75860476D01*
X130912381Y-74908095D02*
X130912381Y-75384286D01*
X131388571Y-75431905D01*
X131340952Y-75384286D01*
X131293333Y-75289048D01*
X131293333Y-75050952D01*
X131340952Y-74955714D01*
X131388571Y-74908095D01*
X131483810Y-74860476D01*
X131721905Y-74860476D01*
X131817143Y-74908095D01*
X131864762Y-74955714D01*
X131912381Y-75050952D01*
X131912381Y-75289048D01*
X131864762Y-75384286D01*
X131817143Y-75431905D01*
D14*
X107710052Y-76293862D02*
X107424120Y-76293862D01*
X107567086Y-76293862D02*
X107567086Y-75793482D01*
X107519431Y-75864965D01*
X107471776Y-75912620D01*
X107424120Y-75936448D01*
X108019811Y-75793482D02*
X108067466Y-75793482D01*
X108115121Y-75817310D01*
X108138949Y-75841138D01*
X108162776Y-75888793D01*
X108186604Y-75984103D01*
X108186604Y-76103241D01*
X108162776Y-76198552D01*
X108138949Y-76246207D01*
X108115121Y-76270035D01*
X108067466Y-76293862D01*
X108019811Y-76293862D01*
X107972155Y-76270035D01*
X107948328Y-76246207D01*
X107924500Y-76198552D01*
X107900672Y-76103241D01*
X107900672Y-75984103D01*
X107924500Y-75888793D01*
X107948328Y-75841138D01*
X107972155Y-75817310D01*
X108019811Y-75793482D01*
X108496363Y-75793482D02*
X108544018Y-75793482D01*
X108591673Y-75817310D01*
X108615501Y-75841138D01*
X108639328Y-75888793D01*
X108663156Y-75984103D01*
X108663156Y-76103241D01*
X108639328Y-76198552D01*
X108615501Y-76246207D01*
X108591673Y-76270035D01*
X108544018Y-76293862D01*
X108496363Y-76293862D01*
X108448707Y-76270035D01*
X108424880Y-76246207D01*
X108401052Y-76198552D01*
X108377224Y-76103241D01*
X108377224Y-75984103D01*
X108401052Y-75888793D01*
X108424880Y-75841138D01*
X108448707Y-75817310D01*
X108496363Y-75793482D01*
X108877604Y-75960276D02*
X108877604Y-76293862D01*
X108877604Y-76007931D02*
X108901432Y-75984103D01*
X108949087Y-75960276D01*
X109020570Y-75960276D01*
X109068225Y-75984103D01*
X109092053Y-76031759D01*
X109092053Y-76293862D01*
X121540052Y-76348862D02*
X121254120Y-76348862D01*
X121397086Y-76348862D02*
X121397086Y-75848482D01*
X121349431Y-75919965D01*
X121301776Y-75967620D01*
X121254120Y-75991448D01*
X121849811Y-75848482D02*
X121897466Y-75848482D01*
X121945121Y-75872310D01*
X121968949Y-75896138D01*
X121992776Y-75943793D01*
X122016604Y-76039103D01*
X122016604Y-76158241D01*
X121992776Y-76253552D01*
X121968949Y-76301207D01*
X121945121Y-76325035D01*
X121897466Y-76348862D01*
X121849811Y-76348862D01*
X121802155Y-76325035D01*
X121778328Y-76301207D01*
X121754500Y-76253552D01*
X121730672Y-76158241D01*
X121730672Y-76039103D01*
X121754500Y-75943793D01*
X121778328Y-75896138D01*
X121802155Y-75872310D01*
X121849811Y-75848482D01*
X122326363Y-75848482D02*
X122374018Y-75848482D01*
X122421673Y-75872310D01*
X122445501Y-75896138D01*
X122469328Y-75943793D01*
X122493156Y-76039103D01*
X122493156Y-76158241D01*
X122469328Y-76253552D01*
X122445501Y-76301207D01*
X122421673Y-76325035D01*
X122374018Y-76348862D01*
X122326363Y-76348862D01*
X122278707Y-76325035D01*
X122254880Y-76301207D01*
X122231052Y-76253552D01*
X122207224Y-76158241D01*
X122207224Y-76039103D01*
X122231052Y-75943793D01*
X122254880Y-75896138D01*
X122278707Y-75872310D01*
X122326363Y-75848482D01*
X122707604Y-76015276D02*
X122707604Y-76348862D01*
X122707604Y-76062931D02*
X122731432Y-76039103D01*
X122779087Y-76015276D01*
X122850570Y-76015276D01*
X122898225Y-76039103D01*
X122922053Y-76086759D01*
X122922053Y-76348862D01*
X132260052Y-75678862D02*
X131974120Y-75678862D01*
X132117086Y-75678862D02*
X132117086Y-75178482D01*
X132069431Y-75249965D01*
X132021776Y-75297620D01*
X131974120Y-75321448D01*
X132569811Y-75178482D02*
X132617466Y-75178482D01*
X132665121Y-75202310D01*
X132688949Y-75226138D01*
X132712776Y-75273793D01*
X132736604Y-75369103D01*
X132736604Y-75488241D01*
X132712776Y-75583552D01*
X132688949Y-75631207D01*
X132665121Y-75655035D01*
X132617466Y-75678862D01*
X132569811Y-75678862D01*
X132522155Y-75655035D01*
X132498328Y-75631207D01*
X132474500Y-75583552D01*
X132450672Y-75488241D01*
X132450672Y-75369103D01*
X132474500Y-75273793D01*
X132498328Y-75226138D01*
X132522155Y-75202310D01*
X132569811Y-75178482D01*
X133046363Y-75178482D02*
X133094018Y-75178482D01*
X133141673Y-75202310D01*
X133165501Y-75226138D01*
X133189328Y-75273793D01*
X133213156Y-75369103D01*
X133213156Y-75488241D01*
X133189328Y-75583552D01*
X133165501Y-75631207D01*
X133141673Y-75655035D01*
X133094018Y-75678862D01*
X133046363Y-75678862D01*
X132998707Y-75655035D01*
X132974880Y-75631207D01*
X132951052Y-75583552D01*
X132927224Y-75488241D01*
X132927224Y-75369103D01*
X132951052Y-75273793D01*
X132974880Y-75226138D01*
X132998707Y-75202310D01*
X133046363Y-75178482D01*
X133427604Y-75345276D02*
X133427604Y-75678862D01*
X133427604Y-75392931D02*
X133451432Y-75369103D01*
X133499087Y-75345276D01*
X133570570Y-75345276D01*
X133618225Y-75369103D01*
X133642053Y-75416759D01*
X133642053Y-75678862D01*
X143460052Y-75968862D02*
X143174120Y-75968862D01*
X143317086Y-75968862D02*
X143317086Y-75468482D01*
X143269431Y-75539965D01*
X143221776Y-75587620D01*
X143174120Y-75611448D01*
X143769811Y-75468482D02*
X143817466Y-75468482D01*
X143865121Y-75492310D01*
X143888949Y-75516138D01*
X143912776Y-75563793D01*
X143936604Y-75659103D01*
X143936604Y-75778241D01*
X143912776Y-75873552D01*
X143888949Y-75921207D01*
X143865121Y-75945035D01*
X143817466Y-75968862D01*
X143769811Y-75968862D01*
X143722155Y-75945035D01*
X143698328Y-75921207D01*
X143674500Y-75873552D01*
X143650672Y-75778241D01*
X143650672Y-75659103D01*
X143674500Y-75563793D01*
X143698328Y-75516138D01*
X143722155Y-75492310D01*
X143769811Y-75468482D01*
X144246363Y-75468482D02*
X144294018Y-75468482D01*
X144341673Y-75492310D01*
X144365501Y-75516138D01*
X144389328Y-75563793D01*
X144413156Y-75659103D01*
X144413156Y-75778241D01*
X144389328Y-75873552D01*
X144365501Y-75921207D01*
X144341673Y-75945035D01*
X144294018Y-75968862D01*
X144246363Y-75968862D01*
X144198707Y-75945035D01*
X144174880Y-75921207D01*
X144151052Y-75873552D01*
X144127224Y-75778241D01*
X144127224Y-75659103D01*
X144151052Y-75563793D01*
X144174880Y-75516138D01*
X144198707Y-75492310D01*
X144246363Y-75468482D01*
X144627604Y-75635276D02*
X144627604Y-75968862D01*
X144627604Y-75682931D02*
X144651432Y-75659103D01*
X144699087Y-75635276D01*
X144770570Y-75635276D01*
X144818225Y-75659103D01*
X144842053Y-75706759D01*
X144842053Y-75968862D01*
X154160052Y-75728862D02*
X153874120Y-75728862D01*
X154017086Y-75728862D02*
X154017086Y-75228482D01*
X153969431Y-75299965D01*
X153921776Y-75347620D01*
X153874120Y-75371448D01*
X154469811Y-75228482D02*
X154517466Y-75228482D01*
X154565121Y-75252310D01*
X154588949Y-75276138D01*
X154612776Y-75323793D01*
X154636604Y-75419103D01*
X154636604Y-75538241D01*
X154612776Y-75633552D01*
X154588949Y-75681207D01*
X154565121Y-75705035D01*
X154517466Y-75728862D01*
X154469811Y-75728862D01*
X154422155Y-75705035D01*
X154398328Y-75681207D01*
X154374500Y-75633552D01*
X154350672Y-75538241D01*
X154350672Y-75419103D01*
X154374500Y-75323793D01*
X154398328Y-75276138D01*
X154422155Y-75252310D01*
X154469811Y-75228482D01*
X154946363Y-75228482D02*
X154994018Y-75228482D01*
X155041673Y-75252310D01*
X155065501Y-75276138D01*
X155089328Y-75323793D01*
X155113156Y-75419103D01*
X155113156Y-75538241D01*
X155089328Y-75633552D01*
X155065501Y-75681207D01*
X155041673Y-75705035D01*
X154994018Y-75728862D01*
X154946363Y-75728862D01*
X154898707Y-75705035D01*
X154874880Y-75681207D01*
X154851052Y-75633552D01*
X154827224Y-75538241D01*
X154827224Y-75419103D01*
X154851052Y-75323793D01*
X154874880Y-75276138D01*
X154898707Y-75252310D01*
X154946363Y-75228482D01*
X155327604Y-75395276D02*
X155327604Y-75728862D01*
X155327604Y-75442931D02*
X155351432Y-75419103D01*
X155399087Y-75395276D01*
X155470570Y-75395276D01*
X155518225Y-75419103D01*
X155542053Y-75466759D01*
X155542053Y-75728862D01*
X143668862Y-84767845D02*
X143668862Y-85053777D01*
X143668862Y-84910811D02*
X143168482Y-84910811D01*
X143239965Y-84958466D01*
X143287620Y-85006121D01*
X143311448Y-85053777D01*
X143168482Y-84458086D02*
X143168482Y-84410431D01*
X143192310Y-84362776D01*
X143216138Y-84338948D01*
X143263793Y-84315121D01*
X143359103Y-84291293D01*
X143478241Y-84291293D01*
X143573552Y-84315121D01*
X143621207Y-84338948D01*
X143645035Y-84362776D01*
X143668862Y-84410431D01*
X143668862Y-84458086D01*
X143645035Y-84505742D01*
X143621207Y-84529569D01*
X143573552Y-84553397D01*
X143478241Y-84577225D01*
X143359103Y-84577225D01*
X143263793Y-84553397D01*
X143216138Y-84529569D01*
X143192310Y-84505742D01*
X143168482Y-84458086D01*
X143668862Y-84076845D02*
X143168482Y-84076845D01*
X143478241Y-84029190D02*
X143668862Y-83886224D01*
X143335276Y-83886224D02*
X143525897Y-84076845D01*
D12*
X174381905Y-80892381D02*
X174381905Y-79892381D01*
X174762858Y-79892381D01*
X174858096Y-79940000D01*
X174905715Y-79987619D01*
X174953334Y-80082857D01*
X174953334Y-80225714D01*
X174905715Y-80320952D01*
X174858096Y-80368571D01*
X174762858Y-80416190D01*
X174381905Y-80416190D01*
X175286667Y-79892381D02*
X175905715Y-79892381D01*
X175572381Y-80273333D01*
X175715239Y-80273333D01*
X175810477Y-80320952D01*
X175858096Y-80368571D01*
X175905715Y-80463810D01*
X175905715Y-80701905D01*
X175858096Y-80797143D01*
X175810477Y-80844762D01*
X175715239Y-80892381D01*
X175429524Y-80892381D01*
X175334286Y-80844762D01*
X175286667Y-80797143D01*
X139183095Y-113892381D02*
X139183095Y-114701905D01*
X139230714Y-114797143D01*
X139278333Y-114844762D01*
X139373571Y-114892381D01*
X139564048Y-114892381D01*
X139659286Y-114844762D01*
X139706905Y-114797143D01*
X139754524Y-114701905D01*
X139754524Y-113892381D01*
X140659286Y-113892381D02*
X140468809Y-113892381D01*
X140373571Y-113940000D01*
X140325952Y-113987619D01*
X140230714Y-114130476D01*
X140183095Y-114320952D01*
X140183095Y-114701905D01*
X140230714Y-114797143D01*
X140278333Y-114844762D01*
X140373571Y-114892381D01*
X140564048Y-114892381D01*
X140659286Y-114844762D01*
X140706905Y-114797143D01*
X140754524Y-114701905D01*
X140754524Y-114463810D01*
X140706905Y-114368571D01*
X140659286Y-114320952D01*
X140564048Y-114273333D01*
X140373571Y-114273333D01*
X140278333Y-114320952D01*
X140230714Y-114368571D01*
X140183095Y-114463810D01*
X158026667Y-135323571D02*
X157693333Y-135323571D01*
X157693333Y-135847381D02*
X157693333Y-134847381D01*
X158169524Y-134847381D01*
X159074286Y-135847381D02*
X158502857Y-135847381D01*
X158788571Y-135847381D02*
X158788571Y-134847381D01*
X158693333Y-134990238D01*
X158598095Y-135085476D01*
X158502857Y-135133095D01*
X165503809Y-134847381D02*
X165599048Y-134847381D01*
X165694286Y-134895000D01*
X165741905Y-134942619D01*
X165789524Y-135037857D01*
X165837143Y-135228333D01*
X165837143Y-135466429D01*
X165789524Y-135656905D01*
X165741905Y-135752143D01*
X165694286Y-135799762D01*
X165599048Y-135847381D01*
X165503809Y-135847381D01*
X165408571Y-135799762D01*
X165360952Y-135752143D01*
X165313333Y-135656905D01*
X165265714Y-135466429D01*
X165265714Y-135228333D01*
X165313333Y-135037857D01*
X165360952Y-134942619D01*
X165408571Y-134895000D01*
X165503809Y-134847381D01*
X166122857Y-134847381D02*
X166456190Y-135847381D01*
X166789524Y-134847381D01*
X154772381Y-134847381D02*
X155391429Y-134847381D01*
X155058095Y-135228333D01*
X155200953Y-135228333D01*
X155296191Y-135275952D01*
X155343810Y-135323571D01*
X155391429Y-135418810D01*
X155391429Y-135656905D01*
X155343810Y-135752143D01*
X155296191Y-135799762D01*
X155200953Y-135847381D01*
X154915238Y-135847381D01*
X154820000Y-135799762D01*
X154772381Y-135752143D01*
X155820000Y-135752143D02*
X155867619Y-135799762D01*
X155820000Y-135847381D01*
X155772381Y-135799762D01*
X155820000Y-135752143D01*
X155820000Y-135847381D01*
X156200952Y-134847381D02*
X156820000Y-134847381D01*
X156486666Y-135228333D01*
X156629524Y-135228333D01*
X156724762Y-135275952D01*
X156772381Y-135323571D01*
X156820000Y-135418810D01*
X156820000Y-135656905D01*
X156772381Y-135752143D01*
X156724762Y-135799762D01*
X156629524Y-135847381D01*
X156343809Y-135847381D01*
X156248571Y-135799762D01*
X156200952Y-135752143D01*
X134452381Y-134847381D02*
X135071429Y-134847381D01*
X134738095Y-135228333D01*
X134880953Y-135228333D01*
X134976191Y-135275952D01*
X135023810Y-135323571D01*
X135071429Y-135418810D01*
X135071429Y-135656905D01*
X135023810Y-135752143D01*
X134976191Y-135799762D01*
X134880953Y-135847381D01*
X134595238Y-135847381D01*
X134500000Y-135799762D01*
X134452381Y-135752143D01*
X135500000Y-135752143D02*
X135547619Y-135799762D01*
X135500000Y-135847381D01*
X135452381Y-135799762D01*
X135500000Y-135752143D01*
X135500000Y-135847381D01*
X135880952Y-134847381D02*
X136500000Y-134847381D01*
X136166666Y-135228333D01*
X136309524Y-135228333D01*
X136404762Y-135275952D01*
X136452381Y-135323571D01*
X136500000Y-135418810D01*
X136500000Y-135656905D01*
X136452381Y-135752143D01*
X136404762Y-135799762D01*
X136309524Y-135847381D01*
X136023809Y-135847381D01*
X135928571Y-135799762D01*
X135880952Y-135752143D01*
X145183809Y-134847381D02*
X145279048Y-134847381D01*
X145374286Y-134895000D01*
X145421905Y-134942619D01*
X145469524Y-135037857D01*
X145517143Y-135228333D01*
X145517143Y-135466429D01*
X145469524Y-135656905D01*
X145421905Y-135752143D01*
X145374286Y-135799762D01*
X145279048Y-135847381D01*
X145183809Y-135847381D01*
X145088571Y-135799762D01*
X145040952Y-135752143D01*
X144993333Y-135656905D01*
X144945714Y-135466429D01*
X144945714Y-135228333D01*
X144993333Y-135037857D01*
X145040952Y-134942619D01*
X145088571Y-134895000D01*
X145183809Y-134847381D01*
X145802857Y-134847381D02*
X146136190Y-135847381D01*
X146469524Y-134847381D01*
X129681905Y-135847381D02*
X129681905Y-134847381D01*
X129920000Y-134847381D01*
X130062858Y-134895000D01*
X130158096Y-134990238D01*
X130205715Y-135085476D01*
X130253334Y-135275952D01*
X130253334Y-135418810D01*
X130205715Y-135609286D01*
X130158096Y-135704524D01*
X130062858Y-135799762D01*
X129920000Y-135847381D01*
X129681905Y-135847381D01*
X131205715Y-135847381D02*
X130634286Y-135847381D01*
X130920000Y-135847381D02*
X130920000Y-134847381D01*
X130824762Y-134990238D01*
X130729524Y-135085476D01*
X130634286Y-135133095D01*
X112163809Y-139292381D02*
X112259048Y-139292381D01*
X112354286Y-139340000D01*
X112401905Y-139387619D01*
X112449524Y-139482857D01*
X112497143Y-139673333D01*
X112497143Y-139911429D01*
X112449524Y-140101905D01*
X112401905Y-140197143D01*
X112354286Y-140244762D01*
X112259048Y-140292381D01*
X112163809Y-140292381D01*
X112068571Y-140244762D01*
X112020952Y-140197143D01*
X111973333Y-140101905D01*
X111925714Y-139911429D01*
X111925714Y-139673333D01*
X111973333Y-139482857D01*
X112020952Y-139387619D01*
X112068571Y-139340000D01*
X112163809Y-139292381D01*
X112782857Y-139292381D02*
X113116190Y-140292381D01*
X113449524Y-139292381D01*
X127403809Y-134847381D02*
X127499048Y-134847381D01*
X127594286Y-134895000D01*
X127641905Y-134942619D01*
X127689524Y-135037857D01*
X127737143Y-135228333D01*
X127737143Y-135466429D01*
X127689524Y-135656905D01*
X127641905Y-135752143D01*
X127594286Y-135799762D01*
X127499048Y-135847381D01*
X127403809Y-135847381D01*
X127308571Y-135799762D01*
X127260952Y-135752143D01*
X127213333Y-135656905D01*
X127165714Y-135466429D01*
X127165714Y-135228333D01*
X127213333Y-135037857D01*
X127260952Y-134942619D01*
X127308571Y-134895000D01*
X127403809Y-134847381D01*
X128022857Y-134847381D02*
X128356190Y-135847381D01*
X128689524Y-134847381D01*
X116481905Y-135561667D02*
X116958096Y-135561667D01*
X116386667Y-135847381D02*
X116720000Y-134847381D01*
X117053334Y-135847381D01*
X117386667Y-135847381D02*
X117386667Y-134847381D01*
X117958096Y-135847381D01*
X117958096Y-134847381D01*
X118624762Y-134847381D02*
X118720001Y-134847381D01*
X118815239Y-134895000D01*
X118862858Y-134942619D01*
X118910477Y-135037857D01*
X118958096Y-135228333D01*
X118958096Y-135466429D01*
X118910477Y-135656905D01*
X118862858Y-135752143D01*
X118815239Y-135799762D01*
X118720001Y-135847381D01*
X118624762Y-135847381D01*
X118529524Y-135799762D01*
X118481905Y-135752143D01*
X118434286Y-135656905D01*
X118386667Y-135466429D01*
X118386667Y-135228333D01*
X118434286Y-135037857D01*
X118481905Y-134942619D01*
X118529524Y-134895000D01*
X118624762Y-134847381D01*
X112163809Y-136752381D02*
X112259048Y-136752381D01*
X112354286Y-136800000D01*
X112401905Y-136847619D01*
X112449524Y-136942857D01*
X112497143Y-137133333D01*
X112497143Y-137371429D01*
X112449524Y-137561905D01*
X112401905Y-137657143D01*
X112354286Y-137704762D01*
X112259048Y-137752381D01*
X112163809Y-137752381D01*
X112068571Y-137704762D01*
X112020952Y-137657143D01*
X111973333Y-137561905D01*
X111925714Y-137371429D01*
X111925714Y-137133333D01*
X111973333Y-136942857D01*
X112020952Y-136847619D01*
X112068571Y-136800000D01*
X112163809Y-136752381D01*
X112782857Y-136752381D02*
X113116190Y-137752381D01*
X113449524Y-136752381D01*
X175663809Y-91032381D02*
X175759048Y-91032381D01*
X175854286Y-91080000D01*
X175901905Y-91127619D01*
X175949524Y-91222857D01*
X175997143Y-91413333D01*
X175997143Y-91651429D01*
X175949524Y-91841905D01*
X175901905Y-91937143D01*
X175854286Y-91984762D01*
X175759048Y-92032381D01*
X175663809Y-92032381D01*
X175568571Y-91984762D01*
X175520952Y-91937143D01*
X175473333Y-91841905D01*
X175425714Y-91651429D01*
X175425714Y-91413333D01*
X175473333Y-91222857D01*
X175520952Y-91127619D01*
X175568571Y-91080000D01*
X175663809Y-91032381D01*
X176282857Y-91032381D02*
X176616190Y-92032381D01*
X176949524Y-91032381D01*
X173409524Y-95477381D02*
X172933333Y-95477381D01*
X172885714Y-95953571D01*
X172933333Y-95905952D01*
X173028571Y-95858333D01*
X173266667Y-95858333D01*
X173361905Y-95905952D01*
X173409524Y-95953571D01*
X173457143Y-96048810D01*
X173457143Y-96286905D01*
X173409524Y-96382143D01*
X173361905Y-96429762D01*
X173266667Y-96477381D01*
X173028571Y-96477381D01*
X172933333Y-96429762D01*
X172885714Y-96382143D01*
X173742857Y-95477381D02*
X174076190Y-96477381D01*
X174409524Y-95477381D01*
X162963809Y-95477381D02*
X163059048Y-95477381D01*
X163154286Y-95525000D01*
X163201905Y-95572619D01*
X163249524Y-95667857D01*
X163297143Y-95858333D01*
X163297143Y-96096429D01*
X163249524Y-96286905D01*
X163201905Y-96382143D01*
X163154286Y-96429762D01*
X163059048Y-96477381D01*
X162963809Y-96477381D01*
X162868571Y-96429762D01*
X162820952Y-96382143D01*
X162773333Y-96286905D01*
X162725714Y-96096429D01*
X162725714Y-95858333D01*
X162773333Y-95667857D01*
X162820952Y-95572619D01*
X162868571Y-95525000D01*
X162963809Y-95477381D01*
X163582857Y-95477381D02*
X163916190Y-96477381D01*
X164249524Y-95477381D01*
X155653334Y-96382143D02*
X155605715Y-96429762D01*
X155462858Y-96477381D01*
X155367620Y-96477381D01*
X155224762Y-96429762D01*
X155129524Y-96334524D01*
X155081905Y-96239286D01*
X155034286Y-96048810D01*
X155034286Y-95905952D01*
X155081905Y-95715476D01*
X155129524Y-95620238D01*
X155224762Y-95525000D01*
X155367620Y-95477381D01*
X155462858Y-95477381D01*
X155605715Y-95525000D01*
X155653334Y-95572619D01*
X156272381Y-95477381D02*
X156367620Y-95477381D01*
X156462858Y-95525000D01*
X156510477Y-95572619D01*
X156558096Y-95667857D01*
X156605715Y-95858333D01*
X156605715Y-96096429D01*
X156558096Y-96286905D01*
X156510477Y-96382143D01*
X156462858Y-96429762D01*
X156367620Y-96477381D01*
X156272381Y-96477381D01*
X156177143Y-96429762D01*
X156129524Y-96382143D01*
X156081905Y-96286905D01*
X156034286Y-96096429D01*
X156034286Y-95858333D01*
X156081905Y-95667857D01*
X156129524Y-95572619D01*
X156177143Y-95525000D01*
X156272381Y-95477381D01*
X152232381Y-95477381D02*
X152851429Y-95477381D01*
X152518095Y-95858333D01*
X152660953Y-95858333D01*
X152756191Y-95905952D01*
X152803810Y-95953571D01*
X152851429Y-96048810D01*
X152851429Y-96286905D01*
X152803810Y-96382143D01*
X152756191Y-96429762D01*
X152660953Y-96477381D01*
X152375238Y-96477381D01*
X152280000Y-96429762D01*
X152232381Y-96382143D01*
X153280000Y-96382143D02*
X153327619Y-96429762D01*
X153280000Y-96477381D01*
X153232381Y-96429762D01*
X153280000Y-96382143D01*
X153280000Y-96477381D01*
X153660952Y-95477381D02*
X154280000Y-95477381D01*
X153946666Y-95858333D01*
X154089524Y-95858333D01*
X154184762Y-95905952D01*
X154232381Y-95953571D01*
X154280000Y-96048810D01*
X154280000Y-96286905D01*
X154232381Y-96382143D01*
X154184762Y-96429762D01*
X154089524Y-96477381D01*
X153803809Y-96477381D01*
X153708571Y-96429762D01*
X153660952Y-96382143D01*
X142643809Y-95477381D02*
X142739048Y-95477381D01*
X142834286Y-95525000D01*
X142881905Y-95572619D01*
X142929524Y-95667857D01*
X142977143Y-95858333D01*
X142977143Y-96096429D01*
X142929524Y-96286905D01*
X142881905Y-96382143D01*
X142834286Y-96429762D01*
X142739048Y-96477381D01*
X142643809Y-96477381D01*
X142548571Y-96429762D01*
X142500952Y-96382143D01*
X142453333Y-96286905D01*
X142405714Y-96096429D01*
X142405714Y-95858333D01*
X142453333Y-95667857D01*
X142500952Y-95572619D01*
X142548571Y-95525000D01*
X142643809Y-95477381D01*
X143262857Y-95477381D02*
X143596190Y-96477381D01*
X143929524Y-95477381D01*
X135095239Y-95953571D02*
X135238096Y-96001190D01*
X135285715Y-96048810D01*
X135333334Y-96144048D01*
X135333334Y-96286905D01*
X135285715Y-96382143D01*
X135238096Y-96429762D01*
X135142858Y-96477381D01*
X134761905Y-96477381D01*
X134761905Y-95477381D01*
X135095239Y-95477381D01*
X135190477Y-95525000D01*
X135238096Y-95572619D01*
X135285715Y-95667857D01*
X135285715Y-95763095D01*
X135238096Y-95858333D01*
X135190477Y-95905952D01*
X135095239Y-95953571D01*
X134761905Y-95953571D01*
X135952381Y-95477381D02*
X136047620Y-95477381D01*
X136142858Y-95525000D01*
X136190477Y-95572619D01*
X136238096Y-95667857D01*
X136285715Y-95858333D01*
X136285715Y-96096429D01*
X136238096Y-96286905D01*
X136190477Y-96382143D01*
X136142858Y-96429762D01*
X136047620Y-96477381D01*
X135952381Y-96477381D01*
X135857143Y-96429762D01*
X135809524Y-96382143D01*
X135761905Y-96286905D01*
X135714286Y-96096429D01*
X135714286Y-95858333D01*
X135761905Y-95667857D01*
X135809524Y-95572619D01*
X135857143Y-95525000D01*
X135952381Y-95477381D01*
X131912381Y-95477381D02*
X132531429Y-95477381D01*
X132198095Y-95858333D01*
X132340953Y-95858333D01*
X132436191Y-95905952D01*
X132483810Y-95953571D01*
X132531429Y-96048810D01*
X132531429Y-96286905D01*
X132483810Y-96382143D01*
X132436191Y-96429762D01*
X132340953Y-96477381D01*
X132055238Y-96477381D01*
X131960000Y-96429762D01*
X131912381Y-96382143D01*
X132960000Y-96382143D02*
X133007619Y-96429762D01*
X132960000Y-96477381D01*
X132912381Y-96429762D01*
X132960000Y-96382143D01*
X132960000Y-96477381D01*
X133340952Y-95477381D02*
X133960000Y-95477381D01*
X133626666Y-95858333D01*
X133769524Y-95858333D01*
X133864762Y-95905952D01*
X133912381Y-95953571D01*
X133960000Y-96048810D01*
X133960000Y-96286905D01*
X133912381Y-96382143D01*
X133864762Y-96429762D01*
X133769524Y-96477381D01*
X133483809Y-96477381D01*
X133388571Y-96429762D01*
X133340952Y-96382143D01*
X122323809Y-95477381D02*
X122419048Y-95477381D01*
X122514286Y-95525000D01*
X122561905Y-95572619D01*
X122609524Y-95667857D01*
X122657143Y-95858333D01*
X122657143Y-96096429D01*
X122609524Y-96286905D01*
X122561905Y-96382143D01*
X122514286Y-96429762D01*
X122419048Y-96477381D01*
X122323809Y-96477381D01*
X122228571Y-96429762D01*
X122180952Y-96382143D01*
X122133333Y-96286905D01*
X122085714Y-96096429D01*
X122085714Y-95858333D01*
X122133333Y-95667857D01*
X122180952Y-95572619D01*
X122228571Y-95525000D01*
X122323809Y-95477381D01*
X122942857Y-95477381D02*
X123276190Y-96477381D01*
X123609524Y-95477381D01*
X114465714Y-96191667D02*
X114941905Y-96191667D01*
X114370476Y-96477381D02*
X114703809Y-95477381D01*
X115037143Y-96477381D01*
X115560952Y-95477381D02*
X115656191Y-95477381D01*
X115751429Y-95525000D01*
X115799048Y-95572619D01*
X115846667Y-95667857D01*
X115894286Y-95858333D01*
X115894286Y-96096429D01*
X115846667Y-96286905D01*
X115799048Y-96382143D01*
X115751429Y-96429762D01*
X115656191Y-96477381D01*
X115560952Y-96477381D01*
X115465714Y-96429762D01*
X115418095Y-96382143D01*
X115370476Y-96286905D01*
X115322857Y-96096429D01*
X115322857Y-95858333D01*
X115370476Y-95667857D01*
X115418095Y-95572619D01*
X115465714Y-95525000D01*
X115560952Y-95477381D01*
M02*
