G04 #@! TF.FileFunction,Legend,Bot*
%FSLAX46Y46*%
G04 Gerber Fmt 4.6, Leading zero omitted, Abs format (unit mm)*
G04 Created by KiCad (PCBNEW 4.0.6) date Monday, June 05, 2017 'PMt' 08:11:22 PM*
%MOMM*%
%LPD*%
G01*
G04 APERTURE LIST*
%ADD10C,0.100000*%
%ADD11C,0.300000*%
G04 APERTURE END LIST*
D10*
D11*
X183119527Y-102473333D02*
X182167146Y-102473333D01*
X183310003Y-103044762D02*
X182643336Y-101044762D01*
X181976669Y-103044762D01*
X180452860Y-102949524D02*
X180643336Y-103044762D01*
X181024288Y-103044762D01*
X181214764Y-102949524D01*
X181310003Y-102854286D01*
X181405241Y-102663810D01*
X181405241Y-102092381D01*
X181310003Y-101901905D01*
X181214764Y-101806667D01*
X181024288Y-101711429D01*
X180643336Y-101711429D01*
X180452860Y-101806667D01*
X179310002Y-103044762D02*
X179500478Y-102949524D01*
X179595717Y-102854286D01*
X179690955Y-102663810D01*
X179690955Y-102092381D01*
X179595717Y-101901905D01*
X179500478Y-101806667D01*
X179310002Y-101711429D01*
X179024288Y-101711429D01*
X178833812Y-101806667D01*
X178738574Y-101901905D01*
X178643336Y-102092381D01*
X178643336Y-102663810D01*
X178738574Y-102854286D01*
X178833812Y-102949524D01*
X179024288Y-103044762D01*
X179310002Y-103044762D01*
X177786193Y-103044762D02*
X177786193Y-101711429D01*
X177786193Y-102092381D02*
X177690954Y-101901905D01*
X177595716Y-101806667D01*
X177405240Y-101711429D01*
X177214764Y-101711429D01*
X176548098Y-101711429D02*
X176548098Y-103044762D01*
X176548098Y-101901905D02*
X176452859Y-101806667D01*
X176262383Y-101711429D01*
X175976669Y-101711429D01*
X175786193Y-101806667D01*
X175690955Y-101997143D01*
X175690955Y-103044762D01*
X173214764Y-101997143D02*
X172548097Y-101997143D01*
X172262383Y-103044762D02*
X173214764Y-103044762D01*
X173214764Y-101044762D01*
X172262383Y-101044762D01*
X171119525Y-103044762D02*
X171310001Y-102949524D01*
X171405240Y-102759048D01*
X171405240Y-101044762D01*
X169595716Y-102949524D02*
X169786192Y-103044762D01*
X170167144Y-103044762D01*
X170357621Y-102949524D01*
X170452859Y-102759048D01*
X170452859Y-101997143D01*
X170357621Y-101806667D01*
X170167144Y-101711429D01*
X169786192Y-101711429D01*
X169595716Y-101806667D01*
X169500478Y-101997143D01*
X169500478Y-102187619D01*
X170452859Y-102378095D01*
X167786192Y-102949524D02*
X167976668Y-103044762D01*
X168357620Y-103044762D01*
X168548096Y-102949524D01*
X168643335Y-102854286D01*
X168738573Y-102663810D01*
X168738573Y-102092381D01*
X168643335Y-101901905D01*
X168548096Y-101806667D01*
X168357620Y-101711429D01*
X167976668Y-101711429D01*
X167786192Y-101806667D01*
X167214763Y-101711429D02*
X166452858Y-101711429D01*
X166929049Y-101044762D02*
X166929049Y-102759048D01*
X166833810Y-102949524D01*
X166643334Y-103044762D01*
X166452858Y-103044762D01*
X165786192Y-103044762D02*
X165786192Y-101711429D01*
X165786192Y-102092381D02*
X165690953Y-101901905D01*
X165595715Y-101806667D01*
X165405239Y-101711429D01*
X165214763Y-101711429D01*
X164262382Y-103044762D02*
X164452858Y-102949524D01*
X164548097Y-102854286D01*
X164643335Y-102663810D01*
X164643335Y-102092381D01*
X164548097Y-101901905D01*
X164452858Y-101806667D01*
X164262382Y-101711429D01*
X163976668Y-101711429D01*
X163786192Y-101806667D01*
X163690954Y-101901905D01*
X163595716Y-102092381D01*
X163595716Y-102663810D01*
X163690954Y-102854286D01*
X163786192Y-102949524D01*
X163976668Y-103044762D01*
X164262382Y-103044762D01*
X162738573Y-101711429D02*
X162738573Y-103044762D01*
X162738573Y-101901905D02*
X162643334Y-101806667D01*
X162452858Y-101711429D01*
X162167144Y-101711429D01*
X161976668Y-101806667D01*
X161881430Y-101997143D01*
X161881430Y-103044762D01*
X159500477Y-102473333D02*
X158548096Y-102473333D01*
X159690953Y-103044762D02*
X159024286Y-101044762D01*
X158357619Y-103044762D01*
X157690953Y-103044762D02*
X157690953Y-101044762D01*
X156548095Y-103044762D01*
X156548095Y-101044762D01*
X154548095Y-103044762D02*
X155690953Y-103044762D01*
X155119524Y-103044762D02*
X155119524Y-101044762D01*
X155310000Y-101330476D01*
X155500476Y-101520952D01*
X155690953Y-101616190D01*
X152738572Y-101044762D02*
X153690953Y-101044762D01*
X153786191Y-101997143D01*
X153690953Y-101901905D01*
X153500476Y-101806667D01*
X153024286Y-101806667D01*
X152833810Y-101901905D01*
X152738572Y-101997143D01*
X152643333Y-102187619D01*
X152643333Y-102663810D01*
X152738572Y-102854286D01*
X152833810Y-102949524D01*
X153024286Y-103044762D01*
X153500476Y-103044762D01*
X153690953Y-102949524D01*
X153786191Y-102854286D01*
X150262381Y-101997143D02*
X149595714Y-101997143D01*
X149310000Y-103044762D02*
X150262381Y-103044762D01*
X150262381Y-101044762D01*
X149310000Y-101044762D01*
X148643333Y-103044762D02*
X147595714Y-101711429D01*
X148643333Y-101711429D02*
X147595714Y-103044762D01*
X146833809Y-101711429D02*
X146833809Y-103711429D01*
X146833809Y-101806667D02*
X146643332Y-101711429D01*
X146262380Y-101711429D01*
X146071904Y-101806667D01*
X145976666Y-101901905D01*
X145881428Y-102092381D01*
X145881428Y-102663810D01*
X145976666Y-102854286D01*
X146071904Y-102949524D01*
X146262380Y-103044762D01*
X146643332Y-103044762D01*
X146833809Y-102949524D01*
X144167142Y-103044762D02*
X144167142Y-101997143D01*
X144262380Y-101806667D01*
X144452856Y-101711429D01*
X144833808Y-101711429D01*
X145024285Y-101806667D01*
X144167142Y-102949524D02*
X144357618Y-103044762D01*
X144833808Y-103044762D01*
X145024285Y-102949524D01*
X145119523Y-102759048D01*
X145119523Y-102568571D01*
X145024285Y-102378095D01*
X144833808Y-102282857D01*
X144357618Y-102282857D01*
X144167142Y-102187619D01*
X143214761Y-101711429D02*
X143214761Y-103044762D01*
X143214761Y-101901905D02*
X143119522Y-101806667D01*
X142929046Y-101711429D01*
X142643332Y-101711429D01*
X142452856Y-101806667D01*
X142357618Y-101997143D01*
X142357618Y-103044762D01*
X141500475Y-102949524D02*
X141309998Y-103044762D01*
X140929046Y-103044762D01*
X140738570Y-102949524D01*
X140643332Y-102759048D01*
X140643332Y-102663810D01*
X140738570Y-102473333D01*
X140929046Y-102378095D01*
X141214760Y-102378095D01*
X141405237Y-102282857D01*
X141500475Y-102092381D01*
X141500475Y-101997143D01*
X141405237Y-101806667D01*
X141214760Y-101711429D01*
X140929046Y-101711429D01*
X140738570Y-101806667D01*
X139786189Y-103044762D02*
X139786189Y-101711429D01*
X139786189Y-101044762D02*
X139881427Y-101140000D01*
X139786189Y-101235238D01*
X139690950Y-101140000D01*
X139786189Y-101044762D01*
X139786189Y-101235238D01*
X138548093Y-103044762D02*
X138738569Y-102949524D01*
X138833808Y-102854286D01*
X138929046Y-102663810D01*
X138929046Y-102092381D01*
X138833808Y-101901905D01*
X138738569Y-101806667D01*
X138548093Y-101711429D01*
X138262379Y-101711429D01*
X138071903Y-101806667D01*
X137976665Y-101901905D01*
X137881427Y-102092381D01*
X137881427Y-102663810D01*
X137976665Y-102854286D01*
X138071903Y-102949524D01*
X138262379Y-103044762D01*
X138548093Y-103044762D01*
X137024284Y-101711429D02*
X137024284Y-103044762D01*
X137024284Y-101901905D02*
X136929045Y-101806667D01*
X136738569Y-101711429D01*
X136452855Y-101711429D01*
X136262379Y-101806667D01*
X136167141Y-101997143D01*
X136167141Y-103044762D01*
X132548092Y-102854286D02*
X132643330Y-102949524D01*
X132929045Y-103044762D01*
X133119521Y-103044762D01*
X133405235Y-102949524D01*
X133595711Y-102759048D01*
X133690950Y-102568571D01*
X133786188Y-102187619D01*
X133786188Y-101901905D01*
X133690950Y-101520952D01*
X133595711Y-101330476D01*
X133405235Y-101140000D01*
X133119521Y-101044762D01*
X132929045Y-101044762D01*
X132643330Y-101140000D01*
X132548092Y-101235238D01*
X131405235Y-103044762D02*
X131595711Y-102949524D01*
X131690950Y-102854286D01*
X131786188Y-102663810D01*
X131786188Y-102092381D01*
X131690950Y-101901905D01*
X131595711Y-101806667D01*
X131405235Y-101711429D01*
X131119521Y-101711429D01*
X130929045Y-101806667D01*
X130833807Y-101901905D01*
X130738569Y-102092381D01*
X130738569Y-102663810D01*
X130833807Y-102854286D01*
X130929045Y-102949524D01*
X131119521Y-103044762D01*
X131405235Y-103044762D01*
X129881426Y-101711429D02*
X129881426Y-103044762D01*
X129881426Y-101901905D02*
X129786187Y-101806667D01*
X129595711Y-101711429D01*
X129309997Y-101711429D01*
X129119521Y-101806667D01*
X129024283Y-101997143D01*
X129024283Y-103044762D01*
X128071902Y-101711429D02*
X128071902Y-103044762D01*
X128071902Y-101901905D02*
X127976663Y-101806667D01*
X127786187Y-101711429D01*
X127500473Y-101711429D01*
X127309997Y-101806667D01*
X127214759Y-101997143D01*
X127214759Y-103044762D01*
X125500473Y-102949524D02*
X125690949Y-103044762D01*
X126071901Y-103044762D01*
X126262378Y-102949524D01*
X126357616Y-102759048D01*
X126357616Y-101997143D01*
X126262378Y-101806667D01*
X126071901Y-101711429D01*
X125690949Y-101711429D01*
X125500473Y-101806667D01*
X125405235Y-101997143D01*
X125405235Y-102187619D01*
X126357616Y-102378095D01*
X123690949Y-102949524D02*
X123881425Y-103044762D01*
X124262377Y-103044762D01*
X124452853Y-102949524D01*
X124548092Y-102854286D01*
X124643330Y-102663810D01*
X124643330Y-102092381D01*
X124548092Y-101901905D01*
X124452853Y-101806667D01*
X124262377Y-101711429D01*
X123881425Y-101711429D01*
X123690949Y-101806667D01*
X123119520Y-101711429D02*
X122357615Y-101711429D01*
X122833806Y-101044762D02*
X122833806Y-102759048D01*
X122738567Y-102949524D01*
X122548091Y-103044762D01*
X122357615Y-103044762D01*
X121405234Y-103044762D02*
X121595710Y-102949524D01*
X121690949Y-102854286D01*
X121786187Y-102663810D01*
X121786187Y-102092381D01*
X121690949Y-101901905D01*
X121595710Y-101806667D01*
X121405234Y-101711429D01*
X121119520Y-101711429D01*
X120929044Y-101806667D01*
X120833806Y-101901905D01*
X120738568Y-102092381D01*
X120738568Y-102663810D01*
X120833806Y-102854286D01*
X120929044Y-102949524D01*
X121119520Y-103044762D01*
X121405234Y-103044762D01*
X119881425Y-103044762D02*
X119881425Y-101711429D01*
X119881425Y-102092381D02*
X119786186Y-101901905D01*
X119690948Y-101806667D01*
X119500472Y-101711429D01*
X119309996Y-101711429D01*
X168500478Y-106344762D02*
X168500478Y-104344762D01*
X168500478Y-106249524D02*
X168690954Y-106344762D01*
X169071906Y-106344762D01*
X169262382Y-106249524D01*
X169357621Y-106154286D01*
X169452859Y-105963810D01*
X169452859Y-105392381D01*
X169357621Y-105201905D01*
X169262382Y-105106667D01*
X169071906Y-105011429D01*
X168690954Y-105011429D01*
X168500478Y-105106667D01*
X166786192Y-106249524D02*
X166976668Y-106344762D01*
X167357620Y-106344762D01*
X167548097Y-106249524D01*
X167643335Y-106059048D01*
X167643335Y-105297143D01*
X167548097Y-105106667D01*
X167357620Y-105011429D01*
X166976668Y-105011429D01*
X166786192Y-105106667D01*
X166690954Y-105297143D01*
X166690954Y-105487619D01*
X167643335Y-105678095D01*
X165833811Y-106344762D02*
X165833811Y-104344762D01*
X165833811Y-105106667D02*
X165643334Y-105011429D01*
X165262382Y-105011429D01*
X165071906Y-105106667D01*
X164976668Y-105201905D01*
X164881430Y-105392381D01*
X164881430Y-105963810D01*
X164976668Y-106154286D01*
X165071906Y-106249524D01*
X165262382Y-106344762D01*
X165643334Y-106344762D01*
X165833811Y-106249524D01*
X163167144Y-105011429D02*
X163167144Y-106344762D01*
X164024287Y-105011429D02*
X164024287Y-106059048D01*
X163929048Y-106249524D01*
X163738572Y-106344762D01*
X163452858Y-106344762D01*
X163262382Y-106249524D01*
X163167144Y-106154286D01*
X161357620Y-105011429D02*
X161357620Y-106630476D01*
X161452858Y-106820952D01*
X161548096Y-106916190D01*
X161738572Y-107011429D01*
X162024286Y-107011429D01*
X162214763Y-106916190D01*
X161357620Y-106249524D02*
X161548096Y-106344762D01*
X161929048Y-106344762D01*
X162119524Y-106249524D01*
X162214763Y-106154286D01*
X162310001Y-105963810D01*
X162310001Y-105392381D01*
X162214763Y-105201905D01*
X162119524Y-105106667D01*
X161929048Y-105011429D01*
X161548096Y-105011429D01*
X161357620Y-105106667D01*
X157452857Y-104249524D02*
X159167143Y-106820952D01*
X155262381Y-106344762D02*
X155262381Y-104344762D01*
X155262381Y-105106667D02*
X155071904Y-105011429D01*
X154690952Y-105011429D01*
X154500476Y-105106667D01*
X154405238Y-105201905D01*
X154310000Y-105392381D01*
X154310000Y-105963810D01*
X154405238Y-106154286D01*
X154500476Y-106249524D01*
X154690952Y-106344762D01*
X155071904Y-106344762D01*
X155262381Y-106249524D01*
X153452857Y-106344762D02*
X153452857Y-105011429D01*
X153452857Y-105392381D02*
X153357618Y-105201905D01*
X153262380Y-105106667D01*
X153071904Y-105011429D01*
X152881428Y-105011429D01*
X151452857Y-106249524D02*
X151643333Y-106344762D01*
X152024285Y-106344762D01*
X152214762Y-106249524D01*
X152310000Y-106059048D01*
X152310000Y-105297143D01*
X152214762Y-105106667D01*
X152024285Y-105011429D01*
X151643333Y-105011429D01*
X151452857Y-105106667D01*
X151357619Y-105297143D01*
X151357619Y-105487619D01*
X152310000Y-105678095D01*
X149643333Y-106344762D02*
X149643333Y-105297143D01*
X149738571Y-105106667D01*
X149929047Y-105011429D01*
X150309999Y-105011429D01*
X150500476Y-105106667D01*
X149643333Y-106249524D02*
X149833809Y-106344762D01*
X150309999Y-106344762D01*
X150500476Y-106249524D01*
X150595714Y-106059048D01*
X150595714Y-105868571D01*
X150500476Y-105678095D01*
X150309999Y-105582857D01*
X149833809Y-105582857D01*
X149643333Y-105487619D01*
X148690952Y-106344762D02*
X148690952Y-104344762D01*
X148500475Y-105582857D02*
X147929047Y-106344762D01*
X147929047Y-105011429D02*
X148690952Y-105773333D01*
X146786189Y-106344762D02*
X146976665Y-106249524D01*
X147071904Y-106154286D01*
X147167142Y-105963810D01*
X147167142Y-105392381D01*
X147071904Y-105201905D01*
X146976665Y-105106667D01*
X146786189Y-105011429D01*
X146500475Y-105011429D01*
X146309999Y-105106667D01*
X146214761Y-105201905D01*
X146119523Y-105392381D01*
X146119523Y-105963810D01*
X146214761Y-106154286D01*
X146309999Y-106249524D01*
X146500475Y-106344762D01*
X146786189Y-106344762D01*
X144405237Y-105011429D02*
X144405237Y-106344762D01*
X145262380Y-105011429D02*
X145262380Y-106059048D01*
X145167141Y-106249524D01*
X144976665Y-106344762D01*
X144690951Y-106344762D01*
X144500475Y-106249524D01*
X144405237Y-106154286D01*
X143738570Y-105011429D02*
X142976665Y-105011429D01*
X143452856Y-104344762D02*
X143452856Y-106059048D01*
X143357617Y-106249524D01*
X143167141Y-106344762D01*
X142976665Y-106344762D01*
X140786189Y-106344762D02*
X140786189Y-104344762D01*
X140786189Y-105106667D02*
X140595712Y-105011429D01*
X140214760Y-105011429D01*
X140024284Y-105106667D01*
X139929046Y-105201905D01*
X139833808Y-105392381D01*
X139833808Y-105963810D01*
X139929046Y-106154286D01*
X140024284Y-106249524D01*
X140214760Y-106344762D01*
X140595712Y-106344762D01*
X140786189Y-106249524D01*
X138690950Y-106344762D02*
X138881426Y-106249524D01*
X138976665Y-106154286D01*
X139071903Y-105963810D01*
X139071903Y-105392381D01*
X138976665Y-105201905D01*
X138881426Y-105106667D01*
X138690950Y-105011429D01*
X138405236Y-105011429D01*
X138214760Y-105106667D01*
X138119522Y-105201905D01*
X138024284Y-105392381D01*
X138024284Y-105963810D01*
X138119522Y-106154286D01*
X138214760Y-106249524D01*
X138405236Y-106344762D01*
X138690950Y-106344762D01*
X136309998Y-106344762D02*
X136309998Y-105297143D01*
X136405236Y-105106667D01*
X136595712Y-105011429D01*
X136976664Y-105011429D01*
X137167141Y-105106667D01*
X136309998Y-106249524D02*
X136500474Y-106344762D01*
X136976664Y-106344762D01*
X137167141Y-106249524D01*
X137262379Y-106059048D01*
X137262379Y-105868571D01*
X137167141Y-105678095D01*
X136976664Y-105582857D01*
X136500474Y-105582857D01*
X136309998Y-105487619D01*
X135357617Y-106344762D02*
X135357617Y-105011429D01*
X135357617Y-105392381D02*
X135262378Y-105201905D01*
X135167140Y-105106667D01*
X134976664Y-105011429D01*
X134786188Y-105011429D01*
X133262379Y-106344762D02*
X133262379Y-104344762D01*
X133262379Y-106249524D02*
X133452855Y-106344762D01*
X133833807Y-106344762D01*
X134024283Y-106249524D01*
X134119522Y-106154286D01*
X134214760Y-105963810D01*
X134214760Y-105392381D01*
X134119522Y-105201905D01*
X134024283Y-105106667D01*
X133833807Y-105011429D01*
X133452855Y-105011429D01*
X133262379Y-105106667D01*
X186167147Y-112944762D02*
X186167147Y-110944762D01*
X185690956Y-110944762D01*
X185405242Y-111040000D01*
X185214766Y-111230476D01*
X185119527Y-111420952D01*
X185024289Y-111801905D01*
X185024289Y-112087619D01*
X185119527Y-112468571D01*
X185214766Y-112659048D01*
X185405242Y-112849524D01*
X185690956Y-112944762D01*
X186167147Y-112944762D01*
X183405242Y-112849524D02*
X183595718Y-112944762D01*
X183976670Y-112944762D01*
X184167147Y-112849524D01*
X184262385Y-112659048D01*
X184262385Y-111897143D01*
X184167147Y-111706667D01*
X183976670Y-111611429D01*
X183595718Y-111611429D01*
X183405242Y-111706667D01*
X183310004Y-111897143D01*
X183310004Y-112087619D01*
X184262385Y-112278095D01*
X182548099Y-112849524D02*
X182357622Y-112944762D01*
X181976670Y-112944762D01*
X181786194Y-112849524D01*
X181690956Y-112659048D01*
X181690956Y-112563810D01*
X181786194Y-112373333D01*
X181976670Y-112278095D01*
X182262384Y-112278095D01*
X182452861Y-112182857D01*
X182548099Y-111992381D01*
X182548099Y-111897143D01*
X182452861Y-111706667D01*
X182262384Y-111611429D01*
X181976670Y-111611429D01*
X181786194Y-111706667D01*
X180833813Y-112944762D02*
X180833813Y-111611429D01*
X180833813Y-110944762D02*
X180929051Y-111040000D01*
X180833813Y-111135238D01*
X180738574Y-111040000D01*
X180833813Y-110944762D01*
X180833813Y-111135238D01*
X179024289Y-111611429D02*
X179024289Y-113230476D01*
X179119527Y-113420952D01*
X179214765Y-113516190D01*
X179405241Y-113611429D01*
X179690955Y-113611429D01*
X179881432Y-113516190D01*
X179024289Y-112849524D02*
X179214765Y-112944762D01*
X179595717Y-112944762D01*
X179786193Y-112849524D01*
X179881432Y-112754286D01*
X179976670Y-112563810D01*
X179976670Y-111992381D01*
X179881432Y-111801905D01*
X179786193Y-111706667D01*
X179595717Y-111611429D01*
X179214765Y-111611429D01*
X179024289Y-111706667D01*
X178071908Y-111611429D02*
X178071908Y-112944762D01*
X178071908Y-111801905D02*
X177976669Y-111706667D01*
X177786193Y-111611429D01*
X177500479Y-111611429D01*
X177310003Y-111706667D01*
X177214765Y-111897143D01*
X177214765Y-112944762D01*
X174738574Y-112944762D02*
X174738574Y-110944762D01*
X174738574Y-111706667D02*
X174548097Y-111611429D01*
X174167145Y-111611429D01*
X173976669Y-111706667D01*
X173881431Y-111801905D01*
X173786193Y-111992381D01*
X173786193Y-112563810D01*
X173881431Y-112754286D01*
X173976669Y-112849524D01*
X174167145Y-112944762D01*
X174548097Y-112944762D01*
X174738574Y-112849524D01*
X173119526Y-111611429D02*
X172643335Y-112944762D01*
X172167145Y-111611429D02*
X172643335Y-112944762D01*
X172833811Y-113420952D01*
X172929050Y-113516190D01*
X173119526Y-113611429D01*
X169881430Y-112944762D02*
X169881430Y-110944762D01*
X169119525Y-110944762D01*
X168929049Y-111040000D01*
X168833810Y-111135238D01*
X168738572Y-111325714D01*
X168738572Y-111611429D01*
X168833810Y-111801905D01*
X168929049Y-111897143D01*
X169119525Y-111992381D01*
X169881430Y-111992381D01*
X167881430Y-112944762D02*
X167881430Y-110944762D01*
X167024287Y-112944762D02*
X167024287Y-111897143D01*
X167119525Y-111706667D01*
X167310001Y-111611429D01*
X167595715Y-111611429D01*
X167786191Y-111706667D01*
X167881430Y-111801905D01*
X166071906Y-112944762D02*
X166071906Y-111611429D01*
X166071906Y-110944762D02*
X166167144Y-111040000D01*
X166071906Y-111135238D01*
X165976667Y-111040000D01*
X166071906Y-110944762D01*
X166071906Y-111135238D01*
X164833810Y-112944762D02*
X165024286Y-112849524D01*
X165119525Y-112659048D01*
X165119525Y-110944762D01*
X163786191Y-112944762D02*
X163976667Y-112849524D01*
X164071906Y-112659048D01*
X164071906Y-110944762D01*
X163024287Y-112944762D02*
X163024287Y-111611429D01*
X163024287Y-110944762D02*
X163119525Y-111040000D01*
X163024287Y-111135238D01*
X162929048Y-111040000D01*
X163024287Y-110944762D01*
X163024287Y-111135238D01*
X162071906Y-111611429D02*
X162071906Y-113611429D01*
X162071906Y-111706667D02*
X161881429Y-111611429D01*
X161500477Y-111611429D01*
X161310001Y-111706667D01*
X161214763Y-111801905D01*
X161119525Y-111992381D01*
X161119525Y-112563810D01*
X161214763Y-112754286D01*
X161310001Y-112849524D01*
X161500477Y-112944762D01*
X161881429Y-112944762D01*
X162071906Y-112849524D01*
X158738572Y-112944762D02*
X158738572Y-110944762D01*
X157976667Y-110944762D01*
X157786191Y-111040000D01*
X157690952Y-111135238D01*
X157595714Y-111325714D01*
X157595714Y-111611429D01*
X157690952Y-111801905D01*
X157786191Y-111897143D01*
X157976667Y-111992381D01*
X158738572Y-111992381D01*
X155976667Y-112849524D02*
X156167143Y-112944762D01*
X156548095Y-112944762D01*
X156738572Y-112849524D01*
X156833810Y-112659048D01*
X156833810Y-111897143D01*
X156738572Y-111706667D01*
X156548095Y-111611429D01*
X156167143Y-111611429D01*
X155976667Y-111706667D01*
X155881429Y-111897143D01*
X155881429Y-112087619D01*
X156833810Y-112278095D01*
X154167143Y-112944762D02*
X154167143Y-111897143D01*
X154262381Y-111706667D01*
X154452857Y-111611429D01*
X154833809Y-111611429D01*
X155024286Y-111706667D01*
X154167143Y-112849524D02*
X154357619Y-112944762D01*
X154833809Y-112944762D01*
X155024286Y-112849524D01*
X155119524Y-112659048D01*
X155119524Y-112468571D01*
X155024286Y-112278095D01*
X154833809Y-112182857D01*
X154357619Y-112182857D01*
X154167143Y-112087619D01*
X153214762Y-112944762D02*
X153214762Y-111611429D01*
X153214762Y-111992381D02*
X153119523Y-111801905D01*
X153024285Y-111706667D01*
X152833809Y-111611429D01*
X152643333Y-111611429D01*
X152071905Y-112849524D02*
X151881428Y-112944762D01*
X151500476Y-112944762D01*
X151310000Y-112849524D01*
X151214762Y-112659048D01*
X151214762Y-112563810D01*
X151310000Y-112373333D01*
X151500476Y-112278095D01*
X151786190Y-112278095D01*
X151976667Y-112182857D01*
X152071905Y-111992381D01*
X152071905Y-111897143D01*
X151976667Y-111706667D01*
X151786190Y-111611429D01*
X151500476Y-111611429D01*
X151310000Y-111706667D01*
X150071904Y-112944762D02*
X150262380Y-112849524D01*
X150357619Y-112754286D01*
X150452857Y-112563810D01*
X150452857Y-111992381D01*
X150357619Y-111801905D01*
X150262380Y-111706667D01*
X150071904Y-111611429D01*
X149786190Y-111611429D01*
X149595714Y-111706667D01*
X149500476Y-111801905D01*
X149405238Y-111992381D01*
X149405238Y-112563810D01*
X149500476Y-112754286D01*
X149595714Y-112849524D01*
X149786190Y-112944762D01*
X150071904Y-112944762D01*
X148548095Y-111611429D02*
X148548095Y-112944762D01*
X148548095Y-111801905D02*
X148452856Y-111706667D01*
X148262380Y-111611429D01*
X147976666Y-111611429D01*
X147786190Y-111706667D01*
X147690952Y-111897143D01*
X147690952Y-112944762D01*
X143690951Y-111611429D02*
X145214761Y-112182857D01*
X143690951Y-112754286D01*
X142738571Y-111611429D02*
X142738571Y-113611429D01*
X142738571Y-111706667D02*
X142548094Y-111611429D01*
X142167142Y-111611429D01*
X141976666Y-111706667D01*
X141881428Y-111801905D01*
X141786190Y-111992381D01*
X141786190Y-112563810D01*
X141881428Y-112754286D01*
X141976666Y-112849524D01*
X142167142Y-112944762D01*
X142548094Y-112944762D01*
X142738571Y-112849524D01*
X140929047Y-111611429D02*
X140929047Y-113611429D01*
X140929047Y-111706667D02*
X140738570Y-111611429D01*
X140357618Y-111611429D01*
X140167142Y-111706667D01*
X140071904Y-111801905D01*
X139976666Y-111992381D01*
X139976666Y-112563810D01*
X140071904Y-112754286D01*
X140167142Y-112849524D01*
X140357618Y-112944762D01*
X140738570Y-112944762D01*
X140929047Y-112849524D01*
X137881427Y-111992381D02*
X137976665Y-111897143D01*
X138167142Y-111801905D01*
X138357618Y-111801905D01*
X138548094Y-111897143D01*
X138643332Y-111992381D01*
X138738570Y-112182857D01*
X138738570Y-112373333D01*
X138643332Y-112563810D01*
X138548094Y-112659048D01*
X138357618Y-112754286D01*
X138167142Y-112754286D01*
X137976665Y-112659048D01*
X137881427Y-112563810D01*
X137881427Y-111801905D02*
X137881427Y-112563810D01*
X137786189Y-112659048D01*
X137690951Y-112659048D01*
X137500475Y-112563810D01*
X137405237Y-112373333D01*
X137405237Y-111897143D01*
X137595713Y-111611429D01*
X137881427Y-111420952D01*
X138262380Y-111325714D01*
X138643332Y-111420952D01*
X138929046Y-111611429D01*
X139119523Y-111897143D01*
X139214761Y-112278095D01*
X139119523Y-112659048D01*
X138929046Y-112944762D01*
X138643332Y-113135238D01*
X138262380Y-113230476D01*
X137881427Y-113135238D01*
X137595713Y-112944762D01*
X136548094Y-112944762D02*
X136548094Y-111611429D01*
X136548094Y-111801905D02*
X136452855Y-111706667D01*
X136262379Y-111611429D01*
X135976665Y-111611429D01*
X135786189Y-111706667D01*
X135690951Y-111897143D01*
X135690951Y-112944762D01*
X135690951Y-111897143D02*
X135595713Y-111706667D01*
X135405236Y-111611429D01*
X135119522Y-111611429D01*
X134929046Y-111706667D01*
X134833808Y-111897143D01*
X134833808Y-112944762D01*
X134071903Y-111611429D02*
X133595712Y-112944762D01*
X133119522Y-111611429D02*
X133595712Y-112944762D01*
X133786188Y-113420952D01*
X133881427Y-113516190D01*
X134071903Y-113611429D01*
X131595712Y-112849524D02*
X131786188Y-112944762D01*
X132167140Y-112944762D01*
X132357617Y-112849524D01*
X132452855Y-112659048D01*
X132452855Y-111897143D01*
X132357617Y-111706667D01*
X132167140Y-111611429D01*
X131786188Y-111611429D01*
X131595712Y-111706667D01*
X131500474Y-111897143D01*
X131500474Y-112087619D01*
X132452855Y-112278095D01*
X130357616Y-112944762D02*
X130548092Y-112849524D01*
X130643331Y-112659048D01*
X130643331Y-110944762D01*
X129595712Y-112944762D02*
X129595712Y-111611429D01*
X129595712Y-110944762D02*
X129690950Y-111040000D01*
X129595712Y-111135238D01*
X129500473Y-111040000D01*
X129595712Y-110944762D01*
X129595712Y-111135238D01*
X128643331Y-111611429D02*
X128643331Y-112944762D01*
X128643331Y-111801905D02*
X128548092Y-111706667D01*
X128357616Y-111611429D01*
X128071902Y-111611429D01*
X127881426Y-111706667D01*
X127786188Y-111897143D01*
X127786188Y-112944762D01*
X126833807Y-112754286D02*
X126738568Y-112849524D01*
X126833807Y-112944762D01*
X126929045Y-112849524D01*
X126833807Y-112754286D01*
X126833807Y-112944762D01*
X125024283Y-112849524D02*
X125214759Y-112944762D01*
X125595711Y-112944762D01*
X125786187Y-112849524D01*
X125881426Y-112754286D01*
X125976664Y-112563810D01*
X125976664Y-111992381D01*
X125881426Y-111801905D01*
X125786187Y-111706667D01*
X125595711Y-111611429D01*
X125214759Y-111611429D01*
X125024283Y-111706667D01*
X123881425Y-112944762D02*
X124071901Y-112849524D01*
X124167140Y-112754286D01*
X124262378Y-112563810D01*
X124262378Y-111992381D01*
X124167140Y-111801905D01*
X124071901Y-111706667D01*
X123881425Y-111611429D01*
X123595711Y-111611429D01*
X123405235Y-111706667D01*
X123309997Y-111801905D01*
X123214759Y-111992381D01*
X123214759Y-112563810D01*
X123309997Y-112754286D01*
X123405235Y-112849524D01*
X123595711Y-112944762D01*
X123881425Y-112944762D01*
X122357616Y-112754286D02*
X122262377Y-112849524D01*
X122357616Y-112944762D01*
X122452854Y-112849524D01*
X122357616Y-112754286D01*
X122357616Y-112944762D01*
X121405235Y-111611429D02*
X121405235Y-112944762D01*
X121405235Y-111801905D02*
X121309996Y-111706667D01*
X121119520Y-111611429D01*
X120833806Y-111611429D01*
X120643330Y-111706667D01*
X120548092Y-111897143D01*
X120548092Y-112944762D01*
X119786187Y-111611429D02*
X118738568Y-111611429D01*
X119786187Y-112944762D01*
X118738568Y-112944762D01*
X117976663Y-111611429D02*
X116452853Y-112182857D01*
X117976663Y-112754286D01*
X170167144Y-116054286D02*
X170262382Y-116149524D01*
X170548097Y-116244762D01*
X170738573Y-116244762D01*
X171024287Y-116149524D01*
X171214763Y-115959048D01*
X171310002Y-115768571D01*
X171405240Y-115387619D01*
X171405240Y-115101905D01*
X171310002Y-114720952D01*
X171214763Y-114530476D01*
X171024287Y-114340000D01*
X170738573Y-114244762D01*
X170548097Y-114244762D01*
X170262382Y-114340000D01*
X170167144Y-114435238D01*
X169024287Y-116244762D02*
X169214763Y-116149524D01*
X169310002Y-116054286D01*
X169405240Y-115863810D01*
X169405240Y-115292381D01*
X169310002Y-115101905D01*
X169214763Y-115006667D01*
X169024287Y-114911429D01*
X168738573Y-114911429D01*
X168548097Y-115006667D01*
X168452859Y-115101905D01*
X168357621Y-115292381D01*
X168357621Y-115863810D01*
X168452859Y-116054286D01*
X168548097Y-116149524D01*
X168738573Y-116244762D01*
X169024287Y-116244762D01*
X167500478Y-114911429D02*
X167500478Y-116911429D01*
X167500478Y-115006667D02*
X167310001Y-114911429D01*
X166929049Y-114911429D01*
X166738573Y-115006667D01*
X166643335Y-115101905D01*
X166548097Y-115292381D01*
X166548097Y-115863810D01*
X166643335Y-116054286D01*
X166738573Y-116149524D01*
X166929049Y-116244762D01*
X167310001Y-116244762D01*
X167500478Y-116149524D01*
X165881430Y-114911429D02*
X165405239Y-116244762D01*
X164929049Y-114911429D02*
X165405239Y-116244762D01*
X165595715Y-116720952D01*
X165690954Y-116816190D01*
X165881430Y-116911429D01*
X164167144Y-116244762D02*
X164167144Y-114911429D01*
X164167144Y-115292381D02*
X164071905Y-115101905D01*
X163976667Y-115006667D01*
X163786191Y-114911429D01*
X163595715Y-114911429D01*
X162929049Y-116244762D02*
X162929049Y-114911429D01*
X162929049Y-114244762D02*
X163024287Y-114340000D01*
X162929049Y-114435238D01*
X162833810Y-114340000D01*
X162929049Y-114244762D01*
X162929049Y-114435238D01*
X161119525Y-114911429D02*
X161119525Y-116530476D01*
X161214763Y-116720952D01*
X161310001Y-116816190D01*
X161500477Y-116911429D01*
X161786191Y-116911429D01*
X161976668Y-116816190D01*
X161119525Y-116149524D02*
X161310001Y-116244762D01*
X161690953Y-116244762D01*
X161881429Y-116149524D01*
X161976668Y-116054286D01*
X162071906Y-115863810D01*
X162071906Y-115292381D01*
X161976668Y-115101905D01*
X161881429Y-115006667D01*
X161690953Y-114911429D01*
X161310001Y-114911429D01*
X161119525Y-115006667D01*
X160167144Y-116244762D02*
X160167144Y-114244762D01*
X159310001Y-116244762D02*
X159310001Y-115197143D01*
X159405239Y-115006667D01*
X159595715Y-114911429D01*
X159881429Y-114911429D01*
X160071905Y-115006667D01*
X160167144Y-115101905D01*
X158643334Y-114911429D02*
X157881429Y-114911429D01*
X158357620Y-114244762D02*
X158357620Y-115959048D01*
X158262381Y-116149524D01*
X158071905Y-116244762D01*
X157881429Y-116244762D01*
X155786191Y-114435238D02*
X155690953Y-114340000D01*
X155500476Y-114244762D01*
X155024286Y-114244762D01*
X154833810Y-114340000D01*
X154738572Y-114435238D01*
X154643333Y-114625714D01*
X154643333Y-114816190D01*
X154738572Y-115101905D01*
X155881429Y-116244762D01*
X154643333Y-116244762D01*
X153405238Y-114244762D02*
X153214762Y-114244762D01*
X153024286Y-114340000D01*
X152929048Y-114435238D01*
X152833810Y-114625714D01*
X152738571Y-115006667D01*
X152738571Y-115482857D01*
X152833810Y-115863810D01*
X152929048Y-116054286D01*
X153024286Y-116149524D01*
X153214762Y-116244762D01*
X153405238Y-116244762D01*
X153595714Y-116149524D01*
X153690952Y-116054286D01*
X153786191Y-115863810D01*
X153881429Y-115482857D01*
X153881429Y-115006667D01*
X153786191Y-114625714D01*
X153690952Y-114435238D01*
X153595714Y-114340000D01*
X153405238Y-114244762D01*
X150833809Y-116244762D02*
X151976667Y-116244762D01*
X151405238Y-116244762D02*
X151405238Y-114244762D01*
X151595714Y-114530476D01*
X151786190Y-114720952D01*
X151976667Y-114816190D01*
X150167143Y-114244762D02*
X148833809Y-114244762D01*
X149690952Y-116244762D01*
X145500475Y-114340000D02*
X145690952Y-114244762D01*
X145976666Y-114244762D01*
X146262380Y-114340000D01*
X146452856Y-114530476D01*
X146548095Y-114720952D01*
X146643333Y-115101905D01*
X146643333Y-115387619D01*
X146548095Y-115768571D01*
X146452856Y-115959048D01*
X146262380Y-116149524D01*
X145976666Y-116244762D01*
X145786190Y-116244762D01*
X145500475Y-116149524D01*
X145405237Y-116054286D01*
X145405237Y-115387619D01*
X145786190Y-115387619D01*
X144262380Y-116244762D02*
X144452856Y-116149524D01*
X144548095Y-116054286D01*
X144643333Y-115863810D01*
X144643333Y-115292381D01*
X144548095Y-115101905D01*
X144452856Y-115006667D01*
X144262380Y-114911429D01*
X143976666Y-114911429D01*
X143786190Y-115006667D01*
X143690952Y-115101905D01*
X143595714Y-115292381D01*
X143595714Y-115863810D01*
X143690952Y-116054286D01*
X143786190Y-116149524D01*
X143976666Y-116244762D01*
X144262380Y-116244762D01*
X142452856Y-116244762D02*
X142643332Y-116149524D01*
X142738571Y-116054286D01*
X142833809Y-115863810D01*
X142833809Y-115292381D01*
X142738571Y-115101905D01*
X142643332Y-115006667D01*
X142452856Y-114911429D01*
X142167142Y-114911429D01*
X141976666Y-115006667D01*
X141881428Y-115101905D01*
X141786190Y-115292381D01*
X141786190Y-115863810D01*
X141881428Y-116054286D01*
X141976666Y-116149524D01*
X142167142Y-116244762D01*
X142452856Y-116244762D01*
X140071904Y-114911429D02*
X140071904Y-116530476D01*
X140167142Y-116720952D01*
X140262380Y-116816190D01*
X140452856Y-116911429D01*
X140738570Y-116911429D01*
X140929047Y-116816190D01*
X140071904Y-116149524D02*
X140262380Y-116244762D01*
X140643332Y-116244762D01*
X140833808Y-116149524D01*
X140929047Y-116054286D01*
X141024285Y-115863810D01*
X141024285Y-115292381D01*
X140929047Y-115101905D01*
X140833808Y-115006667D01*
X140643332Y-114911429D01*
X140262380Y-114911429D01*
X140071904Y-115006667D01*
X138833808Y-116244762D02*
X139024284Y-116149524D01*
X139119523Y-115959048D01*
X139119523Y-114244762D01*
X137309999Y-116149524D02*
X137500475Y-116244762D01*
X137881427Y-116244762D01*
X138071904Y-116149524D01*
X138167142Y-115959048D01*
X138167142Y-115197143D01*
X138071904Y-115006667D01*
X137881427Y-114911429D01*
X137500475Y-114911429D01*
X137309999Y-115006667D01*
X137214761Y-115197143D01*
X137214761Y-115387619D01*
X138167142Y-115578095D01*
X134833808Y-116244762D02*
X134833808Y-114244762D01*
X133881427Y-114911429D02*
X133881427Y-116244762D01*
X133881427Y-115101905D02*
X133786188Y-115006667D01*
X133595712Y-114911429D01*
X133309998Y-114911429D01*
X133119522Y-115006667D01*
X133024284Y-115197143D01*
X133024284Y-116244762D01*
X131214760Y-116149524D02*
X131405236Y-116244762D01*
X131786188Y-116244762D01*
X131976664Y-116149524D01*
X132071903Y-116054286D01*
X132167141Y-115863810D01*
X132167141Y-115292381D01*
X132071903Y-115101905D01*
X131976664Y-115006667D01*
X131786188Y-114911429D01*
X131405236Y-114911429D01*
X131214760Y-115006667D01*
X191976669Y-121511429D02*
X191976669Y-123130476D01*
X192071907Y-123320952D01*
X192167145Y-123416190D01*
X192357621Y-123511429D01*
X192643335Y-123511429D01*
X192833812Y-123416190D01*
X191976669Y-122749524D02*
X192167145Y-122844762D01*
X192548097Y-122844762D01*
X192738573Y-122749524D01*
X192833812Y-122654286D01*
X192929050Y-122463810D01*
X192929050Y-121892381D01*
X192833812Y-121701905D01*
X192738573Y-121606667D01*
X192548097Y-121511429D01*
X192167145Y-121511429D01*
X191976669Y-121606667D01*
X191024288Y-122844762D02*
X191024288Y-121511429D01*
X191024288Y-120844762D02*
X191119526Y-120940000D01*
X191024288Y-121035238D01*
X190929049Y-120940000D01*
X191024288Y-120844762D01*
X191024288Y-121035238D01*
X190357621Y-121511429D02*
X189595716Y-121511429D01*
X190071907Y-120844762D02*
X190071907Y-122559048D01*
X189976668Y-122749524D01*
X189786192Y-122844762D01*
X189595716Y-122844762D01*
X188929050Y-122844762D02*
X188929050Y-120844762D01*
X188071907Y-122844762D02*
X188071907Y-121797143D01*
X188167145Y-121606667D01*
X188357621Y-121511429D01*
X188643335Y-121511429D01*
X188833811Y-121606667D01*
X188929050Y-121701905D01*
X186262383Y-121511429D02*
X186262383Y-122844762D01*
X187119526Y-121511429D02*
X187119526Y-122559048D01*
X187024287Y-122749524D01*
X186833811Y-122844762D01*
X186548097Y-122844762D01*
X186357621Y-122749524D01*
X186262383Y-122654286D01*
X185310002Y-122844762D02*
X185310002Y-120844762D01*
X185310002Y-121606667D02*
X185119525Y-121511429D01*
X184738573Y-121511429D01*
X184548097Y-121606667D01*
X184452859Y-121701905D01*
X184357621Y-121892381D01*
X184357621Y-122463810D01*
X184452859Y-122654286D01*
X184548097Y-122749524D01*
X184738573Y-122844762D01*
X185119525Y-122844762D01*
X185310002Y-122749524D01*
X183500478Y-122654286D02*
X183405239Y-122749524D01*
X183500478Y-122844762D01*
X183595716Y-122749524D01*
X183500478Y-122654286D01*
X183500478Y-122844762D01*
X181690954Y-122749524D02*
X181881430Y-122844762D01*
X182262382Y-122844762D01*
X182452858Y-122749524D01*
X182548097Y-122654286D01*
X182643335Y-122463810D01*
X182643335Y-121892381D01*
X182548097Y-121701905D01*
X182452858Y-121606667D01*
X182262382Y-121511429D01*
X181881430Y-121511429D01*
X181690954Y-121606667D01*
X180548096Y-122844762D02*
X180738572Y-122749524D01*
X180833811Y-122654286D01*
X180929049Y-122463810D01*
X180929049Y-121892381D01*
X180833811Y-121701905D01*
X180738572Y-121606667D01*
X180548096Y-121511429D01*
X180262382Y-121511429D01*
X180071906Y-121606667D01*
X179976668Y-121701905D01*
X179881430Y-121892381D01*
X179881430Y-122463810D01*
X179976668Y-122654286D01*
X180071906Y-122749524D01*
X180262382Y-122844762D01*
X180548096Y-122844762D01*
X179024287Y-122844762D02*
X179024287Y-121511429D01*
X179024287Y-121701905D02*
X178929048Y-121606667D01*
X178738572Y-121511429D01*
X178452858Y-121511429D01*
X178262382Y-121606667D01*
X178167144Y-121797143D01*
X178167144Y-122844762D01*
X178167144Y-121797143D02*
X178071906Y-121606667D01*
X177881429Y-121511429D01*
X177595715Y-121511429D01*
X177405239Y-121606667D01*
X177310001Y-121797143D01*
X177310001Y-122844762D01*
X174929048Y-120749524D02*
X176643334Y-123320952D01*
X173405239Y-121511429D02*
X173405239Y-123130476D01*
X173500477Y-123320952D01*
X173595715Y-123416190D01*
X173786191Y-123511429D01*
X174071905Y-123511429D01*
X174262382Y-123416190D01*
X173405239Y-122749524D02*
X173595715Y-122844762D01*
X173976667Y-122844762D01*
X174167143Y-122749524D01*
X174262382Y-122654286D01*
X174357620Y-122463810D01*
X174357620Y-121892381D01*
X174262382Y-121701905D01*
X174167143Y-121606667D01*
X173976667Y-121511429D01*
X173595715Y-121511429D01*
X173405239Y-121606667D01*
X172167143Y-122844762D02*
X172357619Y-122749524D01*
X172452858Y-122654286D01*
X172548096Y-122463810D01*
X172548096Y-121892381D01*
X172452858Y-121701905D01*
X172357619Y-121606667D01*
X172167143Y-121511429D01*
X171881429Y-121511429D01*
X171690953Y-121606667D01*
X171595715Y-121701905D01*
X171500477Y-121892381D01*
X171500477Y-122463810D01*
X171595715Y-122654286D01*
X171690953Y-122749524D01*
X171881429Y-122844762D01*
X172167143Y-122844762D01*
X170357619Y-122844762D02*
X170548095Y-122749524D01*
X170643334Y-122654286D01*
X170738572Y-122463810D01*
X170738572Y-121892381D01*
X170643334Y-121701905D01*
X170548095Y-121606667D01*
X170357619Y-121511429D01*
X170071905Y-121511429D01*
X169881429Y-121606667D01*
X169786191Y-121701905D01*
X169690953Y-121892381D01*
X169690953Y-122463810D01*
X169786191Y-122654286D01*
X169881429Y-122749524D01*
X170071905Y-122844762D01*
X170357619Y-122844762D01*
X167976667Y-121511429D02*
X167976667Y-123130476D01*
X168071905Y-123320952D01*
X168167143Y-123416190D01*
X168357619Y-123511429D01*
X168643333Y-123511429D01*
X168833810Y-123416190D01*
X167976667Y-122749524D02*
X168167143Y-122844762D01*
X168548095Y-122844762D01*
X168738571Y-122749524D01*
X168833810Y-122654286D01*
X168929048Y-122463810D01*
X168929048Y-121892381D01*
X168833810Y-121701905D01*
X168738571Y-121606667D01*
X168548095Y-121511429D01*
X168167143Y-121511429D01*
X167976667Y-121606667D01*
X166738571Y-122844762D02*
X166929047Y-122749524D01*
X167024286Y-122559048D01*
X167024286Y-120844762D01*
X165214762Y-122749524D02*
X165405238Y-122844762D01*
X165786190Y-122844762D01*
X165976667Y-122749524D01*
X166071905Y-122559048D01*
X166071905Y-121797143D01*
X165976667Y-121606667D01*
X165786190Y-121511429D01*
X165405238Y-121511429D01*
X165214762Y-121606667D01*
X165119524Y-121797143D01*
X165119524Y-121987619D01*
X166071905Y-122178095D01*
X162833809Y-120749524D02*
X164548095Y-123320952D01*
X162167143Y-122844762D02*
X162167143Y-121511429D01*
X162167143Y-121701905D02*
X162071904Y-121606667D01*
X161881428Y-121511429D01*
X161595714Y-121511429D01*
X161405238Y-121606667D01*
X161310000Y-121797143D01*
X161310000Y-122844762D01*
X161310000Y-121797143D02*
X161214762Y-121606667D01*
X161024285Y-121511429D01*
X160738571Y-121511429D01*
X160548095Y-121606667D01*
X160452857Y-121797143D01*
X160452857Y-122844762D01*
X159690952Y-121511429D02*
X159214761Y-122844762D01*
X158738571Y-121511429D02*
X159214761Y-122844762D01*
X159405237Y-123320952D01*
X159500476Y-123416190D01*
X159690952Y-123511429D01*
X157214761Y-122749524D02*
X157405237Y-122844762D01*
X157786189Y-122844762D01*
X157976666Y-122749524D01*
X158071904Y-122559048D01*
X158071904Y-121797143D01*
X157976666Y-121606667D01*
X157786189Y-121511429D01*
X157405237Y-121511429D01*
X157214761Y-121606667D01*
X157119523Y-121797143D01*
X157119523Y-121987619D01*
X158071904Y-122178095D01*
X155976665Y-122844762D02*
X156167141Y-122749524D01*
X156262380Y-122559048D01*
X156262380Y-120844762D01*
X155214761Y-122844762D02*
X155214761Y-121511429D01*
X155214761Y-120844762D02*
X155309999Y-120940000D01*
X155214761Y-121035238D01*
X155119522Y-120940000D01*
X155214761Y-120844762D01*
X155214761Y-121035238D01*
X154262380Y-121511429D02*
X154262380Y-122844762D01*
X154262380Y-121701905D02*
X154167141Y-121606667D01*
X153976665Y-121511429D01*
X153690951Y-121511429D01*
X153500475Y-121606667D01*
X153405237Y-121797143D01*
X153405237Y-122844762D01*
X152452856Y-122082857D02*
X150929046Y-122082857D01*
X149119523Y-122844762D02*
X149119523Y-121797143D01*
X149214761Y-121606667D01*
X149405237Y-121511429D01*
X149786189Y-121511429D01*
X149976666Y-121606667D01*
X149119523Y-122749524D02*
X149309999Y-122844762D01*
X149786189Y-122844762D01*
X149976666Y-122749524D01*
X150071904Y-122559048D01*
X150071904Y-122368571D01*
X149976666Y-122178095D01*
X149786189Y-122082857D01*
X149309999Y-122082857D01*
X149119523Y-121987619D01*
X147309999Y-122749524D02*
X147500475Y-122844762D01*
X147881427Y-122844762D01*
X148071903Y-122749524D01*
X148167142Y-122654286D01*
X148262380Y-122463810D01*
X148262380Y-121892381D01*
X148167142Y-121701905D01*
X148071903Y-121606667D01*
X147881427Y-121511429D01*
X147500475Y-121511429D01*
X147309999Y-121606667D01*
X146167141Y-122844762D02*
X146357617Y-122749524D01*
X146452856Y-122654286D01*
X146548094Y-122463810D01*
X146548094Y-121892381D01*
X146452856Y-121701905D01*
X146357617Y-121606667D01*
X146167141Y-121511429D01*
X145881427Y-121511429D01*
X145690951Y-121606667D01*
X145595713Y-121701905D01*
X145500475Y-121892381D01*
X145500475Y-122463810D01*
X145595713Y-122654286D01*
X145690951Y-122749524D01*
X145881427Y-122844762D01*
X146167141Y-122844762D01*
X144643332Y-122844762D02*
X144643332Y-121511429D01*
X144643332Y-121892381D02*
X144548093Y-121701905D01*
X144452855Y-121606667D01*
X144262379Y-121511429D01*
X144071903Y-121511429D01*
X143405237Y-121511429D02*
X143405237Y-122844762D01*
X143405237Y-121701905D02*
X143309998Y-121606667D01*
X143119522Y-121511429D01*
X142833808Y-121511429D01*
X142643332Y-121606667D01*
X142548094Y-121797143D01*
X142548094Y-122844762D01*
X141595713Y-122082857D02*
X140071903Y-122082857D01*
X138357618Y-122749524D02*
X138548094Y-122844762D01*
X138929046Y-122844762D01*
X139119523Y-122749524D01*
X139214761Y-122559048D01*
X139214761Y-121797143D01*
X139119523Y-121606667D01*
X138929046Y-121511429D01*
X138548094Y-121511429D01*
X138357618Y-121606667D01*
X138262380Y-121797143D01*
X138262380Y-121987619D01*
X139214761Y-122178095D01*
X137119522Y-122844762D02*
X137309998Y-122749524D01*
X137405237Y-122559048D01*
X137405237Y-120844762D01*
X135595713Y-122749524D02*
X135786189Y-122844762D01*
X136167141Y-122844762D01*
X136357618Y-122749524D01*
X136452856Y-122559048D01*
X136452856Y-121797143D01*
X136357618Y-121606667D01*
X136167141Y-121511429D01*
X135786189Y-121511429D01*
X135595713Y-121606667D01*
X135500475Y-121797143D01*
X135500475Y-121987619D01*
X136452856Y-122178095D01*
X133786189Y-122749524D02*
X133976665Y-122844762D01*
X134357617Y-122844762D01*
X134548093Y-122749524D01*
X134643332Y-122654286D01*
X134738570Y-122463810D01*
X134738570Y-121892381D01*
X134643332Y-121701905D01*
X134548093Y-121606667D01*
X134357617Y-121511429D01*
X133976665Y-121511429D01*
X133786189Y-121606667D01*
X133214760Y-121511429D02*
X132452855Y-121511429D01*
X132929046Y-120844762D02*
X132929046Y-122559048D01*
X132833807Y-122749524D01*
X132643331Y-122844762D01*
X132452855Y-122844762D01*
X131786189Y-122844762D02*
X131786189Y-121511429D01*
X131786189Y-121892381D02*
X131690950Y-121701905D01*
X131595712Y-121606667D01*
X131405236Y-121511429D01*
X131214760Y-121511429D01*
X130262379Y-122844762D02*
X130452855Y-122749524D01*
X130548094Y-122654286D01*
X130643332Y-122463810D01*
X130643332Y-121892381D01*
X130548094Y-121701905D01*
X130452855Y-121606667D01*
X130262379Y-121511429D01*
X129976665Y-121511429D01*
X129786189Y-121606667D01*
X129690951Y-121701905D01*
X129595713Y-121892381D01*
X129595713Y-122463810D01*
X129690951Y-122654286D01*
X129786189Y-122749524D01*
X129976665Y-122844762D01*
X130262379Y-122844762D01*
X128738570Y-121511429D02*
X128738570Y-122844762D01*
X128738570Y-121701905D02*
X128643331Y-121606667D01*
X128452855Y-121511429D01*
X128167141Y-121511429D01*
X127976665Y-121606667D01*
X127881427Y-121797143D01*
X127881427Y-122844762D01*
X126929046Y-122082857D02*
X125405236Y-122082857D01*
X124452856Y-122844762D02*
X124452856Y-120844762D01*
X123595713Y-122844762D02*
X123595713Y-121797143D01*
X123690951Y-121606667D01*
X123881427Y-121511429D01*
X124167141Y-121511429D01*
X124357617Y-121606667D01*
X124452856Y-121701905D01*
X121786189Y-122844762D02*
X121786189Y-121797143D01*
X121881427Y-121606667D01*
X122071903Y-121511429D01*
X122452855Y-121511429D01*
X122643332Y-121606667D01*
X121786189Y-122749524D02*
X121976665Y-122844762D01*
X122452855Y-122844762D01*
X122643332Y-122749524D01*
X122738570Y-122559048D01*
X122738570Y-122368571D01*
X122643332Y-122178095D01*
X122452855Y-122082857D01*
X121976665Y-122082857D01*
X121786189Y-121987619D01*
X120833808Y-122844762D02*
X120833808Y-121511429D01*
X120833808Y-121892381D02*
X120738569Y-121701905D01*
X120643331Y-121606667D01*
X120452855Y-121511429D01*
X120262379Y-121511429D01*
X118738570Y-122844762D02*
X118738570Y-120844762D01*
X118738570Y-122749524D02*
X118929046Y-122844762D01*
X119309998Y-122844762D01*
X119500474Y-122749524D01*
X119595713Y-122654286D01*
X119690951Y-122463810D01*
X119690951Y-121892381D01*
X119595713Y-121701905D01*
X119500474Y-121606667D01*
X119309998Y-121511429D01*
X118929046Y-121511429D01*
X118738570Y-121606667D01*
X117976665Y-121511429D02*
X117595712Y-122844762D01*
X117214760Y-121892381D01*
X116833808Y-122844762D01*
X116452855Y-121511429D01*
X114833808Y-122844762D02*
X114833808Y-121797143D01*
X114929046Y-121606667D01*
X115119522Y-121511429D01*
X115500474Y-121511429D01*
X115690951Y-121606667D01*
X114833808Y-122749524D02*
X115024284Y-122844762D01*
X115500474Y-122844762D01*
X115690951Y-122749524D01*
X115786189Y-122559048D01*
X115786189Y-122368571D01*
X115690951Y-122178095D01*
X115500474Y-122082857D01*
X115024284Y-122082857D01*
X114833808Y-121987619D01*
X113881427Y-122844762D02*
X113881427Y-121511429D01*
X113881427Y-121892381D02*
X113786188Y-121701905D01*
X113690950Y-121606667D01*
X113500474Y-121511429D01*
X113309998Y-121511429D01*
X111881427Y-122749524D02*
X112071903Y-122844762D01*
X112452855Y-122844762D01*
X112643332Y-122749524D01*
X112738570Y-122559048D01*
X112738570Y-121797143D01*
X112643332Y-121606667D01*
X112452855Y-121511429D01*
X112071903Y-121511429D01*
X111881427Y-121606667D01*
X111786189Y-121797143D01*
X111786189Y-121987619D01*
X112738570Y-122178095D01*
X109500474Y-120749524D02*
X111214760Y-123320952D01*
X174357622Y-126049524D02*
X174548098Y-126144762D01*
X174929050Y-126144762D01*
X175119527Y-126049524D01*
X175214765Y-125859048D01*
X175214765Y-125097143D01*
X175119527Y-124906667D01*
X174929050Y-124811429D01*
X174548098Y-124811429D01*
X174357622Y-124906667D01*
X174262384Y-125097143D01*
X174262384Y-125287619D01*
X175214765Y-125478095D01*
X173595717Y-126144762D02*
X172548098Y-124811429D01*
X173595717Y-124811429D02*
X172548098Y-126144762D01*
X171786193Y-124811429D02*
X171786193Y-126811429D01*
X171786193Y-124906667D02*
X171595716Y-124811429D01*
X171214764Y-124811429D01*
X171024288Y-124906667D01*
X170929050Y-125001905D01*
X170833812Y-125192381D01*
X170833812Y-125763810D01*
X170929050Y-125954286D01*
X171024288Y-126049524D01*
X171214764Y-126144762D01*
X171595716Y-126144762D01*
X171786193Y-126049524D01*
X169119526Y-126144762D02*
X169119526Y-125097143D01*
X169214764Y-124906667D01*
X169405240Y-124811429D01*
X169786192Y-124811429D01*
X169976669Y-124906667D01*
X169119526Y-126049524D02*
X169310002Y-126144762D01*
X169786192Y-126144762D01*
X169976669Y-126049524D01*
X170071907Y-125859048D01*
X170071907Y-125668571D01*
X169976669Y-125478095D01*
X169786192Y-125382857D01*
X169310002Y-125382857D01*
X169119526Y-125287619D01*
X168167145Y-124811429D02*
X168167145Y-126144762D01*
X168167145Y-125001905D02*
X168071906Y-124906667D01*
X167881430Y-124811429D01*
X167595716Y-124811429D01*
X167405240Y-124906667D01*
X167310002Y-125097143D01*
X167310002Y-126144762D01*
X166452859Y-126049524D02*
X166262382Y-126144762D01*
X165881430Y-126144762D01*
X165690954Y-126049524D01*
X165595716Y-125859048D01*
X165595716Y-125763810D01*
X165690954Y-125573333D01*
X165881430Y-125478095D01*
X166167144Y-125478095D01*
X166357621Y-125382857D01*
X166452859Y-125192381D01*
X166452859Y-125097143D01*
X166357621Y-124906667D01*
X166167144Y-124811429D01*
X165881430Y-124811429D01*
X165690954Y-124906667D01*
X164738573Y-126144762D02*
X164738573Y-124811429D01*
X164738573Y-124144762D02*
X164833811Y-124240000D01*
X164738573Y-124335238D01*
X164643334Y-124240000D01*
X164738573Y-124144762D01*
X164738573Y-124335238D01*
X163500477Y-126144762D02*
X163690953Y-126049524D01*
X163786192Y-125954286D01*
X163881430Y-125763810D01*
X163881430Y-125192381D01*
X163786192Y-125001905D01*
X163690953Y-124906667D01*
X163500477Y-124811429D01*
X163214763Y-124811429D01*
X163024287Y-124906667D01*
X162929049Y-125001905D01*
X162833811Y-125192381D01*
X162833811Y-125763810D01*
X162929049Y-125954286D01*
X163024287Y-126049524D01*
X163214763Y-126144762D01*
X163500477Y-126144762D01*
X161976668Y-124811429D02*
X161976668Y-126144762D01*
X161976668Y-125001905D02*
X161881429Y-124906667D01*
X161690953Y-124811429D01*
X161405239Y-124811429D01*
X161214763Y-124906667D01*
X161119525Y-125097143D01*
X161119525Y-126144762D01*
X160643334Y-126335238D02*
X159119524Y-126335238D01*
X158643334Y-126144762D02*
X158643334Y-124811429D01*
X158643334Y-125001905D02*
X158548095Y-124906667D01*
X158357619Y-124811429D01*
X158071905Y-124811429D01*
X157881429Y-124906667D01*
X157786191Y-125097143D01*
X157786191Y-126144762D01*
X157786191Y-125097143D02*
X157690953Y-124906667D01*
X157500476Y-124811429D01*
X157214762Y-124811429D01*
X157024286Y-124906667D01*
X156929048Y-125097143D01*
X156929048Y-126144762D01*
X155976667Y-126144762D02*
X155976667Y-124811429D01*
X155976667Y-124144762D02*
X156071905Y-124240000D01*
X155976667Y-124335238D01*
X155881428Y-124240000D01*
X155976667Y-124144762D01*
X155976667Y-124335238D01*
X155024286Y-124811429D02*
X155024286Y-126144762D01*
X155024286Y-125001905D02*
X154929047Y-124906667D01*
X154738571Y-124811429D01*
X154452857Y-124811429D01*
X154262381Y-124906667D01*
X154167143Y-125097143D01*
X154167143Y-126144762D01*
X153214762Y-126144762D02*
X153214762Y-124811429D01*
X153214762Y-124144762D02*
X153310000Y-124240000D01*
X153214762Y-124335238D01*
X153119523Y-124240000D01*
X153214762Y-124144762D01*
X153214762Y-124335238D01*
X152357619Y-126049524D02*
X152167142Y-126144762D01*
X151786190Y-126144762D01*
X151595714Y-126049524D01*
X151500476Y-125859048D01*
X151500476Y-125763810D01*
X151595714Y-125573333D01*
X151786190Y-125478095D01*
X152071904Y-125478095D01*
X152262381Y-125382857D01*
X152357619Y-125192381D01*
X152357619Y-125097143D01*
X152262381Y-124906667D01*
X152071904Y-124811429D01*
X151786190Y-124811429D01*
X151595714Y-124906667D01*
X150643333Y-124811429D02*
X150643333Y-126811429D01*
X150643333Y-124906667D02*
X150452856Y-124811429D01*
X150071904Y-124811429D01*
X149881428Y-124906667D01*
X149786190Y-125001905D01*
X149690952Y-125192381D01*
X149690952Y-125763810D01*
X149786190Y-125954286D01*
X149881428Y-126049524D01*
X150071904Y-126144762D01*
X150452856Y-126144762D01*
X150643333Y-126049524D01*
X147976666Y-126144762D02*
X147976666Y-125097143D01*
X148071904Y-124906667D01*
X148262380Y-124811429D01*
X148643332Y-124811429D01*
X148833809Y-124906667D01*
X147976666Y-126049524D02*
X148167142Y-126144762D01*
X148643332Y-126144762D01*
X148833809Y-126049524D01*
X148929047Y-125859048D01*
X148929047Y-125668571D01*
X148833809Y-125478095D01*
X148643332Y-125382857D01*
X148167142Y-125382857D01*
X147976666Y-125287619D01*
X147024285Y-126144762D02*
X147024285Y-124811429D01*
X147024285Y-125192381D02*
X146929046Y-125001905D01*
X146833808Y-124906667D01*
X146643332Y-124811429D01*
X146452856Y-124811429D01*
X146071904Y-124811429D02*
X145309999Y-124811429D01*
X145786190Y-124144762D02*
X145786190Y-125859048D01*
X145690951Y-126049524D01*
X145500475Y-126144762D01*
X145309999Y-126144762D01*
X143786190Y-126144762D02*
X143786190Y-125097143D01*
X143881428Y-124906667D01*
X144071904Y-124811429D01*
X144452856Y-124811429D01*
X144643333Y-124906667D01*
X143786190Y-126049524D02*
X143976666Y-126144762D01*
X144452856Y-126144762D01*
X144643333Y-126049524D01*
X144738571Y-125859048D01*
X144738571Y-125668571D01*
X144643333Y-125478095D01*
X144452856Y-125382857D01*
X143976666Y-125382857D01*
X143786190Y-125287619D01*
X142833809Y-124811429D02*
X142833809Y-126144762D01*
X142833809Y-125001905D02*
X142738570Y-124906667D01*
X142548094Y-124811429D01*
X142262380Y-124811429D01*
X142071904Y-124906667D01*
X141976666Y-125097143D01*
X141976666Y-126144762D01*
X141500475Y-126335238D02*
X139976665Y-126335238D01*
X139500475Y-126144762D02*
X139500475Y-124144762D01*
X139500475Y-124906667D02*
X139309998Y-124811429D01*
X138929046Y-124811429D01*
X138738570Y-124906667D01*
X138643332Y-125001905D01*
X138548094Y-125192381D01*
X138548094Y-125763810D01*
X138643332Y-125954286D01*
X138738570Y-126049524D01*
X138929046Y-126144762D01*
X139309998Y-126144762D01*
X139500475Y-126049524D01*
X137690951Y-126144762D02*
X137690951Y-124811429D01*
X137690951Y-125192381D02*
X137595712Y-125001905D01*
X137500474Y-124906667D01*
X137309998Y-124811429D01*
X137119522Y-124811429D01*
X135690951Y-126049524D02*
X135881427Y-126144762D01*
X136262379Y-126144762D01*
X136452856Y-126049524D01*
X136548094Y-125859048D01*
X136548094Y-125097143D01*
X136452856Y-124906667D01*
X136262379Y-124811429D01*
X135881427Y-124811429D01*
X135690951Y-124906667D01*
X135595713Y-125097143D01*
X135595713Y-125287619D01*
X136548094Y-125478095D01*
X133881427Y-126144762D02*
X133881427Y-125097143D01*
X133976665Y-124906667D01*
X134167141Y-124811429D01*
X134548093Y-124811429D01*
X134738570Y-124906667D01*
X133881427Y-126049524D02*
X134071903Y-126144762D01*
X134548093Y-126144762D01*
X134738570Y-126049524D01*
X134833808Y-125859048D01*
X134833808Y-125668571D01*
X134738570Y-125478095D01*
X134548093Y-125382857D01*
X134071903Y-125382857D01*
X133881427Y-125287619D01*
X132929046Y-126144762D02*
X132929046Y-124144762D01*
X132738569Y-125382857D02*
X132167141Y-126144762D01*
X132167141Y-124811429D02*
X132929046Y-125573333D01*
X131024283Y-126144762D02*
X131214759Y-126049524D01*
X131309998Y-125954286D01*
X131405236Y-125763810D01*
X131405236Y-125192381D01*
X131309998Y-125001905D01*
X131214759Y-124906667D01*
X131024283Y-124811429D01*
X130738569Y-124811429D01*
X130548093Y-124906667D01*
X130452855Y-125001905D01*
X130357617Y-125192381D01*
X130357617Y-125763810D01*
X130452855Y-125954286D01*
X130548093Y-126049524D01*
X130738569Y-126144762D01*
X131024283Y-126144762D01*
X128643331Y-124811429D02*
X128643331Y-126144762D01*
X129500474Y-124811429D02*
X129500474Y-125859048D01*
X129405235Y-126049524D01*
X129214759Y-126144762D01*
X128929045Y-126144762D01*
X128738569Y-126049524D01*
X128643331Y-125954286D01*
X127976664Y-124811429D02*
X127214759Y-124811429D01*
X127690950Y-124144762D02*
X127690950Y-125859048D01*
X127595711Y-126049524D01*
X127405235Y-126144762D01*
X127214759Y-126144762D01*
M02*
