M48
;DRILL file {KiCad 4.0.6} date Monday, June 05, 2017 'PMt' 08:11:24 PM
;FORMAT={-:-/ absolute / inch / decimal}
FMAT,2
INCH,TZ
T1C0.013
T2C0.025
T3C0.030
T4C0.039
T5C0.040
%
G90
G05
M72
T1
X4.4004Y-3.1567
X4.4366Y-3.235
X4.4531Y-2.8075
X4.5012Y-2.9472
X4.5472Y-3.2394
X4.5528Y-3.1555
X4.6Y-2.8087
X4.6386Y-2.9488
X4.6638Y-3.2394
X5.0965Y-2.9945
X5.0968Y-3.1557
X5.5445Y-2.9236
X5.5571Y-2.7705
X5.611Y-3.1126
X5.9878Y-3.1365
X6.45Y-3.137
T2
X4.3429Y-2.9579
X4.7055Y-2.8795
X4.7067Y-3.0858
X4.8732Y-2.9575
X5.2969Y-2.9358
X5.7374Y-2.9476
X6.1571Y-2.9354
T3
X4.5346Y-3.6055
X4.5346Y-3.7055
X4.5346Y-5.4055
X4.5346Y-5.5055
X4.6346Y-3.6055
X4.6346Y-3.7055
X4.6346Y-5.4055
X4.6346Y-5.5055
X4.7346Y-3.6055
X4.7346Y-3.7055
X4.7346Y-5.4055
X4.7346Y-5.5055
X4.8346Y-3.6055
X4.8346Y-3.7055
X4.8346Y-5.4055
X4.8346Y-5.5055
X4.9346Y-3.6055
X4.9346Y-3.7055
X4.9346Y-5.4055
X4.9346Y-5.5055
X5.0346Y-3.6055
X5.0346Y-3.7055
X5.0346Y-5.4055
X5.0346Y-5.5055
X5.1346Y-3.6055
X5.1346Y-3.7055
X5.1346Y-5.4055
X5.1346Y-5.5055
X5.2346Y-3.6055
X5.2346Y-3.7055
X5.2346Y-5.4055
X5.2346Y-5.5055
X5.3346Y-3.6055
X5.3346Y-3.7055
X5.3346Y-5.4055
X5.3346Y-5.5055
X5.4346Y-3.6055
X5.4346Y-3.7055
X5.4346Y-5.4055
X5.4346Y-5.5055
X5.5346Y-3.6055
X5.5346Y-3.7055
X5.5346Y-5.4055
X5.5346Y-5.5055
X5.6346Y-3.6055
X5.6346Y-3.7055
X5.6346Y-5.4055
X5.6346Y-5.5055
X5.7346Y-3.6055
X5.7346Y-3.7055
X5.7346Y-5.4055
X5.7346Y-5.5055
X5.8346Y-3.6055
X5.8346Y-3.7055
X5.8346Y-5.4055
X5.8346Y-5.5055
X5.9346Y-3.6055
X5.9346Y-3.7055
X5.9346Y-5.4055
X5.9346Y-5.5055
X6.0346Y-3.6055
X6.0346Y-3.7055
X6.0346Y-5.4055
X6.0346Y-5.5055
X6.1346Y-3.6055
X6.1346Y-3.7055
X6.1346Y-5.4055
X6.1346Y-5.5055
X6.2346Y-3.6055
X6.2346Y-3.7055
X6.2346Y-5.4055
X6.2346Y-5.5055
X6.3346Y-3.6055
X6.3346Y-3.7055
X6.3346Y-5.4055
X6.3346Y-5.5055
X6.4346Y-3.6055
X6.4346Y-3.7055
X6.4346Y-5.4055
X6.4346Y-5.5055
X6.5346Y-3.6055
X6.5346Y-3.7055
X6.5346Y-5.4055
X6.5346Y-5.5055
X6.6346Y-3.6055
X6.6346Y-3.7055
X6.6346Y-5.4055
X6.6346Y-5.5055
X6.7346Y-3.6055
X6.7346Y-3.7055
X6.7346Y-5.4055
X6.7346Y-5.5055
X6.8346Y-3.6055
X6.8346Y-3.7055
X6.8346Y-5.4055
X6.8346Y-5.5055
T4
X4.3051Y-2.4886
X4.3051Y-2.5886
X4.4051Y-2.4886
X4.4051Y-2.5886
X4.5051Y-2.4886
X4.5051Y-2.5886
X4.6051Y-2.4886
X4.6051Y-2.5886
X4.7051Y-2.4886
X4.7051Y-2.5886
X4.8051Y-2.4886
X4.8051Y-2.5886
X4.9051Y-2.4886
X4.9051Y-2.5886
X5.0051Y-2.4886
X5.0051Y-2.5886
X5.1051Y-2.4886
X5.1051Y-2.5886
X5.2051Y-2.4886
X5.2051Y-2.5886
X5.3051Y-2.4886
X5.3051Y-2.5886
X5.4051Y-2.4886
X5.4051Y-2.5886
X5.5051Y-2.4886
X5.5051Y-2.5886
X5.6051Y-2.4886
X5.6051Y-2.5886
X5.7051Y-2.4886
X5.7051Y-2.5886
X5.8051Y-2.4886
X5.8051Y-2.5886
X5.9051Y-2.4886
X5.9051Y-2.5886
X6.0051Y-2.4886
X6.0051Y-2.5886
X6.1051Y-2.4886
X6.1051Y-2.5886
X6.2051Y-2.4886
X6.2051Y-2.5886
X6.3051Y-2.4886
X6.3051Y-2.5886
X6.4051Y-2.4886
X6.4051Y-2.5886
X6.5051Y-2.4886
X6.5051Y-2.5886
X6.6051Y-2.4886
X6.6051Y-2.5886
X6.8945Y-2.9752
X6.8945Y-3.0752
T5
X4.0559Y-2.0866
X4.0559Y-2.2441
X4.1559Y-2.0866
X4.1559Y-2.2441
X4.2559Y-2.0866
X4.2559Y-2.2441
X4.3559Y-2.0866
X4.3559Y-2.2441
X4.4559Y-2.0866
X4.4559Y-2.2441
X4.5559Y-2.0866
X4.5559Y-2.2441
X4.6559Y-2.0866
X4.6559Y-2.2441
X4.7559Y-2.0866
X4.7559Y-2.2441
X4.8559Y-2.0866
X4.8559Y-2.2441
X4.9559Y-2.0866
X4.9559Y-2.2441
X5.0559Y-2.0866
X5.0559Y-2.2441
X5.1559Y-2.0866
X5.1559Y-2.2441
X5.2559Y-2.0866
X5.2559Y-2.2441
X5.3559Y-2.0866
X5.3559Y-2.2441
X5.5559Y-2.0866
X5.5559Y-2.2441
X5.6559Y-2.0866
X5.6559Y-2.2441
X5.7559Y-2.0866
X5.7559Y-2.2441
X5.8559Y-2.0866
X5.8559Y-2.2441
X5.9559Y-2.0866
X5.9559Y-2.2441
X6.0559Y-2.0866
X6.0559Y-2.2441
X6.1559Y-2.0866
X6.1559Y-2.2441
X6.2559Y-2.0866
X6.2559Y-2.2441
X6.3559Y-2.0866
X6.3559Y-2.2441
X6.4559Y-2.0866
X6.4559Y-2.2441
T0
M30
