G04 #@! TF.FileFunction,Copper,L2,Bot,Signal*
%FSLAX46Y46*%
G04 Gerber Fmt 4.6, Leading zero omitted, Abs format (unit mm)*
G04 Created by KiCad (PCBNEW 4.0.6) date Saturday, October 28, 2017 'PMt' 04:50:48 PM*
%MOMM*%
%LPD*%
G01*
G04 APERTURE LIST*
%ADD10C,0.100000*%
%ADD11R,1.600000X1.600000*%
%ADD12O,1.600000X1.600000*%
%ADD13R,1.000000X0.400000*%
%ADD14R,1.500000X1.250000*%
%ADD15R,1.700000X1.700000*%
%ADD16O,1.700000X1.700000*%
%ADD17C,0.812800*%
%ADD18R,1.500000X1.300000*%
%ADD19C,1.016000*%
%ADD20C,0.177800*%
%ADD21C,0.381000*%
%ADD22C,0.508000*%
%ADD23C,1.270000*%
%ADD24C,0.254000*%
G04 APERTURE END LIST*
D10*
D11*
X166310000Y-78480000D03*
D12*
X181550000Y-126740000D03*
X166310000Y-81020000D03*
X181550000Y-124200000D03*
X166310000Y-83560000D03*
X181550000Y-121660000D03*
X166310000Y-86100000D03*
X181550000Y-119120000D03*
X166310000Y-88640000D03*
X181550000Y-116580000D03*
X166310000Y-91180000D03*
X181550000Y-114040000D03*
X166310000Y-93720000D03*
X181550000Y-111500000D03*
X166310000Y-96260000D03*
X181550000Y-108960000D03*
X166310000Y-98800000D03*
X181550000Y-106420000D03*
X166310000Y-101340000D03*
X181550000Y-103880000D03*
X166310000Y-103880000D03*
X181550000Y-101340000D03*
X166310000Y-106420000D03*
X181550000Y-98800000D03*
X166310000Y-108960000D03*
X181550000Y-96260000D03*
X166310000Y-111500000D03*
X181550000Y-93720000D03*
X166310000Y-114040000D03*
X181550000Y-91180000D03*
X166310000Y-116580000D03*
X181550000Y-88640000D03*
X166310000Y-119120000D03*
X181550000Y-86100000D03*
X166310000Y-121660000D03*
X181550000Y-83560000D03*
X166310000Y-124200000D03*
X181550000Y-81020000D03*
X166310000Y-126740000D03*
X181550000Y-78480000D03*
D11*
X161230000Y-78480000D03*
D12*
X176470000Y-126740000D03*
X161230000Y-81020000D03*
X176470000Y-124200000D03*
X161230000Y-83560000D03*
X176470000Y-121660000D03*
X161230000Y-86100000D03*
X176470000Y-119120000D03*
X161230000Y-88640000D03*
X176470000Y-116580000D03*
X161230000Y-91180000D03*
X176470000Y-114040000D03*
X161230000Y-93720000D03*
X176470000Y-111500000D03*
X161230000Y-96260000D03*
X176470000Y-108960000D03*
X161230000Y-98800000D03*
X176470000Y-106420000D03*
X161230000Y-101340000D03*
X176470000Y-103880000D03*
X161230000Y-103880000D03*
X176470000Y-101340000D03*
X161230000Y-106420000D03*
X176470000Y-98800000D03*
X161230000Y-108960000D03*
X176470000Y-96260000D03*
X161230000Y-111500000D03*
X176470000Y-93720000D03*
X161230000Y-114040000D03*
X176470000Y-91180000D03*
X161230000Y-116580000D03*
X176470000Y-88640000D03*
X161230000Y-119120000D03*
X176470000Y-86100000D03*
X161230000Y-121660000D03*
X176470000Y-83560000D03*
X161230000Y-124200000D03*
X176470000Y-81020000D03*
X161230000Y-126740000D03*
X176470000Y-78480000D03*
D13*
X152550000Y-107010000D03*
X152550000Y-106360000D03*
X152550000Y-105710000D03*
X152550000Y-105060000D03*
X152550000Y-104410000D03*
X152550000Y-103760000D03*
X152550000Y-103110000D03*
X152550000Y-102460000D03*
X152550000Y-101810000D03*
X152550000Y-101160000D03*
X158350000Y-101160000D03*
X158350000Y-101810000D03*
X158350000Y-102460000D03*
X158350000Y-103110000D03*
X158350000Y-103760000D03*
X158350000Y-104410000D03*
X158350000Y-105060000D03*
X158350000Y-105710000D03*
X158350000Y-106360000D03*
X158350000Y-107010000D03*
D14*
X154140000Y-99200000D03*
X156640000Y-99200000D03*
D15*
X157550000Y-78650000D03*
D16*
X157550000Y-81190000D03*
X157550000Y-83730000D03*
D15*
X178420000Y-62710000D03*
D16*
X180960000Y-62710000D03*
X178420000Y-65250000D03*
X180960000Y-65250000D03*
X178420000Y-67790000D03*
X180960000Y-67790000D03*
X178420000Y-70330000D03*
X180960000Y-70330000D03*
X178420000Y-72870000D03*
X180960000Y-72870000D03*
D15*
X146230000Y-78480000D03*
D16*
X148770000Y-78480000D03*
X146230000Y-81020000D03*
X148770000Y-81020000D03*
X146230000Y-83560000D03*
X148770000Y-83560000D03*
X146230000Y-86100000D03*
X148770000Y-86100000D03*
X146230000Y-88640000D03*
X148770000Y-88640000D03*
X146230000Y-91180000D03*
X148770000Y-91180000D03*
X146230000Y-93720000D03*
X148770000Y-93720000D03*
X146230000Y-96260000D03*
X148770000Y-96260000D03*
X146230000Y-98800000D03*
X148770000Y-98800000D03*
X146230000Y-101340000D03*
X148770000Y-101340000D03*
X146230000Y-103880000D03*
X148770000Y-103880000D03*
X146230000Y-106420000D03*
X148770000Y-106420000D03*
X146230000Y-108960000D03*
X148770000Y-108960000D03*
X146230000Y-111500000D03*
X148770000Y-111500000D03*
X146230000Y-114040000D03*
X148770000Y-114040000D03*
X146230000Y-116580000D03*
X148770000Y-116580000D03*
X146230000Y-119120000D03*
X148770000Y-119120000D03*
X146230000Y-121660000D03*
X148770000Y-121660000D03*
X146230000Y-124200000D03*
X148770000Y-124200000D03*
X146230000Y-126740000D03*
X148770000Y-126740000D03*
D15*
X165110000Y-75040000D03*
D16*
X162570000Y-75040000D03*
D15*
X160400000Y-56560000D03*
D16*
X157860000Y-56560000D03*
D17*
X156520000Y-59540000D03*
X146600000Y-74960000D03*
X156450000Y-61130000D03*
X148240000Y-74970000D03*
X154350000Y-63020000D03*
X149880000Y-72670000D03*
X161930000Y-62050000D03*
X161570000Y-69430000D03*
X169250000Y-70450000D03*
X169860000Y-62020000D03*
X172372100Y-59390001D03*
X180820000Y-60500000D03*
X165950000Y-65990000D03*
X173660000Y-85540000D03*
X171510000Y-72510000D03*
X171510000Y-86020000D03*
X174460000Y-82810000D03*
X169810000Y-89990000D03*
X172080000Y-90840000D03*
X168680000Y-98820000D03*
X168800000Y-101400000D03*
X168870000Y-103840000D03*
X168870000Y-106360000D03*
X168870000Y-108960000D03*
X168870000Y-111630000D03*
X168870000Y-114230000D03*
X155040000Y-107170000D03*
X153660000Y-93310000D03*
X185320000Y-55540000D03*
X144670000Y-55500000D03*
X144900000Y-128050000D03*
X157120000Y-72000000D03*
X153640000Y-75560000D03*
D18*
X154230000Y-110520000D03*
X156930000Y-110520000D03*
D19*
X154950000Y-80420000D03*
D17*
X157660000Y-63440002D03*
X157040000Y-89660000D03*
X158270000Y-98260000D03*
X154090000Y-100420000D03*
X153600000Y-126180000D03*
X154040000Y-119720000D03*
X152530000Y-113070000D03*
X156450000Y-108600000D03*
X167340000Y-58340000D03*
X155260000Y-65800000D03*
X156557674Y-100534852D03*
X172180000Y-124200000D03*
X159392287Y-124598731D03*
X155540000Y-95720000D03*
X175070000Y-60590000D03*
X160240000Y-61000000D03*
X169810000Y-125470002D03*
X159720000Y-125930000D03*
X167942790Y-127616190D03*
X159620000Y-127260000D03*
X156836402Y-106999866D03*
X163060000Y-84810000D03*
X154110000Y-105920000D03*
X163020000Y-79780000D03*
X163020000Y-82250000D03*
X163060000Y-87390000D03*
D20*
X154090000Y-100420000D02*
X154090000Y-99250000D01*
X154090000Y-99250000D02*
X154140000Y-99200000D01*
X157137800Y-108600000D02*
X157024736Y-108600000D01*
X158350000Y-107387800D02*
X157137800Y-108600000D01*
X156856399Y-109006399D02*
X156450000Y-108600000D01*
X156930000Y-110520000D02*
X156930000Y-109080000D01*
X156930000Y-109080000D02*
X156856399Y-109006399D01*
X157024736Y-108600000D02*
X156450000Y-108600000D01*
X158350000Y-107010000D02*
X158350000Y-107387800D01*
D21*
X167340000Y-58340000D02*
X178532942Y-58340000D01*
X178532942Y-58340000D02*
X179638301Y-59445359D01*
X179638301Y-59445359D02*
X179638301Y-63928301D01*
X179638301Y-63928301D02*
X180110001Y-64400001D01*
X180110001Y-64400001D02*
X180960000Y-65250000D01*
D22*
X155260000Y-65800000D02*
X155260000Y-64430000D01*
X155260000Y-64430000D02*
X161350000Y-58340000D01*
X161350000Y-58340000D02*
X167340000Y-58340000D01*
X157550000Y-81190000D02*
X155260000Y-78900000D01*
X155260000Y-78900000D02*
X155260000Y-65800000D01*
D20*
X158350000Y-107010000D02*
X158050000Y-107010000D01*
D22*
X156640000Y-100452526D02*
X156557674Y-100534852D01*
X156640000Y-99200000D02*
X156640000Y-100452526D01*
D20*
X159392287Y-124598731D02*
X159392287Y-124023995D01*
X159392287Y-124023995D02*
X160506282Y-122910000D01*
X160506282Y-122910000D02*
X170890000Y-122910000D01*
X170890000Y-122910000D02*
X171773601Y-123793601D01*
X171773601Y-123793601D02*
X172180000Y-124200000D01*
X176470000Y-114040000D02*
X175403299Y-112973299D01*
X175403299Y-112973299D02*
X161124581Y-112973299D01*
X161124581Y-112973299D02*
X159220000Y-111068718D01*
X159220000Y-111068718D02*
X159220000Y-106020000D01*
X159220000Y-106020000D02*
X158910000Y-105710000D01*
X158910000Y-105710000D02*
X158350000Y-105710000D01*
X176470000Y-111500000D02*
X175130000Y-110160000D01*
X158880062Y-105060000D02*
X158350000Y-105060000D01*
X175130000Y-110160000D02*
X160490000Y-110160000D01*
X160490000Y-110160000D02*
X159660000Y-109330000D01*
X159660000Y-109330000D02*
X159660000Y-105839938D01*
X159660000Y-105839938D02*
X158880062Y-105060000D01*
D23*
X155540000Y-95720000D02*
X155540000Y-95770000D01*
X155540000Y-95770000D02*
X155050000Y-96260000D01*
X155050000Y-96260000D02*
X148770000Y-96260000D01*
X161230000Y-96260000D02*
X166310000Y-96260000D01*
D20*
X158350000Y-104410000D02*
X158880062Y-104410000D01*
X160070000Y-105599938D02*
X160070000Y-106782312D01*
X175230000Y-107720000D02*
X176470000Y-108960000D01*
X158880062Y-104410000D02*
X160070000Y-105599938D01*
X161007688Y-107720000D02*
X175230000Y-107720000D01*
X160070000Y-106782312D02*
X161007688Y-107720000D01*
X158350000Y-103760000D02*
X159531282Y-103760000D01*
X159531282Y-103760000D02*
X160931282Y-105160000D01*
X160931282Y-105160000D02*
X175210000Y-105160000D01*
X175210000Y-105160000D02*
X175670001Y-105620001D01*
X175670001Y-105620001D02*
X176470000Y-106420000D01*
X176470000Y-103880000D02*
X175240000Y-102650000D01*
X159027800Y-103110000D02*
X158350000Y-103110000D01*
X175240000Y-102650000D02*
X159487800Y-102650000D01*
X159487800Y-102650000D02*
X159027800Y-103110000D01*
X158350000Y-102460000D02*
X159027800Y-102460000D01*
X160163299Y-100827983D02*
X160901282Y-100090000D01*
X160901282Y-100090000D02*
X175220000Y-100090000D01*
X175670001Y-100540001D02*
X176470000Y-101340000D01*
X159027800Y-102460000D02*
X160163299Y-101324501D01*
X175220000Y-100090000D02*
X175670001Y-100540001D01*
X160163299Y-101324501D02*
X160163299Y-100827983D01*
X159027800Y-101810000D02*
X158350000Y-101810000D01*
X159751222Y-101086578D02*
X159027800Y-101810000D01*
X160163299Y-99152519D02*
X159751222Y-99564596D01*
X160163299Y-98006701D02*
X160163299Y-99152519D01*
X159751222Y-99564596D02*
X159751222Y-101086578D01*
X175210000Y-97540000D02*
X160630000Y-97540000D01*
X160630000Y-97540000D02*
X160163299Y-98006701D01*
X176470000Y-98800000D02*
X175210000Y-97540000D01*
X176470000Y-96260000D02*
X175160000Y-94950000D01*
X159807688Y-99005221D02*
X158350000Y-100462909D01*
X158350000Y-100782200D02*
X158350000Y-101160000D01*
X158350000Y-100462909D02*
X158350000Y-100782200D01*
X175160000Y-94950000D02*
X160630000Y-94950000D01*
X160630000Y-94950000D02*
X159807688Y-95772312D01*
X159807688Y-95772312D02*
X159807688Y-99005221D01*
X160240000Y-61000000D02*
X160650000Y-60590000D01*
X160650000Y-60590000D02*
X175070000Y-60590000D01*
X169235264Y-125470002D02*
X169810000Y-125470002D01*
X160179998Y-125470002D02*
X169235264Y-125470002D01*
X159720000Y-125930000D02*
X160179998Y-125470002D01*
X167536391Y-128022589D02*
X167942790Y-127616190D01*
X160382589Y-128022589D02*
X167536391Y-128022589D01*
X159620000Y-127260000D02*
X160382589Y-128022589D01*
X157227688Y-100599341D02*
X157227688Y-106033844D01*
X157265798Y-100561231D02*
X157227688Y-100599341D01*
X159010000Y-98685062D02*
X157265798Y-100429264D01*
X157265798Y-100429264D02*
X157265798Y-100561231D01*
X163060000Y-84810000D02*
X160411222Y-84810000D01*
X157227688Y-106033844D02*
X156836402Y-106425130D01*
X159010000Y-95522908D02*
X159010000Y-98685062D01*
X160411222Y-84810000D02*
X159481222Y-85740000D01*
X159481222Y-95051686D02*
X159010000Y-95522908D01*
X156836402Y-106425130D02*
X156836402Y-106999866D01*
X159481222Y-85740000D02*
X159481222Y-95051686D01*
X148770000Y-106420000D02*
X152490000Y-106420000D01*
X152490000Y-106420000D02*
X152550000Y-106360000D01*
X152550000Y-105710000D02*
X150360000Y-105710000D01*
X150360000Y-105710000D02*
X149800000Y-105150000D01*
X147079999Y-105570001D02*
X146230000Y-106420000D01*
X149800000Y-105150000D02*
X147500000Y-105150000D01*
X147500000Y-105150000D02*
X147079999Y-105570001D01*
X148770000Y-103880000D02*
X149630000Y-103880000D01*
X149630000Y-103880000D02*
X150810000Y-105060000D01*
X150810000Y-105060000D02*
X152550000Y-105060000D01*
X152550000Y-104410000D02*
X151200000Y-104410000D01*
X151200000Y-104410000D02*
X149420000Y-102630000D01*
X149420000Y-102630000D02*
X147480000Y-102630000D01*
X147480000Y-102630000D02*
X147079999Y-103030001D01*
X147079999Y-103030001D02*
X146230000Y-103880000D01*
X148770000Y-101340000D02*
X149000000Y-101340000D01*
X149000000Y-101340000D02*
X151420000Y-103760000D01*
X151420000Y-103760000D02*
X152550000Y-103760000D01*
X152550000Y-103110000D02*
X151630000Y-103110000D01*
X151630000Y-103110000D02*
X150200000Y-101680000D01*
X150200000Y-101680000D02*
X150200000Y-100870000D01*
X150200000Y-100870000D02*
X149410000Y-100080000D01*
X149410000Y-100080000D02*
X147490000Y-100080000D01*
X147490000Y-100080000D02*
X147079999Y-100490001D01*
X147079999Y-100490001D02*
X146230000Y-101340000D01*
X148770000Y-98800000D02*
X149130000Y-98800000D01*
X149130000Y-98800000D02*
X150870000Y-100540000D01*
X150870000Y-100540000D02*
X150870000Y-101457800D01*
X150870000Y-101457800D02*
X151872200Y-102460000D01*
X151872200Y-102460000D02*
X152550000Y-102460000D01*
X152550000Y-101810000D02*
X151872200Y-101810000D01*
X151872200Y-101810000D02*
X151510000Y-101447800D01*
X147346701Y-97683299D02*
X147079999Y-97950001D01*
X151510000Y-101447800D02*
X151510000Y-99887282D01*
X151510000Y-99887282D02*
X149306017Y-97683299D01*
X149306017Y-97683299D02*
X147346701Y-97683299D01*
X147079999Y-97950001D02*
X146230000Y-98800000D01*
X158666701Y-94673299D02*
X158666701Y-81410000D01*
X163020000Y-79780000D02*
X160296701Y-79780000D01*
X160296701Y-79780000D02*
X158666701Y-81410000D01*
X155156701Y-98183299D02*
X158666701Y-94673299D01*
X154110000Y-105920000D02*
X155156701Y-104873299D01*
X155156701Y-104873299D02*
X155156701Y-98183299D01*
X159022312Y-95007688D02*
X159022312Y-83770000D01*
X160542312Y-82250000D02*
X159022312Y-83770000D01*
X163020000Y-82250000D02*
X160542312Y-82250000D01*
X152550000Y-107010000D02*
X154090000Y-107010000D01*
X154090000Y-107010000D02*
X155623299Y-105476701D01*
X155623299Y-105476701D02*
X155623299Y-98406701D01*
X155623299Y-98406701D02*
X159022312Y-95007688D01*
X157819938Y-106360000D02*
X157650000Y-106529938D01*
X157650000Y-106543299D02*
X157636639Y-106543299D01*
X157583299Y-107366701D02*
X157040000Y-107910000D01*
X157650000Y-106529938D02*
X157650000Y-106543299D01*
X157636639Y-106543299D02*
X157583299Y-106596639D01*
X157583299Y-106596639D02*
X157583299Y-107366701D01*
X157040000Y-107910000D02*
X155850000Y-107910000D01*
X155850000Y-107910000D02*
X154230000Y-109530000D01*
X154230000Y-109530000D02*
X154230000Y-110520000D01*
X158350000Y-106360000D02*
X157810000Y-106360000D01*
X159836833Y-95198984D02*
X159836833Y-88180000D01*
X163060000Y-87390000D02*
X160626833Y-87390000D01*
X160626833Y-87390000D02*
X159836833Y-88180000D01*
X159452077Y-95583740D02*
X159836833Y-95198984D01*
X158350000Y-106360000D02*
X157819938Y-106360000D01*
X157819938Y-106360000D02*
X157583299Y-106123361D01*
X157583299Y-106123361D02*
X157583299Y-100726701D01*
X159452077Y-98857923D02*
X159452077Y-95583740D01*
X157583299Y-100726701D02*
X159452077Y-98857923D01*
D24*
G36*
X185929000Y-128799000D02*
X144201000Y-128799000D01*
X144201000Y-126740000D01*
X144974883Y-126740000D01*
X145068587Y-127211083D01*
X145335435Y-127610448D01*
X145734800Y-127877296D01*
X146205883Y-127971000D01*
X146254117Y-127971000D01*
X146725200Y-127877296D01*
X147124565Y-127610448D01*
X147391413Y-127211083D01*
X147485117Y-126740000D01*
X147514883Y-126740000D01*
X147608587Y-127211083D01*
X147875435Y-127610448D01*
X148274800Y-127877296D01*
X148745883Y-127971000D01*
X148794117Y-127971000D01*
X149265200Y-127877296D01*
X149664565Y-127610448D01*
X149931413Y-127211083D01*
X150025117Y-126740000D01*
X149931413Y-126268917D01*
X149664565Y-125869552D01*
X149265200Y-125602704D01*
X148794117Y-125509000D01*
X148745883Y-125509000D01*
X148274800Y-125602704D01*
X147875435Y-125869552D01*
X147608587Y-126268917D01*
X147514883Y-126740000D01*
X147485117Y-126740000D01*
X147391413Y-126268917D01*
X147124565Y-125869552D01*
X146725200Y-125602704D01*
X146254117Y-125509000D01*
X146205883Y-125509000D01*
X145734800Y-125602704D01*
X145335435Y-125869552D01*
X145068587Y-126268917D01*
X144974883Y-126740000D01*
X144201000Y-126740000D01*
X144201000Y-124200000D01*
X144974883Y-124200000D01*
X145068587Y-124671083D01*
X145335435Y-125070448D01*
X145734800Y-125337296D01*
X146205883Y-125431000D01*
X146254117Y-125431000D01*
X146725200Y-125337296D01*
X147124565Y-125070448D01*
X147391413Y-124671083D01*
X147485117Y-124200000D01*
X147514883Y-124200000D01*
X147608587Y-124671083D01*
X147875435Y-125070448D01*
X148274800Y-125337296D01*
X148745883Y-125431000D01*
X148794117Y-125431000D01*
X149265200Y-125337296D01*
X149664565Y-125070448D01*
X149875563Y-124754667D01*
X158604751Y-124754667D01*
X158724373Y-125044175D01*
X158945678Y-125265867D01*
X159175268Y-125361201D01*
X159052864Y-125483391D01*
X158932737Y-125772689D01*
X158932464Y-126085936D01*
X159052086Y-126375444D01*
X159240960Y-126564648D01*
X159174556Y-126592086D01*
X158952864Y-126813391D01*
X158832737Y-127102689D01*
X158832464Y-127415936D01*
X158952086Y-127705444D01*
X159173391Y-127927136D01*
X159462689Y-128047263D01*
X159742969Y-128047507D01*
X160050320Y-128354859D01*
X160202766Y-128456720D01*
X160382589Y-128492489D01*
X167536391Y-128492489D01*
X167716214Y-128456720D01*
X167795919Y-128403462D01*
X168098726Y-128403726D01*
X168388234Y-128284104D01*
X168609926Y-128062799D01*
X168730053Y-127773501D01*
X168730326Y-127460254D01*
X168610704Y-127170746D01*
X168529140Y-127089039D01*
X175078096Y-127089039D01*
X175238959Y-127477423D01*
X175614866Y-127892389D01*
X176120959Y-128131914D01*
X176343000Y-128010629D01*
X176343000Y-126867000D01*
X176597000Y-126867000D01*
X176597000Y-128010629D01*
X176819041Y-128131914D01*
X177325134Y-127892389D01*
X177701041Y-127477423D01*
X177861904Y-127089039D01*
X180158096Y-127089039D01*
X180318959Y-127477423D01*
X180694866Y-127892389D01*
X181200959Y-128131914D01*
X181423000Y-128010629D01*
X181423000Y-126867000D01*
X181677000Y-126867000D01*
X181677000Y-128010629D01*
X181899041Y-128131914D01*
X182405134Y-127892389D01*
X182781041Y-127477423D01*
X182941904Y-127089039D01*
X182819915Y-126867000D01*
X181677000Y-126867000D01*
X181423000Y-126867000D01*
X180280085Y-126867000D01*
X180158096Y-127089039D01*
X177861904Y-127089039D01*
X177739915Y-126867000D01*
X176597000Y-126867000D01*
X176343000Y-126867000D01*
X175200085Y-126867000D01*
X175078096Y-127089039D01*
X168529140Y-127089039D01*
X168389399Y-126949054D01*
X168100101Y-126828927D01*
X167786854Y-126828654D01*
X167497346Y-126948276D01*
X167466604Y-126978964D01*
X167514137Y-126740000D01*
X167444710Y-126390961D01*
X175078096Y-126390961D01*
X175200085Y-126613000D01*
X176343000Y-126613000D01*
X176343000Y-126593000D01*
X176597000Y-126593000D01*
X176597000Y-126613000D01*
X177739915Y-126613000D01*
X177861904Y-126390961D01*
X180158096Y-126390961D01*
X180280085Y-126613000D01*
X181423000Y-126613000D01*
X181423000Y-126593000D01*
X181677000Y-126593000D01*
X181677000Y-126613000D01*
X182819915Y-126613000D01*
X182941904Y-126390961D01*
X182781041Y-126002577D01*
X182405134Y-125587611D01*
X181899041Y-125348086D01*
X181677002Y-125469370D01*
X181677002Y-125360340D01*
X182025086Y-125291102D01*
X182408230Y-125035093D01*
X182664239Y-124651949D01*
X182754137Y-124200000D01*
X182664239Y-123748051D01*
X182408230Y-123364907D01*
X182025086Y-123108898D01*
X181573137Y-123019000D01*
X181526863Y-123019000D01*
X181074914Y-123108898D01*
X180691770Y-123364907D01*
X180435761Y-123748051D01*
X180345863Y-124200000D01*
X180435761Y-124651949D01*
X180691770Y-125035093D01*
X181074914Y-125291102D01*
X181422998Y-125360340D01*
X181422998Y-125469370D01*
X181200959Y-125348086D01*
X180694866Y-125587611D01*
X180318959Y-126002577D01*
X180158096Y-126390961D01*
X177861904Y-126390961D01*
X177701041Y-126002577D01*
X177325134Y-125587611D01*
X176819041Y-125348086D01*
X176597002Y-125469370D01*
X176597002Y-125360340D01*
X176945086Y-125291102D01*
X177328230Y-125035093D01*
X177584239Y-124651949D01*
X177674137Y-124200000D01*
X177584239Y-123748051D01*
X177328230Y-123364907D01*
X176945086Y-123108898D01*
X176493137Y-123019000D01*
X176446863Y-123019000D01*
X175994914Y-123108898D01*
X175611770Y-123364907D01*
X175355761Y-123748051D01*
X175265863Y-124200000D01*
X175355761Y-124651949D01*
X175611770Y-125035093D01*
X175994914Y-125291102D01*
X176342998Y-125360340D01*
X176342998Y-125469370D01*
X176120959Y-125348086D01*
X175614866Y-125587611D01*
X175238959Y-126002577D01*
X175078096Y-126390961D01*
X167444710Y-126390961D01*
X167424239Y-126288051D01*
X167191613Y-125939902D01*
X169166499Y-125939902D01*
X169363391Y-126137138D01*
X169652689Y-126257265D01*
X169965936Y-126257538D01*
X170255444Y-126137916D01*
X170477136Y-125916611D01*
X170597263Y-125627313D01*
X170597536Y-125314066D01*
X170477914Y-125024558D01*
X170256609Y-124802866D01*
X169967311Y-124682739D01*
X169654064Y-124682466D01*
X169364556Y-124802088D01*
X169166196Y-125000102D01*
X167191610Y-125000102D01*
X167424239Y-124651949D01*
X167514137Y-124200000D01*
X167424239Y-123748051D01*
X167178248Y-123379900D01*
X170695362Y-123379900D01*
X171392707Y-124077246D01*
X171392464Y-124355936D01*
X171512086Y-124645444D01*
X171733391Y-124867136D01*
X172022689Y-124987263D01*
X172335936Y-124987536D01*
X172625444Y-124867914D01*
X172847136Y-124646609D01*
X172967263Y-124357311D01*
X172967536Y-124044064D01*
X172847914Y-123754556D01*
X172626609Y-123532864D01*
X172337311Y-123412737D01*
X172057032Y-123412493D01*
X171222269Y-122577731D01*
X171069823Y-122475869D01*
X170890000Y-122440100D01*
X167204975Y-122440100D01*
X167424239Y-122111949D01*
X167514137Y-121660000D01*
X175265863Y-121660000D01*
X175355761Y-122111949D01*
X175611770Y-122495093D01*
X175994914Y-122751102D01*
X176446863Y-122841000D01*
X176493137Y-122841000D01*
X176945086Y-122751102D01*
X177328230Y-122495093D01*
X177584239Y-122111949D01*
X177674137Y-121660000D01*
X180345863Y-121660000D01*
X180435761Y-122111949D01*
X180691770Y-122495093D01*
X181074914Y-122751102D01*
X181526863Y-122841000D01*
X181573137Y-122841000D01*
X182025086Y-122751102D01*
X182408230Y-122495093D01*
X182664239Y-122111949D01*
X182754137Y-121660000D01*
X182664239Y-121208051D01*
X182408230Y-120824907D01*
X182025086Y-120568898D01*
X181573137Y-120479000D01*
X181526863Y-120479000D01*
X181074914Y-120568898D01*
X180691770Y-120824907D01*
X180435761Y-121208051D01*
X180345863Y-121660000D01*
X177674137Y-121660000D01*
X177584239Y-121208051D01*
X177328230Y-120824907D01*
X176945086Y-120568898D01*
X176493137Y-120479000D01*
X176446863Y-120479000D01*
X175994914Y-120568898D01*
X175611770Y-120824907D01*
X175355761Y-121208051D01*
X175265863Y-121660000D01*
X167514137Y-121660000D01*
X167424239Y-121208051D01*
X167168230Y-120824907D01*
X166785086Y-120568898D01*
X166333137Y-120479000D01*
X166286863Y-120479000D01*
X165834914Y-120568898D01*
X165451770Y-120824907D01*
X165195761Y-121208051D01*
X165105863Y-121660000D01*
X165195761Y-122111949D01*
X165415025Y-122440100D01*
X162124975Y-122440100D01*
X162344239Y-122111949D01*
X162434137Y-121660000D01*
X162344239Y-121208051D01*
X162088230Y-120824907D01*
X161705086Y-120568898D01*
X161253137Y-120479000D01*
X161206863Y-120479000D01*
X160754914Y-120568898D01*
X160371770Y-120824907D01*
X160115761Y-121208051D01*
X160025863Y-121660000D01*
X160115761Y-122111949D01*
X160355116Y-122470169D01*
X160326459Y-122475869D01*
X160174013Y-122577730D01*
X159060018Y-123691726D01*
X158958156Y-123844172D01*
X158939454Y-123938193D01*
X158725151Y-124152122D01*
X158605024Y-124441420D01*
X158604751Y-124754667D01*
X149875563Y-124754667D01*
X149931413Y-124671083D01*
X150025117Y-124200000D01*
X149931413Y-123728917D01*
X149664565Y-123329552D01*
X149265200Y-123062704D01*
X148794117Y-122969000D01*
X148745883Y-122969000D01*
X148274800Y-123062704D01*
X147875435Y-123329552D01*
X147608587Y-123728917D01*
X147514883Y-124200000D01*
X147485117Y-124200000D01*
X147391413Y-123728917D01*
X147124565Y-123329552D01*
X146725200Y-123062704D01*
X146254117Y-122969000D01*
X146205883Y-122969000D01*
X145734800Y-123062704D01*
X145335435Y-123329552D01*
X145068587Y-123728917D01*
X144974883Y-124200000D01*
X144201000Y-124200000D01*
X144201000Y-121660000D01*
X144974883Y-121660000D01*
X145068587Y-122131083D01*
X145335435Y-122530448D01*
X145734800Y-122797296D01*
X146205883Y-122891000D01*
X146254117Y-122891000D01*
X146725200Y-122797296D01*
X147124565Y-122530448D01*
X147391413Y-122131083D01*
X147485117Y-121660000D01*
X147514883Y-121660000D01*
X147608587Y-122131083D01*
X147875435Y-122530448D01*
X148274800Y-122797296D01*
X148745883Y-122891000D01*
X148794117Y-122891000D01*
X149265200Y-122797296D01*
X149664565Y-122530448D01*
X149931413Y-122131083D01*
X150025117Y-121660000D01*
X149931413Y-121188917D01*
X149664565Y-120789552D01*
X149265200Y-120522704D01*
X148794117Y-120429000D01*
X148745883Y-120429000D01*
X148274800Y-120522704D01*
X147875435Y-120789552D01*
X147608587Y-121188917D01*
X147514883Y-121660000D01*
X147485117Y-121660000D01*
X147391413Y-121188917D01*
X147124565Y-120789552D01*
X146725200Y-120522704D01*
X146254117Y-120429000D01*
X146205883Y-120429000D01*
X145734800Y-120522704D01*
X145335435Y-120789552D01*
X145068587Y-121188917D01*
X144974883Y-121660000D01*
X144201000Y-121660000D01*
X144201000Y-119120000D01*
X144974883Y-119120000D01*
X145068587Y-119591083D01*
X145335435Y-119990448D01*
X145734800Y-120257296D01*
X146205883Y-120351000D01*
X146254117Y-120351000D01*
X146725200Y-120257296D01*
X147124565Y-119990448D01*
X147391413Y-119591083D01*
X147485117Y-119120000D01*
X147514883Y-119120000D01*
X147608587Y-119591083D01*
X147875435Y-119990448D01*
X148274800Y-120257296D01*
X148745883Y-120351000D01*
X148794117Y-120351000D01*
X149265200Y-120257296D01*
X149664565Y-119990448D01*
X149931413Y-119591083D01*
X150025117Y-119120000D01*
X160025863Y-119120000D01*
X160115761Y-119571949D01*
X160371770Y-119955093D01*
X160754914Y-120211102D01*
X161206863Y-120301000D01*
X161253137Y-120301000D01*
X161705086Y-120211102D01*
X162088230Y-119955093D01*
X162344239Y-119571949D01*
X162434137Y-119120000D01*
X165105863Y-119120000D01*
X165195761Y-119571949D01*
X165451770Y-119955093D01*
X165834914Y-120211102D01*
X166286863Y-120301000D01*
X166333137Y-120301000D01*
X166785086Y-120211102D01*
X167168230Y-119955093D01*
X167424239Y-119571949D01*
X167514137Y-119120000D01*
X175265863Y-119120000D01*
X175355761Y-119571949D01*
X175611770Y-119955093D01*
X175994914Y-120211102D01*
X176446863Y-120301000D01*
X176493137Y-120301000D01*
X176945086Y-120211102D01*
X177328230Y-119955093D01*
X177584239Y-119571949D01*
X177674137Y-119120000D01*
X180345863Y-119120000D01*
X180435761Y-119571949D01*
X180691770Y-119955093D01*
X181074914Y-120211102D01*
X181526863Y-120301000D01*
X181573137Y-120301000D01*
X182025086Y-120211102D01*
X182408230Y-119955093D01*
X182664239Y-119571949D01*
X182754137Y-119120000D01*
X182664239Y-118668051D01*
X182408230Y-118284907D01*
X182025086Y-118028898D01*
X181573137Y-117939000D01*
X181526863Y-117939000D01*
X181074914Y-118028898D01*
X180691770Y-118284907D01*
X180435761Y-118668051D01*
X180345863Y-119120000D01*
X177674137Y-119120000D01*
X177584239Y-118668051D01*
X177328230Y-118284907D01*
X176945086Y-118028898D01*
X176493137Y-117939000D01*
X176446863Y-117939000D01*
X175994914Y-118028898D01*
X175611770Y-118284907D01*
X175355761Y-118668051D01*
X175265863Y-119120000D01*
X167514137Y-119120000D01*
X167424239Y-118668051D01*
X167168230Y-118284907D01*
X166785086Y-118028898D01*
X166333137Y-117939000D01*
X166286863Y-117939000D01*
X165834914Y-118028898D01*
X165451770Y-118284907D01*
X165195761Y-118668051D01*
X165105863Y-119120000D01*
X162434137Y-119120000D01*
X162344239Y-118668051D01*
X162088230Y-118284907D01*
X161705086Y-118028898D01*
X161253137Y-117939000D01*
X161206863Y-117939000D01*
X160754914Y-118028898D01*
X160371770Y-118284907D01*
X160115761Y-118668051D01*
X160025863Y-119120000D01*
X150025117Y-119120000D01*
X149931413Y-118648917D01*
X149664565Y-118249552D01*
X149265200Y-117982704D01*
X148794117Y-117889000D01*
X148745883Y-117889000D01*
X148274800Y-117982704D01*
X147875435Y-118249552D01*
X147608587Y-118648917D01*
X147514883Y-119120000D01*
X147485117Y-119120000D01*
X147391413Y-118648917D01*
X147124565Y-118249552D01*
X146725200Y-117982704D01*
X146254117Y-117889000D01*
X146205883Y-117889000D01*
X145734800Y-117982704D01*
X145335435Y-118249552D01*
X145068587Y-118648917D01*
X144974883Y-119120000D01*
X144201000Y-119120000D01*
X144201000Y-116580000D01*
X144974883Y-116580000D01*
X145068587Y-117051083D01*
X145335435Y-117450448D01*
X145734800Y-117717296D01*
X146205883Y-117811000D01*
X146254117Y-117811000D01*
X146725200Y-117717296D01*
X147124565Y-117450448D01*
X147391413Y-117051083D01*
X147485117Y-116580000D01*
X147514883Y-116580000D01*
X147608587Y-117051083D01*
X147875435Y-117450448D01*
X148274800Y-117717296D01*
X148745883Y-117811000D01*
X148794117Y-117811000D01*
X149265200Y-117717296D01*
X149664565Y-117450448D01*
X149931413Y-117051083D01*
X150025117Y-116580000D01*
X160025863Y-116580000D01*
X160115761Y-117031949D01*
X160371770Y-117415093D01*
X160754914Y-117671102D01*
X161206863Y-117761000D01*
X161253137Y-117761000D01*
X161705086Y-117671102D01*
X162088230Y-117415093D01*
X162344239Y-117031949D01*
X162434137Y-116580000D01*
X165105863Y-116580000D01*
X165195761Y-117031949D01*
X165451770Y-117415093D01*
X165834914Y-117671102D01*
X166286863Y-117761000D01*
X166333137Y-117761000D01*
X166785086Y-117671102D01*
X167168230Y-117415093D01*
X167424239Y-117031949D01*
X167514137Y-116580000D01*
X175265863Y-116580000D01*
X175355761Y-117031949D01*
X175611770Y-117415093D01*
X175994914Y-117671102D01*
X176446863Y-117761000D01*
X176493137Y-117761000D01*
X176945086Y-117671102D01*
X177328230Y-117415093D01*
X177584239Y-117031949D01*
X177674137Y-116580000D01*
X180345863Y-116580000D01*
X180435761Y-117031949D01*
X180691770Y-117415093D01*
X181074914Y-117671102D01*
X181526863Y-117761000D01*
X181573137Y-117761000D01*
X182025086Y-117671102D01*
X182408230Y-117415093D01*
X182664239Y-117031949D01*
X182754137Y-116580000D01*
X182664239Y-116128051D01*
X182408230Y-115744907D01*
X182025086Y-115488898D01*
X181573137Y-115399000D01*
X181526863Y-115399000D01*
X181074914Y-115488898D01*
X180691770Y-115744907D01*
X180435761Y-116128051D01*
X180345863Y-116580000D01*
X177674137Y-116580000D01*
X177584239Y-116128051D01*
X177328230Y-115744907D01*
X176945086Y-115488898D01*
X176493137Y-115399000D01*
X176446863Y-115399000D01*
X175994914Y-115488898D01*
X175611770Y-115744907D01*
X175355761Y-116128051D01*
X175265863Y-116580000D01*
X167514137Y-116580000D01*
X167424239Y-116128051D01*
X167168230Y-115744907D01*
X166785086Y-115488898D01*
X166333137Y-115399000D01*
X166286863Y-115399000D01*
X165834914Y-115488898D01*
X165451770Y-115744907D01*
X165195761Y-116128051D01*
X165105863Y-116580000D01*
X162434137Y-116580000D01*
X162344239Y-116128051D01*
X162088230Y-115744907D01*
X161705086Y-115488898D01*
X161253137Y-115399000D01*
X161206863Y-115399000D01*
X160754914Y-115488898D01*
X160371770Y-115744907D01*
X160115761Y-116128051D01*
X160025863Y-116580000D01*
X150025117Y-116580000D01*
X149931413Y-116108917D01*
X149664565Y-115709552D01*
X149265200Y-115442704D01*
X148794117Y-115349000D01*
X148745883Y-115349000D01*
X148274800Y-115442704D01*
X147875435Y-115709552D01*
X147608587Y-116108917D01*
X147514883Y-116580000D01*
X147485117Y-116580000D01*
X147391413Y-116108917D01*
X147124565Y-115709552D01*
X146725200Y-115442704D01*
X146254117Y-115349000D01*
X146205883Y-115349000D01*
X145734800Y-115442704D01*
X145335435Y-115709552D01*
X145068587Y-116108917D01*
X144974883Y-116580000D01*
X144201000Y-116580000D01*
X144201000Y-114040000D01*
X144974883Y-114040000D01*
X145068587Y-114511083D01*
X145335435Y-114910448D01*
X145734800Y-115177296D01*
X146205883Y-115271000D01*
X146254117Y-115271000D01*
X146725200Y-115177296D01*
X147124565Y-114910448D01*
X147391413Y-114511083D01*
X147485117Y-114040000D01*
X147514883Y-114040000D01*
X147608587Y-114511083D01*
X147875435Y-114910448D01*
X148274800Y-115177296D01*
X148745883Y-115271000D01*
X148794117Y-115271000D01*
X149265200Y-115177296D01*
X149664565Y-114910448D01*
X149931413Y-114511083D01*
X150025117Y-114040000D01*
X149931413Y-113568917D01*
X149664565Y-113169552D01*
X149265200Y-112902704D01*
X148794117Y-112809000D01*
X148745883Y-112809000D01*
X148274800Y-112902704D01*
X147875435Y-113169552D01*
X147608587Y-113568917D01*
X147514883Y-114040000D01*
X147485117Y-114040000D01*
X147391413Y-113568917D01*
X147124565Y-113169552D01*
X146725200Y-112902704D01*
X146254117Y-112809000D01*
X146205883Y-112809000D01*
X145734800Y-112902704D01*
X145335435Y-113169552D01*
X145068587Y-113568917D01*
X144974883Y-114040000D01*
X144201000Y-114040000D01*
X144201000Y-111500000D01*
X144974883Y-111500000D01*
X145068587Y-111971083D01*
X145335435Y-112370448D01*
X145734800Y-112637296D01*
X146205883Y-112731000D01*
X146254117Y-112731000D01*
X146725200Y-112637296D01*
X147124565Y-112370448D01*
X147391413Y-111971083D01*
X147485117Y-111500000D01*
X147514883Y-111500000D01*
X147608587Y-111971083D01*
X147875435Y-112370448D01*
X148274800Y-112637296D01*
X148745883Y-112731000D01*
X148794117Y-112731000D01*
X149265200Y-112637296D01*
X149664565Y-112370448D01*
X149931413Y-111971083D01*
X150025117Y-111500000D01*
X149931413Y-111028917D01*
X149664565Y-110629552D01*
X149265200Y-110362704D01*
X148794117Y-110269000D01*
X148745883Y-110269000D01*
X148274800Y-110362704D01*
X147875435Y-110629552D01*
X147608587Y-111028917D01*
X147514883Y-111500000D01*
X147485117Y-111500000D01*
X147391413Y-111028917D01*
X147124565Y-110629552D01*
X146725200Y-110362704D01*
X146254117Y-110269000D01*
X146205883Y-110269000D01*
X145734800Y-110362704D01*
X145335435Y-110629552D01*
X145068587Y-111028917D01*
X144974883Y-111500000D01*
X144201000Y-111500000D01*
X144201000Y-108960000D01*
X144974883Y-108960000D01*
X145068587Y-109431083D01*
X145335435Y-109830448D01*
X145734800Y-110097296D01*
X146205883Y-110191000D01*
X146254117Y-110191000D01*
X146725200Y-110097296D01*
X147124565Y-109830448D01*
X147391413Y-109431083D01*
X147485117Y-108960000D01*
X147514883Y-108960000D01*
X147608587Y-109431083D01*
X147875435Y-109830448D01*
X148274800Y-110097296D01*
X148745883Y-110191000D01*
X148794117Y-110191000D01*
X149265200Y-110097296D01*
X149664565Y-109830448D01*
X149931413Y-109431083D01*
X150025117Y-108960000D01*
X149931413Y-108488917D01*
X149664565Y-108089552D01*
X149265200Y-107822704D01*
X148794117Y-107729000D01*
X148745883Y-107729000D01*
X148274800Y-107822704D01*
X147875435Y-108089552D01*
X147608587Y-108488917D01*
X147514883Y-108960000D01*
X147485117Y-108960000D01*
X147391413Y-108488917D01*
X147124565Y-108089552D01*
X146725200Y-107822704D01*
X146254117Y-107729000D01*
X146205883Y-107729000D01*
X145734800Y-107822704D01*
X145335435Y-108089552D01*
X145068587Y-108488917D01*
X144974883Y-108960000D01*
X144201000Y-108960000D01*
X144201000Y-96260000D01*
X144974883Y-96260000D01*
X145068587Y-96731083D01*
X145335435Y-97130448D01*
X145734800Y-97397296D01*
X146205883Y-97491000D01*
X146254117Y-97491000D01*
X146725200Y-97397296D01*
X147124565Y-97130448D01*
X147391413Y-96731083D01*
X147485117Y-96260000D01*
X147391413Y-95788917D01*
X147124565Y-95389552D01*
X146725200Y-95122704D01*
X146254117Y-95029000D01*
X146205883Y-95029000D01*
X145734800Y-95122704D01*
X145335435Y-95389552D01*
X145068587Y-95788917D01*
X144974883Y-96260000D01*
X144201000Y-96260000D01*
X144201000Y-93720000D01*
X144974883Y-93720000D01*
X145068587Y-94191083D01*
X145335435Y-94590448D01*
X145734800Y-94857296D01*
X146205883Y-94951000D01*
X146254117Y-94951000D01*
X146725200Y-94857296D01*
X147124565Y-94590448D01*
X147381788Y-94205488D01*
X147498355Y-94486924D01*
X147888642Y-94915183D01*
X148313947Y-95114917D01*
X148274800Y-95122704D01*
X147875435Y-95389552D01*
X147608587Y-95788917D01*
X147514883Y-96260000D01*
X147608587Y-96731083D01*
X147875435Y-97130448D01*
X147999580Y-97213399D01*
X147346701Y-97213399D01*
X147166878Y-97249168D01*
X147014432Y-97351029D01*
X146747732Y-97617730D01*
X146747729Y-97617732D01*
X146706481Y-97658980D01*
X146254117Y-97569000D01*
X146205883Y-97569000D01*
X145734800Y-97662704D01*
X145335435Y-97929552D01*
X145068587Y-98328917D01*
X144974883Y-98800000D01*
X145068587Y-99271083D01*
X145335435Y-99670448D01*
X145734800Y-99937296D01*
X146205883Y-100031000D01*
X146254117Y-100031000D01*
X146725200Y-99937296D01*
X147124565Y-99670448D01*
X147391413Y-99271083D01*
X147485117Y-98800000D01*
X147391413Y-98328917D01*
X147381083Y-98313456D01*
X147412268Y-98282271D01*
X147412270Y-98282268D01*
X147541339Y-98153199D01*
X147725998Y-98153199D01*
X147608587Y-98328917D01*
X147514883Y-98800000D01*
X147608587Y-99271083D01*
X147835112Y-99610100D01*
X147490000Y-99610100D01*
X147310177Y-99645869D01*
X147157731Y-99747731D01*
X146747732Y-100157730D01*
X146747729Y-100157732D01*
X146706481Y-100198980D01*
X146254117Y-100109000D01*
X146205883Y-100109000D01*
X145734800Y-100202704D01*
X145335435Y-100469552D01*
X145068587Y-100868917D01*
X144974883Y-101340000D01*
X145068587Y-101811083D01*
X145335435Y-102210448D01*
X145734800Y-102477296D01*
X146205883Y-102571000D01*
X146254117Y-102571000D01*
X146725200Y-102477296D01*
X147124565Y-102210448D01*
X147391413Y-101811083D01*
X147485117Y-101340000D01*
X147391413Y-100868917D01*
X147381083Y-100853456D01*
X147412268Y-100822271D01*
X147412270Y-100822268D01*
X147684638Y-100549900D01*
X147821748Y-100549900D01*
X147608587Y-100868917D01*
X147514883Y-101340000D01*
X147608587Y-101811083D01*
X147841793Y-102160100D01*
X147480000Y-102160100D01*
X147300177Y-102195869D01*
X147147731Y-102297730D01*
X146747732Y-102697730D01*
X146747729Y-102697732D01*
X146706481Y-102738980D01*
X146254117Y-102649000D01*
X146205883Y-102649000D01*
X145734800Y-102742704D01*
X145335435Y-103009552D01*
X145068587Y-103408917D01*
X144974883Y-103880000D01*
X145068587Y-104351083D01*
X145335435Y-104750448D01*
X145734800Y-105017296D01*
X146205883Y-105111000D01*
X146254117Y-105111000D01*
X146725200Y-105017296D01*
X147124565Y-104750448D01*
X147391413Y-104351083D01*
X147485117Y-103880000D01*
X147391413Y-103408917D01*
X147381083Y-103393456D01*
X147412268Y-103362271D01*
X147412270Y-103362268D01*
X147674639Y-103099900D01*
X147815066Y-103099900D01*
X147608587Y-103408917D01*
X147514883Y-103880000D01*
X147608587Y-104351083D01*
X147828430Y-104680100D01*
X147500000Y-104680100D01*
X147324078Y-104715093D01*
X147320177Y-104715869D01*
X147167730Y-104817731D01*
X146747732Y-105237730D01*
X146747729Y-105237732D01*
X146706481Y-105278980D01*
X146254117Y-105189000D01*
X146205883Y-105189000D01*
X145734800Y-105282704D01*
X145335435Y-105549552D01*
X145068587Y-105948917D01*
X144974883Y-106420000D01*
X145068587Y-106891083D01*
X145335435Y-107290448D01*
X145734800Y-107557296D01*
X146205883Y-107651000D01*
X146254117Y-107651000D01*
X146725200Y-107557296D01*
X147124565Y-107290448D01*
X147391413Y-106891083D01*
X147485117Y-106420000D01*
X147391413Y-105948917D01*
X147381083Y-105933456D01*
X147412268Y-105902271D01*
X147412270Y-105902268D01*
X147694639Y-105619900D01*
X147828430Y-105619900D01*
X147608587Y-105948917D01*
X147514883Y-106420000D01*
X147608587Y-106891083D01*
X147875435Y-107290448D01*
X148274800Y-107557296D01*
X148745883Y-107651000D01*
X148794117Y-107651000D01*
X149265200Y-107557296D01*
X149664565Y-107290448D01*
X149931413Y-106891083D01*
X149931648Y-106889900D01*
X151661536Y-106889900D01*
X151661536Y-107210000D01*
X151688103Y-107351190D01*
X151771546Y-107480865D01*
X151898866Y-107567859D01*
X152050000Y-107598464D01*
X153050000Y-107598464D01*
X153191190Y-107571897D01*
X153320865Y-107488454D01*
X153326710Y-107479900D01*
X154090000Y-107479900D01*
X154269823Y-107444131D01*
X154422269Y-107342269D01*
X155955568Y-105808971D01*
X156057430Y-105656524D01*
X156065121Y-105617859D01*
X156093199Y-105476701D01*
X156093199Y-101184091D01*
X156111065Y-101201988D01*
X156400363Y-101322115D01*
X156713610Y-101322388D01*
X156757788Y-101304134D01*
X156757788Y-105839206D01*
X156504133Y-106092861D01*
X156402271Y-106245307D01*
X156383569Y-106339328D01*
X156169266Y-106553257D01*
X156049139Y-106842555D01*
X156048866Y-107155802D01*
X156166335Y-107440100D01*
X155850000Y-107440100D01*
X155670177Y-107475869D01*
X155517731Y-107577731D01*
X153897731Y-109197731D01*
X153795869Y-109350177D01*
X153769740Y-109481536D01*
X153480000Y-109481536D01*
X153338810Y-109508103D01*
X153209135Y-109591546D01*
X153122141Y-109718866D01*
X153091536Y-109870000D01*
X153091536Y-111170000D01*
X153118103Y-111311190D01*
X153201546Y-111440865D01*
X153328866Y-111527859D01*
X153480000Y-111558464D01*
X154980000Y-111558464D01*
X155121190Y-111531897D01*
X155250865Y-111448454D01*
X155337859Y-111321134D01*
X155368464Y-111170000D01*
X155368464Y-109870000D01*
X155341897Y-109728810D01*
X155258454Y-109599135D01*
X155131134Y-109512141D01*
X154980000Y-109481536D01*
X154943002Y-109481536D01*
X155664259Y-108760279D01*
X155782086Y-109045444D01*
X156003391Y-109267136D01*
X156292689Y-109387263D01*
X156460100Y-109387409D01*
X156460100Y-109481536D01*
X156180000Y-109481536D01*
X156038810Y-109508103D01*
X155909135Y-109591546D01*
X155822141Y-109718866D01*
X155791536Y-109870000D01*
X155791536Y-111170000D01*
X155818103Y-111311190D01*
X155901546Y-111440865D01*
X156028866Y-111527859D01*
X156180000Y-111558464D01*
X157680000Y-111558464D01*
X157821190Y-111531897D01*
X157950865Y-111448454D01*
X158037859Y-111321134D01*
X158068464Y-111170000D01*
X158068464Y-109870000D01*
X158041897Y-109728810D01*
X157958454Y-109599135D01*
X157831134Y-109512141D01*
X157680000Y-109481536D01*
X157399900Y-109481536D01*
X157399900Y-109080000D01*
X157382194Y-108990986D01*
X157470069Y-108932269D01*
X158682270Y-107720069D01*
X158750100Y-107618554D01*
X158750100Y-111068718D01*
X158785869Y-111248541D01*
X158887731Y-111400987D01*
X160563524Y-113076781D01*
X160371770Y-113204907D01*
X160115761Y-113588051D01*
X160025863Y-114040000D01*
X160115761Y-114491949D01*
X160371770Y-114875093D01*
X160754914Y-115131102D01*
X161206863Y-115221000D01*
X161253137Y-115221000D01*
X161705086Y-115131102D01*
X162088230Y-114875093D01*
X162344239Y-114491949D01*
X162434137Y-114040000D01*
X162344239Y-113588051D01*
X162247452Y-113443199D01*
X165292548Y-113443199D01*
X165195761Y-113588051D01*
X165105863Y-114040000D01*
X165195761Y-114491949D01*
X165451770Y-114875093D01*
X165834914Y-115131102D01*
X166286863Y-115221000D01*
X166333137Y-115221000D01*
X166785086Y-115131102D01*
X167168230Y-114875093D01*
X167424239Y-114491949D01*
X167514137Y-114040000D01*
X167424239Y-113588051D01*
X167327452Y-113443199D01*
X175208661Y-113443199D01*
X175355388Y-113589926D01*
X175265863Y-114040000D01*
X175355761Y-114491949D01*
X175611770Y-114875093D01*
X175994914Y-115131102D01*
X176446863Y-115221000D01*
X176493137Y-115221000D01*
X176945086Y-115131102D01*
X177328230Y-114875093D01*
X177584239Y-114491949D01*
X177674137Y-114040000D01*
X180345863Y-114040000D01*
X180435761Y-114491949D01*
X180691770Y-114875093D01*
X181074914Y-115131102D01*
X181526863Y-115221000D01*
X181573137Y-115221000D01*
X182025086Y-115131102D01*
X182408230Y-114875093D01*
X182664239Y-114491949D01*
X182754137Y-114040000D01*
X182664239Y-113588051D01*
X182408230Y-113204907D01*
X182025086Y-112948898D01*
X181573137Y-112859000D01*
X181526863Y-112859000D01*
X181074914Y-112948898D01*
X180691770Y-113204907D01*
X180435761Y-113588051D01*
X180345863Y-114040000D01*
X177674137Y-114040000D01*
X177584239Y-113588051D01*
X177328230Y-113204907D01*
X176945086Y-112948898D01*
X176493137Y-112859000D01*
X176446863Y-112859000D01*
X176035386Y-112940848D01*
X175735568Y-112641030D01*
X175583122Y-112539168D01*
X175403299Y-112503399D01*
X166916343Y-112503399D01*
X167168230Y-112335093D01*
X167424239Y-111951949D01*
X167514137Y-111500000D01*
X167424239Y-111048051D01*
X167168230Y-110664907D01*
X167115838Y-110629900D01*
X174935362Y-110629900D01*
X175355388Y-111049926D01*
X175265863Y-111500000D01*
X175355761Y-111951949D01*
X175611770Y-112335093D01*
X175994914Y-112591102D01*
X176446863Y-112681000D01*
X176493137Y-112681000D01*
X176945086Y-112591102D01*
X177328230Y-112335093D01*
X177584239Y-111951949D01*
X177674137Y-111500000D01*
X180345863Y-111500000D01*
X180435761Y-111951949D01*
X180691770Y-112335093D01*
X181074914Y-112591102D01*
X181526863Y-112681000D01*
X181573137Y-112681000D01*
X182025086Y-112591102D01*
X182408230Y-112335093D01*
X182664239Y-111951949D01*
X182754137Y-111500000D01*
X182664239Y-111048051D01*
X182408230Y-110664907D01*
X182025086Y-110408898D01*
X181573137Y-110319000D01*
X181526863Y-110319000D01*
X181074914Y-110408898D01*
X180691770Y-110664907D01*
X180435761Y-111048051D01*
X180345863Y-111500000D01*
X177674137Y-111500000D01*
X177584239Y-111048051D01*
X177328230Y-110664907D01*
X176945086Y-110408898D01*
X176493137Y-110319000D01*
X176446863Y-110319000D01*
X176035386Y-110400848D01*
X175462269Y-109827731D01*
X175309823Y-109725869D01*
X175130000Y-109690100D01*
X167238384Y-109690100D01*
X167424239Y-109411949D01*
X167514137Y-108960000D01*
X167424239Y-108508051D01*
X167211657Y-108189900D01*
X175035362Y-108189900D01*
X175355388Y-108509926D01*
X175265863Y-108960000D01*
X175355761Y-109411949D01*
X175611770Y-109795093D01*
X175994914Y-110051102D01*
X176446863Y-110141000D01*
X176493137Y-110141000D01*
X176945086Y-110051102D01*
X177328230Y-109795093D01*
X177584239Y-109411949D01*
X177674137Y-108960000D01*
X180345863Y-108960000D01*
X180435761Y-109411949D01*
X180691770Y-109795093D01*
X181074914Y-110051102D01*
X181526863Y-110141000D01*
X181573137Y-110141000D01*
X182025086Y-110051102D01*
X182408230Y-109795093D01*
X182664239Y-109411949D01*
X182754137Y-108960000D01*
X182664239Y-108508051D01*
X182408230Y-108124907D01*
X182025086Y-107868898D01*
X181573137Y-107779000D01*
X181526863Y-107779000D01*
X181074914Y-107868898D01*
X180691770Y-108124907D01*
X180435761Y-108508051D01*
X180345863Y-108960000D01*
X177674137Y-108960000D01*
X177584239Y-108508051D01*
X177328230Y-108124907D01*
X176945086Y-107868898D01*
X176493137Y-107779000D01*
X176446863Y-107779000D01*
X176035386Y-107860848D01*
X175562269Y-107387731D01*
X175409823Y-107285869D01*
X175230000Y-107250100D01*
X167171566Y-107250100D01*
X167424239Y-106871949D01*
X167514137Y-106420000D01*
X167424239Y-105968051D01*
X167198293Y-105629900D01*
X175015362Y-105629900D01*
X175337732Y-105952271D01*
X175337735Y-105952273D01*
X175355388Y-105969926D01*
X175265863Y-106420000D01*
X175355761Y-106871949D01*
X175611770Y-107255093D01*
X175994914Y-107511102D01*
X176446863Y-107601000D01*
X176493137Y-107601000D01*
X176945086Y-107511102D01*
X177328230Y-107255093D01*
X177584239Y-106871949D01*
X177674137Y-106420000D01*
X180345863Y-106420000D01*
X180435761Y-106871949D01*
X180691770Y-107255093D01*
X181074914Y-107511102D01*
X181526863Y-107601000D01*
X181573137Y-107601000D01*
X182025086Y-107511102D01*
X182408230Y-107255093D01*
X182664239Y-106871949D01*
X182754137Y-106420000D01*
X182664239Y-105968051D01*
X182408230Y-105584907D01*
X182025086Y-105328898D01*
X181573137Y-105239000D01*
X181526863Y-105239000D01*
X181074914Y-105328898D01*
X180691770Y-105584907D01*
X180435761Y-105968051D01*
X180345863Y-106420000D01*
X177674137Y-106420000D01*
X177584239Y-105968051D01*
X177328230Y-105584907D01*
X176945086Y-105328898D01*
X176493137Y-105239000D01*
X176446863Y-105239000D01*
X176035386Y-105320848D01*
X176002273Y-105287735D01*
X176002271Y-105287732D01*
X175542269Y-104827731D01*
X175389823Y-104725869D01*
X175210000Y-104690100D01*
X167184930Y-104690100D01*
X167424239Y-104331949D01*
X167514137Y-103880000D01*
X167424239Y-103428051D01*
X167218339Y-103119900D01*
X175045362Y-103119900D01*
X175355388Y-103429926D01*
X175265863Y-103880000D01*
X175355761Y-104331949D01*
X175611770Y-104715093D01*
X175994914Y-104971102D01*
X176446863Y-105061000D01*
X176493137Y-105061000D01*
X176945086Y-104971102D01*
X177328230Y-104715093D01*
X177584239Y-104331949D01*
X177674137Y-103880000D01*
X180345863Y-103880000D01*
X180435761Y-104331949D01*
X180691770Y-104715093D01*
X181074914Y-104971102D01*
X181526863Y-105061000D01*
X181573137Y-105061000D01*
X182025086Y-104971102D01*
X182408230Y-104715093D01*
X182664239Y-104331949D01*
X182754137Y-103880000D01*
X182664239Y-103428051D01*
X182408230Y-103044907D01*
X182025086Y-102788898D01*
X181573137Y-102699000D01*
X181526863Y-102699000D01*
X181074914Y-102788898D01*
X180691770Y-103044907D01*
X180435761Y-103428051D01*
X180345863Y-103880000D01*
X177674137Y-103880000D01*
X177584239Y-103428051D01*
X177328230Y-103044907D01*
X176945086Y-102788898D01*
X176493137Y-102699000D01*
X176446863Y-102699000D01*
X176035386Y-102780848D01*
X175572269Y-102317731D01*
X175419823Y-102215869D01*
X175240000Y-102180100D01*
X167160737Y-102180100D01*
X167168230Y-102175093D01*
X167424239Y-101791949D01*
X167514137Y-101340000D01*
X167424239Y-100888051D01*
X167204975Y-100559900D01*
X175025362Y-100559900D01*
X175337732Y-100872271D01*
X175337735Y-100872273D01*
X175355388Y-100889926D01*
X175265863Y-101340000D01*
X175355761Y-101791949D01*
X175611770Y-102175093D01*
X175994914Y-102431102D01*
X176446863Y-102521000D01*
X176493137Y-102521000D01*
X176945086Y-102431102D01*
X177328230Y-102175093D01*
X177584239Y-101791949D01*
X177674137Y-101340000D01*
X180345863Y-101340000D01*
X180435761Y-101791949D01*
X180691770Y-102175093D01*
X181074914Y-102431102D01*
X181526863Y-102521000D01*
X181573137Y-102521000D01*
X182025086Y-102431102D01*
X182408230Y-102175093D01*
X182664239Y-101791949D01*
X182754137Y-101340000D01*
X182664239Y-100888051D01*
X182408230Y-100504907D01*
X182025086Y-100248898D01*
X181573137Y-100159000D01*
X181526863Y-100159000D01*
X181074914Y-100248898D01*
X180691770Y-100504907D01*
X180435761Y-100888051D01*
X180345863Y-101340000D01*
X177674137Y-101340000D01*
X177584239Y-100888051D01*
X177328230Y-100504907D01*
X176945086Y-100248898D01*
X176493137Y-100159000D01*
X176446863Y-100159000D01*
X176035386Y-100240848D01*
X176002273Y-100207735D01*
X176002271Y-100207732D01*
X175552269Y-99757731D01*
X175399823Y-99655869D01*
X175220000Y-99620100D01*
X167178248Y-99620100D01*
X167424239Y-99251949D01*
X167514137Y-98800000D01*
X167424239Y-98348051D01*
X167198293Y-98009900D01*
X175015362Y-98009900D01*
X175355388Y-98349926D01*
X175265863Y-98800000D01*
X175355761Y-99251949D01*
X175611770Y-99635093D01*
X175994914Y-99891102D01*
X176446863Y-99981000D01*
X176493137Y-99981000D01*
X176945086Y-99891102D01*
X177328230Y-99635093D01*
X177584239Y-99251949D01*
X177674137Y-98800000D01*
X180345863Y-98800000D01*
X180435761Y-99251949D01*
X180691770Y-99635093D01*
X181074914Y-99891102D01*
X181526863Y-99981000D01*
X181573137Y-99981000D01*
X182025086Y-99891102D01*
X182408230Y-99635093D01*
X182664239Y-99251949D01*
X182754137Y-98800000D01*
X182664239Y-98348051D01*
X182408230Y-97964907D01*
X182025086Y-97708898D01*
X181573137Y-97619000D01*
X181526863Y-97619000D01*
X181074914Y-97708898D01*
X180691770Y-97964907D01*
X180435761Y-98348051D01*
X180345863Y-98800000D01*
X177674137Y-98800000D01*
X177584239Y-98348051D01*
X177328230Y-97964907D01*
X176945086Y-97708898D01*
X176493137Y-97619000D01*
X176446863Y-97619000D01*
X176035386Y-97700848D01*
X175542269Y-97207731D01*
X175389823Y-97105869D01*
X175210000Y-97070100D01*
X167184930Y-97070100D01*
X167424239Y-96711949D01*
X167514137Y-96260000D01*
X167424239Y-95808051D01*
X167168230Y-95424907D01*
X167160737Y-95419900D01*
X174965362Y-95419900D01*
X175355388Y-95809926D01*
X175265863Y-96260000D01*
X175355761Y-96711949D01*
X175611770Y-97095093D01*
X175994914Y-97351102D01*
X176446863Y-97441000D01*
X176493137Y-97441000D01*
X176945086Y-97351102D01*
X177328230Y-97095093D01*
X177584239Y-96711949D01*
X177674137Y-96260000D01*
X180345863Y-96260000D01*
X180435761Y-96711949D01*
X180691770Y-97095093D01*
X181074914Y-97351102D01*
X181526863Y-97441000D01*
X181573137Y-97441000D01*
X182025086Y-97351102D01*
X182408230Y-97095093D01*
X182664239Y-96711949D01*
X182754137Y-96260000D01*
X182664239Y-95808051D01*
X182408230Y-95424907D01*
X182025086Y-95168898D01*
X181573137Y-95079000D01*
X181526863Y-95079000D01*
X181074914Y-95168898D01*
X180691770Y-95424907D01*
X180435761Y-95808051D01*
X180345863Y-96260000D01*
X177674137Y-96260000D01*
X177584239Y-95808051D01*
X177328230Y-95424907D01*
X176945086Y-95168898D01*
X176493137Y-95079000D01*
X176446863Y-95079000D01*
X176035386Y-95160848D01*
X175492269Y-94617731D01*
X175339823Y-94515869D01*
X175160000Y-94480100D01*
X167218339Y-94480100D01*
X167424239Y-94171949D01*
X167514137Y-93720000D01*
X175265863Y-93720000D01*
X175355761Y-94171949D01*
X175611770Y-94555093D01*
X175994914Y-94811102D01*
X176446863Y-94901000D01*
X176493137Y-94901000D01*
X176945086Y-94811102D01*
X177328230Y-94555093D01*
X177584239Y-94171949D01*
X177674137Y-93720000D01*
X180345863Y-93720000D01*
X180435761Y-94171949D01*
X180691770Y-94555093D01*
X181074914Y-94811102D01*
X181526863Y-94901000D01*
X181573137Y-94901000D01*
X182025086Y-94811102D01*
X182408230Y-94555093D01*
X182664239Y-94171949D01*
X182754137Y-93720000D01*
X182664239Y-93268051D01*
X182408230Y-92884907D01*
X182025086Y-92628898D01*
X181573137Y-92539000D01*
X181526863Y-92539000D01*
X181074914Y-92628898D01*
X180691770Y-92884907D01*
X180435761Y-93268051D01*
X180345863Y-93720000D01*
X177674137Y-93720000D01*
X177584239Y-93268051D01*
X177328230Y-92884907D01*
X176945086Y-92628898D01*
X176493137Y-92539000D01*
X176446863Y-92539000D01*
X175994914Y-92628898D01*
X175611770Y-92884907D01*
X175355761Y-93268051D01*
X175265863Y-93720000D01*
X167514137Y-93720000D01*
X167424239Y-93268051D01*
X167168230Y-92884907D01*
X166785086Y-92628898D01*
X166333137Y-92539000D01*
X166286863Y-92539000D01*
X165834914Y-92628898D01*
X165451770Y-92884907D01*
X165195761Y-93268051D01*
X165105863Y-93720000D01*
X165195761Y-94171949D01*
X165401661Y-94480100D01*
X162138339Y-94480100D01*
X162344239Y-94171949D01*
X162434137Y-93720000D01*
X162344239Y-93268051D01*
X162088230Y-92884907D01*
X161705086Y-92628898D01*
X161253137Y-92539000D01*
X161206863Y-92539000D01*
X160754914Y-92628898D01*
X160371770Y-92884907D01*
X160306733Y-92982242D01*
X160306733Y-91917758D01*
X160371770Y-92015093D01*
X160754914Y-92271102D01*
X161206863Y-92361000D01*
X161253137Y-92361000D01*
X161705086Y-92271102D01*
X162088230Y-92015093D01*
X162344239Y-91631949D01*
X162434137Y-91180000D01*
X165105863Y-91180000D01*
X165195761Y-91631949D01*
X165451770Y-92015093D01*
X165834914Y-92271102D01*
X166286863Y-92361000D01*
X166333137Y-92361000D01*
X166785086Y-92271102D01*
X167168230Y-92015093D01*
X167424239Y-91631949D01*
X167514137Y-91180000D01*
X175265863Y-91180000D01*
X175355761Y-91631949D01*
X175611770Y-92015093D01*
X175994914Y-92271102D01*
X176446863Y-92361000D01*
X176493137Y-92361000D01*
X176945086Y-92271102D01*
X177328230Y-92015093D01*
X177584239Y-91631949D01*
X177674137Y-91180000D01*
X180345863Y-91180000D01*
X180435761Y-91631949D01*
X180691770Y-92015093D01*
X181074914Y-92271102D01*
X181526863Y-92361000D01*
X181573137Y-92361000D01*
X182025086Y-92271102D01*
X182408230Y-92015093D01*
X182664239Y-91631949D01*
X182754137Y-91180000D01*
X182664239Y-90728051D01*
X182408230Y-90344907D01*
X182025086Y-90088898D01*
X181573137Y-89999000D01*
X181526863Y-89999000D01*
X181074914Y-90088898D01*
X180691770Y-90344907D01*
X180435761Y-90728051D01*
X180345863Y-91180000D01*
X177674137Y-91180000D01*
X177584239Y-90728051D01*
X177328230Y-90344907D01*
X176945086Y-90088898D01*
X176493137Y-89999000D01*
X176446863Y-89999000D01*
X175994914Y-90088898D01*
X175611770Y-90344907D01*
X175355761Y-90728051D01*
X175265863Y-91180000D01*
X167514137Y-91180000D01*
X167424239Y-90728051D01*
X167168230Y-90344907D01*
X166785086Y-90088898D01*
X166333137Y-89999000D01*
X166286863Y-89999000D01*
X165834914Y-90088898D01*
X165451770Y-90344907D01*
X165195761Y-90728051D01*
X165105863Y-91180000D01*
X162434137Y-91180000D01*
X162344239Y-90728051D01*
X162088230Y-90344907D01*
X161705086Y-90088898D01*
X161253137Y-89999000D01*
X161206863Y-89999000D01*
X160754914Y-90088898D01*
X160371770Y-90344907D01*
X160306733Y-90442242D01*
X160306733Y-89377758D01*
X160371770Y-89475093D01*
X160754914Y-89731102D01*
X161206863Y-89821000D01*
X161253137Y-89821000D01*
X161705086Y-89731102D01*
X162088230Y-89475093D01*
X162344239Y-89091949D01*
X162434137Y-88640000D01*
X165105863Y-88640000D01*
X165195761Y-89091949D01*
X165451770Y-89475093D01*
X165834914Y-89731102D01*
X166286863Y-89821000D01*
X166333137Y-89821000D01*
X166785086Y-89731102D01*
X167168230Y-89475093D01*
X167424239Y-89091949D01*
X167514137Y-88640000D01*
X175265863Y-88640000D01*
X175355761Y-89091949D01*
X175611770Y-89475093D01*
X175994914Y-89731102D01*
X176446863Y-89821000D01*
X176493137Y-89821000D01*
X176945086Y-89731102D01*
X177328230Y-89475093D01*
X177584239Y-89091949D01*
X177674137Y-88640000D01*
X180345863Y-88640000D01*
X180435761Y-89091949D01*
X180691770Y-89475093D01*
X181074914Y-89731102D01*
X181526863Y-89821000D01*
X181573137Y-89821000D01*
X182025086Y-89731102D01*
X182408230Y-89475093D01*
X182664239Y-89091949D01*
X182754137Y-88640000D01*
X182664239Y-88188051D01*
X182408230Y-87804907D01*
X182025086Y-87548898D01*
X181573137Y-87459000D01*
X181526863Y-87459000D01*
X181074914Y-87548898D01*
X180691770Y-87804907D01*
X180435761Y-88188051D01*
X180345863Y-88640000D01*
X177674137Y-88640000D01*
X177584239Y-88188051D01*
X177328230Y-87804907D01*
X176945086Y-87548898D01*
X176493137Y-87459000D01*
X176446863Y-87459000D01*
X175994914Y-87548898D01*
X175611770Y-87804907D01*
X175355761Y-88188051D01*
X175265863Y-88640000D01*
X167514137Y-88640000D01*
X167424239Y-88188051D01*
X167168230Y-87804907D01*
X166785086Y-87548898D01*
X166333137Y-87459000D01*
X166286863Y-87459000D01*
X165834914Y-87548898D01*
X165451770Y-87804907D01*
X165195761Y-88188051D01*
X165105863Y-88640000D01*
X162434137Y-88640000D01*
X162344239Y-88188051D01*
X162124975Y-87859900D01*
X162416499Y-87859900D01*
X162613391Y-88057136D01*
X162902689Y-88177263D01*
X163215936Y-88177536D01*
X163505444Y-88057914D01*
X163727136Y-87836609D01*
X163847263Y-87547311D01*
X163847536Y-87234064D01*
X163727914Y-86944556D01*
X163506609Y-86722864D01*
X163217311Y-86602737D01*
X162904064Y-86602464D01*
X162614556Y-86722086D01*
X162416196Y-86920100D01*
X162098248Y-86920100D01*
X162344239Y-86551949D01*
X162434137Y-86100000D01*
X165105863Y-86100000D01*
X165195761Y-86551949D01*
X165451770Y-86935093D01*
X165834914Y-87191102D01*
X166286863Y-87281000D01*
X166333137Y-87281000D01*
X166785086Y-87191102D01*
X167168230Y-86935093D01*
X167424239Y-86551949D01*
X167514137Y-86100000D01*
X175265863Y-86100000D01*
X175355761Y-86551949D01*
X175611770Y-86935093D01*
X175994914Y-87191102D01*
X176446863Y-87281000D01*
X176493137Y-87281000D01*
X176945086Y-87191102D01*
X177328230Y-86935093D01*
X177584239Y-86551949D01*
X177674137Y-86100000D01*
X180345863Y-86100000D01*
X180435761Y-86551949D01*
X180691770Y-86935093D01*
X181074914Y-87191102D01*
X181526863Y-87281000D01*
X181573137Y-87281000D01*
X182025086Y-87191102D01*
X182408230Y-86935093D01*
X182664239Y-86551949D01*
X182754137Y-86100000D01*
X182664239Y-85648051D01*
X182408230Y-85264907D01*
X182025086Y-85008898D01*
X181573137Y-84919000D01*
X181526863Y-84919000D01*
X181074914Y-85008898D01*
X180691770Y-85264907D01*
X180435761Y-85648051D01*
X180345863Y-86100000D01*
X177674137Y-86100000D01*
X177584239Y-85648051D01*
X177328230Y-85264907D01*
X176945086Y-85008898D01*
X176493137Y-84919000D01*
X176446863Y-84919000D01*
X175994914Y-85008898D01*
X175611770Y-85264907D01*
X175355761Y-85648051D01*
X175265863Y-86100000D01*
X167514137Y-86100000D01*
X167424239Y-85648051D01*
X167168230Y-85264907D01*
X166785086Y-85008898D01*
X166333137Y-84919000D01*
X166286863Y-84919000D01*
X165834914Y-85008898D01*
X165451770Y-85264907D01*
X165195761Y-85648051D01*
X165105863Y-86100000D01*
X162434137Y-86100000D01*
X162344239Y-85648051D01*
X162098248Y-85279900D01*
X162416499Y-85279900D01*
X162613391Y-85477136D01*
X162902689Y-85597263D01*
X163215936Y-85597536D01*
X163505444Y-85477914D01*
X163727136Y-85256609D01*
X163847263Y-84967311D01*
X163847536Y-84654064D01*
X163727914Y-84364556D01*
X163506609Y-84142864D01*
X163217311Y-84022737D01*
X162904064Y-84022464D01*
X162614556Y-84142086D01*
X162416196Y-84340100D01*
X162124975Y-84340100D01*
X162344239Y-84011949D01*
X162434137Y-83560000D01*
X165105863Y-83560000D01*
X165195761Y-84011949D01*
X165451770Y-84395093D01*
X165834914Y-84651102D01*
X166286863Y-84741000D01*
X166333137Y-84741000D01*
X166785086Y-84651102D01*
X167168230Y-84395093D01*
X167424239Y-84011949D01*
X167514137Y-83560000D01*
X175265863Y-83560000D01*
X175355761Y-84011949D01*
X175611770Y-84395093D01*
X175994914Y-84651102D01*
X176446863Y-84741000D01*
X176493137Y-84741000D01*
X176945086Y-84651102D01*
X177328230Y-84395093D01*
X177584239Y-84011949D01*
X177674137Y-83560000D01*
X180345863Y-83560000D01*
X180435761Y-84011949D01*
X180691770Y-84395093D01*
X181074914Y-84651102D01*
X181526863Y-84741000D01*
X181573137Y-84741000D01*
X182025086Y-84651102D01*
X182408230Y-84395093D01*
X182664239Y-84011949D01*
X182754137Y-83560000D01*
X182664239Y-83108051D01*
X182408230Y-82724907D01*
X182025086Y-82468898D01*
X181573137Y-82379000D01*
X181526863Y-82379000D01*
X181074914Y-82468898D01*
X180691770Y-82724907D01*
X180435761Y-83108051D01*
X180345863Y-83560000D01*
X177674137Y-83560000D01*
X177584239Y-83108051D01*
X177328230Y-82724907D01*
X176945086Y-82468898D01*
X176493137Y-82379000D01*
X176446863Y-82379000D01*
X175994914Y-82468898D01*
X175611770Y-82724907D01*
X175355761Y-83108051D01*
X175265863Y-83560000D01*
X167514137Y-83560000D01*
X167424239Y-83108051D01*
X167168230Y-82724907D01*
X166785086Y-82468898D01*
X166333137Y-82379000D01*
X166286863Y-82379000D01*
X165834914Y-82468898D01*
X165451770Y-82724907D01*
X165195761Y-83108051D01*
X165105863Y-83560000D01*
X162434137Y-83560000D01*
X162344239Y-83108051D01*
X162088230Y-82724907D01*
X162080737Y-82719900D01*
X162376499Y-82719900D01*
X162573391Y-82917136D01*
X162862689Y-83037263D01*
X163175936Y-83037536D01*
X163465444Y-82917914D01*
X163687136Y-82696609D01*
X163807263Y-82407311D01*
X163807536Y-82094064D01*
X163687914Y-81804556D01*
X163466609Y-81582864D01*
X163177311Y-81462737D01*
X162864064Y-81462464D01*
X162574556Y-81582086D01*
X162376196Y-81780100D01*
X162138339Y-81780100D01*
X162344239Y-81471949D01*
X162434137Y-81020000D01*
X165105863Y-81020000D01*
X165195761Y-81471949D01*
X165451770Y-81855093D01*
X165834914Y-82111102D01*
X166286863Y-82201000D01*
X166333137Y-82201000D01*
X166785086Y-82111102D01*
X167168230Y-81855093D01*
X167424239Y-81471949D01*
X167514137Y-81020000D01*
X175265863Y-81020000D01*
X175355761Y-81471949D01*
X175611770Y-81855093D01*
X175994914Y-82111102D01*
X176446863Y-82201000D01*
X176493137Y-82201000D01*
X176945086Y-82111102D01*
X177328230Y-81855093D01*
X177584239Y-81471949D01*
X177674137Y-81020000D01*
X180345863Y-81020000D01*
X180435761Y-81471949D01*
X180691770Y-81855093D01*
X181074914Y-82111102D01*
X181526863Y-82201000D01*
X181573137Y-82201000D01*
X182025086Y-82111102D01*
X182408230Y-81855093D01*
X182664239Y-81471949D01*
X182754137Y-81020000D01*
X182664239Y-80568051D01*
X182408230Y-80184907D01*
X182025086Y-79928898D01*
X181573137Y-79839000D01*
X181526863Y-79839000D01*
X181074914Y-79928898D01*
X180691770Y-80184907D01*
X180435761Y-80568051D01*
X180345863Y-81020000D01*
X177674137Y-81020000D01*
X177584239Y-80568051D01*
X177328230Y-80184907D01*
X176945086Y-79928898D01*
X176493137Y-79839000D01*
X176446863Y-79839000D01*
X175994914Y-79928898D01*
X175611770Y-80184907D01*
X175355761Y-80568051D01*
X175265863Y-81020000D01*
X167514137Y-81020000D01*
X167424239Y-80568051D01*
X167168230Y-80184907D01*
X166785086Y-79928898D01*
X166333137Y-79839000D01*
X166286863Y-79839000D01*
X165834914Y-79928898D01*
X165451770Y-80184907D01*
X165195761Y-80568051D01*
X165105863Y-81020000D01*
X162434137Y-81020000D01*
X162344239Y-80568051D01*
X162131657Y-80249900D01*
X162376499Y-80249900D01*
X162573391Y-80447136D01*
X162862689Y-80567263D01*
X163175936Y-80567536D01*
X163465444Y-80447914D01*
X163687136Y-80226609D01*
X163807263Y-79937311D01*
X163807536Y-79624064D01*
X163687914Y-79334556D01*
X163466609Y-79112864D01*
X163177311Y-78992737D01*
X162864064Y-78992464D01*
X162665000Y-79074715D01*
X162665000Y-78765750D01*
X162506250Y-78607000D01*
X161357000Y-78607000D01*
X161357000Y-78627000D01*
X161103000Y-78627000D01*
X161103000Y-78607000D01*
X159953750Y-78607000D01*
X159795000Y-78765750D01*
X159795000Y-79406310D01*
X159856757Y-79555405D01*
X158704136Y-80708027D01*
X158444565Y-80319552D01*
X158168364Y-80135000D01*
X158526309Y-80135000D01*
X158759698Y-80038327D01*
X158938327Y-79859699D01*
X159035000Y-79626310D01*
X159035000Y-78935750D01*
X158876250Y-78777000D01*
X157677000Y-78777000D01*
X157677000Y-78797000D01*
X157423000Y-78797000D01*
X157423000Y-78777000D01*
X156223750Y-78777000D01*
X156129388Y-78871362D01*
X155895000Y-78636974D01*
X155895000Y-77673690D01*
X156065000Y-77673690D01*
X156065000Y-78364250D01*
X156223750Y-78523000D01*
X157423000Y-78523000D01*
X157423000Y-77323750D01*
X157677000Y-77323750D01*
X157677000Y-78523000D01*
X158876250Y-78523000D01*
X159035000Y-78364250D01*
X159035000Y-77673690D01*
X158985295Y-77553690D01*
X159795000Y-77553690D01*
X159795000Y-78194250D01*
X159953750Y-78353000D01*
X161103000Y-78353000D01*
X161103000Y-77203750D01*
X161357000Y-77203750D01*
X161357000Y-78353000D01*
X162506250Y-78353000D01*
X162665000Y-78194250D01*
X162665000Y-77680000D01*
X165121536Y-77680000D01*
X165121536Y-79280000D01*
X165148103Y-79421190D01*
X165231546Y-79550865D01*
X165358866Y-79637859D01*
X165510000Y-79668464D01*
X167110000Y-79668464D01*
X167251190Y-79641897D01*
X167380865Y-79558454D01*
X167467859Y-79431134D01*
X167498464Y-79280000D01*
X167498464Y-78480000D01*
X175265863Y-78480000D01*
X175355761Y-78931949D01*
X175611770Y-79315093D01*
X175994914Y-79571102D01*
X176446863Y-79661000D01*
X176493137Y-79661000D01*
X176945086Y-79571102D01*
X177328230Y-79315093D01*
X177584239Y-78931949D01*
X177674137Y-78480000D01*
X180345863Y-78480000D01*
X180435761Y-78931949D01*
X180691770Y-79315093D01*
X181074914Y-79571102D01*
X181526863Y-79661000D01*
X181573137Y-79661000D01*
X182025086Y-79571102D01*
X182408230Y-79315093D01*
X182664239Y-78931949D01*
X182754137Y-78480000D01*
X182664239Y-78028051D01*
X182408230Y-77644907D01*
X182025086Y-77388898D01*
X181573137Y-77299000D01*
X181526863Y-77299000D01*
X181074914Y-77388898D01*
X180691770Y-77644907D01*
X180435761Y-78028051D01*
X180345863Y-78480000D01*
X177674137Y-78480000D01*
X177584239Y-78028051D01*
X177328230Y-77644907D01*
X176945086Y-77388898D01*
X176493137Y-77299000D01*
X176446863Y-77299000D01*
X175994914Y-77388898D01*
X175611770Y-77644907D01*
X175355761Y-78028051D01*
X175265863Y-78480000D01*
X167498464Y-78480000D01*
X167498464Y-77680000D01*
X167471897Y-77538810D01*
X167388454Y-77409135D01*
X167261134Y-77322141D01*
X167110000Y-77291536D01*
X165510000Y-77291536D01*
X165368810Y-77318103D01*
X165239135Y-77401546D01*
X165152141Y-77528866D01*
X165121536Y-77680000D01*
X162665000Y-77680000D01*
X162665000Y-77553690D01*
X162568327Y-77320301D01*
X162389698Y-77141673D01*
X162156309Y-77045000D01*
X161515750Y-77045000D01*
X161357000Y-77203750D01*
X161103000Y-77203750D01*
X160944250Y-77045000D01*
X160303691Y-77045000D01*
X160070302Y-77141673D01*
X159891673Y-77320301D01*
X159795000Y-77553690D01*
X158985295Y-77553690D01*
X158938327Y-77440301D01*
X158759698Y-77261673D01*
X158526309Y-77165000D01*
X157835750Y-77165000D01*
X157677000Y-77323750D01*
X157423000Y-77323750D01*
X157264250Y-77165000D01*
X156573691Y-77165000D01*
X156340302Y-77261673D01*
X156161673Y-77440301D01*
X156065000Y-77673690D01*
X155895000Y-77673690D01*
X155895000Y-75396892D01*
X161128514Y-75396892D01*
X161374817Y-75921358D01*
X161803076Y-76311645D01*
X162213110Y-76481476D01*
X162443000Y-76360155D01*
X162443000Y-75167000D01*
X161249181Y-75167000D01*
X161128514Y-75396892D01*
X155895000Y-75396892D01*
X155895000Y-74683108D01*
X161128514Y-74683108D01*
X161249181Y-74913000D01*
X162443000Y-74913000D01*
X162443000Y-73719845D01*
X162697000Y-73719845D01*
X162697000Y-74913000D01*
X162717000Y-74913000D01*
X162717000Y-75167000D01*
X162697000Y-75167000D01*
X162697000Y-76360155D01*
X162926890Y-76481476D01*
X163336924Y-76311645D01*
X163765183Y-75921358D01*
X163871536Y-75694895D01*
X163871536Y-75890000D01*
X163898103Y-76031190D01*
X163981546Y-76160865D01*
X164108866Y-76247859D01*
X164260000Y-76278464D01*
X165960000Y-76278464D01*
X166101190Y-76251897D01*
X166230865Y-76168454D01*
X166317859Y-76041134D01*
X166348464Y-75890000D01*
X166348464Y-74190000D01*
X166321897Y-74048810D01*
X166238454Y-73919135D01*
X166111134Y-73832141D01*
X165960000Y-73801536D01*
X164260000Y-73801536D01*
X164118810Y-73828103D01*
X163989135Y-73911546D01*
X163902141Y-74038866D01*
X163871536Y-74190000D01*
X163871536Y-74385105D01*
X163765183Y-74158642D01*
X163336924Y-73768355D01*
X162926890Y-73598524D01*
X162697000Y-73719845D01*
X162443000Y-73719845D01*
X162213110Y-73598524D01*
X161803076Y-73768355D01*
X161374817Y-74158642D01*
X161128514Y-74683108D01*
X155895000Y-74683108D01*
X155895000Y-72870000D01*
X177164883Y-72870000D01*
X177258587Y-73341083D01*
X177525435Y-73740448D01*
X177924800Y-74007296D01*
X178395883Y-74101000D01*
X178444117Y-74101000D01*
X178915200Y-74007296D01*
X179314565Y-73740448D01*
X179571788Y-73355488D01*
X179688355Y-73636924D01*
X180078642Y-74065183D01*
X180603108Y-74311486D01*
X180833000Y-74190819D01*
X180833000Y-72997000D01*
X181087000Y-72997000D01*
X181087000Y-74190819D01*
X181316892Y-74311486D01*
X181841358Y-74065183D01*
X182231645Y-73636924D01*
X182401476Y-73226890D01*
X182280155Y-72997000D01*
X181087000Y-72997000D01*
X180833000Y-72997000D01*
X180813000Y-72997000D01*
X180813000Y-72743000D01*
X180833000Y-72743000D01*
X180833000Y-72723000D01*
X181087000Y-72723000D01*
X181087000Y-72743000D01*
X182280155Y-72743000D01*
X182401476Y-72513110D01*
X182231645Y-72103076D01*
X181841358Y-71674817D01*
X181416053Y-71475083D01*
X181455200Y-71467296D01*
X181854565Y-71200448D01*
X182121413Y-70801083D01*
X182215117Y-70330000D01*
X182121413Y-69858917D01*
X181854565Y-69459552D01*
X181455200Y-69192704D01*
X180984117Y-69099000D01*
X180935883Y-69099000D01*
X180464800Y-69192704D01*
X180065435Y-69459552D01*
X179798587Y-69858917D01*
X179704883Y-70330000D01*
X179798587Y-70801083D01*
X180065435Y-71200448D01*
X180464800Y-71467296D01*
X180503947Y-71475083D01*
X180078642Y-71674817D01*
X179688355Y-72103076D01*
X179571788Y-72384512D01*
X179314565Y-71999552D01*
X178915200Y-71732704D01*
X178444117Y-71639000D01*
X178395883Y-71639000D01*
X177924800Y-71732704D01*
X177525435Y-71999552D01*
X177258587Y-72398917D01*
X177164883Y-72870000D01*
X155895000Y-72870000D01*
X155895000Y-70330000D01*
X177164883Y-70330000D01*
X177258587Y-70801083D01*
X177525435Y-71200448D01*
X177924800Y-71467296D01*
X178395883Y-71561000D01*
X178444117Y-71561000D01*
X178915200Y-71467296D01*
X179314565Y-71200448D01*
X179581413Y-70801083D01*
X179675117Y-70330000D01*
X179581413Y-69858917D01*
X179314565Y-69459552D01*
X178915200Y-69192704D01*
X178444117Y-69099000D01*
X178395883Y-69099000D01*
X177924800Y-69192704D01*
X177525435Y-69459552D01*
X177258587Y-69858917D01*
X177164883Y-70330000D01*
X155895000Y-70330000D01*
X155895000Y-67790000D01*
X177164883Y-67790000D01*
X177258587Y-68261083D01*
X177525435Y-68660448D01*
X177924800Y-68927296D01*
X178395883Y-69021000D01*
X178444117Y-69021000D01*
X178915200Y-68927296D01*
X179314565Y-68660448D01*
X179581413Y-68261083D01*
X179675117Y-67790000D01*
X179704883Y-67790000D01*
X179798587Y-68261083D01*
X180065435Y-68660448D01*
X180464800Y-68927296D01*
X180935883Y-69021000D01*
X180984117Y-69021000D01*
X181455200Y-68927296D01*
X181854565Y-68660448D01*
X182121413Y-68261083D01*
X182215117Y-67790000D01*
X182121413Y-67318917D01*
X181854565Y-66919552D01*
X181455200Y-66652704D01*
X180984117Y-66559000D01*
X180935883Y-66559000D01*
X180464800Y-66652704D01*
X180065435Y-66919552D01*
X179798587Y-67318917D01*
X179704883Y-67790000D01*
X179675117Y-67790000D01*
X179581413Y-67318917D01*
X179314565Y-66919552D01*
X178915200Y-66652704D01*
X178444117Y-66559000D01*
X178395883Y-66559000D01*
X177924800Y-66652704D01*
X177525435Y-66919552D01*
X177258587Y-67318917D01*
X177164883Y-67790000D01*
X155895000Y-67790000D01*
X155895000Y-66278689D01*
X155927136Y-66246609D01*
X156047263Y-65957311D01*
X156047536Y-65644064D01*
X155927914Y-65354556D01*
X155895000Y-65321584D01*
X155895000Y-64693026D01*
X159452482Y-61135544D01*
X159452464Y-61155936D01*
X159572086Y-61445444D01*
X159793391Y-61667136D01*
X160082689Y-61787263D01*
X160395936Y-61787536D01*
X160685444Y-61667914D01*
X160907136Y-61446609D01*
X161027263Y-61157311D01*
X161027348Y-61059900D01*
X174426499Y-61059900D01*
X174623391Y-61257136D01*
X174912689Y-61377263D01*
X175225936Y-61377536D01*
X175515444Y-61257914D01*
X175737136Y-61036609D01*
X175857263Y-60747311D01*
X175857536Y-60434064D01*
X175737914Y-60144556D01*
X175516609Y-59922864D01*
X175227311Y-59802737D01*
X174914064Y-59802464D01*
X174624556Y-59922086D01*
X174426196Y-60120100D01*
X160650000Y-60120100D01*
X160470177Y-60155869D01*
X160385084Y-60212726D01*
X160375308Y-60212718D01*
X161613026Y-58975000D01*
X166861311Y-58975000D01*
X166893391Y-59007136D01*
X167182689Y-59127263D01*
X167495936Y-59127536D01*
X167785444Y-59007914D01*
X167882027Y-58911500D01*
X178296218Y-58911500D01*
X179066801Y-59682082D01*
X179066801Y-61471536D01*
X177570000Y-61471536D01*
X177428810Y-61498103D01*
X177299135Y-61581546D01*
X177212141Y-61708866D01*
X177181536Y-61860000D01*
X177181536Y-63560000D01*
X177208103Y-63701190D01*
X177291546Y-63830865D01*
X177418866Y-63917859D01*
X177570000Y-63948464D01*
X179070811Y-63948464D01*
X179080245Y-63995890D01*
X179110304Y-64147005D01*
X179226262Y-64320550D01*
X178915200Y-64112704D01*
X178444117Y-64019000D01*
X178395883Y-64019000D01*
X177924800Y-64112704D01*
X177525435Y-64379552D01*
X177258587Y-64778917D01*
X177164883Y-65250000D01*
X177258587Y-65721083D01*
X177525435Y-66120448D01*
X177924800Y-66387296D01*
X178395883Y-66481000D01*
X178444117Y-66481000D01*
X178915200Y-66387296D01*
X179314565Y-66120448D01*
X179581413Y-65721083D01*
X179675117Y-65250000D01*
X179581413Y-64778917D01*
X179381493Y-64479717D01*
X179705887Y-64804110D01*
X179705889Y-64804113D01*
X179779027Y-64877251D01*
X179704883Y-65250000D01*
X179798587Y-65721083D01*
X180065435Y-66120448D01*
X180464800Y-66387296D01*
X180935883Y-66481000D01*
X180984117Y-66481000D01*
X181455200Y-66387296D01*
X181854565Y-66120448D01*
X182121413Y-65721083D01*
X182215117Y-65250000D01*
X182121413Y-64778917D01*
X181854565Y-64379552D01*
X181455200Y-64112704D01*
X181416053Y-64104917D01*
X181841358Y-63905183D01*
X182231645Y-63476924D01*
X182401476Y-63066890D01*
X182280155Y-62837000D01*
X181087000Y-62837000D01*
X181087000Y-62857000D01*
X180833000Y-62857000D01*
X180833000Y-62837000D01*
X180813000Y-62837000D01*
X180813000Y-62583000D01*
X180833000Y-62583000D01*
X180833000Y-61389181D01*
X181087000Y-61389181D01*
X181087000Y-62583000D01*
X182280155Y-62583000D01*
X182401476Y-62353110D01*
X182231645Y-61943076D01*
X181841358Y-61514817D01*
X181316892Y-61268514D01*
X181087000Y-61389181D01*
X180833000Y-61389181D01*
X180603108Y-61268514D01*
X180209801Y-61453221D01*
X180209801Y-59445364D01*
X180209802Y-59445359D01*
X180166299Y-59226656D01*
X180099887Y-59127263D01*
X180042413Y-59041247D01*
X180042410Y-59041245D01*
X178937054Y-57935888D01*
X178873452Y-57893391D01*
X178751646Y-57812003D01*
X178715360Y-57804785D01*
X178532942Y-57768499D01*
X178532937Y-57768500D01*
X167882078Y-57768500D01*
X167786609Y-57672864D01*
X167497311Y-57552737D01*
X167184064Y-57552464D01*
X166894556Y-57672086D01*
X166861584Y-57705000D01*
X161495152Y-57705000D01*
X161520865Y-57688454D01*
X161607859Y-57561134D01*
X161638464Y-57410000D01*
X161638464Y-55710000D01*
X161611897Y-55568810D01*
X161528454Y-55439135D01*
X161401134Y-55352141D01*
X161250000Y-55321536D01*
X159550000Y-55321536D01*
X159408810Y-55348103D01*
X159279135Y-55431546D01*
X159192141Y-55558866D01*
X159161536Y-55710000D01*
X159161536Y-55905105D01*
X159055183Y-55678642D01*
X158626924Y-55288355D01*
X158216890Y-55118524D01*
X157987000Y-55239845D01*
X157987000Y-56433000D01*
X158007000Y-56433000D01*
X158007000Y-56687000D01*
X157987000Y-56687000D01*
X157987000Y-57880155D01*
X158216890Y-58001476D01*
X158626924Y-57831645D01*
X159055183Y-57441358D01*
X159161536Y-57214895D01*
X159161536Y-57410000D01*
X159188103Y-57551190D01*
X159271546Y-57680865D01*
X159398866Y-57767859D01*
X159550000Y-57798464D01*
X161039457Y-57798464D01*
X160900987Y-57890987D01*
X154810987Y-63980987D01*
X154673336Y-64186996D01*
X154625000Y-64430000D01*
X154625000Y-65321311D01*
X154592864Y-65353391D01*
X154472737Y-65642689D01*
X154472464Y-65955936D01*
X154592086Y-66245444D01*
X154625000Y-66278416D01*
X154625000Y-78900000D01*
X154673336Y-79143004D01*
X154810987Y-79349013D01*
X156354128Y-80892154D01*
X156294883Y-81190000D01*
X156388587Y-81661083D01*
X156655435Y-82060448D01*
X157054800Y-82327296D01*
X157525883Y-82421000D01*
X157574117Y-82421000D01*
X158045200Y-82327296D01*
X158196801Y-82225999D01*
X158196801Y-82694001D01*
X158045200Y-82592704D01*
X157574117Y-82499000D01*
X157525883Y-82499000D01*
X157054800Y-82592704D01*
X156655435Y-82859552D01*
X156388587Y-83258917D01*
X156294883Y-83730000D01*
X156388587Y-84201083D01*
X156655435Y-84600448D01*
X157054800Y-84867296D01*
X157525883Y-84961000D01*
X157574117Y-84961000D01*
X158045200Y-84867296D01*
X158196801Y-84765999D01*
X158196801Y-94478660D01*
X156402157Y-96273305D01*
X156478662Y-96158807D01*
X156556000Y-95770000D01*
X156556000Y-95720000D01*
X156478662Y-95331194D01*
X156258420Y-95001580D01*
X155928806Y-94781338D01*
X155540000Y-94704000D01*
X155151194Y-94781338D01*
X154821580Y-95001580D01*
X154720897Y-95152262D01*
X154629159Y-95244000D01*
X149446732Y-95244000D01*
X149265200Y-95122704D01*
X149226053Y-95114917D01*
X149651358Y-94915183D01*
X150041645Y-94486924D01*
X150211476Y-94076890D01*
X150090155Y-93847000D01*
X148897000Y-93847000D01*
X148897000Y-93867000D01*
X148643000Y-93867000D01*
X148643000Y-93847000D01*
X148623000Y-93847000D01*
X148623000Y-93593000D01*
X148643000Y-93593000D01*
X148643000Y-93573000D01*
X148897000Y-93573000D01*
X148897000Y-93593000D01*
X150090155Y-93593000D01*
X150211476Y-93363110D01*
X150041645Y-92953076D01*
X149651358Y-92524817D01*
X149226053Y-92325083D01*
X149265200Y-92317296D01*
X149664565Y-92050448D01*
X149931413Y-91651083D01*
X150025117Y-91180000D01*
X149931413Y-90708917D01*
X149664565Y-90309552D01*
X149265200Y-90042704D01*
X148794117Y-89949000D01*
X148745883Y-89949000D01*
X148274800Y-90042704D01*
X147875435Y-90309552D01*
X147608587Y-90708917D01*
X147514883Y-91180000D01*
X147608587Y-91651083D01*
X147875435Y-92050448D01*
X148274800Y-92317296D01*
X148313947Y-92325083D01*
X147888642Y-92524817D01*
X147498355Y-92953076D01*
X147381788Y-93234512D01*
X147124565Y-92849552D01*
X146725200Y-92582704D01*
X146254117Y-92489000D01*
X146205883Y-92489000D01*
X145734800Y-92582704D01*
X145335435Y-92849552D01*
X145068587Y-93248917D01*
X144974883Y-93720000D01*
X144201000Y-93720000D01*
X144201000Y-91180000D01*
X144974883Y-91180000D01*
X145068587Y-91651083D01*
X145335435Y-92050448D01*
X145734800Y-92317296D01*
X146205883Y-92411000D01*
X146254117Y-92411000D01*
X146725200Y-92317296D01*
X147124565Y-92050448D01*
X147391413Y-91651083D01*
X147485117Y-91180000D01*
X147391413Y-90708917D01*
X147124565Y-90309552D01*
X146725200Y-90042704D01*
X146254117Y-89949000D01*
X146205883Y-89949000D01*
X145734800Y-90042704D01*
X145335435Y-90309552D01*
X145068587Y-90708917D01*
X144974883Y-91180000D01*
X144201000Y-91180000D01*
X144201000Y-88640000D01*
X144974883Y-88640000D01*
X145068587Y-89111083D01*
X145335435Y-89510448D01*
X145734800Y-89777296D01*
X146205883Y-89871000D01*
X146254117Y-89871000D01*
X146725200Y-89777296D01*
X147124565Y-89510448D01*
X147391413Y-89111083D01*
X147485117Y-88640000D01*
X147514883Y-88640000D01*
X147608587Y-89111083D01*
X147875435Y-89510448D01*
X148274800Y-89777296D01*
X148745883Y-89871000D01*
X148794117Y-89871000D01*
X149265200Y-89777296D01*
X149664565Y-89510448D01*
X149931413Y-89111083D01*
X150025117Y-88640000D01*
X149931413Y-88168917D01*
X149664565Y-87769552D01*
X149265200Y-87502704D01*
X148794117Y-87409000D01*
X148745883Y-87409000D01*
X148274800Y-87502704D01*
X147875435Y-87769552D01*
X147608587Y-88168917D01*
X147514883Y-88640000D01*
X147485117Y-88640000D01*
X147391413Y-88168917D01*
X147124565Y-87769552D01*
X146725200Y-87502704D01*
X146254117Y-87409000D01*
X146205883Y-87409000D01*
X145734800Y-87502704D01*
X145335435Y-87769552D01*
X145068587Y-88168917D01*
X144974883Y-88640000D01*
X144201000Y-88640000D01*
X144201000Y-86100000D01*
X144974883Y-86100000D01*
X145068587Y-86571083D01*
X145335435Y-86970448D01*
X145734800Y-87237296D01*
X146205883Y-87331000D01*
X146254117Y-87331000D01*
X146725200Y-87237296D01*
X147124565Y-86970448D01*
X147391413Y-86571083D01*
X147485117Y-86100000D01*
X147514883Y-86100000D01*
X147608587Y-86571083D01*
X147875435Y-86970448D01*
X148274800Y-87237296D01*
X148745883Y-87331000D01*
X148794117Y-87331000D01*
X149265200Y-87237296D01*
X149664565Y-86970448D01*
X149931413Y-86571083D01*
X150025117Y-86100000D01*
X149931413Y-85628917D01*
X149664565Y-85229552D01*
X149265200Y-84962704D01*
X148794117Y-84869000D01*
X148745883Y-84869000D01*
X148274800Y-84962704D01*
X147875435Y-85229552D01*
X147608587Y-85628917D01*
X147514883Y-86100000D01*
X147485117Y-86100000D01*
X147391413Y-85628917D01*
X147124565Y-85229552D01*
X146725200Y-84962704D01*
X146254117Y-84869000D01*
X146205883Y-84869000D01*
X145734800Y-84962704D01*
X145335435Y-85229552D01*
X145068587Y-85628917D01*
X144974883Y-86100000D01*
X144201000Y-86100000D01*
X144201000Y-83560000D01*
X144974883Y-83560000D01*
X145068587Y-84031083D01*
X145335435Y-84430448D01*
X145734800Y-84697296D01*
X146205883Y-84791000D01*
X146254117Y-84791000D01*
X146725200Y-84697296D01*
X147124565Y-84430448D01*
X147391413Y-84031083D01*
X147485117Y-83560000D01*
X147514883Y-83560000D01*
X147608587Y-84031083D01*
X147875435Y-84430448D01*
X148274800Y-84697296D01*
X148745883Y-84791000D01*
X148794117Y-84791000D01*
X149265200Y-84697296D01*
X149664565Y-84430448D01*
X149931413Y-84031083D01*
X150025117Y-83560000D01*
X149931413Y-83088917D01*
X149664565Y-82689552D01*
X149265200Y-82422704D01*
X148794117Y-82329000D01*
X148745883Y-82329000D01*
X148274800Y-82422704D01*
X147875435Y-82689552D01*
X147608587Y-83088917D01*
X147514883Y-83560000D01*
X147485117Y-83560000D01*
X147391413Y-83088917D01*
X147124565Y-82689552D01*
X146725200Y-82422704D01*
X146254117Y-82329000D01*
X146205883Y-82329000D01*
X145734800Y-82422704D01*
X145335435Y-82689552D01*
X145068587Y-83088917D01*
X144974883Y-83560000D01*
X144201000Y-83560000D01*
X144201000Y-81020000D01*
X144974883Y-81020000D01*
X145068587Y-81491083D01*
X145335435Y-81890448D01*
X145734800Y-82157296D01*
X146205883Y-82251000D01*
X146254117Y-82251000D01*
X146725200Y-82157296D01*
X147124565Y-81890448D01*
X147391413Y-81491083D01*
X147485117Y-81020000D01*
X147514883Y-81020000D01*
X147608587Y-81491083D01*
X147875435Y-81890448D01*
X148274800Y-82157296D01*
X148745883Y-82251000D01*
X148794117Y-82251000D01*
X149265200Y-82157296D01*
X149664565Y-81890448D01*
X149931413Y-81491083D01*
X150025117Y-81020000D01*
X149931413Y-80548917D01*
X149664565Y-80149552D01*
X149265200Y-79882704D01*
X148794117Y-79789000D01*
X148745883Y-79789000D01*
X148274800Y-79882704D01*
X147875435Y-80149552D01*
X147608587Y-80548917D01*
X147514883Y-81020000D01*
X147485117Y-81020000D01*
X147391413Y-80548917D01*
X147124565Y-80149552D01*
X146725200Y-79882704D01*
X146254117Y-79789000D01*
X146205883Y-79789000D01*
X145734800Y-79882704D01*
X145335435Y-80149552D01*
X145068587Y-80548917D01*
X144974883Y-81020000D01*
X144201000Y-81020000D01*
X144201000Y-77630000D01*
X144991536Y-77630000D01*
X144991536Y-79330000D01*
X145018103Y-79471190D01*
X145101546Y-79600865D01*
X145228866Y-79687859D01*
X145380000Y-79718464D01*
X147080000Y-79718464D01*
X147221190Y-79691897D01*
X147350865Y-79608454D01*
X147437859Y-79481134D01*
X147468464Y-79330000D01*
X147468464Y-78480000D01*
X147514883Y-78480000D01*
X147608587Y-78951083D01*
X147875435Y-79350448D01*
X148274800Y-79617296D01*
X148745883Y-79711000D01*
X148794117Y-79711000D01*
X149265200Y-79617296D01*
X149664565Y-79350448D01*
X149931413Y-78951083D01*
X150025117Y-78480000D01*
X149931413Y-78008917D01*
X149664565Y-77609552D01*
X149265200Y-77342704D01*
X148794117Y-77249000D01*
X148745883Y-77249000D01*
X148274800Y-77342704D01*
X147875435Y-77609552D01*
X147608587Y-78008917D01*
X147514883Y-78480000D01*
X147468464Y-78480000D01*
X147468464Y-77630000D01*
X147441897Y-77488810D01*
X147358454Y-77359135D01*
X147231134Y-77272141D01*
X147080000Y-77241536D01*
X145380000Y-77241536D01*
X145238810Y-77268103D01*
X145109135Y-77351546D01*
X145022141Y-77478866D01*
X144991536Y-77630000D01*
X144201000Y-77630000D01*
X144201000Y-56916892D01*
X156418514Y-56916892D01*
X156664817Y-57441358D01*
X157093076Y-57831645D01*
X157503110Y-58001476D01*
X157733000Y-57880155D01*
X157733000Y-56687000D01*
X156539181Y-56687000D01*
X156418514Y-56916892D01*
X144201000Y-56916892D01*
X144201000Y-56203108D01*
X156418514Y-56203108D01*
X156539181Y-56433000D01*
X157733000Y-56433000D01*
X157733000Y-55239845D01*
X157503110Y-55118524D01*
X157093076Y-55288355D01*
X156664817Y-55678642D01*
X156418514Y-56203108D01*
X144201000Y-56203108D01*
X144201000Y-54941000D01*
X185929000Y-54941000D01*
X185929000Y-128799000D01*
X185929000Y-128799000D01*
G37*
X185929000Y-128799000D02*
X144201000Y-128799000D01*
X144201000Y-126740000D01*
X144974883Y-126740000D01*
X145068587Y-127211083D01*
X145335435Y-127610448D01*
X145734800Y-127877296D01*
X146205883Y-127971000D01*
X146254117Y-127971000D01*
X146725200Y-127877296D01*
X147124565Y-127610448D01*
X147391413Y-127211083D01*
X147485117Y-126740000D01*
X147514883Y-126740000D01*
X147608587Y-127211083D01*
X147875435Y-127610448D01*
X148274800Y-127877296D01*
X148745883Y-127971000D01*
X148794117Y-127971000D01*
X149265200Y-127877296D01*
X149664565Y-127610448D01*
X149931413Y-127211083D01*
X150025117Y-126740000D01*
X149931413Y-126268917D01*
X149664565Y-125869552D01*
X149265200Y-125602704D01*
X148794117Y-125509000D01*
X148745883Y-125509000D01*
X148274800Y-125602704D01*
X147875435Y-125869552D01*
X147608587Y-126268917D01*
X147514883Y-126740000D01*
X147485117Y-126740000D01*
X147391413Y-126268917D01*
X147124565Y-125869552D01*
X146725200Y-125602704D01*
X146254117Y-125509000D01*
X146205883Y-125509000D01*
X145734800Y-125602704D01*
X145335435Y-125869552D01*
X145068587Y-126268917D01*
X144974883Y-126740000D01*
X144201000Y-126740000D01*
X144201000Y-124200000D01*
X144974883Y-124200000D01*
X145068587Y-124671083D01*
X145335435Y-125070448D01*
X145734800Y-125337296D01*
X146205883Y-125431000D01*
X146254117Y-125431000D01*
X146725200Y-125337296D01*
X147124565Y-125070448D01*
X147391413Y-124671083D01*
X147485117Y-124200000D01*
X147514883Y-124200000D01*
X147608587Y-124671083D01*
X147875435Y-125070448D01*
X148274800Y-125337296D01*
X148745883Y-125431000D01*
X148794117Y-125431000D01*
X149265200Y-125337296D01*
X149664565Y-125070448D01*
X149875563Y-124754667D01*
X158604751Y-124754667D01*
X158724373Y-125044175D01*
X158945678Y-125265867D01*
X159175268Y-125361201D01*
X159052864Y-125483391D01*
X158932737Y-125772689D01*
X158932464Y-126085936D01*
X159052086Y-126375444D01*
X159240960Y-126564648D01*
X159174556Y-126592086D01*
X158952864Y-126813391D01*
X158832737Y-127102689D01*
X158832464Y-127415936D01*
X158952086Y-127705444D01*
X159173391Y-127927136D01*
X159462689Y-128047263D01*
X159742969Y-128047507D01*
X160050320Y-128354859D01*
X160202766Y-128456720D01*
X160382589Y-128492489D01*
X167536391Y-128492489D01*
X167716214Y-128456720D01*
X167795919Y-128403462D01*
X168098726Y-128403726D01*
X168388234Y-128284104D01*
X168609926Y-128062799D01*
X168730053Y-127773501D01*
X168730326Y-127460254D01*
X168610704Y-127170746D01*
X168529140Y-127089039D01*
X175078096Y-127089039D01*
X175238959Y-127477423D01*
X175614866Y-127892389D01*
X176120959Y-128131914D01*
X176343000Y-128010629D01*
X176343000Y-126867000D01*
X176597000Y-126867000D01*
X176597000Y-128010629D01*
X176819041Y-128131914D01*
X177325134Y-127892389D01*
X177701041Y-127477423D01*
X177861904Y-127089039D01*
X180158096Y-127089039D01*
X180318959Y-127477423D01*
X180694866Y-127892389D01*
X181200959Y-128131914D01*
X181423000Y-128010629D01*
X181423000Y-126867000D01*
X181677000Y-126867000D01*
X181677000Y-128010629D01*
X181899041Y-128131914D01*
X182405134Y-127892389D01*
X182781041Y-127477423D01*
X182941904Y-127089039D01*
X182819915Y-126867000D01*
X181677000Y-126867000D01*
X181423000Y-126867000D01*
X180280085Y-126867000D01*
X180158096Y-127089039D01*
X177861904Y-127089039D01*
X177739915Y-126867000D01*
X176597000Y-126867000D01*
X176343000Y-126867000D01*
X175200085Y-126867000D01*
X175078096Y-127089039D01*
X168529140Y-127089039D01*
X168389399Y-126949054D01*
X168100101Y-126828927D01*
X167786854Y-126828654D01*
X167497346Y-126948276D01*
X167466604Y-126978964D01*
X167514137Y-126740000D01*
X167444710Y-126390961D01*
X175078096Y-126390961D01*
X175200085Y-126613000D01*
X176343000Y-126613000D01*
X176343000Y-126593000D01*
X176597000Y-126593000D01*
X176597000Y-126613000D01*
X177739915Y-126613000D01*
X177861904Y-126390961D01*
X180158096Y-126390961D01*
X180280085Y-126613000D01*
X181423000Y-126613000D01*
X181423000Y-126593000D01*
X181677000Y-126593000D01*
X181677000Y-126613000D01*
X182819915Y-126613000D01*
X182941904Y-126390961D01*
X182781041Y-126002577D01*
X182405134Y-125587611D01*
X181899041Y-125348086D01*
X181677002Y-125469370D01*
X181677002Y-125360340D01*
X182025086Y-125291102D01*
X182408230Y-125035093D01*
X182664239Y-124651949D01*
X182754137Y-124200000D01*
X182664239Y-123748051D01*
X182408230Y-123364907D01*
X182025086Y-123108898D01*
X181573137Y-123019000D01*
X181526863Y-123019000D01*
X181074914Y-123108898D01*
X180691770Y-123364907D01*
X180435761Y-123748051D01*
X180345863Y-124200000D01*
X180435761Y-124651949D01*
X180691770Y-125035093D01*
X181074914Y-125291102D01*
X181422998Y-125360340D01*
X181422998Y-125469370D01*
X181200959Y-125348086D01*
X180694866Y-125587611D01*
X180318959Y-126002577D01*
X180158096Y-126390961D01*
X177861904Y-126390961D01*
X177701041Y-126002577D01*
X177325134Y-125587611D01*
X176819041Y-125348086D01*
X176597002Y-125469370D01*
X176597002Y-125360340D01*
X176945086Y-125291102D01*
X177328230Y-125035093D01*
X177584239Y-124651949D01*
X177674137Y-124200000D01*
X177584239Y-123748051D01*
X177328230Y-123364907D01*
X176945086Y-123108898D01*
X176493137Y-123019000D01*
X176446863Y-123019000D01*
X175994914Y-123108898D01*
X175611770Y-123364907D01*
X175355761Y-123748051D01*
X175265863Y-124200000D01*
X175355761Y-124651949D01*
X175611770Y-125035093D01*
X175994914Y-125291102D01*
X176342998Y-125360340D01*
X176342998Y-125469370D01*
X176120959Y-125348086D01*
X175614866Y-125587611D01*
X175238959Y-126002577D01*
X175078096Y-126390961D01*
X167444710Y-126390961D01*
X167424239Y-126288051D01*
X167191613Y-125939902D01*
X169166499Y-125939902D01*
X169363391Y-126137138D01*
X169652689Y-126257265D01*
X169965936Y-126257538D01*
X170255444Y-126137916D01*
X170477136Y-125916611D01*
X170597263Y-125627313D01*
X170597536Y-125314066D01*
X170477914Y-125024558D01*
X170256609Y-124802866D01*
X169967311Y-124682739D01*
X169654064Y-124682466D01*
X169364556Y-124802088D01*
X169166196Y-125000102D01*
X167191610Y-125000102D01*
X167424239Y-124651949D01*
X167514137Y-124200000D01*
X167424239Y-123748051D01*
X167178248Y-123379900D01*
X170695362Y-123379900D01*
X171392707Y-124077246D01*
X171392464Y-124355936D01*
X171512086Y-124645444D01*
X171733391Y-124867136D01*
X172022689Y-124987263D01*
X172335936Y-124987536D01*
X172625444Y-124867914D01*
X172847136Y-124646609D01*
X172967263Y-124357311D01*
X172967536Y-124044064D01*
X172847914Y-123754556D01*
X172626609Y-123532864D01*
X172337311Y-123412737D01*
X172057032Y-123412493D01*
X171222269Y-122577731D01*
X171069823Y-122475869D01*
X170890000Y-122440100D01*
X167204975Y-122440100D01*
X167424239Y-122111949D01*
X167514137Y-121660000D01*
X175265863Y-121660000D01*
X175355761Y-122111949D01*
X175611770Y-122495093D01*
X175994914Y-122751102D01*
X176446863Y-122841000D01*
X176493137Y-122841000D01*
X176945086Y-122751102D01*
X177328230Y-122495093D01*
X177584239Y-122111949D01*
X177674137Y-121660000D01*
X180345863Y-121660000D01*
X180435761Y-122111949D01*
X180691770Y-122495093D01*
X181074914Y-122751102D01*
X181526863Y-122841000D01*
X181573137Y-122841000D01*
X182025086Y-122751102D01*
X182408230Y-122495093D01*
X182664239Y-122111949D01*
X182754137Y-121660000D01*
X182664239Y-121208051D01*
X182408230Y-120824907D01*
X182025086Y-120568898D01*
X181573137Y-120479000D01*
X181526863Y-120479000D01*
X181074914Y-120568898D01*
X180691770Y-120824907D01*
X180435761Y-121208051D01*
X180345863Y-121660000D01*
X177674137Y-121660000D01*
X177584239Y-121208051D01*
X177328230Y-120824907D01*
X176945086Y-120568898D01*
X176493137Y-120479000D01*
X176446863Y-120479000D01*
X175994914Y-120568898D01*
X175611770Y-120824907D01*
X175355761Y-121208051D01*
X175265863Y-121660000D01*
X167514137Y-121660000D01*
X167424239Y-121208051D01*
X167168230Y-120824907D01*
X166785086Y-120568898D01*
X166333137Y-120479000D01*
X166286863Y-120479000D01*
X165834914Y-120568898D01*
X165451770Y-120824907D01*
X165195761Y-121208051D01*
X165105863Y-121660000D01*
X165195761Y-122111949D01*
X165415025Y-122440100D01*
X162124975Y-122440100D01*
X162344239Y-122111949D01*
X162434137Y-121660000D01*
X162344239Y-121208051D01*
X162088230Y-120824907D01*
X161705086Y-120568898D01*
X161253137Y-120479000D01*
X161206863Y-120479000D01*
X160754914Y-120568898D01*
X160371770Y-120824907D01*
X160115761Y-121208051D01*
X160025863Y-121660000D01*
X160115761Y-122111949D01*
X160355116Y-122470169D01*
X160326459Y-122475869D01*
X160174013Y-122577730D01*
X159060018Y-123691726D01*
X158958156Y-123844172D01*
X158939454Y-123938193D01*
X158725151Y-124152122D01*
X158605024Y-124441420D01*
X158604751Y-124754667D01*
X149875563Y-124754667D01*
X149931413Y-124671083D01*
X150025117Y-124200000D01*
X149931413Y-123728917D01*
X149664565Y-123329552D01*
X149265200Y-123062704D01*
X148794117Y-122969000D01*
X148745883Y-122969000D01*
X148274800Y-123062704D01*
X147875435Y-123329552D01*
X147608587Y-123728917D01*
X147514883Y-124200000D01*
X147485117Y-124200000D01*
X147391413Y-123728917D01*
X147124565Y-123329552D01*
X146725200Y-123062704D01*
X146254117Y-122969000D01*
X146205883Y-122969000D01*
X145734800Y-123062704D01*
X145335435Y-123329552D01*
X145068587Y-123728917D01*
X144974883Y-124200000D01*
X144201000Y-124200000D01*
X144201000Y-121660000D01*
X144974883Y-121660000D01*
X145068587Y-122131083D01*
X145335435Y-122530448D01*
X145734800Y-122797296D01*
X146205883Y-122891000D01*
X146254117Y-122891000D01*
X146725200Y-122797296D01*
X147124565Y-122530448D01*
X147391413Y-122131083D01*
X147485117Y-121660000D01*
X147514883Y-121660000D01*
X147608587Y-122131083D01*
X147875435Y-122530448D01*
X148274800Y-122797296D01*
X148745883Y-122891000D01*
X148794117Y-122891000D01*
X149265200Y-122797296D01*
X149664565Y-122530448D01*
X149931413Y-122131083D01*
X150025117Y-121660000D01*
X149931413Y-121188917D01*
X149664565Y-120789552D01*
X149265200Y-120522704D01*
X148794117Y-120429000D01*
X148745883Y-120429000D01*
X148274800Y-120522704D01*
X147875435Y-120789552D01*
X147608587Y-121188917D01*
X147514883Y-121660000D01*
X147485117Y-121660000D01*
X147391413Y-121188917D01*
X147124565Y-120789552D01*
X146725200Y-120522704D01*
X146254117Y-120429000D01*
X146205883Y-120429000D01*
X145734800Y-120522704D01*
X145335435Y-120789552D01*
X145068587Y-121188917D01*
X144974883Y-121660000D01*
X144201000Y-121660000D01*
X144201000Y-119120000D01*
X144974883Y-119120000D01*
X145068587Y-119591083D01*
X145335435Y-119990448D01*
X145734800Y-120257296D01*
X146205883Y-120351000D01*
X146254117Y-120351000D01*
X146725200Y-120257296D01*
X147124565Y-119990448D01*
X147391413Y-119591083D01*
X147485117Y-119120000D01*
X147514883Y-119120000D01*
X147608587Y-119591083D01*
X147875435Y-119990448D01*
X148274800Y-120257296D01*
X148745883Y-120351000D01*
X148794117Y-120351000D01*
X149265200Y-120257296D01*
X149664565Y-119990448D01*
X149931413Y-119591083D01*
X150025117Y-119120000D01*
X160025863Y-119120000D01*
X160115761Y-119571949D01*
X160371770Y-119955093D01*
X160754914Y-120211102D01*
X161206863Y-120301000D01*
X161253137Y-120301000D01*
X161705086Y-120211102D01*
X162088230Y-119955093D01*
X162344239Y-119571949D01*
X162434137Y-119120000D01*
X165105863Y-119120000D01*
X165195761Y-119571949D01*
X165451770Y-119955093D01*
X165834914Y-120211102D01*
X166286863Y-120301000D01*
X166333137Y-120301000D01*
X166785086Y-120211102D01*
X167168230Y-119955093D01*
X167424239Y-119571949D01*
X167514137Y-119120000D01*
X175265863Y-119120000D01*
X175355761Y-119571949D01*
X175611770Y-119955093D01*
X175994914Y-120211102D01*
X176446863Y-120301000D01*
X176493137Y-120301000D01*
X176945086Y-120211102D01*
X177328230Y-119955093D01*
X177584239Y-119571949D01*
X177674137Y-119120000D01*
X180345863Y-119120000D01*
X180435761Y-119571949D01*
X180691770Y-119955093D01*
X181074914Y-120211102D01*
X181526863Y-120301000D01*
X181573137Y-120301000D01*
X182025086Y-120211102D01*
X182408230Y-119955093D01*
X182664239Y-119571949D01*
X182754137Y-119120000D01*
X182664239Y-118668051D01*
X182408230Y-118284907D01*
X182025086Y-118028898D01*
X181573137Y-117939000D01*
X181526863Y-117939000D01*
X181074914Y-118028898D01*
X180691770Y-118284907D01*
X180435761Y-118668051D01*
X180345863Y-119120000D01*
X177674137Y-119120000D01*
X177584239Y-118668051D01*
X177328230Y-118284907D01*
X176945086Y-118028898D01*
X176493137Y-117939000D01*
X176446863Y-117939000D01*
X175994914Y-118028898D01*
X175611770Y-118284907D01*
X175355761Y-118668051D01*
X175265863Y-119120000D01*
X167514137Y-119120000D01*
X167424239Y-118668051D01*
X167168230Y-118284907D01*
X166785086Y-118028898D01*
X166333137Y-117939000D01*
X166286863Y-117939000D01*
X165834914Y-118028898D01*
X165451770Y-118284907D01*
X165195761Y-118668051D01*
X165105863Y-119120000D01*
X162434137Y-119120000D01*
X162344239Y-118668051D01*
X162088230Y-118284907D01*
X161705086Y-118028898D01*
X161253137Y-117939000D01*
X161206863Y-117939000D01*
X160754914Y-118028898D01*
X160371770Y-118284907D01*
X160115761Y-118668051D01*
X160025863Y-119120000D01*
X150025117Y-119120000D01*
X149931413Y-118648917D01*
X149664565Y-118249552D01*
X149265200Y-117982704D01*
X148794117Y-117889000D01*
X148745883Y-117889000D01*
X148274800Y-117982704D01*
X147875435Y-118249552D01*
X147608587Y-118648917D01*
X147514883Y-119120000D01*
X147485117Y-119120000D01*
X147391413Y-118648917D01*
X147124565Y-118249552D01*
X146725200Y-117982704D01*
X146254117Y-117889000D01*
X146205883Y-117889000D01*
X145734800Y-117982704D01*
X145335435Y-118249552D01*
X145068587Y-118648917D01*
X144974883Y-119120000D01*
X144201000Y-119120000D01*
X144201000Y-116580000D01*
X144974883Y-116580000D01*
X145068587Y-117051083D01*
X145335435Y-117450448D01*
X145734800Y-117717296D01*
X146205883Y-117811000D01*
X146254117Y-117811000D01*
X146725200Y-117717296D01*
X147124565Y-117450448D01*
X147391413Y-117051083D01*
X147485117Y-116580000D01*
X147514883Y-116580000D01*
X147608587Y-117051083D01*
X147875435Y-117450448D01*
X148274800Y-117717296D01*
X148745883Y-117811000D01*
X148794117Y-117811000D01*
X149265200Y-117717296D01*
X149664565Y-117450448D01*
X149931413Y-117051083D01*
X150025117Y-116580000D01*
X160025863Y-116580000D01*
X160115761Y-117031949D01*
X160371770Y-117415093D01*
X160754914Y-117671102D01*
X161206863Y-117761000D01*
X161253137Y-117761000D01*
X161705086Y-117671102D01*
X162088230Y-117415093D01*
X162344239Y-117031949D01*
X162434137Y-116580000D01*
X165105863Y-116580000D01*
X165195761Y-117031949D01*
X165451770Y-117415093D01*
X165834914Y-117671102D01*
X166286863Y-117761000D01*
X166333137Y-117761000D01*
X166785086Y-117671102D01*
X167168230Y-117415093D01*
X167424239Y-117031949D01*
X167514137Y-116580000D01*
X175265863Y-116580000D01*
X175355761Y-117031949D01*
X175611770Y-117415093D01*
X175994914Y-117671102D01*
X176446863Y-117761000D01*
X176493137Y-117761000D01*
X176945086Y-117671102D01*
X177328230Y-117415093D01*
X177584239Y-117031949D01*
X177674137Y-116580000D01*
X180345863Y-116580000D01*
X180435761Y-117031949D01*
X180691770Y-117415093D01*
X181074914Y-117671102D01*
X181526863Y-117761000D01*
X181573137Y-117761000D01*
X182025086Y-117671102D01*
X182408230Y-117415093D01*
X182664239Y-117031949D01*
X182754137Y-116580000D01*
X182664239Y-116128051D01*
X182408230Y-115744907D01*
X182025086Y-115488898D01*
X181573137Y-115399000D01*
X181526863Y-115399000D01*
X181074914Y-115488898D01*
X180691770Y-115744907D01*
X180435761Y-116128051D01*
X180345863Y-116580000D01*
X177674137Y-116580000D01*
X177584239Y-116128051D01*
X177328230Y-115744907D01*
X176945086Y-115488898D01*
X176493137Y-115399000D01*
X176446863Y-115399000D01*
X175994914Y-115488898D01*
X175611770Y-115744907D01*
X175355761Y-116128051D01*
X175265863Y-116580000D01*
X167514137Y-116580000D01*
X167424239Y-116128051D01*
X167168230Y-115744907D01*
X166785086Y-115488898D01*
X166333137Y-115399000D01*
X166286863Y-115399000D01*
X165834914Y-115488898D01*
X165451770Y-115744907D01*
X165195761Y-116128051D01*
X165105863Y-116580000D01*
X162434137Y-116580000D01*
X162344239Y-116128051D01*
X162088230Y-115744907D01*
X161705086Y-115488898D01*
X161253137Y-115399000D01*
X161206863Y-115399000D01*
X160754914Y-115488898D01*
X160371770Y-115744907D01*
X160115761Y-116128051D01*
X160025863Y-116580000D01*
X150025117Y-116580000D01*
X149931413Y-116108917D01*
X149664565Y-115709552D01*
X149265200Y-115442704D01*
X148794117Y-115349000D01*
X148745883Y-115349000D01*
X148274800Y-115442704D01*
X147875435Y-115709552D01*
X147608587Y-116108917D01*
X147514883Y-116580000D01*
X147485117Y-116580000D01*
X147391413Y-116108917D01*
X147124565Y-115709552D01*
X146725200Y-115442704D01*
X146254117Y-115349000D01*
X146205883Y-115349000D01*
X145734800Y-115442704D01*
X145335435Y-115709552D01*
X145068587Y-116108917D01*
X144974883Y-116580000D01*
X144201000Y-116580000D01*
X144201000Y-114040000D01*
X144974883Y-114040000D01*
X145068587Y-114511083D01*
X145335435Y-114910448D01*
X145734800Y-115177296D01*
X146205883Y-115271000D01*
X146254117Y-115271000D01*
X146725200Y-115177296D01*
X147124565Y-114910448D01*
X147391413Y-114511083D01*
X147485117Y-114040000D01*
X147514883Y-114040000D01*
X147608587Y-114511083D01*
X147875435Y-114910448D01*
X148274800Y-115177296D01*
X148745883Y-115271000D01*
X148794117Y-115271000D01*
X149265200Y-115177296D01*
X149664565Y-114910448D01*
X149931413Y-114511083D01*
X150025117Y-114040000D01*
X149931413Y-113568917D01*
X149664565Y-113169552D01*
X149265200Y-112902704D01*
X148794117Y-112809000D01*
X148745883Y-112809000D01*
X148274800Y-112902704D01*
X147875435Y-113169552D01*
X147608587Y-113568917D01*
X147514883Y-114040000D01*
X147485117Y-114040000D01*
X147391413Y-113568917D01*
X147124565Y-113169552D01*
X146725200Y-112902704D01*
X146254117Y-112809000D01*
X146205883Y-112809000D01*
X145734800Y-112902704D01*
X145335435Y-113169552D01*
X145068587Y-113568917D01*
X144974883Y-114040000D01*
X144201000Y-114040000D01*
X144201000Y-111500000D01*
X144974883Y-111500000D01*
X145068587Y-111971083D01*
X145335435Y-112370448D01*
X145734800Y-112637296D01*
X146205883Y-112731000D01*
X146254117Y-112731000D01*
X146725200Y-112637296D01*
X147124565Y-112370448D01*
X147391413Y-111971083D01*
X147485117Y-111500000D01*
X147514883Y-111500000D01*
X147608587Y-111971083D01*
X147875435Y-112370448D01*
X148274800Y-112637296D01*
X148745883Y-112731000D01*
X148794117Y-112731000D01*
X149265200Y-112637296D01*
X149664565Y-112370448D01*
X149931413Y-111971083D01*
X150025117Y-111500000D01*
X149931413Y-111028917D01*
X149664565Y-110629552D01*
X149265200Y-110362704D01*
X148794117Y-110269000D01*
X148745883Y-110269000D01*
X148274800Y-110362704D01*
X147875435Y-110629552D01*
X147608587Y-111028917D01*
X147514883Y-111500000D01*
X147485117Y-111500000D01*
X147391413Y-111028917D01*
X147124565Y-110629552D01*
X146725200Y-110362704D01*
X146254117Y-110269000D01*
X146205883Y-110269000D01*
X145734800Y-110362704D01*
X145335435Y-110629552D01*
X145068587Y-111028917D01*
X144974883Y-111500000D01*
X144201000Y-111500000D01*
X144201000Y-108960000D01*
X144974883Y-108960000D01*
X145068587Y-109431083D01*
X145335435Y-109830448D01*
X145734800Y-110097296D01*
X146205883Y-110191000D01*
X146254117Y-110191000D01*
X146725200Y-110097296D01*
X147124565Y-109830448D01*
X147391413Y-109431083D01*
X147485117Y-108960000D01*
X147514883Y-108960000D01*
X147608587Y-109431083D01*
X147875435Y-109830448D01*
X148274800Y-110097296D01*
X148745883Y-110191000D01*
X148794117Y-110191000D01*
X149265200Y-110097296D01*
X149664565Y-109830448D01*
X149931413Y-109431083D01*
X150025117Y-108960000D01*
X149931413Y-108488917D01*
X149664565Y-108089552D01*
X149265200Y-107822704D01*
X148794117Y-107729000D01*
X148745883Y-107729000D01*
X148274800Y-107822704D01*
X147875435Y-108089552D01*
X147608587Y-108488917D01*
X147514883Y-108960000D01*
X147485117Y-108960000D01*
X147391413Y-108488917D01*
X147124565Y-108089552D01*
X146725200Y-107822704D01*
X146254117Y-107729000D01*
X146205883Y-107729000D01*
X145734800Y-107822704D01*
X145335435Y-108089552D01*
X145068587Y-108488917D01*
X144974883Y-108960000D01*
X144201000Y-108960000D01*
X144201000Y-96260000D01*
X144974883Y-96260000D01*
X145068587Y-96731083D01*
X145335435Y-97130448D01*
X145734800Y-97397296D01*
X146205883Y-97491000D01*
X146254117Y-97491000D01*
X146725200Y-97397296D01*
X147124565Y-97130448D01*
X147391413Y-96731083D01*
X147485117Y-96260000D01*
X147391413Y-95788917D01*
X147124565Y-95389552D01*
X146725200Y-95122704D01*
X146254117Y-95029000D01*
X146205883Y-95029000D01*
X145734800Y-95122704D01*
X145335435Y-95389552D01*
X145068587Y-95788917D01*
X144974883Y-96260000D01*
X144201000Y-96260000D01*
X144201000Y-93720000D01*
X144974883Y-93720000D01*
X145068587Y-94191083D01*
X145335435Y-94590448D01*
X145734800Y-94857296D01*
X146205883Y-94951000D01*
X146254117Y-94951000D01*
X146725200Y-94857296D01*
X147124565Y-94590448D01*
X147381788Y-94205488D01*
X147498355Y-94486924D01*
X147888642Y-94915183D01*
X148313947Y-95114917D01*
X148274800Y-95122704D01*
X147875435Y-95389552D01*
X147608587Y-95788917D01*
X147514883Y-96260000D01*
X147608587Y-96731083D01*
X147875435Y-97130448D01*
X147999580Y-97213399D01*
X147346701Y-97213399D01*
X147166878Y-97249168D01*
X147014432Y-97351029D01*
X146747732Y-97617730D01*
X146747729Y-97617732D01*
X146706481Y-97658980D01*
X146254117Y-97569000D01*
X146205883Y-97569000D01*
X145734800Y-97662704D01*
X145335435Y-97929552D01*
X145068587Y-98328917D01*
X144974883Y-98800000D01*
X145068587Y-99271083D01*
X145335435Y-99670448D01*
X145734800Y-99937296D01*
X146205883Y-100031000D01*
X146254117Y-100031000D01*
X146725200Y-99937296D01*
X147124565Y-99670448D01*
X147391413Y-99271083D01*
X147485117Y-98800000D01*
X147391413Y-98328917D01*
X147381083Y-98313456D01*
X147412268Y-98282271D01*
X147412270Y-98282268D01*
X147541339Y-98153199D01*
X147725998Y-98153199D01*
X147608587Y-98328917D01*
X147514883Y-98800000D01*
X147608587Y-99271083D01*
X147835112Y-99610100D01*
X147490000Y-99610100D01*
X147310177Y-99645869D01*
X147157731Y-99747731D01*
X146747732Y-100157730D01*
X146747729Y-100157732D01*
X146706481Y-100198980D01*
X146254117Y-100109000D01*
X146205883Y-100109000D01*
X145734800Y-100202704D01*
X145335435Y-100469552D01*
X145068587Y-100868917D01*
X144974883Y-101340000D01*
X145068587Y-101811083D01*
X145335435Y-102210448D01*
X145734800Y-102477296D01*
X146205883Y-102571000D01*
X146254117Y-102571000D01*
X146725200Y-102477296D01*
X147124565Y-102210448D01*
X147391413Y-101811083D01*
X147485117Y-101340000D01*
X147391413Y-100868917D01*
X147381083Y-100853456D01*
X147412268Y-100822271D01*
X147412270Y-100822268D01*
X147684638Y-100549900D01*
X147821748Y-100549900D01*
X147608587Y-100868917D01*
X147514883Y-101340000D01*
X147608587Y-101811083D01*
X147841793Y-102160100D01*
X147480000Y-102160100D01*
X147300177Y-102195869D01*
X147147731Y-102297730D01*
X146747732Y-102697730D01*
X146747729Y-102697732D01*
X146706481Y-102738980D01*
X146254117Y-102649000D01*
X146205883Y-102649000D01*
X145734800Y-102742704D01*
X145335435Y-103009552D01*
X145068587Y-103408917D01*
X144974883Y-103880000D01*
X145068587Y-104351083D01*
X145335435Y-104750448D01*
X145734800Y-105017296D01*
X146205883Y-105111000D01*
X146254117Y-105111000D01*
X146725200Y-105017296D01*
X147124565Y-104750448D01*
X147391413Y-104351083D01*
X147485117Y-103880000D01*
X147391413Y-103408917D01*
X147381083Y-103393456D01*
X147412268Y-103362271D01*
X147412270Y-103362268D01*
X147674639Y-103099900D01*
X147815066Y-103099900D01*
X147608587Y-103408917D01*
X147514883Y-103880000D01*
X147608587Y-104351083D01*
X147828430Y-104680100D01*
X147500000Y-104680100D01*
X147324078Y-104715093D01*
X147320177Y-104715869D01*
X147167730Y-104817731D01*
X146747732Y-105237730D01*
X146747729Y-105237732D01*
X146706481Y-105278980D01*
X146254117Y-105189000D01*
X146205883Y-105189000D01*
X145734800Y-105282704D01*
X145335435Y-105549552D01*
X145068587Y-105948917D01*
X144974883Y-106420000D01*
X145068587Y-106891083D01*
X145335435Y-107290448D01*
X145734800Y-107557296D01*
X146205883Y-107651000D01*
X146254117Y-107651000D01*
X146725200Y-107557296D01*
X147124565Y-107290448D01*
X147391413Y-106891083D01*
X147485117Y-106420000D01*
X147391413Y-105948917D01*
X147381083Y-105933456D01*
X147412268Y-105902271D01*
X147412270Y-105902268D01*
X147694639Y-105619900D01*
X147828430Y-105619900D01*
X147608587Y-105948917D01*
X147514883Y-106420000D01*
X147608587Y-106891083D01*
X147875435Y-107290448D01*
X148274800Y-107557296D01*
X148745883Y-107651000D01*
X148794117Y-107651000D01*
X149265200Y-107557296D01*
X149664565Y-107290448D01*
X149931413Y-106891083D01*
X149931648Y-106889900D01*
X151661536Y-106889900D01*
X151661536Y-107210000D01*
X151688103Y-107351190D01*
X151771546Y-107480865D01*
X151898866Y-107567859D01*
X152050000Y-107598464D01*
X153050000Y-107598464D01*
X153191190Y-107571897D01*
X153320865Y-107488454D01*
X153326710Y-107479900D01*
X154090000Y-107479900D01*
X154269823Y-107444131D01*
X154422269Y-107342269D01*
X155955568Y-105808971D01*
X156057430Y-105656524D01*
X156065121Y-105617859D01*
X156093199Y-105476701D01*
X156093199Y-101184091D01*
X156111065Y-101201988D01*
X156400363Y-101322115D01*
X156713610Y-101322388D01*
X156757788Y-101304134D01*
X156757788Y-105839206D01*
X156504133Y-106092861D01*
X156402271Y-106245307D01*
X156383569Y-106339328D01*
X156169266Y-106553257D01*
X156049139Y-106842555D01*
X156048866Y-107155802D01*
X156166335Y-107440100D01*
X155850000Y-107440100D01*
X155670177Y-107475869D01*
X155517731Y-107577731D01*
X153897731Y-109197731D01*
X153795869Y-109350177D01*
X153769740Y-109481536D01*
X153480000Y-109481536D01*
X153338810Y-109508103D01*
X153209135Y-109591546D01*
X153122141Y-109718866D01*
X153091536Y-109870000D01*
X153091536Y-111170000D01*
X153118103Y-111311190D01*
X153201546Y-111440865D01*
X153328866Y-111527859D01*
X153480000Y-111558464D01*
X154980000Y-111558464D01*
X155121190Y-111531897D01*
X155250865Y-111448454D01*
X155337859Y-111321134D01*
X155368464Y-111170000D01*
X155368464Y-109870000D01*
X155341897Y-109728810D01*
X155258454Y-109599135D01*
X155131134Y-109512141D01*
X154980000Y-109481536D01*
X154943002Y-109481536D01*
X155664259Y-108760279D01*
X155782086Y-109045444D01*
X156003391Y-109267136D01*
X156292689Y-109387263D01*
X156460100Y-109387409D01*
X156460100Y-109481536D01*
X156180000Y-109481536D01*
X156038810Y-109508103D01*
X155909135Y-109591546D01*
X155822141Y-109718866D01*
X155791536Y-109870000D01*
X155791536Y-111170000D01*
X155818103Y-111311190D01*
X155901546Y-111440865D01*
X156028866Y-111527859D01*
X156180000Y-111558464D01*
X157680000Y-111558464D01*
X157821190Y-111531897D01*
X157950865Y-111448454D01*
X158037859Y-111321134D01*
X158068464Y-111170000D01*
X158068464Y-109870000D01*
X158041897Y-109728810D01*
X157958454Y-109599135D01*
X157831134Y-109512141D01*
X157680000Y-109481536D01*
X157399900Y-109481536D01*
X157399900Y-109080000D01*
X157382194Y-108990986D01*
X157470069Y-108932269D01*
X158682270Y-107720069D01*
X158750100Y-107618554D01*
X158750100Y-111068718D01*
X158785869Y-111248541D01*
X158887731Y-111400987D01*
X160563524Y-113076781D01*
X160371770Y-113204907D01*
X160115761Y-113588051D01*
X160025863Y-114040000D01*
X160115761Y-114491949D01*
X160371770Y-114875093D01*
X160754914Y-115131102D01*
X161206863Y-115221000D01*
X161253137Y-115221000D01*
X161705086Y-115131102D01*
X162088230Y-114875093D01*
X162344239Y-114491949D01*
X162434137Y-114040000D01*
X162344239Y-113588051D01*
X162247452Y-113443199D01*
X165292548Y-113443199D01*
X165195761Y-113588051D01*
X165105863Y-114040000D01*
X165195761Y-114491949D01*
X165451770Y-114875093D01*
X165834914Y-115131102D01*
X166286863Y-115221000D01*
X166333137Y-115221000D01*
X166785086Y-115131102D01*
X167168230Y-114875093D01*
X167424239Y-114491949D01*
X167514137Y-114040000D01*
X167424239Y-113588051D01*
X167327452Y-113443199D01*
X175208661Y-113443199D01*
X175355388Y-113589926D01*
X175265863Y-114040000D01*
X175355761Y-114491949D01*
X175611770Y-114875093D01*
X175994914Y-115131102D01*
X176446863Y-115221000D01*
X176493137Y-115221000D01*
X176945086Y-115131102D01*
X177328230Y-114875093D01*
X177584239Y-114491949D01*
X177674137Y-114040000D01*
X180345863Y-114040000D01*
X180435761Y-114491949D01*
X180691770Y-114875093D01*
X181074914Y-115131102D01*
X181526863Y-115221000D01*
X181573137Y-115221000D01*
X182025086Y-115131102D01*
X182408230Y-114875093D01*
X182664239Y-114491949D01*
X182754137Y-114040000D01*
X182664239Y-113588051D01*
X182408230Y-113204907D01*
X182025086Y-112948898D01*
X181573137Y-112859000D01*
X181526863Y-112859000D01*
X181074914Y-112948898D01*
X180691770Y-113204907D01*
X180435761Y-113588051D01*
X180345863Y-114040000D01*
X177674137Y-114040000D01*
X177584239Y-113588051D01*
X177328230Y-113204907D01*
X176945086Y-112948898D01*
X176493137Y-112859000D01*
X176446863Y-112859000D01*
X176035386Y-112940848D01*
X175735568Y-112641030D01*
X175583122Y-112539168D01*
X175403299Y-112503399D01*
X166916343Y-112503399D01*
X167168230Y-112335093D01*
X167424239Y-111951949D01*
X167514137Y-111500000D01*
X167424239Y-111048051D01*
X167168230Y-110664907D01*
X167115838Y-110629900D01*
X174935362Y-110629900D01*
X175355388Y-111049926D01*
X175265863Y-111500000D01*
X175355761Y-111951949D01*
X175611770Y-112335093D01*
X175994914Y-112591102D01*
X176446863Y-112681000D01*
X176493137Y-112681000D01*
X176945086Y-112591102D01*
X177328230Y-112335093D01*
X177584239Y-111951949D01*
X177674137Y-111500000D01*
X180345863Y-111500000D01*
X180435761Y-111951949D01*
X180691770Y-112335093D01*
X181074914Y-112591102D01*
X181526863Y-112681000D01*
X181573137Y-112681000D01*
X182025086Y-112591102D01*
X182408230Y-112335093D01*
X182664239Y-111951949D01*
X182754137Y-111500000D01*
X182664239Y-111048051D01*
X182408230Y-110664907D01*
X182025086Y-110408898D01*
X181573137Y-110319000D01*
X181526863Y-110319000D01*
X181074914Y-110408898D01*
X180691770Y-110664907D01*
X180435761Y-111048051D01*
X180345863Y-111500000D01*
X177674137Y-111500000D01*
X177584239Y-111048051D01*
X177328230Y-110664907D01*
X176945086Y-110408898D01*
X176493137Y-110319000D01*
X176446863Y-110319000D01*
X176035386Y-110400848D01*
X175462269Y-109827731D01*
X175309823Y-109725869D01*
X175130000Y-109690100D01*
X167238384Y-109690100D01*
X167424239Y-109411949D01*
X167514137Y-108960000D01*
X167424239Y-108508051D01*
X167211657Y-108189900D01*
X175035362Y-108189900D01*
X175355388Y-108509926D01*
X175265863Y-108960000D01*
X175355761Y-109411949D01*
X175611770Y-109795093D01*
X175994914Y-110051102D01*
X176446863Y-110141000D01*
X176493137Y-110141000D01*
X176945086Y-110051102D01*
X177328230Y-109795093D01*
X177584239Y-109411949D01*
X177674137Y-108960000D01*
X180345863Y-108960000D01*
X180435761Y-109411949D01*
X180691770Y-109795093D01*
X181074914Y-110051102D01*
X181526863Y-110141000D01*
X181573137Y-110141000D01*
X182025086Y-110051102D01*
X182408230Y-109795093D01*
X182664239Y-109411949D01*
X182754137Y-108960000D01*
X182664239Y-108508051D01*
X182408230Y-108124907D01*
X182025086Y-107868898D01*
X181573137Y-107779000D01*
X181526863Y-107779000D01*
X181074914Y-107868898D01*
X180691770Y-108124907D01*
X180435761Y-108508051D01*
X180345863Y-108960000D01*
X177674137Y-108960000D01*
X177584239Y-108508051D01*
X177328230Y-108124907D01*
X176945086Y-107868898D01*
X176493137Y-107779000D01*
X176446863Y-107779000D01*
X176035386Y-107860848D01*
X175562269Y-107387731D01*
X175409823Y-107285869D01*
X175230000Y-107250100D01*
X167171566Y-107250100D01*
X167424239Y-106871949D01*
X167514137Y-106420000D01*
X167424239Y-105968051D01*
X167198293Y-105629900D01*
X175015362Y-105629900D01*
X175337732Y-105952271D01*
X175337735Y-105952273D01*
X175355388Y-105969926D01*
X175265863Y-106420000D01*
X175355761Y-106871949D01*
X175611770Y-107255093D01*
X175994914Y-107511102D01*
X176446863Y-107601000D01*
X176493137Y-107601000D01*
X176945086Y-107511102D01*
X177328230Y-107255093D01*
X177584239Y-106871949D01*
X177674137Y-106420000D01*
X180345863Y-106420000D01*
X180435761Y-106871949D01*
X180691770Y-107255093D01*
X181074914Y-107511102D01*
X181526863Y-107601000D01*
X181573137Y-107601000D01*
X182025086Y-107511102D01*
X182408230Y-107255093D01*
X182664239Y-106871949D01*
X182754137Y-106420000D01*
X182664239Y-105968051D01*
X182408230Y-105584907D01*
X182025086Y-105328898D01*
X181573137Y-105239000D01*
X181526863Y-105239000D01*
X181074914Y-105328898D01*
X180691770Y-105584907D01*
X180435761Y-105968051D01*
X180345863Y-106420000D01*
X177674137Y-106420000D01*
X177584239Y-105968051D01*
X177328230Y-105584907D01*
X176945086Y-105328898D01*
X176493137Y-105239000D01*
X176446863Y-105239000D01*
X176035386Y-105320848D01*
X176002273Y-105287735D01*
X176002271Y-105287732D01*
X175542269Y-104827731D01*
X175389823Y-104725869D01*
X175210000Y-104690100D01*
X167184930Y-104690100D01*
X167424239Y-104331949D01*
X167514137Y-103880000D01*
X167424239Y-103428051D01*
X167218339Y-103119900D01*
X175045362Y-103119900D01*
X175355388Y-103429926D01*
X175265863Y-103880000D01*
X175355761Y-104331949D01*
X175611770Y-104715093D01*
X175994914Y-104971102D01*
X176446863Y-105061000D01*
X176493137Y-105061000D01*
X176945086Y-104971102D01*
X177328230Y-104715093D01*
X177584239Y-104331949D01*
X177674137Y-103880000D01*
X180345863Y-103880000D01*
X180435761Y-104331949D01*
X180691770Y-104715093D01*
X181074914Y-104971102D01*
X181526863Y-105061000D01*
X181573137Y-105061000D01*
X182025086Y-104971102D01*
X182408230Y-104715093D01*
X182664239Y-104331949D01*
X182754137Y-103880000D01*
X182664239Y-103428051D01*
X182408230Y-103044907D01*
X182025086Y-102788898D01*
X181573137Y-102699000D01*
X181526863Y-102699000D01*
X181074914Y-102788898D01*
X180691770Y-103044907D01*
X180435761Y-103428051D01*
X180345863Y-103880000D01*
X177674137Y-103880000D01*
X177584239Y-103428051D01*
X177328230Y-103044907D01*
X176945086Y-102788898D01*
X176493137Y-102699000D01*
X176446863Y-102699000D01*
X176035386Y-102780848D01*
X175572269Y-102317731D01*
X175419823Y-102215869D01*
X175240000Y-102180100D01*
X167160737Y-102180100D01*
X167168230Y-102175093D01*
X167424239Y-101791949D01*
X167514137Y-101340000D01*
X167424239Y-100888051D01*
X167204975Y-100559900D01*
X175025362Y-100559900D01*
X175337732Y-100872271D01*
X175337735Y-100872273D01*
X175355388Y-100889926D01*
X175265863Y-101340000D01*
X175355761Y-101791949D01*
X175611770Y-102175093D01*
X175994914Y-102431102D01*
X176446863Y-102521000D01*
X176493137Y-102521000D01*
X176945086Y-102431102D01*
X177328230Y-102175093D01*
X177584239Y-101791949D01*
X177674137Y-101340000D01*
X180345863Y-101340000D01*
X180435761Y-101791949D01*
X180691770Y-102175093D01*
X181074914Y-102431102D01*
X181526863Y-102521000D01*
X181573137Y-102521000D01*
X182025086Y-102431102D01*
X182408230Y-102175093D01*
X182664239Y-101791949D01*
X182754137Y-101340000D01*
X182664239Y-100888051D01*
X182408230Y-100504907D01*
X182025086Y-100248898D01*
X181573137Y-100159000D01*
X181526863Y-100159000D01*
X181074914Y-100248898D01*
X180691770Y-100504907D01*
X180435761Y-100888051D01*
X180345863Y-101340000D01*
X177674137Y-101340000D01*
X177584239Y-100888051D01*
X177328230Y-100504907D01*
X176945086Y-100248898D01*
X176493137Y-100159000D01*
X176446863Y-100159000D01*
X176035386Y-100240848D01*
X176002273Y-100207735D01*
X176002271Y-100207732D01*
X175552269Y-99757731D01*
X175399823Y-99655869D01*
X175220000Y-99620100D01*
X167178248Y-99620100D01*
X167424239Y-99251949D01*
X167514137Y-98800000D01*
X167424239Y-98348051D01*
X167198293Y-98009900D01*
X175015362Y-98009900D01*
X175355388Y-98349926D01*
X175265863Y-98800000D01*
X175355761Y-99251949D01*
X175611770Y-99635093D01*
X175994914Y-99891102D01*
X176446863Y-99981000D01*
X176493137Y-99981000D01*
X176945086Y-99891102D01*
X177328230Y-99635093D01*
X177584239Y-99251949D01*
X177674137Y-98800000D01*
X180345863Y-98800000D01*
X180435761Y-99251949D01*
X180691770Y-99635093D01*
X181074914Y-99891102D01*
X181526863Y-99981000D01*
X181573137Y-99981000D01*
X182025086Y-99891102D01*
X182408230Y-99635093D01*
X182664239Y-99251949D01*
X182754137Y-98800000D01*
X182664239Y-98348051D01*
X182408230Y-97964907D01*
X182025086Y-97708898D01*
X181573137Y-97619000D01*
X181526863Y-97619000D01*
X181074914Y-97708898D01*
X180691770Y-97964907D01*
X180435761Y-98348051D01*
X180345863Y-98800000D01*
X177674137Y-98800000D01*
X177584239Y-98348051D01*
X177328230Y-97964907D01*
X176945086Y-97708898D01*
X176493137Y-97619000D01*
X176446863Y-97619000D01*
X176035386Y-97700848D01*
X175542269Y-97207731D01*
X175389823Y-97105869D01*
X175210000Y-97070100D01*
X167184930Y-97070100D01*
X167424239Y-96711949D01*
X167514137Y-96260000D01*
X167424239Y-95808051D01*
X167168230Y-95424907D01*
X167160737Y-95419900D01*
X174965362Y-95419900D01*
X175355388Y-95809926D01*
X175265863Y-96260000D01*
X175355761Y-96711949D01*
X175611770Y-97095093D01*
X175994914Y-97351102D01*
X176446863Y-97441000D01*
X176493137Y-97441000D01*
X176945086Y-97351102D01*
X177328230Y-97095093D01*
X177584239Y-96711949D01*
X177674137Y-96260000D01*
X180345863Y-96260000D01*
X180435761Y-96711949D01*
X180691770Y-97095093D01*
X181074914Y-97351102D01*
X181526863Y-97441000D01*
X181573137Y-97441000D01*
X182025086Y-97351102D01*
X182408230Y-97095093D01*
X182664239Y-96711949D01*
X182754137Y-96260000D01*
X182664239Y-95808051D01*
X182408230Y-95424907D01*
X182025086Y-95168898D01*
X181573137Y-95079000D01*
X181526863Y-95079000D01*
X181074914Y-95168898D01*
X180691770Y-95424907D01*
X180435761Y-95808051D01*
X180345863Y-96260000D01*
X177674137Y-96260000D01*
X177584239Y-95808051D01*
X177328230Y-95424907D01*
X176945086Y-95168898D01*
X176493137Y-95079000D01*
X176446863Y-95079000D01*
X176035386Y-95160848D01*
X175492269Y-94617731D01*
X175339823Y-94515869D01*
X175160000Y-94480100D01*
X167218339Y-94480100D01*
X167424239Y-94171949D01*
X167514137Y-93720000D01*
X175265863Y-93720000D01*
X175355761Y-94171949D01*
X175611770Y-94555093D01*
X175994914Y-94811102D01*
X176446863Y-94901000D01*
X176493137Y-94901000D01*
X176945086Y-94811102D01*
X177328230Y-94555093D01*
X177584239Y-94171949D01*
X177674137Y-93720000D01*
X180345863Y-93720000D01*
X180435761Y-94171949D01*
X180691770Y-94555093D01*
X181074914Y-94811102D01*
X181526863Y-94901000D01*
X181573137Y-94901000D01*
X182025086Y-94811102D01*
X182408230Y-94555093D01*
X182664239Y-94171949D01*
X182754137Y-93720000D01*
X182664239Y-93268051D01*
X182408230Y-92884907D01*
X182025086Y-92628898D01*
X181573137Y-92539000D01*
X181526863Y-92539000D01*
X181074914Y-92628898D01*
X180691770Y-92884907D01*
X180435761Y-93268051D01*
X180345863Y-93720000D01*
X177674137Y-93720000D01*
X177584239Y-93268051D01*
X177328230Y-92884907D01*
X176945086Y-92628898D01*
X176493137Y-92539000D01*
X176446863Y-92539000D01*
X175994914Y-92628898D01*
X175611770Y-92884907D01*
X175355761Y-93268051D01*
X175265863Y-93720000D01*
X167514137Y-93720000D01*
X167424239Y-93268051D01*
X167168230Y-92884907D01*
X166785086Y-92628898D01*
X166333137Y-92539000D01*
X166286863Y-92539000D01*
X165834914Y-92628898D01*
X165451770Y-92884907D01*
X165195761Y-93268051D01*
X165105863Y-93720000D01*
X165195761Y-94171949D01*
X165401661Y-94480100D01*
X162138339Y-94480100D01*
X162344239Y-94171949D01*
X162434137Y-93720000D01*
X162344239Y-93268051D01*
X162088230Y-92884907D01*
X161705086Y-92628898D01*
X161253137Y-92539000D01*
X161206863Y-92539000D01*
X160754914Y-92628898D01*
X160371770Y-92884907D01*
X160306733Y-92982242D01*
X160306733Y-91917758D01*
X160371770Y-92015093D01*
X160754914Y-92271102D01*
X161206863Y-92361000D01*
X161253137Y-92361000D01*
X161705086Y-92271102D01*
X162088230Y-92015093D01*
X162344239Y-91631949D01*
X162434137Y-91180000D01*
X165105863Y-91180000D01*
X165195761Y-91631949D01*
X165451770Y-92015093D01*
X165834914Y-92271102D01*
X166286863Y-92361000D01*
X166333137Y-92361000D01*
X166785086Y-92271102D01*
X167168230Y-92015093D01*
X167424239Y-91631949D01*
X167514137Y-91180000D01*
X175265863Y-91180000D01*
X175355761Y-91631949D01*
X175611770Y-92015093D01*
X175994914Y-92271102D01*
X176446863Y-92361000D01*
X176493137Y-92361000D01*
X176945086Y-92271102D01*
X177328230Y-92015093D01*
X177584239Y-91631949D01*
X177674137Y-91180000D01*
X180345863Y-91180000D01*
X180435761Y-91631949D01*
X180691770Y-92015093D01*
X181074914Y-92271102D01*
X181526863Y-92361000D01*
X181573137Y-92361000D01*
X182025086Y-92271102D01*
X182408230Y-92015093D01*
X182664239Y-91631949D01*
X182754137Y-91180000D01*
X182664239Y-90728051D01*
X182408230Y-90344907D01*
X182025086Y-90088898D01*
X181573137Y-89999000D01*
X181526863Y-89999000D01*
X181074914Y-90088898D01*
X180691770Y-90344907D01*
X180435761Y-90728051D01*
X180345863Y-91180000D01*
X177674137Y-91180000D01*
X177584239Y-90728051D01*
X177328230Y-90344907D01*
X176945086Y-90088898D01*
X176493137Y-89999000D01*
X176446863Y-89999000D01*
X175994914Y-90088898D01*
X175611770Y-90344907D01*
X175355761Y-90728051D01*
X175265863Y-91180000D01*
X167514137Y-91180000D01*
X167424239Y-90728051D01*
X167168230Y-90344907D01*
X166785086Y-90088898D01*
X166333137Y-89999000D01*
X166286863Y-89999000D01*
X165834914Y-90088898D01*
X165451770Y-90344907D01*
X165195761Y-90728051D01*
X165105863Y-91180000D01*
X162434137Y-91180000D01*
X162344239Y-90728051D01*
X162088230Y-90344907D01*
X161705086Y-90088898D01*
X161253137Y-89999000D01*
X161206863Y-89999000D01*
X160754914Y-90088898D01*
X160371770Y-90344907D01*
X160306733Y-90442242D01*
X160306733Y-89377758D01*
X160371770Y-89475093D01*
X160754914Y-89731102D01*
X161206863Y-89821000D01*
X161253137Y-89821000D01*
X161705086Y-89731102D01*
X162088230Y-89475093D01*
X162344239Y-89091949D01*
X162434137Y-88640000D01*
X165105863Y-88640000D01*
X165195761Y-89091949D01*
X165451770Y-89475093D01*
X165834914Y-89731102D01*
X166286863Y-89821000D01*
X166333137Y-89821000D01*
X166785086Y-89731102D01*
X167168230Y-89475093D01*
X167424239Y-89091949D01*
X167514137Y-88640000D01*
X175265863Y-88640000D01*
X175355761Y-89091949D01*
X175611770Y-89475093D01*
X175994914Y-89731102D01*
X176446863Y-89821000D01*
X176493137Y-89821000D01*
X176945086Y-89731102D01*
X177328230Y-89475093D01*
X177584239Y-89091949D01*
X177674137Y-88640000D01*
X180345863Y-88640000D01*
X180435761Y-89091949D01*
X180691770Y-89475093D01*
X181074914Y-89731102D01*
X181526863Y-89821000D01*
X181573137Y-89821000D01*
X182025086Y-89731102D01*
X182408230Y-89475093D01*
X182664239Y-89091949D01*
X182754137Y-88640000D01*
X182664239Y-88188051D01*
X182408230Y-87804907D01*
X182025086Y-87548898D01*
X181573137Y-87459000D01*
X181526863Y-87459000D01*
X181074914Y-87548898D01*
X180691770Y-87804907D01*
X180435761Y-88188051D01*
X180345863Y-88640000D01*
X177674137Y-88640000D01*
X177584239Y-88188051D01*
X177328230Y-87804907D01*
X176945086Y-87548898D01*
X176493137Y-87459000D01*
X176446863Y-87459000D01*
X175994914Y-87548898D01*
X175611770Y-87804907D01*
X175355761Y-88188051D01*
X175265863Y-88640000D01*
X167514137Y-88640000D01*
X167424239Y-88188051D01*
X167168230Y-87804907D01*
X166785086Y-87548898D01*
X166333137Y-87459000D01*
X166286863Y-87459000D01*
X165834914Y-87548898D01*
X165451770Y-87804907D01*
X165195761Y-88188051D01*
X165105863Y-88640000D01*
X162434137Y-88640000D01*
X162344239Y-88188051D01*
X162124975Y-87859900D01*
X162416499Y-87859900D01*
X162613391Y-88057136D01*
X162902689Y-88177263D01*
X163215936Y-88177536D01*
X163505444Y-88057914D01*
X163727136Y-87836609D01*
X163847263Y-87547311D01*
X163847536Y-87234064D01*
X163727914Y-86944556D01*
X163506609Y-86722864D01*
X163217311Y-86602737D01*
X162904064Y-86602464D01*
X162614556Y-86722086D01*
X162416196Y-86920100D01*
X162098248Y-86920100D01*
X162344239Y-86551949D01*
X162434137Y-86100000D01*
X165105863Y-86100000D01*
X165195761Y-86551949D01*
X165451770Y-86935093D01*
X165834914Y-87191102D01*
X166286863Y-87281000D01*
X166333137Y-87281000D01*
X166785086Y-87191102D01*
X167168230Y-86935093D01*
X167424239Y-86551949D01*
X167514137Y-86100000D01*
X175265863Y-86100000D01*
X175355761Y-86551949D01*
X175611770Y-86935093D01*
X175994914Y-87191102D01*
X176446863Y-87281000D01*
X176493137Y-87281000D01*
X176945086Y-87191102D01*
X177328230Y-86935093D01*
X177584239Y-86551949D01*
X177674137Y-86100000D01*
X180345863Y-86100000D01*
X180435761Y-86551949D01*
X180691770Y-86935093D01*
X181074914Y-87191102D01*
X181526863Y-87281000D01*
X181573137Y-87281000D01*
X182025086Y-87191102D01*
X182408230Y-86935093D01*
X182664239Y-86551949D01*
X182754137Y-86100000D01*
X182664239Y-85648051D01*
X182408230Y-85264907D01*
X182025086Y-85008898D01*
X181573137Y-84919000D01*
X181526863Y-84919000D01*
X181074914Y-85008898D01*
X180691770Y-85264907D01*
X180435761Y-85648051D01*
X180345863Y-86100000D01*
X177674137Y-86100000D01*
X177584239Y-85648051D01*
X177328230Y-85264907D01*
X176945086Y-85008898D01*
X176493137Y-84919000D01*
X176446863Y-84919000D01*
X175994914Y-85008898D01*
X175611770Y-85264907D01*
X175355761Y-85648051D01*
X175265863Y-86100000D01*
X167514137Y-86100000D01*
X167424239Y-85648051D01*
X167168230Y-85264907D01*
X166785086Y-85008898D01*
X166333137Y-84919000D01*
X166286863Y-84919000D01*
X165834914Y-85008898D01*
X165451770Y-85264907D01*
X165195761Y-85648051D01*
X165105863Y-86100000D01*
X162434137Y-86100000D01*
X162344239Y-85648051D01*
X162098248Y-85279900D01*
X162416499Y-85279900D01*
X162613391Y-85477136D01*
X162902689Y-85597263D01*
X163215936Y-85597536D01*
X163505444Y-85477914D01*
X163727136Y-85256609D01*
X163847263Y-84967311D01*
X163847536Y-84654064D01*
X163727914Y-84364556D01*
X163506609Y-84142864D01*
X163217311Y-84022737D01*
X162904064Y-84022464D01*
X162614556Y-84142086D01*
X162416196Y-84340100D01*
X162124975Y-84340100D01*
X162344239Y-84011949D01*
X162434137Y-83560000D01*
X165105863Y-83560000D01*
X165195761Y-84011949D01*
X165451770Y-84395093D01*
X165834914Y-84651102D01*
X166286863Y-84741000D01*
X166333137Y-84741000D01*
X166785086Y-84651102D01*
X167168230Y-84395093D01*
X167424239Y-84011949D01*
X167514137Y-83560000D01*
X175265863Y-83560000D01*
X175355761Y-84011949D01*
X175611770Y-84395093D01*
X175994914Y-84651102D01*
X176446863Y-84741000D01*
X176493137Y-84741000D01*
X176945086Y-84651102D01*
X177328230Y-84395093D01*
X177584239Y-84011949D01*
X177674137Y-83560000D01*
X180345863Y-83560000D01*
X180435761Y-84011949D01*
X180691770Y-84395093D01*
X181074914Y-84651102D01*
X181526863Y-84741000D01*
X181573137Y-84741000D01*
X182025086Y-84651102D01*
X182408230Y-84395093D01*
X182664239Y-84011949D01*
X182754137Y-83560000D01*
X182664239Y-83108051D01*
X182408230Y-82724907D01*
X182025086Y-82468898D01*
X181573137Y-82379000D01*
X181526863Y-82379000D01*
X181074914Y-82468898D01*
X180691770Y-82724907D01*
X180435761Y-83108051D01*
X180345863Y-83560000D01*
X177674137Y-83560000D01*
X177584239Y-83108051D01*
X177328230Y-82724907D01*
X176945086Y-82468898D01*
X176493137Y-82379000D01*
X176446863Y-82379000D01*
X175994914Y-82468898D01*
X175611770Y-82724907D01*
X175355761Y-83108051D01*
X175265863Y-83560000D01*
X167514137Y-83560000D01*
X167424239Y-83108051D01*
X167168230Y-82724907D01*
X166785086Y-82468898D01*
X166333137Y-82379000D01*
X166286863Y-82379000D01*
X165834914Y-82468898D01*
X165451770Y-82724907D01*
X165195761Y-83108051D01*
X165105863Y-83560000D01*
X162434137Y-83560000D01*
X162344239Y-83108051D01*
X162088230Y-82724907D01*
X162080737Y-82719900D01*
X162376499Y-82719900D01*
X162573391Y-82917136D01*
X162862689Y-83037263D01*
X163175936Y-83037536D01*
X163465444Y-82917914D01*
X163687136Y-82696609D01*
X163807263Y-82407311D01*
X163807536Y-82094064D01*
X163687914Y-81804556D01*
X163466609Y-81582864D01*
X163177311Y-81462737D01*
X162864064Y-81462464D01*
X162574556Y-81582086D01*
X162376196Y-81780100D01*
X162138339Y-81780100D01*
X162344239Y-81471949D01*
X162434137Y-81020000D01*
X165105863Y-81020000D01*
X165195761Y-81471949D01*
X165451770Y-81855093D01*
X165834914Y-82111102D01*
X166286863Y-82201000D01*
X166333137Y-82201000D01*
X166785086Y-82111102D01*
X167168230Y-81855093D01*
X167424239Y-81471949D01*
X167514137Y-81020000D01*
X175265863Y-81020000D01*
X175355761Y-81471949D01*
X175611770Y-81855093D01*
X175994914Y-82111102D01*
X176446863Y-82201000D01*
X176493137Y-82201000D01*
X176945086Y-82111102D01*
X177328230Y-81855093D01*
X177584239Y-81471949D01*
X177674137Y-81020000D01*
X180345863Y-81020000D01*
X180435761Y-81471949D01*
X180691770Y-81855093D01*
X181074914Y-82111102D01*
X181526863Y-82201000D01*
X181573137Y-82201000D01*
X182025086Y-82111102D01*
X182408230Y-81855093D01*
X182664239Y-81471949D01*
X182754137Y-81020000D01*
X182664239Y-80568051D01*
X182408230Y-80184907D01*
X182025086Y-79928898D01*
X181573137Y-79839000D01*
X181526863Y-79839000D01*
X181074914Y-79928898D01*
X180691770Y-80184907D01*
X180435761Y-80568051D01*
X180345863Y-81020000D01*
X177674137Y-81020000D01*
X177584239Y-80568051D01*
X177328230Y-80184907D01*
X176945086Y-79928898D01*
X176493137Y-79839000D01*
X176446863Y-79839000D01*
X175994914Y-79928898D01*
X175611770Y-80184907D01*
X175355761Y-80568051D01*
X175265863Y-81020000D01*
X167514137Y-81020000D01*
X167424239Y-80568051D01*
X167168230Y-80184907D01*
X166785086Y-79928898D01*
X166333137Y-79839000D01*
X166286863Y-79839000D01*
X165834914Y-79928898D01*
X165451770Y-80184907D01*
X165195761Y-80568051D01*
X165105863Y-81020000D01*
X162434137Y-81020000D01*
X162344239Y-80568051D01*
X162131657Y-80249900D01*
X162376499Y-80249900D01*
X162573391Y-80447136D01*
X162862689Y-80567263D01*
X163175936Y-80567536D01*
X163465444Y-80447914D01*
X163687136Y-80226609D01*
X163807263Y-79937311D01*
X163807536Y-79624064D01*
X163687914Y-79334556D01*
X163466609Y-79112864D01*
X163177311Y-78992737D01*
X162864064Y-78992464D01*
X162665000Y-79074715D01*
X162665000Y-78765750D01*
X162506250Y-78607000D01*
X161357000Y-78607000D01*
X161357000Y-78627000D01*
X161103000Y-78627000D01*
X161103000Y-78607000D01*
X159953750Y-78607000D01*
X159795000Y-78765750D01*
X159795000Y-79406310D01*
X159856757Y-79555405D01*
X158704136Y-80708027D01*
X158444565Y-80319552D01*
X158168364Y-80135000D01*
X158526309Y-80135000D01*
X158759698Y-80038327D01*
X158938327Y-79859699D01*
X159035000Y-79626310D01*
X159035000Y-78935750D01*
X158876250Y-78777000D01*
X157677000Y-78777000D01*
X157677000Y-78797000D01*
X157423000Y-78797000D01*
X157423000Y-78777000D01*
X156223750Y-78777000D01*
X156129388Y-78871362D01*
X155895000Y-78636974D01*
X155895000Y-77673690D01*
X156065000Y-77673690D01*
X156065000Y-78364250D01*
X156223750Y-78523000D01*
X157423000Y-78523000D01*
X157423000Y-77323750D01*
X157677000Y-77323750D01*
X157677000Y-78523000D01*
X158876250Y-78523000D01*
X159035000Y-78364250D01*
X159035000Y-77673690D01*
X158985295Y-77553690D01*
X159795000Y-77553690D01*
X159795000Y-78194250D01*
X159953750Y-78353000D01*
X161103000Y-78353000D01*
X161103000Y-77203750D01*
X161357000Y-77203750D01*
X161357000Y-78353000D01*
X162506250Y-78353000D01*
X162665000Y-78194250D01*
X162665000Y-77680000D01*
X165121536Y-77680000D01*
X165121536Y-79280000D01*
X165148103Y-79421190D01*
X165231546Y-79550865D01*
X165358866Y-79637859D01*
X165510000Y-79668464D01*
X167110000Y-79668464D01*
X167251190Y-79641897D01*
X167380865Y-79558454D01*
X167467859Y-79431134D01*
X167498464Y-79280000D01*
X167498464Y-78480000D01*
X175265863Y-78480000D01*
X175355761Y-78931949D01*
X175611770Y-79315093D01*
X175994914Y-79571102D01*
X176446863Y-79661000D01*
X176493137Y-79661000D01*
X176945086Y-79571102D01*
X177328230Y-79315093D01*
X177584239Y-78931949D01*
X177674137Y-78480000D01*
X180345863Y-78480000D01*
X180435761Y-78931949D01*
X180691770Y-79315093D01*
X181074914Y-79571102D01*
X181526863Y-79661000D01*
X181573137Y-79661000D01*
X182025086Y-79571102D01*
X182408230Y-79315093D01*
X182664239Y-78931949D01*
X182754137Y-78480000D01*
X182664239Y-78028051D01*
X182408230Y-77644907D01*
X182025086Y-77388898D01*
X181573137Y-77299000D01*
X181526863Y-77299000D01*
X181074914Y-77388898D01*
X180691770Y-77644907D01*
X180435761Y-78028051D01*
X180345863Y-78480000D01*
X177674137Y-78480000D01*
X177584239Y-78028051D01*
X177328230Y-77644907D01*
X176945086Y-77388898D01*
X176493137Y-77299000D01*
X176446863Y-77299000D01*
X175994914Y-77388898D01*
X175611770Y-77644907D01*
X175355761Y-78028051D01*
X175265863Y-78480000D01*
X167498464Y-78480000D01*
X167498464Y-77680000D01*
X167471897Y-77538810D01*
X167388454Y-77409135D01*
X167261134Y-77322141D01*
X167110000Y-77291536D01*
X165510000Y-77291536D01*
X165368810Y-77318103D01*
X165239135Y-77401546D01*
X165152141Y-77528866D01*
X165121536Y-77680000D01*
X162665000Y-77680000D01*
X162665000Y-77553690D01*
X162568327Y-77320301D01*
X162389698Y-77141673D01*
X162156309Y-77045000D01*
X161515750Y-77045000D01*
X161357000Y-77203750D01*
X161103000Y-77203750D01*
X160944250Y-77045000D01*
X160303691Y-77045000D01*
X160070302Y-77141673D01*
X159891673Y-77320301D01*
X159795000Y-77553690D01*
X158985295Y-77553690D01*
X158938327Y-77440301D01*
X158759698Y-77261673D01*
X158526309Y-77165000D01*
X157835750Y-77165000D01*
X157677000Y-77323750D01*
X157423000Y-77323750D01*
X157264250Y-77165000D01*
X156573691Y-77165000D01*
X156340302Y-77261673D01*
X156161673Y-77440301D01*
X156065000Y-77673690D01*
X155895000Y-77673690D01*
X155895000Y-75396892D01*
X161128514Y-75396892D01*
X161374817Y-75921358D01*
X161803076Y-76311645D01*
X162213110Y-76481476D01*
X162443000Y-76360155D01*
X162443000Y-75167000D01*
X161249181Y-75167000D01*
X161128514Y-75396892D01*
X155895000Y-75396892D01*
X155895000Y-74683108D01*
X161128514Y-74683108D01*
X161249181Y-74913000D01*
X162443000Y-74913000D01*
X162443000Y-73719845D01*
X162697000Y-73719845D01*
X162697000Y-74913000D01*
X162717000Y-74913000D01*
X162717000Y-75167000D01*
X162697000Y-75167000D01*
X162697000Y-76360155D01*
X162926890Y-76481476D01*
X163336924Y-76311645D01*
X163765183Y-75921358D01*
X163871536Y-75694895D01*
X163871536Y-75890000D01*
X163898103Y-76031190D01*
X163981546Y-76160865D01*
X164108866Y-76247859D01*
X164260000Y-76278464D01*
X165960000Y-76278464D01*
X166101190Y-76251897D01*
X166230865Y-76168454D01*
X166317859Y-76041134D01*
X166348464Y-75890000D01*
X166348464Y-74190000D01*
X166321897Y-74048810D01*
X166238454Y-73919135D01*
X166111134Y-73832141D01*
X165960000Y-73801536D01*
X164260000Y-73801536D01*
X164118810Y-73828103D01*
X163989135Y-73911546D01*
X163902141Y-74038866D01*
X163871536Y-74190000D01*
X163871536Y-74385105D01*
X163765183Y-74158642D01*
X163336924Y-73768355D01*
X162926890Y-73598524D01*
X162697000Y-73719845D01*
X162443000Y-73719845D01*
X162213110Y-73598524D01*
X161803076Y-73768355D01*
X161374817Y-74158642D01*
X161128514Y-74683108D01*
X155895000Y-74683108D01*
X155895000Y-72870000D01*
X177164883Y-72870000D01*
X177258587Y-73341083D01*
X177525435Y-73740448D01*
X177924800Y-74007296D01*
X178395883Y-74101000D01*
X178444117Y-74101000D01*
X178915200Y-74007296D01*
X179314565Y-73740448D01*
X179571788Y-73355488D01*
X179688355Y-73636924D01*
X180078642Y-74065183D01*
X180603108Y-74311486D01*
X180833000Y-74190819D01*
X180833000Y-72997000D01*
X181087000Y-72997000D01*
X181087000Y-74190819D01*
X181316892Y-74311486D01*
X181841358Y-74065183D01*
X182231645Y-73636924D01*
X182401476Y-73226890D01*
X182280155Y-72997000D01*
X181087000Y-72997000D01*
X180833000Y-72997000D01*
X180813000Y-72997000D01*
X180813000Y-72743000D01*
X180833000Y-72743000D01*
X180833000Y-72723000D01*
X181087000Y-72723000D01*
X181087000Y-72743000D01*
X182280155Y-72743000D01*
X182401476Y-72513110D01*
X182231645Y-72103076D01*
X181841358Y-71674817D01*
X181416053Y-71475083D01*
X181455200Y-71467296D01*
X181854565Y-71200448D01*
X182121413Y-70801083D01*
X182215117Y-70330000D01*
X182121413Y-69858917D01*
X181854565Y-69459552D01*
X181455200Y-69192704D01*
X180984117Y-69099000D01*
X180935883Y-69099000D01*
X180464800Y-69192704D01*
X180065435Y-69459552D01*
X179798587Y-69858917D01*
X179704883Y-70330000D01*
X179798587Y-70801083D01*
X180065435Y-71200448D01*
X180464800Y-71467296D01*
X180503947Y-71475083D01*
X180078642Y-71674817D01*
X179688355Y-72103076D01*
X179571788Y-72384512D01*
X179314565Y-71999552D01*
X178915200Y-71732704D01*
X178444117Y-71639000D01*
X178395883Y-71639000D01*
X177924800Y-71732704D01*
X177525435Y-71999552D01*
X177258587Y-72398917D01*
X177164883Y-72870000D01*
X155895000Y-72870000D01*
X155895000Y-70330000D01*
X177164883Y-70330000D01*
X177258587Y-70801083D01*
X177525435Y-71200448D01*
X177924800Y-71467296D01*
X178395883Y-71561000D01*
X178444117Y-71561000D01*
X178915200Y-71467296D01*
X179314565Y-71200448D01*
X179581413Y-70801083D01*
X179675117Y-70330000D01*
X179581413Y-69858917D01*
X179314565Y-69459552D01*
X178915200Y-69192704D01*
X178444117Y-69099000D01*
X178395883Y-69099000D01*
X177924800Y-69192704D01*
X177525435Y-69459552D01*
X177258587Y-69858917D01*
X177164883Y-70330000D01*
X155895000Y-70330000D01*
X155895000Y-67790000D01*
X177164883Y-67790000D01*
X177258587Y-68261083D01*
X177525435Y-68660448D01*
X177924800Y-68927296D01*
X178395883Y-69021000D01*
X178444117Y-69021000D01*
X178915200Y-68927296D01*
X179314565Y-68660448D01*
X179581413Y-68261083D01*
X179675117Y-67790000D01*
X179704883Y-67790000D01*
X179798587Y-68261083D01*
X180065435Y-68660448D01*
X180464800Y-68927296D01*
X180935883Y-69021000D01*
X180984117Y-69021000D01*
X181455200Y-68927296D01*
X181854565Y-68660448D01*
X182121413Y-68261083D01*
X182215117Y-67790000D01*
X182121413Y-67318917D01*
X181854565Y-66919552D01*
X181455200Y-66652704D01*
X180984117Y-66559000D01*
X180935883Y-66559000D01*
X180464800Y-66652704D01*
X180065435Y-66919552D01*
X179798587Y-67318917D01*
X179704883Y-67790000D01*
X179675117Y-67790000D01*
X179581413Y-67318917D01*
X179314565Y-66919552D01*
X178915200Y-66652704D01*
X178444117Y-66559000D01*
X178395883Y-66559000D01*
X177924800Y-66652704D01*
X177525435Y-66919552D01*
X177258587Y-67318917D01*
X177164883Y-67790000D01*
X155895000Y-67790000D01*
X155895000Y-66278689D01*
X155927136Y-66246609D01*
X156047263Y-65957311D01*
X156047536Y-65644064D01*
X155927914Y-65354556D01*
X155895000Y-65321584D01*
X155895000Y-64693026D01*
X159452482Y-61135544D01*
X159452464Y-61155936D01*
X159572086Y-61445444D01*
X159793391Y-61667136D01*
X160082689Y-61787263D01*
X160395936Y-61787536D01*
X160685444Y-61667914D01*
X160907136Y-61446609D01*
X161027263Y-61157311D01*
X161027348Y-61059900D01*
X174426499Y-61059900D01*
X174623391Y-61257136D01*
X174912689Y-61377263D01*
X175225936Y-61377536D01*
X175515444Y-61257914D01*
X175737136Y-61036609D01*
X175857263Y-60747311D01*
X175857536Y-60434064D01*
X175737914Y-60144556D01*
X175516609Y-59922864D01*
X175227311Y-59802737D01*
X174914064Y-59802464D01*
X174624556Y-59922086D01*
X174426196Y-60120100D01*
X160650000Y-60120100D01*
X160470177Y-60155869D01*
X160385084Y-60212726D01*
X160375308Y-60212718D01*
X161613026Y-58975000D01*
X166861311Y-58975000D01*
X166893391Y-59007136D01*
X167182689Y-59127263D01*
X167495936Y-59127536D01*
X167785444Y-59007914D01*
X167882027Y-58911500D01*
X178296218Y-58911500D01*
X179066801Y-59682082D01*
X179066801Y-61471536D01*
X177570000Y-61471536D01*
X177428810Y-61498103D01*
X177299135Y-61581546D01*
X177212141Y-61708866D01*
X177181536Y-61860000D01*
X177181536Y-63560000D01*
X177208103Y-63701190D01*
X177291546Y-63830865D01*
X177418866Y-63917859D01*
X177570000Y-63948464D01*
X179070811Y-63948464D01*
X179080245Y-63995890D01*
X179110304Y-64147005D01*
X179226262Y-64320550D01*
X178915200Y-64112704D01*
X178444117Y-64019000D01*
X178395883Y-64019000D01*
X177924800Y-64112704D01*
X177525435Y-64379552D01*
X177258587Y-64778917D01*
X177164883Y-65250000D01*
X177258587Y-65721083D01*
X177525435Y-66120448D01*
X177924800Y-66387296D01*
X178395883Y-66481000D01*
X178444117Y-66481000D01*
X178915200Y-66387296D01*
X179314565Y-66120448D01*
X179581413Y-65721083D01*
X179675117Y-65250000D01*
X179581413Y-64778917D01*
X179381493Y-64479717D01*
X179705887Y-64804110D01*
X179705889Y-64804113D01*
X179779027Y-64877251D01*
X179704883Y-65250000D01*
X179798587Y-65721083D01*
X180065435Y-66120448D01*
X180464800Y-66387296D01*
X180935883Y-66481000D01*
X180984117Y-66481000D01*
X181455200Y-66387296D01*
X181854565Y-66120448D01*
X182121413Y-65721083D01*
X182215117Y-65250000D01*
X182121413Y-64778917D01*
X181854565Y-64379552D01*
X181455200Y-64112704D01*
X181416053Y-64104917D01*
X181841358Y-63905183D01*
X182231645Y-63476924D01*
X182401476Y-63066890D01*
X182280155Y-62837000D01*
X181087000Y-62837000D01*
X181087000Y-62857000D01*
X180833000Y-62857000D01*
X180833000Y-62837000D01*
X180813000Y-62837000D01*
X180813000Y-62583000D01*
X180833000Y-62583000D01*
X180833000Y-61389181D01*
X181087000Y-61389181D01*
X181087000Y-62583000D01*
X182280155Y-62583000D01*
X182401476Y-62353110D01*
X182231645Y-61943076D01*
X181841358Y-61514817D01*
X181316892Y-61268514D01*
X181087000Y-61389181D01*
X180833000Y-61389181D01*
X180603108Y-61268514D01*
X180209801Y-61453221D01*
X180209801Y-59445364D01*
X180209802Y-59445359D01*
X180166299Y-59226656D01*
X180099887Y-59127263D01*
X180042413Y-59041247D01*
X180042410Y-59041245D01*
X178937054Y-57935888D01*
X178873452Y-57893391D01*
X178751646Y-57812003D01*
X178715360Y-57804785D01*
X178532942Y-57768499D01*
X178532937Y-57768500D01*
X167882078Y-57768500D01*
X167786609Y-57672864D01*
X167497311Y-57552737D01*
X167184064Y-57552464D01*
X166894556Y-57672086D01*
X166861584Y-57705000D01*
X161495152Y-57705000D01*
X161520865Y-57688454D01*
X161607859Y-57561134D01*
X161638464Y-57410000D01*
X161638464Y-55710000D01*
X161611897Y-55568810D01*
X161528454Y-55439135D01*
X161401134Y-55352141D01*
X161250000Y-55321536D01*
X159550000Y-55321536D01*
X159408810Y-55348103D01*
X159279135Y-55431546D01*
X159192141Y-55558866D01*
X159161536Y-55710000D01*
X159161536Y-55905105D01*
X159055183Y-55678642D01*
X158626924Y-55288355D01*
X158216890Y-55118524D01*
X157987000Y-55239845D01*
X157987000Y-56433000D01*
X158007000Y-56433000D01*
X158007000Y-56687000D01*
X157987000Y-56687000D01*
X157987000Y-57880155D01*
X158216890Y-58001476D01*
X158626924Y-57831645D01*
X159055183Y-57441358D01*
X159161536Y-57214895D01*
X159161536Y-57410000D01*
X159188103Y-57551190D01*
X159271546Y-57680865D01*
X159398866Y-57767859D01*
X159550000Y-57798464D01*
X161039457Y-57798464D01*
X160900987Y-57890987D01*
X154810987Y-63980987D01*
X154673336Y-64186996D01*
X154625000Y-64430000D01*
X154625000Y-65321311D01*
X154592864Y-65353391D01*
X154472737Y-65642689D01*
X154472464Y-65955936D01*
X154592086Y-66245444D01*
X154625000Y-66278416D01*
X154625000Y-78900000D01*
X154673336Y-79143004D01*
X154810987Y-79349013D01*
X156354128Y-80892154D01*
X156294883Y-81190000D01*
X156388587Y-81661083D01*
X156655435Y-82060448D01*
X157054800Y-82327296D01*
X157525883Y-82421000D01*
X157574117Y-82421000D01*
X158045200Y-82327296D01*
X158196801Y-82225999D01*
X158196801Y-82694001D01*
X158045200Y-82592704D01*
X157574117Y-82499000D01*
X157525883Y-82499000D01*
X157054800Y-82592704D01*
X156655435Y-82859552D01*
X156388587Y-83258917D01*
X156294883Y-83730000D01*
X156388587Y-84201083D01*
X156655435Y-84600448D01*
X157054800Y-84867296D01*
X157525883Y-84961000D01*
X157574117Y-84961000D01*
X158045200Y-84867296D01*
X158196801Y-84765999D01*
X158196801Y-94478660D01*
X156402157Y-96273305D01*
X156478662Y-96158807D01*
X156556000Y-95770000D01*
X156556000Y-95720000D01*
X156478662Y-95331194D01*
X156258420Y-95001580D01*
X155928806Y-94781338D01*
X155540000Y-94704000D01*
X155151194Y-94781338D01*
X154821580Y-95001580D01*
X154720897Y-95152262D01*
X154629159Y-95244000D01*
X149446732Y-95244000D01*
X149265200Y-95122704D01*
X149226053Y-95114917D01*
X149651358Y-94915183D01*
X150041645Y-94486924D01*
X150211476Y-94076890D01*
X150090155Y-93847000D01*
X148897000Y-93847000D01*
X148897000Y-93867000D01*
X148643000Y-93867000D01*
X148643000Y-93847000D01*
X148623000Y-93847000D01*
X148623000Y-93593000D01*
X148643000Y-93593000D01*
X148643000Y-93573000D01*
X148897000Y-93573000D01*
X148897000Y-93593000D01*
X150090155Y-93593000D01*
X150211476Y-93363110D01*
X150041645Y-92953076D01*
X149651358Y-92524817D01*
X149226053Y-92325083D01*
X149265200Y-92317296D01*
X149664565Y-92050448D01*
X149931413Y-91651083D01*
X150025117Y-91180000D01*
X149931413Y-90708917D01*
X149664565Y-90309552D01*
X149265200Y-90042704D01*
X148794117Y-89949000D01*
X148745883Y-89949000D01*
X148274800Y-90042704D01*
X147875435Y-90309552D01*
X147608587Y-90708917D01*
X147514883Y-91180000D01*
X147608587Y-91651083D01*
X147875435Y-92050448D01*
X148274800Y-92317296D01*
X148313947Y-92325083D01*
X147888642Y-92524817D01*
X147498355Y-92953076D01*
X147381788Y-93234512D01*
X147124565Y-92849552D01*
X146725200Y-92582704D01*
X146254117Y-92489000D01*
X146205883Y-92489000D01*
X145734800Y-92582704D01*
X145335435Y-92849552D01*
X145068587Y-93248917D01*
X144974883Y-93720000D01*
X144201000Y-93720000D01*
X144201000Y-91180000D01*
X144974883Y-91180000D01*
X145068587Y-91651083D01*
X145335435Y-92050448D01*
X145734800Y-92317296D01*
X146205883Y-92411000D01*
X146254117Y-92411000D01*
X146725200Y-92317296D01*
X147124565Y-92050448D01*
X147391413Y-91651083D01*
X147485117Y-91180000D01*
X147391413Y-90708917D01*
X147124565Y-90309552D01*
X146725200Y-90042704D01*
X146254117Y-89949000D01*
X146205883Y-89949000D01*
X145734800Y-90042704D01*
X145335435Y-90309552D01*
X145068587Y-90708917D01*
X144974883Y-91180000D01*
X144201000Y-91180000D01*
X144201000Y-88640000D01*
X144974883Y-88640000D01*
X145068587Y-89111083D01*
X145335435Y-89510448D01*
X145734800Y-89777296D01*
X146205883Y-89871000D01*
X146254117Y-89871000D01*
X146725200Y-89777296D01*
X147124565Y-89510448D01*
X147391413Y-89111083D01*
X147485117Y-88640000D01*
X147514883Y-88640000D01*
X147608587Y-89111083D01*
X147875435Y-89510448D01*
X148274800Y-89777296D01*
X148745883Y-89871000D01*
X148794117Y-89871000D01*
X149265200Y-89777296D01*
X149664565Y-89510448D01*
X149931413Y-89111083D01*
X150025117Y-88640000D01*
X149931413Y-88168917D01*
X149664565Y-87769552D01*
X149265200Y-87502704D01*
X148794117Y-87409000D01*
X148745883Y-87409000D01*
X148274800Y-87502704D01*
X147875435Y-87769552D01*
X147608587Y-88168917D01*
X147514883Y-88640000D01*
X147485117Y-88640000D01*
X147391413Y-88168917D01*
X147124565Y-87769552D01*
X146725200Y-87502704D01*
X146254117Y-87409000D01*
X146205883Y-87409000D01*
X145734800Y-87502704D01*
X145335435Y-87769552D01*
X145068587Y-88168917D01*
X144974883Y-88640000D01*
X144201000Y-88640000D01*
X144201000Y-86100000D01*
X144974883Y-86100000D01*
X145068587Y-86571083D01*
X145335435Y-86970448D01*
X145734800Y-87237296D01*
X146205883Y-87331000D01*
X146254117Y-87331000D01*
X146725200Y-87237296D01*
X147124565Y-86970448D01*
X147391413Y-86571083D01*
X147485117Y-86100000D01*
X147514883Y-86100000D01*
X147608587Y-86571083D01*
X147875435Y-86970448D01*
X148274800Y-87237296D01*
X148745883Y-87331000D01*
X148794117Y-87331000D01*
X149265200Y-87237296D01*
X149664565Y-86970448D01*
X149931413Y-86571083D01*
X150025117Y-86100000D01*
X149931413Y-85628917D01*
X149664565Y-85229552D01*
X149265200Y-84962704D01*
X148794117Y-84869000D01*
X148745883Y-84869000D01*
X148274800Y-84962704D01*
X147875435Y-85229552D01*
X147608587Y-85628917D01*
X147514883Y-86100000D01*
X147485117Y-86100000D01*
X147391413Y-85628917D01*
X147124565Y-85229552D01*
X146725200Y-84962704D01*
X146254117Y-84869000D01*
X146205883Y-84869000D01*
X145734800Y-84962704D01*
X145335435Y-85229552D01*
X145068587Y-85628917D01*
X144974883Y-86100000D01*
X144201000Y-86100000D01*
X144201000Y-83560000D01*
X144974883Y-83560000D01*
X145068587Y-84031083D01*
X145335435Y-84430448D01*
X145734800Y-84697296D01*
X146205883Y-84791000D01*
X146254117Y-84791000D01*
X146725200Y-84697296D01*
X147124565Y-84430448D01*
X147391413Y-84031083D01*
X147485117Y-83560000D01*
X147514883Y-83560000D01*
X147608587Y-84031083D01*
X147875435Y-84430448D01*
X148274800Y-84697296D01*
X148745883Y-84791000D01*
X148794117Y-84791000D01*
X149265200Y-84697296D01*
X149664565Y-84430448D01*
X149931413Y-84031083D01*
X150025117Y-83560000D01*
X149931413Y-83088917D01*
X149664565Y-82689552D01*
X149265200Y-82422704D01*
X148794117Y-82329000D01*
X148745883Y-82329000D01*
X148274800Y-82422704D01*
X147875435Y-82689552D01*
X147608587Y-83088917D01*
X147514883Y-83560000D01*
X147485117Y-83560000D01*
X147391413Y-83088917D01*
X147124565Y-82689552D01*
X146725200Y-82422704D01*
X146254117Y-82329000D01*
X146205883Y-82329000D01*
X145734800Y-82422704D01*
X145335435Y-82689552D01*
X145068587Y-83088917D01*
X144974883Y-83560000D01*
X144201000Y-83560000D01*
X144201000Y-81020000D01*
X144974883Y-81020000D01*
X145068587Y-81491083D01*
X145335435Y-81890448D01*
X145734800Y-82157296D01*
X146205883Y-82251000D01*
X146254117Y-82251000D01*
X146725200Y-82157296D01*
X147124565Y-81890448D01*
X147391413Y-81491083D01*
X147485117Y-81020000D01*
X147514883Y-81020000D01*
X147608587Y-81491083D01*
X147875435Y-81890448D01*
X148274800Y-82157296D01*
X148745883Y-82251000D01*
X148794117Y-82251000D01*
X149265200Y-82157296D01*
X149664565Y-81890448D01*
X149931413Y-81491083D01*
X150025117Y-81020000D01*
X149931413Y-80548917D01*
X149664565Y-80149552D01*
X149265200Y-79882704D01*
X148794117Y-79789000D01*
X148745883Y-79789000D01*
X148274800Y-79882704D01*
X147875435Y-80149552D01*
X147608587Y-80548917D01*
X147514883Y-81020000D01*
X147485117Y-81020000D01*
X147391413Y-80548917D01*
X147124565Y-80149552D01*
X146725200Y-79882704D01*
X146254117Y-79789000D01*
X146205883Y-79789000D01*
X145734800Y-79882704D01*
X145335435Y-80149552D01*
X145068587Y-80548917D01*
X144974883Y-81020000D01*
X144201000Y-81020000D01*
X144201000Y-77630000D01*
X144991536Y-77630000D01*
X144991536Y-79330000D01*
X145018103Y-79471190D01*
X145101546Y-79600865D01*
X145228866Y-79687859D01*
X145380000Y-79718464D01*
X147080000Y-79718464D01*
X147221190Y-79691897D01*
X147350865Y-79608454D01*
X147437859Y-79481134D01*
X147468464Y-79330000D01*
X147468464Y-78480000D01*
X147514883Y-78480000D01*
X147608587Y-78951083D01*
X147875435Y-79350448D01*
X148274800Y-79617296D01*
X148745883Y-79711000D01*
X148794117Y-79711000D01*
X149265200Y-79617296D01*
X149664565Y-79350448D01*
X149931413Y-78951083D01*
X150025117Y-78480000D01*
X149931413Y-78008917D01*
X149664565Y-77609552D01*
X149265200Y-77342704D01*
X148794117Y-77249000D01*
X148745883Y-77249000D01*
X148274800Y-77342704D01*
X147875435Y-77609552D01*
X147608587Y-78008917D01*
X147514883Y-78480000D01*
X147468464Y-78480000D01*
X147468464Y-77630000D01*
X147441897Y-77488810D01*
X147358454Y-77359135D01*
X147231134Y-77272141D01*
X147080000Y-77241536D01*
X145380000Y-77241536D01*
X145238810Y-77268103D01*
X145109135Y-77351546D01*
X145022141Y-77478866D01*
X144991536Y-77630000D01*
X144201000Y-77630000D01*
X144201000Y-56916892D01*
X156418514Y-56916892D01*
X156664817Y-57441358D01*
X157093076Y-57831645D01*
X157503110Y-58001476D01*
X157733000Y-57880155D01*
X157733000Y-56687000D01*
X156539181Y-56687000D01*
X156418514Y-56916892D01*
X144201000Y-56916892D01*
X144201000Y-56203108D01*
X156418514Y-56203108D01*
X156539181Y-56433000D01*
X157733000Y-56433000D01*
X157733000Y-55239845D01*
X157503110Y-55118524D01*
X157093076Y-55288355D01*
X156664817Y-55678642D01*
X156418514Y-56203108D01*
X144201000Y-56203108D01*
X144201000Y-54941000D01*
X185929000Y-54941000D01*
X185929000Y-128799000D01*
G36*
X154824432Y-97851030D02*
X154764984Y-97940000D01*
X154425750Y-97940000D01*
X154267000Y-98098750D01*
X154267000Y-99073000D01*
X154287000Y-99073000D01*
X154287000Y-99327000D01*
X154267000Y-99327000D01*
X154267000Y-100301250D01*
X154425750Y-100460000D01*
X154686801Y-100460000D01*
X154686801Y-104678660D01*
X154232755Y-105132707D01*
X153954064Y-105132464D01*
X153664556Y-105252086D01*
X153442864Y-105473391D01*
X153435096Y-105492099D01*
X153414080Y-105380412D01*
X153438464Y-105260000D01*
X153438464Y-104860000D01*
X153414080Y-104730412D01*
X153438464Y-104610000D01*
X153438464Y-104210000D01*
X153414080Y-104080412D01*
X153438464Y-103960000D01*
X153438464Y-103560000D01*
X153414080Y-103430412D01*
X153438464Y-103310000D01*
X153438464Y-102910000D01*
X153414080Y-102780412D01*
X153438464Y-102660000D01*
X153438464Y-102260000D01*
X153414080Y-102130412D01*
X153438464Y-102010000D01*
X153438464Y-101869561D01*
X153588327Y-101719699D01*
X153685000Y-101486310D01*
X153685000Y-101418750D01*
X153526250Y-101260000D01*
X153212636Y-101260000D01*
X153201134Y-101252141D01*
X153050000Y-101221536D01*
X152403000Y-101221536D01*
X152403000Y-101060000D01*
X152423000Y-101060000D01*
X152423000Y-100483750D01*
X152677000Y-100483750D01*
X152677000Y-101060000D01*
X153526250Y-101060000D01*
X153685000Y-100901250D01*
X153685000Y-100833690D01*
X153588327Y-100600301D01*
X153448025Y-100460000D01*
X153854250Y-100460000D01*
X154013000Y-100301250D01*
X154013000Y-99327000D01*
X152913750Y-99327000D01*
X152755000Y-99485750D01*
X152755000Y-99951310D01*
X152851673Y-100184699D01*
X152991975Y-100325000D01*
X152835750Y-100325000D01*
X152677000Y-100483750D01*
X152423000Y-100483750D01*
X152264250Y-100325000D01*
X151979900Y-100325000D01*
X151979900Y-99887282D01*
X151944131Y-99707459D01*
X151919401Y-99670448D01*
X151842270Y-99555013D01*
X150735947Y-98448690D01*
X152755000Y-98448690D01*
X152755000Y-98914250D01*
X152913750Y-99073000D01*
X154013000Y-99073000D01*
X154013000Y-98098750D01*
X153854250Y-97940000D01*
X153263691Y-97940000D01*
X153030302Y-98036673D01*
X152851673Y-98215301D01*
X152755000Y-98448690D01*
X150735947Y-98448690D01*
X149638286Y-97351030D01*
X149525997Y-97276000D01*
X155050000Y-97276000D01*
X155393218Y-97207730D01*
X155438807Y-97198662D01*
X155553306Y-97122155D01*
X154824432Y-97851030D01*
X154824432Y-97851030D01*
G37*
X154824432Y-97851030D02*
X154764984Y-97940000D01*
X154425750Y-97940000D01*
X154267000Y-98098750D01*
X154267000Y-99073000D01*
X154287000Y-99073000D01*
X154287000Y-99327000D01*
X154267000Y-99327000D01*
X154267000Y-100301250D01*
X154425750Y-100460000D01*
X154686801Y-100460000D01*
X154686801Y-104678660D01*
X154232755Y-105132707D01*
X153954064Y-105132464D01*
X153664556Y-105252086D01*
X153442864Y-105473391D01*
X153435096Y-105492099D01*
X153414080Y-105380412D01*
X153438464Y-105260000D01*
X153438464Y-104860000D01*
X153414080Y-104730412D01*
X153438464Y-104610000D01*
X153438464Y-104210000D01*
X153414080Y-104080412D01*
X153438464Y-103960000D01*
X153438464Y-103560000D01*
X153414080Y-103430412D01*
X153438464Y-103310000D01*
X153438464Y-102910000D01*
X153414080Y-102780412D01*
X153438464Y-102660000D01*
X153438464Y-102260000D01*
X153414080Y-102130412D01*
X153438464Y-102010000D01*
X153438464Y-101869561D01*
X153588327Y-101719699D01*
X153685000Y-101486310D01*
X153685000Y-101418750D01*
X153526250Y-101260000D01*
X153212636Y-101260000D01*
X153201134Y-101252141D01*
X153050000Y-101221536D01*
X152403000Y-101221536D01*
X152403000Y-101060000D01*
X152423000Y-101060000D01*
X152423000Y-100483750D01*
X152677000Y-100483750D01*
X152677000Y-101060000D01*
X153526250Y-101060000D01*
X153685000Y-100901250D01*
X153685000Y-100833690D01*
X153588327Y-100600301D01*
X153448025Y-100460000D01*
X153854250Y-100460000D01*
X154013000Y-100301250D01*
X154013000Y-99327000D01*
X152913750Y-99327000D01*
X152755000Y-99485750D01*
X152755000Y-99951310D01*
X152851673Y-100184699D01*
X152991975Y-100325000D01*
X152835750Y-100325000D01*
X152677000Y-100483750D01*
X152423000Y-100483750D01*
X152264250Y-100325000D01*
X151979900Y-100325000D01*
X151979900Y-99887282D01*
X151944131Y-99707459D01*
X151919401Y-99670448D01*
X151842270Y-99555013D01*
X150735947Y-98448690D01*
X152755000Y-98448690D01*
X152755000Y-98914250D01*
X152913750Y-99073000D01*
X154013000Y-99073000D01*
X154013000Y-98098750D01*
X153854250Y-97940000D01*
X153263691Y-97940000D01*
X153030302Y-98036673D01*
X152851673Y-98215301D01*
X152755000Y-98448690D01*
X150735947Y-98448690D01*
X149638286Y-97351030D01*
X149525997Y-97276000D01*
X155050000Y-97276000D01*
X155393218Y-97207730D01*
X155438807Y-97198662D01*
X155553306Y-97122155D01*
X154824432Y-97851030D01*
G36*
X158540100Y-98490423D02*
X157778464Y-99252060D01*
X157778464Y-98575000D01*
X157751897Y-98433810D01*
X157668454Y-98304135D01*
X157541134Y-98217141D01*
X157390000Y-98186536D01*
X156508002Y-98186536D01*
X158540100Y-96154439D01*
X158540100Y-98490423D01*
X158540100Y-98490423D01*
G37*
X158540100Y-98490423D02*
X157778464Y-99252060D01*
X157778464Y-98575000D01*
X157751897Y-98433810D01*
X157668454Y-98304135D01*
X157541134Y-98217141D01*
X157390000Y-98186536D01*
X156508002Y-98186536D01*
X158540100Y-96154439D01*
X158540100Y-98490423D01*
M02*
