G04 #@! TF.FileFunction,Soldermask,Top*
%FSLAX46Y46*%
G04 Gerber Fmt 4.6, Leading zero omitted, Abs format (unit mm)*
G04 Created by KiCad (PCBNEW 4.0.6) date Saturday, October 28, 2017 'PMt' 04:50:48 PM*
%MOMM*%
%LPD*%
G01*
G04 APERTURE LIST*
%ADD10C,0.100000*%
%ADD11R,1.600000X1.600000*%
%ADD12O,1.600000X1.600000*%
%ADD13R,1.000000X0.400000*%
%ADD14R,1.500000X1.250000*%
%ADD15R,1.250000X1.500000*%
%ADD16R,1.700000X1.700000*%
%ADD17O,1.700000X1.700000*%
%ADD18R,2.000000X0.500000*%
%ADD19R,0.500000X2.000000*%
%ADD20R,1.000000X1.500000*%
%ADD21R,1.000000X1.800000*%
%ADD22R,2.200000X1.840000*%
%ADD23R,1.500000X1.300000*%
%ADD24R,1.300000X1.500000*%
G04 APERTURE END LIST*
D10*
D11*
X166310000Y-78480000D03*
D12*
X181550000Y-126740000D03*
X166310000Y-81020000D03*
X181550000Y-124200000D03*
X166310000Y-83560000D03*
X181550000Y-121660000D03*
X166310000Y-86100000D03*
X181550000Y-119120000D03*
X166310000Y-88640000D03*
X181550000Y-116580000D03*
X166310000Y-91180000D03*
X181550000Y-114040000D03*
X166310000Y-93720000D03*
X181550000Y-111500000D03*
X166310000Y-96260000D03*
X181550000Y-108960000D03*
X166310000Y-98800000D03*
X181550000Y-106420000D03*
X166310000Y-101340000D03*
X181550000Y-103880000D03*
X166310000Y-103880000D03*
X181550000Y-101340000D03*
X166310000Y-106420000D03*
X181550000Y-98800000D03*
X166310000Y-108960000D03*
X181550000Y-96260000D03*
X166310000Y-111500000D03*
X181550000Y-93720000D03*
X166310000Y-114040000D03*
X181550000Y-91180000D03*
X166310000Y-116580000D03*
X181550000Y-88640000D03*
X166310000Y-119120000D03*
X181550000Y-86100000D03*
X166310000Y-121660000D03*
X181550000Y-83560000D03*
X166310000Y-124200000D03*
X181550000Y-81020000D03*
X166310000Y-126740000D03*
X181550000Y-78480000D03*
D13*
X152390000Y-120540000D03*
X152390000Y-121190000D03*
X152390000Y-121840000D03*
X152390000Y-122490000D03*
X152390000Y-123140000D03*
X152390000Y-123790000D03*
X152390000Y-124440000D03*
X152390000Y-125090000D03*
X152390000Y-125740000D03*
X152390000Y-126390000D03*
X158190000Y-126390000D03*
X158190000Y-125740000D03*
X158190000Y-125090000D03*
X158190000Y-124440000D03*
X158190000Y-123790000D03*
X158190000Y-123140000D03*
X158190000Y-122490000D03*
X158190000Y-121840000D03*
X158190000Y-121190000D03*
X158190000Y-120540000D03*
X152550000Y-106155000D03*
X152550000Y-106805000D03*
X152550000Y-107455000D03*
X152550000Y-108105000D03*
X152550000Y-108755000D03*
X152550000Y-109405000D03*
X152550000Y-110055000D03*
X152550000Y-110705000D03*
X152550000Y-111355000D03*
X152550000Y-112005000D03*
X158350000Y-112005000D03*
X158350000Y-111355000D03*
X158350000Y-110705000D03*
X158350000Y-110055000D03*
X158350000Y-109405000D03*
X158350000Y-108755000D03*
X158350000Y-108105000D03*
X158350000Y-107455000D03*
X158350000Y-106805000D03*
X158350000Y-106155000D03*
D11*
X161230000Y-78480000D03*
D12*
X176470000Y-126740000D03*
X161230000Y-81020000D03*
X176470000Y-124200000D03*
X161230000Y-83560000D03*
X176470000Y-121660000D03*
X161230000Y-86100000D03*
X176470000Y-119120000D03*
X161230000Y-88640000D03*
X176470000Y-116580000D03*
X161230000Y-91180000D03*
X176470000Y-114040000D03*
X161230000Y-93720000D03*
X176470000Y-111500000D03*
X161230000Y-96260000D03*
X176470000Y-108960000D03*
X161230000Y-98800000D03*
X176470000Y-106420000D03*
X161230000Y-101340000D03*
X176470000Y-103880000D03*
X161230000Y-103880000D03*
X176470000Y-101340000D03*
X161230000Y-106420000D03*
X176470000Y-98800000D03*
X161230000Y-108960000D03*
X176470000Y-96260000D03*
X161230000Y-111500000D03*
X176470000Y-93720000D03*
X161230000Y-114040000D03*
X176470000Y-91180000D03*
X161230000Y-116580000D03*
X176470000Y-88640000D03*
X161230000Y-119120000D03*
X176470000Y-86100000D03*
X161230000Y-121660000D03*
X176470000Y-83560000D03*
X161230000Y-124200000D03*
X176470000Y-81020000D03*
X161230000Y-126740000D03*
X176470000Y-78480000D03*
D14*
X173760000Y-96190000D03*
X171260000Y-96190000D03*
X157850000Y-96680000D03*
X155350000Y-96680000D03*
X154300000Y-88630000D03*
X156800000Y-88630000D03*
X154150000Y-104130000D03*
X156650000Y-104130000D03*
X154030000Y-118260000D03*
X156530000Y-118260000D03*
X167740000Y-57190000D03*
X165240000Y-57190000D03*
D15*
X156230000Y-65670000D03*
X156230000Y-63170000D03*
D16*
X157550000Y-78650000D03*
D17*
X157550000Y-81190000D03*
X157550000Y-83730000D03*
D16*
X178420000Y-62710000D03*
D17*
X180960000Y-62710000D03*
X178420000Y-65250000D03*
X180960000Y-65250000D03*
X178420000Y-67790000D03*
X180960000Y-67790000D03*
X178420000Y-70330000D03*
X180960000Y-70330000D03*
X178420000Y-72870000D03*
X180960000Y-72870000D03*
D18*
X171740000Y-70230000D03*
X171740000Y-69430000D03*
X171740000Y-68630000D03*
X171740000Y-67830000D03*
X171740000Y-67030000D03*
X171740000Y-66230000D03*
X171740000Y-65430000D03*
X171740000Y-64630000D03*
X171740000Y-63830000D03*
X171740000Y-63030000D03*
X171740000Y-62230000D03*
D19*
X169740000Y-60230000D03*
X168940000Y-60230000D03*
X168140000Y-60230000D03*
X167340000Y-60230000D03*
X166540000Y-60230000D03*
X165740000Y-60230000D03*
X164940000Y-60230000D03*
X164140000Y-60230000D03*
X163340000Y-60230000D03*
X162540000Y-60230000D03*
X161740000Y-60230000D03*
D18*
X159740000Y-62230000D03*
X159740000Y-63030000D03*
X159740000Y-63830000D03*
X159740000Y-64630000D03*
X159740000Y-65430000D03*
X159740000Y-66230000D03*
X159740000Y-67030000D03*
X159740000Y-67830000D03*
X159740000Y-68630000D03*
X159740000Y-69430000D03*
X159740000Y-70230000D03*
D19*
X161740000Y-72230000D03*
X162540000Y-72230000D03*
X163340000Y-72230000D03*
X164140000Y-72230000D03*
X164940000Y-72230000D03*
X165740000Y-72230000D03*
X166540000Y-72230000D03*
X167340000Y-72230000D03*
X168140000Y-72230000D03*
X168940000Y-72230000D03*
X169740000Y-72230000D03*
D10*
G36*
X156640000Y-94528200D02*
X156040000Y-95378200D01*
X155040000Y-95378200D01*
X154440000Y-94528200D01*
X156640000Y-94528200D01*
X156640000Y-94528200D01*
G37*
D20*
X157040000Y-90806200D03*
D21*
X155540000Y-90952700D03*
D20*
X154040000Y-90806200D03*
D22*
X155540000Y-93619700D03*
D10*
G36*
X154440000Y-92710000D02*
X155140000Y-91710000D01*
X155940000Y-91710000D01*
X156640000Y-92710000D01*
X154440000Y-92710000D01*
X154440000Y-92710000D01*
G37*
D16*
X146230000Y-78480000D03*
D17*
X148770000Y-78480000D03*
X146230000Y-81020000D03*
X148770000Y-81020000D03*
X146230000Y-83560000D03*
X148770000Y-83560000D03*
X146230000Y-86100000D03*
X148770000Y-86100000D03*
X146230000Y-88640000D03*
X148770000Y-88640000D03*
X146230000Y-91180000D03*
X148770000Y-91180000D03*
X146230000Y-93720000D03*
X148770000Y-93720000D03*
X146230000Y-96260000D03*
X148770000Y-96260000D03*
X146230000Y-98800000D03*
X148770000Y-98800000D03*
X146230000Y-101340000D03*
X148770000Y-101340000D03*
X146230000Y-103880000D03*
X148770000Y-103880000D03*
X146230000Y-106420000D03*
X148770000Y-106420000D03*
X146230000Y-108960000D03*
X148770000Y-108960000D03*
X146230000Y-111500000D03*
X148770000Y-111500000D03*
X146230000Y-114040000D03*
X148770000Y-114040000D03*
X146230000Y-116580000D03*
X148770000Y-116580000D03*
X146230000Y-119120000D03*
X148770000Y-119120000D03*
X146230000Y-121660000D03*
X148770000Y-121660000D03*
X146230000Y-124200000D03*
X148770000Y-124200000D03*
X146230000Y-126740000D03*
X148770000Y-126740000D03*
D16*
X165110000Y-75040000D03*
D17*
X162570000Y-75040000D03*
D23*
X173790000Y-88680000D03*
X171090000Y-88680000D03*
D16*
X160400000Y-56560000D03*
D17*
X157860000Y-56560000D03*
D23*
X157940000Y-114960000D03*
X155240000Y-114960000D03*
X149230000Y-65020000D03*
X151930000Y-65020000D03*
D24*
X151070000Y-69900000D03*
X151070000Y-67200000D03*
X153120000Y-69900000D03*
X153120000Y-67200000D03*
M02*
