G04 #@! TF.FileFunction,Legend,Top*
%FSLAX46Y46*%
G04 Gerber Fmt 4.6, Leading zero omitted, Abs format (unit mm)*
G04 Created by KiCad (PCBNEW 4.0.6) date Saturday, October 28, 2017 'PMt' 04:50:48 PM*
%MOMM*%
%LPD*%
G01*
G04 APERTURE LIST*
%ADD10C,0.100000*%
%ADD11C,0.200000*%
%ADD12C,0.177800*%
%ADD13C,0.300000*%
%ADD14C,0.120000*%
%ADD15C,0.150000*%
G04 APERTURE END LIST*
D10*
D11*
X184215714Y-122687148D02*
X185215714Y-122687148D01*
X184263333Y-122687148D02*
X184215714Y-122591910D01*
X184215714Y-122401433D01*
X184263333Y-122306195D01*
X184310952Y-122258576D01*
X184406190Y-122210957D01*
X184691905Y-122210957D01*
X184787143Y-122258576D01*
X184834762Y-122306195D01*
X184882381Y-122401433D01*
X184882381Y-122591910D01*
X184834762Y-122687148D01*
X184215714Y-121782386D02*
X185215714Y-121782386D01*
X184263333Y-121782386D02*
X184215714Y-121687148D01*
X184215714Y-121496671D01*
X184263333Y-121401433D01*
X184310952Y-121353814D01*
X184406190Y-121306195D01*
X184691905Y-121306195D01*
X184787143Y-121353814D01*
X184834762Y-121401433D01*
X184882381Y-121496671D01*
X184882381Y-121687148D01*
X184834762Y-121782386D01*
X184406190Y-120258576D02*
X184358571Y-120306195D01*
X184310952Y-120401433D01*
X184310952Y-120496671D01*
X184358571Y-120591909D01*
X184406190Y-120639529D01*
X184501429Y-120687148D01*
X184596667Y-120687148D01*
X184691905Y-120639529D01*
X184739524Y-120591909D01*
X184787143Y-120496671D01*
X184787143Y-120401433D01*
X184739524Y-120306195D01*
X184691905Y-120258576D01*
X184310952Y-120258576D02*
X184691905Y-120258576D01*
X184739524Y-120210957D01*
X184739524Y-120163338D01*
X184691905Y-120068100D01*
X184596667Y-120020481D01*
X184358571Y-120020481D01*
X184215714Y-120115719D01*
X184120476Y-120258576D01*
X184072857Y-120449052D01*
X184120476Y-120639529D01*
X184215714Y-120782386D01*
X184358571Y-120877624D01*
X184549048Y-120925243D01*
X184739524Y-120877624D01*
X184882381Y-120782386D01*
X184977619Y-120639529D01*
X185025238Y-120449052D01*
X184977619Y-120258576D01*
X184882381Y-120115719D01*
X184882381Y-119591910D02*
X184215714Y-119591910D01*
X184310952Y-119591910D02*
X184263333Y-119544291D01*
X184215714Y-119449053D01*
X184215714Y-119306195D01*
X184263333Y-119210957D01*
X184358571Y-119163338D01*
X184882381Y-119163338D01*
X184358571Y-119163338D02*
X184263333Y-119115719D01*
X184215714Y-119020481D01*
X184215714Y-118877624D01*
X184263333Y-118782386D01*
X184358571Y-118734767D01*
X184882381Y-118734767D01*
X184215714Y-118353815D02*
X184882381Y-118115720D01*
X184215714Y-117877624D02*
X184882381Y-118115720D01*
X185120476Y-118210958D01*
X185168095Y-118258577D01*
X185215714Y-118353815D01*
X184834762Y-117115719D02*
X184882381Y-117210957D01*
X184882381Y-117401434D01*
X184834762Y-117496672D01*
X184739524Y-117544291D01*
X184358571Y-117544291D01*
X184263333Y-117496672D01*
X184215714Y-117401434D01*
X184215714Y-117210957D01*
X184263333Y-117115719D01*
X184358571Y-117068100D01*
X184453810Y-117068100D01*
X184549048Y-117544291D01*
X184882381Y-116496672D02*
X184834762Y-116591910D01*
X184739524Y-116639529D01*
X183882381Y-116639529D01*
X184882381Y-116115719D02*
X184215714Y-116115719D01*
X183882381Y-116115719D02*
X183930000Y-116163338D01*
X183977619Y-116115719D01*
X183930000Y-116068100D01*
X183882381Y-116115719D01*
X183977619Y-116115719D01*
X184215714Y-115639529D02*
X184882381Y-115639529D01*
X184310952Y-115639529D02*
X184263333Y-115591910D01*
X184215714Y-115496672D01*
X184215714Y-115353814D01*
X184263333Y-115258576D01*
X184358571Y-115210957D01*
X184882381Y-115210957D01*
X184787143Y-114734767D02*
X184834762Y-114687148D01*
X184882381Y-114734767D01*
X184834762Y-114782386D01*
X184787143Y-114734767D01*
X184882381Y-114734767D01*
X184215714Y-114258577D02*
X184882381Y-114258577D01*
X184310952Y-114258577D02*
X184263333Y-114210958D01*
X184215714Y-114115720D01*
X184215714Y-113972862D01*
X184263333Y-113877624D01*
X184358571Y-113830005D01*
X184882381Y-113830005D01*
X184215714Y-113449053D02*
X184215714Y-112925243D01*
X184882381Y-113449053D01*
X184882381Y-112925243D01*
X184834762Y-110591909D02*
X184882381Y-110687147D01*
X184882381Y-110877624D01*
X184834762Y-110972862D01*
X184787143Y-111020481D01*
X184691905Y-111068100D01*
X184406190Y-111068100D01*
X184310952Y-111020481D01*
X184263333Y-110972862D01*
X184215714Y-110877624D01*
X184215714Y-110687147D01*
X184263333Y-110591909D01*
X184215714Y-110163338D02*
X185215714Y-110163338D01*
X184263333Y-110163338D02*
X184215714Y-110068100D01*
X184215714Y-109877623D01*
X184263333Y-109782385D01*
X184310952Y-109734766D01*
X184406190Y-109687147D01*
X184691905Y-109687147D01*
X184787143Y-109734766D01*
X184834762Y-109782385D01*
X184882381Y-109877623D01*
X184882381Y-110068100D01*
X184834762Y-110163338D01*
X184215714Y-108830004D02*
X184882381Y-108830004D01*
X184215714Y-109258576D02*
X184739524Y-109258576D01*
X184834762Y-109210957D01*
X184882381Y-109115719D01*
X184882381Y-108972861D01*
X184834762Y-108877623D01*
X184787143Y-108830004D01*
X184977619Y-108591909D02*
X184977619Y-107830004D01*
X184834762Y-107639528D02*
X184882381Y-107544290D01*
X184882381Y-107353814D01*
X184834762Y-107258575D01*
X184739524Y-107210956D01*
X184691905Y-107210956D01*
X184596667Y-107258575D01*
X184549048Y-107353814D01*
X184549048Y-107496671D01*
X184501429Y-107591909D01*
X184406190Y-107639528D01*
X184358571Y-107639528D01*
X184263333Y-107591909D01*
X184215714Y-107496671D01*
X184215714Y-107353814D01*
X184263333Y-107258575D01*
X184882381Y-106639528D02*
X184834762Y-106734766D01*
X184787143Y-106782385D01*
X184691905Y-106830004D01*
X184406190Y-106830004D01*
X184310952Y-106782385D01*
X184263333Y-106734766D01*
X184215714Y-106639528D01*
X184215714Y-106496670D01*
X184263333Y-106401432D01*
X184310952Y-106353813D01*
X184406190Y-106306194D01*
X184691905Y-106306194D01*
X184787143Y-106353813D01*
X184834762Y-106401432D01*
X184882381Y-106496670D01*
X184882381Y-106639528D01*
X184834762Y-105449051D02*
X184882381Y-105544289D01*
X184882381Y-105734766D01*
X184834762Y-105830004D01*
X184787143Y-105877623D01*
X184691905Y-105925242D01*
X184406190Y-105925242D01*
X184310952Y-105877623D01*
X184263333Y-105830004D01*
X184215714Y-105734766D01*
X184215714Y-105544289D01*
X184263333Y-105449051D01*
X184882381Y-105020480D02*
X183882381Y-105020480D01*
X184501429Y-104925242D02*
X184882381Y-104639527D01*
X184215714Y-104639527D02*
X184596667Y-105020480D01*
X184834762Y-103830003D02*
X184882381Y-103925241D01*
X184882381Y-104115718D01*
X184834762Y-104210956D01*
X184739524Y-104258575D01*
X184358571Y-104258575D01*
X184263333Y-104210956D01*
X184215714Y-104115718D01*
X184215714Y-103925241D01*
X184263333Y-103830003D01*
X184358571Y-103782384D01*
X184453810Y-103782384D01*
X184549048Y-104258575D01*
X184215714Y-103496670D02*
X184215714Y-103115718D01*
X183882381Y-103353813D02*
X184739524Y-103353813D01*
X184834762Y-103306194D01*
X184882381Y-103210956D01*
X184882381Y-103115718D01*
X184977619Y-103020479D02*
X184977619Y-102258574D01*
X184834762Y-101639526D02*
X184882381Y-101734764D01*
X184882381Y-101925241D01*
X184834762Y-102020479D01*
X184739524Y-102068098D01*
X184358571Y-102068098D01*
X184263333Y-102020479D01*
X184215714Y-101925241D01*
X184215714Y-101734764D01*
X184263333Y-101639526D01*
X184358571Y-101591907D01*
X184453810Y-101591907D01*
X184549048Y-102068098D01*
X184882381Y-101258574D02*
X184215714Y-100734764D01*
X184215714Y-101258574D02*
X184882381Y-100734764D01*
X184215714Y-100353812D02*
X185215714Y-100353812D01*
X184263333Y-100353812D02*
X184215714Y-100258574D01*
X184215714Y-100068097D01*
X184263333Y-99972859D01*
X184310952Y-99925240D01*
X184406190Y-99877621D01*
X184691905Y-99877621D01*
X184787143Y-99925240D01*
X184834762Y-99972859D01*
X184882381Y-100068097D01*
X184882381Y-100258574D01*
X184834762Y-100353812D01*
X184882381Y-99020478D02*
X184358571Y-99020478D01*
X184263333Y-99068097D01*
X184215714Y-99163335D01*
X184215714Y-99353812D01*
X184263333Y-99449050D01*
X184834762Y-99020478D02*
X184882381Y-99115716D01*
X184882381Y-99353812D01*
X184834762Y-99449050D01*
X184739524Y-99496669D01*
X184644286Y-99496669D01*
X184549048Y-99449050D01*
X184501429Y-99353812D01*
X184501429Y-99115716D01*
X184453810Y-99020478D01*
X184215714Y-98544288D02*
X184882381Y-98544288D01*
X184310952Y-98544288D02*
X184263333Y-98496669D01*
X184215714Y-98401431D01*
X184215714Y-98258573D01*
X184263333Y-98163335D01*
X184358571Y-98115716D01*
X184882381Y-98115716D01*
X184834762Y-97687145D02*
X184882381Y-97591907D01*
X184882381Y-97401431D01*
X184834762Y-97306192D01*
X184739524Y-97258573D01*
X184691905Y-97258573D01*
X184596667Y-97306192D01*
X184549048Y-97401431D01*
X184549048Y-97544288D01*
X184501429Y-97639526D01*
X184406190Y-97687145D01*
X184358571Y-97687145D01*
X184263333Y-97639526D01*
X184215714Y-97544288D01*
X184215714Y-97401431D01*
X184263333Y-97306192D01*
X184882381Y-96830002D02*
X184215714Y-96830002D01*
X183882381Y-96830002D02*
X183930000Y-96877621D01*
X183977619Y-96830002D01*
X183930000Y-96782383D01*
X183882381Y-96830002D01*
X183977619Y-96830002D01*
X184882381Y-96210955D02*
X184834762Y-96306193D01*
X184787143Y-96353812D01*
X184691905Y-96401431D01*
X184406190Y-96401431D01*
X184310952Y-96353812D01*
X184263333Y-96306193D01*
X184215714Y-96210955D01*
X184215714Y-96068097D01*
X184263333Y-95972859D01*
X184310952Y-95925240D01*
X184406190Y-95877621D01*
X184691905Y-95877621D01*
X184787143Y-95925240D01*
X184834762Y-95972859D01*
X184882381Y-96068097D01*
X184882381Y-96210955D01*
X184215714Y-95449050D02*
X184882381Y-95449050D01*
X184310952Y-95449050D02*
X184263333Y-95401431D01*
X184215714Y-95306193D01*
X184215714Y-95163335D01*
X184263333Y-95068097D01*
X184358571Y-95020478D01*
X184882381Y-95020478D01*
X184358571Y-92687144D02*
X184358571Y-93020478D01*
X184882381Y-93020478D02*
X183882381Y-93020478D01*
X183882381Y-92544287D01*
X184882381Y-92020478D02*
X184834762Y-92115716D01*
X184787143Y-92163335D01*
X184691905Y-92210954D01*
X184406190Y-92210954D01*
X184310952Y-92163335D01*
X184263333Y-92115716D01*
X184215714Y-92020478D01*
X184215714Y-91877620D01*
X184263333Y-91782382D01*
X184310952Y-91734763D01*
X184406190Y-91687144D01*
X184691905Y-91687144D01*
X184787143Y-91734763D01*
X184834762Y-91782382D01*
X184882381Y-91877620D01*
X184882381Y-92020478D01*
X184882381Y-91258573D02*
X184215714Y-91258573D01*
X184406190Y-91258573D02*
X184310952Y-91210954D01*
X184263333Y-91163335D01*
X184215714Y-91068097D01*
X184215714Y-90972858D01*
X184882381Y-89877620D02*
X184215714Y-89877620D01*
X183882381Y-89877620D02*
X183930000Y-89925239D01*
X183977619Y-89877620D01*
X183930000Y-89830001D01*
X183882381Y-89877620D01*
X183977619Y-89877620D01*
X184215714Y-89401430D02*
X184882381Y-89401430D01*
X184310952Y-89401430D02*
X184263333Y-89353811D01*
X184215714Y-89258573D01*
X184215714Y-89115715D01*
X184263333Y-89020477D01*
X184358571Y-88972858D01*
X184882381Y-88972858D01*
X184834762Y-88544287D02*
X184882381Y-88449049D01*
X184882381Y-88258573D01*
X184834762Y-88163334D01*
X184739524Y-88115715D01*
X184691905Y-88115715D01*
X184596667Y-88163334D01*
X184549048Y-88258573D01*
X184549048Y-88401430D01*
X184501429Y-88496668D01*
X184406190Y-88544287D01*
X184358571Y-88544287D01*
X184263333Y-88496668D01*
X184215714Y-88401430D01*
X184215714Y-88258573D01*
X184263333Y-88163334D01*
X184215714Y-87830001D02*
X184215714Y-87449049D01*
X183882381Y-87687144D02*
X184739524Y-87687144D01*
X184834762Y-87639525D01*
X184882381Y-87544287D01*
X184882381Y-87449049D01*
X184882381Y-86687143D02*
X184358571Y-86687143D01*
X184263333Y-86734762D01*
X184215714Y-86830000D01*
X184215714Y-87020477D01*
X184263333Y-87115715D01*
X184834762Y-86687143D02*
X184882381Y-86782381D01*
X184882381Y-87020477D01*
X184834762Y-87115715D01*
X184739524Y-87163334D01*
X184644286Y-87163334D01*
X184549048Y-87115715D01*
X184501429Y-87020477D01*
X184501429Y-86782381D01*
X184453810Y-86687143D01*
X184882381Y-86068096D02*
X184834762Y-86163334D01*
X184739524Y-86210953D01*
X183882381Y-86210953D01*
X184882381Y-85544286D02*
X184834762Y-85639524D01*
X184739524Y-85687143D01*
X183882381Y-85687143D01*
X184882381Y-84734761D02*
X184358571Y-84734761D01*
X184263333Y-84782380D01*
X184215714Y-84877618D01*
X184215714Y-85068095D01*
X184263333Y-85163333D01*
X184834762Y-84734761D02*
X184882381Y-84829999D01*
X184882381Y-85068095D01*
X184834762Y-85163333D01*
X184739524Y-85210952D01*
X184644286Y-85210952D01*
X184549048Y-85163333D01*
X184501429Y-85068095D01*
X184501429Y-84829999D01*
X184453810Y-84734761D01*
X184215714Y-84401428D02*
X184215714Y-84020476D01*
X183882381Y-84258571D02*
X184739524Y-84258571D01*
X184834762Y-84210952D01*
X184882381Y-84115714D01*
X184882381Y-84020476D01*
X184882381Y-83687142D02*
X184215714Y-83687142D01*
X183882381Y-83687142D02*
X183930000Y-83734761D01*
X183977619Y-83687142D01*
X183930000Y-83639523D01*
X183882381Y-83687142D01*
X183977619Y-83687142D01*
X184882381Y-83068095D02*
X184834762Y-83163333D01*
X184787143Y-83210952D01*
X184691905Y-83258571D01*
X184406190Y-83258571D01*
X184310952Y-83210952D01*
X184263333Y-83163333D01*
X184215714Y-83068095D01*
X184215714Y-82925237D01*
X184263333Y-82829999D01*
X184310952Y-82782380D01*
X184406190Y-82734761D01*
X184691905Y-82734761D01*
X184787143Y-82782380D01*
X184834762Y-82829999D01*
X184882381Y-82925237D01*
X184882381Y-83068095D01*
X184215714Y-82306190D02*
X184882381Y-82306190D01*
X184310952Y-82306190D02*
X184263333Y-82258571D01*
X184215714Y-82163333D01*
X184215714Y-82020475D01*
X184263333Y-81925237D01*
X184358571Y-81877618D01*
X184882381Y-81877618D01*
X184882381Y-80639523D02*
X184215714Y-80639523D01*
X183882381Y-80639523D02*
X183930000Y-80687142D01*
X183977619Y-80639523D01*
X183930000Y-80591904D01*
X183882381Y-80639523D01*
X183977619Y-80639523D01*
X184215714Y-80163333D02*
X184882381Y-80163333D01*
X184310952Y-80163333D02*
X184263333Y-80115714D01*
X184215714Y-80020476D01*
X184215714Y-79877618D01*
X184263333Y-79782380D01*
X184358571Y-79734761D01*
X184882381Y-79734761D01*
X184215714Y-79401428D02*
X184215714Y-79020476D01*
X183882381Y-79258571D02*
X184739524Y-79258571D01*
X184834762Y-79210952D01*
X184882381Y-79115714D01*
X184882381Y-79020476D01*
X184882381Y-78544285D02*
X184834762Y-78639523D01*
X184787143Y-78687142D01*
X184691905Y-78734761D01*
X184406190Y-78734761D01*
X184310952Y-78687142D01*
X184263333Y-78639523D01*
X184215714Y-78544285D01*
X184215714Y-78401427D01*
X184263333Y-78306189D01*
X184310952Y-78258570D01*
X184406190Y-78210951D01*
X184691905Y-78210951D01*
X184787143Y-78258570D01*
X184834762Y-78306189D01*
X184882381Y-78401427D01*
X184882381Y-78544285D01*
X184882381Y-76591903D02*
X184358571Y-76591903D01*
X184263333Y-76639522D01*
X184215714Y-76734760D01*
X184215714Y-76925237D01*
X184263333Y-77020475D01*
X184834762Y-76591903D02*
X184882381Y-76687141D01*
X184882381Y-76925237D01*
X184834762Y-77020475D01*
X184739524Y-77068094D01*
X184644286Y-77068094D01*
X184549048Y-77020475D01*
X184501429Y-76925237D01*
X184501429Y-76687141D01*
X184453810Y-76591903D01*
X184215714Y-76115713D02*
X184882381Y-76115713D01*
X184310952Y-76115713D02*
X184263333Y-76068094D01*
X184215714Y-75972856D01*
X184215714Y-75829998D01*
X184263333Y-75734760D01*
X184358571Y-75687141D01*
X184882381Y-75687141D01*
X184358571Y-74449046D02*
X184358571Y-74115712D01*
X184882381Y-73972855D02*
X184882381Y-74449046D01*
X183882381Y-74449046D01*
X183882381Y-73972855D01*
X184882381Y-73401427D02*
X184834762Y-73496665D01*
X184739524Y-73544284D01*
X183882381Y-73544284D01*
X184834762Y-72639521D02*
X184882381Y-72734759D01*
X184882381Y-72925236D01*
X184834762Y-73020474D01*
X184739524Y-73068093D01*
X184358571Y-73068093D01*
X184263333Y-73020474D01*
X184215714Y-72925236D01*
X184215714Y-72734759D01*
X184263333Y-72639521D01*
X184358571Y-72591902D01*
X184453810Y-72591902D01*
X184549048Y-73068093D01*
X184834762Y-71734759D02*
X184882381Y-71829997D01*
X184882381Y-72020474D01*
X184834762Y-72115712D01*
X184787143Y-72163331D01*
X184691905Y-72210950D01*
X184406190Y-72210950D01*
X184310952Y-72163331D01*
X184263333Y-72115712D01*
X184215714Y-72020474D01*
X184215714Y-71829997D01*
X184263333Y-71734759D01*
X184215714Y-71449045D02*
X184215714Y-71068093D01*
X183882381Y-71306188D02*
X184739524Y-71306188D01*
X184834762Y-71258569D01*
X184882381Y-71163331D01*
X184882381Y-71068093D01*
X184882381Y-70734759D02*
X184215714Y-70734759D01*
X184406190Y-70734759D02*
X184310952Y-70687140D01*
X184263333Y-70639521D01*
X184215714Y-70544283D01*
X184215714Y-70449044D01*
X184882381Y-69972854D02*
X184834762Y-70068092D01*
X184787143Y-70115711D01*
X184691905Y-70163330D01*
X184406190Y-70163330D01*
X184310952Y-70115711D01*
X184263333Y-70068092D01*
X184215714Y-69972854D01*
X184215714Y-69829996D01*
X184263333Y-69734758D01*
X184310952Y-69687139D01*
X184406190Y-69639520D01*
X184691905Y-69639520D01*
X184787143Y-69687139D01*
X184834762Y-69734758D01*
X184882381Y-69829996D01*
X184882381Y-69972854D01*
X184215714Y-69210949D02*
X184882381Y-69210949D01*
X184310952Y-69210949D02*
X184263333Y-69163330D01*
X184215714Y-69068092D01*
X184215714Y-68925234D01*
X184263333Y-68829996D01*
X184358571Y-68782377D01*
X184882381Y-68782377D01*
X184882381Y-67401425D02*
X184834762Y-67496663D01*
X184787143Y-67544282D01*
X184691905Y-67591901D01*
X184406190Y-67591901D01*
X184310952Y-67544282D01*
X184263333Y-67496663D01*
X184215714Y-67401425D01*
X184215714Y-67258567D01*
X184263333Y-67163329D01*
X184310952Y-67115710D01*
X184406190Y-67068091D01*
X184691905Y-67068091D01*
X184787143Y-67115710D01*
X184834762Y-67163329D01*
X184882381Y-67258567D01*
X184882381Y-67401425D01*
X184882381Y-66639520D02*
X184215714Y-66639520D01*
X184406190Y-66639520D02*
X184310952Y-66591901D01*
X184263333Y-66544282D01*
X184215714Y-66449044D01*
X184215714Y-66353805D01*
X184358571Y-64925233D02*
X184406190Y-64782376D01*
X184453810Y-64734757D01*
X184549048Y-64687138D01*
X184691905Y-64687138D01*
X184787143Y-64734757D01*
X184834762Y-64782376D01*
X184882381Y-64877614D01*
X184882381Y-65258567D01*
X183882381Y-65258567D01*
X183882381Y-64925233D01*
X183930000Y-64829995D01*
X183977619Y-64782376D01*
X184072857Y-64734757D01*
X184168095Y-64734757D01*
X184263333Y-64782376D01*
X184310952Y-64829995D01*
X184358571Y-64925233D01*
X184358571Y-65258567D01*
X184358571Y-63925233D02*
X184406190Y-63782376D01*
X184453810Y-63734757D01*
X184549048Y-63687138D01*
X184691905Y-63687138D01*
X184787143Y-63734757D01*
X184834762Y-63782376D01*
X184882381Y-63877614D01*
X184882381Y-64258567D01*
X183882381Y-64258567D01*
X183882381Y-63925233D01*
X183930000Y-63829995D01*
X183977619Y-63782376D01*
X184072857Y-63734757D01*
X184168095Y-63734757D01*
X184263333Y-63782376D01*
X184310952Y-63829995D01*
X184358571Y-63925233D01*
X184358571Y-64258567D01*
X184787143Y-62687138D02*
X184834762Y-62734757D01*
X184882381Y-62877614D01*
X184882381Y-62972852D01*
X184834762Y-63115710D01*
X184739524Y-63210948D01*
X184644286Y-63258567D01*
X184453810Y-63306186D01*
X184310952Y-63306186D01*
X184120476Y-63258567D01*
X184025238Y-63210948D01*
X183930000Y-63115710D01*
X183882381Y-62972852D01*
X183882381Y-62877614D01*
X183930000Y-62734757D01*
X183977619Y-62687138D01*
X184358571Y-61163328D02*
X184406190Y-61020471D01*
X184453810Y-60972852D01*
X184549048Y-60925233D01*
X184691905Y-60925233D01*
X184787143Y-60972852D01*
X184834762Y-61020471D01*
X184882381Y-61115709D01*
X184882381Y-61496662D01*
X183882381Y-61496662D01*
X183882381Y-61163328D01*
X183930000Y-61068090D01*
X183977619Y-61020471D01*
X184072857Y-60972852D01*
X184168095Y-60972852D01*
X184263333Y-61020471D01*
X184310952Y-61068090D01*
X184358571Y-61163328D01*
X184358571Y-61496662D01*
X169430000Y-75145714D02*
X168668095Y-75431429D01*
X169430000Y-75717143D01*
X169906190Y-75431429D02*
X170668095Y-75431429D01*
X172430000Y-74860000D02*
X172334762Y-74812381D01*
X172191905Y-74812381D01*
X172049047Y-74860000D01*
X171953809Y-74955238D01*
X171906190Y-75050476D01*
X171858571Y-75240952D01*
X171858571Y-75383810D01*
X171906190Y-75574286D01*
X171953809Y-75669524D01*
X172049047Y-75764762D01*
X172191905Y-75812381D01*
X172287143Y-75812381D01*
X172430000Y-75764762D01*
X172477619Y-75717143D01*
X172477619Y-75383810D01*
X172287143Y-75383810D01*
X172906190Y-75812381D02*
X172906190Y-74812381D01*
X173477619Y-75812381D01*
X173477619Y-74812381D01*
X173953809Y-75812381D02*
X173953809Y-74812381D01*
X174191904Y-74812381D01*
X174334762Y-74860000D01*
X174430000Y-74955238D01*
X174477619Y-75050476D01*
X174525238Y-75240952D01*
X174525238Y-75383810D01*
X174477619Y-75574286D01*
X174430000Y-75669524D01*
X174334762Y-75764762D01*
X174191904Y-75812381D01*
X173953809Y-75812381D01*
X175668095Y-74764762D02*
X174810952Y-76050476D01*
X175858571Y-74812381D02*
X176191904Y-75812381D01*
X176525238Y-74812381D01*
X176858571Y-75812381D02*
X176858571Y-74812381D01*
X177239524Y-74812381D01*
X177334762Y-74860000D01*
X177382381Y-74907619D01*
X177430000Y-75002857D01*
X177430000Y-75145714D01*
X177382381Y-75240952D01*
X177334762Y-75288571D01*
X177239524Y-75336190D01*
X176858571Y-75336190D01*
X178191905Y-75288571D02*
X178334762Y-75336190D01*
X178382381Y-75383810D01*
X178430000Y-75479048D01*
X178430000Y-75621905D01*
X178382381Y-75717143D01*
X178334762Y-75764762D01*
X178239524Y-75812381D01*
X177858571Y-75812381D01*
X177858571Y-74812381D01*
X178191905Y-74812381D01*
X178287143Y-74860000D01*
X178334762Y-74907619D01*
X178382381Y-75002857D01*
X178382381Y-75098095D01*
X178334762Y-75193333D01*
X178287143Y-75240952D01*
X178191905Y-75288571D01*
X177858571Y-75288571D01*
X154405715Y-107772381D02*
X153834286Y-107772381D01*
X154120000Y-107772381D02*
X154120000Y-106772381D01*
X154024762Y-106915238D01*
X153929524Y-107010476D01*
X153834286Y-107058095D01*
X154075715Y-121412381D02*
X153504286Y-121412381D01*
X153790000Y-121412381D02*
X153790000Y-120412381D01*
X153694762Y-120555238D01*
X153599524Y-120650476D01*
X153504286Y-120698095D01*
D12*
X154116191Y-78481724D02*
X154237143Y-78481724D01*
X154358095Y-78542200D01*
X154418572Y-78602676D01*
X154479048Y-78723629D01*
X154539524Y-78965533D01*
X154539524Y-79267914D01*
X154479048Y-79509819D01*
X154418572Y-79630771D01*
X154358095Y-79691248D01*
X154237143Y-79751724D01*
X154116191Y-79751724D01*
X153995238Y-79691248D01*
X153934762Y-79630771D01*
X153874286Y-79509819D01*
X153813810Y-79267914D01*
X153813810Y-78965533D01*
X153874286Y-78723629D01*
X153934762Y-78602676D01*
X153995238Y-78542200D01*
X154116191Y-78481724D01*
X154902381Y-78481724D02*
X155325715Y-79751724D01*
X155749048Y-78481724D01*
X153027619Y-80564524D02*
X153813809Y-80564524D01*
X153390476Y-81048333D01*
X153571904Y-81048333D01*
X153692857Y-81108810D01*
X153753333Y-81169286D01*
X153813809Y-81290238D01*
X153813809Y-81592619D01*
X153753333Y-81713571D01*
X153692857Y-81774048D01*
X153571904Y-81834524D01*
X153209047Y-81834524D01*
X153088095Y-81774048D01*
X153027619Y-81713571D01*
X154358095Y-81713571D02*
X154418571Y-81774048D01*
X154358095Y-81834524D01*
X154297619Y-81774048D01*
X154358095Y-81713571D01*
X154358095Y-81834524D01*
X154841905Y-80564524D02*
X155628095Y-80564524D01*
X155204762Y-81048333D01*
X155386190Y-81048333D01*
X155507143Y-81108810D01*
X155567619Y-81169286D01*
X155628095Y-81290238D01*
X155628095Y-81592619D01*
X155567619Y-81713571D01*
X155507143Y-81774048D01*
X155386190Y-81834524D01*
X155023333Y-81834524D01*
X154902381Y-81774048D01*
X154841905Y-81713571D01*
X154479048Y-82647324D02*
X153874286Y-82647324D01*
X153813810Y-83252086D01*
X153874286Y-83191610D01*
X153995238Y-83131133D01*
X154297619Y-83131133D01*
X154418572Y-83191610D01*
X154479048Y-83252086D01*
X154539524Y-83373038D01*
X154539524Y-83675419D01*
X154479048Y-83796371D01*
X154418572Y-83856848D01*
X154297619Y-83917324D01*
X153995238Y-83917324D01*
X153874286Y-83856848D01*
X153813810Y-83796371D01*
X154902381Y-82647324D02*
X155325715Y-83917324D01*
X155749048Y-82647324D01*
D13*
X164478571Y-122079999D02*
X162978571Y-122079999D01*
X162978571Y-121508571D01*
X163050000Y-121365713D01*
X163121429Y-121294285D01*
X163264286Y-121222856D01*
X163478571Y-121222856D01*
X163621429Y-121294285D01*
X163692857Y-121365713D01*
X163764286Y-121508571D01*
X163764286Y-122079999D01*
X164478571Y-120579999D02*
X163478571Y-120579999D01*
X162978571Y-120579999D02*
X163050000Y-120651428D01*
X163121429Y-120579999D01*
X163050000Y-120508571D01*
X162978571Y-120579999D01*
X163121429Y-120579999D01*
X163478571Y-119865713D02*
X164478571Y-119865713D01*
X163621429Y-119865713D02*
X163550000Y-119794285D01*
X163478571Y-119651427D01*
X163478571Y-119437142D01*
X163550000Y-119294285D01*
X163692857Y-119222856D01*
X164478571Y-119222856D01*
X164407143Y-118579999D02*
X164478571Y-118437142D01*
X164478571Y-118151427D01*
X164407143Y-118008570D01*
X164264286Y-117937142D01*
X164192857Y-117937142D01*
X164050000Y-118008570D01*
X163978571Y-118151427D01*
X163978571Y-118365713D01*
X163907143Y-118508570D01*
X163764286Y-118579999D01*
X163692857Y-118579999D01*
X163550000Y-118508570D01*
X163478571Y-118365713D01*
X163478571Y-118151427D01*
X163550000Y-118008570D01*
X163478571Y-116365713D02*
X163478571Y-115794284D01*
X162978571Y-116151427D02*
X164264286Y-116151427D01*
X164407143Y-116079999D01*
X164478571Y-115937141D01*
X164478571Y-115794284D01*
X164478571Y-115079998D02*
X164407143Y-115222856D01*
X164335714Y-115294284D01*
X164192857Y-115365713D01*
X163764286Y-115365713D01*
X163621429Y-115294284D01*
X163550000Y-115222856D01*
X163478571Y-115079998D01*
X163478571Y-114865713D01*
X163550000Y-114722856D01*
X163621429Y-114651427D01*
X163764286Y-114579998D01*
X164192857Y-114579998D01*
X164335714Y-114651427D01*
X164407143Y-114722856D01*
X164478571Y-114865713D01*
X164478571Y-115079998D01*
X163692857Y-112794284D02*
X163692857Y-112294284D01*
X164478571Y-112079998D02*
X164478571Y-112794284D01*
X162978571Y-112794284D01*
X162978571Y-112079998D01*
X164478571Y-111222855D02*
X164407143Y-111365713D01*
X164264286Y-111437141D01*
X162978571Y-111437141D01*
X164407143Y-110079999D02*
X164478571Y-110222856D01*
X164478571Y-110508570D01*
X164407143Y-110651427D01*
X164264286Y-110722856D01*
X163692857Y-110722856D01*
X163550000Y-110651427D01*
X163478571Y-110508570D01*
X163478571Y-110222856D01*
X163550000Y-110079999D01*
X163692857Y-110008570D01*
X163835714Y-110008570D01*
X163978571Y-110722856D01*
X164407143Y-108722856D02*
X164478571Y-108865713D01*
X164478571Y-109151427D01*
X164407143Y-109294285D01*
X164335714Y-109365713D01*
X164192857Y-109437142D01*
X163764286Y-109437142D01*
X163621429Y-109365713D01*
X163550000Y-109294285D01*
X163478571Y-109151427D01*
X163478571Y-108865713D01*
X163550000Y-108722856D01*
X163478571Y-108294285D02*
X163478571Y-107722856D01*
X162978571Y-108079999D02*
X164264286Y-108079999D01*
X164407143Y-108008571D01*
X164478571Y-107865713D01*
X164478571Y-107722856D01*
X164478571Y-107222856D02*
X163478571Y-107222856D01*
X163764286Y-107222856D02*
X163621429Y-107151428D01*
X163550000Y-107079999D01*
X163478571Y-106937142D01*
X163478571Y-106794285D01*
X164478571Y-106079999D02*
X164407143Y-106222857D01*
X164335714Y-106294285D01*
X164192857Y-106365714D01*
X163764286Y-106365714D01*
X163621429Y-106294285D01*
X163550000Y-106222857D01*
X163478571Y-106079999D01*
X163478571Y-105865714D01*
X163550000Y-105722857D01*
X163621429Y-105651428D01*
X163764286Y-105579999D01*
X164192857Y-105579999D01*
X164335714Y-105651428D01*
X164407143Y-105722857D01*
X164478571Y-105865714D01*
X164478571Y-106079999D01*
X163478571Y-104937142D02*
X164478571Y-104937142D01*
X163621429Y-104937142D02*
X163550000Y-104865714D01*
X163478571Y-104722856D01*
X163478571Y-104508571D01*
X163550000Y-104365714D01*
X163692857Y-104294285D01*
X164478571Y-104294285D01*
X164478571Y-102437142D02*
X163478571Y-102437142D01*
X163621429Y-102437142D02*
X163550000Y-102365714D01*
X163478571Y-102222856D01*
X163478571Y-102008571D01*
X163550000Y-101865714D01*
X163692857Y-101794285D01*
X164478571Y-101794285D01*
X163692857Y-101794285D02*
X163550000Y-101722856D01*
X163478571Y-101579999D01*
X163478571Y-101365714D01*
X163550000Y-101222856D01*
X163692857Y-101151428D01*
X164478571Y-101151428D01*
X164478571Y-100222856D02*
X164407143Y-100365714D01*
X164335714Y-100437142D01*
X164192857Y-100508571D01*
X163764286Y-100508571D01*
X163621429Y-100437142D01*
X163550000Y-100365714D01*
X163478571Y-100222856D01*
X163478571Y-100008571D01*
X163550000Y-99865714D01*
X163621429Y-99794285D01*
X163764286Y-99722856D01*
X164192857Y-99722856D01*
X164335714Y-99794285D01*
X164407143Y-99865714D01*
X164478571Y-100008571D01*
X164478571Y-100222856D01*
X163478571Y-99294285D02*
X163478571Y-98722856D01*
X162978571Y-99079999D02*
X164264286Y-99079999D01*
X164407143Y-99008571D01*
X164478571Y-98865713D01*
X164478571Y-98722856D01*
X164478571Y-98222856D02*
X162978571Y-98222856D01*
X164478571Y-97579999D02*
X163692857Y-97579999D01*
X163550000Y-97651428D01*
X163478571Y-97794285D01*
X163478571Y-98008570D01*
X163550000Y-98151428D01*
X163621429Y-98222856D01*
X164407143Y-96294285D02*
X164478571Y-96437142D01*
X164478571Y-96722856D01*
X164407143Y-96865713D01*
X164264286Y-96937142D01*
X163692857Y-96937142D01*
X163550000Y-96865713D01*
X163478571Y-96722856D01*
X163478571Y-96437142D01*
X163550000Y-96294285D01*
X163692857Y-96222856D01*
X163835714Y-96222856D01*
X163978571Y-96937142D01*
X164478571Y-95579999D02*
X163478571Y-95579999D01*
X163764286Y-95579999D02*
X163621429Y-95508571D01*
X163550000Y-95437142D01*
X163478571Y-95294285D01*
X163478571Y-95151428D01*
X164478571Y-94651428D02*
X162978571Y-94651428D01*
X163550000Y-94651428D02*
X163478571Y-94508571D01*
X163478571Y-94222857D01*
X163550000Y-94080000D01*
X163621429Y-94008571D01*
X163764286Y-93937142D01*
X164192857Y-93937142D01*
X164335714Y-94008571D01*
X164407143Y-94080000D01*
X164478571Y-94222857D01*
X164478571Y-94508571D01*
X164407143Y-94651428D01*
X164478571Y-93079999D02*
X164407143Y-93222857D01*
X164335714Y-93294285D01*
X164192857Y-93365714D01*
X163764286Y-93365714D01*
X163621429Y-93294285D01*
X163550000Y-93222857D01*
X163478571Y-93079999D01*
X163478571Y-92865714D01*
X163550000Y-92722857D01*
X163621429Y-92651428D01*
X163764286Y-92579999D01*
X164192857Y-92579999D01*
X164335714Y-92651428D01*
X164407143Y-92722857D01*
X164478571Y-92865714D01*
X164478571Y-93079999D01*
X164478571Y-91294285D02*
X163692857Y-91294285D01*
X163550000Y-91365714D01*
X163478571Y-91508571D01*
X163478571Y-91794285D01*
X163550000Y-91937142D01*
X164407143Y-91294285D02*
X164478571Y-91437142D01*
X164478571Y-91794285D01*
X164407143Y-91937142D01*
X164264286Y-92008571D01*
X164121429Y-92008571D01*
X163978571Y-91937142D01*
X163907143Y-91794285D01*
X163907143Y-91437142D01*
X163835714Y-91294285D01*
X164478571Y-90579999D02*
X163478571Y-90579999D01*
X163764286Y-90579999D02*
X163621429Y-90508571D01*
X163550000Y-90437142D01*
X163478571Y-90294285D01*
X163478571Y-90151428D01*
X164478571Y-89008571D02*
X162978571Y-89008571D01*
X164407143Y-89008571D02*
X164478571Y-89151428D01*
X164478571Y-89437142D01*
X164407143Y-89580000D01*
X164335714Y-89651428D01*
X164192857Y-89722857D01*
X163764286Y-89722857D01*
X163621429Y-89651428D01*
X163550000Y-89580000D01*
X163478571Y-89437142D01*
X163478571Y-89151428D01*
X163550000Y-89008571D01*
X163692857Y-87151428D02*
X163692857Y-86008571D01*
X164121429Y-86008571D02*
X164121429Y-87151428D01*
X164478571Y-83937142D02*
X164407143Y-84080000D01*
X164264286Y-84151428D01*
X162978571Y-84151428D01*
X164407143Y-82794286D02*
X164478571Y-82937143D01*
X164478571Y-83222857D01*
X164407143Y-83365714D01*
X164264286Y-83437143D01*
X163692857Y-83437143D01*
X163550000Y-83365714D01*
X163478571Y-83222857D01*
X163478571Y-82937143D01*
X163550000Y-82794286D01*
X163692857Y-82722857D01*
X163835714Y-82722857D01*
X163978571Y-83437143D01*
X163478571Y-82294286D02*
X163478571Y-81722857D01*
X164478571Y-82080000D02*
X163192857Y-82080000D01*
X163050000Y-82008572D01*
X162978571Y-81865714D01*
X162978571Y-81722857D01*
X163478571Y-81437143D02*
X163478571Y-80865714D01*
X162978571Y-81222857D02*
X164264286Y-81222857D01*
X164407143Y-81151429D01*
X164478571Y-81008571D01*
X164478571Y-80865714D01*
X179707143Y-114687143D02*
X179778571Y-114472857D01*
X179778571Y-114115714D01*
X179707143Y-113972857D01*
X179635714Y-113901428D01*
X179492857Y-113830000D01*
X179350000Y-113830000D01*
X179207143Y-113901428D01*
X179135714Y-113972857D01*
X179064286Y-114115714D01*
X178992857Y-114401428D01*
X178921429Y-114544286D01*
X178850000Y-114615714D01*
X178707143Y-114687143D01*
X178564286Y-114687143D01*
X178421429Y-114615714D01*
X178350000Y-114544286D01*
X178278571Y-114401428D01*
X178278571Y-114044286D01*
X178350000Y-113830000D01*
X179778571Y-112972857D02*
X179707143Y-113115715D01*
X179635714Y-113187143D01*
X179492857Y-113258572D01*
X179064286Y-113258572D01*
X178921429Y-113187143D01*
X178850000Y-113115715D01*
X178778571Y-112972857D01*
X178778571Y-112758572D01*
X178850000Y-112615715D01*
X178921429Y-112544286D01*
X179064286Y-112472857D01*
X179492857Y-112472857D01*
X179635714Y-112544286D01*
X179707143Y-112615715D01*
X179778571Y-112758572D01*
X179778571Y-112972857D01*
X179707143Y-111187143D02*
X179778571Y-111330000D01*
X179778571Y-111615714D01*
X179707143Y-111758572D01*
X179635714Y-111830000D01*
X179492857Y-111901429D01*
X179064286Y-111901429D01*
X178921429Y-111830000D01*
X178850000Y-111758572D01*
X178778571Y-111615714D01*
X178778571Y-111330000D01*
X178850000Y-111187143D01*
X179778571Y-110544286D02*
X178278571Y-110544286D01*
X179207143Y-110401429D02*
X179778571Y-109972858D01*
X178778571Y-109972858D02*
X179350000Y-110544286D01*
X179707143Y-108758572D02*
X179778571Y-108901429D01*
X179778571Y-109187143D01*
X179707143Y-109330000D01*
X179564286Y-109401429D01*
X178992857Y-109401429D01*
X178850000Y-109330000D01*
X178778571Y-109187143D01*
X178778571Y-108901429D01*
X178850000Y-108758572D01*
X178992857Y-108687143D01*
X179135714Y-108687143D01*
X179278571Y-109401429D01*
X178778571Y-108258572D02*
X178778571Y-107687143D01*
X178278571Y-108044286D02*
X179564286Y-108044286D01*
X179707143Y-107972858D01*
X179778571Y-107830000D01*
X179778571Y-107687143D01*
X178778571Y-106258572D02*
X178778571Y-105687143D01*
X179778571Y-106044286D02*
X178492857Y-106044286D01*
X178350000Y-105972858D01*
X178278571Y-105830000D01*
X178278571Y-105687143D01*
X179778571Y-104972857D02*
X179707143Y-105115715D01*
X179635714Y-105187143D01*
X179492857Y-105258572D01*
X179064286Y-105258572D01*
X178921429Y-105187143D01*
X178850000Y-105115715D01*
X178778571Y-104972857D01*
X178778571Y-104758572D01*
X178850000Y-104615715D01*
X178921429Y-104544286D01*
X179064286Y-104472857D01*
X179492857Y-104472857D01*
X179635714Y-104544286D01*
X179707143Y-104615715D01*
X179778571Y-104758572D01*
X179778571Y-104972857D01*
X179778571Y-103830000D02*
X178778571Y-103830000D01*
X179064286Y-103830000D02*
X178921429Y-103758572D01*
X178850000Y-103687143D01*
X178778571Y-103544286D01*
X178778571Y-103401429D01*
X179635714Y-100901429D02*
X179707143Y-100972858D01*
X179778571Y-101187144D01*
X179778571Y-101330001D01*
X179707143Y-101544286D01*
X179564286Y-101687144D01*
X179421429Y-101758572D01*
X179135714Y-101830001D01*
X178921429Y-101830001D01*
X178635714Y-101758572D01*
X178492857Y-101687144D01*
X178350000Y-101544286D01*
X178278571Y-101330001D01*
X178278571Y-101187144D01*
X178350000Y-100972858D01*
X178421429Y-100901429D01*
X179778571Y-100258572D02*
X178278571Y-100258572D01*
X178278571Y-99687144D01*
X178350000Y-99544286D01*
X178421429Y-99472858D01*
X178564286Y-99401429D01*
X178778571Y-99401429D01*
X178921429Y-99472858D01*
X178992857Y-99544286D01*
X179064286Y-99687144D01*
X179064286Y-100258572D01*
X178278571Y-98758572D02*
X179492857Y-98758572D01*
X179635714Y-98687144D01*
X179707143Y-98615715D01*
X179778571Y-98472858D01*
X179778571Y-98187144D01*
X179707143Y-98044286D01*
X179635714Y-97972858D01*
X179492857Y-97901429D01*
X178278571Y-97901429D01*
X178992857Y-96044286D02*
X178992857Y-94901429D01*
X179421429Y-94901429D02*
X179421429Y-96044286D01*
X179778571Y-93044286D02*
X178778571Y-93044286D01*
X179064286Y-93044286D02*
X178921429Y-92972858D01*
X178850000Y-92901429D01*
X178778571Y-92758572D01*
X178778571Y-92615715D01*
X179778571Y-92115715D02*
X178778571Y-92115715D01*
X178278571Y-92115715D02*
X178350000Y-92187144D01*
X178421429Y-92115715D01*
X178350000Y-92044287D01*
X178278571Y-92115715D01*
X178421429Y-92115715D01*
X178778571Y-90758572D02*
X179992857Y-90758572D01*
X180135714Y-90830001D01*
X180207143Y-90901429D01*
X180278571Y-91044286D01*
X180278571Y-91258572D01*
X180207143Y-91401429D01*
X179707143Y-90758572D02*
X179778571Y-90901429D01*
X179778571Y-91187143D01*
X179707143Y-91330001D01*
X179635714Y-91401429D01*
X179492857Y-91472858D01*
X179064286Y-91472858D01*
X178921429Y-91401429D01*
X178850000Y-91330001D01*
X178778571Y-91187143D01*
X178778571Y-90901429D01*
X178850000Y-90758572D01*
X179778571Y-90044286D02*
X178278571Y-90044286D01*
X179778571Y-89401429D02*
X178992857Y-89401429D01*
X178850000Y-89472858D01*
X178778571Y-89615715D01*
X178778571Y-89830000D01*
X178850000Y-89972858D01*
X178921429Y-90044286D01*
X178778571Y-88901429D02*
X178778571Y-88330000D01*
X178278571Y-88687143D02*
X179564286Y-88687143D01*
X179707143Y-88615715D01*
X179778571Y-88472857D01*
X179778571Y-88330000D01*
D14*
X174930000Y-77150000D02*
G75*
G02X172930000Y-77150000I-1000000J0D01*
G01*
X172930000Y-77150000D02*
X167470000Y-77150000D01*
X167470000Y-77150000D02*
X167470000Y-128070000D01*
X167470000Y-128070000D02*
X180390000Y-128070000D01*
X180390000Y-128070000D02*
X180390000Y-77150000D01*
X180390000Y-77150000D02*
X174930000Y-77150000D01*
D15*
X157615000Y-120015000D02*
X157615000Y-120115000D01*
X157615000Y-126840000D02*
X157615000Y-126815000D01*
X152965000Y-126840000D02*
X152965000Y-126815000D01*
X151890000Y-120015000D02*
X157615000Y-120015000D01*
X152965000Y-126840000D02*
X157615000Y-126840000D01*
X157775000Y-105630000D02*
X157775000Y-105730000D01*
X157775000Y-112455000D02*
X157775000Y-112430000D01*
X153125000Y-112455000D02*
X153125000Y-112430000D01*
X152050000Y-105630000D02*
X157775000Y-105630000D01*
X153125000Y-112455000D02*
X157775000Y-112455000D01*
D14*
X169850000Y-77150000D02*
G75*
G02X167850000Y-77150000I-1000000J0D01*
G01*
X167850000Y-77150000D02*
X162390000Y-77150000D01*
X162390000Y-77150000D02*
X162390000Y-128070000D01*
X162390000Y-128070000D02*
X175310000Y-128070000D01*
X175310000Y-128070000D02*
X175310000Y-77150000D01*
X175310000Y-77150000D02*
X169850000Y-77150000D01*
X172010000Y-97040000D02*
X173010000Y-97040000D01*
X173010000Y-95340000D02*
X172010000Y-95340000D01*
X156100000Y-97530000D02*
X157100000Y-97530000D01*
X157100000Y-95830000D02*
X156100000Y-95830000D01*
X156050000Y-87780000D02*
X155050000Y-87780000D01*
X155050000Y-89480000D02*
X156050000Y-89480000D01*
X155900000Y-103280000D02*
X154900000Y-103280000D01*
X154900000Y-104980000D02*
X155900000Y-104980000D01*
X155780000Y-117410000D02*
X154780000Y-117410000D01*
X154780000Y-119110000D02*
X155780000Y-119110000D01*
X165990000Y-58040000D02*
X166990000Y-58040000D01*
X166990000Y-56340000D02*
X165990000Y-56340000D01*
X155380000Y-63920000D02*
X155380000Y-64920000D01*
X157080000Y-64920000D02*
X157080000Y-63920000D01*
X156220000Y-85060000D02*
X158880000Y-85060000D01*
X156220000Y-79920000D02*
X156220000Y-85060000D01*
X158880000Y-79920000D02*
X158880000Y-85060000D01*
X156220000Y-79920000D02*
X158880000Y-79920000D01*
X156220000Y-78650000D02*
X156220000Y-77320000D01*
X156220000Y-77320000D02*
X157550000Y-77320000D01*
X177090000Y-74200000D02*
X182290000Y-74200000D01*
X177090000Y-63980000D02*
X177090000Y-74200000D01*
X182290000Y-61380000D02*
X182290000Y-74200000D01*
X177090000Y-63980000D02*
X179690000Y-63980000D01*
X179690000Y-63980000D02*
X179690000Y-61380000D01*
X179690000Y-61380000D02*
X182290000Y-61380000D01*
X177090000Y-62710000D02*
X177090000Y-61380000D01*
X177090000Y-61380000D02*
X178420000Y-61380000D01*
D15*
X170740000Y-71230000D02*
X170740000Y-61230000D01*
X170740000Y-61230000D02*
X160740000Y-61230000D01*
X160740000Y-61230000D02*
X160740000Y-71230000D01*
X160740000Y-71230000D02*
X170740000Y-71230000D01*
X170490000Y-70730000D02*
G75*
G03X170490000Y-70730000I-250000J0D01*
G01*
D14*
X154340000Y-94066200D02*
X153140000Y-94066200D01*
X153140000Y-94066200D02*
X153140000Y-91366200D01*
X157940000Y-90066200D02*
X157940000Y-94066200D01*
X157940000Y-94066200D02*
X156740000Y-94066200D01*
X144900000Y-128070000D02*
X150100000Y-128070000D01*
X144900000Y-79750000D02*
X144900000Y-128070000D01*
X150100000Y-77150000D02*
X150100000Y-128070000D01*
X144900000Y-79750000D02*
X147500000Y-79750000D01*
X147500000Y-79750000D02*
X147500000Y-77150000D01*
X147500000Y-77150000D02*
X150100000Y-77150000D01*
X144900000Y-78480000D02*
X144900000Y-77150000D01*
X144900000Y-77150000D02*
X146230000Y-77150000D01*
X161240000Y-73710000D02*
X161240000Y-76370000D01*
X163840000Y-73710000D02*
X161240000Y-73710000D01*
X163840000Y-76370000D02*
X161240000Y-76370000D01*
X163840000Y-73710000D02*
X163840000Y-76370000D01*
X165110000Y-73710000D02*
X166440000Y-73710000D01*
X166440000Y-73710000D02*
X166440000Y-75040000D01*
X171840000Y-87800000D02*
X173040000Y-87800000D01*
X173040000Y-89560000D02*
X171840000Y-89560000D01*
X156530000Y-55230000D02*
X156530000Y-57890000D01*
X159130000Y-55230000D02*
X156530000Y-55230000D01*
X159130000Y-57890000D02*
X156530000Y-57890000D01*
X159130000Y-55230000D02*
X159130000Y-57890000D01*
X160400000Y-55230000D02*
X161730000Y-55230000D01*
X161730000Y-55230000D02*
X161730000Y-56560000D01*
X155990000Y-114080000D02*
X157190000Y-114080000D01*
X157190000Y-115840000D02*
X155990000Y-115840000D01*
X151180000Y-65900000D02*
X149980000Y-65900000D01*
X149980000Y-64140000D02*
X151180000Y-64140000D01*
X151950000Y-67950000D02*
X151950000Y-69150000D01*
X150190000Y-69150000D02*
X150190000Y-67950000D01*
X154000000Y-67950000D02*
X154000000Y-69150000D01*
X152240000Y-69150000D02*
X152240000Y-67950000D01*
D15*
X179887143Y-82800476D02*
X179934762Y-82848095D01*
X179982381Y-82990952D01*
X179982381Y-83086190D01*
X179934762Y-83229048D01*
X179839524Y-83324286D01*
X179744286Y-83371905D01*
X179553810Y-83419524D01*
X179410952Y-83419524D01*
X179220476Y-83371905D01*
X179125238Y-83324286D01*
X179030000Y-83229048D01*
X178982381Y-83086190D01*
X178982381Y-82990952D01*
X179030000Y-82848095D01*
X179077619Y-82800476D01*
X179982381Y-82371905D02*
X178982381Y-82371905D01*
X178982381Y-81990952D01*
X179030000Y-81895714D01*
X179077619Y-81848095D01*
X179172857Y-81800476D01*
X179315714Y-81800476D01*
X179410952Y-81848095D01*
X179458571Y-81895714D01*
X179506190Y-81990952D01*
X179506190Y-82371905D01*
X178982381Y-81371905D02*
X179791905Y-81371905D01*
X179887143Y-81324286D01*
X179934762Y-81276667D01*
X179982381Y-81181429D01*
X179982381Y-80990952D01*
X179934762Y-80895714D01*
X179887143Y-80848095D01*
X179791905Y-80800476D01*
X178982381Y-80800476D01*
X179077619Y-80371905D02*
X179030000Y-80324286D01*
X178982381Y-80229048D01*
X178982381Y-79990952D01*
X179030000Y-79895714D01*
X179077619Y-79848095D01*
X179172857Y-79800476D01*
X179268095Y-79800476D01*
X179410952Y-79848095D01*
X179982381Y-80419524D01*
X179982381Y-79800476D01*
X153095714Y-127906667D02*
X153571905Y-127906667D01*
X153000476Y-128192381D02*
X153333809Y-127192381D01*
X153667143Y-128192381D01*
X154333810Y-127668571D02*
X154476667Y-127716190D01*
X154524286Y-127763810D01*
X154571905Y-127859048D01*
X154571905Y-128001905D01*
X154524286Y-128097143D01*
X154476667Y-128144762D01*
X154381429Y-128192381D01*
X154000476Y-128192381D01*
X154000476Y-127192381D01*
X154333810Y-127192381D01*
X154429048Y-127240000D01*
X154476667Y-127287619D01*
X154524286Y-127382857D01*
X154524286Y-127478095D01*
X154476667Y-127573333D01*
X154429048Y-127620952D01*
X154333810Y-127668571D01*
X154000476Y-127668571D01*
X155000476Y-127192381D02*
X155000476Y-128001905D01*
X155048095Y-128097143D01*
X155095714Y-128144762D01*
X155190952Y-128192381D01*
X155381429Y-128192381D01*
X155476667Y-128144762D01*
X155524286Y-128097143D01*
X155571905Y-128001905D01*
X155571905Y-127192381D01*
X156381429Y-127668571D02*
X156048095Y-127668571D01*
X156048095Y-128192381D02*
X156048095Y-127192381D01*
X156524286Y-127192381D01*
X156905238Y-128192381D02*
X156905238Y-127192381D01*
X156905238Y-127668571D02*
X157476667Y-127668571D01*
X157476667Y-128192381D02*
X157476667Y-127192381D01*
X153474762Y-113506667D02*
X153950953Y-113506667D01*
X153379524Y-113792381D02*
X153712857Y-112792381D01*
X154046191Y-113792381D01*
X154712858Y-113268571D02*
X154855715Y-113316190D01*
X154903334Y-113363810D01*
X154950953Y-113459048D01*
X154950953Y-113601905D01*
X154903334Y-113697143D01*
X154855715Y-113744762D01*
X154760477Y-113792381D01*
X154379524Y-113792381D01*
X154379524Y-112792381D01*
X154712858Y-112792381D01*
X154808096Y-112840000D01*
X154855715Y-112887619D01*
X154903334Y-112982857D01*
X154903334Y-113078095D01*
X154855715Y-113173333D01*
X154808096Y-113220952D01*
X154712858Y-113268571D01*
X154379524Y-113268571D01*
X155379524Y-112792381D02*
X155379524Y-113601905D01*
X155427143Y-113697143D01*
X155474762Y-113744762D01*
X155570000Y-113792381D01*
X155760477Y-113792381D01*
X155855715Y-113744762D01*
X155903334Y-113697143D01*
X155950953Y-113601905D01*
X155950953Y-112792381D01*
X156760477Y-113268571D02*
X156427143Y-113268571D01*
X156427143Y-113792381D02*
X156427143Y-112792381D01*
X156903334Y-112792381D01*
X157760477Y-113792381D02*
X157284286Y-113792381D01*
X157284286Y-112792381D01*
X168947143Y-83150476D02*
X168994762Y-83198095D01*
X169042381Y-83340952D01*
X169042381Y-83436190D01*
X168994762Y-83579048D01*
X168899524Y-83674286D01*
X168804286Y-83721905D01*
X168613810Y-83769524D01*
X168470952Y-83769524D01*
X168280476Y-83721905D01*
X168185238Y-83674286D01*
X168090000Y-83579048D01*
X168042381Y-83436190D01*
X168042381Y-83340952D01*
X168090000Y-83198095D01*
X168137619Y-83150476D01*
X169042381Y-82721905D02*
X168042381Y-82721905D01*
X168042381Y-82340952D01*
X168090000Y-82245714D01*
X168137619Y-82198095D01*
X168232857Y-82150476D01*
X168375714Y-82150476D01*
X168470952Y-82198095D01*
X168518571Y-82245714D01*
X168566190Y-82340952D01*
X168566190Y-82721905D01*
X168042381Y-81721905D02*
X168851905Y-81721905D01*
X168947143Y-81674286D01*
X168994762Y-81626667D01*
X169042381Y-81531429D01*
X169042381Y-81340952D01*
X168994762Y-81245714D01*
X168947143Y-81198095D01*
X168851905Y-81150476D01*
X168042381Y-81150476D01*
X169042381Y-80150476D02*
X169042381Y-80721905D01*
X169042381Y-80436191D02*
X168042381Y-80436191D01*
X168185238Y-80531429D01*
X168280476Y-80626667D01*
X168328095Y-80721905D01*
X172343334Y-98297143D02*
X172295715Y-98344762D01*
X172152858Y-98392381D01*
X172057620Y-98392381D01*
X171914762Y-98344762D01*
X171819524Y-98249524D01*
X171771905Y-98154286D01*
X171724286Y-97963810D01*
X171724286Y-97820952D01*
X171771905Y-97630476D01*
X171819524Y-97535238D01*
X171914762Y-97440000D01*
X172057620Y-97392381D01*
X172152858Y-97392381D01*
X172295715Y-97440000D01*
X172343334Y-97487619D01*
X173295715Y-98392381D02*
X172724286Y-98392381D01*
X173010000Y-98392381D02*
X173010000Y-97392381D01*
X172914762Y-97535238D01*
X172819524Y-97630476D01*
X172724286Y-97678095D01*
X156433334Y-98787143D02*
X156385715Y-98834762D01*
X156242858Y-98882381D01*
X156147620Y-98882381D01*
X156004762Y-98834762D01*
X155909524Y-98739524D01*
X155861905Y-98644286D01*
X155814286Y-98453810D01*
X155814286Y-98310952D01*
X155861905Y-98120476D01*
X155909524Y-98025238D01*
X156004762Y-97930000D01*
X156147620Y-97882381D01*
X156242858Y-97882381D01*
X156385715Y-97930000D01*
X156433334Y-97977619D01*
X156814286Y-97977619D02*
X156861905Y-97930000D01*
X156957143Y-97882381D01*
X157195239Y-97882381D01*
X157290477Y-97930000D01*
X157338096Y-97977619D01*
X157385715Y-98072857D01*
X157385715Y-98168095D01*
X157338096Y-98310952D01*
X156766667Y-98882381D01*
X157385715Y-98882381D01*
X155383334Y-87237143D02*
X155335715Y-87284762D01*
X155192858Y-87332381D01*
X155097620Y-87332381D01*
X154954762Y-87284762D01*
X154859524Y-87189524D01*
X154811905Y-87094286D01*
X154764286Y-86903810D01*
X154764286Y-86760952D01*
X154811905Y-86570476D01*
X154859524Y-86475238D01*
X154954762Y-86380000D01*
X155097620Y-86332381D01*
X155192858Y-86332381D01*
X155335715Y-86380000D01*
X155383334Y-86427619D01*
X155716667Y-86332381D02*
X156335715Y-86332381D01*
X156002381Y-86713333D01*
X156145239Y-86713333D01*
X156240477Y-86760952D01*
X156288096Y-86808571D01*
X156335715Y-86903810D01*
X156335715Y-87141905D01*
X156288096Y-87237143D01*
X156240477Y-87284762D01*
X156145239Y-87332381D01*
X155859524Y-87332381D01*
X155764286Y-87284762D01*
X155716667Y-87237143D01*
X155233334Y-102737143D02*
X155185715Y-102784762D01*
X155042858Y-102832381D01*
X154947620Y-102832381D01*
X154804762Y-102784762D01*
X154709524Y-102689524D01*
X154661905Y-102594286D01*
X154614286Y-102403810D01*
X154614286Y-102260952D01*
X154661905Y-102070476D01*
X154709524Y-101975238D01*
X154804762Y-101880000D01*
X154947620Y-101832381D01*
X155042858Y-101832381D01*
X155185715Y-101880000D01*
X155233334Y-101927619D01*
X156138096Y-101832381D02*
X155661905Y-101832381D01*
X155614286Y-102308571D01*
X155661905Y-102260952D01*
X155757143Y-102213333D01*
X155995239Y-102213333D01*
X156090477Y-102260952D01*
X156138096Y-102308571D01*
X156185715Y-102403810D01*
X156185715Y-102641905D01*
X156138096Y-102737143D01*
X156090477Y-102784762D01*
X155995239Y-102832381D01*
X155757143Y-102832381D01*
X155661905Y-102784762D01*
X155614286Y-102737143D01*
X152927143Y-118356666D02*
X152974762Y-118404285D01*
X153022381Y-118547142D01*
X153022381Y-118642380D01*
X152974762Y-118785238D01*
X152879524Y-118880476D01*
X152784286Y-118928095D01*
X152593810Y-118975714D01*
X152450952Y-118975714D01*
X152260476Y-118928095D01*
X152165238Y-118880476D01*
X152070000Y-118785238D01*
X152022381Y-118642380D01*
X152022381Y-118547142D01*
X152070000Y-118404285D01*
X152117619Y-118356666D01*
X152022381Y-117499523D02*
X152022381Y-117690000D01*
X152070000Y-117785238D01*
X152117619Y-117832857D01*
X152260476Y-117928095D01*
X152450952Y-117975714D01*
X152831905Y-117975714D01*
X152927143Y-117928095D01*
X152974762Y-117880476D01*
X153022381Y-117785238D01*
X153022381Y-117594761D01*
X152974762Y-117499523D01*
X152927143Y-117451904D01*
X152831905Y-117404285D01*
X152593810Y-117404285D01*
X152498571Y-117451904D01*
X152450952Y-117499523D01*
X152403333Y-117594761D01*
X152403333Y-117785238D01*
X152450952Y-117880476D01*
X152498571Y-117928095D01*
X152593810Y-117975714D01*
X166373334Y-55937143D02*
X166325715Y-55984762D01*
X166182858Y-56032381D01*
X166087620Y-56032381D01*
X165944762Y-55984762D01*
X165849524Y-55889524D01*
X165801905Y-55794286D01*
X165754286Y-55603810D01*
X165754286Y-55460952D01*
X165801905Y-55270476D01*
X165849524Y-55175238D01*
X165944762Y-55080000D01*
X166087620Y-55032381D01*
X166182858Y-55032381D01*
X166325715Y-55080000D01*
X166373334Y-55127619D01*
X166706667Y-55032381D02*
X167373334Y-55032381D01*
X166944762Y-56032381D01*
X154837143Y-64586666D02*
X154884762Y-64634285D01*
X154932381Y-64777142D01*
X154932381Y-64872380D01*
X154884762Y-65015238D01*
X154789524Y-65110476D01*
X154694286Y-65158095D01*
X154503810Y-65205714D01*
X154360952Y-65205714D01*
X154170476Y-65158095D01*
X154075238Y-65110476D01*
X153980000Y-65015238D01*
X153932381Y-64872380D01*
X153932381Y-64777142D01*
X153980000Y-64634285D01*
X154027619Y-64586666D01*
X154360952Y-64015238D02*
X154313333Y-64110476D01*
X154265714Y-64158095D01*
X154170476Y-64205714D01*
X154122857Y-64205714D01*
X154027619Y-64158095D01*
X153980000Y-64110476D01*
X153932381Y-64015238D01*
X153932381Y-63824761D01*
X153980000Y-63729523D01*
X154027619Y-63681904D01*
X154122857Y-63634285D01*
X154170476Y-63634285D01*
X154265714Y-63681904D01*
X154313333Y-63729523D01*
X154360952Y-63824761D01*
X154360952Y-64015238D01*
X154408571Y-64110476D01*
X154456190Y-64158095D01*
X154551429Y-64205714D01*
X154741905Y-64205714D01*
X154837143Y-64158095D01*
X154884762Y-64110476D01*
X154932381Y-64015238D01*
X154932381Y-63824761D01*
X154884762Y-63729523D01*
X154837143Y-63681904D01*
X154741905Y-63634285D01*
X154551429Y-63634285D01*
X154456190Y-63681904D01*
X154408571Y-63729523D01*
X154360952Y-63824761D01*
X154907143Y-76248571D02*
X155240477Y-76248571D01*
X155383334Y-76772381D02*
X154907143Y-76772381D01*
X154907143Y-75772381D01*
X155383334Y-75772381D01*
X155716667Y-75772381D02*
X156383334Y-76772381D01*
X156383334Y-75772381D02*
X155716667Y-76772381D01*
X156621429Y-75772381D02*
X157192858Y-75772381D01*
X156907143Y-76772381D02*
X156907143Y-75772381D01*
X157526191Y-76772381D02*
X157526191Y-75772381D01*
X157907144Y-75772381D01*
X158002382Y-75820000D01*
X158050001Y-75867619D01*
X158097620Y-75962857D01*
X158097620Y-76105714D01*
X158050001Y-76200952D01*
X158002382Y-76248571D01*
X157907144Y-76296190D01*
X157526191Y-76296190D01*
X158430953Y-75772381D02*
X158669048Y-76772381D01*
X158859525Y-76058095D01*
X159050001Y-76772381D01*
X159288096Y-75772381D01*
X160240477Y-76772381D02*
X159907143Y-76296190D01*
X159669048Y-76772381D02*
X159669048Y-75772381D01*
X160050001Y-75772381D01*
X160145239Y-75820000D01*
X160192858Y-75867619D01*
X160240477Y-75962857D01*
X160240477Y-76105714D01*
X160192858Y-76200952D01*
X160145239Y-76248571D01*
X160050001Y-76296190D01*
X159669048Y-76296190D01*
X178047143Y-59832381D02*
X178047143Y-60546667D01*
X177999523Y-60689524D01*
X177904285Y-60784762D01*
X177761428Y-60832381D01*
X177666190Y-60832381D01*
X178380476Y-59832381D02*
X178951905Y-59832381D01*
X178666190Y-60832381D02*
X178666190Y-59832381D01*
X179237619Y-60546667D02*
X179713810Y-60546667D01*
X179142381Y-60832381D02*
X179475714Y-59832381D01*
X179809048Y-60832381D01*
X180666191Y-59880000D02*
X180570953Y-59832381D01*
X180428096Y-59832381D01*
X180285238Y-59880000D01*
X180190000Y-59975238D01*
X180142381Y-60070476D01*
X180094762Y-60260952D01*
X180094762Y-60403810D01*
X180142381Y-60594286D01*
X180190000Y-60689524D01*
X180285238Y-60784762D01*
X180428096Y-60832381D01*
X180523334Y-60832381D01*
X180666191Y-60784762D01*
X180713810Y-60737143D01*
X180713810Y-60403810D01*
X180523334Y-60403810D01*
X181666191Y-60832381D02*
X181094762Y-60832381D01*
X181380476Y-60832381D02*
X181380476Y-59832381D01*
X181285238Y-59975238D01*
X181190000Y-60070476D01*
X181094762Y-60118095D01*
X164573333Y-67682381D02*
X164573333Y-66682381D01*
X164954286Y-66682381D01*
X165049524Y-66730000D01*
X165097143Y-66777619D01*
X165144762Y-66872857D01*
X165144762Y-67015714D01*
X165097143Y-67110952D01*
X165049524Y-67158571D01*
X164954286Y-67206190D01*
X164573333Y-67206190D01*
X166049524Y-67682381D02*
X165573333Y-67682381D01*
X165573333Y-66682381D01*
X166382857Y-67682381D02*
X166382857Y-66682381D01*
X166620952Y-66682381D01*
X166763810Y-66730000D01*
X166859048Y-66825238D01*
X166906667Y-66920476D01*
X166954286Y-67110952D01*
X166954286Y-67253810D01*
X166906667Y-67444286D01*
X166859048Y-67539524D01*
X166763810Y-67634762D01*
X166620952Y-67682381D01*
X166382857Y-67682381D01*
X162120952Y-64682381D02*
X162787619Y-65682381D01*
X162787619Y-64682381D02*
X162120952Y-65682381D01*
X163740000Y-65587143D02*
X163692381Y-65634762D01*
X163549524Y-65682381D01*
X163454286Y-65682381D01*
X163311428Y-65634762D01*
X163216190Y-65539524D01*
X163168571Y-65444286D01*
X163120952Y-65253810D01*
X163120952Y-65110952D01*
X163168571Y-64920476D01*
X163216190Y-64825238D01*
X163311428Y-64730000D01*
X163454286Y-64682381D01*
X163549524Y-64682381D01*
X163692381Y-64730000D01*
X163740000Y-64777619D01*
X164216190Y-65682381D02*
X164406666Y-65682381D01*
X164501905Y-65634762D01*
X164549524Y-65587143D01*
X164644762Y-65444286D01*
X164692381Y-65253810D01*
X164692381Y-64872857D01*
X164644762Y-64777619D01*
X164597143Y-64730000D01*
X164501905Y-64682381D01*
X164311428Y-64682381D01*
X164216190Y-64730000D01*
X164168571Y-64777619D01*
X164120952Y-64872857D01*
X164120952Y-65110952D01*
X164168571Y-65206190D01*
X164216190Y-65253810D01*
X164311428Y-65301429D01*
X164501905Y-65301429D01*
X164597143Y-65253810D01*
X164644762Y-65206190D01*
X164692381Y-65110952D01*
X165597143Y-64682381D02*
X165120952Y-64682381D01*
X165073333Y-65158571D01*
X165120952Y-65110952D01*
X165216190Y-65063333D01*
X165454286Y-65063333D01*
X165549524Y-65110952D01*
X165597143Y-65158571D01*
X165644762Y-65253810D01*
X165644762Y-65491905D01*
X165597143Y-65587143D01*
X165549524Y-65634762D01*
X165454286Y-65682381D01*
X165216190Y-65682381D01*
X165120952Y-65634762D01*
X165073333Y-65587143D01*
X165978095Y-64682381D02*
X166644762Y-64682381D01*
X166216190Y-65682381D01*
X166978095Y-64777619D02*
X167025714Y-64730000D01*
X167120952Y-64682381D01*
X167359048Y-64682381D01*
X167454286Y-64730000D01*
X167501905Y-64777619D01*
X167549524Y-64872857D01*
X167549524Y-64968095D01*
X167501905Y-65110952D01*
X166930476Y-65682381D01*
X167549524Y-65682381D01*
X167882857Y-64682381D02*
X168549524Y-65682381D01*
X168549524Y-64682381D02*
X167882857Y-65682381D01*
X169406667Y-65682381D02*
X168930476Y-65682381D01*
X168930476Y-64682381D01*
X159192381Y-93379057D02*
X158716190Y-93712391D01*
X159192381Y-93950486D02*
X158192381Y-93950486D01*
X158192381Y-93569533D01*
X158240000Y-93474295D01*
X158287619Y-93426676D01*
X158382857Y-93379057D01*
X158525714Y-93379057D01*
X158620952Y-93426676D01*
X158668571Y-93474295D01*
X158716190Y-93569533D01*
X158716190Y-93950486D01*
X158668571Y-92950486D02*
X158668571Y-92617152D01*
X159192381Y-92474295D02*
X159192381Y-92950486D01*
X158192381Y-92950486D01*
X158192381Y-92474295D01*
X158240000Y-91521914D02*
X158192381Y-91617152D01*
X158192381Y-91760009D01*
X158240000Y-91902867D01*
X158335238Y-91998105D01*
X158430476Y-92045724D01*
X158620952Y-92093343D01*
X158763810Y-92093343D01*
X158954286Y-92045724D01*
X159049524Y-91998105D01*
X159144762Y-91902867D01*
X159192381Y-91760009D01*
X159192381Y-91664771D01*
X159144762Y-91521914D01*
X159097143Y-91474295D01*
X158763810Y-91474295D01*
X158763810Y-91664771D01*
X146761905Y-76507143D02*
X146714286Y-76554762D01*
X146571429Y-76602381D01*
X146476191Y-76602381D01*
X146333333Y-76554762D01*
X146238095Y-76459524D01*
X146190476Y-76364286D01*
X146142857Y-76173810D01*
X146142857Y-76030952D01*
X146190476Y-75840476D01*
X146238095Y-75745238D01*
X146333333Y-75650000D01*
X146476191Y-75602381D01*
X146571429Y-75602381D01*
X146714286Y-75650000D01*
X146761905Y-75697619D01*
X147380952Y-75602381D02*
X147571429Y-75602381D01*
X147666667Y-75650000D01*
X147761905Y-75745238D01*
X147809524Y-75935714D01*
X147809524Y-76269048D01*
X147761905Y-76459524D01*
X147666667Y-76554762D01*
X147571429Y-76602381D01*
X147380952Y-76602381D01*
X147285714Y-76554762D01*
X147190476Y-76459524D01*
X147142857Y-76269048D01*
X147142857Y-75935714D01*
X147190476Y-75745238D01*
X147285714Y-75650000D01*
X147380952Y-75602381D01*
X148238095Y-76602381D02*
X148238095Y-75602381D01*
X148809524Y-76602381D01*
X148809524Y-75602381D01*
X166892381Y-75873333D02*
X167606667Y-75873333D01*
X167749524Y-75920953D01*
X167844762Y-76016191D01*
X167892381Y-76159048D01*
X167892381Y-76254286D01*
X167892381Y-75397143D02*
X166892381Y-75397143D01*
X166892381Y-75016190D01*
X166940000Y-74920952D01*
X166987619Y-74873333D01*
X167082857Y-74825714D01*
X167225714Y-74825714D01*
X167320952Y-74873333D01*
X167368571Y-74920952D01*
X167416190Y-75016190D01*
X167416190Y-75397143D01*
X167892381Y-73873333D02*
X167892381Y-74444762D01*
X167892381Y-74159048D02*
X166892381Y-74159048D01*
X167035238Y-74254286D01*
X167130476Y-74349524D01*
X167178095Y-74444762D01*
X172273334Y-90832381D02*
X171940000Y-90356190D01*
X171701905Y-90832381D02*
X171701905Y-89832381D01*
X172082858Y-89832381D01*
X172178096Y-89880000D01*
X172225715Y-89927619D01*
X172273334Y-90022857D01*
X172273334Y-90165714D01*
X172225715Y-90260952D01*
X172178096Y-90308571D01*
X172082858Y-90356190D01*
X171701905Y-90356190D01*
X173225715Y-90832381D02*
X172654286Y-90832381D01*
X172940000Y-90832381D02*
X172940000Y-89832381D01*
X172844762Y-89975238D01*
X172749524Y-90070476D01*
X172654286Y-90118095D01*
X163182381Y-57845714D02*
X162182381Y-57845714D01*
X162896667Y-57512380D01*
X162182381Y-57179047D01*
X163182381Y-57179047D01*
X163182381Y-56179047D02*
X163182381Y-56750476D01*
X163182381Y-56464762D02*
X162182381Y-56464762D01*
X162325238Y-56560000D01*
X162420476Y-56655238D01*
X162468095Y-56750476D01*
X162182381Y-55321904D02*
X162182381Y-55512381D01*
X162230000Y-55607619D01*
X162277619Y-55655238D01*
X162420476Y-55750476D01*
X162610952Y-55798095D01*
X162991905Y-55798095D01*
X163087143Y-55750476D01*
X163134762Y-55702857D01*
X163182381Y-55607619D01*
X163182381Y-55417142D01*
X163134762Y-55321904D01*
X163087143Y-55274285D01*
X162991905Y-55226666D01*
X162753810Y-55226666D01*
X162658571Y-55274285D01*
X162610952Y-55321904D01*
X162563333Y-55417142D01*
X162563333Y-55607619D01*
X162610952Y-55702857D01*
X162658571Y-55750476D01*
X162753810Y-55798095D01*
X154072381Y-115246666D02*
X153596190Y-115580000D01*
X154072381Y-115818095D02*
X153072381Y-115818095D01*
X153072381Y-115437142D01*
X153120000Y-115341904D01*
X153167619Y-115294285D01*
X153262857Y-115246666D01*
X153405714Y-115246666D01*
X153500952Y-115294285D01*
X153548571Y-115341904D01*
X153596190Y-115437142D01*
X153596190Y-115818095D01*
X153072381Y-114913333D02*
X153072381Y-114294285D01*
X153453333Y-114627619D01*
X153453333Y-114484761D01*
X153500952Y-114389523D01*
X153548571Y-114341904D01*
X153643810Y-114294285D01*
X153881905Y-114294285D01*
X153977143Y-114341904D01*
X154024762Y-114389523D01*
X154072381Y-114484761D01*
X154072381Y-114770476D01*
X154024762Y-114865714D01*
X153977143Y-114913333D01*
X150413334Y-63772381D02*
X150080000Y-63296190D01*
X149841905Y-63772381D02*
X149841905Y-62772381D01*
X150222858Y-62772381D01*
X150318096Y-62820000D01*
X150365715Y-62867619D01*
X150413334Y-62962857D01*
X150413334Y-63105714D01*
X150365715Y-63200952D01*
X150318096Y-63248571D01*
X150222858Y-63296190D01*
X149841905Y-63296190D01*
X151270477Y-63105714D02*
X151270477Y-63772381D01*
X151032381Y-62724762D02*
X150794286Y-63439048D01*
X151413334Y-63439048D01*
X149822381Y-68716666D02*
X149346190Y-69050000D01*
X149822381Y-69288095D02*
X148822381Y-69288095D01*
X148822381Y-68907142D01*
X148870000Y-68811904D01*
X148917619Y-68764285D01*
X149012857Y-68716666D01*
X149155714Y-68716666D01*
X149250952Y-68764285D01*
X149298571Y-68811904D01*
X149346190Y-68907142D01*
X149346190Y-69288095D01*
X148822381Y-67811904D02*
X148822381Y-68288095D01*
X149298571Y-68335714D01*
X149250952Y-68288095D01*
X149203333Y-68192857D01*
X149203333Y-67954761D01*
X149250952Y-67859523D01*
X149298571Y-67811904D01*
X149393810Y-67764285D01*
X149631905Y-67764285D01*
X149727143Y-67811904D01*
X149774762Y-67859523D01*
X149822381Y-67954761D01*
X149822381Y-68192857D01*
X149774762Y-68288095D01*
X149727143Y-68335714D01*
X155332381Y-68696666D02*
X154856190Y-69030000D01*
X155332381Y-69268095D02*
X154332381Y-69268095D01*
X154332381Y-68887142D01*
X154380000Y-68791904D01*
X154427619Y-68744285D01*
X154522857Y-68696666D01*
X154665714Y-68696666D01*
X154760952Y-68744285D01*
X154808571Y-68791904D01*
X154856190Y-68887142D01*
X154856190Y-69268095D01*
X154332381Y-67839523D02*
X154332381Y-68030000D01*
X154380000Y-68125238D01*
X154427619Y-68172857D01*
X154570476Y-68268095D01*
X154760952Y-68315714D01*
X155141905Y-68315714D01*
X155237143Y-68268095D01*
X155284762Y-68220476D01*
X155332381Y-68125238D01*
X155332381Y-67934761D01*
X155284762Y-67839523D01*
X155237143Y-67791904D01*
X155141905Y-67744285D01*
X154903810Y-67744285D01*
X154808571Y-67791904D01*
X154760952Y-67839523D01*
X154713333Y-67934761D01*
X154713333Y-68125238D01*
X154760952Y-68220476D01*
X154808571Y-68268095D01*
X154903810Y-68315714D01*
M02*
