M48
;DRILL file {KiCad 4.0.6} date Saturday, October 28, 2017 'PMt' 04:50:49 PM
;FORMAT={-:-/ absolute / inch / decimal}
FMAT,2
INCH,TZ
T1C0.013
T2C0.025
T3C0.031
T4C0.039
%
G90
G05
M72
T1
X5.6957Y-2.185
X5.7047Y-5.0413
X5.7717Y-2.9512
X5.8362Y-2.9516
X5.9008Y-2.861
X6.0051Y-4.4516
X6.0472Y-4.9677
X6.0488Y-2.9748
X6.0496Y-3.6736
X6.0646Y-4.7134
X6.0665Y-3.9535
X6.0673Y-4.1701
X6.0768Y-2.4811
X6.1039Y-4.2193
X6.1126Y-2.5906
X6.1236Y-3.7685
X6.1594Y-2.4067
X6.1594Y-4.2756
X6.1622Y-2.3441
X6.1637Y-3.9581
X6.1747Y-4.2126
X6.1827Y-3.5299
X6.1858Y-2.8346
X6.2071Y-2.4976
X6.2311Y-3.8685
X6.2753Y-4.9055
X6.2843Y-5.0102
X6.2882Y-4.9579
X6.3087Y-2.4016
X6.361Y-2.7335
X6.3752Y-2.4429
X6.4181Y-3.1409
X6.4181Y-3.2382
X6.4197Y-3.339
X6.4197Y-3.4406
X6.5335Y-2.598
X6.5882Y-2.2969
X6.6119Y-5.0243
X6.6409Y-3.8906
X6.6457Y-3.9921
X6.6484Y-4.0882
X6.6484Y-4.1874
X6.6484Y-4.2898
X6.6484Y-4.3949
X6.6484Y-4.4972
X6.6634Y-2.7736
X6.6854Y-3.5429
X6.6854Y-4.9398
X6.6874Y-2.4417
X6.7524Y-2.8547
X6.7524Y-3.3866
X6.7748Y-3.5764
X6.7787Y-4.8898
X6.7863Y-2.3382
X6.837Y-3.3677
X6.8685Y-3.2602
X6.8925Y-2.3854
X7.1189Y-2.3819
X7.2961Y-2.1866
T2
X6.1004Y-3.1661
T3
X6.3476Y-3.0898
X6.3476Y-3.1898
X6.3476Y-3.2898
X6.3476Y-3.3898
X6.3476Y-3.4898
X6.3476Y-3.5898
X6.3476Y-3.6898
X6.3476Y-3.7898
X6.3476Y-3.8898
X6.3476Y-3.9898
X6.3476Y-4.0898
X6.3476Y-4.1898
X6.3476Y-4.2898
X6.3476Y-4.3898
X6.3476Y-4.4898
X6.3476Y-4.5898
X6.3476Y-4.6898
X6.3476Y-4.7898
X6.3476Y-4.8898
X6.3476Y-4.9898
X6.5476Y-3.0898
X6.5476Y-3.1898
X6.5476Y-3.2898
X6.5476Y-3.3898
X6.5476Y-3.4898
X6.5476Y-3.5898
X6.5476Y-3.6898
X6.5476Y-3.7898
X6.5476Y-3.8898
X6.5476Y-3.9898
X6.5476Y-4.0898
X6.5476Y-4.1898
X6.5476Y-4.2898
X6.5476Y-4.3898
X6.5476Y-4.4898
X6.5476Y-4.5898
X6.5476Y-4.6898
X6.5476Y-4.7898
X6.5476Y-4.8898
X6.5476Y-4.9898
X6.9476Y-3.0898
X6.9476Y-3.1898
X6.9476Y-3.2898
X6.9476Y-3.3898
X6.9476Y-3.4898
X6.9476Y-3.5898
X6.9476Y-3.6898
X6.9476Y-3.7898
X6.9476Y-3.8898
X6.9476Y-3.9898
X6.9476Y-4.0898
X6.9476Y-4.1898
X6.9476Y-4.2898
X6.9476Y-4.3898
X6.9476Y-4.4898
X6.9476Y-4.5898
X6.9476Y-4.6898
X6.9476Y-4.7898
X6.9476Y-4.8898
X6.9476Y-4.9898
X7.1476Y-3.0898
X7.1476Y-3.1898
X7.1476Y-3.2898
X7.1476Y-3.3898
X7.1476Y-3.4898
X7.1476Y-3.5898
X7.1476Y-3.6898
X7.1476Y-3.7898
X7.1476Y-3.8898
X7.1476Y-3.9898
X7.1476Y-4.0898
X7.1476Y-4.1898
X7.1476Y-4.2898
X7.1476Y-4.3898
X7.1476Y-4.4898
X7.1476Y-4.5898
X7.1476Y-4.6898
X7.1476Y-4.7898
X7.1476Y-4.8898
X7.1476Y-4.9898
T4
X5.7571Y-3.0898
X5.7571Y-3.1898
X5.7571Y-3.2898
X5.7571Y-3.3898
X5.7571Y-3.4898
X5.7571Y-3.5898
X5.7571Y-3.6898
X5.7571Y-3.7898
X5.7571Y-3.8898
X5.7571Y-3.9898
X5.7571Y-4.0898
X5.7571Y-4.1898
X5.7571Y-4.2898
X5.7571Y-4.3898
X5.7571Y-4.4898
X5.7571Y-4.5898
X5.7571Y-4.6898
X5.7571Y-4.7898
X5.7571Y-4.8898
X5.7571Y-4.9898
X5.8571Y-3.0898
X5.8571Y-3.1898
X5.8571Y-3.2898
X5.8571Y-3.3898
X5.8571Y-3.4898
X5.8571Y-3.5898
X5.8571Y-3.6898
X5.8571Y-3.7898
X5.8571Y-3.8898
X5.8571Y-3.9898
X5.8571Y-4.0898
X5.8571Y-4.1898
X5.8571Y-4.2898
X5.8571Y-4.3898
X5.8571Y-4.4898
X5.8571Y-4.5898
X5.8571Y-4.6898
X5.8571Y-4.7898
X5.8571Y-4.8898
X5.8571Y-4.9898
X6.2028Y-3.0965
X6.2028Y-3.1965
X6.2028Y-3.2965
X6.215Y-2.2268
X6.315Y-2.2268
X6.4004Y-2.9543
X6.5004Y-2.9543
X7.0244Y-2.4689
X7.0244Y-2.5689
X7.0244Y-2.6689
X7.0244Y-2.7689
X7.0244Y-2.8689
X7.1244Y-2.4689
X7.1244Y-2.5689
X7.1244Y-2.6689
X7.1244Y-2.7689
X7.1244Y-2.8689
T0
M30
