G04 #@! TF.FileFunction,Soldermask,Bot*
%FSLAX46Y46*%
G04 Gerber Fmt 4.6, Leading zero omitted, Abs format (unit mm)*
G04 Created by KiCad (PCBNEW 4.0.6) date Saturday, October 28, 2017 'PMt' 04:50:48 PM*
%MOMM*%
%LPD*%
G01*
G04 APERTURE LIST*
%ADD10C,0.100000*%
%ADD11R,1.600000X1.600000*%
%ADD12O,1.600000X1.600000*%
%ADD13R,1.000000X0.400000*%
%ADD14R,1.500000X1.250000*%
%ADD15R,1.700000X1.700000*%
%ADD16O,1.700000X1.700000*%
%ADD17R,1.500000X1.300000*%
G04 APERTURE END LIST*
D10*
D11*
X166310000Y-78480000D03*
D12*
X181550000Y-126740000D03*
X166310000Y-81020000D03*
X181550000Y-124200000D03*
X166310000Y-83560000D03*
X181550000Y-121660000D03*
X166310000Y-86100000D03*
X181550000Y-119120000D03*
X166310000Y-88640000D03*
X181550000Y-116580000D03*
X166310000Y-91180000D03*
X181550000Y-114040000D03*
X166310000Y-93720000D03*
X181550000Y-111500000D03*
X166310000Y-96260000D03*
X181550000Y-108960000D03*
X166310000Y-98800000D03*
X181550000Y-106420000D03*
X166310000Y-101340000D03*
X181550000Y-103880000D03*
X166310000Y-103880000D03*
X181550000Y-101340000D03*
X166310000Y-106420000D03*
X181550000Y-98800000D03*
X166310000Y-108960000D03*
X181550000Y-96260000D03*
X166310000Y-111500000D03*
X181550000Y-93720000D03*
X166310000Y-114040000D03*
X181550000Y-91180000D03*
X166310000Y-116580000D03*
X181550000Y-88640000D03*
X166310000Y-119120000D03*
X181550000Y-86100000D03*
X166310000Y-121660000D03*
X181550000Y-83560000D03*
X166310000Y-124200000D03*
X181550000Y-81020000D03*
X166310000Y-126740000D03*
X181550000Y-78480000D03*
D11*
X161230000Y-78480000D03*
D12*
X176470000Y-126740000D03*
X161230000Y-81020000D03*
X176470000Y-124200000D03*
X161230000Y-83560000D03*
X176470000Y-121660000D03*
X161230000Y-86100000D03*
X176470000Y-119120000D03*
X161230000Y-88640000D03*
X176470000Y-116580000D03*
X161230000Y-91180000D03*
X176470000Y-114040000D03*
X161230000Y-93720000D03*
X176470000Y-111500000D03*
X161230000Y-96260000D03*
X176470000Y-108960000D03*
X161230000Y-98800000D03*
X176470000Y-106420000D03*
X161230000Y-101340000D03*
X176470000Y-103880000D03*
X161230000Y-103880000D03*
X176470000Y-101340000D03*
X161230000Y-106420000D03*
X176470000Y-98800000D03*
X161230000Y-108960000D03*
X176470000Y-96260000D03*
X161230000Y-111500000D03*
X176470000Y-93720000D03*
X161230000Y-114040000D03*
X176470000Y-91180000D03*
X161230000Y-116580000D03*
X176470000Y-88640000D03*
X161230000Y-119120000D03*
X176470000Y-86100000D03*
X161230000Y-121660000D03*
X176470000Y-83560000D03*
X161230000Y-124200000D03*
X176470000Y-81020000D03*
X161230000Y-126740000D03*
X176470000Y-78480000D03*
D13*
X152550000Y-107010000D03*
X152550000Y-106360000D03*
X152550000Y-105710000D03*
X152550000Y-105060000D03*
X152550000Y-104410000D03*
X152550000Y-103760000D03*
X152550000Y-103110000D03*
X152550000Y-102460000D03*
X152550000Y-101810000D03*
X152550000Y-101160000D03*
X158350000Y-101160000D03*
X158350000Y-101810000D03*
X158350000Y-102460000D03*
X158350000Y-103110000D03*
X158350000Y-103760000D03*
X158350000Y-104410000D03*
X158350000Y-105060000D03*
X158350000Y-105710000D03*
X158350000Y-106360000D03*
X158350000Y-107010000D03*
D14*
X154140000Y-99200000D03*
X156640000Y-99200000D03*
D15*
X157550000Y-78650000D03*
D16*
X157550000Y-81190000D03*
X157550000Y-83730000D03*
D15*
X178420000Y-62710000D03*
D16*
X180960000Y-62710000D03*
X178420000Y-65250000D03*
X180960000Y-65250000D03*
X178420000Y-67790000D03*
X180960000Y-67790000D03*
X178420000Y-70330000D03*
X180960000Y-70330000D03*
X178420000Y-72870000D03*
X180960000Y-72870000D03*
D15*
X146230000Y-78480000D03*
D16*
X148770000Y-78480000D03*
X146230000Y-81020000D03*
X148770000Y-81020000D03*
X146230000Y-83560000D03*
X148770000Y-83560000D03*
X146230000Y-86100000D03*
X148770000Y-86100000D03*
X146230000Y-88640000D03*
X148770000Y-88640000D03*
X146230000Y-91180000D03*
X148770000Y-91180000D03*
X146230000Y-93720000D03*
X148770000Y-93720000D03*
X146230000Y-96260000D03*
X148770000Y-96260000D03*
X146230000Y-98800000D03*
X148770000Y-98800000D03*
X146230000Y-101340000D03*
X148770000Y-101340000D03*
X146230000Y-103880000D03*
X148770000Y-103880000D03*
X146230000Y-106420000D03*
X148770000Y-106420000D03*
X146230000Y-108960000D03*
X148770000Y-108960000D03*
X146230000Y-111500000D03*
X148770000Y-111500000D03*
X146230000Y-114040000D03*
X148770000Y-114040000D03*
X146230000Y-116580000D03*
X148770000Y-116580000D03*
X146230000Y-119120000D03*
X148770000Y-119120000D03*
X146230000Y-121660000D03*
X148770000Y-121660000D03*
X146230000Y-124200000D03*
X148770000Y-124200000D03*
X146230000Y-126740000D03*
X148770000Y-126740000D03*
D15*
X165110000Y-75040000D03*
D16*
X162570000Y-75040000D03*
D15*
X160400000Y-56560000D03*
D16*
X157860000Y-56560000D03*
D17*
X154230000Y-110520000D03*
X156930000Y-110520000D03*
M02*
