M48
;DRILL file {KiCad 4.0.6} date Saturday, October 28, 2017 'PMt' 04:53:41 PM
;FORMAT={-:-/ absolute / inch / decimal}
FMAT,2
INCH,TZ
T1C0.013
T2C0.030
T3C0.039
T4C0.040
%
G90
G05
M72
T1
X5.6173Y-3.1264
T2
X4.2614Y-2.4201
X4.2614Y-2.5201
X4.2614Y-2.6201
X4.2614Y-2.7201
X4.2614Y-2.8201
X4.2614Y-2.9201
X4.2614Y-3.0201
X4.2614Y-3.1201
X4.2614Y-3.2201
X4.2614Y-3.3201
X4.2614Y-3.4201
X4.2614Y-3.5201
X4.2614Y-3.6201
X4.2614Y-3.7201
X4.2614Y-3.8201
X4.2614Y-3.9201
X4.2614Y-4.0201
X4.2614Y-4.1201
X4.2614Y-4.2201
X4.2614Y-4.3201
X4.2614Y-4.4201
X4.2614Y-4.5201
X4.2614Y-4.6201
X4.2614Y-4.7201
X4.3614Y-2.4201
X4.3614Y-2.5201
X4.3614Y-2.6201
X4.3614Y-2.7201
X4.3614Y-2.8201
X4.3614Y-2.9201
X4.3614Y-3.0201
X4.3614Y-3.1201
X4.3614Y-3.2201
X4.3614Y-3.3201
X4.3614Y-3.4201
X4.3614Y-3.5201
X4.3614Y-3.6201
X4.3614Y-3.7201
X4.3614Y-3.8201
X4.3614Y-3.9201
X4.3614Y-4.0201
X4.3614Y-4.1201
X4.3614Y-4.2201
X4.3614Y-4.3201
X4.3614Y-4.4201
X4.3614Y-4.5201
X4.3614Y-4.6201
X4.3614Y-4.7201
X6.0614Y-2.4201
X6.0614Y-2.5201
X6.0614Y-2.6201
X6.0614Y-2.7201
X6.0614Y-2.8201
X6.0614Y-2.9201
X6.0614Y-3.0201
X6.0614Y-3.1201
X6.0614Y-3.2201
X6.0614Y-3.3201
X6.0614Y-3.4201
X6.0614Y-3.5201
X6.0614Y-3.6201
X6.0614Y-3.7201
X6.0614Y-3.8201
X6.0614Y-3.9201
X6.0614Y-4.0201
X6.0614Y-4.1201
X6.0614Y-4.2201
X6.0614Y-4.3201
X6.0614Y-4.4201
X6.0614Y-4.5201
X6.0614Y-4.6201
X6.0614Y-4.7201
X6.1614Y-2.4201
X6.1614Y-2.5201
X6.1614Y-2.6201
X6.1614Y-2.7201
X6.1614Y-2.8201
X6.1614Y-2.9201
X6.1614Y-3.0201
X6.1614Y-3.1201
X6.1614Y-3.2201
X6.1614Y-3.3201
X6.1614Y-3.4201
X6.1614Y-3.5201
X6.1614Y-3.6201
X6.1614Y-3.7201
X6.1614Y-3.8201
X6.1614Y-3.9201
X6.1614Y-4.0201
X6.1614Y-4.1201
X6.1614Y-4.2201
X6.1614Y-4.3201
X6.1614Y-4.4201
X6.1614Y-4.5201
X6.1614Y-4.6201
X6.1614Y-4.7201
T3
X4.0862Y-2.2602
X4.0862Y-2.3602
X4.0886Y-2.622
X4.0886Y-2.722
X4.0886Y-2.822
X4.0886Y-2.922
X4.0886Y-3.022
X4.0886Y-3.122
X4.0886Y-3.222
X4.0886Y-3.322
X4.0886Y-3.422
X4.0886Y-3.522
X4.0886Y-3.622
X4.0886Y-3.722
X4.0886Y-3.822
X4.0886Y-3.922
X5.7571Y-3.0898
X5.7571Y-3.1898
X5.7571Y-3.2898
X5.7571Y-3.3898
X5.7571Y-3.4898
X5.7571Y-3.5898
X5.7571Y-3.6898
X5.7571Y-3.7898
X5.7571Y-3.8898
X5.7571Y-3.9898
X5.7571Y-4.0898
X5.7571Y-4.1898
X5.7571Y-4.2898
X5.7571Y-4.3898
X5.7571Y-4.4898
X5.7571Y-4.5898
X5.7571Y-4.6898
X5.7571Y-4.7898
X5.7571Y-4.8898
X5.7571Y-4.9898
X5.8571Y-3.0898
X5.8571Y-3.1898
X5.8571Y-3.2898
X5.8571Y-3.3898
X5.8571Y-3.4898
X5.8571Y-3.5898
X5.8571Y-3.6898
X5.8571Y-3.7898
X5.8571Y-3.8898
X5.8571Y-3.9898
X5.8571Y-4.0898
X5.8571Y-4.1898
X5.8571Y-4.2898
X5.8571Y-4.3898
X5.8571Y-4.4898
X5.8571Y-4.5898
X5.8571Y-4.6898
X5.8571Y-4.7898
X5.8571Y-4.8898
X5.8571Y-4.9898
T4
X6.4071Y-2.6102
X6.4071Y-2.7102
X6.4071Y-2.8102
X6.4071Y-2.9102
X6.4071Y-3.0102
X6.4071Y-3.1102
X6.4071Y-3.2102
X6.4071Y-3.3102
X6.4071Y-3.4102
X6.4071Y-3.5102
X6.4071Y-3.6102
X6.4071Y-3.7102
X6.4071Y-3.8102
X6.4071Y-3.9102
X6.4071Y-4.0102
X6.4071Y-4.1102
X6.4071Y-4.2102
X6.4071Y-4.3102
X6.4071Y-4.4102
X6.4071Y-4.5102
X6.5071Y-2.6102
X6.5071Y-2.7102
X6.5071Y-2.8102
X6.5071Y-2.9102
X6.5071Y-3.0102
X6.5071Y-3.1102
X6.5071Y-3.2102
X6.5071Y-3.3102
X6.5071Y-3.4102
X6.5071Y-3.5102
X6.5071Y-3.6102
X6.5071Y-3.7102
X6.5071Y-3.8102
X6.5071Y-3.9102
X6.5071Y-4.0102
X6.5071Y-4.1102
X6.5071Y-4.2102
X6.5071Y-4.3102
X6.5071Y-4.4102
X6.5071Y-4.5102
T0
M30
