G04 #@! TF.FileFunction,Legend,Bot*
%FSLAX46Y46*%
G04 Gerber Fmt 4.6, Leading zero omitted, Abs format (unit mm)*
G04 Created by KiCad (PCBNEW 4.0.6) date Saturday, October 28, 2017 'PMt' 04:53:39 PM*
%MOMM*%
%LPD*%
G01*
G04 APERTURE LIST*
%ADD10C,0.100000*%
%ADD11C,0.300000*%
G04 APERTURE END LIST*
D10*
D11*
X174744286Y-56488571D02*
X174744286Y-57702857D01*
X174815715Y-57845714D01*
X174887143Y-57917143D01*
X175030000Y-57988571D01*
X175244286Y-57988571D01*
X175387143Y-57917143D01*
X174744286Y-57417143D02*
X174887143Y-57488571D01*
X175172857Y-57488571D01*
X175315715Y-57417143D01*
X175387143Y-57345714D01*
X175458572Y-57202857D01*
X175458572Y-56774286D01*
X175387143Y-56631429D01*
X175315715Y-56560000D01*
X175172857Y-56488571D01*
X174887143Y-56488571D01*
X174744286Y-56560000D01*
X174030000Y-57488571D02*
X174030000Y-56488571D01*
X174030000Y-55988571D02*
X174101429Y-56060000D01*
X174030000Y-56131429D01*
X173958572Y-56060000D01*
X174030000Y-55988571D01*
X174030000Y-56131429D01*
X173530000Y-56488571D02*
X172958571Y-56488571D01*
X173315714Y-55988571D02*
X173315714Y-57274286D01*
X173244286Y-57417143D01*
X173101428Y-57488571D01*
X172958571Y-57488571D01*
X172458571Y-57488571D02*
X172458571Y-55988571D01*
X171815714Y-57488571D02*
X171815714Y-56702857D01*
X171887143Y-56560000D01*
X172030000Y-56488571D01*
X172244285Y-56488571D01*
X172387143Y-56560000D01*
X172458571Y-56631429D01*
X170458571Y-56488571D02*
X170458571Y-57488571D01*
X171101428Y-56488571D02*
X171101428Y-57274286D01*
X171030000Y-57417143D01*
X170887142Y-57488571D01*
X170672857Y-57488571D01*
X170530000Y-57417143D01*
X170458571Y-57345714D01*
X169744285Y-57488571D02*
X169744285Y-55988571D01*
X169744285Y-56560000D02*
X169601428Y-56488571D01*
X169315714Y-56488571D01*
X169172857Y-56560000D01*
X169101428Y-56631429D01*
X169029999Y-56774286D01*
X169029999Y-57202857D01*
X169101428Y-57345714D01*
X169172857Y-57417143D01*
X169315714Y-57488571D01*
X169601428Y-57488571D01*
X169744285Y-57417143D01*
X168387142Y-57345714D02*
X168315714Y-57417143D01*
X168387142Y-57488571D01*
X168458571Y-57417143D01*
X168387142Y-57345714D01*
X168387142Y-57488571D01*
X167029999Y-57417143D02*
X167172856Y-57488571D01*
X167458570Y-57488571D01*
X167601428Y-57417143D01*
X167672856Y-57345714D01*
X167744285Y-57202857D01*
X167744285Y-56774286D01*
X167672856Y-56631429D01*
X167601428Y-56560000D01*
X167458570Y-56488571D01*
X167172856Y-56488571D01*
X167029999Y-56560000D01*
X166172856Y-57488571D02*
X166315714Y-57417143D01*
X166387142Y-57345714D01*
X166458571Y-57202857D01*
X166458571Y-56774286D01*
X166387142Y-56631429D01*
X166315714Y-56560000D01*
X166172856Y-56488571D01*
X165958571Y-56488571D01*
X165815714Y-56560000D01*
X165744285Y-56631429D01*
X165672856Y-56774286D01*
X165672856Y-57202857D01*
X165744285Y-57345714D01*
X165815714Y-57417143D01*
X165958571Y-57488571D01*
X166172856Y-57488571D01*
X165029999Y-57488571D02*
X165029999Y-56488571D01*
X165029999Y-56631429D02*
X164958571Y-56560000D01*
X164815713Y-56488571D01*
X164601428Y-56488571D01*
X164458571Y-56560000D01*
X164387142Y-56702857D01*
X164387142Y-57488571D01*
X164387142Y-56702857D02*
X164315713Y-56560000D01*
X164172856Y-56488571D01*
X163958571Y-56488571D01*
X163815713Y-56560000D01*
X163744285Y-56702857D01*
X163744285Y-57488571D01*
X161958571Y-55917143D02*
X163244285Y-57845714D01*
X160815713Y-56488571D02*
X160815713Y-57702857D01*
X160887142Y-57845714D01*
X160958570Y-57917143D01*
X161101427Y-57988571D01*
X161315713Y-57988571D01*
X161458570Y-57917143D01*
X160815713Y-57417143D02*
X160958570Y-57488571D01*
X161244284Y-57488571D01*
X161387142Y-57417143D01*
X161458570Y-57345714D01*
X161529999Y-57202857D01*
X161529999Y-56774286D01*
X161458570Y-56631429D01*
X161387142Y-56560000D01*
X161244284Y-56488571D01*
X160958570Y-56488571D01*
X160815713Y-56560000D01*
X159887141Y-57488571D02*
X160029999Y-57417143D01*
X160101427Y-57345714D01*
X160172856Y-57202857D01*
X160172856Y-56774286D01*
X160101427Y-56631429D01*
X160029999Y-56560000D01*
X159887141Y-56488571D01*
X159672856Y-56488571D01*
X159529999Y-56560000D01*
X159458570Y-56631429D01*
X159387141Y-56774286D01*
X159387141Y-57202857D01*
X159458570Y-57345714D01*
X159529999Y-57417143D01*
X159672856Y-57488571D01*
X159887141Y-57488571D01*
X158529998Y-57488571D02*
X158672856Y-57417143D01*
X158744284Y-57345714D01*
X158815713Y-57202857D01*
X158815713Y-56774286D01*
X158744284Y-56631429D01*
X158672856Y-56560000D01*
X158529998Y-56488571D01*
X158315713Y-56488571D01*
X158172856Y-56560000D01*
X158101427Y-56631429D01*
X158029998Y-56774286D01*
X158029998Y-57202857D01*
X158101427Y-57345714D01*
X158172856Y-57417143D01*
X158315713Y-57488571D01*
X158529998Y-57488571D01*
X156744284Y-56488571D02*
X156744284Y-57702857D01*
X156815713Y-57845714D01*
X156887141Y-57917143D01*
X157029998Y-57988571D01*
X157244284Y-57988571D01*
X157387141Y-57917143D01*
X156744284Y-57417143D02*
X156887141Y-57488571D01*
X157172855Y-57488571D01*
X157315713Y-57417143D01*
X157387141Y-57345714D01*
X157458570Y-57202857D01*
X157458570Y-56774286D01*
X157387141Y-56631429D01*
X157315713Y-56560000D01*
X157172855Y-56488571D01*
X156887141Y-56488571D01*
X156744284Y-56560000D01*
X155815712Y-57488571D02*
X155958570Y-57417143D01*
X156029998Y-57274286D01*
X156029998Y-55988571D01*
X154672856Y-57417143D02*
X154815713Y-57488571D01*
X155101427Y-57488571D01*
X155244284Y-57417143D01*
X155315713Y-57274286D01*
X155315713Y-56702857D01*
X155244284Y-56560000D01*
X155101427Y-56488571D01*
X154815713Y-56488571D01*
X154672856Y-56560000D01*
X154601427Y-56702857D01*
X154601427Y-56845714D01*
X155315713Y-56988571D01*
X152887142Y-55917143D02*
X154172856Y-57845714D01*
X152387141Y-57488571D02*
X152387141Y-56488571D01*
X152387141Y-56631429D02*
X152315713Y-56560000D01*
X152172855Y-56488571D01*
X151958570Y-56488571D01*
X151815713Y-56560000D01*
X151744284Y-56702857D01*
X151744284Y-57488571D01*
X151744284Y-56702857D02*
X151672855Y-56560000D01*
X151529998Y-56488571D01*
X151315713Y-56488571D01*
X151172855Y-56560000D01*
X151101427Y-56702857D01*
X151101427Y-57488571D01*
X150529998Y-56488571D02*
X150172855Y-57488571D01*
X149815713Y-56488571D02*
X150172855Y-57488571D01*
X150315713Y-57845714D01*
X150387141Y-57917143D01*
X150529998Y-57988571D01*
X148672856Y-57417143D02*
X148815713Y-57488571D01*
X149101427Y-57488571D01*
X149244284Y-57417143D01*
X149315713Y-57274286D01*
X149315713Y-56702857D01*
X149244284Y-56560000D01*
X149101427Y-56488571D01*
X148815713Y-56488571D01*
X148672856Y-56560000D01*
X148601427Y-56702857D01*
X148601427Y-56845714D01*
X149315713Y-56988571D01*
X147744284Y-57488571D02*
X147887142Y-57417143D01*
X147958570Y-57274286D01*
X147958570Y-55988571D01*
X147172856Y-57488571D02*
X147172856Y-56488571D01*
X147172856Y-55988571D02*
X147244285Y-56060000D01*
X147172856Y-56131429D01*
X147101428Y-56060000D01*
X147172856Y-55988571D01*
X147172856Y-56131429D01*
X146458570Y-56488571D02*
X146458570Y-57488571D01*
X146458570Y-56631429D02*
X146387142Y-56560000D01*
X146244284Y-56488571D01*
X146029999Y-56488571D01*
X145887142Y-56560000D01*
X145815713Y-56702857D01*
X145815713Y-57488571D01*
X145101427Y-56917143D02*
X143958570Y-56917143D01*
X142601427Y-57488571D02*
X142601427Y-56702857D01*
X142672856Y-56560000D01*
X142815713Y-56488571D01*
X143101427Y-56488571D01*
X143244284Y-56560000D01*
X142601427Y-57417143D02*
X142744284Y-57488571D01*
X143101427Y-57488571D01*
X143244284Y-57417143D01*
X143315713Y-57274286D01*
X143315713Y-57131429D01*
X143244284Y-56988571D01*
X143101427Y-56917143D01*
X142744284Y-56917143D01*
X142601427Y-56845714D01*
X141244284Y-57417143D02*
X141387141Y-57488571D01*
X141672855Y-57488571D01*
X141815713Y-57417143D01*
X141887141Y-57345714D01*
X141958570Y-57202857D01*
X141958570Y-56774286D01*
X141887141Y-56631429D01*
X141815713Y-56560000D01*
X141672855Y-56488571D01*
X141387141Y-56488571D01*
X141244284Y-56560000D01*
X140387141Y-57488571D02*
X140529999Y-57417143D01*
X140601427Y-57345714D01*
X140672856Y-57202857D01*
X140672856Y-56774286D01*
X140601427Y-56631429D01*
X140529999Y-56560000D01*
X140387141Y-56488571D01*
X140172856Y-56488571D01*
X140029999Y-56560000D01*
X139958570Y-56631429D01*
X139887141Y-56774286D01*
X139887141Y-57202857D01*
X139958570Y-57345714D01*
X140029999Y-57417143D01*
X140172856Y-57488571D01*
X140387141Y-57488571D01*
X139244284Y-57488571D02*
X139244284Y-56488571D01*
X139244284Y-56774286D02*
X139172856Y-56631429D01*
X139101427Y-56560000D01*
X138958570Y-56488571D01*
X138815713Y-56488571D01*
X138315713Y-56488571D02*
X138315713Y-57488571D01*
X138315713Y-56631429D02*
X138244285Y-56560000D01*
X138101427Y-56488571D01*
X137887142Y-56488571D01*
X137744285Y-56560000D01*
X137672856Y-56702857D01*
X137672856Y-57488571D01*
X136958570Y-56917143D02*
X135815713Y-56917143D01*
X134529999Y-57417143D02*
X134672856Y-57488571D01*
X134958570Y-57488571D01*
X135101427Y-57417143D01*
X135172856Y-57274286D01*
X135172856Y-56702857D01*
X135101427Y-56560000D01*
X134958570Y-56488571D01*
X134672856Y-56488571D01*
X134529999Y-56560000D01*
X134458570Y-56702857D01*
X134458570Y-56845714D01*
X135172856Y-56988571D01*
X133601427Y-57488571D02*
X133744285Y-57417143D01*
X133815713Y-57274286D01*
X133815713Y-55988571D01*
X132458571Y-57417143D02*
X132601428Y-57488571D01*
X132887142Y-57488571D01*
X133029999Y-57417143D01*
X133101428Y-57274286D01*
X133101428Y-56702857D01*
X133029999Y-56560000D01*
X132887142Y-56488571D01*
X132601428Y-56488571D01*
X132458571Y-56560000D01*
X132387142Y-56702857D01*
X132387142Y-56845714D01*
X133101428Y-56988571D01*
X131101428Y-57417143D02*
X131244285Y-57488571D01*
X131529999Y-57488571D01*
X131672857Y-57417143D01*
X131744285Y-57345714D01*
X131815714Y-57202857D01*
X131815714Y-56774286D01*
X131744285Y-56631429D01*
X131672857Y-56560000D01*
X131529999Y-56488571D01*
X131244285Y-56488571D01*
X131101428Y-56560000D01*
X130672857Y-56488571D02*
X130101428Y-56488571D01*
X130458571Y-55988571D02*
X130458571Y-57274286D01*
X130387143Y-57417143D01*
X130244285Y-57488571D01*
X130101428Y-57488571D01*
X129601428Y-57488571D02*
X129601428Y-56488571D01*
X129601428Y-56774286D02*
X129530000Y-56631429D01*
X129458571Y-56560000D01*
X129315714Y-56488571D01*
X129172857Y-56488571D01*
X128458571Y-57488571D02*
X128601429Y-57417143D01*
X128672857Y-57345714D01*
X128744286Y-57202857D01*
X128744286Y-56774286D01*
X128672857Y-56631429D01*
X128601429Y-56560000D01*
X128458571Y-56488571D01*
X128244286Y-56488571D01*
X128101429Y-56560000D01*
X128030000Y-56631429D01*
X127958571Y-56774286D01*
X127958571Y-57202857D01*
X128030000Y-57345714D01*
X128101429Y-57417143D01*
X128244286Y-57488571D01*
X128458571Y-57488571D01*
X127315714Y-56488571D02*
X127315714Y-57488571D01*
X127315714Y-56631429D02*
X127244286Y-56560000D01*
X127101428Y-56488571D01*
X126887143Y-56488571D01*
X126744286Y-56560000D01*
X126672857Y-56702857D01*
X126672857Y-57488571D01*
X125958571Y-56917143D02*
X124815714Y-56917143D01*
X124101428Y-57488571D02*
X124101428Y-55988571D01*
X123458571Y-57488571D02*
X123458571Y-56702857D01*
X123530000Y-56560000D01*
X123672857Y-56488571D01*
X123887142Y-56488571D01*
X124030000Y-56560000D01*
X124101428Y-56631429D01*
X122101428Y-57488571D02*
X122101428Y-56702857D01*
X122172857Y-56560000D01*
X122315714Y-56488571D01*
X122601428Y-56488571D01*
X122744285Y-56560000D01*
X122101428Y-57417143D02*
X122244285Y-57488571D01*
X122601428Y-57488571D01*
X122744285Y-57417143D01*
X122815714Y-57274286D01*
X122815714Y-57131429D01*
X122744285Y-56988571D01*
X122601428Y-56917143D01*
X122244285Y-56917143D01*
X122101428Y-56845714D01*
X121387142Y-57488571D02*
X121387142Y-56488571D01*
X121387142Y-56774286D02*
X121315714Y-56631429D01*
X121244285Y-56560000D01*
X121101428Y-56488571D01*
X120958571Y-56488571D01*
X119815714Y-57488571D02*
X119815714Y-55988571D01*
X119815714Y-57417143D02*
X119958571Y-57488571D01*
X120244285Y-57488571D01*
X120387143Y-57417143D01*
X120458571Y-57345714D01*
X120530000Y-57202857D01*
X120530000Y-56774286D01*
X120458571Y-56631429D01*
X120387143Y-56560000D01*
X120244285Y-56488571D01*
X119958571Y-56488571D01*
X119815714Y-56560000D01*
X119244285Y-56488571D02*
X118958571Y-57488571D01*
X118672857Y-56774286D01*
X118387142Y-57488571D01*
X118101428Y-56488571D01*
X116887142Y-57488571D02*
X116887142Y-56702857D01*
X116958571Y-56560000D01*
X117101428Y-56488571D01*
X117387142Y-56488571D01*
X117529999Y-56560000D01*
X116887142Y-57417143D02*
X117029999Y-57488571D01*
X117387142Y-57488571D01*
X117529999Y-57417143D01*
X117601428Y-57274286D01*
X117601428Y-57131429D01*
X117529999Y-56988571D01*
X117387142Y-56917143D01*
X117029999Y-56917143D01*
X116887142Y-56845714D01*
X116172856Y-57488571D02*
X116172856Y-56488571D01*
X116172856Y-56774286D02*
X116101428Y-56631429D01*
X116029999Y-56560000D01*
X115887142Y-56488571D01*
X115744285Y-56488571D01*
X114672857Y-57417143D02*
X114815714Y-57488571D01*
X115101428Y-57488571D01*
X115244285Y-57417143D01*
X115315714Y-57274286D01*
X115315714Y-56702857D01*
X115244285Y-56560000D01*
X115101428Y-56488571D01*
X114815714Y-56488571D01*
X114672857Y-56560000D01*
X114601428Y-56702857D01*
X114601428Y-56845714D01*
X115315714Y-56988571D01*
M02*
