G04 #@! TF.FileFunction,Legend,Top*
%FSLAX46Y46*%
G04 Gerber Fmt 4.6, Leading zero omitted, Abs format (unit mm)*
G04 Created by KiCad (PCBNEW 4.0.6) date Saturday, October 28, 2017 'PMt' 04:53:39 PM*
%MOMM*%
%LPD*%
G01*
G04 APERTURE LIST*
%ADD10C,0.100000*%
%ADD11C,0.200000*%
%ADD12C,0.300000*%
%ADD13C,0.120000*%
%ADD14C,0.150000*%
G04 APERTURE END LIST*
D10*
D11*
X107800472Y-55985714D02*
X107038567Y-56271429D01*
X107800472Y-56557143D01*
X108276662Y-56271429D02*
X109038567Y-56271429D01*
X110609996Y-56128571D02*
X110276662Y-56128571D01*
X110276662Y-56652381D02*
X110276662Y-55652381D01*
X110752853Y-55652381D01*
X111133805Y-56652381D02*
X111133805Y-55985714D01*
X111133805Y-55652381D02*
X111086186Y-55700000D01*
X111133805Y-55747619D01*
X111181424Y-55700000D01*
X111133805Y-55652381D01*
X111133805Y-55747619D01*
X111467138Y-55985714D02*
X111848090Y-55985714D01*
X111609995Y-55652381D02*
X111609995Y-56509524D01*
X111657614Y-56604762D01*
X111752852Y-56652381D01*
X111848090Y-56652381D01*
X112943329Y-55985714D02*
X112943329Y-56842857D01*
X112895710Y-56938095D01*
X112800472Y-56985714D01*
X112752853Y-56985714D01*
X112943329Y-55652381D02*
X112895710Y-55700000D01*
X112943329Y-55747619D01*
X112990948Y-55700000D01*
X112943329Y-55652381D01*
X112943329Y-55747619D01*
X113848091Y-55985714D02*
X113848091Y-56652381D01*
X113419519Y-55985714D02*
X113419519Y-56509524D01*
X113467138Y-56604762D01*
X113562376Y-56652381D01*
X113705234Y-56652381D01*
X113800472Y-56604762D01*
X113848091Y-56557143D01*
X114324281Y-56652381D02*
X114324281Y-55985714D01*
X114324281Y-56080952D02*
X114371900Y-56033333D01*
X114467138Y-55985714D01*
X114609996Y-55985714D01*
X114705234Y-56033333D01*
X114752853Y-56128571D01*
X114752853Y-56652381D01*
X114752853Y-56128571D02*
X114800472Y-56033333D01*
X114895710Y-55985714D01*
X115038567Y-55985714D01*
X115133805Y-56033333D01*
X115181424Y-56128571D01*
X115181424Y-56652381D01*
X115657614Y-55985714D02*
X115657614Y-56985714D01*
X115657614Y-56033333D02*
X115752852Y-55985714D01*
X115943329Y-55985714D01*
X116038567Y-56033333D01*
X116086186Y-56080952D01*
X116133805Y-56176190D01*
X116133805Y-56461905D01*
X116086186Y-56557143D01*
X116038567Y-56604762D01*
X115943329Y-56652381D01*
X115752852Y-56652381D01*
X115657614Y-56604762D01*
X116943329Y-56604762D02*
X116848091Y-56652381D01*
X116657614Y-56652381D01*
X116562376Y-56604762D01*
X116514757Y-56509524D01*
X116514757Y-56128571D01*
X116562376Y-56033333D01*
X116657614Y-55985714D01*
X116848091Y-55985714D01*
X116943329Y-56033333D01*
X116990948Y-56128571D01*
X116990948Y-56223810D01*
X116514757Y-56319048D01*
X117419519Y-56652381D02*
X117419519Y-55985714D01*
X117419519Y-56176190D02*
X117467138Y-56080952D01*
X117514757Y-56033333D01*
X117609995Y-55985714D01*
X117705234Y-55985714D01*
X118800472Y-56652381D02*
X118800472Y-55652381D01*
X119229044Y-56652381D02*
X119229044Y-56128571D01*
X119181425Y-56033333D01*
X119086187Y-55985714D01*
X118943329Y-55985714D01*
X118848091Y-56033333D01*
X118800472Y-56080952D01*
X120086187Y-56604762D02*
X119990949Y-56652381D01*
X119800472Y-56652381D01*
X119705234Y-56604762D01*
X119657615Y-56509524D01*
X119657615Y-56128571D01*
X119705234Y-56033333D01*
X119800472Y-55985714D01*
X119990949Y-55985714D01*
X120086187Y-56033333D01*
X120133806Y-56128571D01*
X120133806Y-56223810D01*
X119657615Y-56319048D01*
X120562377Y-56652381D02*
X120562377Y-55985714D01*
X120562377Y-56176190D02*
X120609996Y-56080952D01*
X120657615Y-56033333D01*
X120752853Y-55985714D01*
X120848092Y-55985714D01*
X121562378Y-56604762D02*
X121467140Y-56652381D01*
X121276663Y-56652381D01*
X121181425Y-56604762D01*
X121133806Y-56509524D01*
X121133806Y-56128571D01*
X121181425Y-56033333D01*
X121276663Y-55985714D01*
X121467140Y-55985714D01*
X121562378Y-56033333D01*
X121609997Y-56128571D01*
X121609997Y-56223810D01*
X121133806Y-56319048D01*
X122657616Y-55985714D02*
X123038568Y-55985714D01*
X122800473Y-55652381D02*
X122800473Y-56509524D01*
X122848092Y-56604762D01*
X122943330Y-56652381D01*
X123038568Y-56652381D01*
X123514759Y-56652381D02*
X123419521Y-56604762D01*
X123371902Y-56557143D01*
X123324283Y-56461905D01*
X123324283Y-56176190D01*
X123371902Y-56080952D01*
X123419521Y-56033333D01*
X123514759Y-55985714D01*
X123657617Y-55985714D01*
X123752855Y-56033333D01*
X123800474Y-56080952D01*
X123848093Y-56176190D01*
X123848093Y-56461905D01*
X123800474Y-56557143D01*
X123752855Y-56604762D01*
X123657617Y-56652381D01*
X123514759Y-56652381D01*
X125038569Y-55985714D02*
X125038569Y-56985714D01*
X125038569Y-56033333D02*
X125133807Y-55985714D01*
X125324284Y-55985714D01*
X125419522Y-56033333D01*
X125467141Y-56080952D01*
X125514760Y-56176190D01*
X125514760Y-56461905D01*
X125467141Y-56557143D01*
X125419522Y-56604762D01*
X125324284Y-56652381D01*
X125133807Y-56652381D01*
X125038569Y-56604762D01*
X126086188Y-56652381D02*
X125990950Y-56604762D01*
X125943331Y-56557143D01*
X125895712Y-56461905D01*
X125895712Y-56176190D01*
X125943331Y-56080952D01*
X125990950Y-56033333D01*
X126086188Y-55985714D01*
X126229046Y-55985714D01*
X126324284Y-56033333D01*
X126371903Y-56080952D01*
X126419522Y-56176190D01*
X126419522Y-56461905D01*
X126371903Y-56557143D01*
X126324284Y-56604762D01*
X126229046Y-56652381D01*
X126086188Y-56652381D01*
X126752855Y-55985714D02*
X126943331Y-56652381D01*
X127133808Y-56176190D01*
X127324284Y-56652381D01*
X127514760Y-55985714D01*
X128276665Y-56604762D02*
X128181427Y-56652381D01*
X127990950Y-56652381D01*
X127895712Y-56604762D01*
X127848093Y-56509524D01*
X127848093Y-56128571D01*
X127895712Y-56033333D01*
X127990950Y-55985714D01*
X128181427Y-55985714D01*
X128276665Y-56033333D01*
X128324284Y-56128571D01*
X128324284Y-56223810D01*
X127848093Y-56319048D01*
X128752855Y-56652381D02*
X128752855Y-55985714D01*
X128752855Y-56176190D02*
X128800474Y-56080952D01*
X128848093Y-56033333D01*
X128943331Y-55985714D01*
X129038570Y-55985714D01*
X130133808Y-56652381D02*
X130133808Y-55985714D01*
X130133808Y-56080952D02*
X130181427Y-56033333D01*
X130276665Y-55985714D01*
X130419523Y-55985714D01*
X130514761Y-56033333D01*
X130562380Y-56128571D01*
X130562380Y-56652381D01*
X130562380Y-56128571D02*
X130609999Y-56033333D01*
X130705237Y-55985714D01*
X130848094Y-55985714D01*
X130943332Y-56033333D01*
X130990951Y-56128571D01*
X130990951Y-56652381D01*
X131467141Y-56652381D02*
X131467141Y-55985714D01*
X131467141Y-55652381D02*
X131419522Y-55700000D01*
X131467141Y-55747619D01*
X131514760Y-55700000D01*
X131467141Y-55652381D01*
X131467141Y-55747619D01*
X131943331Y-55985714D02*
X131943331Y-56652381D01*
X131943331Y-56080952D02*
X131990950Y-56033333D01*
X132086188Y-55985714D01*
X132229046Y-55985714D01*
X132324284Y-56033333D01*
X132371903Y-56128571D01*
X132371903Y-56652381D01*
X132848093Y-56652381D02*
X132848093Y-55985714D01*
X132848093Y-55652381D02*
X132800474Y-55700000D01*
X132848093Y-55747619D01*
X132895712Y-55700000D01*
X132848093Y-55652381D01*
X132848093Y-55747619D01*
X133276664Y-56604762D02*
X133419521Y-56652381D01*
X133657617Y-56652381D01*
X133752855Y-56604762D01*
X133800474Y-56557143D01*
X133848093Y-56461905D01*
X133848093Y-56366667D01*
X133800474Y-56271429D01*
X133752855Y-56223810D01*
X133657617Y-56176190D01*
X133467140Y-56128571D01*
X133371902Y-56080952D01*
X133324283Y-56033333D01*
X133276664Y-55938095D01*
X133276664Y-55842857D01*
X133324283Y-55747619D01*
X133371902Y-55700000D01*
X133467140Y-55652381D01*
X133705236Y-55652381D01*
X133848093Y-55700000D01*
X134276664Y-55985714D02*
X134276664Y-56985714D01*
X134276664Y-56033333D02*
X134371902Y-55985714D01*
X134562379Y-55985714D01*
X134657617Y-56033333D01*
X134705236Y-56080952D01*
X134752855Y-56176190D01*
X134752855Y-56461905D01*
X134705236Y-56557143D01*
X134657617Y-56604762D01*
X134562379Y-56652381D01*
X134371902Y-56652381D01*
X134276664Y-56604762D01*
X135609998Y-56652381D02*
X135609998Y-56128571D01*
X135562379Y-56033333D01*
X135467141Y-55985714D01*
X135276664Y-55985714D01*
X135181426Y-56033333D01*
X135609998Y-56604762D02*
X135514760Y-56652381D01*
X135276664Y-56652381D01*
X135181426Y-56604762D01*
X135133807Y-56509524D01*
X135133807Y-56414286D01*
X135181426Y-56319048D01*
X135276664Y-56271429D01*
X135514760Y-56271429D01*
X135609998Y-56223810D01*
X136086188Y-56652381D02*
X136086188Y-55985714D01*
X136086188Y-56176190D02*
X136133807Y-56080952D01*
X136181426Y-56033333D01*
X136276664Y-55985714D01*
X136371903Y-55985714D01*
X136562379Y-55985714D02*
X136943331Y-55985714D01*
X136705236Y-55652381D02*
X136705236Y-56509524D01*
X136752855Y-56604762D01*
X136848093Y-56652381D01*
X136943331Y-56652381D01*
X137705237Y-56652381D02*
X137705237Y-56128571D01*
X137657618Y-56033333D01*
X137562380Y-55985714D01*
X137371903Y-55985714D01*
X137276665Y-56033333D01*
X137705237Y-56604762D02*
X137609999Y-56652381D01*
X137371903Y-56652381D01*
X137276665Y-56604762D01*
X137229046Y-56509524D01*
X137229046Y-56414286D01*
X137276665Y-56319048D01*
X137371903Y-56271429D01*
X137609999Y-56271429D01*
X137705237Y-56223810D01*
X138181427Y-55985714D02*
X138181427Y-56652381D01*
X138181427Y-56080952D02*
X138229046Y-56033333D01*
X138324284Y-55985714D01*
X138467142Y-55985714D01*
X138562380Y-56033333D01*
X138609999Y-56128571D01*
X138609999Y-56652381D01*
X139514761Y-55652381D02*
X139324284Y-55652381D01*
X139229046Y-55700000D01*
X139181427Y-55747619D01*
X139086189Y-55890476D01*
X139038570Y-56080952D01*
X139038570Y-56461905D01*
X139086189Y-56557143D01*
X139133808Y-56604762D01*
X139229046Y-56652381D01*
X139419523Y-56652381D01*
X139514761Y-56604762D01*
X139562380Y-56557143D01*
X139609999Y-56461905D01*
X139609999Y-56223810D01*
X139562380Y-56128571D01*
X139514761Y-56080952D01*
X139419523Y-56033333D01*
X139229046Y-56033333D01*
X139133808Y-56080952D01*
X139086189Y-56128571D01*
X139038570Y-56223810D01*
X140038570Y-56271429D02*
X140800475Y-56271429D01*
X140419523Y-56652381D02*
X140419523Y-55890476D01*
X142038570Y-56652381D02*
X142038570Y-55652381D01*
X142038570Y-56033333D02*
X142133808Y-55985714D01*
X142324285Y-55985714D01*
X142419523Y-56033333D01*
X142467142Y-56080952D01*
X142514761Y-56176190D01*
X142514761Y-56461905D01*
X142467142Y-56557143D01*
X142419523Y-56604762D01*
X142324285Y-56652381D01*
X142133808Y-56652381D01*
X142038570Y-56604762D01*
X143086189Y-56652381D02*
X142990951Y-56604762D01*
X142943332Y-56557143D01*
X142895713Y-56461905D01*
X142895713Y-56176190D01*
X142943332Y-56080952D01*
X142990951Y-56033333D01*
X143086189Y-55985714D01*
X143229047Y-55985714D01*
X143324285Y-56033333D01*
X143371904Y-56080952D01*
X143419523Y-56176190D01*
X143419523Y-56461905D01*
X143371904Y-56557143D01*
X143324285Y-56604762D01*
X143229047Y-56652381D01*
X143086189Y-56652381D01*
X144276666Y-56652381D02*
X144276666Y-56128571D01*
X144229047Y-56033333D01*
X144133809Y-55985714D01*
X143943332Y-55985714D01*
X143848094Y-56033333D01*
X144276666Y-56604762D02*
X144181428Y-56652381D01*
X143943332Y-56652381D01*
X143848094Y-56604762D01*
X143800475Y-56509524D01*
X143800475Y-56414286D01*
X143848094Y-56319048D01*
X143943332Y-56271429D01*
X144181428Y-56271429D01*
X144276666Y-56223810D01*
X144752856Y-56652381D02*
X144752856Y-55985714D01*
X144752856Y-56176190D02*
X144800475Y-56080952D01*
X144848094Y-56033333D01*
X144943332Y-55985714D01*
X145038571Y-55985714D01*
X145800476Y-56652381D02*
X145800476Y-55652381D01*
X145800476Y-56604762D02*
X145705238Y-56652381D01*
X145514761Y-56652381D01*
X145419523Y-56604762D01*
X145371904Y-56557143D01*
X145324285Y-56461905D01*
X145324285Y-56176190D01*
X145371904Y-56080952D01*
X145419523Y-56033333D01*
X145514761Y-55985714D01*
X145705238Y-55985714D01*
X145800476Y-56033333D01*
X146895714Y-55985714D02*
X147276666Y-55985714D01*
X147038571Y-56652381D02*
X147038571Y-55795238D01*
X147086190Y-55700000D01*
X147181428Y-55652381D01*
X147276666Y-55652381D01*
X147610000Y-56652381D02*
X147610000Y-55985714D01*
X147610000Y-56176190D02*
X147657619Y-56080952D01*
X147705238Y-56033333D01*
X147800476Y-55985714D01*
X147895715Y-55985714D01*
X148371905Y-56652381D02*
X148276667Y-56604762D01*
X148229048Y-56557143D01*
X148181429Y-56461905D01*
X148181429Y-56176190D01*
X148229048Y-56080952D01*
X148276667Y-56033333D01*
X148371905Y-55985714D01*
X148514763Y-55985714D01*
X148610001Y-56033333D01*
X148657620Y-56080952D01*
X148705239Y-56176190D01*
X148705239Y-56461905D01*
X148657620Y-56557143D01*
X148610001Y-56604762D01*
X148514763Y-56652381D01*
X148371905Y-56652381D01*
X149133810Y-56652381D02*
X149133810Y-55985714D01*
X149133810Y-56080952D02*
X149181429Y-56033333D01*
X149276667Y-55985714D01*
X149419525Y-55985714D01*
X149514763Y-56033333D01*
X149562382Y-56128571D01*
X149562382Y-56652381D01*
X149562382Y-56128571D02*
X149610001Y-56033333D01*
X149705239Y-55985714D01*
X149848096Y-55985714D01*
X149943334Y-56033333D01*
X149990953Y-56128571D01*
X149990953Y-56652381D01*
X151657620Y-55652381D02*
X151467143Y-55652381D01*
X151371905Y-55700000D01*
X151324286Y-55747619D01*
X151229048Y-55890476D01*
X151181429Y-56080952D01*
X151181429Y-56461905D01*
X151229048Y-56557143D01*
X151276667Y-56604762D01*
X151371905Y-56652381D01*
X151562382Y-56652381D01*
X151657620Y-56604762D01*
X151705239Y-56557143D01*
X151752858Y-56461905D01*
X151752858Y-56223810D01*
X151705239Y-56128571D01*
X151657620Y-56080952D01*
X151562382Y-56033333D01*
X151371905Y-56033333D01*
X151276667Y-56080952D01*
X151229048Y-56128571D01*
X151181429Y-56223810D01*
X152657620Y-55652381D02*
X152181429Y-55652381D01*
X152133810Y-56128571D01*
X152181429Y-56080952D01*
X152276667Y-56033333D01*
X152514763Y-56033333D01*
X152610001Y-56080952D01*
X152657620Y-56128571D01*
X152705239Y-56223810D01*
X152705239Y-56461905D01*
X152657620Y-56557143D01*
X152610001Y-56604762D01*
X152514763Y-56652381D01*
X152276667Y-56652381D01*
X152181429Y-56604762D01*
X152133810Y-56557143D01*
X153324286Y-55652381D02*
X153419525Y-55652381D01*
X153514763Y-55700000D01*
X153562382Y-55747619D01*
X153610001Y-55842857D01*
X153657620Y-56033333D01*
X153657620Y-56271429D01*
X153610001Y-56461905D01*
X153562382Y-56557143D01*
X153514763Y-56604762D01*
X153419525Y-56652381D01*
X153324286Y-56652381D01*
X153229048Y-56604762D01*
X153181429Y-56557143D01*
X153133810Y-56461905D01*
X153086191Y-56271429D01*
X153086191Y-56033333D01*
X153133810Y-55842857D01*
X153181429Y-55747619D01*
X153229048Y-55700000D01*
X153324286Y-55652381D01*
X154038572Y-55747619D02*
X154086191Y-55700000D01*
X154181429Y-55652381D01*
X154419525Y-55652381D01*
X154514763Y-55700000D01*
X154562382Y-55747619D01*
X154610001Y-55842857D01*
X154610001Y-55938095D01*
X154562382Y-56080952D01*
X153990953Y-56652381D01*
X154610001Y-56652381D01*
X155800477Y-56652381D02*
X155800477Y-55652381D01*
X156229049Y-56652381D02*
X156229049Y-56128571D01*
X156181430Y-56033333D01*
X156086192Y-55985714D01*
X155943334Y-55985714D01*
X155848096Y-56033333D01*
X155800477Y-56080952D01*
X156848096Y-56652381D02*
X156752858Y-56604762D01*
X156705239Y-56557143D01*
X156657620Y-56461905D01*
X156657620Y-56176190D01*
X156705239Y-56080952D01*
X156752858Y-56033333D01*
X156848096Y-55985714D01*
X156990954Y-55985714D01*
X157086192Y-56033333D01*
X157133811Y-56080952D01*
X157181430Y-56176190D01*
X157181430Y-56461905D01*
X157133811Y-56557143D01*
X157086192Y-56604762D01*
X156990954Y-56652381D01*
X156848096Y-56652381D01*
X157562382Y-56604762D02*
X157657620Y-56652381D01*
X157848096Y-56652381D01*
X157943335Y-56604762D01*
X157990954Y-56509524D01*
X157990954Y-56461905D01*
X157943335Y-56366667D01*
X157848096Y-56319048D01*
X157705239Y-56319048D01*
X157610001Y-56271429D01*
X157562382Y-56176190D01*
X157562382Y-56128571D01*
X157610001Y-56033333D01*
X157705239Y-55985714D01*
X157848096Y-55985714D01*
X157943335Y-56033333D01*
X158276668Y-55985714D02*
X158657620Y-55985714D01*
X158419525Y-55652381D02*
X158419525Y-56509524D01*
X158467144Y-56604762D01*
X158562382Y-56652381D01*
X158657620Y-56652381D01*
X160038574Y-57033333D02*
X159990954Y-56985714D01*
X159895716Y-56842857D01*
X159848097Y-56747619D01*
X159800478Y-56604762D01*
X159752859Y-56366667D01*
X159752859Y-56176190D01*
X159800478Y-55938095D01*
X159848097Y-55795238D01*
X159895716Y-55700000D01*
X159990954Y-55557143D01*
X160038574Y-55509524D01*
X160562383Y-56652381D02*
X160467145Y-56604762D01*
X160419526Y-56557143D01*
X160371907Y-56461905D01*
X160371907Y-56176190D01*
X160419526Y-56080952D01*
X160467145Y-56033333D01*
X160562383Y-55985714D01*
X160705241Y-55985714D01*
X160800479Y-56033333D01*
X160848098Y-56080952D01*
X160895717Y-56176190D01*
X160895717Y-56461905D01*
X160848098Y-56557143D01*
X160800479Y-56604762D01*
X160705241Y-56652381D01*
X160562383Y-56652381D01*
X161324288Y-55985714D02*
X161324288Y-56652381D01*
X161324288Y-56080952D02*
X161371907Y-56033333D01*
X161467145Y-55985714D01*
X161610003Y-55985714D01*
X161705241Y-56033333D01*
X161752860Y-56128571D01*
X161752860Y-56652381D01*
X162371907Y-56652381D02*
X162276669Y-56604762D01*
X162229050Y-56509524D01*
X162229050Y-55652381D01*
X162657622Y-55985714D02*
X162895717Y-56652381D01*
X163133813Y-55985714D02*
X162895717Y-56652381D01*
X162800479Y-56890476D01*
X162752860Y-56938095D01*
X162657622Y-56985714D01*
X164276670Y-56652381D02*
X164276670Y-55985714D01*
X164276670Y-55652381D02*
X164229051Y-55700000D01*
X164276670Y-55747619D01*
X164324289Y-55700000D01*
X164276670Y-55652381D01*
X164276670Y-55747619D01*
X164610003Y-55985714D02*
X164990955Y-55985714D01*
X164752860Y-56652381D02*
X164752860Y-55795238D01*
X164800479Y-55700000D01*
X164895717Y-55652381D01*
X164990955Y-55652381D01*
X166086194Y-55985714D02*
X166086194Y-56652381D01*
X166086194Y-56080952D02*
X166133813Y-56033333D01*
X166229051Y-55985714D01*
X166371909Y-55985714D01*
X166467147Y-56033333D01*
X166514766Y-56128571D01*
X166514766Y-56652381D01*
X167133813Y-56652381D02*
X167038575Y-56604762D01*
X166990956Y-56557143D01*
X166943337Y-56461905D01*
X166943337Y-56176190D01*
X166990956Y-56080952D01*
X167038575Y-56033333D01*
X167133813Y-55985714D01*
X167276671Y-55985714D01*
X167371909Y-56033333D01*
X167419528Y-56080952D01*
X167467147Y-56176190D01*
X167467147Y-56461905D01*
X167419528Y-56557143D01*
X167371909Y-56604762D01*
X167276671Y-56652381D01*
X167133813Y-56652381D01*
X167752861Y-55985714D02*
X168133813Y-55985714D01*
X167895718Y-55652381D02*
X167895718Y-56509524D01*
X167943337Y-56604762D01*
X168038575Y-56652381D01*
X168133813Y-56652381D01*
X169657624Y-55985714D02*
X169657624Y-56652381D01*
X169229052Y-55985714D02*
X169229052Y-56509524D01*
X169276671Y-56604762D01*
X169371909Y-56652381D01*
X169514767Y-56652381D01*
X169610005Y-56604762D01*
X169657624Y-56557143D01*
X170086195Y-56604762D02*
X170181433Y-56652381D01*
X170371909Y-56652381D01*
X170467148Y-56604762D01*
X170514767Y-56509524D01*
X170514767Y-56461905D01*
X170467148Y-56366667D01*
X170371909Y-56319048D01*
X170229052Y-56319048D01*
X170133814Y-56271429D01*
X170086195Y-56176190D01*
X170086195Y-56128571D01*
X170133814Y-56033333D01*
X170229052Y-55985714D01*
X170371909Y-55985714D01*
X170467148Y-56033333D01*
X170943338Y-56652381D02*
X170943338Y-55985714D01*
X170943338Y-55652381D02*
X170895719Y-55700000D01*
X170943338Y-55747619D01*
X170990957Y-55700000D01*
X170943338Y-55652381D01*
X170943338Y-55747619D01*
X171419528Y-55985714D02*
X171419528Y-56652381D01*
X171419528Y-56080952D02*
X171467147Y-56033333D01*
X171562385Y-55985714D01*
X171705243Y-55985714D01*
X171800481Y-56033333D01*
X171848100Y-56128571D01*
X171848100Y-56652381D01*
X172752862Y-55985714D02*
X172752862Y-56795238D01*
X172705243Y-56890476D01*
X172657624Y-56938095D01*
X172562385Y-56985714D01*
X172419528Y-56985714D01*
X172324290Y-56938095D01*
X172752862Y-56604762D02*
X172657624Y-56652381D01*
X172467147Y-56652381D01*
X172371909Y-56604762D01*
X172324290Y-56557143D01*
X172276671Y-56461905D01*
X172276671Y-56176190D01*
X172324290Y-56080952D01*
X172371909Y-56033333D01*
X172467147Y-55985714D01*
X172657624Y-55985714D01*
X172752862Y-56033333D01*
X173990957Y-55652381D02*
X173990957Y-56461905D01*
X174038576Y-56557143D01*
X174086195Y-56604762D01*
X174181433Y-56652381D01*
X174371910Y-56652381D01*
X174467148Y-56604762D01*
X174514767Y-56557143D01*
X174562386Y-56461905D01*
X174562386Y-55652381D01*
X174990957Y-56604762D02*
X175133814Y-56652381D01*
X175371910Y-56652381D01*
X175467148Y-56604762D01*
X175514767Y-56557143D01*
X175562386Y-56461905D01*
X175562386Y-56366667D01*
X175514767Y-56271429D01*
X175467148Y-56223810D01*
X175371910Y-56176190D01*
X175181433Y-56128571D01*
X175086195Y-56080952D01*
X175038576Y-56033333D01*
X174990957Y-55938095D01*
X174990957Y-55842857D01*
X175038576Y-55747619D01*
X175086195Y-55700000D01*
X175181433Y-55652381D01*
X175419529Y-55652381D01*
X175562386Y-55700000D01*
X176324291Y-56128571D02*
X176467148Y-56176190D01*
X176514767Y-56223810D01*
X176562386Y-56319048D01*
X176562386Y-56461905D01*
X176514767Y-56557143D01*
X176467148Y-56604762D01*
X176371910Y-56652381D01*
X175990957Y-56652381D01*
X175990957Y-55652381D01*
X176324291Y-55652381D01*
X176419529Y-55700000D01*
X176467148Y-55747619D01*
X176514767Y-55842857D01*
X176514767Y-55938095D01*
X176467148Y-56033333D01*
X176419529Y-56080952D01*
X176324291Y-56128571D01*
X175990957Y-56128571D01*
X176895719Y-57033333D02*
X176943338Y-56985714D01*
X177038576Y-56842857D01*
X177086195Y-56747619D01*
X177133814Y-56604762D01*
X177181433Y-56366667D01*
X177181433Y-56176190D01*
X177133814Y-55938095D01*
X177086195Y-55795238D01*
X177038576Y-55700000D01*
X176943338Y-55557143D01*
X176895719Y-55509524D01*
D12*
X178363571Y-111708571D02*
X176863571Y-111708571D01*
X177935000Y-111208571D01*
X176863571Y-110708571D01*
X178363571Y-110708571D01*
X178363571Y-109779999D02*
X178292143Y-109922857D01*
X178220714Y-109994285D01*
X178077857Y-110065714D01*
X177649286Y-110065714D01*
X177506429Y-109994285D01*
X177435000Y-109922857D01*
X177363571Y-109779999D01*
X177363571Y-109565714D01*
X177435000Y-109422857D01*
X177506429Y-109351428D01*
X177649286Y-109279999D01*
X178077857Y-109279999D01*
X178220714Y-109351428D01*
X178292143Y-109422857D01*
X178363571Y-109565714D01*
X178363571Y-109779999D01*
X177363571Y-107994285D02*
X178363571Y-107994285D01*
X177363571Y-108637142D02*
X178149286Y-108637142D01*
X178292143Y-108565714D01*
X178363571Y-108422856D01*
X178363571Y-108208571D01*
X178292143Y-108065714D01*
X178220714Y-107994285D01*
X177363571Y-107279999D02*
X178363571Y-107279999D01*
X177506429Y-107279999D02*
X177435000Y-107208571D01*
X177363571Y-107065713D01*
X177363571Y-106851428D01*
X177435000Y-106708571D01*
X177577857Y-106637142D01*
X178363571Y-106637142D01*
X177363571Y-106137142D02*
X177363571Y-105565713D01*
X176863571Y-105922856D02*
X178149286Y-105922856D01*
X178292143Y-105851428D01*
X178363571Y-105708570D01*
X178363571Y-105565713D01*
X178363571Y-103065713D02*
X177649286Y-103565713D01*
X178363571Y-103922856D02*
X176863571Y-103922856D01*
X176863571Y-103351428D01*
X176935000Y-103208570D01*
X177006429Y-103137142D01*
X177149286Y-103065713D01*
X177363571Y-103065713D01*
X177506429Y-103137142D01*
X177577857Y-103208570D01*
X177649286Y-103351428D01*
X177649286Y-103922856D01*
X178363571Y-101779999D02*
X177577857Y-101779999D01*
X177435000Y-101851428D01*
X177363571Y-101994285D01*
X177363571Y-102279999D01*
X177435000Y-102422856D01*
X178292143Y-101779999D02*
X178363571Y-101922856D01*
X178363571Y-102279999D01*
X178292143Y-102422856D01*
X178149286Y-102494285D01*
X178006429Y-102494285D01*
X177863571Y-102422856D01*
X177792143Y-102279999D01*
X177792143Y-101922856D01*
X177720714Y-101779999D01*
X178292143Y-101137142D02*
X178363571Y-100994285D01*
X178363571Y-100708570D01*
X178292143Y-100565713D01*
X178149286Y-100494285D01*
X178077857Y-100494285D01*
X177935000Y-100565713D01*
X177863571Y-100708570D01*
X177863571Y-100922856D01*
X177792143Y-101065713D01*
X177649286Y-101137142D01*
X177577857Y-101137142D01*
X177435000Y-101065713D01*
X177363571Y-100922856D01*
X177363571Y-100708570D01*
X177435000Y-100565713D01*
X177363571Y-99851427D02*
X178863571Y-99851427D01*
X177435000Y-99851427D02*
X177363571Y-99708570D01*
X177363571Y-99422856D01*
X177435000Y-99279999D01*
X177506429Y-99208570D01*
X177649286Y-99137141D01*
X178077857Y-99137141D01*
X178220714Y-99208570D01*
X178292143Y-99279999D01*
X178363571Y-99422856D01*
X178363571Y-99708570D01*
X178292143Y-99851427D01*
X178363571Y-98494284D02*
X176863571Y-98494284D01*
X177435000Y-98494284D02*
X177363571Y-98351427D01*
X177363571Y-98065713D01*
X177435000Y-97922856D01*
X177506429Y-97851427D01*
X177649286Y-97779998D01*
X178077857Y-97779998D01*
X178220714Y-97851427D01*
X178292143Y-97922856D01*
X178363571Y-98065713D01*
X178363571Y-98351427D01*
X178292143Y-98494284D01*
X178292143Y-96565713D02*
X178363571Y-96708570D01*
X178363571Y-96994284D01*
X178292143Y-97137141D01*
X178149286Y-97208570D01*
X177577857Y-97208570D01*
X177435000Y-97137141D01*
X177363571Y-96994284D01*
X177363571Y-96708570D01*
X177435000Y-96565713D01*
X177577857Y-96494284D01*
X177720714Y-96494284D01*
X177863571Y-97208570D01*
X178363571Y-95851427D02*
X177363571Y-95851427D01*
X177649286Y-95851427D02*
X177506429Y-95779999D01*
X177435000Y-95708570D01*
X177363571Y-95565713D01*
X177363571Y-95422856D01*
X178363571Y-94922856D02*
X177363571Y-94922856D01*
X177649286Y-94922856D02*
X177506429Y-94851428D01*
X177435000Y-94779999D01*
X177363571Y-94637142D01*
X177363571Y-94494285D01*
X177363571Y-94137142D02*
X178363571Y-93779999D01*
X177363571Y-93422857D02*
X178363571Y-93779999D01*
X178720714Y-93922857D01*
X178792143Y-93994285D01*
X178863571Y-94137142D01*
X178363571Y-91708571D02*
X176863571Y-91708571D01*
X176863571Y-91137143D01*
X176935000Y-90994285D01*
X177006429Y-90922857D01*
X177149286Y-90851428D01*
X177363571Y-90851428D01*
X177506429Y-90922857D01*
X177577857Y-90994285D01*
X177649286Y-91137143D01*
X177649286Y-91708571D01*
X178363571Y-90208571D02*
X177363571Y-90208571D01*
X176863571Y-90208571D02*
X176935000Y-90280000D01*
X177006429Y-90208571D01*
X176935000Y-90137143D01*
X176863571Y-90208571D01*
X177006429Y-90208571D01*
X176863571Y-88494285D02*
X176863571Y-87494285D01*
X178363571Y-88494285D01*
X178363571Y-87494285D01*
X178292143Y-86351429D02*
X178363571Y-86494286D01*
X178363571Y-86780000D01*
X178292143Y-86922857D01*
X178149286Y-86994286D01*
X177577857Y-86994286D01*
X177435000Y-86922857D01*
X177363571Y-86780000D01*
X177363571Y-86494286D01*
X177435000Y-86351429D01*
X177577857Y-86280000D01*
X177720714Y-86280000D01*
X177863571Y-86994286D01*
X178363571Y-85637143D02*
X177363571Y-85637143D01*
X177649286Y-85637143D02*
X177506429Y-85565715D01*
X177435000Y-85494286D01*
X177363571Y-85351429D01*
X177363571Y-85208572D01*
X178363571Y-84494286D02*
X178292143Y-84637144D01*
X178220714Y-84708572D01*
X178077857Y-84780001D01*
X177649286Y-84780001D01*
X177506429Y-84708572D01*
X177435000Y-84637144D01*
X177363571Y-84494286D01*
X177363571Y-84280001D01*
X177435000Y-84137144D01*
X177506429Y-84065715D01*
X177649286Y-83994286D01*
X178077857Y-83994286D01*
X178220714Y-84065715D01*
X178292143Y-84137144D01*
X178363571Y-84280001D01*
X178363571Y-84494286D01*
X177363571Y-81565715D02*
X178363571Y-81565715D01*
X177363571Y-82208572D02*
X178149286Y-82208572D01*
X178292143Y-82137144D01*
X178363571Y-81994286D01*
X178363571Y-81780001D01*
X178292143Y-81637144D01*
X178220714Y-81565715D01*
X177363571Y-80851429D02*
X178863571Y-80851429D01*
X177435000Y-80851429D02*
X177363571Y-80708572D01*
X177363571Y-80422858D01*
X177435000Y-80280001D01*
X177506429Y-80208572D01*
X177649286Y-80137143D01*
X178077857Y-80137143D01*
X178220714Y-80208572D01*
X178292143Y-80280001D01*
X178363571Y-80422858D01*
X178363571Y-80708572D01*
X178292143Y-80851429D01*
X178292143Y-79565715D02*
X178363571Y-79422858D01*
X178363571Y-79137143D01*
X178292143Y-78994286D01*
X178149286Y-78922858D01*
X178077857Y-78922858D01*
X177935000Y-78994286D01*
X177863571Y-79137143D01*
X177863571Y-79351429D01*
X177792143Y-79494286D01*
X177649286Y-79565715D01*
X177577857Y-79565715D01*
X177435000Y-79494286D01*
X177363571Y-79351429D01*
X177363571Y-79137143D01*
X177435000Y-78994286D01*
X178363571Y-78280000D02*
X177363571Y-78280000D01*
X176863571Y-78280000D02*
X176935000Y-78351429D01*
X177006429Y-78280000D01*
X176935000Y-78208572D01*
X176863571Y-78280000D01*
X177006429Y-78280000D01*
X178363571Y-76922857D02*
X176863571Y-76922857D01*
X178292143Y-76922857D02*
X178363571Y-77065714D01*
X178363571Y-77351428D01*
X178292143Y-77494286D01*
X178220714Y-77565714D01*
X178077857Y-77637143D01*
X177649286Y-77637143D01*
X177506429Y-77565714D01*
X177435000Y-77494286D01*
X177363571Y-77351428D01*
X177363571Y-77065714D01*
X177435000Y-76922857D01*
X178292143Y-75637143D02*
X178363571Y-75780000D01*
X178363571Y-76065714D01*
X178292143Y-76208571D01*
X178149286Y-76280000D01*
X177577857Y-76280000D01*
X177435000Y-76208571D01*
X177363571Y-76065714D01*
X177363571Y-75780000D01*
X177435000Y-75637143D01*
X177577857Y-75565714D01*
X177720714Y-75565714D01*
X177863571Y-76280000D01*
X178363571Y-73137143D02*
X176863571Y-73137143D01*
X178292143Y-73137143D02*
X178363571Y-73280000D01*
X178363571Y-73565714D01*
X178292143Y-73708572D01*
X178220714Y-73780000D01*
X178077857Y-73851429D01*
X177649286Y-73851429D01*
X177506429Y-73780000D01*
X177435000Y-73708572D01*
X177363571Y-73565714D01*
X177363571Y-73280000D01*
X177435000Y-73137143D01*
X178363571Y-72208571D02*
X178292143Y-72351429D01*
X178220714Y-72422857D01*
X178077857Y-72494286D01*
X177649286Y-72494286D01*
X177506429Y-72422857D01*
X177435000Y-72351429D01*
X177363571Y-72208571D01*
X177363571Y-71994286D01*
X177435000Y-71851429D01*
X177506429Y-71780000D01*
X177649286Y-71708571D01*
X178077857Y-71708571D01*
X178220714Y-71780000D01*
X178292143Y-71851429D01*
X178363571Y-71994286D01*
X178363571Y-72208571D01*
X177363571Y-71208571D02*
X178363571Y-70922857D01*
X177649286Y-70637143D01*
X178363571Y-70351428D01*
X177363571Y-70065714D01*
X177363571Y-69494285D02*
X178363571Y-69494285D01*
X177506429Y-69494285D02*
X177435000Y-69422857D01*
X177363571Y-69279999D01*
X177363571Y-69065714D01*
X177435000Y-68922857D01*
X177577857Y-68851428D01*
X178363571Y-68851428D01*
X181485000Y-99422858D02*
X181413571Y-99494286D01*
X181199286Y-99637143D01*
X181056429Y-99708572D01*
X180842143Y-99780001D01*
X180485000Y-99851429D01*
X180199286Y-99851429D01*
X179842143Y-99780001D01*
X179627857Y-99708572D01*
X179485000Y-99637143D01*
X179270714Y-99494286D01*
X179199286Y-99422858D01*
X179913571Y-99065715D02*
X179913571Y-98494286D01*
X180913571Y-98851429D02*
X179627857Y-98851429D01*
X179485000Y-98780001D01*
X179413571Y-98637143D01*
X179413571Y-98494286D01*
X180913571Y-97351429D02*
X180127857Y-97351429D01*
X179985000Y-97422858D01*
X179913571Y-97565715D01*
X179913571Y-97851429D01*
X179985000Y-97994286D01*
X180842143Y-97351429D02*
X180913571Y-97494286D01*
X180913571Y-97851429D01*
X180842143Y-97994286D01*
X180699286Y-98065715D01*
X180556429Y-98065715D01*
X180413571Y-97994286D01*
X180342143Y-97851429D01*
X180342143Y-97494286D01*
X180270714Y-97351429D01*
X180842143Y-95994286D02*
X180913571Y-96137143D01*
X180913571Y-96422857D01*
X180842143Y-96565715D01*
X180770714Y-96637143D01*
X180627857Y-96708572D01*
X180199286Y-96708572D01*
X180056429Y-96637143D01*
X179985000Y-96565715D01*
X179913571Y-96422857D01*
X179913571Y-96137143D01*
X179985000Y-95994286D01*
X180913571Y-95351429D02*
X179913571Y-95351429D01*
X179413571Y-95351429D02*
X179485000Y-95422858D01*
X179556429Y-95351429D01*
X179485000Y-95280001D01*
X179413571Y-95351429D01*
X179556429Y-95351429D01*
X179913571Y-94637143D02*
X180913571Y-94637143D01*
X180056429Y-94637143D02*
X179985000Y-94565715D01*
X179913571Y-94422857D01*
X179913571Y-94208572D01*
X179985000Y-94065715D01*
X180127857Y-93994286D01*
X180913571Y-93994286D01*
X179913571Y-92637143D02*
X181127857Y-92637143D01*
X181270714Y-92708572D01*
X181342143Y-92780000D01*
X181413571Y-92922857D01*
X181413571Y-93137143D01*
X181342143Y-93280000D01*
X180842143Y-92637143D02*
X180913571Y-92780000D01*
X180913571Y-93065714D01*
X180842143Y-93208572D01*
X180770714Y-93280000D01*
X180627857Y-93351429D01*
X180199286Y-93351429D01*
X180056429Y-93280000D01*
X179985000Y-93208572D01*
X179913571Y-93065714D01*
X179913571Y-92780000D01*
X179985000Y-92637143D01*
X179913571Y-90994286D02*
X179913571Y-90422857D01*
X179413571Y-90780000D02*
X180699286Y-90780000D01*
X180842143Y-90708572D01*
X180913571Y-90565714D01*
X180913571Y-90422857D01*
X180913571Y-89922857D02*
X179413571Y-89922857D01*
X180913571Y-89280000D02*
X180127857Y-89280000D01*
X179985000Y-89351429D01*
X179913571Y-89494286D01*
X179913571Y-89708571D01*
X179985000Y-89851429D01*
X180056429Y-89922857D01*
X180913571Y-88565714D02*
X179913571Y-88565714D01*
X179413571Y-88565714D02*
X179485000Y-88637143D01*
X179556429Y-88565714D01*
X179485000Y-88494286D01*
X179413571Y-88565714D01*
X179556429Y-88565714D01*
X180842143Y-87922857D02*
X180913571Y-87780000D01*
X180913571Y-87494285D01*
X180842143Y-87351428D01*
X180699286Y-87280000D01*
X180627857Y-87280000D01*
X180485000Y-87351428D01*
X180413571Y-87494285D01*
X180413571Y-87708571D01*
X180342143Y-87851428D01*
X180199286Y-87922857D01*
X180127857Y-87922857D01*
X179985000Y-87851428D01*
X179913571Y-87708571D01*
X179913571Y-87494285D01*
X179985000Y-87351428D01*
X180913571Y-85494285D02*
X179413571Y-85494285D01*
X179413571Y-84922857D01*
X179485000Y-84779999D01*
X179556429Y-84708571D01*
X179699286Y-84637142D01*
X179913571Y-84637142D01*
X180056429Y-84708571D01*
X180127857Y-84779999D01*
X180199286Y-84922857D01*
X180199286Y-85494285D01*
X180770714Y-83137142D02*
X180842143Y-83208571D01*
X180913571Y-83422857D01*
X180913571Y-83565714D01*
X180842143Y-83779999D01*
X180699286Y-83922857D01*
X180556429Y-83994285D01*
X180270714Y-84065714D01*
X180056429Y-84065714D01*
X179770714Y-83994285D01*
X179627857Y-83922857D01*
X179485000Y-83779999D01*
X179413571Y-83565714D01*
X179413571Y-83422857D01*
X179485000Y-83208571D01*
X179556429Y-83137142D01*
X180127857Y-81994285D02*
X180199286Y-81779999D01*
X180270714Y-81708571D01*
X180413571Y-81637142D01*
X180627857Y-81637142D01*
X180770714Y-81708571D01*
X180842143Y-81779999D01*
X180913571Y-81922857D01*
X180913571Y-82494285D01*
X179413571Y-82494285D01*
X179413571Y-81994285D01*
X179485000Y-81851428D01*
X179556429Y-81779999D01*
X179699286Y-81708571D01*
X179842143Y-81708571D01*
X179985000Y-81779999D01*
X180056429Y-81851428D01*
X180127857Y-81994285D01*
X180127857Y-82494285D01*
X181485000Y-81137142D02*
X181413571Y-81065714D01*
X181199286Y-80922857D01*
X181056429Y-80851428D01*
X180842143Y-80779999D01*
X180485000Y-80708571D01*
X180199286Y-80708571D01*
X179842143Y-80779999D01*
X179627857Y-80851428D01*
X179485000Y-80922857D01*
X179270714Y-81065714D01*
X179199286Y-81137142D01*
X119497143Y-112385715D02*
X119568571Y-112528572D01*
X119568571Y-112814286D01*
X119497143Y-112957144D01*
X119425714Y-113028572D01*
X119282857Y-113100001D01*
X118854286Y-113100001D01*
X118711429Y-113028572D01*
X118640000Y-112957144D01*
X118568571Y-112814286D01*
X118568571Y-112528572D01*
X118640000Y-112385715D01*
X118568571Y-111742858D02*
X120068571Y-111742858D01*
X118640000Y-111742858D02*
X118568571Y-111600001D01*
X118568571Y-111314287D01*
X118640000Y-111171430D01*
X118711429Y-111100001D01*
X118854286Y-111028572D01*
X119282857Y-111028572D01*
X119425714Y-111100001D01*
X119497143Y-111171430D01*
X119568571Y-111314287D01*
X119568571Y-111600001D01*
X119497143Y-111742858D01*
X118568571Y-109742858D02*
X119568571Y-109742858D01*
X118568571Y-110385715D02*
X119354286Y-110385715D01*
X119497143Y-110314287D01*
X119568571Y-110171429D01*
X119568571Y-109957144D01*
X119497143Y-109814287D01*
X119425714Y-109742858D01*
X119711429Y-109385715D02*
X119711429Y-108242858D01*
X119497143Y-107957144D02*
X119568571Y-107814287D01*
X119568571Y-107528572D01*
X119497143Y-107385715D01*
X119354286Y-107314287D01*
X119282857Y-107314287D01*
X119140000Y-107385715D01*
X119068571Y-107528572D01*
X119068571Y-107742858D01*
X118997143Y-107885715D01*
X118854286Y-107957144D01*
X118782857Y-107957144D01*
X118640000Y-107885715D01*
X118568571Y-107742858D01*
X118568571Y-107528572D01*
X118640000Y-107385715D01*
X119568571Y-106457143D02*
X119497143Y-106600001D01*
X119425714Y-106671429D01*
X119282857Y-106742858D01*
X118854286Y-106742858D01*
X118711429Y-106671429D01*
X118640000Y-106600001D01*
X118568571Y-106457143D01*
X118568571Y-106242858D01*
X118640000Y-106100001D01*
X118711429Y-106028572D01*
X118854286Y-105957143D01*
X119282857Y-105957143D01*
X119425714Y-106028572D01*
X119497143Y-106100001D01*
X119568571Y-106242858D01*
X119568571Y-106457143D01*
X119497143Y-104671429D02*
X119568571Y-104814286D01*
X119568571Y-105100000D01*
X119497143Y-105242858D01*
X119425714Y-105314286D01*
X119282857Y-105385715D01*
X118854286Y-105385715D01*
X118711429Y-105314286D01*
X118640000Y-105242858D01*
X118568571Y-105100000D01*
X118568571Y-104814286D01*
X118640000Y-104671429D01*
X119568571Y-104028572D02*
X118068571Y-104028572D01*
X118997143Y-103885715D02*
X119568571Y-103457144D01*
X118568571Y-103457144D02*
X119140000Y-104028572D01*
X119497143Y-102242858D02*
X119568571Y-102385715D01*
X119568571Y-102671429D01*
X119497143Y-102814286D01*
X119354286Y-102885715D01*
X118782857Y-102885715D01*
X118640000Y-102814286D01*
X118568571Y-102671429D01*
X118568571Y-102385715D01*
X118640000Y-102242858D01*
X118782857Y-102171429D01*
X118925714Y-102171429D01*
X119068571Y-102885715D01*
X118568571Y-101742858D02*
X118568571Y-101171429D01*
X118068571Y-101528572D02*
X119354286Y-101528572D01*
X119497143Y-101457144D01*
X119568571Y-101314286D01*
X119568571Y-101171429D01*
X119711429Y-101028572D02*
X119711429Y-99885715D01*
X119568571Y-99528572D02*
X118568571Y-99528572D01*
X118711429Y-99528572D02*
X118640000Y-99457144D01*
X118568571Y-99314286D01*
X118568571Y-99100001D01*
X118640000Y-98957144D01*
X118782857Y-98885715D01*
X119568571Y-98885715D01*
X118782857Y-98885715D02*
X118640000Y-98814286D01*
X118568571Y-98671429D01*
X118568571Y-98457144D01*
X118640000Y-98314286D01*
X118782857Y-98242858D01*
X119568571Y-98242858D01*
X119568571Y-97528572D02*
X118568571Y-97528572D01*
X118068571Y-97528572D02*
X118140000Y-97600001D01*
X118211429Y-97528572D01*
X118140000Y-97457144D01*
X118068571Y-97528572D01*
X118211429Y-97528572D01*
X118568571Y-96814286D02*
X119568571Y-96814286D01*
X118711429Y-96814286D02*
X118640000Y-96742858D01*
X118568571Y-96600000D01*
X118568571Y-96385715D01*
X118640000Y-96242858D01*
X118782857Y-96171429D01*
X119568571Y-96171429D01*
X119568571Y-95457143D02*
X118568571Y-95457143D01*
X118068571Y-95457143D02*
X118140000Y-95528572D01*
X118211429Y-95457143D01*
X118140000Y-95385715D01*
X118068571Y-95457143D01*
X118211429Y-95457143D01*
X119497143Y-94814286D02*
X119568571Y-94671429D01*
X119568571Y-94385714D01*
X119497143Y-94242857D01*
X119354286Y-94171429D01*
X119282857Y-94171429D01*
X119140000Y-94242857D01*
X119068571Y-94385714D01*
X119068571Y-94600000D01*
X118997143Y-94742857D01*
X118854286Y-94814286D01*
X118782857Y-94814286D01*
X118640000Y-94742857D01*
X118568571Y-94600000D01*
X118568571Y-94385714D01*
X118640000Y-94242857D01*
X118568571Y-93528571D02*
X120068571Y-93528571D01*
X118640000Y-93528571D02*
X118568571Y-93385714D01*
X118568571Y-93100000D01*
X118640000Y-92957143D01*
X118711429Y-92885714D01*
X118854286Y-92814285D01*
X119282857Y-92814285D01*
X119425714Y-92885714D01*
X119497143Y-92957143D01*
X119568571Y-93100000D01*
X119568571Y-93385714D01*
X119497143Y-93528571D01*
X119568571Y-91528571D02*
X118782857Y-91528571D01*
X118640000Y-91600000D01*
X118568571Y-91742857D01*
X118568571Y-92028571D01*
X118640000Y-92171428D01*
X119497143Y-91528571D02*
X119568571Y-91671428D01*
X119568571Y-92028571D01*
X119497143Y-92171428D01*
X119354286Y-92242857D01*
X119211429Y-92242857D01*
X119068571Y-92171428D01*
X118997143Y-92028571D01*
X118997143Y-91671428D01*
X118925714Y-91528571D01*
X119568571Y-90814285D02*
X118568571Y-90814285D01*
X118854286Y-90814285D02*
X118711429Y-90742857D01*
X118640000Y-90671428D01*
X118568571Y-90528571D01*
X118568571Y-90385714D01*
X118568571Y-90100000D02*
X118568571Y-89528571D01*
X118068571Y-89885714D02*
X119354286Y-89885714D01*
X119497143Y-89814286D01*
X119568571Y-89671428D01*
X119568571Y-89528571D01*
X119568571Y-88385714D02*
X118782857Y-88385714D01*
X118640000Y-88457143D01*
X118568571Y-88600000D01*
X118568571Y-88885714D01*
X118640000Y-89028571D01*
X119497143Y-88385714D02*
X119568571Y-88528571D01*
X119568571Y-88885714D01*
X119497143Y-89028571D01*
X119354286Y-89100000D01*
X119211429Y-89100000D01*
X119068571Y-89028571D01*
X118997143Y-88885714D01*
X118997143Y-88528571D01*
X118925714Y-88385714D01*
X118568571Y-87671428D02*
X119568571Y-87671428D01*
X118711429Y-87671428D02*
X118640000Y-87600000D01*
X118568571Y-87457142D01*
X118568571Y-87242857D01*
X118640000Y-87100000D01*
X118782857Y-87028571D01*
X119568571Y-87028571D01*
X119711429Y-86671428D02*
X119711429Y-85528571D01*
X119568571Y-84528571D02*
X118068571Y-84528571D01*
X119497143Y-84528571D02*
X119568571Y-84671428D01*
X119568571Y-84957142D01*
X119497143Y-85100000D01*
X119425714Y-85171428D01*
X119282857Y-85242857D01*
X118854286Y-85242857D01*
X118711429Y-85171428D01*
X118640000Y-85100000D01*
X118568571Y-84957142D01*
X118568571Y-84671428D01*
X118640000Y-84528571D01*
X119568571Y-83171428D02*
X118782857Y-83171428D01*
X118640000Y-83242857D01*
X118568571Y-83385714D01*
X118568571Y-83671428D01*
X118640000Y-83814285D01*
X119497143Y-83171428D02*
X119568571Y-83314285D01*
X119568571Y-83671428D01*
X119497143Y-83814285D01*
X119354286Y-83885714D01*
X119211429Y-83885714D01*
X119068571Y-83814285D01*
X118997143Y-83671428D01*
X118997143Y-83314285D01*
X118925714Y-83171428D01*
X118568571Y-81814285D02*
X119568571Y-81814285D01*
X118568571Y-82457142D02*
X119354286Y-82457142D01*
X119497143Y-82385714D01*
X119568571Y-82242856D01*
X119568571Y-82028571D01*
X119497143Y-81885714D01*
X119425714Y-81814285D01*
X118568571Y-80457142D02*
X119782857Y-80457142D01*
X119925714Y-80528571D01*
X119997143Y-80599999D01*
X120068571Y-80742856D01*
X120068571Y-80957142D01*
X119997143Y-81099999D01*
X119497143Y-80457142D02*
X119568571Y-80599999D01*
X119568571Y-80885713D01*
X119497143Y-81028571D01*
X119425714Y-81099999D01*
X119282857Y-81171428D01*
X118854286Y-81171428D01*
X118711429Y-81099999D01*
X118640000Y-81028571D01*
X118568571Y-80885713D01*
X118568571Y-80599999D01*
X118640000Y-80457142D01*
X119568571Y-79742856D02*
X118068571Y-79742856D01*
X119568571Y-79099999D02*
X118782857Y-79099999D01*
X118640000Y-79171428D01*
X118568571Y-79314285D01*
X118568571Y-79528570D01*
X118640000Y-79671428D01*
X118711429Y-79742856D01*
X118568571Y-78599999D02*
X118568571Y-78028570D01*
X118068571Y-78385713D02*
X119354286Y-78385713D01*
X119497143Y-78314285D01*
X119568571Y-78171427D01*
X119568571Y-78028570D01*
X119497143Y-76957142D02*
X119568571Y-77099999D01*
X119568571Y-77385713D01*
X119497143Y-77528570D01*
X119354286Y-77599999D01*
X118782857Y-77599999D01*
X118640000Y-77528570D01*
X118568571Y-77385713D01*
X118568571Y-77099999D01*
X118640000Y-76957142D01*
X118782857Y-76885713D01*
X118925714Y-76885713D01*
X119068571Y-77599999D01*
X119568571Y-76242856D02*
X118568571Y-76242856D01*
X118854286Y-76242856D02*
X118711429Y-76171428D01*
X118640000Y-76099999D01*
X118568571Y-75957142D01*
X118568571Y-75814285D01*
X119568571Y-75314285D02*
X118068571Y-75314285D01*
X118640000Y-75314285D02*
X118568571Y-75171428D01*
X118568571Y-74885714D01*
X118640000Y-74742857D01*
X118711429Y-74671428D01*
X118854286Y-74599999D01*
X119282857Y-74599999D01*
X119425714Y-74671428D01*
X119497143Y-74742857D01*
X119568571Y-74885714D01*
X119568571Y-75171428D01*
X119497143Y-75314285D01*
X119568571Y-73742856D02*
X119497143Y-73885714D01*
X119425714Y-73957142D01*
X119282857Y-74028571D01*
X118854286Y-74028571D01*
X118711429Y-73957142D01*
X118640000Y-73885714D01*
X118568571Y-73742856D01*
X118568571Y-73528571D01*
X118640000Y-73385714D01*
X118711429Y-73314285D01*
X118854286Y-73242856D01*
X119282857Y-73242856D01*
X119425714Y-73314285D01*
X119497143Y-73385714D01*
X119568571Y-73528571D01*
X119568571Y-73742856D01*
X119568571Y-71957142D02*
X118782857Y-71957142D01*
X118640000Y-72028571D01*
X118568571Y-72171428D01*
X118568571Y-72457142D01*
X118640000Y-72599999D01*
X119497143Y-71957142D02*
X119568571Y-72099999D01*
X119568571Y-72457142D01*
X119497143Y-72599999D01*
X119354286Y-72671428D01*
X119211429Y-72671428D01*
X119068571Y-72599999D01*
X118997143Y-72457142D01*
X118997143Y-72099999D01*
X118925714Y-71957142D01*
X119568571Y-71242856D02*
X118568571Y-71242856D01*
X118854286Y-71242856D02*
X118711429Y-71171428D01*
X118640000Y-71099999D01*
X118568571Y-70957142D01*
X118568571Y-70814285D01*
X119568571Y-69671428D02*
X118068571Y-69671428D01*
X119497143Y-69671428D02*
X119568571Y-69814285D01*
X119568571Y-70099999D01*
X119497143Y-70242857D01*
X119425714Y-70314285D01*
X119282857Y-70385714D01*
X118854286Y-70385714D01*
X118711429Y-70314285D01*
X118640000Y-70242857D01*
X118568571Y-70099999D01*
X118568571Y-69814285D01*
X118640000Y-69671428D01*
X121975714Y-105492856D02*
X122047143Y-105564285D01*
X122118571Y-105778571D01*
X122118571Y-105921428D01*
X122047143Y-106135713D01*
X121904286Y-106278571D01*
X121761429Y-106349999D01*
X121475714Y-106421428D01*
X121261429Y-106421428D01*
X120975714Y-106349999D01*
X120832857Y-106278571D01*
X120690000Y-106135713D01*
X120618571Y-105921428D01*
X120618571Y-105778571D01*
X120690000Y-105564285D01*
X120761429Y-105492856D01*
X122118571Y-104635713D02*
X122047143Y-104778571D01*
X121975714Y-104849999D01*
X121832857Y-104921428D01*
X121404286Y-104921428D01*
X121261429Y-104849999D01*
X121190000Y-104778571D01*
X121118571Y-104635713D01*
X121118571Y-104421428D01*
X121190000Y-104278571D01*
X121261429Y-104207142D01*
X121404286Y-104135713D01*
X121832857Y-104135713D01*
X121975714Y-104207142D01*
X122047143Y-104278571D01*
X122118571Y-104421428D01*
X122118571Y-104635713D01*
X121118571Y-103492856D02*
X122618571Y-103492856D01*
X121190000Y-103492856D02*
X121118571Y-103349999D01*
X121118571Y-103064285D01*
X121190000Y-102921428D01*
X121261429Y-102849999D01*
X121404286Y-102778570D01*
X121832857Y-102778570D01*
X121975714Y-102849999D01*
X122047143Y-102921428D01*
X122118571Y-103064285D01*
X122118571Y-103349999D01*
X122047143Y-103492856D01*
X121118571Y-102278570D02*
X122118571Y-101921427D01*
X121118571Y-101564285D02*
X122118571Y-101921427D01*
X122475714Y-102064285D01*
X122547143Y-102135713D01*
X122618571Y-102278570D01*
X122118571Y-100992856D02*
X121118571Y-100992856D01*
X121404286Y-100992856D02*
X121261429Y-100921428D01*
X121190000Y-100849999D01*
X121118571Y-100707142D01*
X121118571Y-100564285D01*
X122118571Y-100064285D02*
X121118571Y-100064285D01*
X120618571Y-100064285D02*
X120690000Y-100135714D01*
X120761429Y-100064285D01*
X120690000Y-99992857D01*
X120618571Y-100064285D01*
X120761429Y-100064285D01*
X121118571Y-98707142D02*
X122332857Y-98707142D01*
X122475714Y-98778571D01*
X122547143Y-98849999D01*
X122618571Y-98992856D01*
X122618571Y-99207142D01*
X122547143Y-99349999D01*
X122047143Y-98707142D02*
X122118571Y-98849999D01*
X122118571Y-99135713D01*
X122047143Y-99278571D01*
X121975714Y-99349999D01*
X121832857Y-99421428D01*
X121404286Y-99421428D01*
X121261429Y-99349999D01*
X121190000Y-99278571D01*
X121118571Y-99135713D01*
X121118571Y-98849999D01*
X121190000Y-98707142D01*
X122118571Y-97992856D02*
X120618571Y-97992856D01*
X122118571Y-97349999D02*
X121332857Y-97349999D01*
X121190000Y-97421428D01*
X121118571Y-97564285D01*
X121118571Y-97778570D01*
X121190000Y-97921428D01*
X121261429Y-97992856D01*
X121118571Y-96849999D02*
X121118571Y-96278570D01*
X120618571Y-96635713D02*
X121904286Y-96635713D01*
X122047143Y-96564285D01*
X122118571Y-96421427D01*
X122118571Y-96278570D01*
X120761429Y-94707142D02*
X120690000Y-94635713D01*
X120618571Y-94492856D01*
X120618571Y-94135713D01*
X120690000Y-93992856D01*
X120761429Y-93921427D01*
X120904286Y-93849999D01*
X121047143Y-93849999D01*
X121261429Y-93921427D01*
X122118571Y-94778570D01*
X122118571Y-93849999D01*
X120618571Y-92921428D02*
X120618571Y-92778571D01*
X120690000Y-92635714D01*
X120761429Y-92564285D01*
X120904286Y-92492856D01*
X121190000Y-92421428D01*
X121547143Y-92421428D01*
X121832857Y-92492856D01*
X121975714Y-92564285D01*
X122047143Y-92635714D01*
X122118571Y-92778571D01*
X122118571Y-92921428D01*
X122047143Y-93064285D01*
X121975714Y-93135714D01*
X121832857Y-93207142D01*
X121547143Y-93278571D01*
X121190000Y-93278571D01*
X120904286Y-93207142D01*
X120761429Y-93135714D01*
X120690000Y-93064285D01*
X120618571Y-92921428D01*
X122118571Y-90992857D02*
X122118571Y-91850000D01*
X122118571Y-91421428D02*
X120618571Y-91421428D01*
X120832857Y-91564285D01*
X120975714Y-91707143D01*
X121047143Y-91850000D01*
X120618571Y-90492857D02*
X120618571Y-89492857D01*
X122118571Y-90135714D01*
X120690000Y-86992858D02*
X120618571Y-87135715D01*
X120618571Y-87350001D01*
X120690000Y-87564286D01*
X120832857Y-87707144D01*
X120975714Y-87778572D01*
X121261429Y-87850001D01*
X121475714Y-87850001D01*
X121761429Y-87778572D01*
X121904286Y-87707144D01*
X122047143Y-87564286D01*
X122118571Y-87350001D01*
X122118571Y-87207144D01*
X122047143Y-86992858D01*
X121975714Y-86921429D01*
X121475714Y-86921429D01*
X121475714Y-87207144D01*
X122118571Y-86064286D02*
X122047143Y-86207144D01*
X121975714Y-86278572D01*
X121832857Y-86350001D01*
X121404286Y-86350001D01*
X121261429Y-86278572D01*
X121190000Y-86207144D01*
X121118571Y-86064286D01*
X121118571Y-85850001D01*
X121190000Y-85707144D01*
X121261429Y-85635715D01*
X121404286Y-85564286D01*
X121832857Y-85564286D01*
X121975714Y-85635715D01*
X122047143Y-85707144D01*
X122118571Y-85850001D01*
X122118571Y-86064286D01*
X122118571Y-84707143D02*
X122047143Y-84850001D01*
X121975714Y-84921429D01*
X121832857Y-84992858D01*
X121404286Y-84992858D01*
X121261429Y-84921429D01*
X121190000Y-84850001D01*
X121118571Y-84707143D01*
X121118571Y-84492858D01*
X121190000Y-84350001D01*
X121261429Y-84278572D01*
X121404286Y-84207143D01*
X121832857Y-84207143D01*
X121975714Y-84278572D01*
X122047143Y-84350001D01*
X122118571Y-84492858D01*
X122118571Y-84707143D01*
X121118571Y-82921429D02*
X122332857Y-82921429D01*
X122475714Y-82992858D01*
X122547143Y-83064286D01*
X122618571Y-83207143D01*
X122618571Y-83421429D01*
X122547143Y-83564286D01*
X122047143Y-82921429D02*
X122118571Y-83064286D01*
X122118571Y-83350000D01*
X122047143Y-83492858D01*
X121975714Y-83564286D01*
X121832857Y-83635715D01*
X121404286Y-83635715D01*
X121261429Y-83564286D01*
X121190000Y-83492858D01*
X121118571Y-83350000D01*
X121118571Y-83064286D01*
X121190000Y-82921429D01*
X122118571Y-81992857D02*
X122047143Y-82135715D01*
X121904286Y-82207143D01*
X120618571Y-82207143D01*
X122047143Y-80850001D02*
X122118571Y-80992858D01*
X122118571Y-81278572D01*
X122047143Y-81421429D01*
X121904286Y-81492858D01*
X121332857Y-81492858D01*
X121190000Y-81421429D01*
X121118571Y-81278572D01*
X121118571Y-80992858D01*
X121190000Y-80850001D01*
X121332857Y-80778572D01*
X121475714Y-80778572D01*
X121618571Y-81492858D01*
X122118571Y-78992858D02*
X120618571Y-78992858D01*
X121118571Y-78278572D02*
X122118571Y-78278572D01*
X121261429Y-78278572D02*
X121190000Y-78207144D01*
X121118571Y-78064286D01*
X121118571Y-77850001D01*
X121190000Y-77707144D01*
X121332857Y-77635715D01*
X122118571Y-77635715D01*
X122047143Y-76278572D02*
X122118571Y-76421429D01*
X122118571Y-76707143D01*
X122047143Y-76850001D01*
X121975714Y-76921429D01*
X121832857Y-76992858D01*
X121404286Y-76992858D01*
X121261429Y-76921429D01*
X121190000Y-76850001D01*
X121118571Y-76707143D01*
X121118571Y-76421429D01*
X121190000Y-76278572D01*
X123668571Y-121064286D02*
X124882857Y-121064286D01*
X125025714Y-121135715D01*
X125097143Y-121207143D01*
X125168571Y-121350000D01*
X125168571Y-121564286D01*
X125097143Y-121707143D01*
X124597143Y-121064286D02*
X124668571Y-121207143D01*
X124668571Y-121492857D01*
X124597143Y-121635715D01*
X124525714Y-121707143D01*
X124382857Y-121778572D01*
X123954286Y-121778572D01*
X123811429Y-121707143D01*
X123740000Y-121635715D01*
X123668571Y-121492857D01*
X123668571Y-121207143D01*
X123740000Y-121064286D01*
X124668571Y-120350000D02*
X123668571Y-120350000D01*
X123168571Y-120350000D02*
X123240000Y-120421429D01*
X123311429Y-120350000D01*
X123240000Y-120278572D01*
X123168571Y-120350000D01*
X123311429Y-120350000D01*
X123668571Y-119850000D02*
X123668571Y-119278571D01*
X123168571Y-119635714D02*
X124454286Y-119635714D01*
X124597143Y-119564286D01*
X124668571Y-119421428D01*
X124668571Y-119278571D01*
X124668571Y-118778571D02*
X123168571Y-118778571D01*
X124668571Y-118135714D02*
X123882857Y-118135714D01*
X123740000Y-118207143D01*
X123668571Y-118350000D01*
X123668571Y-118564285D01*
X123740000Y-118707143D01*
X123811429Y-118778571D01*
X123668571Y-116778571D02*
X124668571Y-116778571D01*
X123668571Y-117421428D02*
X124454286Y-117421428D01*
X124597143Y-117350000D01*
X124668571Y-117207142D01*
X124668571Y-116992857D01*
X124597143Y-116850000D01*
X124525714Y-116778571D01*
X124668571Y-116064285D02*
X123168571Y-116064285D01*
X123740000Y-116064285D02*
X123668571Y-115921428D01*
X123668571Y-115635714D01*
X123740000Y-115492857D01*
X123811429Y-115421428D01*
X123954286Y-115349999D01*
X124382857Y-115349999D01*
X124525714Y-115421428D01*
X124597143Y-115492857D01*
X124668571Y-115635714D01*
X124668571Y-115921428D01*
X124597143Y-116064285D01*
X124525714Y-114707142D02*
X124597143Y-114635714D01*
X124668571Y-114707142D01*
X124597143Y-114778571D01*
X124525714Y-114707142D01*
X124668571Y-114707142D01*
X124597143Y-113349999D02*
X124668571Y-113492856D01*
X124668571Y-113778570D01*
X124597143Y-113921428D01*
X124525714Y-113992856D01*
X124382857Y-114064285D01*
X123954286Y-114064285D01*
X123811429Y-113992856D01*
X123740000Y-113921428D01*
X123668571Y-113778570D01*
X123668571Y-113492856D01*
X123740000Y-113349999D01*
X124668571Y-112492856D02*
X124597143Y-112635714D01*
X124525714Y-112707142D01*
X124382857Y-112778571D01*
X123954286Y-112778571D01*
X123811429Y-112707142D01*
X123740000Y-112635714D01*
X123668571Y-112492856D01*
X123668571Y-112278571D01*
X123740000Y-112135714D01*
X123811429Y-112064285D01*
X123954286Y-111992856D01*
X124382857Y-111992856D01*
X124525714Y-112064285D01*
X124597143Y-112135714D01*
X124668571Y-112278571D01*
X124668571Y-112492856D01*
X124668571Y-111349999D02*
X123668571Y-111349999D01*
X123811429Y-111349999D02*
X123740000Y-111278571D01*
X123668571Y-111135713D01*
X123668571Y-110921428D01*
X123740000Y-110778571D01*
X123882857Y-110707142D01*
X124668571Y-110707142D01*
X123882857Y-110707142D02*
X123740000Y-110635713D01*
X123668571Y-110492856D01*
X123668571Y-110278571D01*
X123740000Y-110135713D01*
X123882857Y-110064285D01*
X124668571Y-110064285D01*
X123097143Y-108278571D02*
X125025714Y-109564285D01*
X123668571Y-107135713D02*
X124882857Y-107135713D01*
X125025714Y-107207142D01*
X125097143Y-107278570D01*
X125168571Y-107421427D01*
X125168571Y-107635713D01*
X125097143Y-107778570D01*
X124597143Y-107135713D02*
X124668571Y-107278570D01*
X124668571Y-107564284D01*
X124597143Y-107707142D01*
X124525714Y-107778570D01*
X124382857Y-107849999D01*
X123954286Y-107849999D01*
X123811429Y-107778570D01*
X123740000Y-107707142D01*
X123668571Y-107564284D01*
X123668571Y-107278570D01*
X123740000Y-107135713D01*
X124668571Y-106207141D02*
X124597143Y-106349999D01*
X124525714Y-106421427D01*
X124382857Y-106492856D01*
X123954286Y-106492856D01*
X123811429Y-106421427D01*
X123740000Y-106349999D01*
X123668571Y-106207141D01*
X123668571Y-105992856D01*
X123740000Y-105849999D01*
X123811429Y-105778570D01*
X123954286Y-105707141D01*
X124382857Y-105707141D01*
X124525714Y-105778570D01*
X124597143Y-105849999D01*
X124668571Y-105992856D01*
X124668571Y-106207141D01*
X124668571Y-104849998D02*
X124597143Y-104992856D01*
X124525714Y-105064284D01*
X124382857Y-105135713D01*
X123954286Y-105135713D01*
X123811429Y-105064284D01*
X123740000Y-104992856D01*
X123668571Y-104849998D01*
X123668571Y-104635713D01*
X123740000Y-104492856D01*
X123811429Y-104421427D01*
X123954286Y-104349998D01*
X124382857Y-104349998D01*
X124525714Y-104421427D01*
X124597143Y-104492856D01*
X124668571Y-104635713D01*
X124668571Y-104849998D01*
X123668571Y-103064284D02*
X124882857Y-103064284D01*
X125025714Y-103135713D01*
X125097143Y-103207141D01*
X125168571Y-103349998D01*
X125168571Y-103564284D01*
X125097143Y-103707141D01*
X124597143Y-103064284D02*
X124668571Y-103207141D01*
X124668571Y-103492855D01*
X124597143Y-103635713D01*
X124525714Y-103707141D01*
X124382857Y-103778570D01*
X123954286Y-103778570D01*
X123811429Y-103707141D01*
X123740000Y-103635713D01*
X123668571Y-103492855D01*
X123668571Y-103207141D01*
X123740000Y-103064284D01*
X124668571Y-102135712D02*
X124597143Y-102278570D01*
X124454286Y-102349998D01*
X123168571Y-102349998D01*
X124597143Y-100992856D02*
X124668571Y-101135713D01*
X124668571Y-101421427D01*
X124597143Y-101564284D01*
X124454286Y-101635713D01*
X123882857Y-101635713D01*
X123740000Y-101564284D01*
X123668571Y-101421427D01*
X123668571Y-101135713D01*
X123740000Y-100992856D01*
X123882857Y-100921427D01*
X124025714Y-100921427D01*
X124168571Y-101635713D01*
X123097143Y-99207142D02*
X125025714Y-100492856D01*
X124668571Y-98707141D02*
X123668571Y-98707141D01*
X123811429Y-98707141D02*
X123740000Y-98635713D01*
X123668571Y-98492855D01*
X123668571Y-98278570D01*
X123740000Y-98135713D01*
X123882857Y-98064284D01*
X124668571Y-98064284D01*
X123882857Y-98064284D02*
X123740000Y-97992855D01*
X123668571Y-97849998D01*
X123668571Y-97635713D01*
X123740000Y-97492855D01*
X123882857Y-97421427D01*
X124668571Y-97421427D01*
X123668571Y-96849998D02*
X124668571Y-96492855D01*
X123668571Y-96135713D02*
X124668571Y-96492855D01*
X125025714Y-96635713D01*
X125097143Y-96707141D01*
X125168571Y-96849998D01*
X124597143Y-94992856D02*
X124668571Y-95135713D01*
X124668571Y-95421427D01*
X124597143Y-95564284D01*
X124454286Y-95635713D01*
X123882857Y-95635713D01*
X123740000Y-95564284D01*
X123668571Y-95421427D01*
X123668571Y-95135713D01*
X123740000Y-94992856D01*
X123882857Y-94921427D01*
X124025714Y-94921427D01*
X124168571Y-95635713D01*
X124668571Y-94064284D02*
X124597143Y-94207142D01*
X124454286Y-94278570D01*
X123168571Y-94278570D01*
X124668571Y-93492856D02*
X123668571Y-93492856D01*
X123168571Y-93492856D02*
X123240000Y-93564285D01*
X123311429Y-93492856D01*
X123240000Y-93421428D01*
X123168571Y-93492856D01*
X123311429Y-93492856D01*
X123668571Y-92778570D02*
X124668571Y-92778570D01*
X123811429Y-92778570D02*
X123740000Y-92707142D01*
X123668571Y-92564284D01*
X123668571Y-92349999D01*
X123740000Y-92207142D01*
X123882857Y-92135713D01*
X124668571Y-92135713D01*
X124097143Y-91421427D02*
X124097143Y-90278570D01*
X124668571Y-88921427D02*
X123882857Y-88921427D01*
X123740000Y-88992856D01*
X123668571Y-89135713D01*
X123668571Y-89421427D01*
X123740000Y-89564284D01*
X124597143Y-88921427D02*
X124668571Y-89064284D01*
X124668571Y-89421427D01*
X124597143Y-89564284D01*
X124454286Y-89635713D01*
X124311429Y-89635713D01*
X124168571Y-89564284D01*
X124097143Y-89421427D01*
X124097143Y-89064284D01*
X124025714Y-88921427D01*
X124597143Y-87564284D02*
X124668571Y-87707141D01*
X124668571Y-87992855D01*
X124597143Y-88135713D01*
X124525714Y-88207141D01*
X124382857Y-88278570D01*
X123954286Y-88278570D01*
X123811429Y-88207141D01*
X123740000Y-88135713D01*
X123668571Y-87992855D01*
X123668571Y-87707141D01*
X123740000Y-87564284D01*
X124668571Y-86707141D02*
X124597143Y-86849999D01*
X124525714Y-86921427D01*
X124382857Y-86992856D01*
X123954286Y-86992856D01*
X123811429Y-86921427D01*
X123740000Y-86849999D01*
X123668571Y-86707141D01*
X123668571Y-86492856D01*
X123740000Y-86349999D01*
X123811429Y-86278570D01*
X123954286Y-86207141D01*
X124382857Y-86207141D01*
X124525714Y-86278570D01*
X124597143Y-86349999D01*
X124668571Y-86492856D01*
X124668571Y-86707141D01*
X124668571Y-85564284D02*
X123668571Y-85564284D01*
X123954286Y-85564284D02*
X123811429Y-85492856D01*
X123740000Y-85421427D01*
X123668571Y-85278570D01*
X123668571Y-85135713D01*
X123668571Y-84635713D02*
X124668571Y-84635713D01*
X123811429Y-84635713D02*
X123740000Y-84564285D01*
X123668571Y-84421427D01*
X123668571Y-84207142D01*
X123740000Y-84064285D01*
X123882857Y-83992856D01*
X124668571Y-83992856D01*
X124097143Y-83278570D02*
X124097143Y-82135713D01*
X124597143Y-80849999D02*
X124668571Y-80992856D01*
X124668571Y-81278570D01*
X124597143Y-81421427D01*
X124454286Y-81492856D01*
X123882857Y-81492856D01*
X123740000Y-81421427D01*
X123668571Y-81278570D01*
X123668571Y-80992856D01*
X123740000Y-80849999D01*
X123882857Y-80778570D01*
X124025714Y-80778570D01*
X124168571Y-81492856D01*
X124668571Y-79921427D02*
X124597143Y-80064285D01*
X124454286Y-80135713D01*
X123168571Y-80135713D01*
X124597143Y-78778571D02*
X124668571Y-78921428D01*
X124668571Y-79207142D01*
X124597143Y-79349999D01*
X124454286Y-79421428D01*
X123882857Y-79421428D01*
X123740000Y-79349999D01*
X123668571Y-79207142D01*
X123668571Y-78921428D01*
X123740000Y-78778571D01*
X123882857Y-78707142D01*
X124025714Y-78707142D01*
X124168571Y-79421428D01*
X124597143Y-77421428D02*
X124668571Y-77564285D01*
X124668571Y-77849999D01*
X124597143Y-77992857D01*
X124525714Y-78064285D01*
X124382857Y-78135714D01*
X123954286Y-78135714D01*
X123811429Y-78064285D01*
X123740000Y-77992857D01*
X123668571Y-77849999D01*
X123668571Y-77564285D01*
X123740000Y-77421428D01*
X123668571Y-76992857D02*
X123668571Y-76421428D01*
X123168571Y-76778571D02*
X124454286Y-76778571D01*
X124597143Y-76707143D01*
X124668571Y-76564285D01*
X124668571Y-76421428D01*
X124668571Y-75921428D02*
X123668571Y-75921428D01*
X123954286Y-75921428D02*
X123811429Y-75850000D01*
X123740000Y-75778571D01*
X123668571Y-75635714D01*
X123668571Y-75492857D01*
X124668571Y-74778571D02*
X124597143Y-74921429D01*
X124525714Y-74992857D01*
X124382857Y-75064286D01*
X123954286Y-75064286D01*
X123811429Y-74992857D01*
X123740000Y-74921429D01*
X123668571Y-74778571D01*
X123668571Y-74564286D01*
X123740000Y-74421429D01*
X123811429Y-74350000D01*
X123954286Y-74278571D01*
X124382857Y-74278571D01*
X124525714Y-74350000D01*
X124597143Y-74421429D01*
X124668571Y-74564286D01*
X124668571Y-74778571D01*
X123668571Y-73635714D02*
X124668571Y-73635714D01*
X123811429Y-73635714D02*
X123740000Y-73564286D01*
X123668571Y-73421428D01*
X123668571Y-73207143D01*
X123740000Y-73064286D01*
X123882857Y-72992857D01*
X124668571Y-72992857D01*
X124097143Y-72278571D02*
X124097143Y-71135714D01*
X124668571Y-70421428D02*
X123168571Y-70421428D01*
X124668571Y-69778571D02*
X123882857Y-69778571D01*
X123740000Y-69850000D01*
X123668571Y-69992857D01*
X123668571Y-70207142D01*
X123740000Y-70350000D01*
X123811429Y-70421428D01*
X124668571Y-68421428D02*
X123882857Y-68421428D01*
X123740000Y-68492857D01*
X123668571Y-68635714D01*
X123668571Y-68921428D01*
X123740000Y-69064285D01*
X124597143Y-68421428D02*
X124668571Y-68564285D01*
X124668571Y-68921428D01*
X124597143Y-69064285D01*
X124454286Y-69135714D01*
X124311429Y-69135714D01*
X124168571Y-69064285D01*
X124097143Y-68921428D01*
X124097143Y-68564285D01*
X124025714Y-68421428D01*
X124668571Y-67707142D02*
X123668571Y-67707142D01*
X123954286Y-67707142D02*
X123811429Y-67635714D01*
X123740000Y-67564285D01*
X123668571Y-67421428D01*
X123668571Y-67278571D01*
X124668571Y-66135714D02*
X123168571Y-66135714D01*
X124597143Y-66135714D02*
X124668571Y-66278571D01*
X124668571Y-66564285D01*
X124597143Y-66707143D01*
X124525714Y-66778571D01*
X124382857Y-66850000D01*
X123954286Y-66850000D01*
X123811429Y-66778571D01*
X123740000Y-66707143D01*
X123668571Y-66564285D01*
X123668571Y-66278571D01*
X123740000Y-66135714D01*
X123668571Y-65564285D02*
X124668571Y-65278571D01*
X123954286Y-64992857D01*
X124668571Y-64707142D01*
X123668571Y-64421428D01*
X124668571Y-63207142D02*
X123882857Y-63207142D01*
X123740000Y-63278571D01*
X123668571Y-63421428D01*
X123668571Y-63707142D01*
X123740000Y-63849999D01*
X124597143Y-63207142D02*
X124668571Y-63349999D01*
X124668571Y-63707142D01*
X124597143Y-63849999D01*
X124454286Y-63921428D01*
X124311429Y-63921428D01*
X124168571Y-63849999D01*
X124097143Y-63707142D01*
X124097143Y-63349999D01*
X124025714Y-63207142D01*
X124668571Y-62492856D02*
X123668571Y-62492856D01*
X123954286Y-62492856D02*
X123811429Y-62421428D01*
X123740000Y-62349999D01*
X123668571Y-62207142D01*
X123668571Y-62064285D01*
X124597143Y-60992857D02*
X124668571Y-61135714D01*
X124668571Y-61421428D01*
X124597143Y-61564285D01*
X124454286Y-61635714D01*
X123882857Y-61635714D01*
X123740000Y-61564285D01*
X123668571Y-61421428D01*
X123668571Y-61135714D01*
X123740000Y-60992857D01*
X123882857Y-60921428D01*
X124025714Y-60921428D01*
X124168571Y-61635714D01*
X127218571Y-107100000D02*
X125718571Y-107100000D01*
X125718571Y-106742857D01*
X125790000Y-106528572D01*
X125932857Y-106385714D01*
X126075714Y-106314286D01*
X126361429Y-106242857D01*
X126575714Y-106242857D01*
X126861429Y-106314286D01*
X127004286Y-106385714D01*
X127147143Y-106528572D01*
X127218571Y-106742857D01*
X127218571Y-107100000D01*
X127147143Y-105028572D02*
X127218571Y-105171429D01*
X127218571Y-105457143D01*
X127147143Y-105600000D01*
X127004286Y-105671429D01*
X126432857Y-105671429D01*
X126290000Y-105600000D01*
X126218571Y-105457143D01*
X126218571Y-105171429D01*
X126290000Y-105028572D01*
X126432857Y-104957143D01*
X126575714Y-104957143D01*
X126718571Y-105671429D01*
X127147143Y-104385715D02*
X127218571Y-104242858D01*
X127218571Y-103957143D01*
X127147143Y-103814286D01*
X127004286Y-103742858D01*
X126932857Y-103742858D01*
X126790000Y-103814286D01*
X126718571Y-103957143D01*
X126718571Y-104171429D01*
X126647143Y-104314286D01*
X126504286Y-104385715D01*
X126432857Y-104385715D01*
X126290000Y-104314286D01*
X126218571Y-104171429D01*
X126218571Y-103957143D01*
X126290000Y-103814286D01*
X127218571Y-103100000D02*
X126218571Y-103100000D01*
X125718571Y-103100000D02*
X125790000Y-103171429D01*
X125861429Y-103100000D01*
X125790000Y-103028572D01*
X125718571Y-103100000D01*
X125861429Y-103100000D01*
X126218571Y-101742857D02*
X127432857Y-101742857D01*
X127575714Y-101814286D01*
X127647143Y-101885714D01*
X127718571Y-102028571D01*
X127718571Y-102242857D01*
X127647143Y-102385714D01*
X127147143Y-101742857D02*
X127218571Y-101885714D01*
X127218571Y-102171428D01*
X127147143Y-102314286D01*
X127075714Y-102385714D01*
X126932857Y-102457143D01*
X126504286Y-102457143D01*
X126361429Y-102385714D01*
X126290000Y-102314286D01*
X126218571Y-102171428D01*
X126218571Y-101885714D01*
X126290000Y-101742857D01*
X126218571Y-101028571D02*
X127218571Y-101028571D01*
X126361429Y-101028571D02*
X126290000Y-100957143D01*
X126218571Y-100814285D01*
X126218571Y-100600000D01*
X126290000Y-100457143D01*
X126432857Y-100385714D01*
X127218571Y-100385714D01*
X127147143Y-99100000D02*
X127218571Y-99242857D01*
X127218571Y-99528571D01*
X127147143Y-99671428D01*
X127004286Y-99742857D01*
X126432857Y-99742857D01*
X126290000Y-99671428D01*
X126218571Y-99528571D01*
X126218571Y-99242857D01*
X126290000Y-99100000D01*
X126432857Y-99028571D01*
X126575714Y-99028571D01*
X126718571Y-99742857D01*
X127218571Y-97742857D02*
X125718571Y-97742857D01*
X127147143Y-97742857D02*
X127218571Y-97885714D01*
X127218571Y-98171428D01*
X127147143Y-98314286D01*
X127075714Y-98385714D01*
X126932857Y-98457143D01*
X126504286Y-98457143D01*
X126361429Y-98385714D01*
X126290000Y-98314286D01*
X126218571Y-98171428D01*
X126218571Y-97885714D01*
X126290000Y-97742857D01*
X127218571Y-95885714D02*
X125718571Y-95885714D01*
X126290000Y-95885714D02*
X126218571Y-95742857D01*
X126218571Y-95457143D01*
X126290000Y-95314286D01*
X126361429Y-95242857D01*
X126504286Y-95171428D01*
X126932857Y-95171428D01*
X127075714Y-95242857D01*
X127147143Y-95314286D01*
X127218571Y-95457143D01*
X127218571Y-95742857D01*
X127147143Y-95885714D01*
X126218571Y-94671428D02*
X127218571Y-94314285D01*
X126218571Y-93957143D02*
X127218571Y-94314285D01*
X127575714Y-94457143D01*
X127647143Y-94528571D01*
X127718571Y-94671428D01*
X127218571Y-92242857D02*
X125718571Y-92242857D01*
X125718571Y-91671429D01*
X125790000Y-91528571D01*
X125861429Y-91457143D01*
X126004286Y-91385714D01*
X126218571Y-91385714D01*
X126361429Y-91457143D01*
X126432857Y-91528571D01*
X126504286Y-91671429D01*
X126504286Y-92242857D01*
X127218571Y-90742857D02*
X125718571Y-90742857D01*
X127218571Y-90100000D02*
X126432857Y-90100000D01*
X126290000Y-90171429D01*
X126218571Y-90314286D01*
X126218571Y-90528571D01*
X126290000Y-90671429D01*
X126361429Y-90742857D01*
X127218571Y-89385714D02*
X126218571Y-89385714D01*
X125718571Y-89385714D02*
X125790000Y-89457143D01*
X125861429Y-89385714D01*
X125790000Y-89314286D01*
X125718571Y-89385714D01*
X125861429Y-89385714D01*
X127218571Y-88457142D02*
X127147143Y-88600000D01*
X127004286Y-88671428D01*
X125718571Y-88671428D01*
X127218571Y-87671428D02*
X127147143Y-87814286D01*
X127004286Y-87885714D01*
X125718571Y-87885714D01*
X127218571Y-87100000D02*
X126218571Y-87100000D01*
X125718571Y-87100000D02*
X125790000Y-87171429D01*
X125861429Y-87100000D01*
X125790000Y-87028572D01*
X125718571Y-87100000D01*
X125861429Y-87100000D01*
X126218571Y-86385714D02*
X127718571Y-86385714D01*
X126290000Y-86385714D02*
X126218571Y-86242857D01*
X126218571Y-85957143D01*
X126290000Y-85814286D01*
X126361429Y-85742857D01*
X126504286Y-85671428D01*
X126932857Y-85671428D01*
X127075714Y-85742857D01*
X127147143Y-85814286D01*
X127218571Y-85957143D01*
X127218571Y-86242857D01*
X127147143Y-86385714D01*
X127218571Y-83885714D02*
X125718571Y-83885714D01*
X125718571Y-83314286D01*
X125790000Y-83171428D01*
X125861429Y-83100000D01*
X126004286Y-83028571D01*
X126218571Y-83028571D01*
X126361429Y-83100000D01*
X126432857Y-83171428D01*
X126504286Y-83314286D01*
X126504286Y-83885714D01*
X127147143Y-81814286D02*
X127218571Y-81957143D01*
X127218571Y-82242857D01*
X127147143Y-82385714D01*
X127004286Y-82457143D01*
X126432857Y-82457143D01*
X126290000Y-82385714D01*
X126218571Y-82242857D01*
X126218571Y-81957143D01*
X126290000Y-81814286D01*
X126432857Y-81742857D01*
X126575714Y-81742857D01*
X126718571Y-82457143D01*
X127218571Y-80457143D02*
X126432857Y-80457143D01*
X126290000Y-80528572D01*
X126218571Y-80671429D01*
X126218571Y-80957143D01*
X126290000Y-81100000D01*
X127147143Y-80457143D02*
X127218571Y-80600000D01*
X127218571Y-80957143D01*
X127147143Y-81100000D01*
X127004286Y-81171429D01*
X126861429Y-81171429D01*
X126718571Y-81100000D01*
X126647143Y-80957143D01*
X126647143Y-80600000D01*
X126575714Y-80457143D01*
X127218571Y-79742857D02*
X126218571Y-79742857D01*
X126504286Y-79742857D02*
X126361429Y-79671429D01*
X126290000Y-79600000D01*
X126218571Y-79457143D01*
X126218571Y-79314286D01*
X127147143Y-78885715D02*
X127218571Y-78742858D01*
X127218571Y-78457143D01*
X127147143Y-78314286D01*
X127004286Y-78242858D01*
X126932857Y-78242858D01*
X126790000Y-78314286D01*
X126718571Y-78457143D01*
X126718571Y-78671429D01*
X126647143Y-78814286D01*
X126504286Y-78885715D01*
X126432857Y-78885715D01*
X126290000Y-78814286D01*
X126218571Y-78671429D01*
X126218571Y-78457143D01*
X126290000Y-78314286D01*
X127218571Y-77385714D02*
X127147143Y-77528572D01*
X127075714Y-77600000D01*
X126932857Y-77671429D01*
X126504286Y-77671429D01*
X126361429Y-77600000D01*
X126290000Y-77528572D01*
X126218571Y-77385714D01*
X126218571Y-77171429D01*
X126290000Y-77028572D01*
X126361429Y-76957143D01*
X126504286Y-76885714D01*
X126932857Y-76885714D01*
X127075714Y-76957143D01*
X127147143Y-77028572D01*
X127218571Y-77171429D01*
X127218571Y-77385714D01*
X126218571Y-76242857D02*
X127218571Y-76242857D01*
X126361429Y-76242857D02*
X126290000Y-76171429D01*
X126218571Y-76028571D01*
X126218571Y-75814286D01*
X126290000Y-75671429D01*
X126432857Y-75600000D01*
X127218571Y-75600000D01*
X130818571Y-118135715D02*
X130818571Y-117278572D01*
X132318571Y-117707143D02*
X130818571Y-117707143D01*
X132318571Y-116778572D02*
X130818571Y-116778572D01*
X132318571Y-116135715D02*
X131532857Y-116135715D01*
X131390000Y-116207144D01*
X131318571Y-116350001D01*
X131318571Y-116564286D01*
X131390000Y-116707144D01*
X131461429Y-116778572D01*
X132318571Y-115421429D02*
X131318571Y-115421429D01*
X130818571Y-115421429D02*
X130890000Y-115492858D01*
X130961429Y-115421429D01*
X130890000Y-115350001D01*
X130818571Y-115421429D01*
X130961429Y-115421429D01*
X132247143Y-114778572D02*
X132318571Y-114635715D01*
X132318571Y-114350000D01*
X132247143Y-114207143D01*
X132104286Y-114135715D01*
X132032857Y-114135715D01*
X131890000Y-114207143D01*
X131818571Y-114350000D01*
X131818571Y-114564286D01*
X131747143Y-114707143D01*
X131604286Y-114778572D01*
X131532857Y-114778572D01*
X131390000Y-114707143D01*
X131318571Y-114564286D01*
X131318571Y-114350000D01*
X131390000Y-114207143D01*
X132318571Y-112350000D02*
X130818571Y-112350000D01*
X131390000Y-112350000D02*
X131318571Y-112207143D01*
X131318571Y-111921429D01*
X131390000Y-111778572D01*
X131461429Y-111707143D01*
X131604286Y-111635714D01*
X132032857Y-111635714D01*
X132175714Y-111707143D01*
X132247143Y-111778572D01*
X132318571Y-111921429D01*
X132318571Y-112207143D01*
X132247143Y-112350000D01*
X132318571Y-110778571D02*
X132247143Y-110921429D01*
X132175714Y-110992857D01*
X132032857Y-111064286D01*
X131604286Y-111064286D01*
X131461429Y-110992857D01*
X131390000Y-110921429D01*
X131318571Y-110778571D01*
X131318571Y-110564286D01*
X131390000Y-110421429D01*
X131461429Y-110350000D01*
X131604286Y-110278571D01*
X132032857Y-110278571D01*
X132175714Y-110350000D01*
X132247143Y-110421429D01*
X132318571Y-110564286D01*
X132318571Y-110778571D01*
X132318571Y-108992857D02*
X131532857Y-108992857D01*
X131390000Y-109064286D01*
X131318571Y-109207143D01*
X131318571Y-109492857D01*
X131390000Y-109635714D01*
X132247143Y-108992857D02*
X132318571Y-109135714D01*
X132318571Y-109492857D01*
X132247143Y-109635714D01*
X132104286Y-109707143D01*
X131961429Y-109707143D01*
X131818571Y-109635714D01*
X131747143Y-109492857D01*
X131747143Y-109135714D01*
X131675714Y-108992857D01*
X132318571Y-108278571D02*
X131318571Y-108278571D01*
X131604286Y-108278571D02*
X131461429Y-108207143D01*
X131390000Y-108135714D01*
X131318571Y-107992857D01*
X131318571Y-107850000D01*
X132318571Y-106707143D02*
X130818571Y-106707143D01*
X132247143Y-106707143D02*
X132318571Y-106850000D01*
X132318571Y-107135714D01*
X132247143Y-107278572D01*
X132175714Y-107350000D01*
X132032857Y-107421429D01*
X131604286Y-107421429D01*
X131461429Y-107350000D01*
X131390000Y-107278572D01*
X131318571Y-107135714D01*
X131318571Y-106850000D01*
X131390000Y-106707143D01*
X132318571Y-104207143D02*
X131532857Y-104207143D01*
X131390000Y-104278572D01*
X131318571Y-104421429D01*
X131318571Y-104707143D01*
X131390000Y-104850000D01*
X132247143Y-104207143D02*
X132318571Y-104350000D01*
X132318571Y-104707143D01*
X132247143Y-104850000D01*
X132104286Y-104921429D01*
X131961429Y-104921429D01*
X131818571Y-104850000D01*
X131747143Y-104707143D01*
X131747143Y-104350000D01*
X131675714Y-104207143D01*
X132318571Y-103278571D02*
X132247143Y-103421429D01*
X132104286Y-103492857D01*
X130818571Y-103492857D01*
X132318571Y-102492857D02*
X132247143Y-102635715D01*
X132104286Y-102707143D01*
X130818571Y-102707143D01*
X132318571Y-101707143D02*
X132247143Y-101850001D01*
X132175714Y-101921429D01*
X132032857Y-101992858D01*
X131604286Y-101992858D01*
X131461429Y-101921429D01*
X131390000Y-101850001D01*
X131318571Y-101707143D01*
X131318571Y-101492858D01*
X131390000Y-101350001D01*
X131461429Y-101278572D01*
X131604286Y-101207143D01*
X132032857Y-101207143D01*
X132175714Y-101278572D01*
X132247143Y-101350001D01*
X132318571Y-101492858D01*
X132318571Y-101707143D01*
X131318571Y-100707143D02*
X132318571Y-100421429D01*
X131604286Y-100135715D01*
X132318571Y-99850000D01*
X131318571Y-99564286D01*
X132247143Y-99064286D02*
X132318571Y-98921429D01*
X132318571Y-98635714D01*
X132247143Y-98492857D01*
X132104286Y-98421429D01*
X132032857Y-98421429D01*
X131890000Y-98492857D01*
X131818571Y-98635714D01*
X131818571Y-98850000D01*
X131747143Y-98992857D01*
X131604286Y-99064286D01*
X131532857Y-99064286D01*
X131390000Y-98992857D01*
X131318571Y-98850000D01*
X131318571Y-98635714D01*
X131390000Y-98492857D01*
X132247143Y-95992857D02*
X132318571Y-96135714D01*
X132318571Y-96421428D01*
X132247143Y-96564286D01*
X132175714Y-96635714D01*
X132032857Y-96707143D01*
X131604286Y-96707143D01*
X131461429Y-96635714D01*
X131390000Y-96564286D01*
X131318571Y-96421428D01*
X131318571Y-96135714D01*
X131390000Y-95992857D01*
X132318571Y-95135714D02*
X132247143Y-95278572D01*
X132175714Y-95350000D01*
X132032857Y-95421429D01*
X131604286Y-95421429D01*
X131461429Y-95350000D01*
X131390000Y-95278572D01*
X131318571Y-95135714D01*
X131318571Y-94921429D01*
X131390000Y-94778572D01*
X131461429Y-94707143D01*
X131604286Y-94635714D01*
X132032857Y-94635714D01*
X132175714Y-94707143D01*
X132247143Y-94778572D01*
X132318571Y-94921429D01*
X132318571Y-95135714D01*
X131318571Y-93992857D02*
X132318571Y-93992857D01*
X131461429Y-93992857D02*
X131390000Y-93921429D01*
X131318571Y-93778571D01*
X131318571Y-93564286D01*
X131390000Y-93421429D01*
X131532857Y-93350000D01*
X132318571Y-93350000D01*
X131318571Y-92635714D02*
X132318571Y-92635714D01*
X131461429Y-92635714D02*
X131390000Y-92564286D01*
X131318571Y-92421428D01*
X131318571Y-92207143D01*
X131390000Y-92064286D01*
X131532857Y-91992857D01*
X132318571Y-91992857D01*
X132247143Y-90707143D02*
X132318571Y-90850000D01*
X132318571Y-91135714D01*
X132247143Y-91278571D01*
X132104286Y-91350000D01*
X131532857Y-91350000D01*
X131390000Y-91278571D01*
X131318571Y-91135714D01*
X131318571Y-90850000D01*
X131390000Y-90707143D01*
X131532857Y-90635714D01*
X131675714Y-90635714D01*
X131818571Y-91350000D01*
X132247143Y-89350000D02*
X132318571Y-89492857D01*
X132318571Y-89778571D01*
X132247143Y-89921429D01*
X132175714Y-89992857D01*
X132032857Y-90064286D01*
X131604286Y-90064286D01*
X131461429Y-89992857D01*
X131390000Y-89921429D01*
X131318571Y-89778571D01*
X131318571Y-89492857D01*
X131390000Y-89350000D01*
X131318571Y-88921429D02*
X131318571Y-88350000D01*
X130818571Y-88707143D02*
X132104286Y-88707143D01*
X132247143Y-88635715D01*
X132318571Y-88492857D01*
X132318571Y-88350000D01*
X132318571Y-87850000D02*
X131318571Y-87850000D01*
X130818571Y-87850000D02*
X130890000Y-87921429D01*
X130961429Y-87850000D01*
X130890000Y-87778572D01*
X130818571Y-87850000D01*
X130961429Y-87850000D01*
X131318571Y-87135714D02*
X132318571Y-87135714D01*
X131461429Y-87135714D02*
X131390000Y-87064286D01*
X131318571Y-86921428D01*
X131318571Y-86707143D01*
X131390000Y-86564286D01*
X131532857Y-86492857D01*
X132318571Y-86492857D01*
X131318571Y-85135714D02*
X132532857Y-85135714D01*
X132675714Y-85207143D01*
X132747143Y-85278571D01*
X132818571Y-85421428D01*
X132818571Y-85635714D01*
X132747143Y-85778571D01*
X132247143Y-85135714D02*
X132318571Y-85278571D01*
X132318571Y-85564285D01*
X132247143Y-85707143D01*
X132175714Y-85778571D01*
X132032857Y-85850000D01*
X131604286Y-85850000D01*
X131461429Y-85778571D01*
X131390000Y-85707143D01*
X131318571Y-85564285D01*
X131318571Y-85278571D01*
X131390000Y-85135714D01*
X132318571Y-82635714D02*
X131532857Y-82635714D01*
X131390000Y-82707143D01*
X131318571Y-82850000D01*
X131318571Y-83135714D01*
X131390000Y-83278571D01*
X132247143Y-82635714D02*
X132318571Y-82778571D01*
X132318571Y-83135714D01*
X132247143Y-83278571D01*
X132104286Y-83350000D01*
X131961429Y-83350000D01*
X131818571Y-83278571D01*
X131747143Y-83135714D01*
X131747143Y-82778571D01*
X131675714Y-82635714D01*
X132318571Y-80778571D02*
X131318571Y-80778571D01*
X131461429Y-80778571D02*
X131390000Y-80707143D01*
X131318571Y-80564285D01*
X131318571Y-80350000D01*
X131390000Y-80207143D01*
X131532857Y-80135714D01*
X132318571Y-80135714D01*
X131532857Y-80135714D02*
X131390000Y-80064285D01*
X131318571Y-79921428D01*
X131318571Y-79707143D01*
X131390000Y-79564285D01*
X131532857Y-79492857D01*
X132318571Y-79492857D01*
X132318571Y-78778571D02*
X131318571Y-78778571D01*
X130818571Y-78778571D02*
X130890000Y-78850000D01*
X130961429Y-78778571D01*
X130890000Y-78707143D01*
X130818571Y-78778571D01*
X130961429Y-78778571D01*
X131318571Y-78064285D02*
X132318571Y-78064285D01*
X131461429Y-78064285D02*
X131390000Y-77992857D01*
X131318571Y-77849999D01*
X131318571Y-77635714D01*
X131390000Y-77492857D01*
X131532857Y-77421428D01*
X132318571Y-77421428D01*
X132318571Y-76707142D02*
X131318571Y-76707142D01*
X130818571Y-76707142D02*
X130890000Y-76778571D01*
X130961429Y-76707142D01*
X130890000Y-76635714D01*
X130818571Y-76707142D01*
X130961429Y-76707142D01*
X132247143Y-76064285D02*
X132318571Y-75849999D01*
X132318571Y-75492856D01*
X132247143Y-75349999D01*
X132175714Y-75278570D01*
X132032857Y-75207142D01*
X131890000Y-75207142D01*
X131747143Y-75278570D01*
X131675714Y-75349999D01*
X131604286Y-75492856D01*
X131532857Y-75778570D01*
X131461429Y-75921428D01*
X131390000Y-75992856D01*
X131247143Y-76064285D01*
X131104286Y-76064285D01*
X130961429Y-75992856D01*
X130890000Y-75921428D01*
X130818571Y-75778570D01*
X130818571Y-75421428D01*
X130890000Y-75207142D01*
X131318571Y-74564285D02*
X132818571Y-74564285D01*
X131390000Y-74564285D02*
X131318571Y-74421428D01*
X131318571Y-74135714D01*
X131390000Y-73992857D01*
X131461429Y-73921428D01*
X131604286Y-73849999D01*
X132032857Y-73849999D01*
X132175714Y-73921428D01*
X132247143Y-73992857D01*
X132318571Y-74135714D01*
X132318571Y-74421428D01*
X132247143Y-74564285D01*
X132318571Y-72564285D02*
X131532857Y-72564285D01*
X131390000Y-72635714D01*
X131318571Y-72778571D01*
X131318571Y-73064285D01*
X131390000Y-73207142D01*
X132247143Y-72564285D02*
X132318571Y-72707142D01*
X132318571Y-73064285D01*
X132247143Y-73207142D01*
X132104286Y-73278571D01*
X131961429Y-73278571D01*
X131818571Y-73207142D01*
X131747143Y-73064285D01*
X131747143Y-72707142D01*
X131675714Y-72564285D01*
X132318571Y-71849999D02*
X131318571Y-71849999D01*
X131604286Y-71849999D02*
X131461429Y-71778571D01*
X131390000Y-71707142D01*
X131318571Y-71564285D01*
X131318571Y-71421428D01*
X131318571Y-71135714D02*
X131318571Y-70564285D01*
X130818571Y-70921428D02*
X132104286Y-70921428D01*
X132247143Y-70850000D01*
X132318571Y-70707142D01*
X132318571Y-70564285D01*
X132318571Y-69421428D02*
X131532857Y-69421428D01*
X131390000Y-69492857D01*
X131318571Y-69635714D01*
X131318571Y-69921428D01*
X131390000Y-70064285D01*
X132247143Y-69421428D02*
X132318571Y-69564285D01*
X132318571Y-69921428D01*
X132247143Y-70064285D01*
X132104286Y-70135714D01*
X131961429Y-70135714D01*
X131818571Y-70064285D01*
X131747143Y-69921428D01*
X131747143Y-69564285D01*
X131675714Y-69421428D01*
X131318571Y-68707142D02*
X132318571Y-68707142D01*
X131461429Y-68707142D02*
X131390000Y-68635714D01*
X131318571Y-68492856D01*
X131318571Y-68278571D01*
X131390000Y-68135714D01*
X131532857Y-68064285D01*
X132318571Y-68064285D01*
X130818571Y-66707142D02*
X130818571Y-66992856D01*
X130890000Y-67135713D01*
X130961429Y-67207142D01*
X131175714Y-67349999D01*
X131461429Y-67421428D01*
X132032857Y-67421428D01*
X132175714Y-67349999D01*
X132247143Y-67278571D01*
X132318571Y-67135713D01*
X132318571Y-66849999D01*
X132247143Y-66707142D01*
X132175714Y-66635713D01*
X132032857Y-66564285D01*
X131675714Y-66564285D01*
X131532857Y-66635713D01*
X131461429Y-66707142D01*
X131390000Y-66849999D01*
X131390000Y-67135713D01*
X131461429Y-67278571D01*
X131532857Y-67349999D01*
X131675714Y-67421428D01*
X131747143Y-65921428D02*
X131747143Y-64778571D01*
X132318571Y-65350000D02*
X131175714Y-65350000D01*
X134868571Y-118814284D02*
X134082857Y-118814284D01*
X133940000Y-118885713D01*
X133868571Y-119028570D01*
X133868571Y-119314284D01*
X133940000Y-119457141D01*
X134797143Y-118814284D02*
X134868571Y-118957141D01*
X134868571Y-119314284D01*
X134797143Y-119457141D01*
X134654286Y-119528570D01*
X134511429Y-119528570D01*
X134368571Y-119457141D01*
X134297143Y-119314284D01*
X134297143Y-118957141D01*
X134225714Y-118814284D01*
X133868571Y-118099998D02*
X134868571Y-118099998D01*
X134011429Y-118099998D02*
X133940000Y-118028570D01*
X133868571Y-117885712D01*
X133868571Y-117671427D01*
X133940000Y-117528570D01*
X134082857Y-117457141D01*
X134868571Y-117457141D01*
X134868571Y-116099998D02*
X133368571Y-116099998D01*
X134797143Y-116099998D02*
X134868571Y-116242855D01*
X134868571Y-116528569D01*
X134797143Y-116671427D01*
X134725714Y-116742855D01*
X134582857Y-116814284D01*
X134154286Y-116814284D01*
X134011429Y-116742855D01*
X133940000Y-116671427D01*
X133868571Y-116528569D01*
X133868571Y-116242855D01*
X133940000Y-116099998D01*
X134868571Y-113599998D02*
X134082857Y-113599998D01*
X133940000Y-113671427D01*
X133868571Y-113814284D01*
X133868571Y-114099998D01*
X133940000Y-114242855D01*
X134797143Y-113599998D02*
X134868571Y-113742855D01*
X134868571Y-114099998D01*
X134797143Y-114242855D01*
X134654286Y-114314284D01*
X134511429Y-114314284D01*
X134368571Y-114242855D01*
X134297143Y-114099998D01*
X134297143Y-113742855D01*
X134225714Y-113599998D01*
X134868571Y-110885712D02*
X134154286Y-111385712D01*
X134868571Y-111742855D02*
X133368571Y-111742855D01*
X133368571Y-111171427D01*
X133440000Y-111028569D01*
X133511429Y-110957141D01*
X133654286Y-110885712D01*
X133868571Y-110885712D01*
X134011429Y-110957141D01*
X134082857Y-111028569D01*
X134154286Y-111171427D01*
X134154286Y-111742855D01*
X134868571Y-109599998D02*
X134082857Y-109599998D01*
X133940000Y-109671427D01*
X133868571Y-109814284D01*
X133868571Y-110099998D01*
X133940000Y-110242855D01*
X134797143Y-109599998D02*
X134868571Y-109742855D01*
X134868571Y-110099998D01*
X134797143Y-110242855D01*
X134654286Y-110314284D01*
X134511429Y-110314284D01*
X134368571Y-110242855D01*
X134297143Y-110099998D01*
X134297143Y-109742855D01*
X134225714Y-109599998D01*
X134797143Y-108957141D02*
X134868571Y-108814284D01*
X134868571Y-108528569D01*
X134797143Y-108385712D01*
X134654286Y-108314284D01*
X134582857Y-108314284D01*
X134440000Y-108385712D01*
X134368571Y-108528569D01*
X134368571Y-108742855D01*
X134297143Y-108885712D01*
X134154286Y-108957141D01*
X134082857Y-108957141D01*
X133940000Y-108885712D01*
X133868571Y-108742855D01*
X133868571Y-108528569D01*
X133940000Y-108385712D01*
X133868571Y-107671426D02*
X135368571Y-107671426D01*
X133940000Y-107671426D02*
X133868571Y-107528569D01*
X133868571Y-107242855D01*
X133940000Y-107099998D01*
X134011429Y-107028569D01*
X134154286Y-106957140D01*
X134582857Y-106957140D01*
X134725714Y-107028569D01*
X134797143Y-107099998D01*
X134868571Y-107242855D01*
X134868571Y-107528569D01*
X134797143Y-107671426D01*
X134868571Y-106314283D02*
X133368571Y-106314283D01*
X133940000Y-106314283D02*
X133868571Y-106171426D01*
X133868571Y-105885712D01*
X133940000Y-105742855D01*
X134011429Y-105671426D01*
X134154286Y-105599997D01*
X134582857Y-105599997D01*
X134725714Y-105671426D01*
X134797143Y-105742855D01*
X134868571Y-105885712D01*
X134868571Y-106171426D01*
X134797143Y-106314283D01*
X134797143Y-104385712D02*
X134868571Y-104528569D01*
X134868571Y-104814283D01*
X134797143Y-104957140D01*
X134654286Y-105028569D01*
X134082857Y-105028569D01*
X133940000Y-104957140D01*
X133868571Y-104814283D01*
X133868571Y-104528569D01*
X133940000Y-104385712D01*
X134082857Y-104314283D01*
X134225714Y-104314283D01*
X134368571Y-105028569D01*
X134868571Y-103671426D02*
X133868571Y-103671426D01*
X134154286Y-103671426D02*
X134011429Y-103599998D01*
X133940000Y-103528569D01*
X133868571Y-103385712D01*
X133868571Y-103242855D01*
X134868571Y-102742855D02*
X133868571Y-102742855D01*
X134154286Y-102742855D02*
X134011429Y-102671427D01*
X133940000Y-102599998D01*
X133868571Y-102457141D01*
X133868571Y-102314284D01*
X133868571Y-101957141D02*
X134868571Y-101599998D01*
X133868571Y-101242856D02*
X134868571Y-101599998D01*
X135225714Y-101742856D01*
X135297143Y-101814284D01*
X135368571Y-101957141D01*
X134868571Y-99528570D02*
X133368571Y-99528570D01*
X133368571Y-98957142D01*
X133440000Y-98814284D01*
X133511429Y-98742856D01*
X133654286Y-98671427D01*
X133868571Y-98671427D01*
X134011429Y-98742856D01*
X134082857Y-98814284D01*
X134154286Y-98957142D01*
X134154286Y-99528570D01*
X134868571Y-98028570D02*
X133868571Y-98028570D01*
X133368571Y-98028570D02*
X133440000Y-98099999D01*
X133511429Y-98028570D01*
X133440000Y-97957142D01*
X133368571Y-98028570D01*
X133511429Y-98028570D01*
X133368571Y-96314284D02*
X133368571Y-95314284D01*
X134868571Y-96314284D01*
X134868571Y-95314284D01*
X134797143Y-94171428D02*
X134868571Y-94314285D01*
X134868571Y-94599999D01*
X134797143Y-94742856D01*
X134654286Y-94814285D01*
X134082857Y-94814285D01*
X133940000Y-94742856D01*
X133868571Y-94599999D01*
X133868571Y-94314285D01*
X133940000Y-94171428D01*
X134082857Y-94099999D01*
X134225714Y-94099999D01*
X134368571Y-94814285D01*
X134868571Y-93457142D02*
X133868571Y-93457142D01*
X134154286Y-93457142D02*
X134011429Y-93385714D01*
X133940000Y-93314285D01*
X133868571Y-93171428D01*
X133868571Y-93028571D01*
X134868571Y-92314285D02*
X134797143Y-92457143D01*
X134725714Y-92528571D01*
X134582857Y-92600000D01*
X134154286Y-92600000D01*
X134011429Y-92528571D01*
X133940000Y-92457143D01*
X133868571Y-92314285D01*
X133868571Y-92100000D01*
X133940000Y-91957143D01*
X134011429Y-91885714D01*
X134154286Y-91814285D01*
X134582857Y-91814285D01*
X134725714Y-91885714D01*
X134797143Y-91957143D01*
X134868571Y-92100000D01*
X134868571Y-92314285D01*
X133868571Y-90242857D02*
X133868571Y-89671428D01*
X133368571Y-90028571D02*
X134654286Y-90028571D01*
X134797143Y-89957143D01*
X134868571Y-89814285D01*
X134868571Y-89671428D01*
X134868571Y-88957142D02*
X134797143Y-89100000D01*
X134725714Y-89171428D01*
X134582857Y-89242857D01*
X134154286Y-89242857D01*
X134011429Y-89171428D01*
X133940000Y-89100000D01*
X133868571Y-88957142D01*
X133868571Y-88742857D01*
X133940000Y-88600000D01*
X134011429Y-88528571D01*
X134154286Y-88457142D01*
X134582857Y-88457142D01*
X134725714Y-88528571D01*
X134797143Y-88600000D01*
X134868571Y-88742857D01*
X134868571Y-88957142D01*
X134868571Y-86028571D02*
X134082857Y-86028571D01*
X133940000Y-86100000D01*
X133868571Y-86242857D01*
X133868571Y-86528571D01*
X133940000Y-86671428D01*
X134797143Y-86028571D02*
X134868571Y-86171428D01*
X134868571Y-86528571D01*
X134797143Y-86671428D01*
X134654286Y-86742857D01*
X134511429Y-86742857D01*
X134368571Y-86671428D01*
X134297143Y-86528571D01*
X134297143Y-86171428D01*
X134225714Y-86028571D01*
X134082857Y-83671428D02*
X134154286Y-83457142D01*
X134225714Y-83385714D01*
X134368571Y-83314285D01*
X134582857Y-83314285D01*
X134725714Y-83385714D01*
X134797143Y-83457142D01*
X134868571Y-83600000D01*
X134868571Y-84171428D01*
X133368571Y-84171428D01*
X133368571Y-83671428D01*
X133440000Y-83528571D01*
X133511429Y-83457142D01*
X133654286Y-83385714D01*
X133797143Y-83385714D01*
X133940000Y-83457142D01*
X134011429Y-83528571D01*
X134082857Y-83671428D01*
X134082857Y-84171428D01*
X134082857Y-82171428D02*
X134154286Y-81957142D01*
X134225714Y-81885714D01*
X134368571Y-81814285D01*
X134582857Y-81814285D01*
X134725714Y-81885714D01*
X134797143Y-81957142D01*
X134868571Y-82100000D01*
X134868571Y-82671428D01*
X133368571Y-82671428D01*
X133368571Y-82171428D01*
X133440000Y-82028571D01*
X133511429Y-81957142D01*
X133654286Y-81885714D01*
X133797143Y-81885714D01*
X133940000Y-81957142D01*
X134011429Y-82028571D01*
X134082857Y-82171428D01*
X134082857Y-82671428D01*
X134725714Y-80314285D02*
X134797143Y-80385714D01*
X134868571Y-80600000D01*
X134868571Y-80742857D01*
X134797143Y-80957142D01*
X134654286Y-81100000D01*
X134511429Y-81171428D01*
X134225714Y-81242857D01*
X134011429Y-81242857D01*
X133725714Y-81171428D01*
X133582857Y-81100000D01*
X133440000Y-80957142D01*
X133368571Y-80742857D01*
X133368571Y-80600000D01*
X133440000Y-80385714D01*
X133511429Y-80314285D01*
X134082857Y-78028571D02*
X134154286Y-77814285D01*
X134225714Y-77742857D01*
X134368571Y-77671428D01*
X134582857Y-77671428D01*
X134725714Y-77742857D01*
X134797143Y-77814285D01*
X134868571Y-77957143D01*
X134868571Y-78528571D01*
X133368571Y-78528571D01*
X133368571Y-78028571D01*
X133440000Y-77885714D01*
X133511429Y-77814285D01*
X133654286Y-77742857D01*
X133797143Y-77742857D01*
X133940000Y-77814285D01*
X134011429Y-77885714D01*
X134082857Y-78028571D01*
X134082857Y-78528571D01*
X134868571Y-75671428D02*
X134797143Y-75814286D01*
X134725714Y-75885714D01*
X134582857Y-75957143D01*
X134154286Y-75957143D01*
X134011429Y-75885714D01*
X133940000Y-75814286D01*
X133868571Y-75671428D01*
X133868571Y-75457143D01*
X133940000Y-75314286D01*
X134011429Y-75242857D01*
X134154286Y-75171428D01*
X134582857Y-75171428D01*
X134725714Y-75242857D01*
X134797143Y-75314286D01*
X134868571Y-75457143D01*
X134868571Y-75671428D01*
X134868571Y-74528571D02*
X133868571Y-74528571D01*
X134154286Y-74528571D02*
X134011429Y-74457143D01*
X133940000Y-74385714D01*
X133868571Y-74242857D01*
X133868571Y-74100000D01*
X134082857Y-72457143D02*
X134082857Y-71957143D01*
X134868571Y-71742857D02*
X134868571Y-72457143D01*
X133368571Y-72457143D01*
X133368571Y-71742857D01*
X134868571Y-70885714D02*
X134797143Y-71028572D01*
X134654286Y-71100000D01*
X133368571Y-71100000D01*
X134797143Y-69742858D02*
X134868571Y-69885715D01*
X134868571Y-70171429D01*
X134797143Y-70314286D01*
X134654286Y-70385715D01*
X134082857Y-70385715D01*
X133940000Y-70314286D01*
X133868571Y-70171429D01*
X133868571Y-69885715D01*
X133940000Y-69742858D01*
X134082857Y-69671429D01*
X134225714Y-69671429D01*
X134368571Y-70385715D01*
X134797143Y-68385715D02*
X134868571Y-68528572D01*
X134868571Y-68814286D01*
X134797143Y-68957144D01*
X134725714Y-69028572D01*
X134582857Y-69100001D01*
X134154286Y-69100001D01*
X134011429Y-69028572D01*
X133940000Y-68957144D01*
X133868571Y-68814286D01*
X133868571Y-68528572D01*
X133940000Y-68385715D01*
X133868571Y-67957144D02*
X133868571Y-67385715D01*
X133368571Y-67742858D02*
X134654286Y-67742858D01*
X134797143Y-67671430D01*
X134868571Y-67528572D01*
X134868571Y-67385715D01*
X134868571Y-66885715D02*
X133868571Y-66885715D01*
X134154286Y-66885715D02*
X134011429Y-66814287D01*
X133940000Y-66742858D01*
X133868571Y-66600001D01*
X133868571Y-66457144D01*
X134868571Y-65742858D02*
X134797143Y-65885716D01*
X134725714Y-65957144D01*
X134582857Y-66028573D01*
X134154286Y-66028573D01*
X134011429Y-65957144D01*
X133940000Y-65885716D01*
X133868571Y-65742858D01*
X133868571Y-65528573D01*
X133940000Y-65385716D01*
X134011429Y-65314287D01*
X134154286Y-65242858D01*
X134582857Y-65242858D01*
X134725714Y-65314287D01*
X134797143Y-65385716D01*
X134868571Y-65528573D01*
X134868571Y-65742858D01*
X133868571Y-64600001D02*
X134868571Y-64600001D01*
X134011429Y-64600001D02*
X133940000Y-64528573D01*
X133868571Y-64385715D01*
X133868571Y-64171430D01*
X133940000Y-64028573D01*
X134082857Y-63957144D01*
X134868571Y-63957144D01*
X134725714Y-63242858D02*
X134797143Y-63171430D01*
X134868571Y-63242858D01*
X134797143Y-63314287D01*
X134725714Y-63242858D01*
X134868571Y-63242858D01*
D13*
X144900000Y-128070000D02*
X150100000Y-128070000D01*
X144900000Y-79750000D02*
X144900000Y-128070000D01*
X150100000Y-77150000D02*
X150100000Y-128070000D01*
X144900000Y-79750000D02*
X147500000Y-79750000D01*
X147500000Y-79750000D02*
X147500000Y-77150000D01*
X147500000Y-77150000D02*
X150100000Y-77150000D01*
X144900000Y-78480000D02*
X144900000Y-77150000D01*
X144900000Y-77150000D02*
X146230000Y-77150000D01*
D14*
X106335000Y-130685000D02*
X106335000Y-54485000D01*
X158405000Y-54485000D02*
X158405000Y-130685000D01*
X106335000Y-54485000D02*
X158405000Y-54485000D01*
X158405000Y-130685000D02*
X106335000Y-130685000D01*
X160510000Y-122930000D02*
X160510000Y-57930000D01*
X160510000Y-57930000D02*
X190510000Y-57930000D01*
X190510000Y-57930000D02*
X190510000Y-122930000D01*
X190510000Y-122930000D02*
X160510000Y-122930000D01*
D13*
X105120000Y-56080000D02*
X102460000Y-56080000D01*
X105120000Y-58680000D02*
X105120000Y-56080000D01*
X102460000Y-58680000D02*
X102460000Y-56080000D01*
X105120000Y-58680000D02*
X102460000Y-58680000D01*
X105120000Y-59950000D02*
X105120000Y-61280000D01*
X105120000Y-61280000D02*
X103790000Y-61280000D01*
X102520000Y-100950000D02*
X105180000Y-100950000D01*
X102520000Y-67870000D02*
X102520000Y-100950000D01*
X105180000Y-67870000D02*
X105180000Y-100950000D01*
X102520000Y-67870000D02*
X105180000Y-67870000D01*
X102520000Y-66600000D02*
X102520000Y-65270000D01*
X102520000Y-65270000D02*
X103850000Y-65270000D01*
D14*
X146761905Y-76507143D02*
X146714286Y-76554762D01*
X146571429Y-76602381D01*
X146476191Y-76602381D01*
X146333333Y-76554762D01*
X146238095Y-76459524D01*
X146190476Y-76364286D01*
X146142857Y-76173810D01*
X146142857Y-76030952D01*
X146190476Y-75840476D01*
X146238095Y-75745238D01*
X146333333Y-75650000D01*
X146476191Y-75602381D01*
X146571429Y-75602381D01*
X146714286Y-75650000D01*
X146761905Y-75697619D01*
X147380952Y-75602381D02*
X147571429Y-75602381D01*
X147666667Y-75650000D01*
X147761905Y-75745238D01*
X147809524Y-75935714D01*
X147809524Y-76269048D01*
X147761905Y-76459524D01*
X147666667Y-76554762D01*
X147571429Y-76602381D01*
X147380952Y-76602381D01*
X147285714Y-76554762D01*
X147190476Y-76459524D01*
X147142857Y-76269048D01*
X147142857Y-75935714D01*
X147190476Y-75745238D01*
X147285714Y-75650000D01*
X147380952Y-75602381D01*
X148238095Y-76602381D02*
X148238095Y-75602381D01*
X148809524Y-76602381D01*
X148809524Y-75602381D01*
X151618571Y-64545714D02*
X151618571Y-64879048D01*
X152142381Y-64879048D02*
X151142381Y-64879048D01*
X151142381Y-64402857D01*
X152142381Y-64021905D02*
X151142381Y-64021905D01*
X151142381Y-63640952D01*
X151190000Y-63545714D01*
X151237619Y-63498095D01*
X151332857Y-63450476D01*
X151475714Y-63450476D01*
X151570952Y-63498095D01*
X151618571Y-63545714D01*
X151666190Y-63640952D01*
X151666190Y-64021905D01*
X151190000Y-62498095D02*
X151142381Y-62593333D01*
X151142381Y-62736190D01*
X151190000Y-62879048D01*
X151285238Y-62974286D01*
X151380476Y-63021905D01*
X151570952Y-63069524D01*
X151713810Y-63069524D01*
X151904286Y-63021905D01*
X151999524Y-62974286D01*
X152094762Y-62879048D01*
X152142381Y-62736190D01*
X152142381Y-62640952D01*
X152094762Y-62498095D01*
X152047143Y-62450476D01*
X151713810Y-62450476D01*
X151713810Y-62640952D01*
X151856667Y-62069524D02*
X151856667Y-61593333D01*
X152142381Y-62164762D02*
X151142381Y-61831429D01*
X152142381Y-61498095D01*
X151983571Y-77043333D02*
X151983571Y-77376667D01*
X152507381Y-77376667D02*
X151507381Y-77376667D01*
X151507381Y-76900476D01*
X152507381Y-75995714D02*
X152507381Y-76567143D01*
X152507381Y-76281429D02*
X151507381Y-76281429D01*
X151650238Y-76376667D01*
X151745476Y-76471905D01*
X151793095Y-76567143D01*
X151507381Y-69566191D02*
X151507381Y-69470952D01*
X151555000Y-69375714D01*
X151602619Y-69328095D01*
X151697857Y-69280476D01*
X151888333Y-69232857D01*
X152126429Y-69232857D01*
X152316905Y-69280476D01*
X152412143Y-69328095D01*
X152459762Y-69375714D01*
X152507381Y-69470952D01*
X152507381Y-69566191D01*
X152459762Y-69661429D01*
X152412143Y-69709048D01*
X152316905Y-69756667D01*
X152126429Y-69804286D01*
X151888333Y-69804286D01*
X151697857Y-69756667D01*
X151602619Y-69709048D01*
X151555000Y-69661429D01*
X151507381Y-69566191D01*
X151507381Y-68947143D02*
X152507381Y-68613810D01*
X151507381Y-68280476D01*
X151507381Y-80297619D02*
X151507381Y-79678571D01*
X151888333Y-80011905D01*
X151888333Y-79869047D01*
X151935952Y-79773809D01*
X151983571Y-79726190D01*
X152078810Y-79678571D01*
X152316905Y-79678571D01*
X152412143Y-79726190D01*
X152459762Y-79773809D01*
X152507381Y-79869047D01*
X152507381Y-80154762D01*
X152459762Y-80250000D01*
X152412143Y-80297619D01*
X152412143Y-79250000D02*
X152459762Y-79202381D01*
X152507381Y-79250000D01*
X152459762Y-79297619D01*
X152412143Y-79250000D01*
X152507381Y-79250000D01*
X151507381Y-78869048D02*
X151507381Y-78250000D01*
X151888333Y-78583334D01*
X151888333Y-78440476D01*
X151935952Y-78345238D01*
X151983571Y-78297619D01*
X152078810Y-78250000D01*
X152316905Y-78250000D01*
X152412143Y-78297619D01*
X152459762Y-78345238D01*
X152507381Y-78440476D01*
X152507381Y-78726191D01*
X152459762Y-78821429D01*
X152412143Y-78869048D01*
X151507381Y-100617619D02*
X151507381Y-99998571D01*
X151888333Y-100331905D01*
X151888333Y-100189047D01*
X151935952Y-100093809D01*
X151983571Y-100046190D01*
X152078810Y-99998571D01*
X152316905Y-99998571D01*
X152412143Y-100046190D01*
X152459762Y-100093809D01*
X152507381Y-100189047D01*
X152507381Y-100474762D01*
X152459762Y-100570000D01*
X152412143Y-100617619D01*
X152412143Y-99570000D02*
X152459762Y-99522381D01*
X152507381Y-99570000D01*
X152459762Y-99617619D01*
X152412143Y-99570000D01*
X152507381Y-99570000D01*
X151507381Y-99189048D02*
X151507381Y-98570000D01*
X151888333Y-98903334D01*
X151888333Y-98760476D01*
X151935952Y-98665238D01*
X151983571Y-98617619D01*
X152078810Y-98570000D01*
X152316905Y-98570000D01*
X152412143Y-98617619D01*
X152459762Y-98665238D01*
X152507381Y-98760476D01*
X152507381Y-99046191D01*
X152459762Y-99141429D01*
X152412143Y-99189048D01*
X151507381Y-89886191D02*
X151507381Y-89790952D01*
X151555000Y-89695714D01*
X151602619Y-89648095D01*
X151697857Y-89600476D01*
X151888333Y-89552857D01*
X152126429Y-89552857D01*
X152316905Y-89600476D01*
X152412143Y-89648095D01*
X152459762Y-89695714D01*
X152507381Y-89790952D01*
X152507381Y-89886191D01*
X152459762Y-89981429D01*
X152412143Y-90029048D01*
X152316905Y-90076667D01*
X152126429Y-90124286D01*
X151888333Y-90124286D01*
X151697857Y-90076667D01*
X151602619Y-90029048D01*
X151555000Y-89981429D01*
X151507381Y-89886191D01*
X151507381Y-89267143D02*
X152507381Y-88933810D01*
X151507381Y-88600476D01*
X152507381Y-105388095D02*
X151507381Y-105388095D01*
X151507381Y-105150000D01*
X151555000Y-105007142D01*
X151650238Y-104911904D01*
X151745476Y-104864285D01*
X151935952Y-104816666D01*
X152078810Y-104816666D01*
X152269286Y-104864285D01*
X152364524Y-104911904D01*
X152459762Y-105007142D01*
X152507381Y-105150000D01*
X152507381Y-105388095D01*
X152507381Y-103864285D02*
X152507381Y-104435714D01*
X152507381Y-104150000D02*
X151507381Y-104150000D01*
X151650238Y-104245238D01*
X151745476Y-104340476D01*
X151793095Y-104435714D01*
X155952381Y-122906191D02*
X155952381Y-122810952D01*
X156000000Y-122715714D01*
X156047619Y-122668095D01*
X156142857Y-122620476D01*
X156333333Y-122572857D01*
X156571429Y-122572857D01*
X156761905Y-122620476D01*
X156857143Y-122668095D01*
X156904762Y-122715714D01*
X156952381Y-122810952D01*
X156952381Y-122906191D01*
X156904762Y-123001429D01*
X156857143Y-123049048D01*
X156761905Y-123096667D01*
X156571429Y-123144286D01*
X156333333Y-123144286D01*
X156142857Y-123096667D01*
X156047619Y-123049048D01*
X156000000Y-123001429D01*
X155952381Y-122906191D01*
X155952381Y-122287143D02*
X156952381Y-121953810D01*
X155952381Y-121620476D01*
X151507381Y-107666191D02*
X151507381Y-107570952D01*
X151555000Y-107475714D01*
X151602619Y-107428095D01*
X151697857Y-107380476D01*
X151888333Y-107332857D01*
X152126429Y-107332857D01*
X152316905Y-107380476D01*
X152412143Y-107428095D01*
X152459762Y-107475714D01*
X152507381Y-107570952D01*
X152507381Y-107666191D01*
X152459762Y-107761429D01*
X152412143Y-107809048D01*
X152316905Y-107856667D01*
X152126429Y-107904286D01*
X151888333Y-107904286D01*
X151697857Y-107856667D01*
X151602619Y-107809048D01*
X151555000Y-107761429D01*
X151507381Y-107666191D01*
X151507381Y-107047143D02*
X152507381Y-106713810D01*
X151507381Y-106380476D01*
X152221667Y-118588095D02*
X152221667Y-118111904D01*
X152507381Y-118683333D02*
X151507381Y-118350000D01*
X152507381Y-118016666D01*
X152507381Y-117683333D02*
X151507381Y-117683333D01*
X152507381Y-117111904D01*
X151507381Y-117111904D01*
X151507381Y-116445238D02*
X151507381Y-116349999D01*
X151555000Y-116254761D01*
X151602619Y-116207142D01*
X151697857Y-116159523D01*
X151888333Y-116111904D01*
X152126429Y-116111904D01*
X152316905Y-116159523D01*
X152412143Y-116207142D01*
X152459762Y-116254761D01*
X152507381Y-116349999D01*
X152507381Y-116445238D01*
X152459762Y-116540476D01*
X152412143Y-116588095D01*
X152316905Y-116635714D01*
X152126429Y-116683333D01*
X151888333Y-116683333D01*
X151697857Y-116635714D01*
X151602619Y-116588095D01*
X151555000Y-116540476D01*
X151507381Y-116445238D01*
X153412381Y-122906191D02*
X153412381Y-122810952D01*
X153460000Y-122715714D01*
X153507619Y-122668095D01*
X153602857Y-122620476D01*
X153793333Y-122572857D01*
X154031429Y-122572857D01*
X154221905Y-122620476D01*
X154317143Y-122668095D01*
X154364762Y-122715714D01*
X154412381Y-122810952D01*
X154412381Y-122906191D01*
X154364762Y-123001429D01*
X154317143Y-123049048D01*
X154221905Y-123096667D01*
X154031429Y-123144286D01*
X153793333Y-123144286D01*
X153602857Y-123096667D01*
X153507619Y-123049048D01*
X153460000Y-123001429D01*
X153412381Y-122906191D01*
X153412381Y-122287143D02*
X154412381Y-121953810D01*
X153412381Y-121620476D01*
X107692381Y-59406191D02*
X107692381Y-59310952D01*
X107740000Y-59215714D01*
X107787619Y-59168095D01*
X107882857Y-59120476D01*
X108073333Y-59072857D01*
X108311429Y-59072857D01*
X108501905Y-59120476D01*
X108597143Y-59168095D01*
X108644762Y-59215714D01*
X108692381Y-59310952D01*
X108692381Y-59406191D01*
X108644762Y-59501429D01*
X108597143Y-59549048D01*
X108501905Y-59596667D01*
X108311429Y-59644286D01*
X108073333Y-59644286D01*
X107882857Y-59596667D01*
X107787619Y-59549048D01*
X107740000Y-59501429D01*
X107692381Y-59406191D01*
X107692381Y-58787143D02*
X108692381Y-58453810D01*
X107692381Y-58120476D01*
X112137381Y-61660476D02*
X112137381Y-62136667D01*
X112613571Y-62184286D01*
X112565952Y-62136667D01*
X112518333Y-62041429D01*
X112518333Y-61803333D01*
X112565952Y-61708095D01*
X112613571Y-61660476D01*
X112708810Y-61612857D01*
X112946905Y-61612857D01*
X113042143Y-61660476D01*
X113089762Y-61708095D01*
X113137381Y-61803333D01*
X113137381Y-62041429D01*
X113089762Y-62136667D01*
X113042143Y-62184286D01*
X112137381Y-61327143D02*
X113137381Y-60993810D01*
X112137381Y-60660476D01*
X112137381Y-72106191D02*
X112137381Y-72010952D01*
X112185000Y-71915714D01*
X112232619Y-71868095D01*
X112327857Y-71820476D01*
X112518333Y-71772857D01*
X112756429Y-71772857D01*
X112946905Y-71820476D01*
X113042143Y-71868095D01*
X113089762Y-71915714D01*
X113137381Y-72010952D01*
X113137381Y-72106191D01*
X113089762Y-72201429D01*
X113042143Y-72249048D01*
X112946905Y-72296667D01*
X112756429Y-72344286D01*
X112518333Y-72344286D01*
X112327857Y-72296667D01*
X112232619Y-72249048D01*
X112185000Y-72201429D01*
X112137381Y-72106191D01*
X112137381Y-71487143D02*
X113137381Y-71153810D01*
X112137381Y-70820476D01*
X113042143Y-79416666D02*
X113089762Y-79464285D01*
X113137381Y-79607142D01*
X113137381Y-79702380D01*
X113089762Y-79845238D01*
X112994524Y-79940476D01*
X112899286Y-79988095D01*
X112708810Y-80035714D01*
X112565952Y-80035714D01*
X112375476Y-79988095D01*
X112280238Y-79940476D01*
X112185000Y-79845238D01*
X112137381Y-79702380D01*
X112137381Y-79607142D01*
X112185000Y-79464285D01*
X112232619Y-79416666D01*
X112137381Y-78797619D02*
X112137381Y-78702380D01*
X112185000Y-78607142D01*
X112232619Y-78559523D01*
X112327857Y-78511904D01*
X112518333Y-78464285D01*
X112756429Y-78464285D01*
X112946905Y-78511904D01*
X113042143Y-78559523D01*
X113089762Y-78607142D01*
X113137381Y-78702380D01*
X113137381Y-78797619D01*
X113089762Y-78892857D01*
X113042143Y-78940476D01*
X112946905Y-78988095D01*
X112756429Y-79035714D01*
X112518333Y-79035714D01*
X112327857Y-78988095D01*
X112232619Y-78940476D01*
X112185000Y-78892857D01*
X112137381Y-78797619D01*
X112137381Y-82837619D02*
X112137381Y-82218571D01*
X112518333Y-82551905D01*
X112518333Y-82409047D01*
X112565952Y-82313809D01*
X112613571Y-82266190D01*
X112708810Y-82218571D01*
X112946905Y-82218571D01*
X113042143Y-82266190D01*
X113089762Y-82313809D01*
X113137381Y-82409047D01*
X113137381Y-82694762D01*
X113089762Y-82790000D01*
X113042143Y-82837619D01*
X113042143Y-81790000D02*
X113089762Y-81742381D01*
X113137381Y-81790000D01*
X113089762Y-81837619D01*
X113042143Y-81790000D01*
X113137381Y-81790000D01*
X112137381Y-81409048D02*
X112137381Y-80790000D01*
X112518333Y-81123334D01*
X112518333Y-80980476D01*
X112565952Y-80885238D01*
X112613571Y-80837619D01*
X112708810Y-80790000D01*
X112946905Y-80790000D01*
X113042143Y-80837619D01*
X113089762Y-80885238D01*
X113137381Y-80980476D01*
X113137381Y-81266191D01*
X113089762Y-81361429D01*
X113042143Y-81409048D01*
X112137381Y-92426191D02*
X112137381Y-92330952D01*
X112185000Y-92235714D01*
X112232619Y-92188095D01*
X112327857Y-92140476D01*
X112518333Y-92092857D01*
X112756429Y-92092857D01*
X112946905Y-92140476D01*
X113042143Y-92188095D01*
X113089762Y-92235714D01*
X113137381Y-92330952D01*
X113137381Y-92426191D01*
X113089762Y-92521429D01*
X113042143Y-92569048D01*
X112946905Y-92616667D01*
X112756429Y-92664286D01*
X112518333Y-92664286D01*
X112327857Y-92616667D01*
X112232619Y-92569048D01*
X112185000Y-92521429D01*
X112137381Y-92426191D01*
X112137381Y-91807143D02*
X113137381Y-91473810D01*
X112137381Y-91140476D01*
X112613571Y-99974761D02*
X112661190Y-99831904D01*
X112708810Y-99784285D01*
X112804048Y-99736666D01*
X112946905Y-99736666D01*
X113042143Y-99784285D01*
X113089762Y-99831904D01*
X113137381Y-99927142D01*
X113137381Y-100308095D01*
X112137381Y-100308095D01*
X112137381Y-99974761D01*
X112185000Y-99879523D01*
X112232619Y-99831904D01*
X112327857Y-99784285D01*
X112423095Y-99784285D01*
X112518333Y-99831904D01*
X112565952Y-99879523D01*
X112613571Y-99974761D01*
X112613571Y-100308095D01*
X112137381Y-99117619D02*
X112137381Y-99022380D01*
X112185000Y-98927142D01*
X112232619Y-98879523D01*
X112327857Y-98831904D01*
X112518333Y-98784285D01*
X112756429Y-98784285D01*
X112946905Y-98831904D01*
X113042143Y-98879523D01*
X113089762Y-98927142D01*
X113137381Y-99022380D01*
X113137381Y-99117619D01*
X113089762Y-99212857D01*
X113042143Y-99260476D01*
X112946905Y-99308095D01*
X112756429Y-99355714D01*
X112518333Y-99355714D01*
X112327857Y-99308095D01*
X112232619Y-99260476D01*
X112185000Y-99212857D01*
X112137381Y-99117619D01*
X112137381Y-103157619D02*
X112137381Y-102538571D01*
X112518333Y-102871905D01*
X112518333Y-102729047D01*
X112565952Y-102633809D01*
X112613571Y-102586190D01*
X112708810Y-102538571D01*
X112946905Y-102538571D01*
X113042143Y-102586190D01*
X113089762Y-102633809D01*
X113137381Y-102729047D01*
X113137381Y-103014762D01*
X113089762Y-103110000D01*
X113042143Y-103157619D01*
X113042143Y-102110000D02*
X113089762Y-102062381D01*
X113137381Y-102110000D01*
X113089762Y-102157619D01*
X113042143Y-102110000D01*
X113137381Y-102110000D01*
X112137381Y-101729048D02*
X112137381Y-101110000D01*
X112518333Y-101443334D01*
X112518333Y-101300476D01*
X112565952Y-101205238D01*
X112613571Y-101157619D01*
X112708810Y-101110000D01*
X112946905Y-101110000D01*
X113042143Y-101157619D01*
X113089762Y-101205238D01*
X113137381Y-101300476D01*
X113137381Y-101586191D01*
X113089762Y-101681429D01*
X113042143Y-101729048D01*
X112137381Y-112746191D02*
X112137381Y-112650952D01*
X112185000Y-112555714D01*
X112232619Y-112508095D01*
X112327857Y-112460476D01*
X112518333Y-112412857D01*
X112756429Y-112412857D01*
X112946905Y-112460476D01*
X113042143Y-112508095D01*
X113089762Y-112555714D01*
X113137381Y-112650952D01*
X113137381Y-112746191D01*
X113089762Y-112841429D01*
X113042143Y-112889048D01*
X112946905Y-112936667D01*
X112756429Y-112984286D01*
X112518333Y-112984286D01*
X112327857Y-112936667D01*
X112232619Y-112889048D01*
X112185000Y-112841429D01*
X112137381Y-112746191D01*
X112137381Y-112127143D02*
X113137381Y-111793810D01*
X112137381Y-111460476D01*
X112851667Y-120604286D02*
X112851667Y-120128095D01*
X113137381Y-120699524D02*
X112137381Y-120366191D01*
X113137381Y-120032857D01*
X112137381Y-119509048D02*
X112137381Y-119413809D01*
X112185000Y-119318571D01*
X112232619Y-119270952D01*
X112327857Y-119223333D01*
X112518333Y-119175714D01*
X112756429Y-119175714D01*
X112946905Y-119223333D01*
X113042143Y-119270952D01*
X113089762Y-119318571D01*
X113137381Y-119413809D01*
X113137381Y-119509048D01*
X113089762Y-119604286D01*
X113042143Y-119651905D01*
X112946905Y-119699524D01*
X112756429Y-119747143D01*
X112518333Y-119747143D01*
X112327857Y-119699524D01*
X112232619Y-119651905D01*
X112185000Y-119604286D01*
X112137381Y-119509048D01*
X175962381Y-90930000D02*
X174962381Y-90930000D01*
X174962381Y-90549047D01*
X175010000Y-90453809D01*
X175057619Y-90406190D01*
X175152857Y-90358571D01*
X175295714Y-90358571D01*
X175390952Y-90406190D01*
X175438571Y-90453809D01*
X175486190Y-90549047D01*
X175486190Y-90930000D01*
X175962381Y-89930000D02*
X174962381Y-89930000D01*
X170962381Y-96477620D02*
X170486190Y-96810954D01*
X170962381Y-97049049D02*
X169962381Y-97049049D01*
X169962381Y-96668096D01*
X170010000Y-96572858D01*
X170057619Y-96525239D01*
X170152857Y-96477620D01*
X170295714Y-96477620D01*
X170390952Y-96525239D01*
X170438571Y-96572858D01*
X170486190Y-96668096D01*
X170486190Y-97049049D01*
X170962381Y-95620477D02*
X170438571Y-95620477D01*
X170343333Y-95668096D01*
X170295714Y-95763334D01*
X170295714Y-95953811D01*
X170343333Y-96049049D01*
X170914762Y-95620477D02*
X170962381Y-95715715D01*
X170962381Y-95953811D01*
X170914762Y-96049049D01*
X170819524Y-96096668D01*
X170724286Y-96096668D01*
X170629048Y-96049049D01*
X170581429Y-95953811D01*
X170581429Y-95715715D01*
X170533810Y-95620477D01*
X170914762Y-95191906D02*
X170962381Y-95096668D01*
X170962381Y-94906192D01*
X170914762Y-94810953D01*
X170819524Y-94763334D01*
X170771905Y-94763334D01*
X170676667Y-94810953D01*
X170629048Y-94906192D01*
X170629048Y-95049049D01*
X170581429Y-95144287D01*
X170486190Y-95191906D01*
X170438571Y-95191906D01*
X170343333Y-95144287D01*
X170295714Y-95049049D01*
X170295714Y-94906192D01*
X170343333Y-94810953D01*
X170295714Y-94334763D02*
X171295714Y-94334763D01*
X170343333Y-94334763D02*
X170295714Y-94239525D01*
X170295714Y-94049048D01*
X170343333Y-93953810D01*
X170390952Y-93906191D01*
X170486190Y-93858572D01*
X170771905Y-93858572D01*
X170867143Y-93906191D01*
X170914762Y-93953810D01*
X170962381Y-94049048D01*
X170962381Y-94239525D01*
X170914762Y-94334763D01*
X170962381Y-93430001D02*
X169962381Y-93430001D01*
X170343333Y-93430001D02*
X170295714Y-93334763D01*
X170295714Y-93144286D01*
X170343333Y-93049048D01*
X170390952Y-93001429D01*
X170486190Y-92953810D01*
X170771905Y-92953810D01*
X170867143Y-93001429D01*
X170914762Y-93049048D01*
X170962381Y-93144286D01*
X170962381Y-93334763D01*
X170914762Y-93430001D01*
X170914762Y-92144286D02*
X170962381Y-92239524D01*
X170962381Y-92430001D01*
X170914762Y-92525239D01*
X170819524Y-92572858D01*
X170438571Y-92572858D01*
X170343333Y-92525239D01*
X170295714Y-92430001D01*
X170295714Y-92239524D01*
X170343333Y-92144286D01*
X170438571Y-92096667D01*
X170533810Y-92096667D01*
X170629048Y-92572858D01*
X170962381Y-91668096D02*
X170295714Y-91668096D01*
X170486190Y-91668096D02*
X170390952Y-91620477D01*
X170343333Y-91572858D01*
X170295714Y-91477620D01*
X170295714Y-91382381D01*
X170962381Y-91049048D02*
X170295714Y-91049048D01*
X170486190Y-91049048D02*
X170390952Y-91001429D01*
X170343333Y-90953810D01*
X170295714Y-90858572D01*
X170295714Y-90763333D01*
X170295714Y-90525238D02*
X170962381Y-90287143D01*
X170295714Y-90049047D02*
X170962381Y-90287143D01*
X171200476Y-90382381D01*
X171248095Y-90430000D01*
X171295714Y-90525238D01*
X170962381Y-88906190D02*
X169962381Y-88906190D01*
X169962381Y-88525237D01*
X170010000Y-88429999D01*
X170057619Y-88382380D01*
X170152857Y-88334761D01*
X170295714Y-88334761D01*
X170390952Y-88382380D01*
X170438571Y-88429999D01*
X170486190Y-88525237D01*
X170486190Y-88906190D01*
X170962381Y-87906190D02*
X170295714Y-87906190D01*
X169962381Y-87906190D02*
X170010000Y-87953809D01*
X170057619Y-87906190D01*
X170010000Y-87858571D01*
X169962381Y-87906190D01*
X170057619Y-87906190D01*
X169962381Y-86763333D02*
X169962381Y-86096666D01*
X170962381Y-86763333D01*
X170962381Y-86096666D01*
X170914762Y-85334761D02*
X170962381Y-85429999D01*
X170962381Y-85620476D01*
X170914762Y-85715714D01*
X170819524Y-85763333D01*
X170438571Y-85763333D01*
X170343333Y-85715714D01*
X170295714Y-85620476D01*
X170295714Y-85429999D01*
X170343333Y-85334761D01*
X170438571Y-85287142D01*
X170533810Y-85287142D01*
X170629048Y-85763333D01*
X170962381Y-84858571D02*
X170295714Y-84858571D01*
X170486190Y-84858571D02*
X170390952Y-84810952D01*
X170343333Y-84763333D01*
X170295714Y-84668095D01*
X170295714Y-84572856D01*
X170962381Y-84096666D02*
X170914762Y-84191904D01*
X170867143Y-84239523D01*
X170771905Y-84287142D01*
X170486190Y-84287142D01*
X170390952Y-84239523D01*
X170343333Y-84191904D01*
X170295714Y-84096666D01*
X170295714Y-83953808D01*
X170343333Y-83858570D01*
X170390952Y-83810951D01*
X170486190Y-83763332D01*
X170771905Y-83763332D01*
X170867143Y-83810951D01*
X170914762Y-83858570D01*
X170962381Y-83953808D01*
X170962381Y-84096666D01*
X102480476Y-62732381D02*
X102480476Y-61732381D01*
X102813810Y-62446667D01*
X103147143Y-61732381D01*
X103147143Y-62732381D01*
X103575714Y-62684762D02*
X103718571Y-62732381D01*
X103956667Y-62732381D01*
X104051905Y-62684762D01*
X104099524Y-62637143D01*
X104147143Y-62541905D01*
X104147143Y-62446667D01*
X104099524Y-62351429D01*
X104051905Y-62303810D01*
X103956667Y-62256190D01*
X103766190Y-62208571D01*
X103670952Y-62160952D01*
X103623333Y-62113333D01*
X103575714Y-62018095D01*
X103575714Y-61922857D01*
X103623333Y-61827619D01*
X103670952Y-61780000D01*
X103766190Y-61732381D01*
X104004286Y-61732381D01*
X104147143Y-61780000D01*
X104575714Y-62732381D02*
X104575714Y-61732381D01*
X104956667Y-61732381D01*
X105051905Y-61780000D01*
X105099524Y-61827619D01*
X105147143Y-61922857D01*
X105147143Y-62065714D01*
X105099524Y-62160952D01*
X105051905Y-62208571D01*
X104956667Y-62256190D01*
X104575714Y-62256190D01*
X102850001Y-63770000D02*
X102754763Y-63722381D01*
X102611906Y-63722381D01*
X102469048Y-63770000D01*
X102373810Y-63865238D01*
X102326191Y-63960476D01*
X102278572Y-64150952D01*
X102278572Y-64293810D01*
X102326191Y-64484286D01*
X102373810Y-64579524D01*
X102469048Y-64674762D01*
X102611906Y-64722381D01*
X102707144Y-64722381D01*
X102850001Y-64674762D01*
X102897620Y-64627143D01*
X102897620Y-64293810D01*
X102707144Y-64293810D01*
X103326191Y-64722381D02*
X103326191Y-63722381D01*
X103707144Y-63722381D01*
X103802382Y-63770000D01*
X103850001Y-63817619D01*
X103897620Y-63912857D01*
X103897620Y-64055714D01*
X103850001Y-64150952D01*
X103802382Y-64198571D01*
X103707144Y-64246190D01*
X103326191Y-64246190D01*
X104326191Y-64722381D02*
X104326191Y-63722381D01*
X104992857Y-63722381D02*
X105183334Y-63722381D01*
X105278572Y-63770000D01*
X105373810Y-63865238D01*
X105421429Y-64055714D01*
X105421429Y-64389048D01*
X105373810Y-64579524D01*
X105278572Y-64674762D01*
X105183334Y-64722381D01*
X104992857Y-64722381D01*
X104897619Y-64674762D01*
X104802381Y-64579524D01*
X104754762Y-64389048D01*
X104754762Y-64055714D01*
X104802381Y-63865238D01*
X104897619Y-63770000D01*
X104992857Y-63722381D01*
M02*
