G04 #@! TF.FileFunction,Soldermask,Top*
%FSLAX46Y46*%
G04 Gerber Fmt 4.6, Leading zero omitted, Abs format (unit mm)*
G04 Created by KiCad (PCBNEW 4.0.6) date Saturday, October 28, 2017 'PMt' 04:53:39 PM*
%MOMM*%
%LPD*%
G01*
G04 APERTURE LIST*
%ADD10C,0.100000*%
%ADD11R,1.700000X1.700000*%
%ADD12O,1.700000X1.700000*%
%ADD13C,1.524000*%
%ADD14R,1.778000X1.778000*%
%ADD15C,1.778000*%
G04 APERTURE END LIST*
D10*
D11*
X146230000Y-78480000D03*
D12*
X148770000Y-78480000D03*
X146230000Y-81020000D03*
X148770000Y-81020000D03*
X146230000Y-83560000D03*
X148770000Y-83560000D03*
X146230000Y-86100000D03*
X148770000Y-86100000D03*
X146230000Y-88640000D03*
X148770000Y-88640000D03*
X146230000Y-91180000D03*
X148770000Y-91180000D03*
X146230000Y-93720000D03*
X148770000Y-93720000D03*
X146230000Y-96260000D03*
X148770000Y-96260000D03*
X146230000Y-98800000D03*
X148770000Y-98800000D03*
X146230000Y-101340000D03*
X148770000Y-101340000D03*
X146230000Y-103880000D03*
X148770000Y-103880000D03*
X146230000Y-106420000D03*
X148770000Y-106420000D03*
X146230000Y-108960000D03*
X148770000Y-108960000D03*
X146230000Y-111500000D03*
X148770000Y-111500000D03*
X146230000Y-114040000D03*
X148770000Y-114040000D03*
X146230000Y-116580000D03*
X148770000Y-116580000D03*
X146230000Y-119120000D03*
X148770000Y-119120000D03*
X146230000Y-121660000D03*
X148770000Y-121660000D03*
X146230000Y-124200000D03*
X148770000Y-124200000D03*
X146230000Y-126740000D03*
X148770000Y-126740000D03*
D13*
X153960000Y-102110000D03*
X156500000Y-102110000D03*
X153960000Y-104650000D03*
X156500000Y-104650000D03*
X153960000Y-107190000D03*
X156500000Y-107190000D03*
X153960000Y-109730000D03*
X156500000Y-109730000D03*
X153960000Y-112270000D03*
X156500000Y-112270000D03*
X153960000Y-114810000D03*
X156500000Y-114810000D03*
X153960000Y-117350000D03*
X156500000Y-117350000D03*
X153960000Y-119890000D03*
X156500000Y-119890000D03*
X156500000Y-99570000D03*
X153960000Y-99570000D03*
X156500000Y-97030000D03*
X153960000Y-97030000D03*
X156500000Y-94490000D03*
X153960000Y-94490000D03*
X156500000Y-91950000D03*
X153960000Y-91950000D03*
X156500000Y-89410000D03*
X153960000Y-89410000D03*
X156500000Y-86870000D03*
X153960000Y-86870000D03*
X156500000Y-84330000D03*
X153960000Y-84330000D03*
X156500000Y-81790000D03*
X153960000Y-81790000D03*
X153960000Y-61470000D03*
X156500000Y-61470000D03*
X153960000Y-64010000D03*
X156500000Y-64010000D03*
X153960000Y-66550000D03*
X156500000Y-66550000D03*
X153960000Y-69090000D03*
X156500000Y-69090000D03*
X153960000Y-71630000D03*
X156500000Y-71630000D03*
X153960000Y-74170000D03*
X156500000Y-74170000D03*
X153960000Y-76710000D03*
X156500000Y-76710000D03*
X153960000Y-79250000D03*
X156500000Y-79250000D03*
X110780000Y-79250000D03*
X108240000Y-79250000D03*
X110780000Y-76710000D03*
X108240000Y-76710000D03*
X110780000Y-74170000D03*
X108240000Y-74170000D03*
X110780000Y-71630000D03*
X108240000Y-71630000D03*
X110780000Y-69090000D03*
X108240000Y-69090000D03*
X110780000Y-66550000D03*
X108240000Y-66550000D03*
X110780000Y-64010000D03*
X108240000Y-64010000D03*
X110780000Y-61470000D03*
X108240000Y-61470000D03*
X108240000Y-81790000D03*
X110780000Y-81790000D03*
X108240000Y-84330000D03*
X110780000Y-84330000D03*
X108240000Y-86870000D03*
X110780000Y-86870000D03*
X108240000Y-89410000D03*
X110780000Y-89410000D03*
X108240000Y-91950000D03*
X110780000Y-91950000D03*
X108240000Y-94490000D03*
X110780000Y-94490000D03*
X108240000Y-97030000D03*
X110780000Y-97030000D03*
X108240000Y-99570000D03*
X110780000Y-99570000D03*
X110780000Y-119890000D03*
X108240000Y-119890000D03*
X110780000Y-117350000D03*
X108240000Y-117350000D03*
X110780000Y-114810000D03*
X108240000Y-114810000D03*
X110780000Y-112270000D03*
X108240000Y-112270000D03*
X110780000Y-109730000D03*
X108240000Y-109730000D03*
X110780000Y-107190000D03*
X108240000Y-107190000D03*
X110780000Y-104650000D03*
X108240000Y-104650000D03*
X110780000Y-102110000D03*
X108240000Y-102110000D03*
D14*
X165280000Y-66300000D03*
D15*
X162740000Y-66300000D03*
X165280000Y-68840000D03*
X162740000Y-68840000D03*
X165280000Y-71380000D03*
X162740000Y-71380000D03*
X165280000Y-73920000D03*
X162740000Y-73920000D03*
X165280000Y-76460000D03*
X162740000Y-76460000D03*
X165280000Y-79000000D03*
X162740000Y-79000000D03*
X165280000Y-81540000D03*
X162740000Y-81540000D03*
X165280000Y-84080000D03*
X162740000Y-84080000D03*
X165280000Y-86620000D03*
X162740000Y-86620000D03*
X165280000Y-89160000D03*
X162740000Y-89160000D03*
X165280000Y-91700000D03*
X162740000Y-91700000D03*
X165280000Y-94240000D03*
X162740000Y-94240000D03*
X165280000Y-96780000D03*
X162740000Y-96780000D03*
X165280000Y-99320000D03*
X162740000Y-99320000D03*
X165280000Y-101860000D03*
X162740000Y-101860000D03*
X165280000Y-104400000D03*
X162740000Y-104400000D03*
X165280000Y-106940000D03*
X162740000Y-106940000D03*
X165280000Y-109480000D03*
X162740000Y-109480000D03*
X165280000Y-112020000D03*
X162740000Y-112020000D03*
X165280000Y-114560000D03*
X162740000Y-114560000D03*
D11*
X103790000Y-59950000D03*
D12*
X103790000Y-57410000D03*
D11*
X103850000Y-66600000D03*
D12*
X103850000Y-69140000D03*
X103850000Y-71680000D03*
X103850000Y-74220000D03*
X103850000Y-76760000D03*
X103850000Y-79300000D03*
X103850000Y-81840000D03*
X103850000Y-84380000D03*
X103850000Y-86920000D03*
X103850000Y-89460000D03*
X103850000Y-92000000D03*
X103850000Y-94540000D03*
X103850000Y-97080000D03*
X103850000Y-99620000D03*
M02*
