M48
;DRILL file {KiCad 4.0.1-stable} date Thursday, May 18, 2017 'PMt' 08:22:23 PM
;FORMAT={-:-/ absolute / inch / decimal}
FMAT,2
INCH,TZ
T1C0.013
T2C0.025
T3C0.039
T4C0.040
%
G90
G05
M72
T1
X2.6362Y-3.372
X2.6988Y-3.3992
X2.7669Y-3.4803
X2.8449Y-3.6024
X2.8543Y-2.787
X2.9067Y-3.6378
X2.974Y-2.8181
X2.976Y-3.6472
X3.0043Y-3.5807
X3.152Y-3.6354
X3.2488Y-3.5189
X3.3287Y-3.4913
X3.4094Y-3.4909
X3.7039Y-3.3024
X3.8059Y-3.2094
X3.9102Y-3.1752
T2
X1.7898Y-3.5575
X2.1047Y-3.6055
X2.411Y-3.2173
X2.4854Y-3.1047
X2.6283Y-3.0803
X2.9418Y-3.5844
X3.0488Y-3.4
X3.0984Y-3.4307
X3.1315Y-3.3437
X3.1331Y-3.1161
X3.1429Y-2.948
X3.4579Y-3.2594
X4.0799Y-3.6669
T3
X1.5594Y-2.8268
X1.5594Y-2.9268
X1.5594Y-3.0268
X1.7933Y-2.9102
X1.7933Y-3.0102
X2.0902Y-3.0051
X2.1902Y-3.0051
X2.2902Y-3.0051
X3.5083Y-2.9051
X3.5083Y-3.0051
X3.6083Y-2.9051
X3.6083Y-3.0051
X3.7083Y-2.9051
X3.7083Y-3.0051
X3.8083Y-2.9051
X3.8083Y-3.0051
X3.9083Y-2.9051
X3.9083Y-3.0051
T4
X2.0028Y-2.5681
X2.0028Y-2.6681
X2.1028Y-2.5681
X2.1028Y-2.6681
X2.2028Y-2.5681
X2.2028Y-2.6681
X2.3028Y-2.5681
X2.3028Y-2.6681
X2.4028Y-2.5681
X2.4028Y-2.6681
X2.5028Y-2.5681
X2.5028Y-2.6681
X2.6028Y-2.5681
X2.6028Y-2.6681
X2.7028Y-2.5681
X2.7028Y-2.6681
X2.8028Y-2.5681
X2.8028Y-2.6681
X2.9028Y-2.5681
X2.9028Y-2.6681
X3.0028Y-2.5681
X3.0028Y-2.6681
X3.1028Y-2.5681
X3.1028Y-2.6681
X3.2028Y-2.5681
X3.2028Y-2.6681
X3.3028Y-2.5681
X3.3028Y-2.6681
X3.4028Y-2.5681
X3.4028Y-2.6681
X3.5028Y-2.5681
X3.5028Y-2.6681
X3.6028Y-2.5681
X3.6028Y-2.6681
X3.7028Y-2.5681
X3.7028Y-2.6681
X3.8028Y-2.5681
X3.8028Y-2.6681
X3.9028Y-2.5681
X3.9028Y-2.6681
T0
M30
