G04 #@! TF.FileFunction,Soldermask,Bot*
%FSLAX46Y46*%
G04 Gerber Fmt 4.6, Leading zero omitted, Abs format (unit mm)*
G04 Created by KiCad (PCBNEW 4.0.1-stable) date Thursday, May 18, 2017 'PMt' 08:22:24 PM*
%MOMM*%
G01*
G04 APERTURE LIST*
%ADD10C,0.100000*%
%ADD11R,2.100000X2.100000*%
%ADD12O,2.100000X2.100000*%
%ADD13R,2.178000X2.178000*%
%ADD14C,2.178000*%
%ADD15R,1.670000X11.400000*%
G04 APERTURE END LIST*
D10*
D11*
X89110000Y-76330000D03*
D12*
X89110000Y-73790000D03*
X91650000Y-76330000D03*
X91650000Y-73790000D03*
X94190000Y-76330000D03*
X94190000Y-73790000D03*
X96730000Y-76330000D03*
X96730000Y-73790000D03*
X99270000Y-76330000D03*
X99270000Y-73790000D03*
D11*
X53090000Y-76330000D03*
D12*
X55630000Y-76330000D03*
X58170000Y-76330000D03*
D13*
X50870000Y-65230000D03*
D14*
X50870000Y-67770000D03*
X53410000Y-65230000D03*
X53410000Y-67770000D03*
X55950000Y-65230000D03*
X55950000Y-67770000D03*
X58490000Y-65230000D03*
X58490000Y-67770000D03*
X61030000Y-65230000D03*
X61030000Y-67770000D03*
X63570000Y-65230000D03*
X63570000Y-67770000D03*
X66110000Y-65230000D03*
X66110000Y-67770000D03*
X68650000Y-65230000D03*
X68650000Y-67770000D03*
X71190000Y-65230000D03*
X71190000Y-67770000D03*
X73730000Y-65230000D03*
X73730000Y-67770000D03*
X76270000Y-65230000D03*
X76270000Y-67770000D03*
X78810000Y-65230000D03*
X78810000Y-67770000D03*
X81350000Y-65230000D03*
X81350000Y-67770000D03*
X83890000Y-65230000D03*
X83890000Y-67770000D03*
X86430000Y-65230000D03*
X86430000Y-67770000D03*
X88970000Y-65230000D03*
X88970000Y-67770000D03*
X91510000Y-65230000D03*
X91510000Y-67770000D03*
X94050000Y-65230000D03*
X94050000Y-67770000D03*
X96590000Y-65230000D03*
X96590000Y-67770000D03*
X99130000Y-65230000D03*
X99130000Y-67770000D03*
D15*
X48330000Y-100000000D03*
X50870000Y-100000000D03*
X53410000Y-100000000D03*
X55950000Y-100000000D03*
X58490000Y-100000000D03*
X61030000Y-100000000D03*
X63570000Y-100000000D03*
X66110000Y-100000000D03*
X68650000Y-100000000D03*
X71190000Y-100000000D03*
X73730000Y-100000000D03*
X76270000Y-100000000D03*
X78810000Y-100000000D03*
X81350000Y-100000000D03*
X83890000Y-100000000D03*
X86430000Y-100000000D03*
X88970000Y-100000000D03*
X91510000Y-100000000D03*
X94050000Y-100000000D03*
X96590000Y-100000000D03*
X99130000Y-100000000D03*
X101670000Y-100000000D03*
D11*
X45550000Y-73920000D03*
D12*
X45550000Y-76460000D03*
D11*
X39610000Y-71800000D03*
D12*
X39610000Y-74340000D03*
X39610000Y-76880000D03*
M02*
