G04 #@! TF.FileFunction,Copper,L1,Top,Signal*
%FSLAX46Y46*%
G04 Gerber Fmt 4.6, Leading zero omitted, Abs format (unit mm)*
G04 Created by KiCad (PCBNEW 4.0.6) date Friday, April 21, 2017 'PMt' 03:46:42 PM*
%MOMM*%
%LPD*%
G01*
G04 APERTURE LIST*
%ADD10C,0.100000*%
%ADD11R,1.500000X1.250000*%
%ADD12R,1.250000X1.500000*%
%ADD13R,1.700000X1.700000*%
%ADD14O,1.700000X1.700000*%
%ADD15R,0.500000X2.000000*%
%ADD16R,2.000000X0.500000*%
%ADD17R,1.778000X1.778000*%
%ADD18C,1.778000*%
%ADD19R,1.270000X11.000000*%
%ADD20C,1.016000*%
%ADD21C,0.812800*%
%ADD22C,0.508000*%
%ADD23C,0.177800*%
%ADD24C,1.270000*%
%ADD25C,0.254000*%
G04 APERTURE END LIST*
D10*
D11*
X66790000Y-79880000D03*
X64290000Y-79880000D03*
D12*
X86120000Y-85270000D03*
X86120000Y-82770000D03*
D11*
X77230000Y-73260000D03*
X79730000Y-73260000D03*
D13*
X89110000Y-76330000D03*
D14*
X89110000Y-73790000D03*
X91650000Y-76330000D03*
X91650000Y-73790000D03*
X94190000Y-76330000D03*
X94190000Y-73790000D03*
X96730000Y-76330000D03*
X96730000Y-73790000D03*
X99270000Y-76330000D03*
X99270000Y-73790000D03*
D15*
X72320000Y-89090000D03*
X73120000Y-89090000D03*
X73920000Y-89090000D03*
X74720000Y-89090000D03*
X75520000Y-89090000D03*
X76320000Y-89090000D03*
X77120000Y-89090000D03*
X77920000Y-89090000D03*
X78720000Y-89090000D03*
X79520000Y-89090000D03*
X80320000Y-89090000D03*
D16*
X82320000Y-87090000D03*
X82320000Y-86290000D03*
X82320000Y-85490000D03*
X82320000Y-84690000D03*
X82320000Y-83890000D03*
X82320000Y-83090000D03*
X82320000Y-82290000D03*
X82320000Y-81490000D03*
X82320000Y-80690000D03*
X82320000Y-79890000D03*
X82320000Y-79090000D03*
D15*
X80320000Y-77090000D03*
X79520000Y-77090000D03*
X78720000Y-77090000D03*
X77920000Y-77090000D03*
X77120000Y-77090000D03*
X76320000Y-77090000D03*
X75520000Y-77090000D03*
X74720000Y-77090000D03*
X73920000Y-77090000D03*
X73120000Y-77090000D03*
X72320000Y-77090000D03*
D16*
X70320000Y-79090000D03*
X70320000Y-79890000D03*
X70320000Y-80690000D03*
X70320000Y-81490000D03*
X70320000Y-82290000D03*
X70320000Y-83090000D03*
X70320000Y-83890000D03*
X70320000Y-84690000D03*
X70320000Y-85490000D03*
X70320000Y-86290000D03*
X70320000Y-87090000D03*
D13*
X53090000Y-76330000D03*
D14*
X55630000Y-76330000D03*
X58170000Y-76330000D03*
D17*
X50870000Y-65230000D03*
D18*
X50870000Y-67770000D03*
X53410000Y-65230000D03*
X53410000Y-67770000D03*
X55950000Y-65230000D03*
X55950000Y-67770000D03*
X58490000Y-65230000D03*
X58490000Y-67770000D03*
X61030000Y-65230000D03*
X61030000Y-67770000D03*
X63570000Y-65230000D03*
X63570000Y-67770000D03*
X66110000Y-65230000D03*
X66110000Y-67770000D03*
X68650000Y-65230000D03*
X68650000Y-67770000D03*
X71190000Y-65230000D03*
X71190000Y-67770000D03*
X73730000Y-65230000D03*
X73730000Y-67770000D03*
X76270000Y-65230000D03*
X76270000Y-67770000D03*
X78810000Y-65230000D03*
X78810000Y-67770000D03*
X81350000Y-65230000D03*
X81350000Y-67770000D03*
X83890000Y-65230000D03*
X83890000Y-67770000D03*
X86430000Y-65230000D03*
X86430000Y-67770000D03*
X88970000Y-65230000D03*
X88970000Y-67770000D03*
X91510000Y-65230000D03*
X91510000Y-67770000D03*
X94050000Y-65230000D03*
X94050000Y-67770000D03*
X96590000Y-65230000D03*
X96590000Y-67770000D03*
X99130000Y-65230000D03*
X99130000Y-67770000D03*
D19*
X48330000Y-100000000D03*
X50870000Y-100000000D03*
X53410000Y-100000000D03*
X55950000Y-100000000D03*
X58490000Y-100000000D03*
X61030000Y-100000000D03*
X63570000Y-100000000D03*
X66110000Y-100000000D03*
X68650000Y-100000000D03*
X71190000Y-100000000D03*
X73730000Y-100000000D03*
X76270000Y-100000000D03*
X78810000Y-100000000D03*
X81350000Y-100000000D03*
X83890000Y-100000000D03*
X86430000Y-100000000D03*
X88970000Y-100000000D03*
X91510000Y-100000000D03*
X94050000Y-100000000D03*
X96590000Y-100000000D03*
X99130000Y-100000000D03*
X101670000Y-100000000D03*
D13*
X45550000Y-73920000D03*
D14*
X45550000Y-76460000D03*
D13*
X39610000Y-71800000D03*
D14*
X39610000Y-74340000D03*
X39610000Y-76880000D03*
D20*
X61240000Y-81720000D03*
X66760000Y-78240000D03*
X74722062Y-91043791D03*
X87830000Y-82790000D03*
X79830000Y-74880000D03*
X63130000Y-78860000D03*
X103630000Y-93140000D03*
X79540000Y-84930000D03*
X79580000Y-79150000D03*
X77440000Y-86360000D03*
X78700000Y-87140000D03*
D21*
X72260000Y-91500000D03*
X73830001Y-92400000D03*
X75590000Y-92640000D03*
X76310000Y-90950000D03*
X80060000Y-92340000D03*
X82520000Y-89380000D03*
X84550000Y-88680000D03*
X86600000Y-88670000D03*
X94080000Y-83880000D03*
X96670000Y-81520000D03*
X99320000Y-80649998D03*
X72500000Y-70790000D03*
X75540000Y-71580000D03*
D20*
X53460000Y-91580000D03*
D21*
X66960000Y-85650000D03*
X68550002Y-86340000D03*
X70280000Y-88400000D03*
D20*
X45460000Y-90360000D03*
D22*
X80812000Y-84690000D02*
X77910000Y-81788000D01*
X82320000Y-84690000D02*
X80812000Y-84690000D01*
X77910000Y-81788000D02*
X77910000Y-79890000D01*
D23*
X66790000Y-79880000D02*
X66790000Y-78270000D01*
X66790000Y-78270000D02*
X66760000Y-78240000D01*
X71190000Y-65230000D02*
X72480000Y-66520000D01*
X72480000Y-66520000D02*
X72480000Y-68570000D01*
X72480000Y-68570000D02*
X74050000Y-70140000D01*
X74050000Y-70140000D02*
X76220000Y-70140000D01*
X76220000Y-70140000D02*
X77230000Y-71150000D01*
X77230000Y-71150000D02*
X77230000Y-73260000D01*
D22*
X77910000Y-79890000D02*
X70320000Y-79890000D01*
X77920000Y-77090000D02*
X77920000Y-78598000D01*
X77920000Y-78598000D02*
X77910000Y-78608000D01*
X77910000Y-78608000D02*
X77910000Y-79890000D01*
X70320000Y-79890000D02*
X66800000Y-79890000D01*
X66800000Y-79890000D02*
X66790000Y-79880000D01*
X82320000Y-84690000D02*
X85540000Y-84690000D01*
X85540000Y-84690000D02*
X86120000Y-85270000D01*
X77920000Y-77090000D02*
X77920000Y-73950000D01*
X77920000Y-73950000D02*
X77230000Y-73260000D01*
D23*
X74720000Y-91041729D02*
X74722062Y-91043791D01*
X74720000Y-89090000D02*
X74720000Y-91041729D01*
X86120000Y-82770000D02*
X87810000Y-82770000D01*
X87810000Y-82770000D02*
X87830000Y-82790000D01*
X79730000Y-73260000D02*
X79730000Y-74780000D01*
X79730000Y-74780000D02*
X79830000Y-74880000D01*
X64290000Y-79880000D02*
X64150000Y-79880000D01*
X64150000Y-79880000D02*
X63130000Y-78860000D01*
D22*
X86120000Y-82770000D02*
X85800000Y-83090000D01*
X85800000Y-83090000D02*
X82320000Y-83090000D01*
X79730000Y-73260000D02*
X78720000Y-74270000D01*
X78720000Y-74270000D02*
X78720000Y-77090000D01*
D23*
X101670000Y-100000000D02*
X101670000Y-95135000D01*
X101670000Y-95135000D02*
X103630000Y-93175000D01*
X103630000Y-93175000D02*
X103630000Y-93140000D01*
X80047999Y-85437999D02*
X79540000Y-84930000D01*
X80320000Y-85710000D02*
X80047999Y-85437999D01*
X80320000Y-89090000D02*
X80320000Y-85710000D01*
X79520000Y-79090000D02*
X79580000Y-79150000D01*
X79520000Y-77090000D02*
X79520000Y-79090000D01*
X78158420Y-86360000D02*
X77440000Y-86360000D01*
X79520000Y-86820000D02*
X79060000Y-86360000D01*
X79520000Y-89090000D02*
X79520000Y-86820000D01*
X79060000Y-86360000D02*
X78158420Y-86360000D01*
X78720000Y-89090000D02*
X78720000Y-87160000D01*
X78720000Y-87160000D02*
X78700000Y-87140000D01*
X72320000Y-89090000D02*
X71970000Y-89090000D01*
X71970000Y-89090000D02*
X66110000Y-94950000D01*
X66110000Y-94950000D02*
X66110000Y-100000000D01*
X72666399Y-91093601D02*
X72260000Y-91500000D01*
X73120000Y-90640000D02*
X72666399Y-91093601D01*
X73120000Y-89090000D02*
X73120000Y-90640000D01*
X73920000Y-92310001D02*
X73830001Y-92400000D01*
X73920000Y-89090000D02*
X73920000Y-92310001D01*
X75520000Y-92570000D02*
X75590000Y-92640000D01*
X75520000Y-89090000D02*
X75520000Y-92570000D01*
X76320000Y-90940000D02*
X76310000Y-90950000D01*
X76320000Y-89090000D02*
X76320000Y-90940000D01*
X77120000Y-89090000D02*
X77120000Y-90267800D01*
X77120000Y-90267800D02*
X79192200Y-92340000D01*
X79485264Y-92340000D02*
X80060000Y-92340000D01*
X79192200Y-92340000D02*
X79485264Y-92340000D01*
X79059098Y-91406898D02*
X77920000Y-90267800D01*
X80103090Y-91406898D02*
X79059098Y-91406898D01*
X81350000Y-92653808D02*
X80103090Y-91406898D01*
X77920000Y-90267800D02*
X77920000Y-89090000D01*
X81350000Y-100000000D02*
X81350000Y-92653808D01*
X82320000Y-89180000D02*
X82520000Y-89380000D01*
X82320000Y-87090000D02*
X82320000Y-89180000D01*
X84550000Y-88105264D02*
X84550000Y-88680000D01*
X84550000Y-87382908D02*
X84550000Y-88105264D01*
X83457092Y-86290000D02*
X84550000Y-87382908D01*
X82320000Y-86290000D02*
X83457092Y-86290000D01*
X86600000Y-88592200D02*
X86600000Y-88670000D01*
X83497800Y-85490000D02*
X86600000Y-88592200D01*
X82320000Y-85490000D02*
X83497800Y-85490000D01*
X94070000Y-83890000D02*
X94080000Y-83880000D01*
X82320000Y-83890000D02*
X94070000Y-83890000D01*
X96095264Y-81520000D02*
X96670000Y-81520000D01*
X84860000Y-81520000D02*
X96095264Y-81520000D01*
X84090000Y-82290000D02*
X84860000Y-81520000D01*
X82320000Y-82290000D02*
X84090000Y-82290000D01*
X98745264Y-80649998D02*
X99320000Y-80649998D01*
X84337802Y-80649998D02*
X98745264Y-80649998D01*
X83497800Y-81490000D02*
X84337802Y-80649998D01*
X82320000Y-81490000D02*
X83497800Y-81490000D01*
X53410000Y-65230000D02*
X54690000Y-66510000D01*
X54690000Y-66510000D02*
X54690000Y-68470000D01*
X54690000Y-68470000D02*
X61920000Y-75700000D01*
X61920000Y-75700000D02*
X61920000Y-79867971D01*
X61920000Y-79867971D02*
X64342029Y-82290000D01*
X64342029Y-82290000D02*
X70320000Y-82290000D01*
X55950000Y-65230000D02*
X57240000Y-66520000D01*
X64044938Y-81490000D02*
X69142200Y-81490000D01*
X57240000Y-66520000D02*
X57240000Y-70400000D01*
X57240000Y-70400000D02*
X62324938Y-75484938D01*
X62324938Y-75484938D02*
X62324938Y-79770000D01*
X62324938Y-79770000D02*
X64044938Y-81490000D01*
X69142200Y-81490000D02*
X70320000Y-81490000D01*
X70320000Y-80690000D02*
X69142200Y-80690000D01*
X69142200Y-80690000D02*
X68812200Y-81020000D01*
X68812200Y-81020000D02*
X66074938Y-81020000D01*
X66074938Y-81020000D02*
X65490000Y-80435062D01*
X65490000Y-80435062D02*
X65490000Y-76330000D01*
X65490000Y-76330000D02*
X59770000Y-70610000D01*
X59770000Y-70610000D02*
X59770000Y-66510000D01*
X59770000Y-66510000D02*
X59378999Y-66118999D01*
X59378999Y-66118999D02*
X58490000Y-65230000D01*
X72320000Y-77090000D02*
X72320000Y-76020000D01*
X72320000Y-76020000D02*
X64820000Y-68520000D01*
X64820000Y-68520000D02*
X64820000Y-66480000D01*
X64820000Y-66480000D02*
X64458999Y-66118999D01*
X64458999Y-66118999D02*
X63570000Y-65230000D01*
X63570000Y-67770000D02*
X63570000Y-71260000D01*
X63570000Y-71260000D02*
X70320000Y-78010000D01*
X70320000Y-78010000D02*
X70320000Y-79090000D01*
X66110000Y-65230000D02*
X67360000Y-66480000D01*
X67360000Y-66480000D02*
X67360000Y-70152200D01*
X73120000Y-75912200D02*
X73120000Y-77090000D01*
X67360000Y-70152200D02*
X73120000Y-75912200D01*
X68650000Y-65230000D02*
X69910000Y-66490000D01*
X69910000Y-66490000D02*
X69910000Y-71102200D01*
X69910000Y-71102200D02*
X74720000Y-75912200D01*
X74720000Y-75912200D02*
X74720000Y-77090000D01*
X73920000Y-77090000D02*
X73920000Y-75912200D01*
X73920000Y-75912200D02*
X68650000Y-70642200D01*
X68650000Y-70642200D02*
X68650000Y-69027235D01*
X68650000Y-69027235D02*
X68650000Y-67770000D01*
X71190000Y-67770000D02*
X71190000Y-70626190D01*
X71190000Y-70626190D02*
X75520000Y-74956190D01*
X75520000Y-74956190D02*
X75520000Y-75912200D01*
X75520000Y-75912200D02*
X75520000Y-77090000D01*
X72906399Y-71294370D02*
X72906399Y-71196399D01*
X72906399Y-71196399D02*
X72500000Y-70790000D01*
X76320000Y-74707971D02*
X72906399Y-71294370D01*
X76320000Y-77090000D02*
X76320000Y-74707971D01*
X80320000Y-77090000D02*
X80320000Y-76340000D01*
X80320000Y-76340000D02*
X81590000Y-75070000D01*
X81590000Y-75070000D02*
X81590000Y-72260438D01*
X81590000Y-72260438D02*
X77540000Y-68210438D01*
X77540000Y-68210438D02*
X77540000Y-66500000D01*
X77540000Y-66500000D02*
X77158999Y-66118999D01*
X77158999Y-66118999D02*
X76270000Y-65230000D01*
X75540000Y-72154736D02*
X75540000Y-71580000D01*
X77120000Y-75005062D02*
X75540000Y-73425062D01*
X77120000Y-77090000D02*
X77120000Y-75005062D01*
X75540000Y-73425062D02*
X75540000Y-72154736D01*
X82320000Y-79890000D02*
X83497800Y-79890000D01*
X83780000Y-72940000D02*
X80070000Y-69230000D01*
X83497800Y-79890000D02*
X83780000Y-79607800D01*
X83780000Y-79607800D02*
X83780000Y-72940000D01*
X80070000Y-69230000D02*
X80070000Y-66490000D01*
X80070000Y-66490000D02*
X79698999Y-66118999D01*
X79698999Y-66118999D02*
X78810000Y-65230000D01*
X82320000Y-79090000D02*
X83390000Y-78020000D01*
X83390000Y-78020000D02*
X83390000Y-73290000D01*
X83390000Y-73290000D02*
X78810000Y-68710000D01*
X78810000Y-68710000D02*
X78810000Y-67770000D01*
X85020000Y-79167800D02*
X85020000Y-71440000D01*
X85020000Y-71440000D02*
X81350000Y-67770000D01*
X82320000Y-80690000D02*
X83497800Y-80690000D01*
X83497800Y-80690000D02*
X85020000Y-79167800D01*
X70320000Y-83090000D02*
X61950000Y-83090000D01*
X61950000Y-83090000D02*
X53460000Y-91580000D01*
X53410000Y-94322200D02*
X53410000Y-100000000D01*
X63842200Y-83890000D02*
X53410000Y-94322200D01*
X70320000Y-83890000D02*
X63842200Y-83890000D01*
X70320000Y-84690000D02*
X66395000Y-84690000D01*
X66395000Y-84690000D02*
X55950000Y-95135000D01*
X55950000Y-95135000D02*
X55950000Y-100000000D01*
X67120000Y-85490000D02*
X66960000Y-85650000D01*
X70320000Y-85490000D02*
X67120000Y-85490000D01*
X68600002Y-86290000D02*
X68550002Y-86340000D01*
X70320000Y-86290000D02*
X68600002Y-86290000D01*
X70320000Y-88360000D02*
X70280000Y-88400000D01*
X70320000Y-87090000D02*
X70320000Y-88360000D01*
D24*
X45550000Y-73920000D02*
X44000000Y-73920000D01*
X44000000Y-73920000D02*
X41040000Y-76880000D01*
X41040000Y-76880000D02*
X39610000Y-76880000D01*
X53410000Y-67770000D02*
X50870000Y-67770000D01*
X45460000Y-90360000D02*
X45460000Y-76550000D01*
X45460000Y-76550000D02*
X45550000Y-76460000D01*
X45460000Y-90360000D02*
X48330000Y-93230000D01*
X48330000Y-93230000D02*
X48330000Y-100000000D01*
D23*
X48330000Y-100000000D02*
X48330000Y-95135000D01*
D25*
G36*
X112704761Y-35505663D02*
X112878349Y-35621651D01*
X112994337Y-35795239D01*
X113044000Y-36044911D01*
X113044000Y-93455089D01*
X112994337Y-93704761D01*
X112878349Y-93878349D01*
X112704761Y-93994337D01*
X112455089Y-94044000D01*
X103500000Y-94044000D01*
X103407050Y-94062489D01*
X103444125Y-94025414D01*
X103452391Y-94028846D01*
X103806057Y-94029154D01*
X104132920Y-93894097D01*
X104383218Y-93644236D01*
X104518846Y-93317609D01*
X104519154Y-92963943D01*
X104384097Y-92637080D01*
X104134236Y-92386782D01*
X103807609Y-92251154D01*
X103453943Y-92250846D01*
X103127080Y-92385903D01*
X102876782Y-92635764D01*
X102741154Y-92962391D01*
X102740846Y-93316057D01*
X102765277Y-93375184D01*
X102028926Y-94111536D01*
X101035000Y-94111536D01*
X100893810Y-94138103D01*
X100764135Y-94221546D01*
X100677141Y-94348866D01*
X100646536Y-94500000D01*
X100646536Y-105044000D01*
X100153464Y-105044000D01*
X100153464Y-94500000D01*
X100126897Y-94358810D01*
X100043454Y-94229135D01*
X99916134Y-94142141D01*
X99765000Y-94111536D01*
X98495000Y-94111536D01*
X98353810Y-94138103D01*
X98224135Y-94221546D01*
X98137141Y-94348866D01*
X98106536Y-94500000D01*
X98106536Y-105044000D01*
X97613464Y-105044000D01*
X97613464Y-94500000D01*
X97586897Y-94358810D01*
X97503454Y-94229135D01*
X97376134Y-94142141D01*
X97225000Y-94111536D01*
X95955000Y-94111536D01*
X95813810Y-94138103D01*
X95684135Y-94221546D01*
X95597141Y-94348866D01*
X95566536Y-94500000D01*
X95566536Y-105044000D01*
X95073464Y-105044000D01*
X95073464Y-94500000D01*
X95046897Y-94358810D01*
X94963454Y-94229135D01*
X94836134Y-94142141D01*
X94685000Y-94111536D01*
X93415000Y-94111536D01*
X93273810Y-94138103D01*
X93144135Y-94221546D01*
X93057141Y-94348866D01*
X93026536Y-94500000D01*
X93026536Y-105044000D01*
X92533464Y-105044000D01*
X92533464Y-94500000D01*
X92506897Y-94358810D01*
X92423454Y-94229135D01*
X92296134Y-94142141D01*
X92145000Y-94111536D01*
X90875000Y-94111536D01*
X90733810Y-94138103D01*
X90604135Y-94221546D01*
X90517141Y-94348866D01*
X90486536Y-94500000D01*
X90486536Y-105044000D01*
X89993464Y-105044000D01*
X89993464Y-94500000D01*
X89966897Y-94358810D01*
X89883454Y-94229135D01*
X89756134Y-94142141D01*
X89605000Y-94111536D01*
X88335000Y-94111536D01*
X88193810Y-94138103D01*
X88064135Y-94221546D01*
X87977141Y-94348866D01*
X87946536Y-94500000D01*
X87946536Y-105044000D01*
X87453464Y-105044000D01*
X87453464Y-94500000D01*
X87426897Y-94358810D01*
X87343454Y-94229135D01*
X87216134Y-94142141D01*
X87065000Y-94111536D01*
X85795000Y-94111536D01*
X85653810Y-94138103D01*
X85524135Y-94221546D01*
X85437141Y-94348866D01*
X85406536Y-94500000D01*
X85406536Y-105044000D01*
X84913464Y-105044000D01*
X84913464Y-94500000D01*
X84886897Y-94358810D01*
X84803454Y-94229135D01*
X84676134Y-94142141D01*
X84525000Y-94111536D01*
X83255000Y-94111536D01*
X83113810Y-94138103D01*
X82984135Y-94221546D01*
X82897141Y-94348866D01*
X82866536Y-94500000D01*
X82866536Y-105044000D01*
X82373464Y-105044000D01*
X82373464Y-94500000D01*
X82346897Y-94358810D01*
X82263454Y-94229135D01*
X82136134Y-94142141D01*
X81985000Y-94111536D01*
X81819900Y-94111536D01*
X81819900Y-92653808D01*
X81784131Y-92473985D01*
X81682269Y-92321539D01*
X80435359Y-91074629D01*
X80282913Y-90972767D01*
X80280409Y-90972269D01*
X80103090Y-90936998D01*
X79253737Y-90936998D01*
X78795202Y-90478464D01*
X78970000Y-90478464D01*
X79111190Y-90451897D01*
X79118187Y-90447395D01*
X79118866Y-90447859D01*
X79270000Y-90478464D01*
X79770000Y-90478464D01*
X79911190Y-90451897D01*
X79918187Y-90447395D01*
X79918866Y-90447859D01*
X80070000Y-90478464D01*
X80570000Y-90478464D01*
X80711190Y-90451897D01*
X80840865Y-90368454D01*
X80927859Y-90241134D01*
X80958464Y-90090000D01*
X80958464Y-88090000D01*
X80931897Y-87948810D01*
X80848454Y-87819135D01*
X80789900Y-87779127D01*
X80789900Y-85710000D01*
X80754131Y-85530177D01*
X80729082Y-85492689D01*
X80652270Y-85377731D01*
X80415144Y-85140606D01*
X80428846Y-85107609D01*
X80428962Y-84973750D01*
X80685000Y-84973750D01*
X80685000Y-85066309D01*
X80781673Y-85299698D01*
X80931536Y-85449562D01*
X80931536Y-85740000D01*
X80958103Y-85881190D01*
X80962605Y-85888187D01*
X80962141Y-85888866D01*
X80931536Y-86040000D01*
X80931536Y-86540000D01*
X80958103Y-86681190D01*
X80962605Y-86688187D01*
X80962141Y-86688866D01*
X80931536Y-86840000D01*
X80931536Y-87340000D01*
X80958103Y-87481190D01*
X81041546Y-87610865D01*
X81168866Y-87697859D01*
X81320000Y-87728464D01*
X81850100Y-87728464D01*
X81850100Y-88940047D01*
X81732737Y-89222689D01*
X81732464Y-89535936D01*
X81852086Y-89825444D01*
X82073391Y-90047136D01*
X82362689Y-90167263D01*
X82675936Y-90167536D01*
X82965444Y-90047914D01*
X83187136Y-89826609D01*
X83307263Y-89537311D01*
X83307536Y-89224064D01*
X83187914Y-88934556D01*
X82966609Y-88712864D01*
X82789900Y-88639488D01*
X82789900Y-87728464D01*
X83320000Y-87728464D01*
X83461190Y-87701897D01*
X83590865Y-87618454D01*
X83677859Y-87491134D01*
X83708464Y-87340000D01*
X83708464Y-87205911D01*
X84080100Y-87577547D01*
X84080100Y-88036499D01*
X83882864Y-88233391D01*
X83762737Y-88522689D01*
X83762464Y-88835936D01*
X83882086Y-89125444D01*
X84103391Y-89347136D01*
X84392689Y-89467263D01*
X84705936Y-89467536D01*
X84995444Y-89347914D01*
X85217136Y-89126609D01*
X85337263Y-88837311D01*
X85337536Y-88524064D01*
X85217914Y-88234556D01*
X85019900Y-88036196D01*
X85019900Y-87676639D01*
X85825416Y-88482155D01*
X85812737Y-88512689D01*
X85812464Y-88825936D01*
X85932086Y-89115444D01*
X86153391Y-89337136D01*
X86442689Y-89457263D01*
X86755936Y-89457536D01*
X87045444Y-89337914D01*
X87267136Y-89116609D01*
X87387263Y-88827311D01*
X87387536Y-88514064D01*
X87267914Y-88224556D01*
X87046609Y-88002864D01*
X86757311Y-87882737D01*
X86554899Y-87882561D01*
X85298098Y-86625760D01*
X85368690Y-86655000D01*
X85834250Y-86655000D01*
X85993000Y-86496250D01*
X85993000Y-85397000D01*
X86247000Y-85397000D01*
X86247000Y-86496250D01*
X86405750Y-86655000D01*
X86871310Y-86655000D01*
X87104699Y-86558327D01*
X87283327Y-86379698D01*
X87380000Y-86146309D01*
X87380000Y-85555750D01*
X87221250Y-85397000D01*
X86247000Y-85397000D01*
X85993000Y-85397000D01*
X85018750Y-85397000D01*
X84860000Y-85555750D01*
X84860000Y-86146309D01*
X84889241Y-86216902D01*
X83891632Y-85219294D01*
X83955000Y-85066309D01*
X83955000Y-84973750D01*
X83796250Y-84815000D01*
X82447000Y-84815000D01*
X82447000Y-84837000D01*
X82193000Y-84837000D01*
X82193000Y-84815000D01*
X80843750Y-84815000D01*
X80685000Y-84973750D01*
X80428962Y-84973750D01*
X80429154Y-84753943D01*
X80294097Y-84427080D01*
X80044236Y-84176782D01*
X79717609Y-84041154D01*
X79363943Y-84040846D01*
X79037080Y-84175903D01*
X78786782Y-84425764D01*
X78651154Y-84752391D01*
X78650846Y-85106057D01*
X78785903Y-85432920D01*
X79035764Y-85683218D01*
X79362391Y-85818846D01*
X79716057Y-85819154D01*
X79750418Y-85804956D01*
X79850100Y-85904638D01*
X79850100Y-86485561D01*
X79392269Y-86027731D01*
X79239823Y-85925869D01*
X79231085Y-85924131D01*
X79060000Y-85890100D01*
X78207741Y-85890100D01*
X78194097Y-85857080D01*
X77944236Y-85606782D01*
X77617609Y-85471154D01*
X77263943Y-85470846D01*
X76937080Y-85605903D01*
X76686782Y-85855764D01*
X76551154Y-86182391D01*
X76550846Y-86536057D01*
X76685903Y-86862920D01*
X76935764Y-87113218D01*
X77262391Y-87248846D01*
X77616057Y-87249154D01*
X77810974Y-87168616D01*
X77810846Y-87316057D01*
X77945903Y-87642920D01*
X78004417Y-87701536D01*
X77670000Y-87701536D01*
X77528810Y-87728103D01*
X77521813Y-87732605D01*
X77521134Y-87732141D01*
X77370000Y-87701536D01*
X76870000Y-87701536D01*
X76728810Y-87728103D01*
X76721813Y-87732605D01*
X76721134Y-87732141D01*
X76570000Y-87701536D01*
X76070000Y-87701536D01*
X75928810Y-87728103D01*
X75921813Y-87732605D01*
X75921134Y-87732141D01*
X75770000Y-87701536D01*
X75270000Y-87701536D01*
X75128810Y-87728103D01*
X75121813Y-87732605D01*
X75121134Y-87732141D01*
X74970000Y-87701536D01*
X74470000Y-87701536D01*
X74328810Y-87728103D01*
X74321813Y-87732605D01*
X74321134Y-87732141D01*
X74170000Y-87701536D01*
X73670000Y-87701536D01*
X73528810Y-87728103D01*
X73521813Y-87732605D01*
X73521134Y-87732141D01*
X73370000Y-87701536D01*
X72870000Y-87701536D01*
X72728810Y-87728103D01*
X72721813Y-87732605D01*
X72721134Y-87732141D01*
X72570000Y-87701536D01*
X72070000Y-87701536D01*
X71928810Y-87728103D01*
X71799135Y-87811546D01*
X71712141Y-87938866D01*
X71681536Y-88090000D01*
X71681536Y-88728461D01*
X71637730Y-88757731D01*
X66283926Y-94111536D01*
X65475000Y-94111536D01*
X65333810Y-94138103D01*
X65204135Y-94221546D01*
X65117141Y-94348866D01*
X65086536Y-94500000D01*
X65086536Y-105044000D01*
X64593464Y-105044000D01*
X64593464Y-94500000D01*
X64566897Y-94358810D01*
X64483454Y-94229135D01*
X64356134Y-94142141D01*
X64205000Y-94111536D01*
X62935000Y-94111536D01*
X62793810Y-94138103D01*
X62664135Y-94221546D01*
X62577141Y-94348866D01*
X62546536Y-94500000D01*
X62546536Y-105044000D01*
X62053464Y-105044000D01*
X62053464Y-94500000D01*
X62026897Y-94358810D01*
X61943454Y-94229135D01*
X61816134Y-94142141D01*
X61665000Y-94111536D01*
X60395000Y-94111536D01*
X60253810Y-94138103D01*
X60124135Y-94221546D01*
X60037141Y-94348866D01*
X60006536Y-94500000D01*
X60006536Y-105044000D01*
X59513464Y-105044000D01*
X59513464Y-94500000D01*
X59486897Y-94358810D01*
X59403454Y-94229135D01*
X59276134Y-94142141D01*
X59125000Y-94111536D01*
X57855000Y-94111536D01*
X57713810Y-94138103D01*
X57584135Y-94221546D01*
X57497141Y-94348866D01*
X57466536Y-94500000D01*
X57466536Y-105044000D01*
X56973464Y-105044000D01*
X56973464Y-94776074D01*
X66172664Y-85576875D01*
X66172464Y-85805936D01*
X66292086Y-86095444D01*
X66513391Y-86317136D01*
X66802689Y-86437263D01*
X67115936Y-86437536D01*
X67405444Y-86317914D01*
X67627136Y-86096609D01*
X67683903Y-85959900D01*
X67855249Y-85959900D01*
X67762739Y-86182689D01*
X67762466Y-86495936D01*
X67882088Y-86785444D01*
X68103393Y-87007136D01*
X68392691Y-87127263D01*
X68705938Y-87127536D01*
X68931536Y-87034321D01*
X68931536Y-87340000D01*
X68958103Y-87481190D01*
X69041546Y-87610865D01*
X69168866Y-87697859D01*
X69320000Y-87728464D01*
X69843322Y-87728464D01*
X69834556Y-87732086D01*
X69612864Y-87953391D01*
X69492737Y-88242689D01*
X69492464Y-88555936D01*
X69612086Y-88845444D01*
X69833391Y-89067136D01*
X70122689Y-89187263D01*
X70435936Y-89187536D01*
X70725444Y-89067914D01*
X70947136Y-88846609D01*
X71067263Y-88557311D01*
X71067536Y-88244064D01*
X70947914Y-87954556D01*
X70789900Y-87796266D01*
X70789900Y-87728464D01*
X71320000Y-87728464D01*
X71461190Y-87701897D01*
X71590865Y-87618454D01*
X71677859Y-87491134D01*
X71708464Y-87340000D01*
X71708464Y-86840000D01*
X71681897Y-86698810D01*
X71677395Y-86691813D01*
X71677859Y-86691134D01*
X71708464Y-86540000D01*
X71708464Y-86040000D01*
X71681897Y-85898810D01*
X71677395Y-85891813D01*
X71677859Y-85891134D01*
X71708464Y-85740000D01*
X71708464Y-85240000D01*
X71681897Y-85098810D01*
X71677395Y-85091813D01*
X71677859Y-85091134D01*
X71708464Y-84940000D01*
X71708464Y-84440000D01*
X71681897Y-84298810D01*
X71677395Y-84291813D01*
X71677859Y-84291134D01*
X71708464Y-84140000D01*
X71708464Y-83640000D01*
X71681897Y-83498810D01*
X71677395Y-83491813D01*
X71677859Y-83491134D01*
X71708464Y-83340000D01*
X71708464Y-82840000D01*
X71681897Y-82698810D01*
X71677395Y-82691813D01*
X71677859Y-82691134D01*
X71708464Y-82540000D01*
X71708464Y-82040000D01*
X71681897Y-81898810D01*
X71677395Y-81891813D01*
X71677859Y-81891134D01*
X71708464Y-81740000D01*
X71708464Y-81240000D01*
X71681897Y-81098810D01*
X71677395Y-81091813D01*
X71677859Y-81091134D01*
X71708464Y-80940000D01*
X71708464Y-80649562D01*
X71858327Y-80499698D01*
X71955000Y-80266309D01*
X71955000Y-80173750D01*
X71796250Y-80015000D01*
X70447000Y-80015000D01*
X70447000Y-80037000D01*
X70193000Y-80037000D01*
X70193000Y-80015000D01*
X68843750Y-80015000D01*
X68685000Y-80173750D01*
X68685000Y-80266309D01*
X68748368Y-80419293D01*
X68617562Y-80550100D01*
X68175000Y-80550100D01*
X68175000Y-80165750D01*
X68016250Y-80007000D01*
X66917000Y-80007000D01*
X66917000Y-80027000D01*
X66663000Y-80027000D01*
X66663000Y-80007000D01*
X66643000Y-80007000D01*
X66643000Y-79753000D01*
X66663000Y-79753000D01*
X66663000Y-78778750D01*
X66917000Y-78778750D01*
X66917000Y-79753000D01*
X68016250Y-79753000D01*
X68175000Y-79594250D01*
X68175000Y-79128690D01*
X68078327Y-78895301D01*
X67899698Y-78716673D01*
X67666309Y-78620000D01*
X67075750Y-78620000D01*
X66917000Y-78778750D01*
X66663000Y-78778750D01*
X66504250Y-78620000D01*
X65959900Y-78620000D01*
X65959900Y-76330000D01*
X65924131Y-76150177D01*
X65913409Y-76134131D01*
X65822270Y-75997731D01*
X60239900Y-70415362D01*
X60239900Y-68776141D01*
X60309663Y-68846026D01*
X60776273Y-69039779D01*
X61281510Y-69040220D01*
X61748458Y-68847282D01*
X62106026Y-68490337D01*
X62299779Y-68023727D01*
X62299781Y-68021512D01*
X62492718Y-68488458D01*
X62849663Y-68846026D01*
X63100100Y-68950016D01*
X63100100Y-71260000D01*
X63106937Y-71294370D01*
X63135869Y-71439823D01*
X63237731Y-71592269D01*
X69850100Y-78204639D01*
X69850100Y-78451536D01*
X69320000Y-78451536D01*
X69178810Y-78478103D01*
X69049135Y-78561546D01*
X68962141Y-78688866D01*
X68931536Y-78840000D01*
X68931536Y-79130438D01*
X68781673Y-79280302D01*
X68685000Y-79513691D01*
X68685000Y-79606250D01*
X68843750Y-79765000D01*
X70193000Y-79765000D01*
X70193000Y-79743000D01*
X70447000Y-79743000D01*
X70447000Y-79765000D01*
X71796250Y-79765000D01*
X71955000Y-79606250D01*
X71955000Y-79513691D01*
X71858327Y-79280302D01*
X71708464Y-79130438D01*
X71708464Y-78840000D01*
X71681897Y-78698810D01*
X71598454Y-78569135D01*
X71471134Y-78482141D01*
X71320000Y-78451536D01*
X70789900Y-78451536D01*
X70789900Y-78010000D01*
X70754131Y-77830177D01*
X70746437Y-77818662D01*
X70652270Y-77677731D01*
X64039900Y-71065362D01*
X64039900Y-68949984D01*
X64288458Y-68847282D01*
X64405998Y-68729947D01*
X64487731Y-68852269D01*
X71688933Y-76053472D01*
X71681536Y-76090000D01*
X71681536Y-78090000D01*
X71708103Y-78231190D01*
X71791546Y-78360865D01*
X71918866Y-78447859D01*
X72070000Y-78478464D01*
X72570000Y-78478464D01*
X72711190Y-78451897D01*
X72718187Y-78447395D01*
X72718866Y-78447859D01*
X72870000Y-78478464D01*
X73370000Y-78478464D01*
X73511190Y-78451897D01*
X73518187Y-78447395D01*
X73518866Y-78447859D01*
X73670000Y-78478464D01*
X74170000Y-78478464D01*
X74311190Y-78451897D01*
X74318187Y-78447395D01*
X74318866Y-78447859D01*
X74470000Y-78478464D01*
X74970000Y-78478464D01*
X75111190Y-78451897D01*
X75118187Y-78447395D01*
X75118866Y-78447859D01*
X75270000Y-78478464D01*
X75770000Y-78478464D01*
X75911190Y-78451897D01*
X75918187Y-78447395D01*
X75918866Y-78447859D01*
X76070000Y-78478464D01*
X76570000Y-78478464D01*
X76711190Y-78451897D01*
X76718187Y-78447395D01*
X76718866Y-78447859D01*
X76870000Y-78478464D01*
X77160439Y-78478464D01*
X77310301Y-78628327D01*
X77543690Y-78725000D01*
X77636250Y-78725000D01*
X77795000Y-78566250D01*
X77795000Y-77217000D01*
X77773000Y-77217000D01*
X77773000Y-76963000D01*
X77795000Y-76963000D01*
X77795000Y-75613750D01*
X77636250Y-75455000D01*
X77589900Y-75455000D01*
X77589900Y-75005062D01*
X77554131Y-74825239D01*
X77495660Y-74737731D01*
X77452269Y-74672792D01*
X77299477Y-74520000D01*
X77357002Y-74520000D01*
X77357002Y-74361252D01*
X77515750Y-74520000D01*
X78085000Y-74520000D01*
X78085000Y-75573750D01*
X78045000Y-75613750D01*
X78045000Y-76963000D01*
X78067000Y-76963000D01*
X78067000Y-77217000D01*
X78045000Y-77217000D01*
X78045000Y-78566250D01*
X78203750Y-78725000D01*
X78296310Y-78725000D01*
X78529699Y-78628327D01*
X78679561Y-78478464D01*
X78970000Y-78478464D01*
X79000036Y-78472812D01*
X78826782Y-78645764D01*
X78691154Y-78972391D01*
X78690846Y-79326057D01*
X78825903Y-79652920D01*
X79075764Y-79903218D01*
X79402391Y-80038846D01*
X79756057Y-80039154D01*
X80082920Y-79904097D01*
X80333218Y-79654236D01*
X80468846Y-79327609D01*
X80469154Y-78973943D01*
X80334097Y-78647080D01*
X80165775Y-78478464D01*
X80570000Y-78478464D01*
X80711190Y-78451897D01*
X80840865Y-78368454D01*
X80927859Y-78241134D01*
X80958464Y-78090000D01*
X80958464Y-76366074D01*
X81922269Y-75402270D01*
X82024131Y-75249823D01*
X82028273Y-75229000D01*
X82059900Y-75070000D01*
X82059900Y-72624439D01*
X82920100Y-73484639D01*
X82920100Y-77825361D01*
X82293926Y-78451536D01*
X81320000Y-78451536D01*
X81178810Y-78478103D01*
X81049135Y-78561546D01*
X80962141Y-78688866D01*
X80931536Y-78840000D01*
X80931536Y-79340000D01*
X80958103Y-79481190D01*
X80962605Y-79488187D01*
X80962141Y-79488866D01*
X80931536Y-79640000D01*
X80931536Y-80140000D01*
X80958103Y-80281190D01*
X80962605Y-80288187D01*
X80962141Y-80288866D01*
X80931536Y-80440000D01*
X80931536Y-80940000D01*
X80958103Y-81081190D01*
X80962605Y-81088187D01*
X80962141Y-81088866D01*
X80931536Y-81240000D01*
X80931536Y-81740000D01*
X80958103Y-81881190D01*
X80962605Y-81888187D01*
X80962141Y-81888866D01*
X80931536Y-82040000D01*
X80931536Y-82540000D01*
X80958103Y-82681190D01*
X80962605Y-82688187D01*
X80962141Y-82688866D01*
X80931536Y-82840000D01*
X80931536Y-83340000D01*
X80958103Y-83481190D01*
X80962605Y-83488187D01*
X80962141Y-83488866D01*
X80931536Y-83640000D01*
X80931536Y-83930438D01*
X80781673Y-84080302D01*
X80685000Y-84313691D01*
X80685000Y-84406250D01*
X80843750Y-84565000D01*
X82193000Y-84565000D01*
X82193000Y-84543000D01*
X82447000Y-84543000D01*
X82447000Y-84565000D01*
X83796250Y-84565000D01*
X83955000Y-84406250D01*
X83955000Y-84359900D01*
X84873997Y-84359900D01*
X84860000Y-84393691D01*
X84860000Y-84984250D01*
X85018750Y-85143000D01*
X85993000Y-85143000D01*
X85993000Y-85123000D01*
X86247000Y-85123000D01*
X86247000Y-85143000D01*
X87221250Y-85143000D01*
X87380000Y-84984250D01*
X87380000Y-84393691D01*
X87366003Y-84359900D01*
X93446482Y-84359900D01*
X93633391Y-84547136D01*
X93922689Y-84667263D01*
X94235936Y-84667536D01*
X94525444Y-84547914D01*
X94747136Y-84326609D01*
X94867263Y-84037311D01*
X94867536Y-83724064D01*
X94747914Y-83434556D01*
X94526609Y-83212864D01*
X94237311Y-83092737D01*
X93924064Y-83092464D01*
X93634556Y-83212086D01*
X93426178Y-83420100D01*
X88457134Y-83420100D01*
X88583218Y-83294236D01*
X88718846Y-82967609D01*
X88719154Y-82613943D01*
X88584097Y-82287080D01*
X88334236Y-82036782D01*
X88221332Y-81989900D01*
X96026499Y-81989900D01*
X96223391Y-82187136D01*
X96512689Y-82307263D01*
X96825936Y-82307536D01*
X97115444Y-82187914D01*
X97337136Y-81966609D01*
X97457263Y-81677311D01*
X97457536Y-81364064D01*
X97356649Y-81119898D01*
X98676499Y-81119898D01*
X98873391Y-81317134D01*
X99162689Y-81437261D01*
X99475936Y-81437534D01*
X99765444Y-81317912D01*
X99987136Y-81096607D01*
X100107263Y-80807309D01*
X100107536Y-80494062D01*
X99987914Y-80204554D01*
X99766609Y-79982862D01*
X99477311Y-79862735D01*
X99164064Y-79862462D01*
X98874556Y-79982084D01*
X98676196Y-80180098D01*
X84672241Y-80180098D01*
X85352270Y-79500069D01*
X85454131Y-79347623D01*
X85458421Y-79326057D01*
X85489900Y-79167800D01*
X85489900Y-75480000D01*
X87871536Y-75480000D01*
X87871536Y-77180000D01*
X87898103Y-77321190D01*
X87981546Y-77450865D01*
X88108866Y-77537859D01*
X88260000Y-77568464D01*
X89960000Y-77568464D01*
X90101190Y-77541897D01*
X90230865Y-77458454D01*
X90317859Y-77331134D01*
X90348464Y-77180000D01*
X90348464Y-75480000D01*
X90321897Y-75338810D01*
X90238454Y-75209135D01*
X90111134Y-75122141D01*
X89960000Y-75091536D01*
X88260000Y-75091536D01*
X88118810Y-75118103D01*
X87989135Y-75201546D01*
X87902141Y-75328866D01*
X87871536Y-75480000D01*
X85489900Y-75480000D01*
X85489900Y-73765883D01*
X87879000Y-73765883D01*
X87879000Y-73814117D01*
X87972704Y-74285200D01*
X88239552Y-74684565D01*
X88638917Y-74951413D01*
X89110000Y-75045117D01*
X89581083Y-74951413D01*
X89980448Y-74684565D01*
X90247296Y-74285200D01*
X90255083Y-74246053D01*
X90454817Y-74671358D01*
X90883076Y-75061645D01*
X91164512Y-75178212D01*
X90779552Y-75435435D01*
X90512704Y-75834800D01*
X90419000Y-76305883D01*
X90419000Y-76354117D01*
X90512704Y-76825200D01*
X90779552Y-77224565D01*
X91178917Y-77491413D01*
X91650000Y-77585117D01*
X92121083Y-77491413D01*
X92520448Y-77224565D01*
X92787296Y-76825200D01*
X92881000Y-76354117D01*
X92881000Y-76305883D01*
X92959000Y-76305883D01*
X92959000Y-76354117D01*
X93052704Y-76825200D01*
X93319552Y-77224565D01*
X93718917Y-77491413D01*
X94190000Y-77585117D01*
X94661083Y-77491413D01*
X95060448Y-77224565D01*
X95327296Y-76825200D01*
X95421000Y-76354117D01*
X95421000Y-76305883D01*
X95499000Y-76305883D01*
X95499000Y-76354117D01*
X95592704Y-76825200D01*
X95859552Y-77224565D01*
X96258917Y-77491413D01*
X96730000Y-77585117D01*
X97201083Y-77491413D01*
X97600448Y-77224565D01*
X97867296Y-76825200D01*
X97961000Y-76354117D01*
X97961000Y-76305883D01*
X98039000Y-76305883D01*
X98039000Y-76354117D01*
X98132704Y-76825200D01*
X98399552Y-77224565D01*
X98798917Y-77491413D01*
X99270000Y-77585117D01*
X99741083Y-77491413D01*
X100140448Y-77224565D01*
X100407296Y-76825200D01*
X100501000Y-76354117D01*
X100501000Y-76305883D01*
X100407296Y-75834800D01*
X100140448Y-75435435D01*
X99741083Y-75168587D01*
X99270000Y-75074883D01*
X98798917Y-75168587D01*
X98399552Y-75435435D01*
X98132704Y-75834800D01*
X98039000Y-76305883D01*
X97961000Y-76305883D01*
X97867296Y-75834800D01*
X97600448Y-75435435D01*
X97201083Y-75168587D01*
X96730000Y-75074883D01*
X96258917Y-75168587D01*
X95859552Y-75435435D01*
X95592704Y-75834800D01*
X95499000Y-76305883D01*
X95421000Y-76305883D01*
X95327296Y-75834800D01*
X95060448Y-75435435D01*
X94661083Y-75168587D01*
X94190000Y-75074883D01*
X93718917Y-75168587D01*
X93319552Y-75435435D01*
X93052704Y-75834800D01*
X92959000Y-76305883D01*
X92881000Y-76305883D01*
X92787296Y-75834800D01*
X92520448Y-75435435D01*
X92135488Y-75178212D01*
X92416924Y-75061645D01*
X92845183Y-74671358D01*
X93044917Y-74246053D01*
X93052704Y-74285200D01*
X93319552Y-74684565D01*
X93718917Y-74951413D01*
X94190000Y-75045117D01*
X94661083Y-74951413D01*
X95060448Y-74684565D01*
X95327296Y-74285200D01*
X95421000Y-73814117D01*
X95421000Y-73765883D01*
X95499000Y-73765883D01*
X95499000Y-73814117D01*
X95592704Y-74285200D01*
X95859552Y-74684565D01*
X96258917Y-74951413D01*
X96730000Y-75045117D01*
X97201083Y-74951413D01*
X97600448Y-74684565D01*
X97867296Y-74285200D01*
X97961000Y-73814117D01*
X97961000Y-73765883D01*
X98039000Y-73765883D01*
X98039000Y-73814117D01*
X98132704Y-74285200D01*
X98399552Y-74684565D01*
X98798917Y-74951413D01*
X99270000Y-75045117D01*
X99741083Y-74951413D01*
X100140448Y-74684565D01*
X100407296Y-74285200D01*
X100501000Y-73814117D01*
X100501000Y-73765883D01*
X100407296Y-73294800D01*
X100140448Y-72895435D01*
X99741083Y-72628587D01*
X99270000Y-72534883D01*
X98798917Y-72628587D01*
X98399552Y-72895435D01*
X98132704Y-73294800D01*
X98039000Y-73765883D01*
X97961000Y-73765883D01*
X97867296Y-73294800D01*
X97600448Y-72895435D01*
X97201083Y-72628587D01*
X96730000Y-72534883D01*
X96258917Y-72628587D01*
X95859552Y-72895435D01*
X95592704Y-73294800D01*
X95499000Y-73765883D01*
X95421000Y-73765883D01*
X95327296Y-73294800D01*
X95060448Y-72895435D01*
X94661083Y-72628587D01*
X94190000Y-72534883D01*
X93718917Y-72628587D01*
X93319552Y-72895435D01*
X93052704Y-73294800D01*
X93044917Y-73333947D01*
X92845183Y-72908642D01*
X92416924Y-72518355D01*
X92006890Y-72348524D01*
X91777000Y-72469845D01*
X91777000Y-73663000D01*
X91797000Y-73663000D01*
X91797000Y-73917000D01*
X91777000Y-73917000D01*
X91777000Y-73937000D01*
X91523000Y-73937000D01*
X91523000Y-73917000D01*
X91503000Y-73917000D01*
X91503000Y-73663000D01*
X91523000Y-73663000D01*
X91523000Y-72469845D01*
X91293110Y-72348524D01*
X90883076Y-72518355D01*
X90454817Y-72908642D01*
X90255083Y-73333947D01*
X90247296Y-73294800D01*
X89980448Y-72895435D01*
X89581083Y-72628587D01*
X89110000Y-72534883D01*
X88638917Y-72628587D01*
X88239552Y-72895435D01*
X87972704Y-73294800D01*
X87879000Y-73765883D01*
X85489900Y-73765883D01*
X85489900Y-71440000D01*
X85454131Y-71260177D01*
X85411516Y-71196399D01*
X85352270Y-71107731D01*
X82516644Y-68272105D01*
X82619779Y-68023727D01*
X82619781Y-68021512D01*
X82812718Y-68488458D01*
X83169663Y-68846026D01*
X83636273Y-69039779D01*
X84141510Y-69040220D01*
X84608458Y-68847282D01*
X84966026Y-68490337D01*
X85159779Y-68023727D01*
X85159781Y-68021512D01*
X85352718Y-68488458D01*
X85709663Y-68846026D01*
X86176273Y-69039779D01*
X86681510Y-69040220D01*
X87148458Y-68847282D01*
X87506026Y-68490337D01*
X87699779Y-68023727D01*
X87699781Y-68021512D01*
X87892718Y-68488458D01*
X88249663Y-68846026D01*
X88716273Y-69039779D01*
X89221510Y-69040220D01*
X89688458Y-68847282D01*
X90046026Y-68490337D01*
X90239779Y-68023727D01*
X90239781Y-68021512D01*
X90432718Y-68488458D01*
X90789663Y-68846026D01*
X91256273Y-69039779D01*
X91761510Y-69040220D01*
X92228458Y-68847282D01*
X92586026Y-68490337D01*
X92779779Y-68023727D01*
X92779781Y-68021512D01*
X92972718Y-68488458D01*
X93329663Y-68846026D01*
X93796273Y-69039779D01*
X94301510Y-69040220D01*
X94768458Y-68847282D01*
X95126026Y-68490337D01*
X95319779Y-68023727D01*
X95319781Y-68021512D01*
X95512718Y-68488458D01*
X95869663Y-68846026D01*
X96336273Y-69039779D01*
X96841510Y-69040220D01*
X97308458Y-68847282D01*
X97666026Y-68490337D01*
X97859779Y-68023727D01*
X97859781Y-68021512D01*
X98052718Y-68488458D01*
X98409663Y-68846026D01*
X98876273Y-69039779D01*
X99381510Y-69040220D01*
X99848458Y-68847282D01*
X100206026Y-68490337D01*
X100399779Y-68023727D01*
X100400220Y-67518490D01*
X100207282Y-67051542D01*
X99979142Y-66823003D01*
X102368718Y-66823003D01*
X102616499Y-67422680D01*
X103074907Y-67881888D01*
X103674151Y-68130716D01*
X104323003Y-68131282D01*
X104922680Y-67883501D01*
X105381888Y-67425093D01*
X105630716Y-66825849D01*
X105631282Y-66176997D01*
X105383501Y-65577320D01*
X104925093Y-65118112D01*
X104325849Y-64869284D01*
X103676997Y-64868718D01*
X103077320Y-65116499D01*
X102618112Y-65574907D01*
X102369284Y-66174151D01*
X102368718Y-66823003D01*
X99979142Y-66823003D01*
X99850337Y-66693974D01*
X99383727Y-66500221D01*
X99381512Y-66500219D01*
X99848458Y-66307282D01*
X100206026Y-65950337D01*
X100399779Y-65483727D01*
X100400220Y-64978490D01*
X100207282Y-64511542D01*
X99850337Y-64153974D01*
X99383727Y-63960221D01*
X98878490Y-63959780D01*
X98411542Y-64152718D01*
X98053974Y-64509663D01*
X97860221Y-64976273D01*
X97860219Y-64978488D01*
X97667282Y-64511542D01*
X97310337Y-64153974D01*
X96843727Y-63960221D01*
X96338490Y-63959780D01*
X95871542Y-64152718D01*
X95513974Y-64509663D01*
X95320221Y-64976273D01*
X95320219Y-64978488D01*
X95127282Y-64511542D01*
X94770337Y-64153974D01*
X94303727Y-63960221D01*
X93798490Y-63959780D01*
X93331542Y-64152718D01*
X92973974Y-64509663D01*
X92780221Y-64976273D01*
X92780219Y-64978488D01*
X92587282Y-64511542D01*
X92230337Y-64153974D01*
X91763727Y-63960221D01*
X91258490Y-63959780D01*
X90791542Y-64152718D01*
X90433974Y-64509663D01*
X90240221Y-64976273D01*
X90240219Y-64978488D01*
X90047282Y-64511542D01*
X89690337Y-64153974D01*
X89223727Y-63960221D01*
X88718490Y-63959780D01*
X88251542Y-64152718D01*
X87893974Y-64509663D01*
X87700221Y-64976273D01*
X87700219Y-64978488D01*
X87507282Y-64511542D01*
X87150337Y-64153974D01*
X86683727Y-63960221D01*
X86178490Y-63959780D01*
X85711542Y-64152718D01*
X85353974Y-64509663D01*
X85160221Y-64976273D01*
X85160219Y-64978488D01*
X84967282Y-64511542D01*
X84610337Y-64153974D01*
X84143727Y-63960221D01*
X83638490Y-63959780D01*
X83171542Y-64152718D01*
X82813974Y-64509663D01*
X82620221Y-64976273D01*
X82620219Y-64978488D01*
X82427282Y-64511542D01*
X82070337Y-64153974D01*
X81603727Y-63960221D01*
X81098490Y-63959780D01*
X80631542Y-64152718D01*
X80273974Y-64509663D01*
X80080221Y-64976273D01*
X80080219Y-64978488D01*
X79887282Y-64511542D01*
X79530337Y-64153974D01*
X79063727Y-63960221D01*
X78558490Y-63959780D01*
X78091542Y-64152718D01*
X77733974Y-64509663D01*
X77540221Y-64976273D01*
X77540219Y-64978488D01*
X77347282Y-64511542D01*
X76990337Y-64153974D01*
X76523727Y-63960221D01*
X76018490Y-63959780D01*
X75551542Y-64152718D01*
X75193974Y-64509663D01*
X75000221Y-64976273D01*
X75000219Y-64978488D01*
X74807282Y-64511542D01*
X74450337Y-64153974D01*
X73983727Y-63960221D01*
X73478490Y-63959780D01*
X73011542Y-64152718D01*
X72653974Y-64509663D01*
X72603753Y-64630608D01*
X72517539Y-64422467D01*
X72262196Y-64337409D01*
X71369605Y-65230000D01*
X72262196Y-66122591D01*
X72517539Y-66037533D01*
X72598229Y-65816583D01*
X72652718Y-65948458D01*
X73009663Y-66306026D01*
X73476273Y-66499779D01*
X73478488Y-66499781D01*
X73011542Y-66692718D01*
X72653974Y-67049663D01*
X72460221Y-67516273D01*
X72460219Y-67518488D01*
X72267282Y-67051542D01*
X71910337Y-66693974D01*
X71789392Y-66643753D01*
X71997533Y-66557539D01*
X72082591Y-66302196D01*
X71190000Y-65409605D01*
X71175858Y-65423748D01*
X70996253Y-65244143D01*
X71010395Y-65230000D01*
X70117804Y-64337409D01*
X69862461Y-64422467D01*
X69781771Y-64643417D01*
X69727282Y-64511542D01*
X69374161Y-64157804D01*
X70297409Y-64157804D01*
X71190000Y-65050395D01*
X72082591Y-64157804D01*
X71997533Y-63902461D01*
X71428035Y-63694484D01*
X70822300Y-63720277D01*
X70382467Y-63902461D01*
X70297409Y-64157804D01*
X69374161Y-64157804D01*
X69370337Y-64153974D01*
X68903727Y-63960221D01*
X68398490Y-63959780D01*
X67931542Y-64152718D01*
X67573974Y-64509663D01*
X67380221Y-64976273D01*
X67380219Y-64978488D01*
X67187282Y-64511542D01*
X66830337Y-64153974D01*
X66363727Y-63960221D01*
X65858490Y-63959780D01*
X65391542Y-64152718D01*
X65033974Y-64509663D01*
X64840221Y-64976273D01*
X64840219Y-64978488D01*
X64647282Y-64511542D01*
X64290337Y-64153974D01*
X63823727Y-63960221D01*
X63318490Y-63959780D01*
X62851542Y-64152718D01*
X62493974Y-64509663D01*
X62300221Y-64976273D01*
X62300219Y-64978488D01*
X62107282Y-64511542D01*
X61750337Y-64153974D01*
X61283727Y-63960221D01*
X60778490Y-63959780D01*
X60311542Y-64152718D01*
X59953974Y-64509663D01*
X59760221Y-64976273D01*
X59760219Y-64978488D01*
X59567282Y-64511542D01*
X59210337Y-64153974D01*
X58743727Y-63960221D01*
X58238490Y-63959780D01*
X57771542Y-64152718D01*
X57413974Y-64509663D01*
X57220221Y-64976273D01*
X57220219Y-64978488D01*
X57027282Y-64511542D01*
X56670337Y-64153974D01*
X56203727Y-63960221D01*
X55698490Y-63959780D01*
X55231542Y-64152718D01*
X54873974Y-64509663D01*
X54680221Y-64976273D01*
X54680219Y-64978488D01*
X54487282Y-64511542D01*
X54130337Y-64153974D01*
X53663727Y-63960221D01*
X53158490Y-63959780D01*
X52691542Y-64152718D01*
X52394000Y-64449742D01*
X52394000Y-64214690D01*
X52297327Y-63981301D01*
X52118698Y-63802673D01*
X51885309Y-63706000D01*
X51155750Y-63706000D01*
X50997000Y-63864750D01*
X50997000Y-65103000D01*
X51017000Y-65103000D01*
X51017000Y-65357000D01*
X50997000Y-65357000D01*
X50997000Y-65377000D01*
X50743000Y-65377000D01*
X50743000Y-65357000D01*
X49504750Y-65357000D01*
X49346000Y-65515750D01*
X49346000Y-66245310D01*
X49442673Y-66478699D01*
X49621302Y-66657327D01*
X49854691Y-66754000D01*
X50090153Y-66754000D01*
X49793974Y-67049663D01*
X49600221Y-67516273D01*
X49599780Y-68021510D01*
X49792718Y-68488458D01*
X50149663Y-68846026D01*
X50616273Y-69039779D01*
X51121510Y-69040220D01*
X51588458Y-68847282D01*
X51649847Y-68786000D01*
X52629742Y-68786000D01*
X52689663Y-68846026D01*
X53156273Y-69039779D01*
X53661510Y-69040220D01*
X54128458Y-68847282D01*
X54284035Y-68691976D01*
X54357731Y-68802269D01*
X61450100Y-75894639D01*
X61450100Y-79867971D01*
X61477755Y-80007000D01*
X61485869Y-80047794D01*
X61587731Y-80200240D01*
X64007590Y-82620100D01*
X61950000Y-82620100D01*
X61770177Y-82655869D01*
X61617730Y-82757731D01*
X53670606Y-90704856D01*
X53637609Y-90691154D01*
X53283943Y-90690846D01*
X52957080Y-90825903D01*
X52706782Y-91075764D01*
X52571154Y-91402391D01*
X52570846Y-91756057D01*
X52705903Y-92082920D01*
X52955764Y-92333218D01*
X53282391Y-92468846D01*
X53636057Y-92469154D01*
X53962920Y-92334097D01*
X54213218Y-92084236D01*
X54348846Y-91757609D01*
X54349154Y-91403943D01*
X54334956Y-91369582D01*
X62144639Y-83559900D01*
X63507761Y-83559900D01*
X53077731Y-93989931D01*
X52996476Y-94111536D01*
X52775000Y-94111536D01*
X52633810Y-94138103D01*
X52504135Y-94221546D01*
X52417141Y-94348866D01*
X52386536Y-94500000D01*
X52386536Y-105044000D01*
X51893464Y-105044000D01*
X51893464Y-94500000D01*
X51866897Y-94358810D01*
X51783454Y-94229135D01*
X51656134Y-94142141D01*
X51505000Y-94111536D01*
X50235000Y-94111536D01*
X50093810Y-94138103D01*
X49964135Y-94221546D01*
X49877141Y-94348866D01*
X49846536Y-94500000D01*
X49846536Y-105044000D01*
X49353464Y-105044000D01*
X49353464Y-94500000D01*
X49346000Y-94460333D01*
X49346000Y-93230000D01*
X49269739Y-92846609D01*
X49268662Y-92841193D01*
X49048421Y-92511580D01*
X46476000Y-89939160D01*
X46476000Y-77283402D01*
X46711413Y-76931083D01*
X46805117Y-76460000D01*
X46711413Y-75988917D01*
X46444565Y-75589552D01*
X46280610Y-75480000D01*
X51851536Y-75480000D01*
X51851536Y-77180000D01*
X51878103Y-77321190D01*
X51961546Y-77450865D01*
X52088866Y-77537859D01*
X52240000Y-77568464D01*
X53940000Y-77568464D01*
X54081190Y-77541897D01*
X54210865Y-77458454D01*
X54297859Y-77331134D01*
X54328464Y-77180000D01*
X54328464Y-76305883D01*
X54399000Y-76305883D01*
X54399000Y-76354117D01*
X54492704Y-76825200D01*
X54759552Y-77224565D01*
X55158917Y-77491413D01*
X55630000Y-77585117D01*
X56101083Y-77491413D01*
X56500448Y-77224565D01*
X56767296Y-76825200D01*
X56861000Y-76354117D01*
X56861000Y-76305883D01*
X56939000Y-76305883D01*
X56939000Y-76354117D01*
X57032704Y-76825200D01*
X57299552Y-77224565D01*
X57698917Y-77491413D01*
X58170000Y-77585117D01*
X58641083Y-77491413D01*
X59040448Y-77224565D01*
X59307296Y-76825200D01*
X59401000Y-76354117D01*
X59401000Y-76305883D01*
X59307296Y-75834800D01*
X59040448Y-75435435D01*
X58641083Y-75168587D01*
X58170000Y-75074883D01*
X57698917Y-75168587D01*
X57299552Y-75435435D01*
X57032704Y-75834800D01*
X56939000Y-76305883D01*
X56861000Y-76305883D01*
X56767296Y-75834800D01*
X56500448Y-75435435D01*
X56101083Y-75168587D01*
X55630000Y-75074883D01*
X55158917Y-75168587D01*
X54759552Y-75435435D01*
X54492704Y-75834800D01*
X54399000Y-76305883D01*
X54328464Y-76305883D01*
X54328464Y-75480000D01*
X54301897Y-75338810D01*
X54218454Y-75209135D01*
X54091134Y-75122141D01*
X53940000Y-75091536D01*
X52240000Y-75091536D01*
X52098810Y-75118103D01*
X51969135Y-75201546D01*
X51882141Y-75328866D01*
X51851536Y-75480000D01*
X46280610Y-75480000D01*
X46045200Y-75322704D01*
X45574117Y-75229000D01*
X45525883Y-75229000D01*
X45054800Y-75322704D01*
X44655435Y-75589552D01*
X44388587Y-75988917D01*
X44294883Y-76460000D01*
X44388587Y-76931083D01*
X44444000Y-77014014D01*
X44444000Y-90360000D01*
X44499695Y-90640000D01*
X44521338Y-90748807D01*
X44741580Y-91078420D01*
X47314000Y-93650841D01*
X47314000Y-94463141D01*
X47306536Y-94500000D01*
X47306536Y-104661654D01*
X46956000Y-104311118D01*
X46956000Y-94500000D01*
X46921289Y-94325496D01*
X46822441Y-94177559D01*
X46674504Y-94078711D01*
X46500000Y-94044000D01*
X37544911Y-94044000D01*
X37295239Y-93994337D01*
X37121651Y-93878349D01*
X37005663Y-93704761D01*
X36956000Y-93455089D01*
X36956000Y-74696890D01*
X38168524Y-74696890D01*
X38338355Y-75106924D01*
X38728642Y-75535183D01*
X39153947Y-75734917D01*
X39114800Y-75742704D01*
X38715435Y-76009552D01*
X38448587Y-76408917D01*
X38354883Y-76880000D01*
X38448587Y-77351083D01*
X38715435Y-77750448D01*
X39114800Y-78017296D01*
X39585883Y-78111000D01*
X39634117Y-78111000D01*
X40105200Y-78017296D01*
X40286732Y-77896000D01*
X41040000Y-77896000D01*
X41370916Y-77830177D01*
X41428807Y-77818662D01*
X41758420Y-77598420D01*
X44380212Y-74976629D01*
X44421546Y-75040865D01*
X44548866Y-75127859D01*
X44700000Y-75158464D01*
X46400000Y-75158464D01*
X46541190Y-75131897D01*
X46670865Y-75048454D01*
X46757859Y-74921134D01*
X46788464Y-74770000D01*
X46788464Y-73070000D01*
X46761897Y-72928810D01*
X46678454Y-72799135D01*
X46551134Y-72712141D01*
X46400000Y-72681536D01*
X44700000Y-72681536D01*
X44558810Y-72708103D01*
X44429135Y-72791546D01*
X44352298Y-72904000D01*
X44000000Y-72904000D01*
X43675700Y-72968507D01*
X43611193Y-72981338D01*
X43281579Y-73201580D01*
X40619160Y-75864000D01*
X40286732Y-75864000D01*
X40105200Y-75742704D01*
X40066053Y-75734917D01*
X40491358Y-75535183D01*
X40881645Y-75106924D01*
X41051476Y-74696890D01*
X40930155Y-74467000D01*
X39737000Y-74467000D01*
X39737000Y-74487000D01*
X39483000Y-74487000D01*
X39483000Y-74467000D01*
X38289845Y-74467000D01*
X38168524Y-74696890D01*
X36956000Y-74696890D01*
X36956000Y-73983110D01*
X38168524Y-73983110D01*
X38289845Y-74213000D01*
X39483000Y-74213000D01*
X39483000Y-74193000D01*
X39737000Y-74193000D01*
X39737000Y-74213000D01*
X40930155Y-74213000D01*
X41051476Y-73983110D01*
X40881645Y-73573076D01*
X40491358Y-73144817D01*
X40264895Y-73038464D01*
X40460000Y-73038464D01*
X40601190Y-73011897D01*
X40730865Y-72928454D01*
X40817859Y-72801134D01*
X40848464Y-72650000D01*
X40848464Y-70950000D01*
X40821897Y-70808810D01*
X40738454Y-70679135D01*
X40611134Y-70592141D01*
X40460000Y-70561536D01*
X38760000Y-70561536D01*
X38618810Y-70588103D01*
X38489135Y-70671546D01*
X38402141Y-70798866D01*
X38371536Y-70950000D01*
X38371536Y-72650000D01*
X38398103Y-72791190D01*
X38481546Y-72920865D01*
X38608866Y-73007859D01*
X38760000Y-73038464D01*
X38955105Y-73038464D01*
X38728642Y-73144817D01*
X38338355Y-73573076D01*
X38168524Y-73983110D01*
X36956000Y-73983110D01*
X36956000Y-66823003D01*
X44368718Y-66823003D01*
X44616499Y-67422680D01*
X45074907Y-67881888D01*
X45674151Y-68130716D01*
X46323003Y-68131282D01*
X46922680Y-67883501D01*
X47381888Y-67425093D01*
X47630716Y-66825849D01*
X47631282Y-66176997D01*
X47383501Y-65577320D01*
X46925093Y-65118112D01*
X46325849Y-64869284D01*
X45676997Y-64868718D01*
X45077320Y-65116499D01*
X44618112Y-65574907D01*
X44369284Y-66174151D01*
X44368718Y-66823003D01*
X36956000Y-66823003D01*
X36956000Y-64214690D01*
X49346000Y-64214690D01*
X49346000Y-64944250D01*
X49504750Y-65103000D01*
X50743000Y-65103000D01*
X50743000Y-63864750D01*
X50584250Y-63706000D01*
X49854691Y-63706000D01*
X49621302Y-63802673D01*
X49442673Y-63981301D01*
X49346000Y-64214690D01*
X36956000Y-64214690D01*
X36956000Y-43823003D01*
X44368718Y-43823003D01*
X44616499Y-44422680D01*
X45074907Y-44881888D01*
X45674151Y-45130716D01*
X46323003Y-45131282D01*
X46922680Y-44883501D01*
X47381888Y-44425093D01*
X47630716Y-43825849D01*
X47630718Y-43823003D01*
X102368718Y-43823003D01*
X102616499Y-44422680D01*
X103074907Y-44881888D01*
X103674151Y-45130716D01*
X104323003Y-45131282D01*
X104922680Y-44883501D01*
X105381888Y-44425093D01*
X105630716Y-43825849D01*
X105631282Y-43176997D01*
X105383501Y-42577320D01*
X104925093Y-42118112D01*
X104325849Y-41869284D01*
X103676997Y-41868718D01*
X103077320Y-42116499D01*
X102618112Y-42574907D01*
X102369284Y-43174151D01*
X102368718Y-43823003D01*
X47630718Y-43823003D01*
X47631282Y-43176997D01*
X47383501Y-42577320D01*
X46925093Y-42118112D01*
X46325849Y-41869284D01*
X45676997Y-41868718D01*
X45077320Y-42116499D01*
X44618112Y-42574907D01*
X44369284Y-43174151D01*
X44368718Y-43823003D01*
X36956000Y-43823003D01*
X36956000Y-36044911D01*
X37005663Y-35795239D01*
X37121651Y-35621651D01*
X37295239Y-35505663D01*
X37544911Y-35456000D01*
X112455089Y-35456000D01*
X112704761Y-35505663D01*
X112704761Y-35505663D01*
G37*
X112704761Y-35505663D02*
X112878349Y-35621651D01*
X112994337Y-35795239D01*
X113044000Y-36044911D01*
X113044000Y-93455089D01*
X112994337Y-93704761D01*
X112878349Y-93878349D01*
X112704761Y-93994337D01*
X112455089Y-94044000D01*
X103500000Y-94044000D01*
X103407050Y-94062489D01*
X103444125Y-94025414D01*
X103452391Y-94028846D01*
X103806057Y-94029154D01*
X104132920Y-93894097D01*
X104383218Y-93644236D01*
X104518846Y-93317609D01*
X104519154Y-92963943D01*
X104384097Y-92637080D01*
X104134236Y-92386782D01*
X103807609Y-92251154D01*
X103453943Y-92250846D01*
X103127080Y-92385903D01*
X102876782Y-92635764D01*
X102741154Y-92962391D01*
X102740846Y-93316057D01*
X102765277Y-93375184D01*
X102028926Y-94111536D01*
X101035000Y-94111536D01*
X100893810Y-94138103D01*
X100764135Y-94221546D01*
X100677141Y-94348866D01*
X100646536Y-94500000D01*
X100646536Y-105044000D01*
X100153464Y-105044000D01*
X100153464Y-94500000D01*
X100126897Y-94358810D01*
X100043454Y-94229135D01*
X99916134Y-94142141D01*
X99765000Y-94111536D01*
X98495000Y-94111536D01*
X98353810Y-94138103D01*
X98224135Y-94221546D01*
X98137141Y-94348866D01*
X98106536Y-94500000D01*
X98106536Y-105044000D01*
X97613464Y-105044000D01*
X97613464Y-94500000D01*
X97586897Y-94358810D01*
X97503454Y-94229135D01*
X97376134Y-94142141D01*
X97225000Y-94111536D01*
X95955000Y-94111536D01*
X95813810Y-94138103D01*
X95684135Y-94221546D01*
X95597141Y-94348866D01*
X95566536Y-94500000D01*
X95566536Y-105044000D01*
X95073464Y-105044000D01*
X95073464Y-94500000D01*
X95046897Y-94358810D01*
X94963454Y-94229135D01*
X94836134Y-94142141D01*
X94685000Y-94111536D01*
X93415000Y-94111536D01*
X93273810Y-94138103D01*
X93144135Y-94221546D01*
X93057141Y-94348866D01*
X93026536Y-94500000D01*
X93026536Y-105044000D01*
X92533464Y-105044000D01*
X92533464Y-94500000D01*
X92506897Y-94358810D01*
X92423454Y-94229135D01*
X92296134Y-94142141D01*
X92145000Y-94111536D01*
X90875000Y-94111536D01*
X90733810Y-94138103D01*
X90604135Y-94221546D01*
X90517141Y-94348866D01*
X90486536Y-94500000D01*
X90486536Y-105044000D01*
X89993464Y-105044000D01*
X89993464Y-94500000D01*
X89966897Y-94358810D01*
X89883454Y-94229135D01*
X89756134Y-94142141D01*
X89605000Y-94111536D01*
X88335000Y-94111536D01*
X88193810Y-94138103D01*
X88064135Y-94221546D01*
X87977141Y-94348866D01*
X87946536Y-94500000D01*
X87946536Y-105044000D01*
X87453464Y-105044000D01*
X87453464Y-94500000D01*
X87426897Y-94358810D01*
X87343454Y-94229135D01*
X87216134Y-94142141D01*
X87065000Y-94111536D01*
X85795000Y-94111536D01*
X85653810Y-94138103D01*
X85524135Y-94221546D01*
X85437141Y-94348866D01*
X85406536Y-94500000D01*
X85406536Y-105044000D01*
X84913464Y-105044000D01*
X84913464Y-94500000D01*
X84886897Y-94358810D01*
X84803454Y-94229135D01*
X84676134Y-94142141D01*
X84525000Y-94111536D01*
X83255000Y-94111536D01*
X83113810Y-94138103D01*
X82984135Y-94221546D01*
X82897141Y-94348866D01*
X82866536Y-94500000D01*
X82866536Y-105044000D01*
X82373464Y-105044000D01*
X82373464Y-94500000D01*
X82346897Y-94358810D01*
X82263454Y-94229135D01*
X82136134Y-94142141D01*
X81985000Y-94111536D01*
X81819900Y-94111536D01*
X81819900Y-92653808D01*
X81784131Y-92473985D01*
X81682269Y-92321539D01*
X80435359Y-91074629D01*
X80282913Y-90972767D01*
X80280409Y-90972269D01*
X80103090Y-90936998D01*
X79253737Y-90936998D01*
X78795202Y-90478464D01*
X78970000Y-90478464D01*
X79111190Y-90451897D01*
X79118187Y-90447395D01*
X79118866Y-90447859D01*
X79270000Y-90478464D01*
X79770000Y-90478464D01*
X79911190Y-90451897D01*
X79918187Y-90447395D01*
X79918866Y-90447859D01*
X80070000Y-90478464D01*
X80570000Y-90478464D01*
X80711190Y-90451897D01*
X80840865Y-90368454D01*
X80927859Y-90241134D01*
X80958464Y-90090000D01*
X80958464Y-88090000D01*
X80931897Y-87948810D01*
X80848454Y-87819135D01*
X80789900Y-87779127D01*
X80789900Y-85710000D01*
X80754131Y-85530177D01*
X80729082Y-85492689D01*
X80652270Y-85377731D01*
X80415144Y-85140606D01*
X80428846Y-85107609D01*
X80428962Y-84973750D01*
X80685000Y-84973750D01*
X80685000Y-85066309D01*
X80781673Y-85299698D01*
X80931536Y-85449562D01*
X80931536Y-85740000D01*
X80958103Y-85881190D01*
X80962605Y-85888187D01*
X80962141Y-85888866D01*
X80931536Y-86040000D01*
X80931536Y-86540000D01*
X80958103Y-86681190D01*
X80962605Y-86688187D01*
X80962141Y-86688866D01*
X80931536Y-86840000D01*
X80931536Y-87340000D01*
X80958103Y-87481190D01*
X81041546Y-87610865D01*
X81168866Y-87697859D01*
X81320000Y-87728464D01*
X81850100Y-87728464D01*
X81850100Y-88940047D01*
X81732737Y-89222689D01*
X81732464Y-89535936D01*
X81852086Y-89825444D01*
X82073391Y-90047136D01*
X82362689Y-90167263D01*
X82675936Y-90167536D01*
X82965444Y-90047914D01*
X83187136Y-89826609D01*
X83307263Y-89537311D01*
X83307536Y-89224064D01*
X83187914Y-88934556D01*
X82966609Y-88712864D01*
X82789900Y-88639488D01*
X82789900Y-87728464D01*
X83320000Y-87728464D01*
X83461190Y-87701897D01*
X83590865Y-87618454D01*
X83677859Y-87491134D01*
X83708464Y-87340000D01*
X83708464Y-87205911D01*
X84080100Y-87577547D01*
X84080100Y-88036499D01*
X83882864Y-88233391D01*
X83762737Y-88522689D01*
X83762464Y-88835936D01*
X83882086Y-89125444D01*
X84103391Y-89347136D01*
X84392689Y-89467263D01*
X84705936Y-89467536D01*
X84995444Y-89347914D01*
X85217136Y-89126609D01*
X85337263Y-88837311D01*
X85337536Y-88524064D01*
X85217914Y-88234556D01*
X85019900Y-88036196D01*
X85019900Y-87676639D01*
X85825416Y-88482155D01*
X85812737Y-88512689D01*
X85812464Y-88825936D01*
X85932086Y-89115444D01*
X86153391Y-89337136D01*
X86442689Y-89457263D01*
X86755936Y-89457536D01*
X87045444Y-89337914D01*
X87267136Y-89116609D01*
X87387263Y-88827311D01*
X87387536Y-88514064D01*
X87267914Y-88224556D01*
X87046609Y-88002864D01*
X86757311Y-87882737D01*
X86554899Y-87882561D01*
X85298098Y-86625760D01*
X85368690Y-86655000D01*
X85834250Y-86655000D01*
X85993000Y-86496250D01*
X85993000Y-85397000D01*
X86247000Y-85397000D01*
X86247000Y-86496250D01*
X86405750Y-86655000D01*
X86871310Y-86655000D01*
X87104699Y-86558327D01*
X87283327Y-86379698D01*
X87380000Y-86146309D01*
X87380000Y-85555750D01*
X87221250Y-85397000D01*
X86247000Y-85397000D01*
X85993000Y-85397000D01*
X85018750Y-85397000D01*
X84860000Y-85555750D01*
X84860000Y-86146309D01*
X84889241Y-86216902D01*
X83891632Y-85219294D01*
X83955000Y-85066309D01*
X83955000Y-84973750D01*
X83796250Y-84815000D01*
X82447000Y-84815000D01*
X82447000Y-84837000D01*
X82193000Y-84837000D01*
X82193000Y-84815000D01*
X80843750Y-84815000D01*
X80685000Y-84973750D01*
X80428962Y-84973750D01*
X80429154Y-84753943D01*
X80294097Y-84427080D01*
X80044236Y-84176782D01*
X79717609Y-84041154D01*
X79363943Y-84040846D01*
X79037080Y-84175903D01*
X78786782Y-84425764D01*
X78651154Y-84752391D01*
X78650846Y-85106057D01*
X78785903Y-85432920D01*
X79035764Y-85683218D01*
X79362391Y-85818846D01*
X79716057Y-85819154D01*
X79750418Y-85804956D01*
X79850100Y-85904638D01*
X79850100Y-86485561D01*
X79392269Y-86027731D01*
X79239823Y-85925869D01*
X79231085Y-85924131D01*
X79060000Y-85890100D01*
X78207741Y-85890100D01*
X78194097Y-85857080D01*
X77944236Y-85606782D01*
X77617609Y-85471154D01*
X77263943Y-85470846D01*
X76937080Y-85605903D01*
X76686782Y-85855764D01*
X76551154Y-86182391D01*
X76550846Y-86536057D01*
X76685903Y-86862920D01*
X76935764Y-87113218D01*
X77262391Y-87248846D01*
X77616057Y-87249154D01*
X77810974Y-87168616D01*
X77810846Y-87316057D01*
X77945903Y-87642920D01*
X78004417Y-87701536D01*
X77670000Y-87701536D01*
X77528810Y-87728103D01*
X77521813Y-87732605D01*
X77521134Y-87732141D01*
X77370000Y-87701536D01*
X76870000Y-87701536D01*
X76728810Y-87728103D01*
X76721813Y-87732605D01*
X76721134Y-87732141D01*
X76570000Y-87701536D01*
X76070000Y-87701536D01*
X75928810Y-87728103D01*
X75921813Y-87732605D01*
X75921134Y-87732141D01*
X75770000Y-87701536D01*
X75270000Y-87701536D01*
X75128810Y-87728103D01*
X75121813Y-87732605D01*
X75121134Y-87732141D01*
X74970000Y-87701536D01*
X74470000Y-87701536D01*
X74328810Y-87728103D01*
X74321813Y-87732605D01*
X74321134Y-87732141D01*
X74170000Y-87701536D01*
X73670000Y-87701536D01*
X73528810Y-87728103D01*
X73521813Y-87732605D01*
X73521134Y-87732141D01*
X73370000Y-87701536D01*
X72870000Y-87701536D01*
X72728810Y-87728103D01*
X72721813Y-87732605D01*
X72721134Y-87732141D01*
X72570000Y-87701536D01*
X72070000Y-87701536D01*
X71928810Y-87728103D01*
X71799135Y-87811546D01*
X71712141Y-87938866D01*
X71681536Y-88090000D01*
X71681536Y-88728461D01*
X71637730Y-88757731D01*
X66283926Y-94111536D01*
X65475000Y-94111536D01*
X65333810Y-94138103D01*
X65204135Y-94221546D01*
X65117141Y-94348866D01*
X65086536Y-94500000D01*
X65086536Y-105044000D01*
X64593464Y-105044000D01*
X64593464Y-94500000D01*
X64566897Y-94358810D01*
X64483454Y-94229135D01*
X64356134Y-94142141D01*
X64205000Y-94111536D01*
X62935000Y-94111536D01*
X62793810Y-94138103D01*
X62664135Y-94221546D01*
X62577141Y-94348866D01*
X62546536Y-94500000D01*
X62546536Y-105044000D01*
X62053464Y-105044000D01*
X62053464Y-94500000D01*
X62026897Y-94358810D01*
X61943454Y-94229135D01*
X61816134Y-94142141D01*
X61665000Y-94111536D01*
X60395000Y-94111536D01*
X60253810Y-94138103D01*
X60124135Y-94221546D01*
X60037141Y-94348866D01*
X60006536Y-94500000D01*
X60006536Y-105044000D01*
X59513464Y-105044000D01*
X59513464Y-94500000D01*
X59486897Y-94358810D01*
X59403454Y-94229135D01*
X59276134Y-94142141D01*
X59125000Y-94111536D01*
X57855000Y-94111536D01*
X57713810Y-94138103D01*
X57584135Y-94221546D01*
X57497141Y-94348866D01*
X57466536Y-94500000D01*
X57466536Y-105044000D01*
X56973464Y-105044000D01*
X56973464Y-94776074D01*
X66172664Y-85576875D01*
X66172464Y-85805936D01*
X66292086Y-86095444D01*
X66513391Y-86317136D01*
X66802689Y-86437263D01*
X67115936Y-86437536D01*
X67405444Y-86317914D01*
X67627136Y-86096609D01*
X67683903Y-85959900D01*
X67855249Y-85959900D01*
X67762739Y-86182689D01*
X67762466Y-86495936D01*
X67882088Y-86785444D01*
X68103393Y-87007136D01*
X68392691Y-87127263D01*
X68705938Y-87127536D01*
X68931536Y-87034321D01*
X68931536Y-87340000D01*
X68958103Y-87481190D01*
X69041546Y-87610865D01*
X69168866Y-87697859D01*
X69320000Y-87728464D01*
X69843322Y-87728464D01*
X69834556Y-87732086D01*
X69612864Y-87953391D01*
X69492737Y-88242689D01*
X69492464Y-88555936D01*
X69612086Y-88845444D01*
X69833391Y-89067136D01*
X70122689Y-89187263D01*
X70435936Y-89187536D01*
X70725444Y-89067914D01*
X70947136Y-88846609D01*
X71067263Y-88557311D01*
X71067536Y-88244064D01*
X70947914Y-87954556D01*
X70789900Y-87796266D01*
X70789900Y-87728464D01*
X71320000Y-87728464D01*
X71461190Y-87701897D01*
X71590865Y-87618454D01*
X71677859Y-87491134D01*
X71708464Y-87340000D01*
X71708464Y-86840000D01*
X71681897Y-86698810D01*
X71677395Y-86691813D01*
X71677859Y-86691134D01*
X71708464Y-86540000D01*
X71708464Y-86040000D01*
X71681897Y-85898810D01*
X71677395Y-85891813D01*
X71677859Y-85891134D01*
X71708464Y-85740000D01*
X71708464Y-85240000D01*
X71681897Y-85098810D01*
X71677395Y-85091813D01*
X71677859Y-85091134D01*
X71708464Y-84940000D01*
X71708464Y-84440000D01*
X71681897Y-84298810D01*
X71677395Y-84291813D01*
X71677859Y-84291134D01*
X71708464Y-84140000D01*
X71708464Y-83640000D01*
X71681897Y-83498810D01*
X71677395Y-83491813D01*
X71677859Y-83491134D01*
X71708464Y-83340000D01*
X71708464Y-82840000D01*
X71681897Y-82698810D01*
X71677395Y-82691813D01*
X71677859Y-82691134D01*
X71708464Y-82540000D01*
X71708464Y-82040000D01*
X71681897Y-81898810D01*
X71677395Y-81891813D01*
X71677859Y-81891134D01*
X71708464Y-81740000D01*
X71708464Y-81240000D01*
X71681897Y-81098810D01*
X71677395Y-81091813D01*
X71677859Y-81091134D01*
X71708464Y-80940000D01*
X71708464Y-80649562D01*
X71858327Y-80499698D01*
X71955000Y-80266309D01*
X71955000Y-80173750D01*
X71796250Y-80015000D01*
X70447000Y-80015000D01*
X70447000Y-80037000D01*
X70193000Y-80037000D01*
X70193000Y-80015000D01*
X68843750Y-80015000D01*
X68685000Y-80173750D01*
X68685000Y-80266309D01*
X68748368Y-80419293D01*
X68617562Y-80550100D01*
X68175000Y-80550100D01*
X68175000Y-80165750D01*
X68016250Y-80007000D01*
X66917000Y-80007000D01*
X66917000Y-80027000D01*
X66663000Y-80027000D01*
X66663000Y-80007000D01*
X66643000Y-80007000D01*
X66643000Y-79753000D01*
X66663000Y-79753000D01*
X66663000Y-78778750D01*
X66917000Y-78778750D01*
X66917000Y-79753000D01*
X68016250Y-79753000D01*
X68175000Y-79594250D01*
X68175000Y-79128690D01*
X68078327Y-78895301D01*
X67899698Y-78716673D01*
X67666309Y-78620000D01*
X67075750Y-78620000D01*
X66917000Y-78778750D01*
X66663000Y-78778750D01*
X66504250Y-78620000D01*
X65959900Y-78620000D01*
X65959900Y-76330000D01*
X65924131Y-76150177D01*
X65913409Y-76134131D01*
X65822270Y-75997731D01*
X60239900Y-70415362D01*
X60239900Y-68776141D01*
X60309663Y-68846026D01*
X60776273Y-69039779D01*
X61281510Y-69040220D01*
X61748458Y-68847282D01*
X62106026Y-68490337D01*
X62299779Y-68023727D01*
X62299781Y-68021512D01*
X62492718Y-68488458D01*
X62849663Y-68846026D01*
X63100100Y-68950016D01*
X63100100Y-71260000D01*
X63106937Y-71294370D01*
X63135869Y-71439823D01*
X63237731Y-71592269D01*
X69850100Y-78204639D01*
X69850100Y-78451536D01*
X69320000Y-78451536D01*
X69178810Y-78478103D01*
X69049135Y-78561546D01*
X68962141Y-78688866D01*
X68931536Y-78840000D01*
X68931536Y-79130438D01*
X68781673Y-79280302D01*
X68685000Y-79513691D01*
X68685000Y-79606250D01*
X68843750Y-79765000D01*
X70193000Y-79765000D01*
X70193000Y-79743000D01*
X70447000Y-79743000D01*
X70447000Y-79765000D01*
X71796250Y-79765000D01*
X71955000Y-79606250D01*
X71955000Y-79513691D01*
X71858327Y-79280302D01*
X71708464Y-79130438D01*
X71708464Y-78840000D01*
X71681897Y-78698810D01*
X71598454Y-78569135D01*
X71471134Y-78482141D01*
X71320000Y-78451536D01*
X70789900Y-78451536D01*
X70789900Y-78010000D01*
X70754131Y-77830177D01*
X70746437Y-77818662D01*
X70652270Y-77677731D01*
X64039900Y-71065362D01*
X64039900Y-68949984D01*
X64288458Y-68847282D01*
X64405998Y-68729947D01*
X64487731Y-68852269D01*
X71688933Y-76053472D01*
X71681536Y-76090000D01*
X71681536Y-78090000D01*
X71708103Y-78231190D01*
X71791546Y-78360865D01*
X71918866Y-78447859D01*
X72070000Y-78478464D01*
X72570000Y-78478464D01*
X72711190Y-78451897D01*
X72718187Y-78447395D01*
X72718866Y-78447859D01*
X72870000Y-78478464D01*
X73370000Y-78478464D01*
X73511190Y-78451897D01*
X73518187Y-78447395D01*
X73518866Y-78447859D01*
X73670000Y-78478464D01*
X74170000Y-78478464D01*
X74311190Y-78451897D01*
X74318187Y-78447395D01*
X74318866Y-78447859D01*
X74470000Y-78478464D01*
X74970000Y-78478464D01*
X75111190Y-78451897D01*
X75118187Y-78447395D01*
X75118866Y-78447859D01*
X75270000Y-78478464D01*
X75770000Y-78478464D01*
X75911190Y-78451897D01*
X75918187Y-78447395D01*
X75918866Y-78447859D01*
X76070000Y-78478464D01*
X76570000Y-78478464D01*
X76711190Y-78451897D01*
X76718187Y-78447395D01*
X76718866Y-78447859D01*
X76870000Y-78478464D01*
X77160439Y-78478464D01*
X77310301Y-78628327D01*
X77543690Y-78725000D01*
X77636250Y-78725000D01*
X77795000Y-78566250D01*
X77795000Y-77217000D01*
X77773000Y-77217000D01*
X77773000Y-76963000D01*
X77795000Y-76963000D01*
X77795000Y-75613750D01*
X77636250Y-75455000D01*
X77589900Y-75455000D01*
X77589900Y-75005062D01*
X77554131Y-74825239D01*
X77495660Y-74737731D01*
X77452269Y-74672792D01*
X77299477Y-74520000D01*
X77357002Y-74520000D01*
X77357002Y-74361252D01*
X77515750Y-74520000D01*
X78085000Y-74520000D01*
X78085000Y-75573750D01*
X78045000Y-75613750D01*
X78045000Y-76963000D01*
X78067000Y-76963000D01*
X78067000Y-77217000D01*
X78045000Y-77217000D01*
X78045000Y-78566250D01*
X78203750Y-78725000D01*
X78296310Y-78725000D01*
X78529699Y-78628327D01*
X78679561Y-78478464D01*
X78970000Y-78478464D01*
X79000036Y-78472812D01*
X78826782Y-78645764D01*
X78691154Y-78972391D01*
X78690846Y-79326057D01*
X78825903Y-79652920D01*
X79075764Y-79903218D01*
X79402391Y-80038846D01*
X79756057Y-80039154D01*
X80082920Y-79904097D01*
X80333218Y-79654236D01*
X80468846Y-79327609D01*
X80469154Y-78973943D01*
X80334097Y-78647080D01*
X80165775Y-78478464D01*
X80570000Y-78478464D01*
X80711190Y-78451897D01*
X80840865Y-78368454D01*
X80927859Y-78241134D01*
X80958464Y-78090000D01*
X80958464Y-76366074D01*
X81922269Y-75402270D01*
X82024131Y-75249823D01*
X82028273Y-75229000D01*
X82059900Y-75070000D01*
X82059900Y-72624439D01*
X82920100Y-73484639D01*
X82920100Y-77825361D01*
X82293926Y-78451536D01*
X81320000Y-78451536D01*
X81178810Y-78478103D01*
X81049135Y-78561546D01*
X80962141Y-78688866D01*
X80931536Y-78840000D01*
X80931536Y-79340000D01*
X80958103Y-79481190D01*
X80962605Y-79488187D01*
X80962141Y-79488866D01*
X80931536Y-79640000D01*
X80931536Y-80140000D01*
X80958103Y-80281190D01*
X80962605Y-80288187D01*
X80962141Y-80288866D01*
X80931536Y-80440000D01*
X80931536Y-80940000D01*
X80958103Y-81081190D01*
X80962605Y-81088187D01*
X80962141Y-81088866D01*
X80931536Y-81240000D01*
X80931536Y-81740000D01*
X80958103Y-81881190D01*
X80962605Y-81888187D01*
X80962141Y-81888866D01*
X80931536Y-82040000D01*
X80931536Y-82540000D01*
X80958103Y-82681190D01*
X80962605Y-82688187D01*
X80962141Y-82688866D01*
X80931536Y-82840000D01*
X80931536Y-83340000D01*
X80958103Y-83481190D01*
X80962605Y-83488187D01*
X80962141Y-83488866D01*
X80931536Y-83640000D01*
X80931536Y-83930438D01*
X80781673Y-84080302D01*
X80685000Y-84313691D01*
X80685000Y-84406250D01*
X80843750Y-84565000D01*
X82193000Y-84565000D01*
X82193000Y-84543000D01*
X82447000Y-84543000D01*
X82447000Y-84565000D01*
X83796250Y-84565000D01*
X83955000Y-84406250D01*
X83955000Y-84359900D01*
X84873997Y-84359900D01*
X84860000Y-84393691D01*
X84860000Y-84984250D01*
X85018750Y-85143000D01*
X85993000Y-85143000D01*
X85993000Y-85123000D01*
X86247000Y-85123000D01*
X86247000Y-85143000D01*
X87221250Y-85143000D01*
X87380000Y-84984250D01*
X87380000Y-84393691D01*
X87366003Y-84359900D01*
X93446482Y-84359900D01*
X93633391Y-84547136D01*
X93922689Y-84667263D01*
X94235936Y-84667536D01*
X94525444Y-84547914D01*
X94747136Y-84326609D01*
X94867263Y-84037311D01*
X94867536Y-83724064D01*
X94747914Y-83434556D01*
X94526609Y-83212864D01*
X94237311Y-83092737D01*
X93924064Y-83092464D01*
X93634556Y-83212086D01*
X93426178Y-83420100D01*
X88457134Y-83420100D01*
X88583218Y-83294236D01*
X88718846Y-82967609D01*
X88719154Y-82613943D01*
X88584097Y-82287080D01*
X88334236Y-82036782D01*
X88221332Y-81989900D01*
X96026499Y-81989900D01*
X96223391Y-82187136D01*
X96512689Y-82307263D01*
X96825936Y-82307536D01*
X97115444Y-82187914D01*
X97337136Y-81966609D01*
X97457263Y-81677311D01*
X97457536Y-81364064D01*
X97356649Y-81119898D01*
X98676499Y-81119898D01*
X98873391Y-81317134D01*
X99162689Y-81437261D01*
X99475936Y-81437534D01*
X99765444Y-81317912D01*
X99987136Y-81096607D01*
X100107263Y-80807309D01*
X100107536Y-80494062D01*
X99987914Y-80204554D01*
X99766609Y-79982862D01*
X99477311Y-79862735D01*
X99164064Y-79862462D01*
X98874556Y-79982084D01*
X98676196Y-80180098D01*
X84672241Y-80180098D01*
X85352270Y-79500069D01*
X85454131Y-79347623D01*
X85458421Y-79326057D01*
X85489900Y-79167800D01*
X85489900Y-75480000D01*
X87871536Y-75480000D01*
X87871536Y-77180000D01*
X87898103Y-77321190D01*
X87981546Y-77450865D01*
X88108866Y-77537859D01*
X88260000Y-77568464D01*
X89960000Y-77568464D01*
X90101190Y-77541897D01*
X90230865Y-77458454D01*
X90317859Y-77331134D01*
X90348464Y-77180000D01*
X90348464Y-75480000D01*
X90321897Y-75338810D01*
X90238454Y-75209135D01*
X90111134Y-75122141D01*
X89960000Y-75091536D01*
X88260000Y-75091536D01*
X88118810Y-75118103D01*
X87989135Y-75201546D01*
X87902141Y-75328866D01*
X87871536Y-75480000D01*
X85489900Y-75480000D01*
X85489900Y-73765883D01*
X87879000Y-73765883D01*
X87879000Y-73814117D01*
X87972704Y-74285200D01*
X88239552Y-74684565D01*
X88638917Y-74951413D01*
X89110000Y-75045117D01*
X89581083Y-74951413D01*
X89980448Y-74684565D01*
X90247296Y-74285200D01*
X90255083Y-74246053D01*
X90454817Y-74671358D01*
X90883076Y-75061645D01*
X91164512Y-75178212D01*
X90779552Y-75435435D01*
X90512704Y-75834800D01*
X90419000Y-76305883D01*
X90419000Y-76354117D01*
X90512704Y-76825200D01*
X90779552Y-77224565D01*
X91178917Y-77491413D01*
X91650000Y-77585117D01*
X92121083Y-77491413D01*
X92520448Y-77224565D01*
X92787296Y-76825200D01*
X92881000Y-76354117D01*
X92881000Y-76305883D01*
X92959000Y-76305883D01*
X92959000Y-76354117D01*
X93052704Y-76825200D01*
X93319552Y-77224565D01*
X93718917Y-77491413D01*
X94190000Y-77585117D01*
X94661083Y-77491413D01*
X95060448Y-77224565D01*
X95327296Y-76825200D01*
X95421000Y-76354117D01*
X95421000Y-76305883D01*
X95499000Y-76305883D01*
X95499000Y-76354117D01*
X95592704Y-76825200D01*
X95859552Y-77224565D01*
X96258917Y-77491413D01*
X96730000Y-77585117D01*
X97201083Y-77491413D01*
X97600448Y-77224565D01*
X97867296Y-76825200D01*
X97961000Y-76354117D01*
X97961000Y-76305883D01*
X98039000Y-76305883D01*
X98039000Y-76354117D01*
X98132704Y-76825200D01*
X98399552Y-77224565D01*
X98798917Y-77491413D01*
X99270000Y-77585117D01*
X99741083Y-77491413D01*
X100140448Y-77224565D01*
X100407296Y-76825200D01*
X100501000Y-76354117D01*
X100501000Y-76305883D01*
X100407296Y-75834800D01*
X100140448Y-75435435D01*
X99741083Y-75168587D01*
X99270000Y-75074883D01*
X98798917Y-75168587D01*
X98399552Y-75435435D01*
X98132704Y-75834800D01*
X98039000Y-76305883D01*
X97961000Y-76305883D01*
X97867296Y-75834800D01*
X97600448Y-75435435D01*
X97201083Y-75168587D01*
X96730000Y-75074883D01*
X96258917Y-75168587D01*
X95859552Y-75435435D01*
X95592704Y-75834800D01*
X95499000Y-76305883D01*
X95421000Y-76305883D01*
X95327296Y-75834800D01*
X95060448Y-75435435D01*
X94661083Y-75168587D01*
X94190000Y-75074883D01*
X93718917Y-75168587D01*
X93319552Y-75435435D01*
X93052704Y-75834800D01*
X92959000Y-76305883D01*
X92881000Y-76305883D01*
X92787296Y-75834800D01*
X92520448Y-75435435D01*
X92135488Y-75178212D01*
X92416924Y-75061645D01*
X92845183Y-74671358D01*
X93044917Y-74246053D01*
X93052704Y-74285200D01*
X93319552Y-74684565D01*
X93718917Y-74951413D01*
X94190000Y-75045117D01*
X94661083Y-74951413D01*
X95060448Y-74684565D01*
X95327296Y-74285200D01*
X95421000Y-73814117D01*
X95421000Y-73765883D01*
X95499000Y-73765883D01*
X95499000Y-73814117D01*
X95592704Y-74285200D01*
X95859552Y-74684565D01*
X96258917Y-74951413D01*
X96730000Y-75045117D01*
X97201083Y-74951413D01*
X97600448Y-74684565D01*
X97867296Y-74285200D01*
X97961000Y-73814117D01*
X97961000Y-73765883D01*
X98039000Y-73765883D01*
X98039000Y-73814117D01*
X98132704Y-74285200D01*
X98399552Y-74684565D01*
X98798917Y-74951413D01*
X99270000Y-75045117D01*
X99741083Y-74951413D01*
X100140448Y-74684565D01*
X100407296Y-74285200D01*
X100501000Y-73814117D01*
X100501000Y-73765883D01*
X100407296Y-73294800D01*
X100140448Y-72895435D01*
X99741083Y-72628587D01*
X99270000Y-72534883D01*
X98798917Y-72628587D01*
X98399552Y-72895435D01*
X98132704Y-73294800D01*
X98039000Y-73765883D01*
X97961000Y-73765883D01*
X97867296Y-73294800D01*
X97600448Y-72895435D01*
X97201083Y-72628587D01*
X96730000Y-72534883D01*
X96258917Y-72628587D01*
X95859552Y-72895435D01*
X95592704Y-73294800D01*
X95499000Y-73765883D01*
X95421000Y-73765883D01*
X95327296Y-73294800D01*
X95060448Y-72895435D01*
X94661083Y-72628587D01*
X94190000Y-72534883D01*
X93718917Y-72628587D01*
X93319552Y-72895435D01*
X93052704Y-73294800D01*
X93044917Y-73333947D01*
X92845183Y-72908642D01*
X92416924Y-72518355D01*
X92006890Y-72348524D01*
X91777000Y-72469845D01*
X91777000Y-73663000D01*
X91797000Y-73663000D01*
X91797000Y-73917000D01*
X91777000Y-73917000D01*
X91777000Y-73937000D01*
X91523000Y-73937000D01*
X91523000Y-73917000D01*
X91503000Y-73917000D01*
X91503000Y-73663000D01*
X91523000Y-73663000D01*
X91523000Y-72469845D01*
X91293110Y-72348524D01*
X90883076Y-72518355D01*
X90454817Y-72908642D01*
X90255083Y-73333947D01*
X90247296Y-73294800D01*
X89980448Y-72895435D01*
X89581083Y-72628587D01*
X89110000Y-72534883D01*
X88638917Y-72628587D01*
X88239552Y-72895435D01*
X87972704Y-73294800D01*
X87879000Y-73765883D01*
X85489900Y-73765883D01*
X85489900Y-71440000D01*
X85454131Y-71260177D01*
X85411516Y-71196399D01*
X85352270Y-71107731D01*
X82516644Y-68272105D01*
X82619779Y-68023727D01*
X82619781Y-68021512D01*
X82812718Y-68488458D01*
X83169663Y-68846026D01*
X83636273Y-69039779D01*
X84141510Y-69040220D01*
X84608458Y-68847282D01*
X84966026Y-68490337D01*
X85159779Y-68023727D01*
X85159781Y-68021512D01*
X85352718Y-68488458D01*
X85709663Y-68846026D01*
X86176273Y-69039779D01*
X86681510Y-69040220D01*
X87148458Y-68847282D01*
X87506026Y-68490337D01*
X87699779Y-68023727D01*
X87699781Y-68021512D01*
X87892718Y-68488458D01*
X88249663Y-68846026D01*
X88716273Y-69039779D01*
X89221510Y-69040220D01*
X89688458Y-68847282D01*
X90046026Y-68490337D01*
X90239779Y-68023727D01*
X90239781Y-68021512D01*
X90432718Y-68488458D01*
X90789663Y-68846026D01*
X91256273Y-69039779D01*
X91761510Y-69040220D01*
X92228458Y-68847282D01*
X92586026Y-68490337D01*
X92779779Y-68023727D01*
X92779781Y-68021512D01*
X92972718Y-68488458D01*
X93329663Y-68846026D01*
X93796273Y-69039779D01*
X94301510Y-69040220D01*
X94768458Y-68847282D01*
X95126026Y-68490337D01*
X95319779Y-68023727D01*
X95319781Y-68021512D01*
X95512718Y-68488458D01*
X95869663Y-68846026D01*
X96336273Y-69039779D01*
X96841510Y-69040220D01*
X97308458Y-68847282D01*
X97666026Y-68490337D01*
X97859779Y-68023727D01*
X97859781Y-68021512D01*
X98052718Y-68488458D01*
X98409663Y-68846026D01*
X98876273Y-69039779D01*
X99381510Y-69040220D01*
X99848458Y-68847282D01*
X100206026Y-68490337D01*
X100399779Y-68023727D01*
X100400220Y-67518490D01*
X100207282Y-67051542D01*
X99979142Y-66823003D01*
X102368718Y-66823003D01*
X102616499Y-67422680D01*
X103074907Y-67881888D01*
X103674151Y-68130716D01*
X104323003Y-68131282D01*
X104922680Y-67883501D01*
X105381888Y-67425093D01*
X105630716Y-66825849D01*
X105631282Y-66176997D01*
X105383501Y-65577320D01*
X104925093Y-65118112D01*
X104325849Y-64869284D01*
X103676997Y-64868718D01*
X103077320Y-65116499D01*
X102618112Y-65574907D01*
X102369284Y-66174151D01*
X102368718Y-66823003D01*
X99979142Y-66823003D01*
X99850337Y-66693974D01*
X99383727Y-66500221D01*
X99381512Y-66500219D01*
X99848458Y-66307282D01*
X100206026Y-65950337D01*
X100399779Y-65483727D01*
X100400220Y-64978490D01*
X100207282Y-64511542D01*
X99850337Y-64153974D01*
X99383727Y-63960221D01*
X98878490Y-63959780D01*
X98411542Y-64152718D01*
X98053974Y-64509663D01*
X97860221Y-64976273D01*
X97860219Y-64978488D01*
X97667282Y-64511542D01*
X97310337Y-64153974D01*
X96843727Y-63960221D01*
X96338490Y-63959780D01*
X95871542Y-64152718D01*
X95513974Y-64509663D01*
X95320221Y-64976273D01*
X95320219Y-64978488D01*
X95127282Y-64511542D01*
X94770337Y-64153974D01*
X94303727Y-63960221D01*
X93798490Y-63959780D01*
X93331542Y-64152718D01*
X92973974Y-64509663D01*
X92780221Y-64976273D01*
X92780219Y-64978488D01*
X92587282Y-64511542D01*
X92230337Y-64153974D01*
X91763727Y-63960221D01*
X91258490Y-63959780D01*
X90791542Y-64152718D01*
X90433974Y-64509663D01*
X90240221Y-64976273D01*
X90240219Y-64978488D01*
X90047282Y-64511542D01*
X89690337Y-64153974D01*
X89223727Y-63960221D01*
X88718490Y-63959780D01*
X88251542Y-64152718D01*
X87893974Y-64509663D01*
X87700221Y-64976273D01*
X87700219Y-64978488D01*
X87507282Y-64511542D01*
X87150337Y-64153974D01*
X86683727Y-63960221D01*
X86178490Y-63959780D01*
X85711542Y-64152718D01*
X85353974Y-64509663D01*
X85160221Y-64976273D01*
X85160219Y-64978488D01*
X84967282Y-64511542D01*
X84610337Y-64153974D01*
X84143727Y-63960221D01*
X83638490Y-63959780D01*
X83171542Y-64152718D01*
X82813974Y-64509663D01*
X82620221Y-64976273D01*
X82620219Y-64978488D01*
X82427282Y-64511542D01*
X82070337Y-64153974D01*
X81603727Y-63960221D01*
X81098490Y-63959780D01*
X80631542Y-64152718D01*
X80273974Y-64509663D01*
X80080221Y-64976273D01*
X80080219Y-64978488D01*
X79887282Y-64511542D01*
X79530337Y-64153974D01*
X79063727Y-63960221D01*
X78558490Y-63959780D01*
X78091542Y-64152718D01*
X77733974Y-64509663D01*
X77540221Y-64976273D01*
X77540219Y-64978488D01*
X77347282Y-64511542D01*
X76990337Y-64153974D01*
X76523727Y-63960221D01*
X76018490Y-63959780D01*
X75551542Y-64152718D01*
X75193974Y-64509663D01*
X75000221Y-64976273D01*
X75000219Y-64978488D01*
X74807282Y-64511542D01*
X74450337Y-64153974D01*
X73983727Y-63960221D01*
X73478490Y-63959780D01*
X73011542Y-64152718D01*
X72653974Y-64509663D01*
X72603753Y-64630608D01*
X72517539Y-64422467D01*
X72262196Y-64337409D01*
X71369605Y-65230000D01*
X72262196Y-66122591D01*
X72517539Y-66037533D01*
X72598229Y-65816583D01*
X72652718Y-65948458D01*
X73009663Y-66306026D01*
X73476273Y-66499779D01*
X73478488Y-66499781D01*
X73011542Y-66692718D01*
X72653974Y-67049663D01*
X72460221Y-67516273D01*
X72460219Y-67518488D01*
X72267282Y-67051542D01*
X71910337Y-66693974D01*
X71789392Y-66643753D01*
X71997533Y-66557539D01*
X72082591Y-66302196D01*
X71190000Y-65409605D01*
X71175858Y-65423748D01*
X70996253Y-65244143D01*
X71010395Y-65230000D01*
X70117804Y-64337409D01*
X69862461Y-64422467D01*
X69781771Y-64643417D01*
X69727282Y-64511542D01*
X69374161Y-64157804D01*
X70297409Y-64157804D01*
X71190000Y-65050395D01*
X72082591Y-64157804D01*
X71997533Y-63902461D01*
X71428035Y-63694484D01*
X70822300Y-63720277D01*
X70382467Y-63902461D01*
X70297409Y-64157804D01*
X69374161Y-64157804D01*
X69370337Y-64153974D01*
X68903727Y-63960221D01*
X68398490Y-63959780D01*
X67931542Y-64152718D01*
X67573974Y-64509663D01*
X67380221Y-64976273D01*
X67380219Y-64978488D01*
X67187282Y-64511542D01*
X66830337Y-64153974D01*
X66363727Y-63960221D01*
X65858490Y-63959780D01*
X65391542Y-64152718D01*
X65033974Y-64509663D01*
X64840221Y-64976273D01*
X64840219Y-64978488D01*
X64647282Y-64511542D01*
X64290337Y-64153974D01*
X63823727Y-63960221D01*
X63318490Y-63959780D01*
X62851542Y-64152718D01*
X62493974Y-64509663D01*
X62300221Y-64976273D01*
X62300219Y-64978488D01*
X62107282Y-64511542D01*
X61750337Y-64153974D01*
X61283727Y-63960221D01*
X60778490Y-63959780D01*
X60311542Y-64152718D01*
X59953974Y-64509663D01*
X59760221Y-64976273D01*
X59760219Y-64978488D01*
X59567282Y-64511542D01*
X59210337Y-64153974D01*
X58743727Y-63960221D01*
X58238490Y-63959780D01*
X57771542Y-64152718D01*
X57413974Y-64509663D01*
X57220221Y-64976273D01*
X57220219Y-64978488D01*
X57027282Y-64511542D01*
X56670337Y-64153974D01*
X56203727Y-63960221D01*
X55698490Y-63959780D01*
X55231542Y-64152718D01*
X54873974Y-64509663D01*
X54680221Y-64976273D01*
X54680219Y-64978488D01*
X54487282Y-64511542D01*
X54130337Y-64153974D01*
X53663727Y-63960221D01*
X53158490Y-63959780D01*
X52691542Y-64152718D01*
X52394000Y-64449742D01*
X52394000Y-64214690D01*
X52297327Y-63981301D01*
X52118698Y-63802673D01*
X51885309Y-63706000D01*
X51155750Y-63706000D01*
X50997000Y-63864750D01*
X50997000Y-65103000D01*
X51017000Y-65103000D01*
X51017000Y-65357000D01*
X50997000Y-65357000D01*
X50997000Y-65377000D01*
X50743000Y-65377000D01*
X50743000Y-65357000D01*
X49504750Y-65357000D01*
X49346000Y-65515750D01*
X49346000Y-66245310D01*
X49442673Y-66478699D01*
X49621302Y-66657327D01*
X49854691Y-66754000D01*
X50090153Y-66754000D01*
X49793974Y-67049663D01*
X49600221Y-67516273D01*
X49599780Y-68021510D01*
X49792718Y-68488458D01*
X50149663Y-68846026D01*
X50616273Y-69039779D01*
X51121510Y-69040220D01*
X51588458Y-68847282D01*
X51649847Y-68786000D01*
X52629742Y-68786000D01*
X52689663Y-68846026D01*
X53156273Y-69039779D01*
X53661510Y-69040220D01*
X54128458Y-68847282D01*
X54284035Y-68691976D01*
X54357731Y-68802269D01*
X61450100Y-75894639D01*
X61450100Y-79867971D01*
X61477755Y-80007000D01*
X61485869Y-80047794D01*
X61587731Y-80200240D01*
X64007590Y-82620100D01*
X61950000Y-82620100D01*
X61770177Y-82655869D01*
X61617730Y-82757731D01*
X53670606Y-90704856D01*
X53637609Y-90691154D01*
X53283943Y-90690846D01*
X52957080Y-90825903D01*
X52706782Y-91075764D01*
X52571154Y-91402391D01*
X52570846Y-91756057D01*
X52705903Y-92082920D01*
X52955764Y-92333218D01*
X53282391Y-92468846D01*
X53636057Y-92469154D01*
X53962920Y-92334097D01*
X54213218Y-92084236D01*
X54348846Y-91757609D01*
X54349154Y-91403943D01*
X54334956Y-91369582D01*
X62144639Y-83559900D01*
X63507761Y-83559900D01*
X53077731Y-93989931D01*
X52996476Y-94111536D01*
X52775000Y-94111536D01*
X52633810Y-94138103D01*
X52504135Y-94221546D01*
X52417141Y-94348866D01*
X52386536Y-94500000D01*
X52386536Y-105044000D01*
X51893464Y-105044000D01*
X51893464Y-94500000D01*
X51866897Y-94358810D01*
X51783454Y-94229135D01*
X51656134Y-94142141D01*
X51505000Y-94111536D01*
X50235000Y-94111536D01*
X50093810Y-94138103D01*
X49964135Y-94221546D01*
X49877141Y-94348866D01*
X49846536Y-94500000D01*
X49846536Y-105044000D01*
X49353464Y-105044000D01*
X49353464Y-94500000D01*
X49346000Y-94460333D01*
X49346000Y-93230000D01*
X49269739Y-92846609D01*
X49268662Y-92841193D01*
X49048421Y-92511580D01*
X46476000Y-89939160D01*
X46476000Y-77283402D01*
X46711413Y-76931083D01*
X46805117Y-76460000D01*
X46711413Y-75988917D01*
X46444565Y-75589552D01*
X46280610Y-75480000D01*
X51851536Y-75480000D01*
X51851536Y-77180000D01*
X51878103Y-77321190D01*
X51961546Y-77450865D01*
X52088866Y-77537859D01*
X52240000Y-77568464D01*
X53940000Y-77568464D01*
X54081190Y-77541897D01*
X54210865Y-77458454D01*
X54297859Y-77331134D01*
X54328464Y-77180000D01*
X54328464Y-76305883D01*
X54399000Y-76305883D01*
X54399000Y-76354117D01*
X54492704Y-76825200D01*
X54759552Y-77224565D01*
X55158917Y-77491413D01*
X55630000Y-77585117D01*
X56101083Y-77491413D01*
X56500448Y-77224565D01*
X56767296Y-76825200D01*
X56861000Y-76354117D01*
X56861000Y-76305883D01*
X56939000Y-76305883D01*
X56939000Y-76354117D01*
X57032704Y-76825200D01*
X57299552Y-77224565D01*
X57698917Y-77491413D01*
X58170000Y-77585117D01*
X58641083Y-77491413D01*
X59040448Y-77224565D01*
X59307296Y-76825200D01*
X59401000Y-76354117D01*
X59401000Y-76305883D01*
X59307296Y-75834800D01*
X59040448Y-75435435D01*
X58641083Y-75168587D01*
X58170000Y-75074883D01*
X57698917Y-75168587D01*
X57299552Y-75435435D01*
X57032704Y-75834800D01*
X56939000Y-76305883D01*
X56861000Y-76305883D01*
X56767296Y-75834800D01*
X56500448Y-75435435D01*
X56101083Y-75168587D01*
X55630000Y-75074883D01*
X55158917Y-75168587D01*
X54759552Y-75435435D01*
X54492704Y-75834800D01*
X54399000Y-76305883D01*
X54328464Y-76305883D01*
X54328464Y-75480000D01*
X54301897Y-75338810D01*
X54218454Y-75209135D01*
X54091134Y-75122141D01*
X53940000Y-75091536D01*
X52240000Y-75091536D01*
X52098810Y-75118103D01*
X51969135Y-75201546D01*
X51882141Y-75328866D01*
X51851536Y-75480000D01*
X46280610Y-75480000D01*
X46045200Y-75322704D01*
X45574117Y-75229000D01*
X45525883Y-75229000D01*
X45054800Y-75322704D01*
X44655435Y-75589552D01*
X44388587Y-75988917D01*
X44294883Y-76460000D01*
X44388587Y-76931083D01*
X44444000Y-77014014D01*
X44444000Y-90360000D01*
X44499695Y-90640000D01*
X44521338Y-90748807D01*
X44741580Y-91078420D01*
X47314000Y-93650841D01*
X47314000Y-94463141D01*
X47306536Y-94500000D01*
X47306536Y-104661654D01*
X46956000Y-104311118D01*
X46956000Y-94500000D01*
X46921289Y-94325496D01*
X46822441Y-94177559D01*
X46674504Y-94078711D01*
X46500000Y-94044000D01*
X37544911Y-94044000D01*
X37295239Y-93994337D01*
X37121651Y-93878349D01*
X37005663Y-93704761D01*
X36956000Y-93455089D01*
X36956000Y-74696890D01*
X38168524Y-74696890D01*
X38338355Y-75106924D01*
X38728642Y-75535183D01*
X39153947Y-75734917D01*
X39114800Y-75742704D01*
X38715435Y-76009552D01*
X38448587Y-76408917D01*
X38354883Y-76880000D01*
X38448587Y-77351083D01*
X38715435Y-77750448D01*
X39114800Y-78017296D01*
X39585883Y-78111000D01*
X39634117Y-78111000D01*
X40105200Y-78017296D01*
X40286732Y-77896000D01*
X41040000Y-77896000D01*
X41370916Y-77830177D01*
X41428807Y-77818662D01*
X41758420Y-77598420D01*
X44380212Y-74976629D01*
X44421546Y-75040865D01*
X44548866Y-75127859D01*
X44700000Y-75158464D01*
X46400000Y-75158464D01*
X46541190Y-75131897D01*
X46670865Y-75048454D01*
X46757859Y-74921134D01*
X46788464Y-74770000D01*
X46788464Y-73070000D01*
X46761897Y-72928810D01*
X46678454Y-72799135D01*
X46551134Y-72712141D01*
X46400000Y-72681536D01*
X44700000Y-72681536D01*
X44558810Y-72708103D01*
X44429135Y-72791546D01*
X44352298Y-72904000D01*
X44000000Y-72904000D01*
X43675700Y-72968507D01*
X43611193Y-72981338D01*
X43281579Y-73201580D01*
X40619160Y-75864000D01*
X40286732Y-75864000D01*
X40105200Y-75742704D01*
X40066053Y-75734917D01*
X40491358Y-75535183D01*
X40881645Y-75106924D01*
X41051476Y-74696890D01*
X40930155Y-74467000D01*
X39737000Y-74467000D01*
X39737000Y-74487000D01*
X39483000Y-74487000D01*
X39483000Y-74467000D01*
X38289845Y-74467000D01*
X38168524Y-74696890D01*
X36956000Y-74696890D01*
X36956000Y-73983110D01*
X38168524Y-73983110D01*
X38289845Y-74213000D01*
X39483000Y-74213000D01*
X39483000Y-74193000D01*
X39737000Y-74193000D01*
X39737000Y-74213000D01*
X40930155Y-74213000D01*
X41051476Y-73983110D01*
X40881645Y-73573076D01*
X40491358Y-73144817D01*
X40264895Y-73038464D01*
X40460000Y-73038464D01*
X40601190Y-73011897D01*
X40730865Y-72928454D01*
X40817859Y-72801134D01*
X40848464Y-72650000D01*
X40848464Y-70950000D01*
X40821897Y-70808810D01*
X40738454Y-70679135D01*
X40611134Y-70592141D01*
X40460000Y-70561536D01*
X38760000Y-70561536D01*
X38618810Y-70588103D01*
X38489135Y-70671546D01*
X38402141Y-70798866D01*
X38371536Y-70950000D01*
X38371536Y-72650000D01*
X38398103Y-72791190D01*
X38481546Y-72920865D01*
X38608866Y-73007859D01*
X38760000Y-73038464D01*
X38955105Y-73038464D01*
X38728642Y-73144817D01*
X38338355Y-73573076D01*
X38168524Y-73983110D01*
X36956000Y-73983110D01*
X36956000Y-66823003D01*
X44368718Y-66823003D01*
X44616499Y-67422680D01*
X45074907Y-67881888D01*
X45674151Y-68130716D01*
X46323003Y-68131282D01*
X46922680Y-67883501D01*
X47381888Y-67425093D01*
X47630716Y-66825849D01*
X47631282Y-66176997D01*
X47383501Y-65577320D01*
X46925093Y-65118112D01*
X46325849Y-64869284D01*
X45676997Y-64868718D01*
X45077320Y-65116499D01*
X44618112Y-65574907D01*
X44369284Y-66174151D01*
X44368718Y-66823003D01*
X36956000Y-66823003D01*
X36956000Y-64214690D01*
X49346000Y-64214690D01*
X49346000Y-64944250D01*
X49504750Y-65103000D01*
X50743000Y-65103000D01*
X50743000Y-63864750D01*
X50584250Y-63706000D01*
X49854691Y-63706000D01*
X49621302Y-63802673D01*
X49442673Y-63981301D01*
X49346000Y-64214690D01*
X36956000Y-64214690D01*
X36956000Y-43823003D01*
X44368718Y-43823003D01*
X44616499Y-44422680D01*
X45074907Y-44881888D01*
X45674151Y-45130716D01*
X46323003Y-45131282D01*
X46922680Y-44883501D01*
X47381888Y-44425093D01*
X47630716Y-43825849D01*
X47630718Y-43823003D01*
X102368718Y-43823003D01*
X102616499Y-44422680D01*
X103074907Y-44881888D01*
X103674151Y-45130716D01*
X104323003Y-45131282D01*
X104922680Y-44883501D01*
X105381888Y-44425093D01*
X105630716Y-43825849D01*
X105631282Y-43176997D01*
X105383501Y-42577320D01*
X104925093Y-42118112D01*
X104325849Y-41869284D01*
X103676997Y-41868718D01*
X103077320Y-42116499D01*
X102618112Y-42574907D01*
X102369284Y-43174151D01*
X102368718Y-43823003D01*
X47630718Y-43823003D01*
X47631282Y-43176997D01*
X47383501Y-42577320D01*
X46925093Y-42118112D01*
X46325849Y-41869284D01*
X45676997Y-41868718D01*
X45077320Y-42116499D01*
X44618112Y-42574907D01*
X44369284Y-43174151D01*
X44368718Y-43823003D01*
X36956000Y-43823003D01*
X36956000Y-36044911D01*
X37005663Y-35795239D01*
X37121651Y-35621651D01*
X37295239Y-35505663D01*
X37544911Y-35456000D01*
X112455089Y-35456000D01*
X112704761Y-35505663D01*
G36*
X75192718Y-68488458D02*
X75549663Y-68846026D01*
X76016273Y-69039779D01*
X76521510Y-69040220D01*
X76988458Y-68847282D01*
X77250610Y-68585586D01*
X81120100Y-72455077D01*
X81120100Y-74875361D01*
X80293926Y-75701536D01*
X80169705Y-75701536D01*
X80332920Y-75634097D01*
X80583218Y-75384236D01*
X80718846Y-75057609D01*
X80719154Y-74703943D01*
X80584097Y-74377080D01*
X80480557Y-74273359D01*
X80621190Y-74246897D01*
X80750865Y-74163454D01*
X80837859Y-74036134D01*
X80868464Y-73885000D01*
X80868464Y-72635000D01*
X80841897Y-72493810D01*
X80758454Y-72364135D01*
X80631134Y-72277141D01*
X80480000Y-72246536D01*
X78980000Y-72246536D01*
X78838810Y-72273103D01*
X78709135Y-72356546D01*
X78622141Y-72483866D01*
X78615000Y-72519130D01*
X78615000Y-72508690D01*
X78518327Y-72275301D01*
X78339698Y-72096673D01*
X78106309Y-72000000D01*
X77515750Y-72000000D01*
X77357000Y-72158750D01*
X77357000Y-73133000D01*
X77377000Y-73133000D01*
X77377000Y-73387000D01*
X77357000Y-73387000D01*
X77357000Y-73407000D01*
X77103000Y-73407000D01*
X77103000Y-73387000D01*
X77083000Y-73387000D01*
X77083000Y-73133000D01*
X77103000Y-73133000D01*
X77103000Y-72158750D01*
X76944250Y-72000000D01*
X76353691Y-72000000D01*
X76148756Y-72084887D01*
X76207136Y-72026609D01*
X76327263Y-71737311D01*
X76327536Y-71424064D01*
X76207914Y-71134556D01*
X75986609Y-70912864D01*
X75697311Y-70792737D01*
X75384064Y-70792464D01*
X75094556Y-70912086D01*
X74872864Y-71133391D01*
X74752737Y-71422689D01*
X74752464Y-71735936D01*
X74872086Y-72025444D01*
X75070100Y-72223804D01*
X75070100Y-72793532D01*
X73352296Y-71075729D01*
X73340530Y-71016576D01*
X73287272Y-70936871D01*
X73287536Y-70634064D01*
X73167914Y-70344556D01*
X72946609Y-70122864D01*
X72657311Y-70002737D01*
X72344064Y-70002464D01*
X72054556Y-70122086D01*
X71832864Y-70343391D01*
X71756249Y-70527901D01*
X71659900Y-70431552D01*
X71659900Y-68949984D01*
X71908458Y-68847282D01*
X72266026Y-68490337D01*
X72459779Y-68023727D01*
X72459781Y-68021512D01*
X72652718Y-68488458D01*
X73009663Y-68846026D01*
X73476273Y-69039779D01*
X73981510Y-69040220D01*
X74448458Y-68847282D01*
X74806026Y-68490337D01*
X74999779Y-68023727D01*
X74999781Y-68021512D01*
X75192718Y-68488458D01*
X75192718Y-68488458D01*
G37*
X75192718Y-68488458D02*
X75549663Y-68846026D01*
X76016273Y-69039779D01*
X76521510Y-69040220D01*
X76988458Y-68847282D01*
X77250610Y-68585586D01*
X81120100Y-72455077D01*
X81120100Y-74875361D01*
X80293926Y-75701536D01*
X80169705Y-75701536D01*
X80332920Y-75634097D01*
X80583218Y-75384236D01*
X80718846Y-75057609D01*
X80719154Y-74703943D01*
X80584097Y-74377080D01*
X80480557Y-74273359D01*
X80621190Y-74246897D01*
X80750865Y-74163454D01*
X80837859Y-74036134D01*
X80868464Y-73885000D01*
X80868464Y-72635000D01*
X80841897Y-72493810D01*
X80758454Y-72364135D01*
X80631134Y-72277141D01*
X80480000Y-72246536D01*
X78980000Y-72246536D01*
X78838810Y-72273103D01*
X78709135Y-72356546D01*
X78622141Y-72483866D01*
X78615000Y-72519130D01*
X78615000Y-72508690D01*
X78518327Y-72275301D01*
X78339698Y-72096673D01*
X78106309Y-72000000D01*
X77515750Y-72000000D01*
X77357000Y-72158750D01*
X77357000Y-73133000D01*
X77377000Y-73133000D01*
X77377000Y-73387000D01*
X77357000Y-73387000D01*
X77357000Y-73407000D01*
X77103000Y-73407000D01*
X77103000Y-73387000D01*
X77083000Y-73387000D01*
X77083000Y-73133000D01*
X77103000Y-73133000D01*
X77103000Y-72158750D01*
X76944250Y-72000000D01*
X76353691Y-72000000D01*
X76148756Y-72084887D01*
X76207136Y-72026609D01*
X76327263Y-71737311D01*
X76327536Y-71424064D01*
X76207914Y-71134556D01*
X75986609Y-70912864D01*
X75697311Y-70792737D01*
X75384064Y-70792464D01*
X75094556Y-70912086D01*
X74872864Y-71133391D01*
X74752737Y-71422689D01*
X74752464Y-71735936D01*
X74872086Y-72025444D01*
X75070100Y-72223804D01*
X75070100Y-72793532D01*
X73352296Y-71075729D01*
X73340530Y-71016576D01*
X73287272Y-70936871D01*
X73287536Y-70634064D01*
X73167914Y-70344556D01*
X72946609Y-70122864D01*
X72657311Y-70002737D01*
X72344064Y-70002464D01*
X72054556Y-70122086D01*
X71832864Y-70343391D01*
X71756249Y-70527901D01*
X71659900Y-70431552D01*
X71659900Y-68949984D01*
X71908458Y-68847282D01*
X72266026Y-68490337D01*
X72459779Y-68023727D01*
X72459781Y-68021512D01*
X72652718Y-68488458D01*
X73009663Y-68846026D01*
X73476273Y-69039779D01*
X73981510Y-69040220D01*
X74448458Y-68847282D01*
X74806026Y-68490337D01*
X74999779Y-68023727D01*
X74999781Y-68021512D01*
X75192718Y-68488458D01*
M02*
