G04 #@! TF.FileFunction,Legend,Top*
%FSLAX46Y46*%
G04 Gerber Fmt 4.6, Leading zero omitted, Abs format (unit mm)*
G04 Created by KiCad (PCBNEW 4.0.1-stable) date Thursday, May 18, 2017 'PMt' 08:22:24 PM*
%MOMM*%
G01*
G04 APERTURE LIST*
%ADD10C,0.100000*%
%ADD11C,0.200000*%
%ADD12C,0.120000*%
%ADD13C,0.150000*%
G04 APERTURE END LIST*
D10*
D11*
X53928573Y-37750000D02*
X54642859Y-37750000D01*
X53785716Y-38178571D02*
X54285716Y-36678571D01*
X54785716Y-38178571D01*
X55928573Y-38107143D02*
X55785716Y-38178571D01*
X55500002Y-38178571D01*
X55357144Y-38107143D01*
X55285716Y-38035714D01*
X55214287Y-37892857D01*
X55214287Y-37464286D01*
X55285716Y-37321429D01*
X55357144Y-37250000D01*
X55500002Y-37178571D01*
X55785716Y-37178571D01*
X55928573Y-37250000D01*
X56785716Y-38178571D02*
X56642858Y-38107143D01*
X56571430Y-38035714D01*
X56500001Y-37892857D01*
X56500001Y-37464286D01*
X56571430Y-37321429D01*
X56642858Y-37250000D01*
X56785716Y-37178571D01*
X57000001Y-37178571D01*
X57142858Y-37250000D01*
X57214287Y-37321429D01*
X57285716Y-37464286D01*
X57285716Y-37892857D01*
X57214287Y-38035714D01*
X57142858Y-38107143D01*
X57000001Y-38178571D01*
X56785716Y-38178571D01*
X57928573Y-38178571D02*
X57928573Y-37178571D01*
X57928573Y-37464286D02*
X58000001Y-37321429D01*
X58071430Y-37250000D01*
X58214287Y-37178571D01*
X58357144Y-37178571D01*
X58857144Y-37178571D02*
X58857144Y-38178571D01*
X58857144Y-37321429D02*
X58928572Y-37250000D01*
X59071430Y-37178571D01*
X59285715Y-37178571D01*
X59428572Y-37250000D01*
X59500001Y-37392857D01*
X59500001Y-38178571D01*
X61357144Y-37392857D02*
X61857144Y-37392857D01*
X62071430Y-38178571D02*
X61357144Y-38178571D01*
X61357144Y-36678571D01*
X62071430Y-36678571D01*
X62928573Y-38178571D02*
X62785715Y-38107143D01*
X62714287Y-37964286D01*
X62714287Y-36678571D01*
X64071429Y-38107143D02*
X63928572Y-38178571D01*
X63642858Y-38178571D01*
X63500001Y-38107143D01*
X63428572Y-37964286D01*
X63428572Y-37392857D01*
X63500001Y-37250000D01*
X63642858Y-37178571D01*
X63928572Y-37178571D01*
X64071429Y-37250000D01*
X64142858Y-37392857D01*
X64142858Y-37535714D01*
X63428572Y-37678571D01*
X65428572Y-38107143D02*
X65285715Y-38178571D01*
X65000001Y-38178571D01*
X64857143Y-38107143D01*
X64785715Y-38035714D01*
X64714286Y-37892857D01*
X64714286Y-37464286D01*
X64785715Y-37321429D01*
X64857143Y-37250000D01*
X65000001Y-37178571D01*
X65285715Y-37178571D01*
X65428572Y-37250000D01*
X65857143Y-37178571D02*
X66428572Y-37178571D01*
X66071429Y-36678571D02*
X66071429Y-37964286D01*
X66142857Y-38107143D01*
X66285715Y-38178571D01*
X66428572Y-38178571D01*
X66928572Y-38178571D02*
X66928572Y-37178571D01*
X66928572Y-37464286D02*
X67000000Y-37321429D01*
X67071429Y-37250000D01*
X67214286Y-37178571D01*
X67357143Y-37178571D01*
X68071429Y-38178571D02*
X67928571Y-38107143D01*
X67857143Y-38035714D01*
X67785714Y-37892857D01*
X67785714Y-37464286D01*
X67857143Y-37321429D01*
X67928571Y-37250000D01*
X68071429Y-37178571D01*
X68285714Y-37178571D01*
X68428571Y-37250000D01*
X68500000Y-37321429D01*
X68571429Y-37464286D01*
X68571429Y-37892857D01*
X68500000Y-38035714D01*
X68428571Y-38107143D01*
X68285714Y-38178571D01*
X68071429Y-38178571D01*
X69214286Y-37178571D02*
X69214286Y-38178571D01*
X69214286Y-37321429D02*
X69285714Y-37250000D01*
X69428572Y-37178571D01*
X69642857Y-37178571D01*
X69785714Y-37250000D01*
X69857143Y-37392857D01*
X69857143Y-38178571D01*
X71714286Y-38178571D02*
X71714286Y-36678571D01*
X72285714Y-36678571D01*
X72428572Y-36750000D01*
X72500000Y-36821429D01*
X72571429Y-36964286D01*
X72571429Y-37178571D01*
X72500000Y-37321429D01*
X72428572Y-37392857D01*
X72285714Y-37464286D01*
X71714286Y-37464286D01*
X73214286Y-38178571D02*
X73214286Y-37178571D01*
X73214286Y-36678571D02*
X73142857Y-36750000D01*
X73214286Y-36821429D01*
X73285714Y-36750000D01*
X73214286Y-36678571D01*
X73214286Y-36821429D01*
X73714286Y-36678571D02*
X74571429Y-36678571D01*
X74142858Y-38178571D02*
X74142858Y-36678571D01*
X75714286Y-37178571D02*
X75714286Y-38178571D01*
X75071429Y-37178571D02*
X75071429Y-37964286D01*
X75142857Y-38107143D01*
X75285715Y-38178571D01*
X75500000Y-38178571D01*
X75642857Y-38107143D01*
X75714286Y-38035714D01*
X76428572Y-38178571D02*
X76428572Y-36678571D01*
X76428572Y-37250000D02*
X76571429Y-37178571D01*
X76857143Y-37178571D01*
X77000000Y-37250000D01*
X77071429Y-37321429D01*
X77142858Y-37464286D01*
X77142858Y-37892857D01*
X77071429Y-38035714D01*
X77000000Y-38107143D01*
X76857143Y-38178571D01*
X76571429Y-38178571D01*
X76428572Y-38107143D01*
X78357143Y-38107143D02*
X78214286Y-38178571D01*
X77928572Y-38178571D01*
X77785715Y-38107143D01*
X77714286Y-37964286D01*
X77714286Y-37392857D01*
X77785715Y-37250000D01*
X77928572Y-37178571D01*
X78214286Y-37178571D01*
X78357143Y-37250000D01*
X78428572Y-37392857D01*
X78428572Y-37535714D01*
X77714286Y-37678571D01*
X79071429Y-38178571D02*
X79071429Y-36678571D01*
X79428572Y-36678571D01*
X79642857Y-36750000D01*
X79785715Y-36892857D01*
X79857143Y-37035714D01*
X79928572Y-37321429D01*
X79928572Y-37535714D01*
X79857143Y-37821429D01*
X79785715Y-37964286D01*
X79642857Y-38107143D01*
X79428572Y-38178571D01*
X79071429Y-38178571D01*
X80571429Y-38178571D02*
X80571429Y-37178571D01*
X80571429Y-36678571D02*
X80500000Y-36750000D01*
X80571429Y-36821429D01*
X80642857Y-36750000D01*
X80571429Y-36678571D01*
X80571429Y-36821429D01*
X81285715Y-38178571D02*
X81285715Y-37178571D01*
X81285715Y-37464286D02*
X81357143Y-37321429D01*
X81428572Y-37250000D01*
X81571429Y-37178571D01*
X81714286Y-37178571D01*
X82785714Y-38107143D02*
X82642857Y-38178571D01*
X82357143Y-38178571D01*
X82214286Y-38107143D01*
X82142857Y-37964286D01*
X82142857Y-37392857D01*
X82214286Y-37250000D01*
X82357143Y-37178571D01*
X82642857Y-37178571D01*
X82785714Y-37250000D01*
X82857143Y-37392857D01*
X82857143Y-37535714D01*
X82142857Y-37678571D01*
X84142857Y-38107143D02*
X84000000Y-38178571D01*
X83714286Y-38178571D01*
X83571428Y-38107143D01*
X83500000Y-38035714D01*
X83428571Y-37892857D01*
X83428571Y-37464286D01*
X83500000Y-37321429D01*
X83571428Y-37250000D01*
X83714286Y-37178571D01*
X84000000Y-37178571D01*
X84142857Y-37250000D01*
X84571428Y-37178571D02*
X85142857Y-37178571D01*
X84785714Y-36678571D02*
X84785714Y-37964286D01*
X84857142Y-38107143D01*
X85000000Y-38178571D01*
X85142857Y-38178571D01*
X86785714Y-38178571D02*
X86785714Y-36678571D01*
X87500000Y-37178571D02*
X87500000Y-38178571D01*
X87500000Y-37321429D02*
X87571428Y-37250000D01*
X87714286Y-37178571D01*
X87928571Y-37178571D01*
X88071428Y-37250000D01*
X88142857Y-37392857D01*
X88142857Y-38178571D01*
X88642857Y-37178571D02*
X89214286Y-37178571D01*
X88857143Y-36678571D02*
X88857143Y-37964286D01*
X88928571Y-38107143D01*
X89071429Y-38178571D01*
X89214286Y-38178571D01*
X90285714Y-38107143D02*
X90142857Y-38178571D01*
X89857143Y-38178571D01*
X89714286Y-38107143D01*
X89642857Y-37964286D01*
X89642857Y-37392857D01*
X89714286Y-37250000D01*
X89857143Y-37178571D01*
X90142857Y-37178571D01*
X90285714Y-37250000D01*
X90357143Y-37392857D01*
X90357143Y-37535714D01*
X89642857Y-37678571D01*
X91000000Y-38178571D02*
X91000000Y-37178571D01*
X91000000Y-37464286D02*
X91071428Y-37321429D01*
X91142857Y-37250000D01*
X91285714Y-37178571D01*
X91428571Y-37178571D01*
X91714285Y-37178571D02*
X92285714Y-37178571D01*
X91928571Y-38178571D02*
X91928571Y-36892857D01*
X91999999Y-36750000D01*
X92142857Y-36678571D01*
X92285714Y-36678571D01*
X93428571Y-38178571D02*
X93428571Y-37392857D01*
X93357142Y-37250000D01*
X93214285Y-37178571D01*
X92928571Y-37178571D01*
X92785714Y-37250000D01*
X93428571Y-38107143D02*
X93285714Y-38178571D01*
X92928571Y-38178571D01*
X92785714Y-38107143D01*
X92714285Y-37964286D01*
X92714285Y-37821429D01*
X92785714Y-37678571D01*
X92928571Y-37607143D01*
X93285714Y-37607143D01*
X93428571Y-37535714D01*
X94785714Y-38107143D02*
X94642857Y-38178571D01*
X94357143Y-38178571D01*
X94214285Y-38107143D01*
X94142857Y-38035714D01*
X94071428Y-37892857D01*
X94071428Y-37464286D01*
X94142857Y-37321429D01*
X94214285Y-37250000D01*
X94357143Y-37178571D01*
X94642857Y-37178571D01*
X94785714Y-37250000D01*
X95999999Y-38107143D02*
X95857142Y-38178571D01*
X95571428Y-38178571D01*
X95428571Y-38107143D01*
X95357142Y-37964286D01*
X95357142Y-37392857D01*
X95428571Y-37250000D01*
X95571428Y-37178571D01*
X95857142Y-37178571D01*
X95999999Y-37250000D01*
X96071428Y-37392857D01*
X96071428Y-37535714D01*
X95357142Y-37678571D01*
D10*
X89708571Y-78351428D02*
X89708571Y-79208571D01*
X89708571Y-78779999D02*
X88208571Y-78779999D01*
X88422857Y-78922856D01*
X88565714Y-79065714D01*
X88637143Y-79208571D01*
X52582857Y-78305714D02*
X52582857Y-79115238D01*
X52535238Y-79210476D01*
X52487619Y-79258095D01*
X52392380Y-79305714D01*
X52249523Y-79305714D01*
X52154285Y-79258095D01*
X52582857Y-78924762D02*
X52487619Y-78972381D01*
X52297142Y-78972381D01*
X52201904Y-78924762D01*
X52154285Y-78877143D01*
X52106666Y-78781905D01*
X52106666Y-78496190D01*
X52154285Y-78400952D01*
X52201904Y-78353333D01*
X52297142Y-78305714D01*
X52487619Y-78305714D01*
X52582857Y-78353333D01*
X53059047Y-78305714D02*
X53059047Y-78972381D01*
X53059047Y-78400952D02*
X53106666Y-78353333D01*
X53201904Y-78305714D01*
X53344762Y-78305714D01*
X53440000Y-78353333D01*
X53487619Y-78448571D01*
X53487619Y-78972381D01*
X54392381Y-78972381D02*
X54392381Y-77972381D01*
X54392381Y-78924762D02*
X54297143Y-78972381D01*
X54106666Y-78972381D01*
X54011428Y-78924762D01*
X53963809Y-78877143D01*
X53916190Y-78781905D01*
X53916190Y-78496190D01*
X53963809Y-78400952D01*
X54011428Y-78353333D01*
X54106666Y-78305714D01*
X54297143Y-78305714D01*
X54392381Y-78353333D01*
X55487619Y-78305714D02*
X55868571Y-78305714D01*
X55630476Y-77972381D02*
X55630476Y-78829524D01*
X55678095Y-78924762D01*
X55773333Y-78972381D01*
X55868571Y-78972381D01*
X56106667Y-78972381D02*
X56630477Y-78305714D01*
X56106667Y-78305714D02*
X56630477Y-78972381D01*
X57773334Y-78972381D02*
X57773334Y-78305714D01*
X57773334Y-78496190D02*
X57820953Y-78400952D01*
X57868572Y-78353333D01*
X57963810Y-78305714D01*
X58059049Y-78305714D01*
X58297144Y-78972381D02*
X58820954Y-78305714D01*
X58297144Y-78305714D02*
X58820954Y-78972381D01*
X37192857Y-71228571D02*
X37335714Y-71228571D01*
X37478571Y-71300000D01*
X37550000Y-71371429D01*
X37621429Y-71514286D01*
X37692857Y-71800000D01*
X37692857Y-72157143D01*
X37621429Y-72442857D01*
X37550000Y-72585714D01*
X37478571Y-72657143D01*
X37335714Y-72728571D01*
X37192857Y-72728571D01*
X37050000Y-72657143D01*
X36978571Y-72585714D01*
X36907143Y-72442857D01*
X36835714Y-72157143D01*
X36835714Y-71800000D01*
X36907143Y-71514286D01*
X36978571Y-71371429D01*
X37050000Y-71300000D01*
X37192857Y-71228571D01*
X36764286Y-73428571D02*
X37692857Y-73428571D01*
X37192857Y-74000000D01*
X37407143Y-74000000D01*
X37550000Y-74071429D01*
X37621429Y-74142857D01*
X37692857Y-74285714D01*
X37692857Y-74642857D01*
X37621429Y-74785714D01*
X37550000Y-74857143D01*
X37407143Y-74928571D01*
X36978571Y-74928571D01*
X36835714Y-74857143D01*
X36764286Y-74785714D01*
X37621429Y-75628571D02*
X36907143Y-75628571D01*
X36835714Y-76342857D01*
X36907143Y-76271429D01*
X37050000Y-76200000D01*
X37407143Y-76200000D01*
X37550000Y-76271429D01*
X37621429Y-76342857D01*
X37692857Y-76485714D01*
X37692857Y-76842857D01*
X37621429Y-76985714D01*
X37550000Y-77057143D01*
X37407143Y-77128571D01*
X37050000Y-77128571D01*
X36907143Y-77057143D01*
X36835714Y-76985714D01*
D12*
X65040000Y-80730000D02*
X66040000Y-80730000D01*
X66040000Y-79030000D02*
X65040000Y-79030000D01*
X85270000Y-83520000D02*
X85270000Y-84520000D01*
X86970000Y-84520000D02*
X86970000Y-83520000D01*
X78980000Y-72410000D02*
X77980000Y-72410000D01*
X77980000Y-74110000D02*
X78980000Y-74110000D01*
X90380000Y-77660000D02*
X100600000Y-77660000D01*
X100600000Y-77660000D02*
X100600000Y-72460000D01*
X100600000Y-72460000D02*
X87780000Y-72460000D01*
X87780000Y-72460000D02*
X87780000Y-75060000D01*
X87780000Y-75060000D02*
X90380000Y-75060000D01*
X90380000Y-75060000D02*
X90380000Y-77660000D01*
X89110000Y-77660000D02*
X87780000Y-77660000D01*
X87780000Y-77660000D02*
X87780000Y-76330000D01*
X54360000Y-77660000D02*
X59500000Y-77660000D01*
X59500000Y-77660000D02*
X59500000Y-75000000D01*
X59500000Y-75000000D02*
X54360000Y-75000000D01*
X54360000Y-75000000D02*
X54360000Y-77660000D01*
X53090000Y-77660000D02*
X51760000Y-77660000D01*
X51760000Y-77660000D02*
X51760000Y-76330000D01*
D13*
X107500000Y-70000000D02*
X42500000Y-70000000D01*
X42500000Y-70000000D02*
X42500000Y-40000000D01*
X42500000Y-40000000D02*
X107500000Y-40000000D01*
X107500000Y-40000000D02*
X107500000Y-70000000D01*
X46500000Y-80000000D02*
X103500000Y-80000000D01*
D12*
X44220000Y-75190000D02*
X44220000Y-77790000D01*
X44220000Y-77790000D02*
X46880000Y-77790000D01*
X46880000Y-77790000D02*
X46880000Y-75190000D01*
X46880000Y-75190000D02*
X44220000Y-75190000D01*
X44220000Y-73920000D02*
X44220000Y-72590000D01*
X44220000Y-72590000D02*
X45550000Y-72590000D01*
X38280000Y-73070000D02*
X38280000Y-78210000D01*
X38280000Y-78210000D02*
X40940000Y-78210000D01*
X40940000Y-78210000D02*
X40940000Y-73070000D01*
X40940000Y-73070000D02*
X38280000Y-73070000D01*
X38280000Y-71800000D02*
X38280000Y-70470000D01*
X38280000Y-70470000D02*
X39610000Y-70470000D01*
D13*
X71320000Y-88090000D02*
X81320000Y-88090000D01*
X81320000Y-88090000D02*
X81320000Y-78090000D01*
X81320000Y-78090000D02*
X71320000Y-78090000D01*
X71320000Y-78090000D02*
X71320000Y-88090000D01*
X72070000Y-87590000D02*
G75*
G03X72070000Y-87590000I-250000J0D01*
G01*
X65373334Y-81987143D02*
X65325715Y-82034762D01*
X65182858Y-82082381D01*
X65087620Y-82082381D01*
X64944762Y-82034762D01*
X64849524Y-81939524D01*
X64801905Y-81844286D01*
X64754286Y-81653810D01*
X64754286Y-81510952D01*
X64801905Y-81320476D01*
X64849524Y-81225238D01*
X64944762Y-81130000D01*
X65087620Y-81082381D01*
X65182858Y-81082381D01*
X65325715Y-81130000D01*
X65373334Y-81177619D01*
X66325715Y-82082381D02*
X65754286Y-82082381D01*
X66040000Y-82082381D02*
X66040000Y-81082381D01*
X65944762Y-81225238D01*
X65849524Y-81320476D01*
X65754286Y-81368095D01*
X84727143Y-84186666D02*
X84774762Y-84234285D01*
X84822381Y-84377142D01*
X84822381Y-84472380D01*
X84774762Y-84615238D01*
X84679524Y-84710476D01*
X84584286Y-84758095D01*
X84393810Y-84805714D01*
X84250952Y-84805714D01*
X84060476Y-84758095D01*
X83965238Y-84710476D01*
X83870000Y-84615238D01*
X83822381Y-84472380D01*
X83822381Y-84377142D01*
X83870000Y-84234285D01*
X83917619Y-84186666D01*
X83917619Y-83805714D02*
X83870000Y-83758095D01*
X83822381Y-83662857D01*
X83822381Y-83424761D01*
X83870000Y-83329523D01*
X83917619Y-83281904D01*
X84012857Y-83234285D01*
X84108095Y-83234285D01*
X84250952Y-83281904D01*
X84822381Y-83853333D01*
X84822381Y-83234285D01*
X78313334Y-71867143D02*
X78265715Y-71914762D01*
X78122858Y-71962381D01*
X78027620Y-71962381D01*
X77884762Y-71914762D01*
X77789524Y-71819524D01*
X77741905Y-71724286D01*
X77694286Y-71533810D01*
X77694286Y-71390952D01*
X77741905Y-71200476D01*
X77789524Y-71105238D01*
X77884762Y-71010000D01*
X78027620Y-70962381D01*
X78122858Y-70962381D01*
X78265715Y-71010000D01*
X78313334Y-71057619D01*
X79218096Y-70962381D02*
X78741905Y-70962381D01*
X78694286Y-71438571D01*
X78741905Y-71390952D01*
X78837143Y-71343333D01*
X79075239Y-71343333D01*
X79170477Y-71390952D01*
X79218096Y-71438571D01*
X79265715Y-71533810D01*
X79265715Y-71771905D01*
X79218096Y-71867143D01*
X79170477Y-71914762D01*
X79075239Y-71962381D01*
X78837143Y-71962381D01*
X78741905Y-71914762D01*
X78694286Y-71867143D01*
X92477143Y-71162381D02*
X92477143Y-71876667D01*
X92429523Y-72019524D01*
X92334285Y-72114762D01*
X92191428Y-72162381D01*
X92096190Y-72162381D01*
X92810476Y-71162381D02*
X93381905Y-71162381D01*
X93096190Y-72162381D02*
X93096190Y-71162381D01*
X93667619Y-71876667D02*
X94143810Y-71876667D01*
X93572381Y-72162381D02*
X93905714Y-71162381D01*
X94239048Y-72162381D01*
X95096191Y-71210000D02*
X95000953Y-71162381D01*
X94858096Y-71162381D01*
X94715238Y-71210000D01*
X94620000Y-71305238D01*
X94572381Y-71400476D01*
X94524762Y-71590952D01*
X94524762Y-71733810D01*
X94572381Y-71924286D01*
X94620000Y-72019524D01*
X94715238Y-72114762D01*
X94858096Y-72162381D01*
X94953334Y-72162381D01*
X95096191Y-72114762D01*
X95143810Y-72067143D01*
X95143810Y-71733810D01*
X94953334Y-71733810D01*
X96096191Y-72162381D02*
X95524762Y-72162381D01*
X95810476Y-72162381D02*
X95810476Y-71162381D01*
X95715238Y-71305238D01*
X95620000Y-71400476D01*
X95524762Y-71448095D01*
X52854286Y-74604762D02*
X52997143Y-74652381D01*
X53235239Y-74652381D01*
X53330477Y-74604762D01*
X53378096Y-74557143D01*
X53425715Y-74461905D01*
X53425715Y-74366667D01*
X53378096Y-74271429D01*
X53330477Y-74223810D01*
X53235239Y-74176190D01*
X53044762Y-74128571D01*
X52949524Y-74080952D01*
X52901905Y-74033333D01*
X52854286Y-73938095D01*
X52854286Y-73842857D01*
X52901905Y-73747619D01*
X52949524Y-73700000D01*
X53044762Y-73652381D01*
X53282858Y-73652381D01*
X53425715Y-73700000D01*
X53854286Y-74128571D02*
X54187620Y-74128571D01*
X54330477Y-74652381D02*
X53854286Y-74652381D01*
X53854286Y-73652381D01*
X54330477Y-73652381D01*
X55330477Y-74652381D02*
X54997143Y-74176190D01*
X54759048Y-74652381D02*
X54759048Y-73652381D01*
X55140001Y-73652381D01*
X55235239Y-73700000D01*
X55282858Y-73747619D01*
X55330477Y-73842857D01*
X55330477Y-73985714D01*
X55282858Y-74080952D01*
X55235239Y-74128571D01*
X55140001Y-74176190D01*
X54759048Y-74176190D01*
X55759048Y-74652381D02*
X55759048Y-73652381D01*
X56187619Y-74366667D02*
X56663810Y-74366667D01*
X56092381Y-74652381D02*
X56425714Y-73652381D01*
X56759048Y-74652381D01*
X57568572Y-74652381D02*
X57092381Y-74652381D01*
X57092381Y-73652381D01*
X58425715Y-74652381D02*
X57854286Y-74652381D01*
X58140000Y-74652381D02*
X58140000Y-73652381D01*
X58044762Y-73795238D01*
X57949524Y-73890476D01*
X57854286Y-73938095D01*
X74023810Y-55452381D02*
X74023810Y-54452381D01*
X74404763Y-54452381D01*
X74500001Y-54500000D01*
X74547620Y-54547619D01*
X74595239Y-54642857D01*
X74595239Y-54785714D01*
X74547620Y-54880952D01*
X74500001Y-54928571D01*
X74404763Y-54976190D01*
X74023810Y-54976190D01*
X75023810Y-55452381D02*
X75023810Y-54452381D01*
X76023810Y-55452381D02*
X75452381Y-55452381D01*
X75738095Y-55452381D02*
X75738095Y-54452381D01*
X75642857Y-54595238D01*
X75547619Y-54690476D01*
X75452381Y-54738095D01*
X68952380Y-60452381D02*
X68619046Y-59976190D01*
X68380951Y-60452381D02*
X68380951Y-59452381D01*
X68761904Y-59452381D01*
X68857142Y-59500000D01*
X68904761Y-59547619D01*
X68952380Y-59642857D01*
X68952380Y-59785714D01*
X68904761Y-59880952D01*
X68857142Y-59928571D01*
X68761904Y-59976190D01*
X68380951Y-59976190D01*
X69809523Y-60452381D02*
X69809523Y-59928571D01*
X69761904Y-59833333D01*
X69666666Y-59785714D01*
X69476189Y-59785714D01*
X69380951Y-59833333D01*
X69809523Y-60404762D02*
X69714285Y-60452381D01*
X69476189Y-60452381D01*
X69380951Y-60404762D01*
X69333332Y-60309524D01*
X69333332Y-60214286D01*
X69380951Y-60119048D01*
X69476189Y-60071429D01*
X69714285Y-60071429D01*
X69809523Y-60023810D01*
X70238094Y-60404762D02*
X70333332Y-60452381D01*
X70523808Y-60452381D01*
X70619047Y-60404762D01*
X70666666Y-60309524D01*
X70666666Y-60261905D01*
X70619047Y-60166667D01*
X70523808Y-60119048D01*
X70380951Y-60119048D01*
X70285713Y-60071429D01*
X70238094Y-59976190D01*
X70238094Y-59928571D01*
X70285713Y-59833333D01*
X70380951Y-59785714D01*
X70523808Y-59785714D01*
X70619047Y-59833333D01*
X71095237Y-59785714D02*
X71095237Y-60785714D01*
X71095237Y-59833333D02*
X71190475Y-59785714D01*
X71380952Y-59785714D01*
X71476190Y-59833333D01*
X71523809Y-59880952D01*
X71571428Y-59976190D01*
X71571428Y-60261905D01*
X71523809Y-60357143D01*
X71476190Y-60404762D01*
X71380952Y-60452381D01*
X71190475Y-60452381D01*
X71095237Y-60404762D01*
X71999999Y-60452381D02*
X71999999Y-59452381D01*
X71999999Y-59833333D02*
X72095237Y-59785714D01*
X72285714Y-59785714D01*
X72380952Y-59833333D01*
X72428571Y-59880952D01*
X72476190Y-59976190D01*
X72476190Y-60261905D01*
X72428571Y-60357143D01*
X72380952Y-60404762D01*
X72285714Y-60452381D01*
X72095237Y-60452381D01*
X71999999Y-60404762D01*
X73285714Y-60404762D02*
X73190476Y-60452381D01*
X72999999Y-60452381D01*
X72904761Y-60404762D01*
X72857142Y-60309524D01*
X72857142Y-59928571D01*
X72904761Y-59833333D01*
X72999999Y-59785714D01*
X73190476Y-59785714D01*
X73285714Y-59833333D01*
X73333333Y-59928571D01*
X73333333Y-60023810D01*
X72857142Y-60119048D01*
X73761904Y-60452381D02*
X73761904Y-59785714D01*
X73761904Y-59976190D02*
X73809523Y-59880952D01*
X73857142Y-59833333D01*
X73952380Y-59785714D01*
X74047619Y-59785714D01*
X74380952Y-60452381D02*
X74380952Y-59785714D01*
X74380952Y-59976190D02*
X74428571Y-59880952D01*
X74476190Y-59833333D01*
X74571428Y-59785714D01*
X74666667Y-59785714D01*
X74904762Y-59785714D02*
X75142857Y-60452381D01*
X75380953Y-59785714D02*
X75142857Y-60452381D01*
X75047619Y-60690476D01*
X75000000Y-60738095D01*
X74904762Y-60785714D01*
X76523810Y-60452381D02*
X76523810Y-59452381D01*
X76904763Y-59452381D01*
X77000001Y-59500000D01*
X77047620Y-59547619D01*
X77095239Y-59642857D01*
X77095239Y-59785714D01*
X77047620Y-59880952D01*
X77000001Y-59928571D01*
X76904763Y-59976190D01*
X76523810Y-59976190D01*
X77523810Y-60452381D02*
X77523810Y-59785714D01*
X77523810Y-59452381D02*
X77476191Y-59500000D01*
X77523810Y-59547619D01*
X77571429Y-59500000D01*
X77523810Y-59452381D01*
X77523810Y-59547619D01*
X78666667Y-59452381D02*
X79333334Y-59452381D01*
X78666667Y-60452381D01*
X79333334Y-60452381D01*
X80095239Y-60404762D02*
X80000001Y-60452381D01*
X79809524Y-60452381D01*
X79714286Y-60404762D01*
X79666667Y-60309524D01*
X79666667Y-59928571D01*
X79714286Y-59833333D01*
X79809524Y-59785714D01*
X80000001Y-59785714D01*
X80095239Y-59833333D01*
X80142858Y-59928571D01*
X80142858Y-60023810D01*
X79666667Y-60119048D01*
X80571429Y-60452381D02*
X80571429Y-59785714D01*
X80571429Y-59976190D02*
X80619048Y-59880952D01*
X80666667Y-59833333D01*
X80761905Y-59785714D01*
X80857144Y-59785714D01*
X81333334Y-60452381D02*
X81238096Y-60404762D01*
X81190477Y-60357143D01*
X81142858Y-60261905D01*
X81142858Y-59976190D01*
X81190477Y-59880952D01*
X81238096Y-59833333D01*
X81333334Y-59785714D01*
X81476192Y-59785714D01*
X81571430Y-59833333D01*
X81619049Y-59880952D01*
X81666668Y-59976190D01*
X81666668Y-60261905D01*
X81619049Y-60357143D01*
X81571430Y-60404762D01*
X81476192Y-60452381D01*
X81333334Y-60452381D01*
X52523810Y-93357143D02*
X52476191Y-93404762D01*
X52333334Y-93452381D01*
X52238096Y-93452381D01*
X52095238Y-93404762D01*
X52000000Y-93309524D01*
X51952381Y-93214286D01*
X51904762Y-93023810D01*
X51904762Y-92880952D01*
X51952381Y-92690476D01*
X52000000Y-92595238D01*
X52095238Y-92500000D01*
X52238096Y-92452381D01*
X52333334Y-92452381D01*
X52476191Y-92500000D01*
X52523810Y-92547619D01*
X52904762Y-93166667D02*
X53380953Y-93166667D01*
X52809524Y-93452381D02*
X53142857Y-92452381D01*
X53476191Y-93452381D01*
X54380953Y-93452381D02*
X54047619Y-92976190D01*
X53809524Y-93452381D02*
X53809524Y-92452381D01*
X54190477Y-92452381D01*
X54285715Y-92500000D01*
X54333334Y-92547619D01*
X54380953Y-92642857D01*
X54380953Y-92785714D01*
X54333334Y-92880952D01*
X54285715Y-92928571D01*
X54190477Y-92976190D01*
X53809524Y-92976190D01*
X54666667Y-92452381D02*
X55238096Y-92452381D01*
X54952381Y-93452381D02*
X54952381Y-92452381D01*
X56095239Y-93452381D02*
X55523810Y-93452381D01*
X55809524Y-93452381D02*
X55809524Y-92452381D01*
X55714286Y-92595238D01*
X55619048Y-92690476D01*
X55523810Y-92738095D01*
X76785714Y-93404762D02*
X76690476Y-93452381D01*
X76499999Y-93452381D01*
X76404761Y-93404762D01*
X76357142Y-93309524D01*
X76357142Y-92928571D01*
X76404761Y-92833333D01*
X76499999Y-92785714D01*
X76690476Y-92785714D01*
X76785714Y-92833333D01*
X76833333Y-92928571D01*
X76833333Y-93023810D01*
X76357142Y-93119048D01*
X77690476Y-93452381D02*
X77690476Y-92452381D01*
X77690476Y-93404762D02*
X77595238Y-93452381D01*
X77404761Y-93452381D01*
X77309523Y-93404762D01*
X77261904Y-93357143D01*
X77214285Y-93261905D01*
X77214285Y-92976190D01*
X77261904Y-92880952D01*
X77309523Y-92833333D01*
X77404761Y-92785714D01*
X77595238Y-92785714D01*
X77690476Y-92833333D01*
X78595238Y-92785714D02*
X78595238Y-93595238D01*
X78547619Y-93690476D01*
X78500000Y-93738095D01*
X78404761Y-93785714D01*
X78261904Y-93785714D01*
X78166666Y-93738095D01*
X78595238Y-93404762D02*
X78500000Y-93452381D01*
X78309523Y-93452381D01*
X78214285Y-93404762D01*
X78166666Y-93357143D01*
X78119047Y-93261905D01*
X78119047Y-92976190D01*
X78166666Y-92880952D01*
X78214285Y-92833333D01*
X78309523Y-92785714D01*
X78500000Y-92785714D01*
X78595238Y-92833333D01*
X79452381Y-93404762D02*
X79357143Y-93452381D01*
X79166666Y-93452381D01*
X79071428Y-93404762D01*
X79023809Y-93309524D01*
X79023809Y-92928571D01*
X79071428Y-92833333D01*
X79166666Y-92785714D01*
X79357143Y-92785714D01*
X79452381Y-92833333D01*
X79500000Y-92928571D01*
X79500000Y-93023810D01*
X79023809Y-93119048D01*
X81119048Y-93404762D02*
X81023810Y-93452381D01*
X80833333Y-93452381D01*
X80738095Y-93404762D01*
X80690476Y-93357143D01*
X80642857Y-93261905D01*
X80642857Y-92976190D01*
X80690476Y-92880952D01*
X80738095Y-92833333D01*
X80833333Y-92785714D01*
X81023810Y-92785714D01*
X81119048Y-92833333D01*
X81690476Y-93452381D02*
X81595238Y-93404762D01*
X81547619Y-93357143D01*
X81500000Y-93261905D01*
X81500000Y-92976190D01*
X81547619Y-92880952D01*
X81595238Y-92833333D01*
X81690476Y-92785714D01*
X81833334Y-92785714D01*
X81928572Y-92833333D01*
X81976191Y-92880952D01*
X82023810Y-92976190D01*
X82023810Y-93261905D01*
X81976191Y-93357143D01*
X81928572Y-93404762D01*
X81833334Y-93452381D01*
X81690476Y-93452381D01*
X82452381Y-92785714D02*
X82452381Y-93452381D01*
X82452381Y-92880952D02*
X82500000Y-92833333D01*
X82595238Y-92785714D01*
X82738096Y-92785714D01*
X82833334Y-92833333D01*
X82880953Y-92928571D01*
X82880953Y-93452381D01*
X83357143Y-92785714D02*
X83357143Y-93452381D01*
X83357143Y-92880952D02*
X83404762Y-92833333D01*
X83500000Y-92785714D01*
X83642858Y-92785714D01*
X83738096Y-92833333D01*
X83785715Y-92928571D01*
X83785715Y-93452381D01*
X84642858Y-93404762D02*
X84547620Y-93452381D01*
X84357143Y-93452381D01*
X84261905Y-93404762D01*
X84214286Y-93309524D01*
X84214286Y-92928571D01*
X84261905Y-92833333D01*
X84357143Y-92785714D01*
X84547620Y-92785714D01*
X84642858Y-92833333D01*
X84690477Y-92928571D01*
X84690477Y-93023810D01*
X84214286Y-93119048D01*
X85547620Y-93404762D02*
X85452382Y-93452381D01*
X85261905Y-93452381D01*
X85166667Y-93404762D01*
X85119048Y-93357143D01*
X85071429Y-93261905D01*
X85071429Y-92976190D01*
X85119048Y-92880952D01*
X85166667Y-92833333D01*
X85261905Y-92785714D01*
X85452382Y-92785714D01*
X85547620Y-92833333D01*
X85833334Y-92785714D02*
X86214286Y-92785714D01*
X85976191Y-92452381D02*
X85976191Y-93309524D01*
X86023810Y-93404762D01*
X86119048Y-93452381D01*
X86214286Y-93452381D01*
X86690477Y-93452381D02*
X86595239Y-93404762D01*
X86547620Y-93357143D01*
X86500001Y-93261905D01*
X86500001Y-92976190D01*
X86547620Y-92880952D01*
X86595239Y-92833333D01*
X86690477Y-92785714D01*
X86833335Y-92785714D01*
X86928573Y-92833333D01*
X86976192Y-92880952D01*
X87023811Y-92976190D01*
X87023811Y-93261905D01*
X86976192Y-93357143D01*
X86928573Y-93404762D01*
X86833335Y-93452381D01*
X86690477Y-93452381D01*
X87452382Y-93452381D02*
X87452382Y-92785714D01*
X87452382Y-92976190D02*
X87500001Y-92880952D01*
X87547620Y-92833333D01*
X87642858Y-92785714D01*
X87738097Y-92785714D01*
X58738095Y-93452381D02*
X58738095Y-92785714D01*
X58738095Y-92976190D02*
X58785714Y-92880952D01*
X58833333Y-92833333D01*
X58928571Y-92785714D01*
X59023810Y-92785714D01*
X59738096Y-93404762D02*
X59642858Y-93452381D01*
X59452381Y-93452381D01*
X59357143Y-93404762D01*
X59309524Y-93309524D01*
X59309524Y-92928571D01*
X59357143Y-92833333D01*
X59452381Y-92785714D01*
X59642858Y-92785714D01*
X59738096Y-92833333D01*
X59785715Y-92928571D01*
X59785715Y-93023810D01*
X59309524Y-93119048D01*
X60642858Y-93452381D02*
X60642858Y-92928571D01*
X60595239Y-92833333D01*
X60500001Y-92785714D01*
X60309524Y-92785714D01*
X60214286Y-92833333D01*
X60642858Y-93404762D02*
X60547620Y-93452381D01*
X60309524Y-93452381D01*
X60214286Y-93404762D01*
X60166667Y-93309524D01*
X60166667Y-93214286D01*
X60214286Y-93119048D01*
X60309524Y-93071429D01*
X60547620Y-93071429D01*
X60642858Y-93023810D01*
X61119048Y-93452381D02*
X61119048Y-92785714D01*
X61119048Y-92976190D02*
X61166667Y-92880952D01*
X61214286Y-92833333D01*
X61309524Y-92785714D01*
X61404763Y-92785714D01*
X48139524Y-92452381D02*
X47663333Y-92452381D01*
X47615714Y-92928571D01*
X47663333Y-92880952D01*
X47758571Y-92833333D01*
X47996667Y-92833333D01*
X48091905Y-92880952D01*
X48139524Y-92928571D01*
X48187143Y-93023810D01*
X48187143Y-93261905D01*
X48139524Y-93357143D01*
X48091905Y-93404762D01*
X47996667Y-93452381D01*
X47758571Y-93452381D01*
X47663333Y-93404762D01*
X47615714Y-93357143D01*
X48472857Y-92452381D02*
X48806190Y-93452381D01*
X49139524Y-92452381D01*
X101193809Y-92452381D02*
X101289048Y-92452381D01*
X101384286Y-92500000D01*
X101431905Y-92547619D01*
X101479524Y-92642857D01*
X101527143Y-92833333D01*
X101527143Y-93071429D01*
X101479524Y-93261905D01*
X101431905Y-93357143D01*
X101384286Y-93404762D01*
X101289048Y-93452381D01*
X101193809Y-93452381D01*
X101098571Y-93404762D01*
X101050952Y-93357143D01*
X101003333Y-93261905D01*
X100955714Y-93071429D01*
X100955714Y-92833333D01*
X101003333Y-92642857D01*
X101050952Y-92547619D01*
X101098571Y-92500000D01*
X101193809Y-92452381D01*
X101812857Y-92452381D02*
X102146190Y-93452381D01*
X102479524Y-92452381D01*
X48642381Y-77755714D02*
X47642381Y-77755714D01*
X47642381Y-77374761D01*
X47690000Y-77279523D01*
X47737619Y-77231904D01*
X47832857Y-77184285D01*
X47975714Y-77184285D01*
X48070952Y-77231904D01*
X48118571Y-77279523D01*
X48166190Y-77374761D01*
X48166190Y-77755714D01*
X47642381Y-76565238D02*
X47642381Y-76374761D01*
X47690000Y-76279523D01*
X47785238Y-76184285D01*
X47975714Y-76136666D01*
X48309048Y-76136666D01*
X48499524Y-76184285D01*
X48594762Y-76279523D01*
X48642381Y-76374761D01*
X48642381Y-76565238D01*
X48594762Y-76660476D01*
X48499524Y-76755714D01*
X48309048Y-76803333D01*
X47975714Y-76803333D01*
X47785238Y-76755714D01*
X47690000Y-76660476D01*
X47642381Y-76565238D01*
X47642381Y-75803333D02*
X48642381Y-75565238D01*
X47928095Y-75374761D01*
X48642381Y-75184285D01*
X47642381Y-74946190D01*
X48118571Y-74565238D02*
X48118571Y-74231904D01*
X48642381Y-74089047D02*
X48642381Y-74565238D01*
X47642381Y-74565238D01*
X47642381Y-74089047D01*
X48642381Y-73089047D02*
X48166190Y-73422381D01*
X48642381Y-73660476D02*
X47642381Y-73660476D01*
X47642381Y-73279523D01*
X47690000Y-73184285D01*
X47737619Y-73136666D01*
X47832857Y-73089047D01*
X47975714Y-73089047D01*
X48070952Y-73136666D01*
X48118571Y-73184285D01*
X48166190Y-73279523D01*
X48166190Y-73660476D01*
X48642381Y-72136666D02*
X48642381Y-72708095D01*
X48642381Y-72422381D02*
X47642381Y-72422381D01*
X47785238Y-72517619D01*
X47880476Y-72612857D01*
X47928095Y-72708095D01*
X41798571Y-77032857D02*
X41798571Y-76699523D01*
X42322381Y-76556666D02*
X42322381Y-77032857D01*
X41322381Y-77032857D01*
X41322381Y-76556666D01*
X41322381Y-76223333D02*
X42322381Y-75556666D01*
X41322381Y-75556666D02*
X42322381Y-76223333D01*
X41322381Y-75318571D02*
X41322381Y-74747142D01*
X42322381Y-75032857D02*
X41322381Y-75032857D01*
X42322381Y-74413809D02*
X41322381Y-74413809D01*
X41322381Y-74032856D01*
X41370000Y-73937618D01*
X41417619Y-73889999D01*
X41512857Y-73842380D01*
X41655714Y-73842380D01*
X41750952Y-73889999D01*
X41798571Y-73937618D01*
X41846190Y-74032856D01*
X41846190Y-74413809D01*
X41322381Y-73509047D02*
X42322381Y-73270952D01*
X41608095Y-73080475D01*
X42322381Y-72889999D01*
X41322381Y-72651904D01*
X42322381Y-71699523D02*
X41846190Y-72032857D01*
X42322381Y-72270952D02*
X41322381Y-72270952D01*
X41322381Y-71889999D01*
X41370000Y-71794761D01*
X41417619Y-71747142D01*
X41512857Y-71699523D01*
X41655714Y-71699523D01*
X41750952Y-71747142D01*
X41798571Y-71794761D01*
X41846190Y-71889999D01*
X41846190Y-72270952D01*
X75772381Y-84232857D02*
X74772381Y-84232857D01*
X74772381Y-83851904D01*
X74820000Y-83756666D01*
X74867619Y-83709047D01*
X74962857Y-83661428D01*
X75105714Y-83661428D01*
X75200952Y-83709047D01*
X75248571Y-83756666D01*
X75296190Y-83851904D01*
X75296190Y-84232857D01*
X75772381Y-82756666D02*
X75772381Y-83232857D01*
X74772381Y-83232857D01*
X75772381Y-81899523D02*
X75772381Y-82470952D01*
X75772381Y-82185238D02*
X74772381Y-82185238D01*
X74915238Y-82280476D01*
X75010476Y-82375714D01*
X75058095Y-82470952D01*
X76772381Y-86709048D02*
X77772381Y-86042381D01*
X76772381Y-86042381D02*
X77772381Y-86709048D01*
X77677143Y-85090000D02*
X77724762Y-85137619D01*
X77772381Y-85280476D01*
X77772381Y-85375714D01*
X77724762Y-85518572D01*
X77629524Y-85613810D01*
X77534286Y-85661429D01*
X77343810Y-85709048D01*
X77200952Y-85709048D01*
X77010476Y-85661429D01*
X76915238Y-85613810D01*
X76820000Y-85518572D01*
X76772381Y-85375714D01*
X76772381Y-85280476D01*
X76820000Y-85137619D01*
X76867619Y-85090000D01*
X77772381Y-84613810D02*
X77772381Y-84423334D01*
X77724762Y-84328095D01*
X77677143Y-84280476D01*
X77534286Y-84185238D01*
X77343810Y-84137619D01*
X76962857Y-84137619D01*
X76867619Y-84185238D01*
X76820000Y-84232857D01*
X76772381Y-84328095D01*
X76772381Y-84518572D01*
X76820000Y-84613810D01*
X76867619Y-84661429D01*
X76962857Y-84709048D01*
X77200952Y-84709048D01*
X77296190Y-84661429D01*
X77343810Y-84613810D01*
X77391429Y-84518572D01*
X77391429Y-84328095D01*
X77343810Y-84232857D01*
X77296190Y-84185238D01*
X77200952Y-84137619D01*
X76772381Y-83232857D02*
X76772381Y-83709048D01*
X77248571Y-83756667D01*
X77200952Y-83709048D01*
X77153333Y-83613810D01*
X77153333Y-83375714D01*
X77200952Y-83280476D01*
X77248571Y-83232857D01*
X77343810Y-83185238D01*
X77581905Y-83185238D01*
X77677143Y-83232857D01*
X77724762Y-83280476D01*
X77772381Y-83375714D01*
X77772381Y-83613810D01*
X77724762Y-83709048D01*
X77677143Y-83756667D01*
X76772381Y-82851905D02*
X76772381Y-82185238D01*
X77772381Y-82613810D01*
X76867619Y-81851905D02*
X76820000Y-81804286D01*
X76772381Y-81709048D01*
X76772381Y-81470952D01*
X76820000Y-81375714D01*
X76867619Y-81328095D01*
X76962857Y-81280476D01*
X77058095Y-81280476D01*
X77200952Y-81328095D01*
X77772381Y-81899524D01*
X77772381Y-81280476D01*
X76772381Y-80947143D02*
X77772381Y-80280476D01*
X76772381Y-80280476D02*
X77772381Y-80947143D01*
X77772381Y-79423333D02*
X77772381Y-79899524D01*
X76772381Y-79899524D01*
M02*
