G04 #@! TF.FileFunction,Paste,Top*
%FSLAX46Y46*%
G04 Gerber Fmt 4.6, Leading zero omitted, Abs format (unit mm)*
G04 Created by KiCad (PCBNEW 4.0.1-stable) date Thursday, May 18, 2017 'PMt' 08:22:24 PM*
%MOMM*%
G01*
G04 APERTURE LIST*
%ADD10C,0.100000*%
%ADD11R,1.500000X1.250000*%
%ADD12R,1.250000X1.500000*%
%ADD13R,0.500000X2.000000*%
%ADD14R,2.000000X0.500000*%
G04 APERTURE END LIST*
D10*
D11*
X66790000Y-79880000D03*
X64290000Y-79880000D03*
D12*
X86120000Y-85270000D03*
X86120000Y-82770000D03*
D11*
X77230000Y-73260000D03*
X79730000Y-73260000D03*
D13*
X72320000Y-89090000D03*
X73120000Y-89090000D03*
X73920000Y-89090000D03*
X74720000Y-89090000D03*
X75520000Y-89090000D03*
X76320000Y-89090000D03*
X77120000Y-89090000D03*
X77920000Y-89090000D03*
X78720000Y-89090000D03*
X79520000Y-89090000D03*
X80320000Y-89090000D03*
D14*
X82320000Y-87090000D03*
X82320000Y-86290000D03*
X82320000Y-85490000D03*
X82320000Y-84690000D03*
X82320000Y-83890000D03*
X82320000Y-83090000D03*
X82320000Y-82290000D03*
X82320000Y-81490000D03*
X82320000Y-80690000D03*
X82320000Y-79890000D03*
X82320000Y-79090000D03*
D13*
X80320000Y-77090000D03*
X79520000Y-77090000D03*
X78720000Y-77090000D03*
X77920000Y-77090000D03*
X77120000Y-77090000D03*
X76320000Y-77090000D03*
X75520000Y-77090000D03*
X74720000Y-77090000D03*
X73920000Y-77090000D03*
X73120000Y-77090000D03*
X72320000Y-77090000D03*
D14*
X70320000Y-79090000D03*
X70320000Y-79890000D03*
X70320000Y-80690000D03*
X70320000Y-81490000D03*
X70320000Y-82290000D03*
X70320000Y-83090000D03*
X70320000Y-83890000D03*
X70320000Y-84690000D03*
X70320000Y-85490000D03*
X70320000Y-86290000D03*
X70320000Y-87090000D03*
M02*
