G04 #@! TF.FileFunction,Copper,L2,Bot,Signal*
%FSLAX46Y46*%
G04 Gerber Fmt 4.6, Leading zero omitted, Abs format (unit mm)*
G04 Created by KiCad (PCBNEW 4.0.1-stable) date Thursday, May 18, 2017 'PMt' 08:22:24 PM*
%MOMM*%
G01*
G04 APERTURE LIST*
%ADD10C,0.100000*%
%ADD11R,1.700000X1.700000*%
%ADD12O,1.700000X1.700000*%
%ADD13R,1.778000X1.778000*%
%ADD14C,1.778000*%
%ADD15R,1.270000X11.000000*%
%ADD16C,1.016000*%
%ADD17C,0.812800*%
%ADD18C,1.270000*%
%ADD19C,0.177800*%
%ADD20C,0.254000*%
G04 APERTURE END LIST*
D10*
D11*
X89110000Y-76330000D03*
D12*
X89110000Y-73790000D03*
X91650000Y-76330000D03*
X91650000Y-73790000D03*
X94190000Y-76330000D03*
X94190000Y-73790000D03*
X96730000Y-76330000D03*
X96730000Y-73790000D03*
X99270000Y-76330000D03*
X99270000Y-73790000D03*
D11*
X53090000Y-76330000D03*
D12*
X55630000Y-76330000D03*
X58170000Y-76330000D03*
D13*
X50870000Y-65230000D03*
D14*
X50870000Y-67770000D03*
X53410000Y-65230000D03*
X53410000Y-67770000D03*
X55950000Y-65230000D03*
X55950000Y-67770000D03*
X58490000Y-65230000D03*
X58490000Y-67770000D03*
X61030000Y-65230000D03*
X61030000Y-67770000D03*
X63570000Y-65230000D03*
X63570000Y-67770000D03*
X66110000Y-65230000D03*
X66110000Y-67770000D03*
X68650000Y-65230000D03*
X68650000Y-67770000D03*
X71190000Y-65230000D03*
X71190000Y-67770000D03*
X73730000Y-65230000D03*
X73730000Y-67770000D03*
X76270000Y-65230000D03*
X76270000Y-67770000D03*
X78810000Y-65230000D03*
X78810000Y-67770000D03*
X81350000Y-65230000D03*
X81350000Y-67770000D03*
X83890000Y-65230000D03*
X83890000Y-67770000D03*
X86430000Y-65230000D03*
X86430000Y-67770000D03*
X88970000Y-65230000D03*
X88970000Y-67770000D03*
X91510000Y-65230000D03*
X91510000Y-67770000D03*
X94050000Y-65230000D03*
X94050000Y-67770000D03*
X96590000Y-65230000D03*
X96590000Y-67770000D03*
X99130000Y-65230000D03*
X99130000Y-67770000D03*
D15*
X48330000Y-100000000D03*
X50870000Y-100000000D03*
X53410000Y-100000000D03*
X55950000Y-100000000D03*
X58490000Y-100000000D03*
X61030000Y-100000000D03*
X63570000Y-100000000D03*
X66110000Y-100000000D03*
X68650000Y-100000000D03*
X71190000Y-100000000D03*
X73730000Y-100000000D03*
X76270000Y-100000000D03*
X78810000Y-100000000D03*
X81350000Y-100000000D03*
X83890000Y-100000000D03*
X86430000Y-100000000D03*
X88970000Y-100000000D03*
X91510000Y-100000000D03*
X94050000Y-100000000D03*
X96590000Y-100000000D03*
X99130000Y-100000000D03*
X101670000Y-100000000D03*
D11*
X45550000Y-73920000D03*
D12*
X45550000Y-76460000D03*
D11*
X39610000Y-71800000D03*
D12*
X39610000Y-74340000D03*
X39610000Y-76880000D03*
D16*
X61240000Y-81720000D03*
X66760000Y-78240000D03*
X74722062Y-91043791D03*
X87830000Y-82790000D03*
X79830000Y-74880000D03*
X63130000Y-78860000D03*
X103630000Y-93140000D03*
X79540000Y-84930000D03*
X79580000Y-79150000D03*
X77440000Y-86360000D03*
X78700000Y-87140000D03*
D17*
X72260000Y-91500000D03*
X73830001Y-92400000D03*
X75590000Y-92640000D03*
X76310000Y-90950000D03*
X80060000Y-92340000D03*
X82520000Y-89380000D03*
X84550000Y-88680000D03*
X86600000Y-88670000D03*
X94080000Y-83880000D03*
X96670000Y-81520000D03*
X99320000Y-80649998D03*
X72500000Y-70790000D03*
X75540000Y-71580000D03*
D16*
X53460000Y-91580000D03*
D17*
X66960000Y-85650000D03*
X68550002Y-86340000D03*
X70280000Y-88400000D03*
D16*
X45460000Y-90360000D03*
D18*
X66760000Y-78240000D02*
X63280000Y-81720000D01*
X63280000Y-81720000D02*
X61240000Y-81720000D01*
D19*
X61030000Y-65230000D02*
X59740000Y-66520000D01*
X59740000Y-66520000D02*
X59740000Y-69050000D01*
X59740000Y-69050000D02*
X58790000Y-70000000D01*
X58790000Y-70000000D02*
X58790000Y-70020000D01*
X61030000Y-65230000D02*
X59780000Y-66480000D01*
X57200000Y-67349562D02*
X57200000Y-68630000D01*
X59780000Y-66480000D02*
X58069562Y-66480000D01*
X58069562Y-66480000D02*
X57200000Y-67349562D01*
X57200000Y-68630000D02*
X56130000Y-69700000D01*
X56130000Y-69700000D02*
X56130000Y-69840000D01*
X61030000Y-65230000D02*
X62270000Y-66470000D01*
X62270000Y-66470000D02*
X64810000Y-66470000D01*
X64810000Y-66470000D02*
X65221001Y-66881001D01*
X65221001Y-66881001D02*
X66110000Y-67770000D01*
X81350000Y-65230000D02*
X80070000Y-66510000D01*
X80070000Y-66510000D02*
X74990000Y-66510000D01*
X74990000Y-66510000D02*
X74618999Y-66881001D01*
X74618999Y-66881001D02*
X73730000Y-67770000D01*
X102640000Y-94130000D02*
X102640000Y-94165000D01*
X102640000Y-94165000D02*
X101670000Y-95135000D01*
X101670000Y-95135000D02*
X101670000Y-100000000D01*
X103630000Y-93140000D02*
X102640000Y-94130000D01*
X89110000Y-76330000D02*
X89100000Y-76330000D01*
X89100000Y-76330000D02*
X80530000Y-84900000D01*
X80530000Y-84900000D02*
X79570000Y-84900000D01*
X79570000Y-84900000D02*
X79540000Y-84930000D01*
X80087999Y-78642001D02*
X79580000Y-79150000D01*
X83660000Y-75070000D02*
X80087999Y-78642001D01*
X90390000Y-75070000D02*
X83660000Y-75070000D01*
X91650000Y-76330000D02*
X90390000Y-75070000D01*
X77440000Y-86360000D02*
X81410000Y-86360000D01*
X81410000Y-86360000D02*
X89605611Y-78164389D01*
X89605611Y-78164389D02*
X92355611Y-78164389D01*
X92355611Y-78164389D02*
X93340001Y-77179999D01*
X93340001Y-77179999D02*
X94190000Y-76330000D01*
X78700000Y-87140000D02*
X81160000Y-87140000D01*
X81160000Y-87140000D02*
X89780000Y-78520000D01*
X89780000Y-78520000D02*
X97080000Y-78520000D01*
X97080000Y-78520000D02*
X99270000Y-76330000D01*
X68650000Y-100000000D02*
X68650000Y-95135000D01*
X68650000Y-95135000D02*
X72260000Y-91525000D01*
X72260000Y-91525000D02*
X72260000Y-91500000D01*
X73730000Y-100000000D02*
X73730000Y-92500001D01*
X73730000Y-92500001D02*
X73830001Y-92400000D01*
X75996399Y-93046399D02*
X75590000Y-92640000D01*
X76270000Y-93320000D02*
X75996399Y-93046399D01*
X76270000Y-100000000D02*
X76270000Y-93320000D01*
X76716399Y-91356399D02*
X76310000Y-90950000D01*
X78810000Y-93450000D02*
X76716399Y-91356399D01*
X78810000Y-100000000D02*
X78810000Y-93450000D01*
X81350000Y-93630000D02*
X80466399Y-92746399D01*
X81350000Y-100000000D02*
X81350000Y-93630000D01*
X80466399Y-92746399D02*
X80060000Y-92340000D01*
X82520000Y-89420000D02*
X82520000Y-89380000D01*
X86430000Y-93330000D02*
X82520000Y-89420000D01*
X86430000Y-100000000D02*
X86430000Y-93330000D01*
X84956399Y-89086399D02*
X84550000Y-88680000D01*
X88970000Y-93100000D02*
X84956399Y-89086399D01*
X88970000Y-100000000D02*
X88970000Y-93100000D01*
X87006399Y-89076399D02*
X86600000Y-88670000D01*
X91510000Y-93580000D02*
X87006399Y-89076399D01*
X91510000Y-100000000D02*
X91510000Y-93580000D01*
X94050000Y-83910000D02*
X94080000Y-83880000D01*
X94050000Y-100000000D02*
X94050000Y-83910000D01*
X96590000Y-81600000D02*
X96670000Y-81520000D01*
X96590000Y-100000000D02*
X96590000Y-81600000D01*
X99130000Y-80839998D02*
X99320000Y-80649998D01*
X99130000Y-100000000D02*
X99130000Y-80839998D01*
X72500000Y-66460000D02*
X72500000Y-70215264D01*
X72500000Y-70215264D02*
X72500000Y-70790000D01*
X73730000Y-65230000D02*
X72500000Y-66460000D01*
X75946399Y-71173601D02*
X75540000Y-71580000D01*
X76270000Y-70850000D02*
X75946399Y-71173601D01*
X76270000Y-67770000D02*
X76270000Y-70850000D01*
X53460000Y-91580000D02*
X53460000Y-99950000D01*
X53460000Y-99950000D02*
X53410000Y-100000000D01*
X66553601Y-86056399D02*
X66960000Y-85650000D01*
X61030000Y-91580000D02*
X66553601Y-86056399D01*
X61030000Y-100000000D02*
X61030000Y-91580000D01*
X68143603Y-86746399D02*
X68550002Y-86340000D01*
X63570000Y-100000000D02*
X63570000Y-91320002D01*
X63570000Y-91320002D02*
X68143603Y-86746399D01*
X69873601Y-88806399D02*
X70280000Y-88400000D01*
X66110000Y-92570000D02*
X69873601Y-88806399D01*
X66110000Y-100000000D02*
X66110000Y-92570000D01*
X55950000Y-67770000D02*
X53090000Y-70630000D01*
X53090000Y-70630000D02*
X53090000Y-75302200D01*
X53090000Y-75302200D02*
X53090000Y-76330000D01*
X58490000Y-67770000D02*
X57601001Y-68658999D01*
X57601001Y-68658999D02*
X57601001Y-70158999D01*
X57601001Y-70158999D02*
X55570000Y-72190000D01*
X55570000Y-72190000D02*
X55570000Y-76270000D01*
X55570000Y-76270000D02*
X55630000Y-76330000D01*
X61030000Y-67770000D02*
X61030000Y-69950000D01*
X61030000Y-69950000D02*
X58170000Y-72810000D01*
X58170000Y-72810000D02*
X58170000Y-76330000D01*
D18*
X50870000Y-67770000D02*
X50870000Y-68600000D01*
X50870000Y-68600000D02*
X45550000Y-73920000D01*
X48330000Y-100000000D02*
X48330000Y-93230000D01*
X48330000Y-93230000D02*
X45460000Y-90360000D01*
D19*
X48330000Y-95180000D02*
X48330000Y-100000000D01*
D20*
G36*
X112704761Y-35505663D02*
X112878349Y-35621651D01*
X112994337Y-35795239D01*
X113044000Y-36044911D01*
X113044000Y-93455089D01*
X112994337Y-93704761D01*
X112878349Y-93878349D01*
X112704761Y-93994337D01*
X112455089Y-94044000D01*
X103500000Y-94044000D01*
X103325496Y-94078711D01*
X103177559Y-94177559D01*
X103078711Y-94325496D01*
X103044000Y-94500000D01*
X103044000Y-104311119D01*
X102940000Y-104415119D01*
X102940000Y-100285750D01*
X102781250Y-100127000D01*
X101797000Y-100127000D01*
X101797000Y-100147000D01*
X101543000Y-100147000D01*
X101543000Y-100127000D01*
X100558750Y-100127000D01*
X100400000Y-100285750D01*
X100400000Y-105044000D01*
X100153464Y-105044000D01*
X100153464Y-94500000D01*
X100129697Y-94373690D01*
X100400000Y-94373690D01*
X100400000Y-99714250D01*
X100558750Y-99873000D01*
X101543000Y-99873000D01*
X101543000Y-94023750D01*
X101797000Y-94023750D01*
X101797000Y-99873000D01*
X102781250Y-99873000D01*
X102940000Y-99714250D01*
X102940000Y-94373690D01*
X102843327Y-94140301D01*
X102664698Y-93961673D01*
X102431309Y-93865000D01*
X101955750Y-93865000D01*
X101797000Y-94023750D01*
X101543000Y-94023750D01*
X101384250Y-93865000D01*
X100908691Y-93865000D01*
X100675302Y-93961673D01*
X100496673Y-94140301D01*
X100400000Y-94373690D01*
X100129697Y-94373690D01*
X100126897Y-94358810D01*
X100043454Y-94229135D01*
X99916134Y-94142141D01*
X99765000Y-94111536D01*
X99599900Y-94111536D01*
X99599900Y-81386313D01*
X99765444Y-81317912D01*
X99987136Y-81096607D01*
X100107263Y-80807309D01*
X100107536Y-80494062D01*
X99987914Y-80204554D01*
X99766609Y-79982862D01*
X99477311Y-79862735D01*
X99164064Y-79862462D01*
X98874556Y-79982084D01*
X98652864Y-80203389D01*
X98532737Y-80492687D01*
X98532464Y-80805934D01*
X98652086Y-81095442D01*
X98660100Y-81103470D01*
X98660100Y-94111536D01*
X98495000Y-94111536D01*
X98353810Y-94138103D01*
X98224135Y-94221546D01*
X98137141Y-94348866D01*
X98106536Y-94500000D01*
X98106536Y-105044000D01*
X97613464Y-105044000D01*
X97613464Y-94500000D01*
X97586897Y-94358810D01*
X97503454Y-94229135D01*
X97376134Y-94142141D01*
X97225000Y-94111536D01*
X97059900Y-94111536D01*
X97059900Y-82210864D01*
X97115444Y-82187914D01*
X97337136Y-81966609D01*
X97457263Y-81677311D01*
X97457536Y-81364064D01*
X97337914Y-81074556D01*
X97116609Y-80852864D01*
X96827311Y-80732737D01*
X96514064Y-80732464D01*
X96224556Y-80852086D01*
X96002864Y-81073391D01*
X95882737Y-81362689D01*
X95882464Y-81675936D01*
X96002086Y-81965444D01*
X96120100Y-82083664D01*
X96120100Y-94111536D01*
X95955000Y-94111536D01*
X95813810Y-94138103D01*
X95684135Y-94221546D01*
X95597141Y-94348866D01*
X95566536Y-94500000D01*
X95566536Y-105044000D01*
X95073464Y-105044000D01*
X95073464Y-94500000D01*
X95046897Y-94358810D01*
X94963454Y-94229135D01*
X94836134Y-94142141D01*
X94685000Y-94111536D01*
X94519900Y-94111536D01*
X94519900Y-84550205D01*
X94525444Y-84547914D01*
X94747136Y-84326609D01*
X94867263Y-84037311D01*
X94867536Y-83724064D01*
X94747914Y-83434556D01*
X94526609Y-83212864D01*
X94237311Y-83092737D01*
X93924064Y-83092464D01*
X93634556Y-83212086D01*
X93412864Y-83433391D01*
X93292737Y-83722689D01*
X93292464Y-84035936D01*
X93412086Y-84325444D01*
X93580100Y-84493752D01*
X93580100Y-94111536D01*
X93415000Y-94111536D01*
X93273810Y-94138103D01*
X93144135Y-94221546D01*
X93057141Y-94348866D01*
X93026536Y-94500000D01*
X93026536Y-105044000D01*
X92533464Y-105044000D01*
X92533464Y-94500000D01*
X92506897Y-94358810D01*
X92423454Y-94229135D01*
X92296134Y-94142141D01*
X92145000Y-94111536D01*
X91979900Y-94111536D01*
X91979900Y-93580000D01*
X91944131Y-93400177D01*
X91897240Y-93330000D01*
X91842270Y-93247731D01*
X87387293Y-88792755D01*
X87387536Y-88514064D01*
X87267914Y-88224556D01*
X87046609Y-88002864D01*
X86757311Y-87882737D01*
X86444064Y-87882464D01*
X86154556Y-88002086D01*
X85932864Y-88223391D01*
X85812737Y-88512689D01*
X85812464Y-88825936D01*
X85932086Y-89115444D01*
X86153391Y-89337136D01*
X86442689Y-89457263D01*
X86722969Y-89457507D01*
X91040100Y-93774639D01*
X91040100Y-94111536D01*
X90875000Y-94111536D01*
X90733810Y-94138103D01*
X90604135Y-94221546D01*
X90517141Y-94348866D01*
X90486536Y-94500000D01*
X90486536Y-105044000D01*
X89993464Y-105044000D01*
X89993464Y-94500000D01*
X89966897Y-94358810D01*
X89883454Y-94229135D01*
X89756134Y-94142141D01*
X89605000Y-94111536D01*
X89439900Y-94111536D01*
X89439900Y-93100000D01*
X89404131Y-92920177D01*
X89302269Y-92767731D01*
X85337293Y-88802755D01*
X85337536Y-88524064D01*
X85217914Y-88234556D01*
X84996609Y-88012864D01*
X84707311Y-87892737D01*
X84394064Y-87892464D01*
X84104556Y-88012086D01*
X83882864Y-88233391D01*
X83762737Y-88522689D01*
X83762464Y-88835936D01*
X83882086Y-89125444D01*
X84103391Y-89347136D01*
X84392689Y-89467263D01*
X84672969Y-89467507D01*
X88500100Y-93294638D01*
X88500100Y-94111536D01*
X88335000Y-94111536D01*
X88193810Y-94138103D01*
X88064135Y-94221546D01*
X87977141Y-94348866D01*
X87946536Y-94500000D01*
X87946536Y-105044000D01*
X87453464Y-105044000D01*
X87453464Y-94500000D01*
X87426897Y-94358810D01*
X87343454Y-94229135D01*
X87216134Y-94142141D01*
X87065000Y-94111536D01*
X86899900Y-94111536D01*
X86899900Y-93330000D01*
X86864131Y-93150177D01*
X86762269Y-92997731D01*
X83305675Y-89541137D01*
X83307263Y-89537311D01*
X83307536Y-89224064D01*
X83187914Y-88934556D01*
X82966609Y-88712864D01*
X82677311Y-88592737D01*
X82364064Y-88592464D01*
X82074556Y-88712086D01*
X81852864Y-88933391D01*
X81732737Y-89222689D01*
X81732464Y-89535936D01*
X81852086Y-89825444D01*
X82073391Y-90047136D01*
X82362689Y-90167263D01*
X82602934Y-90167472D01*
X85960100Y-93524638D01*
X85960100Y-94111536D01*
X85795000Y-94111536D01*
X85653810Y-94138103D01*
X85524135Y-94221546D01*
X85437141Y-94348866D01*
X85406536Y-94500000D01*
X85406536Y-105044000D01*
X84913464Y-105044000D01*
X84913464Y-94500000D01*
X84886897Y-94358810D01*
X84803454Y-94229135D01*
X84676134Y-94142141D01*
X84525000Y-94111536D01*
X83255000Y-94111536D01*
X83113810Y-94138103D01*
X82984135Y-94221546D01*
X82897141Y-94348866D01*
X82866536Y-94500000D01*
X82866536Y-105044000D01*
X82373464Y-105044000D01*
X82373464Y-94500000D01*
X82346897Y-94358810D01*
X82263454Y-94229135D01*
X82136134Y-94142141D01*
X81985000Y-94111536D01*
X81819900Y-94111536D01*
X81819900Y-93630000D01*
X81784131Y-93450177D01*
X81703831Y-93330000D01*
X81682270Y-93297731D01*
X80847293Y-92462755D01*
X80847536Y-92184064D01*
X80727914Y-91894556D01*
X80506609Y-91672864D01*
X80217311Y-91552737D01*
X79904064Y-91552464D01*
X79614556Y-91672086D01*
X79392864Y-91893391D01*
X79272737Y-92182689D01*
X79272464Y-92495936D01*
X79392086Y-92785444D01*
X79613391Y-93007136D01*
X79902689Y-93127263D01*
X80182969Y-93127507D01*
X80880100Y-93824639D01*
X80880100Y-94111536D01*
X80715000Y-94111536D01*
X80573810Y-94138103D01*
X80444135Y-94221546D01*
X80357141Y-94348866D01*
X80326536Y-94500000D01*
X80326536Y-105044000D01*
X79833464Y-105044000D01*
X79833464Y-94500000D01*
X79806897Y-94358810D01*
X79723454Y-94229135D01*
X79596134Y-94142141D01*
X79445000Y-94111536D01*
X79279900Y-94111536D01*
X79279900Y-93450000D01*
X79244131Y-93270177D01*
X79228417Y-93246659D01*
X79142270Y-93117731D01*
X77097293Y-91072755D01*
X77097536Y-90794064D01*
X76977914Y-90504556D01*
X76756609Y-90282864D01*
X76467311Y-90162737D01*
X76154064Y-90162464D01*
X75864556Y-90282086D01*
X75642864Y-90503391D01*
X75522737Y-90792689D01*
X75522464Y-91105936D01*
X75642086Y-91395444D01*
X75863391Y-91617136D01*
X76152689Y-91737263D01*
X76432969Y-91737507D01*
X78340100Y-93644639D01*
X78340100Y-94111536D01*
X78175000Y-94111536D01*
X78033810Y-94138103D01*
X77904135Y-94221546D01*
X77817141Y-94348866D01*
X77786536Y-94500000D01*
X77786536Y-105044000D01*
X77293464Y-105044000D01*
X77293464Y-94500000D01*
X77266897Y-94358810D01*
X77183454Y-94229135D01*
X77056134Y-94142141D01*
X76905000Y-94111536D01*
X76739900Y-94111536D01*
X76739900Y-93320000D01*
X76704131Y-93140177D01*
X76602269Y-92987730D01*
X76377293Y-92762755D01*
X76377536Y-92484064D01*
X76257914Y-92194556D01*
X76036609Y-91972864D01*
X75747311Y-91852737D01*
X75434064Y-91852464D01*
X75144556Y-91972086D01*
X74922864Y-92193391D01*
X74802737Y-92482689D01*
X74802464Y-92795936D01*
X74922086Y-93085444D01*
X75143391Y-93307136D01*
X75432689Y-93427263D01*
X75712969Y-93427507D01*
X75800100Y-93514638D01*
X75800100Y-94111536D01*
X75635000Y-94111536D01*
X75493810Y-94138103D01*
X75364135Y-94221546D01*
X75277141Y-94348866D01*
X75246536Y-94500000D01*
X75246536Y-105044000D01*
X74753464Y-105044000D01*
X74753464Y-94500000D01*
X74726897Y-94358810D01*
X74643454Y-94229135D01*
X74516134Y-94142141D01*
X74365000Y-94111536D01*
X74199900Y-94111536D01*
X74199900Y-93099128D01*
X74275445Y-93067914D01*
X74497137Y-92846609D01*
X74617264Y-92557311D01*
X74617537Y-92244064D01*
X74497915Y-91954556D01*
X74276610Y-91732864D01*
X73987312Y-91612737D01*
X73674065Y-91612464D01*
X73384557Y-91732086D01*
X73162865Y-91953391D01*
X73042738Y-92242689D01*
X73042465Y-92555936D01*
X73162087Y-92845444D01*
X73260100Y-92943628D01*
X73260100Y-94111536D01*
X73095000Y-94111536D01*
X72953810Y-94138103D01*
X72824135Y-94221546D01*
X72737141Y-94348866D01*
X72706536Y-94500000D01*
X72706536Y-105044000D01*
X72213464Y-105044000D01*
X72213464Y-94500000D01*
X72186897Y-94358810D01*
X72103454Y-94229135D01*
X71976134Y-94142141D01*
X71825000Y-94111536D01*
X70555000Y-94111536D01*
X70413810Y-94138103D01*
X70284135Y-94221546D01*
X70197141Y-94348866D01*
X70166536Y-94500000D01*
X70166536Y-105044000D01*
X69673464Y-105044000D01*
X69673464Y-94776074D01*
X72162224Y-92287315D01*
X72415936Y-92287536D01*
X72705444Y-92167914D01*
X72927136Y-91946609D01*
X73047263Y-91657311D01*
X73047536Y-91344064D01*
X72927914Y-91054556D01*
X72706609Y-90832864D01*
X72417311Y-90712737D01*
X72104064Y-90712464D01*
X71814556Y-90832086D01*
X71592864Y-91053391D01*
X71472737Y-91342689D01*
X71472471Y-91647990D01*
X69008926Y-94111536D01*
X68015000Y-94111536D01*
X67873810Y-94138103D01*
X67744135Y-94221546D01*
X67657141Y-94348866D01*
X67626536Y-94500000D01*
X67626536Y-105044000D01*
X67133464Y-105044000D01*
X67133464Y-94500000D01*
X67106897Y-94358810D01*
X67023454Y-94229135D01*
X66896134Y-94142141D01*
X66745000Y-94111536D01*
X66579900Y-94111536D01*
X66579900Y-92764638D01*
X70157246Y-89187293D01*
X70435936Y-89187536D01*
X70725444Y-89067914D01*
X70947136Y-88846609D01*
X71067263Y-88557311D01*
X71067536Y-88244064D01*
X70947914Y-87954556D01*
X70726609Y-87732864D01*
X70437311Y-87612737D01*
X70124064Y-87612464D01*
X69834556Y-87732086D01*
X69612864Y-87953391D01*
X69492737Y-88242689D01*
X69492493Y-88522968D01*
X65777731Y-92237731D01*
X65675869Y-92390177D01*
X65640100Y-92570000D01*
X65640100Y-94111536D01*
X65475000Y-94111536D01*
X65333810Y-94138103D01*
X65204135Y-94221546D01*
X65117141Y-94348866D01*
X65086536Y-94500000D01*
X65086536Y-105044000D01*
X64593464Y-105044000D01*
X64593464Y-94500000D01*
X64566897Y-94358810D01*
X64483454Y-94229135D01*
X64356134Y-94142141D01*
X64205000Y-94111536D01*
X64039900Y-94111536D01*
X64039900Y-91514640D01*
X68427248Y-87127293D01*
X68705938Y-87127536D01*
X68995446Y-87007914D01*
X69217138Y-86786609D01*
X69321176Y-86536057D01*
X76550846Y-86536057D01*
X76685903Y-86862920D01*
X76935764Y-87113218D01*
X77262391Y-87248846D01*
X77616057Y-87249154D01*
X77810974Y-87168616D01*
X77810846Y-87316057D01*
X77945903Y-87642920D01*
X78195764Y-87893218D01*
X78522391Y-88028846D01*
X78876057Y-88029154D01*
X79202920Y-87894097D01*
X79453218Y-87644236D01*
X79467476Y-87609900D01*
X81160000Y-87609900D01*
X81339823Y-87574131D01*
X81492269Y-87472269D01*
X89974639Y-78989900D01*
X97080000Y-78989900D01*
X97259823Y-78954131D01*
X97412269Y-78852269D01*
X98783456Y-77481082D01*
X98798917Y-77491413D01*
X99270000Y-77585117D01*
X99741083Y-77491413D01*
X100140448Y-77224565D01*
X100407296Y-76825200D01*
X100501000Y-76354117D01*
X100501000Y-76305883D01*
X100407296Y-75834800D01*
X100140448Y-75435435D01*
X99755488Y-75178212D01*
X100036924Y-75061645D01*
X100465183Y-74671358D01*
X100711486Y-74146892D01*
X100590819Y-73917000D01*
X99397000Y-73917000D01*
X99397000Y-73937000D01*
X99143000Y-73937000D01*
X99143000Y-73917000D01*
X99123000Y-73917000D01*
X99123000Y-73663000D01*
X99143000Y-73663000D01*
X99143000Y-72469845D01*
X99397000Y-72469845D01*
X99397000Y-73663000D01*
X100590819Y-73663000D01*
X100711486Y-73433108D01*
X100465183Y-72908642D01*
X100036924Y-72518355D01*
X99626890Y-72348524D01*
X99397000Y-72469845D01*
X99143000Y-72469845D01*
X98913110Y-72348524D01*
X98503076Y-72518355D01*
X98074817Y-72908642D01*
X97875083Y-73333947D01*
X97867296Y-73294800D01*
X97600448Y-72895435D01*
X97201083Y-72628587D01*
X96730000Y-72534883D01*
X96258917Y-72628587D01*
X95859552Y-72895435D01*
X95592704Y-73294800D01*
X95499000Y-73765883D01*
X95499000Y-73814117D01*
X95592704Y-74285200D01*
X95859552Y-74684565D01*
X96258917Y-74951413D01*
X96730000Y-75045117D01*
X97201083Y-74951413D01*
X97600448Y-74684565D01*
X97867296Y-74285200D01*
X97875083Y-74246053D01*
X98074817Y-74671358D01*
X98503076Y-75061645D01*
X98784512Y-75178212D01*
X98399552Y-75435435D01*
X98132704Y-75834800D01*
X98039000Y-76305883D01*
X98039000Y-76354117D01*
X98128981Y-76806481D01*
X96885362Y-78050100D01*
X93134438Y-78050100D01*
X93672271Y-77512268D01*
X93672273Y-77512265D01*
X93703456Y-77481082D01*
X93718917Y-77491413D01*
X94190000Y-77585117D01*
X94661083Y-77491413D01*
X95060448Y-77224565D01*
X95327296Y-76825200D01*
X95421000Y-76354117D01*
X95421000Y-76305883D01*
X95499000Y-76305883D01*
X95499000Y-76354117D01*
X95592704Y-76825200D01*
X95859552Y-77224565D01*
X96258917Y-77491413D01*
X96730000Y-77585117D01*
X97201083Y-77491413D01*
X97600448Y-77224565D01*
X97867296Y-76825200D01*
X97961000Y-76354117D01*
X97961000Y-76305883D01*
X97867296Y-75834800D01*
X97600448Y-75435435D01*
X97201083Y-75168587D01*
X96730000Y-75074883D01*
X96258917Y-75168587D01*
X95859552Y-75435435D01*
X95592704Y-75834800D01*
X95499000Y-76305883D01*
X95421000Y-76305883D01*
X95327296Y-75834800D01*
X95060448Y-75435435D01*
X94661083Y-75168587D01*
X94190000Y-75074883D01*
X93718917Y-75168587D01*
X93319552Y-75435435D01*
X93052704Y-75834800D01*
X92959000Y-76305883D01*
X92959000Y-76354117D01*
X93048981Y-76806481D01*
X93007735Y-76847727D01*
X93007732Y-76847729D01*
X92160973Y-77694489D01*
X89605611Y-77694489D01*
X89425788Y-77730258D01*
X89273341Y-77832120D01*
X81215362Y-85890100D01*
X78207741Y-85890100D01*
X78194097Y-85857080D01*
X77944236Y-85606782D01*
X77617609Y-85471154D01*
X77263943Y-85470846D01*
X76937080Y-85605903D01*
X76686782Y-85855764D01*
X76551154Y-86182391D01*
X76550846Y-86536057D01*
X69321176Y-86536057D01*
X69337265Y-86497311D01*
X69337538Y-86184064D01*
X69217916Y-85894556D01*
X68996611Y-85672864D01*
X68707313Y-85552737D01*
X68394066Y-85552464D01*
X68104558Y-85672086D01*
X67882866Y-85893391D01*
X67762739Y-86182689D01*
X67762495Y-86462968D01*
X63237731Y-90987733D01*
X63135869Y-91140179D01*
X63100100Y-91320002D01*
X63100100Y-94111536D01*
X62935000Y-94111536D01*
X62793810Y-94138103D01*
X62664135Y-94221546D01*
X62577141Y-94348866D01*
X62546536Y-94500000D01*
X62546536Y-105044000D01*
X62053464Y-105044000D01*
X62053464Y-94500000D01*
X62026897Y-94358810D01*
X61943454Y-94229135D01*
X61816134Y-94142141D01*
X61665000Y-94111536D01*
X61499900Y-94111536D01*
X61499900Y-91774638D01*
X66837246Y-86437293D01*
X67115936Y-86437536D01*
X67405444Y-86317914D01*
X67627136Y-86096609D01*
X67747263Y-85807311D01*
X67747536Y-85494064D01*
X67627914Y-85204556D01*
X67529587Y-85106057D01*
X78650846Y-85106057D01*
X78785903Y-85432920D01*
X79035764Y-85683218D01*
X79362391Y-85818846D01*
X79716057Y-85819154D01*
X80042920Y-85684097D01*
X80293218Y-85434236D01*
X80319933Y-85369900D01*
X80530000Y-85369900D01*
X80709823Y-85334131D01*
X80862269Y-85232269D01*
X88526075Y-77568464D01*
X89960000Y-77568464D01*
X90101190Y-77541897D01*
X90230865Y-77458454D01*
X90317859Y-77331134D01*
X90348464Y-77180000D01*
X90348464Y-75693002D01*
X90508981Y-75853519D01*
X90419000Y-76305883D01*
X90419000Y-76354117D01*
X90512704Y-76825200D01*
X90779552Y-77224565D01*
X91178917Y-77491413D01*
X91650000Y-77585117D01*
X92121083Y-77491413D01*
X92520448Y-77224565D01*
X92787296Y-76825200D01*
X92881000Y-76354117D01*
X92881000Y-76305883D01*
X92787296Y-75834800D01*
X92520448Y-75435435D01*
X92121083Y-75168587D01*
X91650000Y-75074883D01*
X91178917Y-75168587D01*
X91163456Y-75178918D01*
X90722269Y-74737731D01*
X90569823Y-74635869D01*
X90390000Y-74600100D01*
X90338648Y-74600100D01*
X90504917Y-74246053D01*
X90512704Y-74285200D01*
X90779552Y-74684565D01*
X91178917Y-74951413D01*
X91650000Y-75045117D01*
X92121083Y-74951413D01*
X92520448Y-74684565D01*
X92787296Y-74285200D01*
X92881000Y-73814117D01*
X92881000Y-73765883D01*
X92959000Y-73765883D01*
X92959000Y-73814117D01*
X93052704Y-74285200D01*
X93319552Y-74684565D01*
X93718917Y-74951413D01*
X94190000Y-75045117D01*
X94661083Y-74951413D01*
X95060448Y-74684565D01*
X95327296Y-74285200D01*
X95421000Y-73814117D01*
X95421000Y-73765883D01*
X95327296Y-73294800D01*
X95060448Y-72895435D01*
X94661083Y-72628587D01*
X94190000Y-72534883D01*
X93718917Y-72628587D01*
X93319552Y-72895435D01*
X93052704Y-73294800D01*
X92959000Y-73765883D01*
X92881000Y-73765883D01*
X92787296Y-73294800D01*
X92520448Y-72895435D01*
X92121083Y-72628587D01*
X91650000Y-72534883D01*
X91178917Y-72628587D01*
X90779552Y-72895435D01*
X90512704Y-73294800D01*
X90504917Y-73333947D01*
X90305183Y-72908642D01*
X89876924Y-72518355D01*
X89466890Y-72348524D01*
X89237000Y-72469845D01*
X89237000Y-73663000D01*
X89257000Y-73663000D01*
X89257000Y-73917000D01*
X89237000Y-73917000D01*
X89237000Y-73937000D01*
X88983000Y-73937000D01*
X88983000Y-73917000D01*
X87789181Y-73917000D01*
X87668514Y-74146892D01*
X87881352Y-74600100D01*
X83660000Y-74600100D01*
X83480177Y-74635869D01*
X83327730Y-74737731D01*
X79790606Y-78274856D01*
X79757609Y-78261154D01*
X79403943Y-78260846D01*
X79077080Y-78395903D01*
X78826782Y-78645764D01*
X78691154Y-78972391D01*
X78690846Y-79326057D01*
X78825903Y-79652920D01*
X79075764Y-79903218D01*
X79402391Y-80038846D01*
X79756057Y-80039154D01*
X80082920Y-79904097D01*
X80333218Y-79654236D01*
X80468846Y-79327609D01*
X80469154Y-78973943D01*
X80454956Y-78939582D01*
X83854639Y-75539900D01*
X87871536Y-75539900D01*
X87871536Y-76893925D01*
X80335362Y-84430100D01*
X80295345Y-84430100D01*
X80294097Y-84427080D01*
X80044236Y-84176782D01*
X79717609Y-84041154D01*
X79363943Y-84040846D01*
X79037080Y-84175903D01*
X78786782Y-84425764D01*
X78651154Y-84752391D01*
X78650846Y-85106057D01*
X67529587Y-85106057D01*
X67406609Y-84982864D01*
X67117311Y-84862737D01*
X66804064Y-84862464D01*
X66514556Y-84982086D01*
X66292864Y-85203391D01*
X66172737Y-85492689D01*
X66172493Y-85772968D01*
X60697731Y-91247731D01*
X60595869Y-91400177D01*
X60560100Y-91580000D01*
X60560100Y-94111536D01*
X60395000Y-94111536D01*
X60253810Y-94138103D01*
X60124135Y-94221546D01*
X60037141Y-94348866D01*
X60006536Y-94500000D01*
X60006536Y-105044000D01*
X59513464Y-105044000D01*
X59513464Y-94500000D01*
X59486897Y-94358810D01*
X59403454Y-94229135D01*
X59276134Y-94142141D01*
X59125000Y-94111536D01*
X57855000Y-94111536D01*
X57713810Y-94138103D01*
X57584135Y-94221546D01*
X57497141Y-94348866D01*
X57466536Y-94500000D01*
X57466536Y-105044000D01*
X56973464Y-105044000D01*
X56973464Y-94500000D01*
X56946897Y-94358810D01*
X56863454Y-94229135D01*
X56736134Y-94142141D01*
X56585000Y-94111536D01*
X55315000Y-94111536D01*
X55173810Y-94138103D01*
X55044135Y-94221546D01*
X54957141Y-94348866D01*
X54926536Y-94500000D01*
X54926536Y-105044000D01*
X54433464Y-105044000D01*
X54433464Y-94500000D01*
X54406897Y-94358810D01*
X54323454Y-94229135D01*
X54196134Y-94142141D01*
X54045000Y-94111536D01*
X53929900Y-94111536D01*
X53929900Y-92347741D01*
X53962920Y-92334097D01*
X54213218Y-92084236D01*
X54348846Y-91757609D01*
X54349154Y-91403943D01*
X54214097Y-91077080D01*
X53964236Y-90826782D01*
X53637609Y-90691154D01*
X53283943Y-90690846D01*
X52957080Y-90825903D01*
X52706782Y-91075764D01*
X52571154Y-91402391D01*
X52570846Y-91756057D01*
X52705903Y-92082920D01*
X52955764Y-92333218D01*
X52990100Y-92347476D01*
X52990100Y-94111536D01*
X52775000Y-94111536D01*
X52633810Y-94138103D01*
X52504135Y-94221546D01*
X52417141Y-94348866D01*
X52386536Y-94500000D01*
X52386536Y-105044000D01*
X51893464Y-105044000D01*
X51893464Y-94500000D01*
X51866897Y-94358810D01*
X51783454Y-94229135D01*
X51656134Y-94142141D01*
X51505000Y-94111536D01*
X50235000Y-94111536D01*
X50093810Y-94138103D01*
X49964135Y-94221546D01*
X49877141Y-94348866D01*
X49846536Y-94500000D01*
X49846536Y-105044000D01*
X49353464Y-105044000D01*
X49353464Y-94500000D01*
X49346000Y-94460333D01*
X49346000Y-93230000D01*
X49280811Y-92902269D01*
X49268662Y-92841193D01*
X49048421Y-92511580D01*
X46178420Y-89641580D01*
X45848807Y-89421338D01*
X45460000Y-89344001D01*
X45071193Y-89421338D01*
X44741580Y-89641580D01*
X44521338Y-89971193D01*
X44444001Y-90360000D01*
X44521338Y-90748807D01*
X44741580Y-91078420D01*
X47314000Y-93650841D01*
X47314000Y-94463141D01*
X47306536Y-94500000D01*
X47306536Y-104661654D01*
X46956000Y-104311118D01*
X46956000Y-94500000D01*
X46921289Y-94325496D01*
X46822441Y-94177559D01*
X46674504Y-94078711D01*
X46500000Y-94044000D01*
X37544911Y-94044000D01*
X37295239Y-93994337D01*
X37121651Y-93878349D01*
X37005663Y-93704761D01*
X36956000Y-93455089D01*
X36956000Y-81720000D01*
X60224000Y-81720000D01*
X60301338Y-82108806D01*
X60521580Y-82438420D01*
X60851194Y-82658662D01*
X61240000Y-82736000D01*
X63280000Y-82736000D01*
X63604300Y-82671493D01*
X63668807Y-82658662D01*
X63998420Y-82438420D01*
X67478420Y-78958421D01*
X67698661Y-78628807D01*
X67775999Y-78240000D01*
X67698661Y-77851193D01*
X67478420Y-77521580D01*
X67148807Y-77301339D01*
X66760000Y-77224001D01*
X66371193Y-77301339D01*
X66041579Y-77521580D01*
X62859160Y-80704000D01*
X61240000Y-80704000D01*
X60851194Y-80781338D01*
X60521580Y-81001580D01*
X60301338Y-81331194D01*
X60224000Y-81720000D01*
X36956000Y-81720000D01*
X36956000Y-76880000D01*
X38354883Y-76880000D01*
X38448587Y-77351083D01*
X38715435Y-77750448D01*
X39114800Y-78017296D01*
X39585883Y-78111000D01*
X39634117Y-78111000D01*
X40105200Y-78017296D01*
X40504565Y-77750448D01*
X40771413Y-77351083D01*
X40865117Y-76880000D01*
X40781575Y-76460000D01*
X44294883Y-76460000D01*
X44388587Y-76931083D01*
X44655435Y-77330448D01*
X45054800Y-77597296D01*
X45525883Y-77691000D01*
X45574117Y-77691000D01*
X46045200Y-77597296D01*
X46444565Y-77330448D01*
X46711413Y-76931083D01*
X46805117Y-76460000D01*
X46711413Y-75988917D01*
X46444565Y-75589552D01*
X46045200Y-75322704D01*
X45574117Y-75229000D01*
X45525883Y-75229000D01*
X45054800Y-75322704D01*
X44655435Y-75589552D01*
X44388587Y-75988917D01*
X44294883Y-76460000D01*
X40781575Y-76460000D01*
X40771413Y-76408917D01*
X40504565Y-76009552D01*
X40105200Y-75742704D01*
X39634117Y-75649000D01*
X39585883Y-75649000D01*
X39114800Y-75742704D01*
X38715435Y-76009552D01*
X38448587Y-76408917D01*
X38354883Y-76880000D01*
X36956000Y-76880000D01*
X36956000Y-72085750D01*
X38125000Y-72085750D01*
X38125000Y-72776310D01*
X38221673Y-73009699D01*
X38400302Y-73188327D01*
X38633691Y-73285000D01*
X38991636Y-73285000D01*
X38715435Y-73469552D01*
X38448587Y-73868917D01*
X38354883Y-74340000D01*
X38448587Y-74811083D01*
X38715435Y-75210448D01*
X39114800Y-75477296D01*
X39585883Y-75571000D01*
X39634117Y-75571000D01*
X40105200Y-75477296D01*
X40504565Y-75210448D01*
X40771413Y-74811083D01*
X40865117Y-74340000D01*
X40771413Y-73868917D01*
X40504565Y-73469552D01*
X40228364Y-73285000D01*
X40586309Y-73285000D01*
X40819698Y-73188327D01*
X40938025Y-73070000D01*
X44311536Y-73070000D01*
X44311536Y-74770000D01*
X44338103Y-74911190D01*
X44421546Y-75040865D01*
X44548866Y-75127859D01*
X44700000Y-75158464D01*
X46400000Y-75158464D01*
X46541190Y-75131897D01*
X46670865Y-75048454D01*
X46757859Y-74921134D01*
X46788464Y-74770000D01*
X46788464Y-74118376D01*
X51588420Y-69318421D01*
X51808662Y-68988807D01*
X51836813Y-68847282D01*
X51886000Y-68600000D01*
X51886000Y-68550258D01*
X51946026Y-68490337D01*
X52139779Y-68023727D01*
X52139781Y-68021512D01*
X52332718Y-68488458D01*
X52689663Y-68846026D01*
X53156273Y-69039779D01*
X53661510Y-69040220D01*
X54128458Y-68847282D01*
X54486026Y-68490337D01*
X54679779Y-68023727D01*
X54679781Y-68021512D01*
X54783333Y-68272128D01*
X52757731Y-70297731D01*
X52655869Y-70450177D01*
X52620100Y-70630000D01*
X52620100Y-75091536D01*
X52240000Y-75091536D01*
X52098810Y-75118103D01*
X51969135Y-75201546D01*
X51882141Y-75328866D01*
X51851536Y-75480000D01*
X51851536Y-77180000D01*
X51878103Y-77321190D01*
X51961546Y-77450865D01*
X52088866Y-77537859D01*
X52240000Y-77568464D01*
X53940000Y-77568464D01*
X54081190Y-77541897D01*
X54210865Y-77458454D01*
X54297859Y-77331134D01*
X54328464Y-77180000D01*
X54328464Y-75480000D01*
X54301897Y-75338810D01*
X54218454Y-75209135D01*
X54091134Y-75122141D01*
X53940000Y-75091536D01*
X53559900Y-75091536D01*
X53559900Y-70824638D01*
X55447895Y-68936644D01*
X55696273Y-69039779D01*
X56201510Y-69040220D01*
X56668458Y-68847282D01*
X57026026Y-68490337D01*
X57219779Y-68023727D01*
X57219781Y-68021512D01*
X57323333Y-68272129D01*
X57268732Y-68326730D01*
X57166870Y-68479176D01*
X57131101Y-68658999D01*
X57131101Y-69964360D01*
X55237731Y-71857731D01*
X55135869Y-72010177D01*
X55100100Y-72190000D01*
X55100100Y-75207887D01*
X54759552Y-75435435D01*
X54492704Y-75834800D01*
X54399000Y-76305883D01*
X54399000Y-76354117D01*
X54492704Y-76825200D01*
X54759552Y-77224565D01*
X55158917Y-77491413D01*
X55630000Y-77585117D01*
X56101083Y-77491413D01*
X56500448Y-77224565D01*
X56767296Y-76825200D01*
X56861000Y-76354117D01*
X56861000Y-76305883D01*
X56767296Y-75834800D01*
X56500448Y-75435435D01*
X56101083Y-75168587D01*
X56039900Y-75156417D01*
X56039900Y-72384638D01*
X57933270Y-70491269D01*
X58035132Y-70338822D01*
X58039870Y-70315000D01*
X58070901Y-70158999D01*
X58070901Y-68971111D01*
X58236273Y-69039779D01*
X58741510Y-69040220D01*
X59208458Y-68847282D01*
X59566026Y-68490337D01*
X59759779Y-68023727D01*
X59759781Y-68021512D01*
X59952718Y-68488458D01*
X60309663Y-68846026D01*
X60560100Y-68950016D01*
X60560100Y-69755361D01*
X57837731Y-72477731D01*
X57735869Y-72630177D01*
X57700100Y-72810000D01*
X57700100Y-75168352D01*
X57698917Y-75168587D01*
X57299552Y-75435435D01*
X57032704Y-75834800D01*
X56939000Y-76305883D01*
X56939000Y-76354117D01*
X57032704Y-76825200D01*
X57299552Y-77224565D01*
X57698917Y-77491413D01*
X58170000Y-77585117D01*
X58641083Y-77491413D01*
X59040448Y-77224565D01*
X59307296Y-76825200D01*
X59401000Y-76354117D01*
X59401000Y-76305883D01*
X59307296Y-75834800D01*
X59040448Y-75435435D01*
X58641083Y-75168587D01*
X58639900Y-75168352D01*
X58639900Y-73433108D01*
X87668514Y-73433108D01*
X87789181Y-73663000D01*
X88983000Y-73663000D01*
X88983000Y-72469845D01*
X88753110Y-72348524D01*
X88343076Y-72518355D01*
X87914817Y-72908642D01*
X87668514Y-73433108D01*
X58639900Y-73433108D01*
X58639900Y-73004638D01*
X61362270Y-70282269D01*
X61464131Y-70129823D01*
X61465670Y-70122086D01*
X61499900Y-69950000D01*
X61499900Y-68949984D01*
X61748458Y-68847282D01*
X62106026Y-68490337D01*
X62299779Y-68023727D01*
X62299781Y-68021512D01*
X62492718Y-68488458D01*
X62849663Y-68846026D01*
X63316273Y-69039779D01*
X63821510Y-69040220D01*
X64288458Y-68847282D01*
X64293552Y-68842196D01*
X65217409Y-68842196D01*
X65302467Y-69097539D01*
X65871965Y-69305516D01*
X66477700Y-69279723D01*
X66917533Y-69097539D01*
X67002591Y-68842196D01*
X66110000Y-67949605D01*
X65217409Y-68842196D01*
X64293552Y-68842196D01*
X64646026Y-68490337D01*
X64696247Y-68369392D01*
X64782461Y-68577533D01*
X65037804Y-68662591D01*
X65930395Y-67770000D01*
X65037804Y-66877409D01*
X64782461Y-66962467D01*
X64701771Y-67183417D01*
X64647282Y-67051542D01*
X64290337Y-66693974D01*
X63823727Y-66500221D01*
X63821512Y-66500219D01*
X64288458Y-66307282D01*
X64646026Y-65950337D01*
X64839779Y-65483727D01*
X64839781Y-65481512D01*
X65032718Y-65948458D01*
X65389663Y-66306026D01*
X65510608Y-66356247D01*
X65302467Y-66442461D01*
X65217409Y-66697804D01*
X66110000Y-67590395D01*
X67002591Y-66697804D01*
X66917533Y-66442461D01*
X66696583Y-66361771D01*
X66828458Y-66307282D01*
X67186026Y-65950337D01*
X67379779Y-65483727D01*
X67379781Y-65481512D01*
X67572718Y-65948458D01*
X67929663Y-66306026D01*
X68396273Y-66499779D01*
X68398488Y-66499781D01*
X67931542Y-66692718D01*
X67573974Y-67049663D01*
X67523753Y-67170608D01*
X67437539Y-66962467D01*
X67182196Y-66877409D01*
X66289605Y-67770000D01*
X67182196Y-68662591D01*
X67437539Y-68577533D01*
X67518229Y-68356583D01*
X67572718Y-68488458D01*
X67929663Y-68846026D01*
X68396273Y-69039779D01*
X68901510Y-69040220D01*
X69368458Y-68847282D01*
X69726026Y-68490337D01*
X69919779Y-68023727D01*
X69919781Y-68021512D01*
X70112718Y-68488458D01*
X70469663Y-68846026D01*
X70936273Y-69039779D01*
X71441510Y-69040220D01*
X71908458Y-68847282D01*
X72030100Y-68725852D01*
X72030100Y-70146499D01*
X71832864Y-70343391D01*
X71712737Y-70632689D01*
X71712464Y-70945936D01*
X71832086Y-71235444D01*
X72053391Y-71457136D01*
X72342689Y-71577263D01*
X72655936Y-71577536D01*
X72945444Y-71457914D01*
X73167136Y-71236609D01*
X73287263Y-70947311D01*
X73287536Y-70634064D01*
X73167914Y-70344556D01*
X72969900Y-70146196D01*
X72969900Y-69114861D01*
X73491965Y-69305516D01*
X74097700Y-69279723D01*
X74537533Y-69097539D01*
X74622591Y-68842196D01*
X73730000Y-67949605D01*
X73715858Y-67963748D01*
X73536253Y-67784143D01*
X73550395Y-67770000D01*
X73536253Y-67755858D01*
X73715858Y-67576253D01*
X73730000Y-67590395D01*
X74622591Y-66697804D01*
X74537533Y-66442461D01*
X74316583Y-66361771D01*
X74448458Y-66307282D01*
X74806026Y-65950337D01*
X74999779Y-65483727D01*
X74999781Y-65481512D01*
X75192718Y-65948458D01*
X75549663Y-66306026D01*
X76016273Y-66499779D01*
X76018488Y-66499781D01*
X75551542Y-66692718D01*
X75193974Y-67049663D01*
X75143753Y-67170608D01*
X75057539Y-66962467D01*
X74802196Y-66877409D01*
X73909605Y-67770000D01*
X74802196Y-68662591D01*
X75057539Y-68577533D01*
X75138229Y-68356583D01*
X75192718Y-68488458D01*
X75549663Y-68846026D01*
X75800100Y-68950016D01*
X75800100Y-70655361D01*
X75662755Y-70792707D01*
X75384064Y-70792464D01*
X75094556Y-70912086D01*
X74872864Y-71133391D01*
X74752737Y-71422689D01*
X74752464Y-71735936D01*
X74872086Y-72025444D01*
X75093391Y-72247136D01*
X75382689Y-72367263D01*
X75695936Y-72367536D01*
X75985444Y-72247914D01*
X76207136Y-72026609D01*
X76327263Y-71737311D01*
X76327507Y-71457031D01*
X76602270Y-71182269D01*
X76704131Y-71029823D01*
X76711301Y-70993778D01*
X76739900Y-70850000D01*
X76739900Y-68949984D01*
X76988458Y-68847282D01*
X77346026Y-68490337D01*
X77539779Y-68023727D01*
X77539781Y-68021512D01*
X77732718Y-68488458D01*
X78089663Y-68846026D01*
X78556273Y-69039779D01*
X79061510Y-69040220D01*
X79528458Y-68847282D01*
X79886026Y-68490337D01*
X80079779Y-68023727D01*
X80079781Y-68021512D01*
X80272718Y-68488458D01*
X80629663Y-68846026D01*
X81096273Y-69039779D01*
X81601510Y-69040220D01*
X82068458Y-68847282D01*
X82426026Y-68490337D01*
X82619779Y-68023727D01*
X82619781Y-68021512D01*
X82812718Y-68488458D01*
X83169663Y-68846026D01*
X83636273Y-69039779D01*
X84141510Y-69040220D01*
X84608458Y-68847282D01*
X84966026Y-68490337D01*
X85159779Y-68023727D01*
X85159781Y-68021512D01*
X85352718Y-68488458D01*
X85709663Y-68846026D01*
X86176273Y-69039779D01*
X86681510Y-69040220D01*
X87148458Y-68847282D01*
X87506026Y-68490337D01*
X87699779Y-68023727D01*
X87699781Y-68021512D01*
X87892718Y-68488458D01*
X88249663Y-68846026D01*
X88716273Y-69039779D01*
X89221510Y-69040220D01*
X89688458Y-68847282D01*
X90046026Y-68490337D01*
X90239779Y-68023727D01*
X90239781Y-68021512D01*
X90432718Y-68488458D01*
X90789663Y-68846026D01*
X91256273Y-69039779D01*
X91761510Y-69040220D01*
X92228458Y-68847282D01*
X92586026Y-68490337D01*
X92779779Y-68023727D01*
X92779781Y-68021512D01*
X92972718Y-68488458D01*
X93329663Y-68846026D01*
X93796273Y-69039779D01*
X94301510Y-69040220D01*
X94768458Y-68847282D01*
X95126026Y-68490337D01*
X95319779Y-68023727D01*
X95319781Y-68021512D01*
X95512718Y-68488458D01*
X95869663Y-68846026D01*
X96336273Y-69039779D01*
X96841510Y-69040220D01*
X97308458Y-68847282D01*
X97666026Y-68490337D01*
X97859779Y-68023727D01*
X97859781Y-68021512D01*
X98052718Y-68488458D01*
X98409663Y-68846026D01*
X98876273Y-69039779D01*
X99381510Y-69040220D01*
X99848458Y-68847282D01*
X100206026Y-68490337D01*
X100399779Y-68023727D01*
X100400220Y-67518490D01*
X100207282Y-67051542D01*
X99979142Y-66823003D01*
X102368718Y-66823003D01*
X102616499Y-67422680D01*
X103074907Y-67881888D01*
X103674151Y-68130716D01*
X104323003Y-68131282D01*
X104922680Y-67883501D01*
X105381888Y-67425093D01*
X105630716Y-66825849D01*
X105631282Y-66176997D01*
X105383501Y-65577320D01*
X104925093Y-65118112D01*
X104325849Y-64869284D01*
X103676997Y-64868718D01*
X103077320Y-65116499D01*
X102618112Y-65574907D01*
X102369284Y-66174151D01*
X102368718Y-66823003D01*
X99979142Y-66823003D01*
X99850337Y-66693974D01*
X99383727Y-66500221D01*
X99381512Y-66500219D01*
X99848458Y-66307282D01*
X100206026Y-65950337D01*
X100399779Y-65483727D01*
X100400220Y-64978490D01*
X100207282Y-64511542D01*
X99850337Y-64153974D01*
X99383727Y-63960221D01*
X98878490Y-63959780D01*
X98411542Y-64152718D01*
X98053974Y-64509663D01*
X97860221Y-64976273D01*
X97860219Y-64978488D01*
X97667282Y-64511542D01*
X97310337Y-64153974D01*
X96843727Y-63960221D01*
X96338490Y-63959780D01*
X95871542Y-64152718D01*
X95513974Y-64509663D01*
X95320221Y-64976273D01*
X95320219Y-64978488D01*
X95127282Y-64511542D01*
X94770337Y-64153974D01*
X94303727Y-63960221D01*
X93798490Y-63959780D01*
X93331542Y-64152718D01*
X92973974Y-64509663D01*
X92780221Y-64976273D01*
X92780219Y-64978488D01*
X92587282Y-64511542D01*
X92230337Y-64153974D01*
X91763727Y-63960221D01*
X91258490Y-63959780D01*
X90791542Y-64152718D01*
X90433974Y-64509663D01*
X90240221Y-64976273D01*
X90240219Y-64978488D01*
X90047282Y-64511542D01*
X89690337Y-64153974D01*
X89223727Y-63960221D01*
X88718490Y-63959780D01*
X88251542Y-64152718D01*
X87893974Y-64509663D01*
X87700221Y-64976273D01*
X87700219Y-64978488D01*
X87507282Y-64511542D01*
X87150337Y-64153974D01*
X86683727Y-63960221D01*
X86178490Y-63959780D01*
X85711542Y-64152718D01*
X85353974Y-64509663D01*
X85160221Y-64976273D01*
X85160219Y-64978488D01*
X84967282Y-64511542D01*
X84610337Y-64153974D01*
X84143727Y-63960221D01*
X83638490Y-63959780D01*
X83171542Y-64152718D01*
X82813974Y-64509663D01*
X82763753Y-64630608D01*
X82677539Y-64422467D01*
X82422196Y-64337409D01*
X81529605Y-65230000D01*
X82422196Y-66122591D01*
X82677539Y-66037533D01*
X82758229Y-65816583D01*
X82812718Y-65948458D01*
X83169663Y-66306026D01*
X83636273Y-66499779D01*
X83638488Y-66499781D01*
X83171542Y-66692718D01*
X82813974Y-67049663D01*
X82620221Y-67516273D01*
X82620219Y-67518488D01*
X82427282Y-67051542D01*
X82070337Y-66693974D01*
X81949392Y-66643753D01*
X82157533Y-66557539D01*
X82242591Y-66302196D01*
X81350000Y-65409605D01*
X80457409Y-66302196D01*
X80542467Y-66557539D01*
X80763417Y-66638229D01*
X80631542Y-66692718D01*
X80273974Y-67049663D01*
X80080221Y-67516273D01*
X80080219Y-67518488D01*
X79887282Y-67051542D01*
X79530337Y-66693974D01*
X79063727Y-66500221D01*
X79061512Y-66500219D01*
X79528458Y-66307282D01*
X79886026Y-65950337D01*
X79936247Y-65829392D01*
X80022461Y-66037533D01*
X80277804Y-66122591D01*
X81170395Y-65230000D01*
X80277804Y-64337409D01*
X80022461Y-64422467D01*
X79941771Y-64643417D01*
X79887282Y-64511542D01*
X79534161Y-64157804D01*
X80457409Y-64157804D01*
X81350000Y-65050395D01*
X82242591Y-64157804D01*
X82157533Y-63902461D01*
X81588035Y-63694484D01*
X80982300Y-63720277D01*
X80542467Y-63902461D01*
X80457409Y-64157804D01*
X79534161Y-64157804D01*
X79530337Y-64153974D01*
X79063727Y-63960221D01*
X78558490Y-63959780D01*
X78091542Y-64152718D01*
X77733974Y-64509663D01*
X77540221Y-64976273D01*
X77540219Y-64978488D01*
X77347282Y-64511542D01*
X76990337Y-64153974D01*
X76523727Y-63960221D01*
X76018490Y-63959780D01*
X75551542Y-64152718D01*
X75193974Y-64509663D01*
X75000221Y-64976273D01*
X75000219Y-64978488D01*
X74807282Y-64511542D01*
X74450337Y-64153974D01*
X73983727Y-63960221D01*
X73478490Y-63959780D01*
X73011542Y-64152718D01*
X72653974Y-64509663D01*
X72460221Y-64976273D01*
X72460219Y-64978488D01*
X72267282Y-64511542D01*
X71910337Y-64153974D01*
X71443727Y-63960221D01*
X70938490Y-63959780D01*
X70471542Y-64152718D01*
X70113974Y-64509663D01*
X69920221Y-64976273D01*
X69920219Y-64978488D01*
X69727282Y-64511542D01*
X69370337Y-64153974D01*
X68903727Y-63960221D01*
X68398490Y-63959780D01*
X67931542Y-64152718D01*
X67573974Y-64509663D01*
X67380221Y-64976273D01*
X67380219Y-64978488D01*
X67187282Y-64511542D01*
X66830337Y-64153974D01*
X66363727Y-63960221D01*
X65858490Y-63959780D01*
X65391542Y-64152718D01*
X65033974Y-64509663D01*
X64840221Y-64976273D01*
X64840219Y-64978488D01*
X64647282Y-64511542D01*
X64290337Y-64153974D01*
X63823727Y-63960221D01*
X63318490Y-63959780D01*
X62851542Y-64152718D01*
X62493974Y-64509663D01*
X62443753Y-64630608D01*
X62357539Y-64422467D01*
X62102196Y-64337409D01*
X61209605Y-65230000D01*
X62102196Y-66122591D01*
X62357539Y-66037533D01*
X62438229Y-65816583D01*
X62492718Y-65948458D01*
X62849663Y-66306026D01*
X63316273Y-66499779D01*
X63318488Y-66499781D01*
X62851542Y-66692718D01*
X62493974Y-67049663D01*
X62300221Y-67516273D01*
X62300219Y-67518488D01*
X62107282Y-67051542D01*
X61750337Y-66693974D01*
X61629392Y-66643753D01*
X61837533Y-66557539D01*
X61922591Y-66302196D01*
X61030000Y-65409605D01*
X60137409Y-66302196D01*
X60222467Y-66557539D01*
X60443417Y-66638229D01*
X60311542Y-66692718D01*
X59953974Y-67049663D01*
X59760221Y-67516273D01*
X59760219Y-67518488D01*
X59567282Y-67051542D01*
X59210337Y-66693974D01*
X58743727Y-66500221D01*
X58741512Y-66500219D01*
X59208458Y-66307282D01*
X59566026Y-65950337D01*
X59616247Y-65829392D01*
X59702461Y-66037533D01*
X59957804Y-66122591D01*
X60850395Y-65230000D01*
X59957804Y-64337409D01*
X59702461Y-64422467D01*
X59621771Y-64643417D01*
X59567282Y-64511542D01*
X59214161Y-64157804D01*
X60137409Y-64157804D01*
X61030000Y-65050395D01*
X61922591Y-64157804D01*
X61837533Y-63902461D01*
X61268035Y-63694484D01*
X60662300Y-63720277D01*
X60222467Y-63902461D01*
X60137409Y-64157804D01*
X59214161Y-64157804D01*
X59210337Y-64153974D01*
X58743727Y-63960221D01*
X58238490Y-63959780D01*
X57771542Y-64152718D01*
X57413974Y-64509663D01*
X57220221Y-64976273D01*
X57220219Y-64978488D01*
X57027282Y-64511542D01*
X56670337Y-64153974D01*
X56203727Y-63960221D01*
X55698490Y-63959780D01*
X55231542Y-64152718D01*
X54873974Y-64509663D01*
X54680221Y-64976273D01*
X54680219Y-64978488D01*
X54487282Y-64511542D01*
X54130337Y-64153974D01*
X53663727Y-63960221D01*
X53158490Y-63959780D01*
X52691542Y-64152718D01*
X52333974Y-64509663D01*
X52147464Y-64958830D01*
X52147464Y-64341000D01*
X52120897Y-64199810D01*
X52037454Y-64070135D01*
X51910134Y-63983141D01*
X51759000Y-63952536D01*
X49981000Y-63952536D01*
X49839810Y-63979103D01*
X49710135Y-64062546D01*
X49623141Y-64189866D01*
X49592536Y-64341000D01*
X49592536Y-66119000D01*
X49619103Y-66260190D01*
X49702546Y-66389865D01*
X49829866Y-66476859D01*
X49981000Y-66507464D01*
X50599893Y-66507464D01*
X50151542Y-66692718D01*
X49793974Y-67049663D01*
X49600221Y-67516273D01*
X49599780Y-68021510D01*
X49720203Y-68312956D01*
X45351624Y-72681536D01*
X44700000Y-72681536D01*
X44558810Y-72708103D01*
X44429135Y-72791546D01*
X44342141Y-72918866D01*
X44311536Y-73070000D01*
X40938025Y-73070000D01*
X40998327Y-73009699D01*
X41095000Y-72776310D01*
X41095000Y-72085750D01*
X40936250Y-71927000D01*
X39737000Y-71927000D01*
X39737000Y-71947000D01*
X39483000Y-71947000D01*
X39483000Y-71927000D01*
X38283750Y-71927000D01*
X38125000Y-72085750D01*
X36956000Y-72085750D01*
X36956000Y-70823690D01*
X38125000Y-70823690D01*
X38125000Y-71514250D01*
X38283750Y-71673000D01*
X39483000Y-71673000D01*
X39483000Y-70473750D01*
X39737000Y-70473750D01*
X39737000Y-71673000D01*
X40936250Y-71673000D01*
X41095000Y-71514250D01*
X41095000Y-70823690D01*
X40998327Y-70590301D01*
X40819698Y-70411673D01*
X40586309Y-70315000D01*
X39895750Y-70315000D01*
X39737000Y-70473750D01*
X39483000Y-70473750D01*
X39324250Y-70315000D01*
X38633691Y-70315000D01*
X38400302Y-70411673D01*
X38221673Y-70590301D01*
X38125000Y-70823690D01*
X36956000Y-70823690D01*
X36956000Y-66823003D01*
X44368718Y-66823003D01*
X44616499Y-67422680D01*
X45074907Y-67881888D01*
X45674151Y-68130716D01*
X46323003Y-68131282D01*
X46922680Y-67883501D01*
X47381888Y-67425093D01*
X47630716Y-66825849D01*
X47631282Y-66176997D01*
X47383501Y-65577320D01*
X46925093Y-65118112D01*
X46325849Y-64869284D01*
X45676997Y-64868718D01*
X45077320Y-65116499D01*
X44618112Y-65574907D01*
X44369284Y-66174151D01*
X44368718Y-66823003D01*
X36956000Y-66823003D01*
X36956000Y-43823003D01*
X44368718Y-43823003D01*
X44616499Y-44422680D01*
X45074907Y-44881888D01*
X45674151Y-45130716D01*
X46323003Y-45131282D01*
X46922680Y-44883501D01*
X47381888Y-44425093D01*
X47630716Y-43825849D01*
X47630718Y-43823003D01*
X102368718Y-43823003D01*
X102616499Y-44422680D01*
X103074907Y-44881888D01*
X103674151Y-45130716D01*
X104323003Y-45131282D01*
X104922680Y-44883501D01*
X105381888Y-44425093D01*
X105630716Y-43825849D01*
X105631282Y-43176997D01*
X105383501Y-42577320D01*
X104925093Y-42118112D01*
X104325849Y-41869284D01*
X103676997Y-41868718D01*
X103077320Y-42116499D01*
X102618112Y-42574907D01*
X102369284Y-43174151D01*
X102368718Y-43823003D01*
X47630718Y-43823003D01*
X47631282Y-43176997D01*
X47383501Y-42577320D01*
X46925093Y-42118112D01*
X46325849Y-41869284D01*
X45676997Y-41868718D01*
X45077320Y-42116499D01*
X44618112Y-42574907D01*
X44369284Y-43174151D01*
X44368718Y-43823003D01*
X36956000Y-43823003D01*
X36956000Y-36044911D01*
X37005663Y-35795239D01*
X37121651Y-35621651D01*
X37295239Y-35505663D01*
X37544911Y-35456000D01*
X112455089Y-35456000D01*
X112704761Y-35505663D01*
X112704761Y-35505663D01*
G37*
X112704761Y-35505663D02*
X112878349Y-35621651D01*
X112994337Y-35795239D01*
X113044000Y-36044911D01*
X113044000Y-93455089D01*
X112994337Y-93704761D01*
X112878349Y-93878349D01*
X112704761Y-93994337D01*
X112455089Y-94044000D01*
X103500000Y-94044000D01*
X103325496Y-94078711D01*
X103177559Y-94177559D01*
X103078711Y-94325496D01*
X103044000Y-94500000D01*
X103044000Y-104311119D01*
X102940000Y-104415119D01*
X102940000Y-100285750D01*
X102781250Y-100127000D01*
X101797000Y-100127000D01*
X101797000Y-100147000D01*
X101543000Y-100147000D01*
X101543000Y-100127000D01*
X100558750Y-100127000D01*
X100400000Y-100285750D01*
X100400000Y-105044000D01*
X100153464Y-105044000D01*
X100153464Y-94500000D01*
X100129697Y-94373690D01*
X100400000Y-94373690D01*
X100400000Y-99714250D01*
X100558750Y-99873000D01*
X101543000Y-99873000D01*
X101543000Y-94023750D01*
X101797000Y-94023750D01*
X101797000Y-99873000D01*
X102781250Y-99873000D01*
X102940000Y-99714250D01*
X102940000Y-94373690D01*
X102843327Y-94140301D01*
X102664698Y-93961673D01*
X102431309Y-93865000D01*
X101955750Y-93865000D01*
X101797000Y-94023750D01*
X101543000Y-94023750D01*
X101384250Y-93865000D01*
X100908691Y-93865000D01*
X100675302Y-93961673D01*
X100496673Y-94140301D01*
X100400000Y-94373690D01*
X100129697Y-94373690D01*
X100126897Y-94358810D01*
X100043454Y-94229135D01*
X99916134Y-94142141D01*
X99765000Y-94111536D01*
X99599900Y-94111536D01*
X99599900Y-81386313D01*
X99765444Y-81317912D01*
X99987136Y-81096607D01*
X100107263Y-80807309D01*
X100107536Y-80494062D01*
X99987914Y-80204554D01*
X99766609Y-79982862D01*
X99477311Y-79862735D01*
X99164064Y-79862462D01*
X98874556Y-79982084D01*
X98652864Y-80203389D01*
X98532737Y-80492687D01*
X98532464Y-80805934D01*
X98652086Y-81095442D01*
X98660100Y-81103470D01*
X98660100Y-94111536D01*
X98495000Y-94111536D01*
X98353810Y-94138103D01*
X98224135Y-94221546D01*
X98137141Y-94348866D01*
X98106536Y-94500000D01*
X98106536Y-105044000D01*
X97613464Y-105044000D01*
X97613464Y-94500000D01*
X97586897Y-94358810D01*
X97503454Y-94229135D01*
X97376134Y-94142141D01*
X97225000Y-94111536D01*
X97059900Y-94111536D01*
X97059900Y-82210864D01*
X97115444Y-82187914D01*
X97337136Y-81966609D01*
X97457263Y-81677311D01*
X97457536Y-81364064D01*
X97337914Y-81074556D01*
X97116609Y-80852864D01*
X96827311Y-80732737D01*
X96514064Y-80732464D01*
X96224556Y-80852086D01*
X96002864Y-81073391D01*
X95882737Y-81362689D01*
X95882464Y-81675936D01*
X96002086Y-81965444D01*
X96120100Y-82083664D01*
X96120100Y-94111536D01*
X95955000Y-94111536D01*
X95813810Y-94138103D01*
X95684135Y-94221546D01*
X95597141Y-94348866D01*
X95566536Y-94500000D01*
X95566536Y-105044000D01*
X95073464Y-105044000D01*
X95073464Y-94500000D01*
X95046897Y-94358810D01*
X94963454Y-94229135D01*
X94836134Y-94142141D01*
X94685000Y-94111536D01*
X94519900Y-94111536D01*
X94519900Y-84550205D01*
X94525444Y-84547914D01*
X94747136Y-84326609D01*
X94867263Y-84037311D01*
X94867536Y-83724064D01*
X94747914Y-83434556D01*
X94526609Y-83212864D01*
X94237311Y-83092737D01*
X93924064Y-83092464D01*
X93634556Y-83212086D01*
X93412864Y-83433391D01*
X93292737Y-83722689D01*
X93292464Y-84035936D01*
X93412086Y-84325444D01*
X93580100Y-84493752D01*
X93580100Y-94111536D01*
X93415000Y-94111536D01*
X93273810Y-94138103D01*
X93144135Y-94221546D01*
X93057141Y-94348866D01*
X93026536Y-94500000D01*
X93026536Y-105044000D01*
X92533464Y-105044000D01*
X92533464Y-94500000D01*
X92506897Y-94358810D01*
X92423454Y-94229135D01*
X92296134Y-94142141D01*
X92145000Y-94111536D01*
X91979900Y-94111536D01*
X91979900Y-93580000D01*
X91944131Y-93400177D01*
X91897240Y-93330000D01*
X91842270Y-93247731D01*
X87387293Y-88792755D01*
X87387536Y-88514064D01*
X87267914Y-88224556D01*
X87046609Y-88002864D01*
X86757311Y-87882737D01*
X86444064Y-87882464D01*
X86154556Y-88002086D01*
X85932864Y-88223391D01*
X85812737Y-88512689D01*
X85812464Y-88825936D01*
X85932086Y-89115444D01*
X86153391Y-89337136D01*
X86442689Y-89457263D01*
X86722969Y-89457507D01*
X91040100Y-93774639D01*
X91040100Y-94111536D01*
X90875000Y-94111536D01*
X90733810Y-94138103D01*
X90604135Y-94221546D01*
X90517141Y-94348866D01*
X90486536Y-94500000D01*
X90486536Y-105044000D01*
X89993464Y-105044000D01*
X89993464Y-94500000D01*
X89966897Y-94358810D01*
X89883454Y-94229135D01*
X89756134Y-94142141D01*
X89605000Y-94111536D01*
X89439900Y-94111536D01*
X89439900Y-93100000D01*
X89404131Y-92920177D01*
X89302269Y-92767731D01*
X85337293Y-88802755D01*
X85337536Y-88524064D01*
X85217914Y-88234556D01*
X84996609Y-88012864D01*
X84707311Y-87892737D01*
X84394064Y-87892464D01*
X84104556Y-88012086D01*
X83882864Y-88233391D01*
X83762737Y-88522689D01*
X83762464Y-88835936D01*
X83882086Y-89125444D01*
X84103391Y-89347136D01*
X84392689Y-89467263D01*
X84672969Y-89467507D01*
X88500100Y-93294638D01*
X88500100Y-94111536D01*
X88335000Y-94111536D01*
X88193810Y-94138103D01*
X88064135Y-94221546D01*
X87977141Y-94348866D01*
X87946536Y-94500000D01*
X87946536Y-105044000D01*
X87453464Y-105044000D01*
X87453464Y-94500000D01*
X87426897Y-94358810D01*
X87343454Y-94229135D01*
X87216134Y-94142141D01*
X87065000Y-94111536D01*
X86899900Y-94111536D01*
X86899900Y-93330000D01*
X86864131Y-93150177D01*
X86762269Y-92997731D01*
X83305675Y-89541137D01*
X83307263Y-89537311D01*
X83307536Y-89224064D01*
X83187914Y-88934556D01*
X82966609Y-88712864D01*
X82677311Y-88592737D01*
X82364064Y-88592464D01*
X82074556Y-88712086D01*
X81852864Y-88933391D01*
X81732737Y-89222689D01*
X81732464Y-89535936D01*
X81852086Y-89825444D01*
X82073391Y-90047136D01*
X82362689Y-90167263D01*
X82602934Y-90167472D01*
X85960100Y-93524638D01*
X85960100Y-94111536D01*
X85795000Y-94111536D01*
X85653810Y-94138103D01*
X85524135Y-94221546D01*
X85437141Y-94348866D01*
X85406536Y-94500000D01*
X85406536Y-105044000D01*
X84913464Y-105044000D01*
X84913464Y-94500000D01*
X84886897Y-94358810D01*
X84803454Y-94229135D01*
X84676134Y-94142141D01*
X84525000Y-94111536D01*
X83255000Y-94111536D01*
X83113810Y-94138103D01*
X82984135Y-94221546D01*
X82897141Y-94348866D01*
X82866536Y-94500000D01*
X82866536Y-105044000D01*
X82373464Y-105044000D01*
X82373464Y-94500000D01*
X82346897Y-94358810D01*
X82263454Y-94229135D01*
X82136134Y-94142141D01*
X81985000Y-94111536D01*
X81819900Y-94111536D01*
X81819900Y-93630000D01*
X81784131Y-93450177D01*
X81703831Y-93330000D01*
X81682270Y-93297731D01*
X80847293Y-92462755D01*
X80847536Y-92184064D01*
X80727914Y-91894556D01*
X80506609Y-91672864D01*
X80217311Y-91552737D01*
X79904064Y-91552464D01*
X79614556Y-91672086D01*
X79392864Y-91893391D01*
X79272737Y-92182689D01*
X79272464Y-92495936D01*
X79392086Y-92785444D01*
X79613391Y-93007136D01*
X79902689Y-93127263D01*
X80182969Y-93127507D01*
X80880100Y-93824639D01*
X80880100Y-94111536D01*
X80715000Y-94111536D01*
X80573810Y-94138103D01*
X80444135Y-94221546D01*
X80357141Y-94348866D01*
X80326536Y-94500000D01*
X80326536Y-105044000D01*
X79833464Y-105044000D01*
X79833464Y-94500000D01*
X79806897Y-94358810D01*
X79723454Y-94229135D01*
X79596134Y-94142141D01*
X79445000Y-94111536D01*
X79279900Y-94111536D01*
X79279900Y-93450000D01*
X79244131Y-93270177D01*
X79228417Y-93246659D01*
X79142270Y-93117731D01*
X77097293Y-91072755D01*
X77097536Y-90794064D01*
X76977914Y-90504556D01*
X76756609Y-90282864D01*
X76467311Y-90162737D01*
X76154064Y-90162464D01*
X75864556Y-90282086D01*
X75642864Y-90503391D01*
X75522737Y-90792689D01*
X75522464Y-91105936D01*
X75642086Y-91395444D01*
X75863391Y-91617136D01*
X76152689Y-91737263D01*
X76432969Y-91737507D01*
X78340100Y-93644639D01*
X78340100Y-94111536D01*
X78175000Y-94111536D01*
X78033810Y-94138103D01*
X77904135Y-94221546D01*
X77817141Y-94348866D01*
X77786536Y-94500000D01*
X77786536Y-105044000D01*
X77293464Y-105044000D01*
X77293464Y-94500000D01*
X77266897Y-94358810D01*
X77183454Y-94229135D01*
X77056134Y-94142141D01*
X76905000Y-94111536D01*
X76739900Y-94111536D01*
X76739900Y-93320000D01*
X76704131Y-93140177D01*
X76602269Y-92987730D01*
X76377293Y-92762755D01*
X76377536Y-92484064D01*
X76257914Y-92194556D01*
X76036609Y-91972864D01*
X75747311Y-91852737D01*
X75434064Y-91852464D01*
X75144556Y-91972086D01*
X74922864Y-92193391D01*
X74802737Y-92482689D01*
X74802464Y-92795936D01*
X74922086Y-93085444D01*
X75143391Y-93307136D01*
X75432689Y-93427263D01*
X75712969Y-93427507D01*
X75800100Y-93514638D01*
X75800100Y-94111536D01*
X75635000Y-94111536D01*
X75493810Y-94138103D01*
X75364135Y-94221546D01*
X75277141Y-94348866D01*
X75246536Y-94500000D01*
X75246536Y-105044000D01*
X74753464Y-105044000D01*
X74753464Y-94500000D01*
X74726897Y-94358810D01*
X74643454Y-94229135D01*
X74516134Y-94142141D01*
X74365000Y-94111536D01*
X74199900Y-94111536D01*
X74199900Y-93099128D01*
X74275445Y-93067914D01*
X74497137Y-92846609D01*
X74617264Y-92557311D01*
X74617537Y-92244064D01*
X74497915Y-91954556D01*
X74276610Y-91732864D01*
X73987312Y-91612737D01*
X73674065Y-91612464D01*
X73384557Y-91732086D01*
X73162865Y-91953391D01*
X73042738Y-92242689D01*
X73042465Y-92555936D01*
X73162087Y-92845444D01*
X73260100Y-92943628D01*
X73260100Y-94111536D01*
X73095000Y-94111536D01*
X72953810Y-94138103D01*
X72824135Y-94221546D01*
X72737141Y-94348866D01*
X72706536Y-94500000D01*
X72706536Y-105044000D01*
X72213464Y-105044000D01*
X72213464Y-94500000D01*
X72186897Y-94358810D01*
X72103454Y-94229135D01*
X71976134Y-94142141D01*
X71825000Y-94111536D01*
X70555000Y-94111536D01*
X70413810Y-94138103D01*
X70284135Y-94221546D01*
X70197141Y-94348866D01*
X70166536Y-94500000D01*
X70166536Y-105044000D01*
X69673464Y-105044000D01*
X69673464Y-94776074D01*
X72162224Y-92287315D01*
X72415936Y-92287536D01*
X72705444Y-92167914D01*
X72927136Y-91946609D01*
X73047263Y-91657311D01*
X73047536Y-91344064D01*
X72927914Y-91054556D01*
X72706609Y-90832864D01*
X72417311Y-90712737D01*
X72104064Y-90712464D01*
X71814556Y-90832086D01*
X71592864Y-91053391D01*
X71472737Y-91342689D01*
X71472471Y-91647990D01*
X69008926Y-94111536D01*
X68015000Y-94111536D01*
X67873810Y-94138103D01*
X67744135Y-94221546D01*
X67657141Y-94348866D01*
X67626536Y-94500000D01*
X67626536Y-105044000D01*
X67133464Y-105044000D01*
X67133464Y-94500000D01*
X67106897Y-94358810D01*
X67023454Y-94229135D01*
X66896134Y-94142141D01*
X66745000Y-94111536D01*
X66579900Y-94111536D01*
X66579900Y-92764638D01*
X70157246Y-89187293D01*
X70435936Y-89187536D01*
X70725444Y-89067914D01*
X70947136Y-88846609D01*
X71067263Y-88557311D01*
X71067536Y-88244064D01*
X70947914Y-87954556D01*
X70726609Y-87732864D01*
X70437311Y-87612737D01*
X70124064Y-87612464D01*
X69834556Y-87732086D01*
X69612864Y-87953391D01*
X69492737Y-88242689D01*
X69492493Y-88522968D01*
X65777731Y-92237731D01*
X65675869Y-92390177D01*
X65640100Y-92570000D01*
X65640100Y-94111536D01*
X65475000Y-94111536D01*
X65333810Y-94138103D01*
X65204135Y-94221546D01*
X65117141Y-94348866D01*
X65086536Y-94500000D01*
X65086536Y-105044000D01*
X64593464Y-105044000D01*
X64593464Y-94500000D01*
X64566897Y-94358810D01*
X64483454Y-94229135D01*
X64356134Y-94142141D01*
X64205000Y-94111536D01*
X64039900Y-94111536D01*
X64039900Y-91514640D01*
X68427248Y-87127293D01*
X68705938Y-87127536D01*
X68995446Y-87007914D01*
X69217138Y-86786609D01*
X69321176Y-86536057D01*
X76550846Y-86536057D01*
X76685903Y-86862920D01*
X76935764Y-87113218D01*
X77262391Y-87248846D01*
X77616057Y-87249154D01*
X77810974Y-87168616D01*
X77810846Y-87316057D01*
X77945903Y-87642920D01*
X78195764Y-87893218D01*
X78522391Y-88028846D01*
X78876057Y-88029154D01*
X79202920Y-87894097D01*
X79453218Y-87644236D01*
X79467476Y-87609900D01*
X81160000Y-87609900D01*
X81339823Y-87574131D01*
X81492269Y-87472269D01*
X89974639Y-78989900D01*
X97080000Y-78989900D01*
X97259823Y-78954131D01*
X97412269Y-78852269D01*
X98783456Y-77481082D01*
X98798917Y-77491413D01*
X99270000Y-77585117D01*
X99741083Y-77491413D01*
X100140448Y-77224565D01*
X100407296Y-76825200D01*
X100501000Y-76354117D01*
X100501000Y-76305883D01*
X100407296Y-75834800D01*
X100140448Y-75435435D01*
X99755488Y-75178212D01*
X100036924Y-75061645D01*
X100465183Y-74671358D01*
X100711486Y-74146892D01*
X100590819Y-73917000D01*
X99397000Y-73917000D01*
X99397000Y-73937000D01*
X99143000Y-73937000D01*
X99143000Y-73917000D01*
X99123000Y-73917000D01*
X99123000Y-73663000D01*
X99143000Y-73663000D01*
X99143000Y-72469845D01*
X99397000Y-72469845D01*
X99397000Y-73663000D01*
X100590819Y-73663000D01*
X100711486Y-73433108D01*
X100465183Y-72908642D01*
X100036924Y-72518355D01*
X99626890Y-72348524D01*
X99397000Y-72469845D01*
X99143000Y-72469845D01*
X98913110Y-72348524D01*
X98503076Y-72518355D01*
X98074817Y-72908642D01*
X97875083Y-73333947D01*
X97867296Y-73294800D01*
X97600448Y-72895435D01*
X97201083Y-72628587D01*
X96730000Y-72534883D01*
X96258917Y-72628587D01*
X95859552Y-72895435D01*
X95592704Y-73294800D01*
X95499000Y-73765883D01*
X95499000Y-73814117D01*
X95592704Y-74285200D01*
X95859552Y-74684565D01*
X96258917Y-74951413D01*
X96730000Y-75045117D01*
X97201083Y-74951413D01*
X97600448Y-74684565D01*
X97867296Y-74285200D01*
X97875083Y-74246053D01*
X98074817Y-74671358D01*
X98503076Y-75061645D01*
X98784512Y-75178212D01*
X98399552Y-75435435D01*
X98132704Y-75834800D01*
X98039000Y-76305883D01*
X98039000Y-76354117D01*
X98128981Y-76806481D01*
X96885362Y-78050100D01*
X93134438Y-78050100D01*
X93672271Y-77512268D01*
X93672273Y-77512265D01*
X93703456Y-77481082D01*
X93718917Y-77491413D01*
X94190000Y-77585117D01*
X94661083Y-77491413D01*
X95060448Y-77224565D01*
X95327296Y-76825200D01*
X95421000Y-76354117D01*
X95421000Y-76305883D01*
X95499000Y-76305883D01*
X95499000Y-76354117D01*
X95592704Y-76825200D01*
X95859552Y-77224565D01*
X96258917Y-77491413D01*
X96730000Y-77585117D01*
X97201083Y-77491413D01*
X97600448Y-77224565D01*
X97867296Y-76825200D01*
X97961000Y-76354117D01*
X97961000Y-76305883D01*
X97867296Y-75834800D01*
X97600448Y-75435435D01*
X97201083Y-75168587D01*
X96730000Y-75074883D01*
X96258917Y-75168587D01*
X95859552Y-75435435D01*
X95592704Y-75834800D01*
X95499000Y-76305883D01*
X95421000Y-76305883D01*
X95327296Y-75834800D01*
X95060448Y-75435435D01*
X94661083Y-75168587D01*
X94190000Y-75074883D01*
X93718917Y-75168587D01*
X93319552Y-75435435D01*
X93052704Y-75834800D01*
X92959000Y-76305883D01*
X92959000Y-76354117D01*
X93048981Y-76806481D01*
X93007735Y-76847727D01*
X93007732Y-76847729D01*
X92160973Y-77694489D01*
X89605611Y-77694489D01*
X89425788Y-77730258D01*
X89273341Y-77832120D01*
X81215362Y-85890100D01*
X78207741Y-85890100D01*
X78194097Y-85857080D01*
X77944236Y-85606782D01*
X77617609Y-85471154D01*
X77263943Y-85470846D01*
X76937080Y-85605903D01*
X76686782Y-85855764D01*
X76551154Y-86182391D01*
X76550846Y-86536057D01*
X69321176Y-86536057D01*
X69337265Y-86497311D01*
X69337538Y-86184064D01*
X69217916Y-85894556D01*
X68996611Y-85672864D01*
X68707313Y-85552737D01*
X68394066Y-85552464D01*
X68104558Y-85672086D01*
X67882866Y-85893391D01*
X67762739Y-86182689D01*
X67762495Y-86462968D01*
X63237731Y-90987733D01*
X63135869Y-91140179D01*
X63100100Y-91320002D01*
X63100100Y-94111536D01*
X62935000Y-94111536D01*
X62793810Y-94138103D01*
X62664135Y-94221546D01*
X62577141Y-94348866D01*
X62546536Y-94500000D01*
X62546536Y-105044000D01*
X62053464Y-105044000D01*
X62053464Y-94500000D01*
X62026897Y-94358810D01*
X61943454Y-94229135D01*
X61816134Y-94142141D01*
X61665000Y-94111536D01*
X61499900Y-94111536D01*
X61499900Y-91774638D01*
X66837246Y-86437293D01*
X67115936Y-86437536D01*
X67405444Y-86317914D01*
X67627136Y-86096609D01*
X67747263Y-85807311D01*
X67747536Y-85494064D01*
X67627914Y-85204556D01*
X67529587Y-85106057D01*
X78650846Y-85106057D01*
X78785903Y-85432920D01*
X79035764Y-85683218D01*
X79362391Y-85818846D01*
X79716057Y-85819154D01*
X80042920Y-85684097D01*
X80293218Y-85434236D01*
X80319933Y-85369900D01*
X80530000Y-85369900D01*
X80709823Y-85334131D01*
X80862269Y-85232269D01*
X88526075Y-77568464D01*
X89960000Y-77568464D01*
X90101190Y-77541897D01*
X90230865Y-77458454D01*
X90317859Y-77331134D01*
X90348464Y-77180000D01*
X90348464Y-75693002D01*
X90508981Y-75853519D01*
X90419000Y-76305883D01*
X90419000Y-76354117D01*
X90512704Y-76825200D01*
X90779552Y-77224565D01*
X91178917Y-77491413D01*
X91650000Y-77585117D01*
X92121083Y-77491413D01*
X92520448Y-77224565D01*
X92787296Y-76825200D01*
X92881000Y-76354117D01*
X92881000Y-76305883D01*
X92787296Y-75834800D01*
X92520448Y-75435435D01*
X92121083Y-75168587D01*
X91650000Y-75074883D01*
X91178917Y-75168587D01*
X91163456Y-75178918D01*
X90722269Y-74737731D01*
X90569823Y-74635869D01*
X90390000Y-74600100D01*
X90338648Y-74600100D01*
X90504917Y-74246053D01*
X90512704Y-74285200D01*
X90779552Y-74684565D01*
X91178917Y-74951413D01*
X91650000Y-75045117D01*
X92121083Y-74951413D01*
X92520448Y-74684565D01*
X92787296Y-74285200D01*
X92881000Y-73814117D01*
X92881000Y-73765883D01*
X92959000Y-73765883D01*
X92959000Y-73814117D01*
X93052704Y-74285200D01*
X93319552Y-74684565D01*
X93718917Y-74951413D01*
X94190000Y-75045117D01*
X94661083Y-74951413D01*
X95060448Y-74684565D01*
X95327296Y-74285200D01*
X95421000Y-73814117D01*
X95421000Y-73765883D01*
X95327296Y-73294800D01*
X95060448Y-72895435D01*
X94661083Y-72628587D01*
X94190000Y-72534883D01*
X93718917Y-72628587D01*
X93319552Y-72895435D01*
X93052704Y-73294800D01*
X92959000Y-73765883D01*
X92881000Y-73765883D01*
X92787296Y-73294800D01*
X92520448Y-72895435D01*
X92121083Y-72628587D01*
X91650000Y-72534883D01*
X91178917Y-72628587D01*
X90779552Y-72895435D01*
X90512704Y-73294800D01*
X90504917Y-73333947D01*
X90305183Y-72908642D01*
X89876924Y-72518355D01*
X89466890Y-72348524D01*
X89237000Y-72469845D01*
X89237000Y-73663000D01*
X89257000Y-73663000D01*
X89257000Y-73917000D01*
X89237000Y-73917000D01*
X89237000Y-73937000D01*
X88983000Y-73937000D01*
X88983000Y-73917000D01*
X87789181Y-73917000D01*
X87668514Y-74146892D01*
X87881352Y-74600100D01*
X83660000Y-74600100D01*
X83480177Y-74635869D01*
X83327730Y-74737731D01*
X79790606Y-78274856D01*
X79757609Y-78261154D01*
X79403943Y-78260846D01*
X79077080Y-78395903D01*
X78826782Y-78645764D01*
X78691154Y-78972391D01*
X78690846Y-79326057D01*
X78825903Y-79652920D01*
X79075764Y-79903218D01*
X79402391Y-80038846D01*
X79756057Y-80039154D01*
X80082920Y-79904097D01*
X80333218Y-79654236D01*
X80468846Y-79327609D01*
X80469154Y-78973943D01*
X80454956Y-78939582D01*
X83854639Y-75539900D01*
X87871536Y-75539900D01*
X87871536Y-76893925D01*
X80335362Y-84430100D01*
X80295345Y-84430100D01*
X80294097Y-84427080D01*
X80044236Y-84176782D01*
X79717609Y-84041154D01*
X79363943Y-84040846D01*
X79037080Y-84175903D01*
X78786782Y-84425764D01*
X78651154Y-84752391D01*
X78650846Y-85106057D01*
X67529587Y-85106057D01*
X67406609Y-84982864D01*
X67117311Y-84862737D01*
X66804064Y-84862464D01*
X66514556Y-84982086D01*
X66292864Y-85203391D01*
X66172737Y-85492689D01*
X66172493Y-85772968D01*
X60697731Y-91247731D01*
X60595869Y-91400177D01*
X60560100Y-91580000D01*
X60560100Y-94111536D01*
X60395000Y-94111536D01*
X60253810Y-94138103D01*
X60124135Y-94221546D01*
X60037141Y-94348866D01*
X60006536Y-94500000D01*
X60006536Y-105044000D01*
X59513464Y-105044000D01*
X59513464Y-94500000D01*
X59486897Y-94358810D01*
X59403454Y-94229135D01*
X59276134Y-94142141D01*
X59125000Y-94111536D01*
X57855000Y-94111536D01*
X57713810Y-94138103D01*
X57584135Y-94221546D01*
X57497141Y-94348866D01*
X57466536Y-94500000D01*
X57466536Y-105044000D01*
X56973464Y-105044000D01*
X56973464Y-94500000D01*
X56946897Y-94358810D01*
X56863454Y-94229135D01*
X56736134Y-94142141D01*
X56585000Y-94111536D01*
X55315000Y-94111536D01*
X55173810Y-94138103D01*
X55044135Y-94221546D01*
X54957141Y-94348866D01*
X54926536Y-94500000D01*
X54926536Y-105044000D01*
X54433464Y-105044000D01*
X54433464Y-94500000D01*
X54406897Y-94358810D01*
X54323454Y-94229135D01*
X54196134Y-94142141D01*
X54045000Y-94111536D01*
X53929900Y-94111536D01*
X53929900Y-92347741D01*
X53962920Y-92334097D01*
X54213218Y-92084236D01*
X54348846Y-91757609D01*
X54349154Y-91403943D01*
X54214097Y-91077080D01*
X53964236Y-90826782D01*
X53637609Y-90691154D01*
X53283943Y-90690846D01*
X52957080Y-90825903D01*
X52706782Y-91075764D01*
X52571154Y-91402391D01*
X52570846Y-91756057D01*
X52705903Y-92082920D01*
X52955764Y-92333218D01*
X52990100Y-92347476D01*
X52990100Y-94111536D01*
X52775000Y-94111536D01*
X52633810Y-94138103D01*
X52504135Y-94221546D01*
X52417141Y-94348866D01*
X52386536Y-94500000D01*
X52386536Y-105044000D01*
X51893464Y-105044000D01*
X51893464Y-94500000D01*
X51866897Y-94358810D01*
X51783454Y-94229135D01*
X51656134Y-94142141D01*
X51505000Y-94111536D01*
X50235000Y-94111536D01*
X50093810Y-94138103D01*
X49964135Y-94221546D01*
X49877141Y-94348866D01*
X49846536Y-94500000D01*
X49846536Y-105044000D01*
X49353464Y-105044000D01*
X49353464Y-94500000D01*
X49346000Y-94460333D01*
X49346000Y-93230000D01*
X49280811Y-92902269D01*
X49268662Y-92841193D01*
X49048421Y-92511580D01*
X46178420Y-89641580D01*
X45848807Y-89421338D01*
X45460000Y-89344001D01*
X45071193Y-89421338D01*
X44741580Y-89641580D01*
X44521338Y-89971193D01*
X44444001Y-90360000D01*
X44521338Y-90748807D01*
X44741580Y-91078420D01*
X47314000Y-93650841D01*
X47314000Y-94463141D01*
X47306536Y-94500000D01*
X47306536Y-104661654D01*
X46956000Y-104311118D01*
X46956000Y-94500000D01*
X46921289Y-94325496D01*
X46822441Y-94177559D01*
X46674504Y-94078711D01*
X46500000Y-94044000D01*
X37544911Y-94044000D01*
X37295239Y-93994337D01*
X37121651Y-93878349D01*
X37005663Y-93704761D01*
X36956000Y-93455089D01*
X36956000Y-81720000D01*
X60224000Y-81720000D01*
X60301338Y-82108806D01*
X60521580Y-82438420D01*
X60851194Y-82658662D01*
X61240000Y-82736000D01*
X63280000Y-82736000D01*
X63604300Y-82671493D01*
X63668807Y-82658662D01*
X63998420Y-82438420D01*
X67478420Y-78958421D01*
X67698661Y-78628807D01*
X67775999Y-78240000D01*
X67698661Y-77851193D01*
X67478420Y-77521580D01*
X67148807Y-77301339D01*
X66760000Y-77224001D01*
X66371193Y-77301339D01*
X66041579Y-77521580D01*
X62859160Y-80704000D01*
X61240000Y-80704000D01*
X60851194Y-80781338D01*
X60521580Y-81001580D01*
X60301338Y-81331194D01*
X60224000Y-81720000D01*
X36956000Y-81720000D01*
X36956000Y-76880000D01*
X38354883Y-76880000D01*
X38448587Y-77351083D01*
X38715435Y-77750448D01*
X39114800Y-78017296D01*
X39585883Y-78111000D01*
X39634117Y-78111000D01*
X40105200Y-78017296D01*
X40504565Y-77750448D01*
X40771413Y-77351083D01*
X40865117Y-76880000D01*
X40781575Y-76460000D01*
X44294883Y-76460000D01*
X44388587Y-76931083D01*
X44655435Y-77330448D01*
X45054800Y-77597296D01*
X45525883Y-77691000D01*
X45574117Y-77691000D01*
X46045200Y-77597296D01*
X46444565Y-77330448D01*
X46711413Y-76931083D01*
X46805117Y-76460000D01*
X46711413Y-75988917D01*
X46444565Y-75589552D01*
X46045200Y-75322704D01*
X45574117Y-75229000D01*
X45525883Y-75229000D01*
X45054800Y-75322704D01*
X44655435Y-75589552D01*
X44388587Y-75988917D01*
X44294883Y-76460000D01*
X40781575Y-76460000D01*
X40771413Y-76408917D01*
X40504565Y-76009552D01*
X40105200Y-75742704D01*
X39634117Y-75649000D01*
X39585883Y-75649000D01*
X39114800Y-75742704D01*
X38715435Y-76009552D01*
X38448587Y-76408917D01*
X38354883Y-76880000D01*
X36956000Y-76880000D01*
X36956000Y-72085750D01*
X38125000Y-72085750D01*
X38125000Y-72776310D01*
X38221673Y-73009699D01*
X38400302Y-73188327D01*
X38633691Y-73285000D01*
X38991636Y-73285000D01*
X38715435Y-73469552D01*
X38448587Y-73868917D01*
X38354883Y-74340000D01*
X38448587Y-74811083D01*
X38715435Y-75210448D01*
X39114800Y-75477296D01*
X39585883Y-75571000D01*
X39634117Y-75571000D01*
X40105200Y-75477296D01*
X40504565Y-75210448D01*
X40771413Y-74811083D01*
X40865117Y-74340000D01*
X40771413Y-73868917D01*
X40504565Y-73469552D01*
X40228364Y-73285000D01*
X40586309Y-73285000D01*
X40819698Y-73188327D01*
X40938025Y-73070000D01*
X44311536Y-73070000D01*
X44311536Y-74770000D01*
X44338103Y-74911190D01*
X44421546Y-75040865D01*
X44548866Y-75127859D01*
X44700000Y-75158464D01*
X46400000Y-75158464D01*
X46541190Y-75131897D01*
X46670865Y-75048454D01*
X46757859Y-74921134D01*
X46788464Y-74770000D01*
X46788464Y-74118376D01*
X51588420Y-69318421D01*
X51808662Y-68988807D01*
X51836813Y-68847282D01*
X51886000Y-68600000D01*
X51886000Y-68550258D01*
X51946026Y-68490337D01*
X52139779Y-68023727D01*
X52139781Y-68021512D01*
X52332718Y-68488458D01*
X52689663Y-68846026D01*
X53156273Y-69039779D01*
X53661510Y-69040220D01*
X54128458Y-68847282D01*
X54486026Y-68490337D01*
X54679779Y-68023727D01*
X54679781Y-68021512D01*
X54783333Y-68272128D01*
X52757731Y-70297731D01*
X52655869Y-70450177D01*
X52620100Y-70630000D01*
X52620100Y-75091536D01*
X52240000Y-75091536D01*
X52098810Y-75118103D01*
X51969135Y-75201546D01*
X51882141Y-75328866D01*
X51851536Y-75480000D01*
X51851536Y-77180000D01*
X51878103Y-77321190D01*
X51961546Y-77450865D01*
X52088866Y-77537859D01*
X52240000Y-77568464D01*
X53940000Y-77568464D01*
X54081190Y-77541897D01*
X54210865Y-77458454D01*
X54297859Y-77331134D01*
X54328464Y-77180000D01*
X54328464Y-75480000D01*
X54301897Y-75338810D01*
X54218454Y-75209135D01*
X54091134Y-75122141D01*
X53940000Y-75091536D01*
X53559900Y-75091536D01*
X53559900Y-70824638D01*
X55447895Y-68936644D01*
X55696273Y-69039779D01*
X56201510Y-69040220D01*
X56668458Y-68847282D01*
X57026026Y-68490337D01*
X57219779Y-68023727D01*
X57219781Y-68021512D01*
X57323333Y-68272129D01*
X57268732Y-68326730D01*
X57166870Y-68479176D01*
X57131101Y-68658999D01*
X57131101Y-69964360D01*
X55237731Y-71857731D01*
X55135869Y-72010177D01*
X55100100Y-72190000D01*
X55100100Y-75207887D01*
X54759552Y-75435435D01*
X54492704Y-75834800D01*
X54399000Y-76305883D01*
X54399000Y-76354117D01*
X54492704Y-76825200D01*
X54759552Y-77224565D01*
X55158917Y-77491413D01*
X55630000Y-77585117D01*
X56101083Y-77491413D01*
X56500448Y-77224565D01*
X56767296Y-76825200D01*
X56861000Y-76354117D01*
X56861000Y-76305883D01*
X56767296Y-75834800D01*
X56500448Y-75435435D01*
X56101083Y-75168587D01*
X56039900Y-75156417D01*
X56039900Y-72384638D01*
X57933270Y-70491269D01*
X58035132Y-70338822D01*
X58039870Y-70315000D01*
X58070901Y-70158999D01*
X58070901Y-68971111D01*
X58236273Y-69039779D01*
X58741510Y-69040220D01*
X59208458Y-68847282D01*
X59566026Y-68490337D01*
X59759779Y-68023727D01*
X59759781Y-68021512D01*
X59952718Y-68488458D01*
X60309663Y-68846026D01*
X60560100Y-68950016D01*
X60560100Y-69755361D01*
X57837731Y-72477731D01*
X57735869Y-72630177D01*
X57700100Y-72810000D01*
X57700100Y-75168352D01*
X57698917Y-75168587D01*
X57299552Y-75435435D01*
X57032704Y-75834800D01*
X56939000Y-76305883D01*
X56939000Y-76354117D01*
X57032704Y-76825200D01*
X57299552Y-77224565D01*
X57698917Y-77491413D01*
X58170000Y-77585117D01*
X58641083Y-77491413D01*
X59040448Y-77224565D01*
X59307296Y-76825200D01*
X59401000Y-76354117D01*
X59401000Y-76305883D01*
X59307296Y-75834800D01*
X59040448Y-75435435D01*
X58641083Y-75168587D01*
X58639900Y-75168352D01*
X58639900Y-73433108D01*
X87668514Y-73433108D01*
X87789181Y-73663000D01*
X88983000Y-73663000D01*
X88983000Y-72469845D01*
X88753110Y-72348524D01*
X88343076Y-72518355D01*
X87914817Y-72908642D01*
X87668514Y-73433108D01*
X58639900Y-73433108D01*
X58639900Y-73004638D01*
X61362270Y-70282269D01*
X61464131Y-70129823D01*
X61465670Y-70122086D01*
X61499900Y-69950000D01*
X61499900Y-68949984D01*
X61748458Y-68847282D01*
X62106026Y-68490337D01*
X62299779Y-68023727D01*
X62299781Y-68021512D01*
X62492718Y-68488458D01*
X62849663Y-68846026D01*
X63316273Y-69039779D01*
X63821510Y-69040220D01*
X64288458Y-68847282D01*
X64293552Y-68842196D01*
X65217409Y-68842196D01*
X65302467Y-69097539D01*
X65871965Y-69305516D01*
X66477700Y-69279723D01*
X66917533Y-69097539D01*
X67002591Y-68842196D01*
X66110000Y-67949605D01*
X65217409Y-68842196D01*
X64293552Y-68842196D01*
X64646026Y-68490337D01*
X64696247Y-68369392D01*
X64782461Y-68577533D01*
X65037804Y-68662591D01*
X65930395Y-67770000D01*
X65037804Y-66877409D01*
X64782461Y-66962467D01*
X64701771Y-67183417D01*
X64647282Y-67051542D01*
X64290337Y-66693974D01*
X63823727Y-66500221D01*
X63821512Y-66500219D01*
X64288458Y-66307282D01*
X64646026Y-65950337D01*
X64839779Y-65483727D01*
X64839781Y-65481512D01*
X65032718Y-65948458D01*
X65389663Y-66306026D01*
X65510608Y-66356247D01*
X65302467Y-66442461D01*
X65217409Y-66697804D01*
X66110000Y-67590395D01*
X67002591Y-66697804D01*
X66917533Y-66442461D01*
X66696583Y-66361771D01*
X66828458Y-66307282D01*
X67186026Y-65950337D01*
X67379779Y-65483727D01*
X67379781Y-65481512D01*
X67572718Y-65948458D01*
X67929663Y-66306026D01*
X68396273Y-66499779D01*
X68398488Y-66499781D01*
X67931542Y-66692718D01*
X67573974Y-67049663D01*
X67523753Y-67170608D01*
X67437539Y-66962467D01*
X67182196Y-66877409D01*
X66289605Y-67770000D01*
X67182196Y-68662591D01*
X67437539Y-68577533D01*
X67518229Y-68356583D01*
X67572718Y-68488458D01*
X67929663Y-68846026D01*
X68396273Y-69039779D01*
X68901510Y-69040220D01*
X69368458Y-68847282D01*
X69726026Y-68490337D01*
X69919779Y-68023727D01*
X69919781Y-68021512D01*
X70112718Y-68488458D01*
X70469663Y-68846026D01*
X70936273Y-69039779D01*
X71441510Y-69040220D01*
X71908458Y-68847282D01*
X72030100Y-68725852D01*
X72030100Y-70146499D01*
X71832864Y-70343391D01*
X71712737Y-70632689D01*
X71712464Y-70945936D01*
X71832086Y-71235444D01*
X72053391Y-71457136D01*
X72342689Y-71577263D01*
X72655936Y-71577536D01*
X72945444Y-71457914D01*
X73167136Y-71236609D01*
X73287263Y-70947311D01*
X73287536Y-70634064D01*
X73167914Y-70344556D01*
X72969900Y-70146196D01*
X72969900Y-69114861D01*
X73491965Y-69305516D01*
X74097700Y-69279723D01*
X74537533Y-69097539D01*
X74622591Y-68842196D01*
X73730000Y-67949605D01*
X73715858Y-67963748D01*
X73536253Y-67784143D01*
X73550395Y-67770000D01*
X73536253Y-67755858D01*
X73715858Y-67576253D01*
X73730000Y-67590395D01*
X74622591Y-66697804D01*
X74537533Y-66442461D01*
X74316583Y-66361771D01*
X74448458Y-66307282D01*
X74806026Y-65950337D01*
X74999779Y-65483727D01*
X74999781Y-65481512D01*
X75192718Y-65948458D01*
X75549663Y-66306026D01*
X76016273Y-66499779D01*
X76018488Y-66499781D01*
X75551542Y-66692718D01*
X75193974Y-67049663D01*
X75143753Y-67170608D01*
X75057539Y-66962467D01*
X74802196Y-66877409D01*
X73909605Y-67770000D01*
X74802196Y-68662591D01*
X75057539Y-68577533D01*
X75138229Y-68356583D01*
X75192718Y-68488458D01*
X75549663Y-68846026D01*
X75800100Y-68950016D01*
X75800100Y-70655361D01*
X75662755Y-70792707D01*
X75384064Y-70792464D01*
X75094556Y-70912086D01*
X74872864Y-71133391D01*
X74752737Y-71422689D01*
X74752464Y-71735936D01*
X74872086Y-72025444D01*
X75093391Y-72247136D01*
X75382689Y-72367263D01*
X75695936Y-72367536D01*
X75985444Y-72247914D01*
X76207136Y-72026609D01*
X76327263Y-71737311D01*
X76327507Y-71457031D01*
X76602270Y-71182269D01*
X76704131Y-71029823D01*
X76711301Y-70993778D01*
X76739900Y-70850000D01*
X76739900Y-68949984D01*
X76988458Y-68847282D01*
X77346026Y-68490337D01*
X77539779Y-68023727D01*
X77539781Y-68021512D01*
X77732718Y-68488458D01*
X78089663Y-68846026D01*
X78556273Y-69039779D01*
X79061510Y-69040220D01*
X79528458Y-68847282D01*
X79886026Y-68490337D01*
X80079779Y-68023727D01*
X80079781Y-68021512D01*
X80272718Y-68488458D01*
X80629663Y-68846026D01*
X81096273Y-69039779D01*
X81601510Y-69040220D01*
X82068458Y-68847282D01*
X82426026Y-68490337D01*
X82619779Y-68023727D01*
X82619781Y-68021512D01*
X82812718Y-68488458D01*
X83169663Y-68846026D01*
X83636273Y-69039779D01*
X84141510Y-69040220D01*
X84608458Y-68847282D01*
X84966026Y-68490337D01*
X85159779Y-68023727D01*
X85159781Y-68021512D01*
X85352718Y-68488458D01*
X85709663Y-68846026D01*
X86176273Y-69039779D01*
X86681510Y-69040220D01*
X87148458Y-68847282D01*
X87506026Y-68490337D01*
X87699779Y-68023727D01*
X87699781Y-68021512D01*
X87892718Y-68488458D01*
X88249663Y-68846026D01*
X88716273Y-69039779D01*
X89221510Y-69040220D01*
X89688458Y-68847282D01*
X90046026Y-68490337D01*
X90239779Y-68023727D01*
X90239781Y-68021512D01*
X90432718Y-68488458D01*
X90789663Y-68846026D01*
X91256273Y-69039779D01*
X91761510Y-69040220D01*
X92228458Y-68847282D01*
X92586026Y-68490337D01*
X92779779Y-68023727D01*
X92779781Y-68021512D01*
X92972718Y-68488458D01*
X93329663Y-68846026D01*
X93796273Y-69039779D01*
X94301510Y-69040220D01*
X94768458Y-68847282D01*
X95126026Y-68490337D01*
X95319779Y-68023727D01*
X95319781Y-68021512D01*
X95512718Y-68488458D01*
X95869663Y-68846026D01*
X96336273Y-69039779D01*
X96841510Y-69040220D01*
X97308458Y-68847282D01*
X97666026Y-68490337D01*
X97859779Y-68023727D01*
X97859781Y-68021512D01*
X98052718Y-68488458D01*
X98409663Y-68846026D01*
X98876273Y-69039779D01*
X99381510Y-69040220D01*
X99848458Y-68847282D01*
X100206026Y-68490337D01*
X100399779Y-68023727D01*
X100400220Y-67518490D01*
X100207282Y-67051542D01*
X99979142Y-66823003D01*
X102368718Y-66823003D01*
X102616499Y-67422680D01*
X103074907Y-67881888D01*
X103674151Y-68130716D01*
X104323003Y-68131282D01*
X104922680Y-67883501D01*
X105381888Y-67425093D01*
X105630716Y-66825849D01*
X105631282Y-66176997D01*
X105383501Y-65577320D01*
X104925093Y-65118112D01*
X104325849Y-64869284D01*
X103676997Y-64868718D01*
X103077320Y-65116499D01*
X102618112Y-65574907D01*
X102369284Y-66174151D01*
X102368718Y-66823003D01*
X99979142Y-66823003D01*
X99850337Y-66693974D01*
X99383727Y-66500221D01*
X99381512Y-66500219D01*
X99848458Y-66307282D01*
X100206026Y-65950337D01*
X100399779Y-65483727D01*
X100400220Y-64978490D01*
X100207282Y-64511542D01*
X99850337Y-64153974D01*
X99383727Y-63960221D01*
X98878490Y-63959780D01*
X98411542Y-64152718D01*
X98053974Y-64509663D01*
X97860221Y-64976273D01*
X97860219Y-64978488D01*
X97667282Y-64511542D01*
X97310337Y-64153974D01*
X96843727Y-63960221D01*
X96338490Y-63959780D01*
X95871542Y-64152718D01*
X95513974Y-64509663D01*
X95320221Y-64976273D01*
X95320219Y-64978488D01*
X95127282Y-64511542D01*
X94770337Y-64153974D01*
X94303727Y-63960221D01*
X93798490Y-63959780D01*
X93331542Y-64152718D01*
X92973974Y-64509663D01*
X92780221Y-64976273D01*
X92780219Y-64978488D01*
X92587282Y-64511542D01*
X92230337Y-64153974D01*
X91763727Y-63960221D01*
X91258490Y-63959780D01*
X90791542Y-64152718D01*
X90433974Y-64509663D01*
X90240221Y-64976273D01*
X90240219Y-64978488D01*
X90047282Y-64511542D01*
X89690337Y-64153974D01*
X89223727Y-63960221D01*
X88718490Y-63959780D01*
X88251542Y-64152718D01*
X87893974Y-64509663D01*
X87700221Y-64976273D01*
X87700219Y-64978488D01*
X87507282Y-64511542D01*
X87150337Y-64153974D01*
X86683727Y-63960221D01*
X86178490Y-63959780D01*
X85711542Y-64152718D01*
X85353974Y-64509663D01*
X85160221Y-64976273D01*
X85160219Y-64978488D01*
X84967282Y-64511542D01*
X84610337Y-64153974D01*
X84143727Y-63960221D01*
X83638490Y-63959780D01*
X83171542Y-64152718D01*
X82813974Y-64509663D01*
X82763753Y-64630608D01*
X82677539Y-64422467D01*
X82422196Y-64337409D01*
X81529605Y-65230000D01*
X82422196Y-66122591D01*
X82677539Y-66037533D01*
X82758229Y-65816583D01*
X82812718Y-65948458D01*
X83169663Y-66306026D01*
X83636273Y-66499779D01*
X83638488Y-66499781D01*
X83171542Y-66692718D01*
X82813974Y-67049663D01*
X82620221Y-67516273D01*
X82620219Y-67518488D01*
X82427282Y-67051542D01*
X82070337Y-66693974D01*
X81949392Y-66643753D01*
X82157533Y-66557539D01*
X82242591Y-66302196D01*
X81350000Y-65409605D01*
X80457409Y-66302196D01*
X80542467Y-66557539D01*
X80763417Y-66638229D01*
X80631542Y-66692718D01*
X80273974Y-67049663D01*
X80080221Y-67516273D01*
X80080219Y-67518488D01*
X79887282Y-67051542D01*
X79530337Y-66693974D01*
X79063727Y-66500221D01*
X79061512Y-66500219D01*
X79528458Y-66307282D01*
X79886026Y-65950337D01*
X79936247Y-65829392D01*
X80022461Y-66037533D01*
X80277804Y-66122591D01*
X81170395Y-65230000D01*
X80277804Y-64337409D01*
X80022461Y-64422467D01*
X79941771Y-64643417D01*
X79887282Y-64511542D01*
X79534161Y-64157804D01*
X80457409Y-64157804D01*
X81350000Y-65050395D01*
X82242591Y-64157804D01*
X82157533Y-63902461D01*
X81588035Y-63694484D01*
X80982300Y-63720277D01*
X80542467Y-63902461D01*
X80457409Y-64157804D01*
X79534161Y-64157804D01*
X79530337Y-64153974D01*
X79063727Y-63960221D01*
X78558490Y-63959780D01*
X78091542Y-64152718D01*
X77733974Y-64509663D01*
X77540221Y-64976273D01*
X77540219Y-64978488D01*
X77347282Y-64511542D01*
X76990337Y-64153974D01*
X76523727Y-63960221D01*
X76018490Y-63959780D01*
X75551542Y-64152718D01*
X75193974Y-64509663D01*
X75000221Y-64976273D01*
X75000219Y-64978488D01*
X74807282Y-64511542D01*
X74450337Y-64153974D01*
X73983727Y-63960221D01*
X73478490Y-63959780D01*
X73011542Y-64152718D01*
X72653974Y-64509663D01*
X72460221Y-64976273D01*
X72460219Y-64978488D01*
X72267282Y-64511542D01*
X71910337Y-64153974D01*
X71443727Y-63960221D01*
X70938490Y-63959780D01*
X70471542Y-64152718D01*
X70113974Y-64509663D01*
X69920221Y-64976273D01*
X69920219Y-64978488D01*
X69727282Y-64511542D01*
X69370337Y-64153974D01*
X68903727Y-63960221D01*
X68398490Y-63959780D01*
X67931542Y-64152718D01*
X67573974Y-64509663D01*
X67380221Y-64976273D01*
X67380219Y-64978488D01*
X67187282Y-64511542D01*
X66830337Y-64153974D01*
X66363727Y-63960221D01*
X65858490Y-63959780D01*
X65391542Y-64152718D01*
X65033974Y-64509663D01*
X64840221Y-64976273D01*
X64840219Y-64978488D01*
X64647282Y-64511542D01*
X64290337Y-64153974D01*
X63823727Y-63960221D01*
X63318490Y-63959780D01*
X62851542Y-64152718D01*
X62493974Y-64509663D01*
X62443753Y-64630608D01*
X62357539Y-64422467D01*
X62102196Y-64337409D01*
X61209605Y-65230000D01*
X62102196Y-66122591D01*
X62357539Y-66037533D01*
X62438229Y-65816583D01*
X62492718Y-65948458D01*
X62849663Y-66306026D01*
X63316273Y-66499779D01*
X63318488Y-66499781D01*
X62851542Y-66692718D01*
X62493974Y-67049663D01*
X62300221Y-67516273D01*
X62300219Y-67518488D01*
X62107282Y-67051542D01*
X61750337Y-66693974D01*
X61629392Y-66643753D01*
X61837533Y-66557539D01*
X61922591Y-66302196D01*
X61030000Y-65409605D01*
X60137409Y-66302196D01*
X60222467Y-66557539D01*
X60443417Y-66638229D01*
X60311542Y-66692718D01*
X59953974Y-67049663D01*
X59760221Y-67516273D01*
X59760219Y-67518488D01*
X59567282Y-67051542D01*
X59210337Y-66693974D01*
X58743727Y-66500221D01*
X58741512Y-66500219D01*
X59208458Y-66307282D01*
X59566026Y-65950337D01*
X59616247Y-65829392D01*
X59702461Y-66037533D01*
X59957804Y-66122591D01*
X60850395Y-65230000D01*
X59957804Y-64337409D01*
X59702461Y-64422467D01*
X59621771Y-64643417D01*
X59567282Y-64511542D01*
X59214161Y-64157804D01*
X60137409Y-64157804D01*
X61030000Y-65050395D01*
X61922591Y-64157804D01*
X61837533Y-63902461D01*
X61268035Y-63694484D01*
X60662300Y-63720277D01*
X60222467Y-63902461D01*
X60137409Y-64157804D01*
X59214161Y-64157804D01*
X59210337Y-64153974D01*
X58743727Y-63960221D01*
X58238490Y-63959780D01*
X57771542Y-64152718D01*
X57413974Y-64509663D01*
X57220221Y-64976273D01*
X57220219Y-64978488D01*
X57027282Y-64511542D01*
X56670337Y-64153974D01*
X56203727Y-63960221D01*
X55698490Y-63959780D01*
X55231542Y-64152718D01*
X54873974Y-64509663D01*
X54680221Y-64976273D01*
X54680219Y-64978488D01*
X54487282Y-64511542D01*
X54130337Y-64153974D01*
X53663727Y-63960221D01*
X53158490Y-63959780D01*
X52691542Y-64152718D01*
X52333974Y-64509663D01*
X52147464Y-64958830D01*
X52147464Y-64341000D01*
X52120897Y-64199810D01*
X52037454Y-64070135D01*
X51910134Y-63983141D01*
X51759000Y-63952536D01*
X49981000Y-63952536D01*
X49839810Y-63979103D01*
X49710135Y-64062546D01*
X49623141Y-64189866D01*
X49592536Y-64341000D01*
X49592536Y-66119000D01*
X49619103Y-66260190D01*
X49702546Y-66389865D01*
X49829866Y-66476859D01*
X49981000Y-66507464D01*
X50599893Y-66507464D01*
X50151542Y-66692718D01*
X49793974Y-67049663D01*
X49600221Y-67516273D01*
X49599780Y-68021510D01*
X49720203Y-68312956D01*
X45351624Y-72681536D01*
X44700000Y-72681536D01*
X44558810Y-72708103D01*
X44429135Y-72791546D01*
X44342141Y-72918866D01*
X44311536Y-73070000D01*
X40938025Y-73070000D01*
X40998327Y-73009699D01*
X41095000Y-72776310D01*
X41095000Y-72085750D01*
X40936250Y-71927000D01*
X39737000Y-71927000D01*
X39737000Y-71947000D01*
X39483000Y-71947000D01*
X39483000Y-71927000D01*
X38283750Y-71927000D01*
X38125000Y-72085750D01*
X36956000Y-72085750D01*
X36956000Y-70823690D01*
X38125000Y-70823690D01*
X38125000Y-71514250D01*
X38283750Y-71673000D01*
X39483000Y-71673000D01*
X39483000Y-70473750D01*
X39737000Y-70473750D01*
X39737000Y-71673000D01*
X40936250Y-71673000D01*
X41095000Y-71514250D01*
X41095000Y-70823690D01*
X40998327Y-70590301D01*
X40819698Y-70411673D01*
X40586309Y-70315000D01*
X39895750Y-70315000D01*
X39737000Y-70473750D01*
X39483000Y-70473750D01*
X39324250Y-70315000D01*
X38633691Y-70315000D01*
X38400302Y-70411673D01*
X38221673Y-70590301D01*
X38125000Y-70823690D01*
X36956000Y-70823690D01*
X36956000Y-66823003D01*
X44368718Y-66823003D01*
X44616499Y-67422680D01*
X45074907Y-67881888D01*
X45674151Y-68130716D01*
X46323003Y-68131282D01*
X46922680Y-67883501D01*
X47381888Y-67425093D01*
X47630716Y-66825849D01*
X47631282Y-66176997D01*
X47383501Y-65577320D01*
X46925093Y-65118112D01*
X46325849Y-64869284D01*
X45676997Y-64868718D01*
X45077320Y-65116499D01*
X44618112Y-65574907D01*
X44369284Y-66174151D01*
X44368718Y-66823003D01*
X36956000Y-66823003D01*
X36956000Y-43823003D01*
X44368718Y-43823003D01*
X44616499Y-44422680D01*
X45074907Y-44881888D01*
X45674151Y-45130716D01*
X46323003Y-45131282D01*
X46922680Y-44883501D01*
X47381888Y-44425093D01*
X47630716Y-43825849D01*
X47630718Y-43823003D01*
X102368718Y-43823003D01*
X102616499Y-44422680D01*
X103074907Y-44881888D01*
X103674151Y-45130716D01*
X104323003Y-45131282D01*
X104922680Y-44883501D01*
X105381888Y-44425093D01*
X105630716Y-43825849D01*
X105631282Y-43176997D01*
X105383501Y-42577320D01*
X104925093Y-42118112D01*
X104325849Y-41869284D01*
X103676997Y-41868718D01*
X103077320Y-42116499D01*
X102618112Y-42574907D01*
X102369284Y-43174151D01*
X102368718Y-43823003D01*
X47630718Y-43823003D01*
X47631282Y-43176997D01*
X47383501Y-42577320D01*
X46925093Y-42118112D01*
X46325849Y-41869284D01*
X45676997Y-41868718D01*
X45077320Y-42116499D01*
X44618112Y-42574907D01*
X44369284Y-43174151D01*
X44368718Y-43823003D01*
X36956000Y-43823003D01*
X36956000Y-36044911D01*
X37005663Y-35795239D01*
X37121651Y-35621651D01*
X37295239Y-35505663D01*
X37544911Y-35456000D01*
X112455089Y-35456000D01*
X112704761Y-35505663D01*
G36*
X57412718Y-65948458D02*
X57769663Y-66306026D01*
X58236273Y-66499779D01*
X58238488Y-66499781D01*
X57771542Y-66692718D01*
X57413974Y-67049663D01*
X57220221Y-67516273D01*
X57220219Y-67518488D01*
X57027282Y-67051542D01*
X56670337Y-66693974D01*
X56203727Y-66500221D01*
X56201512Y-66500219D01*
X56668458Y-66307282D01*
X57026026Y-65950337D01*
X57219779Y-65483727D01*
X57219781Y-65481512D01*
X57412718Y-65948458D01*
X57412718Y-65948458D01*
G37*
X57412718Y-65948458D02*
X57769663Y-66306026D01*
X58236273Y-66499779D01*
X58238488Y-66499781D01*
X57771542Y-66692718D01*
X57413974Y-67049663D01*
X57220221Y-67516273D01*
X57220219Y-67518488D01*
X57027282Y-67051542D01*
X56670337Y-66693974D01*
X56203727Y-66500221D01*
X56201512Y-66500219D01*
X56668458Y-66307282D01*
X57026026Y-65950337D01*
X57219779Y-65483727D01*
X57219781Y-65481512D01*
X57412718Y-65948458D01*
M02*
